  0
SECTION
  2
BLOCKS
  0
ENDSEC
  0
SECTION
  2
ENTITIES
  0
LINE
  8
0
 10
119
 20
-35.5
 11
119
 21
56.5
  0
LINE
  8
0
 10
119
 20
56.5
 11
-39.4967
 21
56.5
  0
LINE
  8
0
 10
-39.4967
 20
56.5
 11
-39.4967
 21
-22.7113
  0
LINE
  8
0
 10
-39.4967
 20
-22.7113
 11
-23.2259
 21
-57.6041
  0
LINE
  8
0
 10
-23.2259
 20
-57.6041
 11
119
 21
-35.5
  0
LINE
  8
0
 10
31.05
 20
35.05
 11
31.05
 21
48.95
  0
LINE
  8
0
 10
31.05
 20
48.95
 11
44.95
 21
48.95
  0
LINE
  8
0
 10
44.95
 20
48.95
 11
44.95
 21
35.05
  0
LINE
  8
0
 10
44.95
 20
35.05
 11
31.05
 21
35.05
  0
LINE
  8
0
 10
12.05
 20
33.55
 11
12.05
 21
47.45
  0
LINE
  8
0
 10
12.05
 20
47.45
 11
25.95
 21
47.45
  0
LINE
  8
0
 10
25.95
 20
47.45
 11
25.95
 21
33.55
  0
LINE
  8
0
 10
25.95
 20
33.55
 11
12.05
 21
33.55
  0
LINE
  8
0
 10
50.05
 20
33.55
 11
50.05
 21
47.45
  0
LINE
  8
0
 10
50.05
 20
47.45
 11
63.95
 21
47.45
  0
LINE
  8
0
 10
63.95
 20
47.45
 11
63.95
 21
33.55
  0
LINE
  8
0
 10
63.95
 20
33.55
 11
50.05
 21
33.55
  0
LINE
  8
0
 10
-6.95
 20
31.05
 11
-6.95
 21
44.95
  0
LINE
  8
0
 10
-6.95
 20
44.95
 11
6.95
 21
44.95
  0
LINE
  8
0
 10
6.95
 20
44.95
 11
6.95
 21
31.05
  0
LINE
  8
0
 10
6.95
 20
31.05
 11
-6.95
 21
31.05
  0
LINE
  8
0
 10
69.05
 20
29.05
 11
69.05
 21
42.95
  0
LINE
  8
0
 10
69.05
 20
42.95
 11
82.95
 21
42.95
  0
LINE
  8
0
 10
82.95
 20
42.95
 11
82.95
 21
29.05
  0
LINE
  8
0
 10
82.95
 20
29.05
 11
69.05
 21
29.05
  0
LINE
  8
0
 10
92.8
 20
29.05
 11
92.8
 21
42.95
  0
LINE
  8
0
 10
92.8
 20
42.95
 11
106.7
 21
42.95
  0
LINE
  8
0
 10
106.7
 20
42.95
 11
106.7
 21
29.05
  0
LINE
  8
0
 10
106.7
 20
29.05
 11
92.8
 21
29.05
  0
LINE
  8
0
 10
-25.95
 20
26.3
 11
-25.95
 21
40.2
  0
LINE
  8
0
 10
-25.95
 20
40.2
 11
-12.05
 21
40.2
  0
LINE
  8
0
 10
-12.05
 20
40.2
 11
-12.05
 21
26.3
  0
LINE
  8
0
 10
-12.05
 20
26.3
 11
-25.95
 21
26.3
  0
LINE
  8
0
 10
31.05
 20
16.05
 11
31.05
 21
29.95
  0
LINE
  8
0
 10
31.05
 20
29.95
 11
44.95
 21
29.95
  0
LINE
  8
0
 10
44.95
 20
29.95
 11
44.95
 21
16.05
  0
LINE
  8
0
 10
44.95
 20
16.05
 11
31.05
 21
16.05
  0
LINE
  8
0
 10
50.05
 20
14.55
 11
50.05
 21
28.45
  0
LINE
  8
0
 10
50.05
 20
28.45
 11
63.95
 21
28.45
  0
LINE
  8
0
 10
63.95
 20
28.45
 11
63.95
 21
14.55
  0
LINE
  8
0
 10
63.95
 20
14.55
 11
50.05
 21
14.55
  0
LINE
  8
0
 10
12.05
 20
14.55
 11
12.05
 21
28.45
  0
LINE
  8
0
 10
12.05
 20
28.45
 11
25.95
 21
28.45
  0
LINE
  8
0
 10
25.95
 20
28.45
 11
25.95
 21
14.55
  0
LINE
  8
0
 10
25.95
 20
14.55
 11
12.05
 21
14.55
  0
LINE
  8
0
 10
-6.95
 20
12.05
 11
-6.95
 21
25.95
  0
LINE
  8
0
 10
-6.95
 20
25.95
 11
6.95
 21
25.95
  0
LINE
  8
0
 10
6.95
 20
25.95
 11
6.95
 21
12.05
  0
LINE
  8
0
 10
6.95
 20
12.05
 11
-6.95
 21
12.05
  0
LINE
  8
0
 10
69.05
 20
10.05
 11
69.05
 21
23.95
  0
LINE
  8
0
 10
69.05
 20
23.95
 11
82.95
 21
23.95
  0
LINE
  8
0
 10
82.95
 20
23.95
 11
82.95
 21
10.05
  0
LINE
  8
0
 10
82.95
 20
10.05
 11
69.05
 21
10.05
  0
LINE
  8
0
 10
92.8
 20
10.05
 11
92.8
 21
23.95
  0
LINE
  8
0
 10
92.8
 20
23.95
 11
106.7
 21
23.95
  0
LINE
  8
0
 10
106.7
 20
23.95
 11
106.7
 21
10.05
  0
LINE
  8
0
 10
106.7
 20
10.05
 11
92.8
 21
10.05
  0
LINE
  8
0
 10
-25.95
 20
-2.2
 11
-25.95
 21
11.7
  0
LINE
  8
0
 10
-25.95
 20
11.7
 11
-12.05
 21
11.7
  0
LINE
  8
0
 10
-12.05
 20
11.7
 11
-12.05
 21
-2.2
  0
LINE
  8
0
 10
-12.05
 20
-2.2
 11
-25.95
 21
-2.2
  0
LINE
  8
0
 10
31.05
 20
-2.95
 11
31.05
 21
10.95
  0
LINE
  8
0
 10
31.05
 20
10.95
 11
44.95
 21
10.95
  0
LINE
  8
0
 10
44.95
 20
10.95
 11
44.95
 21
-2.95
  0
LINE
  8
0
 10
44.95
 20
-2.95
 11
31.05
 21
-2.95
  0
LINE
  8
0
 10
12.05
 20
-4.45
 11
12.05
 21
9.45
  0
LINE
  8
0
 10
12.05
 20
9.45
 11
25.95
 21
9.45
  0
LINE
  8
0
 10
25.95
 20
9.45
 11
25.95
 21
-4.45
  0
LINE
  8
0
 10
25.95
 20
-4.45
 11
12.05
 21
-4.45
  0
LINE
  8
0
 10
50.05
 20
-4.45
 11
50.05
 21
9.45
  0
LINE
  8
0
 10
50.05
 20
9.45
 11
63.95
 21
9.45
  0
LINE
  8
0
 10
63.95
 20
9.45
 11
63.95
 21
-4.45
  0
LINE
  8
0
 10
63.95
 20
-4.45
 11
50.05
 21
-4.45
  0
LINE
  8
0
 10
-6.95
 20
-6.95
 11
-6.95
 21
6.95
  0
LINE
  8
0
 10
-6.95
 20
6.95
 11
6.95
 21
6.95
  0
LINE
  8
0
 10
6.95
 20
6.95
 11
6.95
 21
-6.95
  0
LINE
  8
0
 10
6.95
 20
-6.95
 11
-6.95
 21
-6.95
  0
LINE
  8
0
 10
69.05
 20
-8.95
 11
69.05
 21
4.95
  0
LINE
  8
0
 10
69.05
 20
4.95
 11
82.95
 21
4.95
  0
LINE
  8
0
 10
82.95
 20
4.95
 11
82.95
 21
-8.95
  0
LINE
  8
0
 10
82.95
 20
-8.95
 11
69.05
 21
-8.95
  0
LINE
  8
0
 10
92.8
 20
-8.95
 11
92.8
 21
4.95
  0
LINE
  8
0
 10
92.8
 20
4.95
 11
106.7
 21
4.95
  0
LINE
  8
0
 10
106.7
 20
4.95
 11
106.7
 21
-8.95
  0
LINE
  8
0
 10
106.7
 20
-8.95
 11
92.8
 21
-8.95
  0
LINE
  8
0
 10
31.05
 20
-21.95
 11
31.05
 21
-8.04999
  0
LINE
  8
0
 10
31.05
 20
-8.04999
 11
44.95
 21
-8.04999
  0
LINE
  8
0
 10
44.95
 20
-8.04999
 11
44.95
 21
-21.95
  0
LINE
  8
0
 10
44.95
 20
-21.95
 11
31.05
 21
-21.95
  0
LINE
  8
0
 10
50.05
 20
-23.45
 11
50.05
 21
-9.54999
  0
LINE
  8
0
 10
50.05
 20
-9.54999
 11
63.95
 21
-9.54999
  0
LINE
  8
0
 10
63.95
 20
-9.54999
 11
63.95
 21
-23.45
  0
LINE
  8
0
 10
63.95
 20
-23.45
 11
50.05
 21
-23.45
  0
LINE
  8
0
 10
12.05
 20
-23.45
 11
12.05
 21
-9.54999
  0
LINE
  8
0
 10
12.05
 20
-9.54999
 11
25.95
 21
-9.54999
  0
LINE
  8
0
 10
25.95
 20
-9.54999
 11
25.95
 21
-23.45
  0
LINE
  8
0
 10
25.95
 20
-23.45
 11
12.05
 21
-23.45
  0
LINE
  8
0
 10
69.05
 20
-27.95
 11
69.05
 21
-14.05
  0
LINE
  8
0
 10
69.05
 20
-14.05
 11
82.95
 21
-14.05
  0
LINE
  8
0
 10
82.95
 20
-14.05
 11
82.95
 21
-27.95
  0
LINE
  8
0
 10
82.95
 20
-27.95
 11
69.05
 21
-27.95
  0
LINE
  8
0
 10
88.05
 20
-27.95
 11
88.05
 21
-14.05
  0
LINE
  8
0
 10
88.05
 20
-14.05
 11
101.95
 21
-14.05
  0
LINE
  8
0
 10
101.95
 20
-14.05
 11
101.95
 21
-27.95
  0
LINE
  8
0
 10
101.95
 20
-27.95
 11
88.05
 21
-27.95
  0
LINE
  8
0
 10
-10.236
 20
-22.6384
 11
2.36163
 21
-16.764
  0
LINE
  8
0
 10
2.36163
 20
-16.764
 11
8.23602
 21
-29.3616
  0
LINE
  8
0
 10
8.23602
 20
-29.3616
 11
-4.36163
 21
-35.236
  0
LINE
  8
0
 10
-4.36163
 20
-35.236
 11
-10.236
 21
-22.6384
  0
LINE
  8
0
 10
-27.4559
 20
-30.6681
 11
-14.8582
 21
-24.7937
  0
LINE
  8
0
 10
-14.8582
 20
-24.7937
 11
-8.9838
 21
-37.3914
  0
LINE
  8
0
 10
-8.9838
 20
-37.3914
 11
-21.5815
 21
-43.2658
  0
LINE
  8
0
 10
-21.5815
 20
-43.2658
 11
-27.4559
 21
-30.6681
  0
ENDSEC
  0
SECTION
  2
OBJECTS
  0
DICTIONARY
  0
ENDSEC
  0
EOF
