  0
SECTION
  2
BLOCKS
  0
ENDSEC
  0
SECTION
  2
ENTITIES
  0
LINE
  8
0
 10
34.994
 20
-35.5
 11
119
 21
-35.5
  0
LINE
  8
0
 10
119
 20
-35.5
 11
119
 21
56.5
  0
LINE
  8
0
 10
119
 20
56.5
 11
-58.5339
 21
56.5
  0
LINE
  8
0
 10
-58.5339
 20
56.5
 11
-58.5339
 21
-5.18646
  0
LINE
  8
0
 10
-58.5339
 20
-5.18646
 11
-30.2185
 21
-65.9091
  0
LINE
  8
0
 10
-30.2185
 20
-65.9091
 11
34.994
 21
-35.5
  0
LINE
  8
0
 10
31.05
 20
35.05
 11
31.05
 21
48.95
  0
LINE
  8
0
 10
31.05
 20
48.95
 11
44.95
 21
48.95
  0
LINE
  8
0
 10
44.95
 20
48.95
 11
44.95
 21
35.05
  0
LINE
  8
0
 10
44.95
 20
35.05
 11
31.05
 21
35.05
  0
LINE
  8
0
 10
50.05
 20
33.55
 11
50.05
 21
47.45
  0
LINE
  8
0
 10
50.05
 20
47.45
 11
63.95
 21
47.45
  0
LINE
  8
0
 10
63.95
 20
47.45
 11
63.95
 21
33.55
  0
LINE
  8
0
 10
63.95
 20
33.55
 11
50.05
 21
33.55
  0
LINE
  8
0
 10
12.05
 20
33.55
 11
12.05
 21
47.45
  0
LINE
  8
0
 10
12.05
 20
47.45
 11
25.95
 21
47.45
  0
LINE
  8
0
 10
25.95
 20
47.45
 11
25.95
 21
33.55
  0
LINE
  8
0
 10
25.95
 20
33.55
 11
12.05
 21
33.55
  0
LINE
  8
0
 10
-6.95
 20
31.05
 11
-6.95
 21
44.95
  0
LINE
  8
0
 10
-6.95
 20
44.95
 11
6.95
 21
44.95
  0
LINE
  8
0
 10
6.95
 20
44.95
 11
6.95
 21
31.05
  0
LINE
  8
0
 10
6.95
 20
31.05
 11
-6.95
 21
31.05
  0
LINE
  8
0
 10
69.05
 20
29.05
 11
69.05
 21
42.95
  0
LINE
  8
0
 10
69.05
 20
42.95
 11
82.95
 21
42.95
  0
LINE
  8
0
 10
82.95
 20
42.95
 11
82.95
 21
29.05
  0
LINE
  8
0
 10
82.95
 20
29.05
 11
69.05
 21
29.05
  0
LINE
  8
0
 10
92.8
 20
29.05
 11
92.8
 21
42.95
  0
LINE
  8
0
 10
92.8
 20
42.95
 11
106.7
 21
42.95
  0
LINE
  8
0
 10
106.7
 20
42.95
 11
106.7
 21
29.05
  0
LINE
  8
0
 10
106.7
 20
29.05
 11
92.8
 21
29.05
  0
LINE
  8
0
 10
31.05
 20
16.05
 11
31.05
 21
29.95
  0
LINE
  8
0
 10
31.05
 20
29.95
 11
44.95
 21
29.95
  0
LINE
  8
0
 10
44.95
 20
29.95
 11
44.95
 21
16.05
  0
LINE
  8
0
 10
44.95
 20
16.05
 11
31.05
 21
16.05
  0
LINE
  8
0
 10
50.05
 20
14.55
 11
50.05
 21
28.45
  0
LINE
  8
0
 10
50.05
 20
28.45
 11
63.95
 21
28.45
  0
LINE
  8
0
 10
63.95
 20
28.45
 11
63.95
 21
14.55
  0
LINE
  8
0
 10
63.95
 20
14.55
 11
50.05
 21
14.55
  0
LINE
  8
0
 10
12.05
 20
14.55
 11
12.05
 21
28.45
  0
LINE
  8
0
 10
12.05
 20
28.45
 11
25.95
 21
28.45
  0
LINE
  8
0
 10
25.95
 20
28.45
 11
25.95
 21
14.55
  0
LINE
  8
0
 10
25.95
 20
14.55
 11
12.05
 21
14.55
  0
LINE
  8
0
 10
-6.95
 20
12.05
 11
-6.95
 21
25.95
  0
LINE
  8
0
 10
-6.95
 20
25.95
 11
6.95
 21
25.95
  0
LINE
  8
0
 10
6.95
 20
25.95
 11
6.95
 21
12.05
  0
LINE
  8
0
 10
6.95
 20
12.05
 11
-6.95
 21
12.05
  0
LINE
  8
0
 10
69.05
 20
10.05
 11
69.05
 21
23.95
  0
LINE
  8
0
 10
69.05
 20
23.95
 11
82.95
 21
23.95
  0
LINE
  8
0
 10
82.95
 20
23.95
 11
82.95
 21
10.05
  0
LINE
  8
0
 10
82.95
 20
10.05
 11
69.05
 21
10.05
  0
LINE
  8
0
 10
92.8
 20
10.05
 11
92.8
 21
23.95
  0
LINE
  8
0
 10
92.8
 20
23.95
 11
106.7
 21
23.95
  0
LINE
  8
0
 10
106.7
 20
23.95
 11
106.7
 21
10.05
  0
LINE
  8
0
 10
106.7
 20
10.05
 11
92.8
 21
10.05
  0
LINE
  8
0
 10
31.05
 20
-2.95
 11
31.05
 21
10.95
  0
LINE
  8
0
 10
31.05
 20
10.95
 11
44.95
 21
10.95
  0
LINE
  8
0
 10
44.95
 20
10.95
 11
44.95
 21
-2.95
  0
LINE
  8
0
 10
44.95
 20
-2.95
 11
31.05
 21
-2.95
  0
LINE
  8
0
 10
50.05
 20
-4.45
 11
50.05
 21
9.45
  0
LINE
  8
0
 10
50.05
 20
9.45
 11
63.95
 21
9.45
  0
LINE
  8
0
 10
63.95
 20
9.45
 11
63.95
 21
-4.45
  0
LINE
  8
0
 10
63.95
 20
-4.45
 11
50.05
 21
-4.45
  0
LINE
  8
0
 10
12.05
 20
-4.45
 11
12.05
 21
9.45
  0
LINE
  8
0
 10
12.05
 20
9.45
 11
25.95
 21
9.45
  0
LINE
  8
0
 10
25.95
 20
9.45
 11
25.95
 21
-4.45
  0
LINE
  8
0
 10
25.95
 20
-4.45
 11
12.05
 21
-4.45
  0
LINE
  8
0
 10
-6.95
 20
-6.95
 11
-6.95
 21
6.95
  0
LINE
  8
0
 10
-6.95
 20
6.95
 11
6.95
 21
6.95
  0
LINE
  8
0
 10
6.95
 20
6.95
 11
6.95
 21
-6.95
  0
LINE
  8
0
 10
6.95
 20
-6.95
 11
-6.95
 21
-6.95
  0
LINE
  8
0
 10
-31.2806
 20
-0.808578
 11
-18.683
 21
5.0658
  0
LINE
  8
0
 10
-18.683
 20
5.0658
 11
-12.8086
 21
-7.53188
  0
LINE
  8
0
 10
-12.8086
 20
-7.53188
 11
-25.4062
 21
-13.4063
  0
LINE
  8
0
 10
-25.4062
 20
-13.4063
 11
-31.2806
 21
-0.808578
  0
LINE
  8
0
 10
69.05
 20
-8.95
 11
69.05
 21
4.95
  0
LINE
  8
0
 10
69.05
 20
4.95
 11
82.95
 21
4.95
  0
LINE
  8
0
 10
82.95
 20
4.95
 11
82.95
 21
-8.95
  0
LINE
  8
0
 10
82.95
 20
-8.95
 11
69.05
 21
-8.95
  0
LINE
  8
0
 10
92.8
 20
-8.95
 11
92.8
 21
4.95
  0
LINE
  8
0
 10
92.8
 20
4.95
 11
106.7
 21
4.95
  0
LINE
  8
0
 10
106.7
 20
4.95
 11
106.7
 21
-8.95
  0
LINE
  8
0
 10
106.7
 20
-8.95
 11
92.8
 21
-8.95
  0
LINE
  8
0
 10
-48.5005
 20
-8.83833
 11
-35.9028
 21
-2.96393
  0
LINE
  8
0
 10
-35.9028
 20
-2.96393
 11
-30.0284
 21
-15.5616
  0
LINE
  8
0
 10
-30.0284
 20
-15.5616
 11
-42.6261
 21
-21.436
  0
LINE
  8
0
 10
-42.6261
 20
-21.436
 11
-48.5005
 21
-8.83833
  0
LINE
  8
0
 10
31.05
 20
-21.95
 11
31.05
 21
-8.04999
  0
LINE
  8
0
 10
31.05
 20
-8.04999
 11
44.95
 21
-8.04999
  0
LINE
  8
0
 10
44.95
 20
-8.04999
 11
44.95
 21
-21.95
  0
LINE
  8
0
 10
44.95
 20
-21.95
 11
31.05
 21
-21.95
  0
LINE
  8
0
 10
50.05
 20
-23.45
 11
50.05
 21
-9.54999
  0
LINE
  8
0
 10
50.05
 20
-9.54999
 11
63.95
 21
-9.54999
  0
LINE
  8
0
 10
63.95
 20
-9.54999
 11
63.95
 21
-23.45
  0
LINE
  8
0
 10
63.95
 20
-23.45
 11
50.05
 21
-23.45
  0
LINE
  8
0
 10
12.05
 20
-23.45
 11
12.05
 21
-9.54999
  0
LINE
  8
0
 10
12.05
 20
-9.54999
 11
25.95
 21
-9.54999
  0
LINE
  8
0
 10
25.95
 20
-9.54999
 11
25.95
 21
-23.45
  0
LINE
  8
0
 10
25.95
 20
-23.45
 11
12.05
 21
-23.45
  0
LINE
  8
0
 10
88.05
 20
-27.95
 11
88.05
 21
-14.05
  0
LINE
  8
0
 10
88.05
 20
-14.05
 11
101.95
 21
-14.05
  0
LINE
  8
0
 10
101.95
 20
-14.05
 11
101.95
 21
-27.95
  0
LINE
  8
0
 10
101.95
 20
-27.95
 11
88.05
 21
-27.95
  0
LINE
  8
0
 10
69.05
 20
-27.95
 11
69.05
 21
-14.05
  0
LINE
  8
0
 10
69.05
 20
-14.05
 11
82.95
 21
-14.05
  0
LINE
  8
0
 10
82.95
 20
-14.05
 11
82.95
 21
-27.95
  0
LINE
  8
0
 10
82.95
 20
-27.95
 11
69.05
 21
-27.95
  0
LINE
  8
0
 10
-19.236
 20
-26.6384
 11
-6.63835
 21
-20.764
  0
LINE
  8
0
 10
-6.63835
 20
-20.764
 11
-0.763962
 21
-33.3616
  0
LINE
  8
0
 10
-0.763962
 20
-33.3616
 11
-13.3616
 21
-39.236
  0
LINE
  8
0
 10
-13.3616
 20
-39.236
 11
-19.236
 21
-26.6384
  0
LINE
  8
0
 10
-36.4559
 20
-34.6681
 11
-23.8582
 21
-28.7937
  0
LINE
  8
0
 10
-23.8582
 20
-28.7937
 11
-17.9838
 21
-41.3914
  0
LINE
  8
0
 10
-17.9838
 20
-41.3914
 11
-30.5815
 21
-47.2658
  0
LINE
  8
0
 10
-30.5815
 20
-47.2658
 11
-36.4559
 21
-34.6681
  0
ENDSEC
  0
SECTION
  2
OBJECTS
  0
DICTIONARY
  0
ENDSEC
  0
EOF
