  0
SECTION
  2
BLOCKS
  0
ENDSEC
  0
SECTION
  2
ENTITIES
  0
LINE
  8
0
 10
17.838
 20
-53.5
 11
119
 21
-53.5
  0
LINE
  8
0
 10
119
 20
-53.5
 11
119
 21
60
  0
LINE
  8
0
 10
119
 20
60
 11
-58.5339
 21
60
  0
LINE
  8
0
 10
-58.5339
 20
60
 11
-58.5339
 21
-15.1865
  0
LINE
  8
0
 10
-58.5339
 20
-15.1865
 11
-30.2185
 21
-75.9091
  0
LINE
  8
0
 10
-30.2185
 20
-75.9091
 11
17.838
 21
-53.5
  0
LINE
  8
0
 10
31.05
 20
38.55
 11
31.05
 21
52.45
  0
LINE
  8
0
 10
31.05
 20
52.45
 11
44.95
 21
52.45
  0
LINE
  8
0
 10
44.95
 20
52.45
 11
44.95
 21
38.55
  0
LINE
  8
0
 10
44.95
 20
38.55
 11
31.05
 21
38.55
  0
LINE
  8
0
 10
12.05
 20
33.55
 11
12.05
 21
47.45
  0
LINE
  8
0
 10
12.05
 20
47.45
 11
25.95
 21
47.45
  0
LINE
  8
0
 10
25.95
 20
47.45
 11
25.95
 21
33.55
  0
LINE
  8
0
 10
25.95
 20
33.55
 11
12.05
 21
33.55
  0
LINE
  8
0
 10
-6.95
 20
31.05
 11
-6.95
 21
44.95
  0
LINE
  8
0
 10
-6.95
 20
44.95
 11
6.95
 21
44.95
  0
LINE
  8
0
 10
6.95
 20
44.95
 11
6.95
 21
31.05
  0
LINE
  8
0
 10
6.95
 20
31.05
 11
-6.95
 21
31.05
  0
LINE
  8
0
 10
50.05
 20
28.55
 11
50.05
 21
42.45
  0
LINE
  8
0
 10
50.05
 20
42.45
 11
63.95
 21
42.45
  0
LINE
  8
0
 10
63.95
 20
42.45
 11
63.95
 21
28.55
  0
LINE
  8
0
 10
63.95
 20
28.55
 11
50.05
 21
28.55
  0
LINE
  8
0
 10
31.05
 20
19.55
 11
31.05
 21
33.45
  0
LINE
  8
0
 10
31.05
 20
33.45
 11
44.95
 21
33.45
  0
LINE
  8
0
 10
44.95
 20
33.45
 11
44.95
 21
19.55
  0
LINE
  8
0
 10
44.95
 20
19.55
 11
31.05
 21
19.55
  0
LINE
  8
0
 10
12.05
 20
14.55
 11
12.05
 21
28.45
  0
LINE
  8
0
 10
12.05
 20
28.45
 11
25.95
 21
28.45
  0
LINE
  8
0
 10
25.95
 20
28.45
 11
25.95
 21
14.55
  0
LINE
  8
0
 10
25.95
 20
14.55
 11
12.05
 21
14.55
  0
LINE
  8
0
 10
69.05
 20
13.55
 11
69.05
 21
27.45
  0
LINE
  8
0
 10
69.05
 20
27.45
 11
82.95
 21
27.45
  0
LINE
  8
0
 10
82.95
 20
27.45
 11
82.95
 21
13.55
  0
LINE
  8
0
 10
82.95
 20
13.55
 11
69.05
 21
13.55
  0
LINE
  8
0
 10
-6.95
 20
12.05
 11
-6.95
 21
25.95
  0
LINE
  8
0
 10
-6.95
 20
25.95
 11
6.95
 21
25.95
  0
LINE
  8
0
 10
6.95
 20
25.95
 11
6.95
 21
12.05
  0
LINE
  8
0
 10
6.95
 20
12.05
 11
-6.95
 21
12.05
  0
LINE
  8
0
 10
92.8
 20
11.05
 11
92.8
 21
24.95
  0
LINE
  8
0
 10
92.8
 20
24.95
 11
106.7
 21
24.95
  0
LINE
  8
0
 10
106.7
 20
24.95
 11
106.7
 21
11.05
  0
LINE
  8
0
 10
106.7
 20
11.05
 11
92.8
 21
11.05
  0
LINE
  8
0
 10
50.05
 20
9.54999
 11
50.05
 21
23.45
  0
LINE
  8
0
 10
50.05
 20
23.45
 11
63.95
 21
23.45
  0
LINE
  8
0
 10
63.95
 20
23.45
 11
63.95
 21
9.54999
  0
LINE
  8
0
 10
63.95
 20
9.54999
 11
50.05
 21
9.54999
  0
LINE
  8
0
 10
31.05
 20
0.549988
 11
31.05
 21
14.45
  0
LINE
  8
0
 10
31.05
 20
14.45
 11
44.95
 21
14.45
  0
LINE
  8
0
 10
44.95
 20
14.45
 11
44.95
 21
0.549988
  0
LINE
  8
0
 10
44.95
 20
0.549988
 11
31.05
 21
0.549988
  0
LINE
  8
0
 10
12.05
 20
-4.45
 11
12.05
 21
9.45
  0
LINE
  8
0
 10
12.05
 20
9.45
 11
25.95
 21
9.45
  0
LINE
  8
0
 10
25.95
 20
9.45
 11
25.95
 21
-4.45
  0
LINE
  8
0
 10
25.95
 20
-4.45
 11
12.05
 21
-4.45
  0
LINE
  8
0
 10
69.05
 20
-5.45
 11
69.05
 21
8.45
  0
LINE
  8
0
 10
69.05
 20
8.45
 11
82.95
 21
8.45
  0
LINE
  8
0
 10
82.95
 20
8.45
 11
82.95
 21
-5.45
  0
LINE
  8
0
 10
82.95
 20
-5.45
 11
69.05
 21
-5.45
  0
LINE
  8
0
 10
-6.95
 20
-6.95
 11
-6.95
 21
6.95
  0
LINE
  8
0
 10
-6.95
 20
6.95
 11
6.95
 21
6.95
  0
LINE
  8
0
 10
6.95
 20
6.95
 11
6.95
 21
-6.95
  0
LINE
  8
0
 10
6.95
 20
-6.95
 11
-6.95
 21
-6.95
  0
LINE
  8
0
 10
92.8
 20
-7.95
 11
92.8
 21
5.95
  0
LINE
  8
0
 10
92.8
 20
5.95
 11
106.7
 21
5.95
  0
LINE
  8
0
 10
106.7
 20
5.95
 11
106.7
 21
-7.95
  0
LINE
  8
0
 10
106.7
 20
-7.95
 11
92.8
 21
-7.95
  0
LINE
  8
0
 10
50.05
 20
-9.45
 11
50.05
 21
4.45
  0
LINE
  8
0
 10
50.05
 20
4.45
 11
63.95
 21
4.45
  0
LINE
  8
0
 10
63.95
 20
4.45
 11
63.95
 21
-9.45
  0
LINE
  8
0
 10
63.95
 20
-9.45
 11
50.05
 21
-9.45
  0
LINE
  8
0
 10
31.05
 20
-18.45
 11
31.05
 21
-4.54999
  0
LINE
  8
0
 10
31.05
 20
-4.54999
 11
44.95
 21
-4.54999
  0
LINE
  8
0
 10
44.95
 20
-4.54999
 11
44.95
 21
-18.45
  0
LINE
  8
0
 10
44.95
 20
-18.45
 11
31.05
 21
-18.45
  0
LINE
  8
0
 10
-31.2806
 20
-10.8086
 11
-18.683
 21
-4.93419
  0
LINE
  8
0
 10
-18.683
 20
-4.93419
 11
-12.8086
 21
-17.5319
  0
LINE
  8
0
 10
-12.8086
 20
-17.5319
 11
-25.4062
 21
-23.4063
  0
LINE
  8
0
 10
-25.4062
 20
-23.4063
 11
-31.2806
 21
-10.8086
  0
LINE
  8
0
 10
12.05
 20
-23.45
 11
12.05
 21
-9.54999
  0
LINE
  8
0
 10
12.05
 20
-9.54999
 11
25.95
 21
-9.54999
  0
LINE
  8
0
 10
25.95
 20
-9.54999
 11
25.95
 21
-23.45
  0
LINE
  8
0
 10
25.95
 20
-23.45
 11
12.05
 21
-23.45
  0
LINE
  8
0
 10
69.05
 20
-24.45
 11
69.05
 21
-10.55
  0
LINE
  8
0
 10
69.05
 20
-10.55
 11
82.95
 21
-10.55
  0
LINE
  8
0
 10
82.95
 20
-10.55
 11
82.95
 21
-24.45
  0
LINE
  8
0
 10
82.95
 20
-24.45
 11
69.05
 21
-24.45
  0
LINE
  8
0
 10
-48.5005
 20
-18.8383
 11
-35.9028
 21
-12.9639
  0
LINE
  8
0
 10
-35.9028
 20
-12.9639
 11
-30.0284
 21
-25.5616
  0
LINE
  8
0
 10
-30.0284
 20
-25.5616
 11
-42.6261
 21
-31.436
  0
LINE
  8
0
 10
-42.6261
 20
-31.436
 11
-48.5005
 21
-18.8383
  0
LINE
  8
0
 10
92.8
 20
-26.95
 11
92.8
 21
-13.05
  0
LINE
  8
0
 10
92.8
 20
-13.05
 11
106.7
 21
-13.05
  0
LINE
  8
0
 10
106.7
 20
-13.05
 11
106.7
 21
-26.95
  0
LINE
  8
0
 10
106.7
 20
-26.95
 11
92.8
 21
-26.95
  0
LINE
  8
0
 10
50.05
 20
-28.45
 11
50.05
 21
-14.55
  0
LINE
  8
0
 10
50.05
 20
-14.55
 11
63.95
 21
-14.55
  0
LINE
  8
0
 10
63.95
 20
-14.55
 11
63.95
 21
-28.45
  0
LINE
  8
0
 10
63.95
 20
-28.45
 11
50.05
 21
-28.45
  0
LINE
  8
0
 10
69.05
 20
-43.45
 11
69.05
 21
-29.55
  0
LINE
  8
0
 10
69.05
 20
-29.55
 11
82.95
 21
-29.55
  0
LINE
  8
0
 10
82.95
 20
-29.55
 11
82.95
 21
-43.45
  0
LINE
  8
0
 10
82.95
 20
-43.45
 11
69.05
 21
-43.45
  0
LINE
  8
0
 10
-19.236
 20
-36.6384
 11
-6.63835
 21
-30.764
  0
LINE
  8
0
 10
-6.63835
 20
-30.764
 11
-0.763962
 21
-43.3616
  0
LINE
  8
0
 10
-0.763962
 20
-43.3616
 11
-13.3616
 21
-49.236
  0
LINE
  8
0
 10
-13.3616
 20
-49.236
 11
-19.236
 21
-36.6384
  0
LINE
  8
0
 10
88.05
 20
-45.95
 11
88.05
 21
-32.05
  0
LINE
  8
0
 10
88.05
 20
-32.05
 11
101.95
 21
-32.05
  0
LINE
  8
0
 10
101.95
 20
-32.05
 11
101.95
 21
-45.95
  0
LINE
  8
0
 10
101.95
 20
-45.95
 11
88.05
 21
-45.95
  0
LINE
  8
0
 10
-36.4559
 20
-44.6681
 11
-23.8582
 21
-38.7937
  0
LINE
  8
0
 10
-23.8582
 20
-38.7937
 11
-17.9838
 21
-51.3914
  0
LINE
  8
0
 10
-17.9838
 20
-51.3914
 11
-30.5815
 21
-57.2658
  0
LINE
  8
0
 10
-30.5815
 20
-57.2658
 11
-36.4559
 21
-44.6681
  0
ENDSEC
  0
SECTION
  2
OBJECTS
  0
DICTIONARY
  0
ENDSEC
  0
EOF
