G04 #@! TF.GenerationSoftware,KiCad,Pcbnew,(2016-12-22 revision d365dc5)-makepkg*
G04 #@! TF.CreationDate,2017-01-06T12:14:16-05:00*
G04 #@! TF.ProjectId,ErgoDOX,4572676F444F582E6B696361645F7063,rev?*
G04 #@! TF.FileFunction,Legend,Top*
G04 #@! TF.FilePolarity,Positive*
%FSLAX46Y46*%
G04 Gerber Fmt 4.6, Leading zero omitted, Abs format (unit mm)*
G04 Created by KiCad (PCBNEW (2016-12-22 revision d365dc5)-makepkg) date 01/06/17 12:14:16*
%MOMM*%
%LPD*%
G01*
G04 APERTURE LIST*
%ADD10C,0.150000*%
%ADD11C,0.304800*%
%ADD12C,0.203200*%
%ADD13C,0.508000*%
%ADD14C,0.381000*%
%ADD15C,2.540000*%
%ADD16C,0.457200*%
%ADD17C,0.254000*%
G04 APERTURE END LIST*
D10*
D11*
X59212285Y-130619238D02*
X59212285Y-128587238D01*
X59792857Y-128587238D01*
X59937999Y-128684000D01*
X60010571Y-128780761D01*
X60083142Y-128974285D01*
X60083142Y-129264571D01*
X60010571Y-129458095D01*
X59937999Y-129554857D01*
X59792857Y-129651619D01*
X59212285Y-129651619D01*
X60736285Y-130619238D02*
X60736285Y-129264571D01*
X60736285Y-129651619D02*
X60808857Y-129458095D01*
X60881428Y-129361333D01*
X61026571Y-129264571D01*
X61171714Y-129264571D01*
X61897428Y-130619238D02*
X61752285Y-130522476D01*
X61679714Y-130425714D01*
X61607142Y-130232190D01*
X61607142Y-129651619D01*
X61679714Y-129458095D01*
X61752285Y-129361333D01*
X61897428Y-129264571D01*
X62115142Y-129264571D01*
X62260285Y-129361333D01*
X62332857Y-129458095D01*
X62405428Y-129651619D01*
X62405428Y-130232190D01*
X62332857Y-130425714D01*
X62260285Y-130522476D01*
X62115142Y-130619238D01*
X61897428Y-130619238D01*
X62840857Y-129264571D02*
X63421428Y-129264571D01*
X63058571Y-130619238D02*
X63058571Y-128877523D01*
X63131142Y-128684000D01*
X63276285Y-128587238D01*
X63421428Y-128587238D01*
X64510000Y-130522476D02*
X64364857Y-130619238D01*
X64074571Y-130619238D01*
X63929428Y-130522476D01*
X63856857Y-130328952D01*
X63856857Y-129554857D01*
X63929428Y-129361333D01*
X64074571Y-129264571D01*
X64364857Y-129264571D01*
X64510000Y-129361333D01*
X64582571Y-129554857D01*
X64582571Y-129748380D01*
X63856857Y-129941904D01*
X65018000Y-129264571D02*
X65598571Y-129264571D01*
X65235714Y-128587238D02*
X65235714Y-130328952D01*
X65308285Y-130522476D01*
X65453428Y-130619238D01*
X65598571Y-130619238D01*
X66106571Y-130619238D02*
X66106571Y-128587238D01*
X66977428Y-130619238D02*
X66324285Y-129458095D01*
X66977428Y-128587238D02*
X66106571Y-129748380D01*
X68211142Y-130522476D02*
X68066000Y-130619238D01*
X67775714Y-130619238D01*
X67630571Y-130522476D01*
X67558000Y-130328952D01*
X67558000Y-129554857D01*
X67630571Y-129361333D01*
X67775714Y-129264571D01*
X68066000Y-129264571D01*
X68211142Y-129361333D01*
X68283714Y-129554857D01*
X68283714Y-129748380D01*
X67558000Y-129941904D01*
X68791714Y-129264571D02*
X69154571Y-130619238D01*
X69517428Y-129264571D02*
X69154571Y-130619238D01*
X69009428Y-131103047D01*
X68936857Y-131199809D01*
X68791714Y-131296571D01*
X70098000Y-130619238D02*
X70098000Y-128587238D01*
X70098000Y-129361333D02*
X70243142Y-129264571D01*
X70533428Y-129264571D01*
X70678571Y-129361333D01*
X70751142Y-129458095D01*
X70823714Y-129651619D01*
X70823714Y-130232190D01*
X70751142Y-130425714D01*
X70678571Y-130522476D01*
X70533428Y-130619238D01*
X70243142Y-130619238D01*
X70098000Y-130522476D01*
X71694571Y-130619238D02*
X71549428Y-130522476D01*
X71476857Y-130425714D01*
X71404285Y-130232190D01*
X71404285Y-129651619D01*
X71476857Y-129458095D01*
X71549428Y-129361333D01*
X71694571Y-129264571D01*
X71912285Y-129264571D01*
X72057428Y-129361333D01*
X72130000Y-129458095D01*
X72202571Y-129651619D01*
X72202571Y-130232190D01*
X72130000Y-130425714D01*
X72057428Y-130522476D01*
X71912285Y-130619238D01*
X71694571Y-130619238D01*
X73508857Y-130619238D02*
X73508857Y-129554857D01*
X73436285Y-129361333D01*
X73291142Y-129264571D01*
X73000857Y-129264571D01*
X72855714Y-129361333D01*
X73508857Y-130522476D02*
X73363714Y-130619238D01*
X73000857Y-130619238D01*
X72855714Y-130522476D01*
X72783142Y-130328952D01*
X72783142Y-130135428D01*
X72855714Y-129941904D01*
X73000857Y-129845142D01*
X73363714Y-129845142D01*
X73508857Y-129748380D01*
X74234571Y-130619238D02*
X74234571Y-129264571D01*
X74234571Y-129651619D02*
X74307142Y-129458095D01*
X74379714Y-129361333D01*
X74524857Y-129264571D01*
X74670000Y-129264571D01*
X75831142Y-130619238D02*
X75831142Y-128587238D01*
X75831142Y-130522476D02*
X75686000Y-130619238D01*
X75395714Y-130619238D01*
X75250571Y-130522476D01*
X75178000Y-130425714D01*
X75105428Y-130232190D01*
X75105428Y-129651619D01*
X75178000Y-129458095D01*
X75250571Y-129361333D01*
X75395714Y-129264571D01*
X75686000Y-129264571D01*
X75831142Y-129361333D01*
X76484285Y-130522476D02*
X76629428Y-130619238D01*
X76919714Y-130619238D01*
X77064857Y-130522476D01*
X77137428Y-130328952D01*
X77137428Y-130232190D01*
X77064857Y-130038666D01*
X76919714Y-129941904D01*
X76702000Y-129941904D01*
X76556857Y-129845142D01*
X76484285Y-129651619D01*
X76484285Y-129554857D01*
X76556857Y-129361333D01*
X76702000Y-129264571D01*
X76919714Y-129264571D01*
X77064857Y-129361333D01*
X77790571Y-130425714D02*
X77863142Y-130522476D01*
X77790571Y-130619238D01*
X77718000Y-130522476D01*
X77790571Y-130425714D01*
X77790571Y-130619238D01*
X79169428Y-130522476D02*
X79024285Y-130619238D01*
X78734000Y-130619238D01*
X78588857Y-130522476D01*
X78516285Y-130425714D01*
X78443714Y-130232190D01*
X78443714Y-129651619D01*
X78516285Y-129458095D01*
X78588857Y-129361333D01*
X78734000Y-129264571D01*
X79024285Y-129264571D01*
X79169428Y-129361333D01*
X80040285Y-130619238D02*
X79895142Y-130522476D01*
X79822571Y-130425714D01*
X79750000Y-130232190D01*
X79750000Y-129651619D01*
X79822571Y-129458095D01*
X79895142Y-129361333D01*
X80040285Y-129264571D01*
X80258000Y-129264571D01*
X80403142Y-129361333D01*
X80475714Y-129458095D01*
X80548285Y-129651619D01*
X80548285Y-130232190D01*
X80475714Y-130425714D01*
X80403142Y-130522476D01*
X80258000Y-130619238D01*
X80040285Y-130619238D01*
X81201428Y-130619238D02*
X81201428Y-129264571D01*
X81201428Y-129458095D02*
X81274000Y-129361333D01*
X81419142Y-129264571D01*
X81636857Y-129264571D01*
X81782000Y-129361333D01*
X81854571Y-129554857D01*
X81854571Y-130619238D01*
X81854571Y-129554857D02*
X81927142Y-129361333D01*
X82072285Y-129264571D01*
X82290000Y-129264571D01*
X82435142Y-129361333D01*
X82507714Y-129554857D01*
X82507714Y-130619238D01*
X178279238Y-125428165D02*
X177311619Y-125936165D01*
X178279238Y-126299022D02*
X176247238Y-126299022D01*
X176247238Y-125718451D01*
X176344000Y-125573308D01*
X176440761Y-125500737D01*
X176634285Y-125428165D01*
X176924571Y-125428165D01*
X177118095Y-125500737D01*
X177214857Y-125573308D01*
X177311619Y-125718451D01*
X177311619Y-126299022D01*
X178182476Y-124194451D02*
X178279238Y-124339594D01*
X178279238Y-124629880D01*
X178182476Y-124775022D01*
X177988952Y-124847594D01*
X177214857Y-124847594D01*
X177021333Y-124775022D01*
X176924571Y-124629880D01*
X176924571Y-124339594D01*
X177021333Y-124194451D01*
X177214857Y-124121880D01*
X177408380Y-124121880D01*
X177601904Y-124847594D01*
X176924571Y-123613880D02*
X178279238Y-123251022D01*
X176924571Y-122888165D01*
X178279238Y-122307594D02*
X176924571Y-122307594D01*
X176247238Y-122307594D02*
X176344000Y-122380165D01*
X176440761Y-122307594D01*
X176344000Y-122235022D01*
X176247238Y-122307594D01*
X176440761Y-122307594D01*
X178182476Y-121654451D02*
X178279238Y-121509308D01*
X178279238Y-121219022D01*
X178182476Y-121073880D01*
X177988952Y-121001308D01*
X177892190Y-121001308D01*
X177698666Y-121073880D01*
X177601904Y-121219022D01*
X177601904Y-121436737D01*
X177505142Y-121581880D01*
X177311619Y-121654451D01*
X177214857Y-121654451D01*
X177021333Y-121581880D01*
X176924571Y-121436737D01*
X176924571Y-121219022D01*
X177021333Y-121073880D01*
X178279238Y-120348165D02*
X176924571Y-120348165D01*
X176247238Y-120348165D02*
X176344000Y-120420737D01*
X176440761Y-120348165D01*
X176344000Y-120275594D01*
X176247238Y-120348165D01*
X176440761Y-120348165D01*
X178279238Y-119404737D02*
X178182476Y-119549880D01*
X178085714Y-119622451D01*
X177892190Y-119695022D01*
X177311619Y-119695022D01*
X177118095Y-119622451D01*
X177021333Y-119549880D01*
X176924571Y-119404737D01*
X176924571Y-119187022D01*
X177021333Y-119041880D01*
X177118095Y-118969308D01*
X177311619Y-118896737D01*
X177892190Y-118896737D01*
X178085714Y-118969308D01*
X178182476Y-119041880D01*
X178279238Y-119187022D01*
X178279238Y-119404737D01*
X176924571Y-118243594D02*
X178279238Y-118243594D01*
X177118095Y-118243594D02*
X177021333Y-118171022D01*
X176924571Y-118025880D01*
X176924571Y-117808165D01*
X177021333Y-117663022D01*
X177214857Y-117590451D01*
X178279238Y-117590451D01*
X176247238Y-115413308D02*
X176247238Y-115268165D01*
X176344000Y-115123022D01*
X176440761Y-115050451D01*
X176634285Y-114977880D01*
X177021333Y-114905308D01*
X177505142Y-114905308D01*
X177892190Y-114977880D01*
X178085714Y-115050451D01*
X178182476Y-115123022D01*
X178279238Y-115268165D01*
X178279238Y-115413308D01*
X178182476Y-115558451D01*
X178085714Y-115631022D01*
X177892190Y-115703594D01*
X177505142Y-115776165D01*
X177021333Y-115776165D01*
X176634285Y-115703594D01*
X176440761Y-115631022D01*
X176344000Y-115558451D01*
X176247238Y-115413308D01*
X178279238Y-113453880D02*
X178279238Y-114324737D01*
X178279238Y-113889308D02*
X176247238Y-113889308D01*
X176537523Y-114034451D01*
X176731047Y-114179594D01*
X176827809Y-114324737D01*
X177505142Y-112800737D02*
X177505142Y-111639594D01*
X176247238Y-110623594D02*
X176247238Y-110478451D01*
X176344000Y-110333308D01*
X176440761Y-110260737D01*
X176634285Y-110188165D01*
X177021333Y-110115594D01*
X177505142Y-110115594D01*
X177892190Y-110188165D01*
X178085714Y-110260737D01*
X178182476Y-110333308D01*
X178279238Y-110478451D01*
X178279238Y-110623594D01*
X178182476Y-110768737D01*
X178085714Y-110841308D01*
X177892190Y-110913880D01*
X177505142Y-110986451D01*
X177021333Y-110986451D01*
X176634285Y-110913880D01*
X176440761Y-110841308D01*
X176344000Y-110768737D01*
X176247238Y-110623594D01*
X176247238Y-108736737D02*
X176247238Y-109462451D01*
X177214857Y-109535022D01*
X177118095Y-109462451D01*
X177021333Y-109317308D01*
X177021333Y-108954451D01*
X177118095Y-108809308D01*
X177214857Y-108736737D01*
X177408380Y-108664165D01*
X177892190Y-108664165D01*
X178085714Y-108736737D01*
X178182476Y-108809308D01*
X178279238Y-108954451D01*
X178279238Y-109317308D01*
X178182476Y-109462451D01*
X178085714Y-109535022D01*
X177505142Y-108011022D02*
X177505142Y-106849880D01*
X176440761Y-106196737D02*
X176344000Y-106124165D01*
X176247238Y-105979022D01*
X176247238Y-105616165D01*
X176344000Y-105471022D01*
X176440761Y-105398451D01*
X176634285Y-105325880D01*
X176827809Y-105325880D01*
X177118095Y-105398451D01*
X178279238Y-106269308D01*
X178279238Y-105325880D01*
X176247238Y-104382451D02*
X176247238Y-104237308D01*
X176344000Y-104092165D01*
X176440761Y-104019594D01*
X176634285Y-103947022D01*
X177021333Y-103874451D01*
X177505142Y-103874451D01*
X177892190Y-103947022D01*
X178085714Y-104019594D01*
X178182476Y-104092165D01*
X178279238Y-104237308D01*
X178279238Y-104382451D01*
X178182476Y-104527594D01*
X178085714Y-104600165D01*
X177892190Y-104672737D01*
X177505142Y-104745308D01*
X177021333Y-104745308D01*
X176634285Y-104672737D01*
X176440761Y-104600165D01*
X176344000Y-104527594D01*
X176247238Y-104382451D01*
X178279238Y-102423022D02*
X178279238Y-103293880D01*
X178279238Y-102858451D02*
X176247238Y-102858451D01*
X176537523Y-103003594D01*
X176731047Y-103148737D01*
X176827809Y-103293880D01*
X176247238Y-101915022D02*
X176247238Y-100899022D01*
X178279238Y-101552165D01*
X178279238Y-99157308D02*
X176247238Y-99157308D01*
X176247238Y-98576737D01*
X176344000Y-98431594D01*
X176440761Y-98359022D01*
X176634285Y-98286451D01*
X176924571Y-98286451D01*
X177118095Y-98359022D01*
X177214857Y-98431594D01*
X177311619Y-98576737D01*
X177311619Y-99157308D01*
X178279238Y-97633308D02*
X176924571Y-97633308D01*
X177311619Y-97633308D02*
X177118095Y-97560737D01*
X177021333Y-97488165D01*
X176924571Y-97343022D01*
X176924571Y-97197880D01*
X178279238Y-96472165D02*
X178182476Y-96617308D01*
X178085714Y-96689880D01*
X177892190Y-96762451D01*
X177311619Y-96762451D01*
X177118095Y-96689880D01*
X177021333Y-96617308D01*
X176924571Y-96472165D01*
X176924571Y-96254451D01*
X177021333Y-96109308D01*
X177118095Y-96036737D01*
X177311619Y-95964165D01*
X177892190Y-95964165D01*
X178085714Y-96036737D01*
X178182476Y-96109308D01*
X178279238Y-96254451D01*
X178279238Y-96472165D01*
X176924571Y-95528737D02*
X176924571Y-94948165D01*
X178279238Y-95311022D02*
X176537523Y-95311022D01*
X176344000Y-95238451D01*
X176247238Y-95093308D01*
X176247238Y-94948165D01*
X178182476Y-93859594D02*
X178279238Y-94004737D01*
X178279238Y-94295022D01*
X178182476Y-94440165D01*
X177988952Y-94512737D01*
X177214857Y-94512737D01*
X177021333Y-94440165D01*
X176924571Y-94295022D01*
X176924571Y-94004737D01*
X177021333Y-93859594D01*
X177214857Y-93787022D01*
X177408380Y-93787022D01*
X177601904Y-94512737D01*
X176924571Y-93351594D02*
X176924571Y-92771022D01*
X176247238Y-93133880D02*
X177988952Y-93133880D01*
X178182476Y-93061308D01*
X178279238Y-92916165D01*
X178279238Y-92771022D01*
X178279238Y-92263022D02*
X176247238Y-92263022D01*
X178279238Y-91392165D02*
X177118095Y-92045308D01*
X176247238Y-91392165D02*
X177408380Y-92263022D01*
X178182476Y-90158451D02*
X178279238Y-90303594D01*
X178279238Y-90593880D01*
X178182476Y-90739022D01*
X177988952Y-90811594D01*
X177214857Y-90811594D01*
X177021333Y-90739022D01*
X176924571Y-90593880D01*
X176924571Y-90303594D01*
X177021333Y-90158451D01*
X177214857Y-90085880D01*
X177408380Y-90085880D01*
X177601904Y-90811594D01*
X176924571Y-89577880D02*
X178279238Y-89215022D01*
X176924571Y-88852165D02*
X178279238Y-89215022D01*
X178763047Y-89360165D01*
X178859809Y-89432737D01*
X178956571Y-89577880D01*
X178279238Y-88271594D02*
X176247238Y-88271594D01*
X177021333Y-88271594D02*
X176924571Y-88126451D01*
X176924571Y-87836165D01*
X177021333Y-87691022D01*
X177118095Y-87618451D01*
X177311619Y-87545880D01*
X177892190Y-87545880D01*
X178085714Y-87618451D01*
X178182476Y-87691022D01*
X178279238Y-87836165D01*
X178279238Y-88126451D01*
X178182476Y-88271594D01*
X178279238Y-86675022D02*
X178182476Y-86820165D01*
X178085714Y-86892737D01*
X177892190Y-86965308D01*
X177311619Y-86965308D01*
X177118095Y-86892737D01*
X177021333Y-86820165D01*
X176924571Y-86675022D01*
X176924571Y-86457308D01*
X177021333Y-86312165D01*
X177118095Y-86239594D01*
X177311619Y-86167022D01*
X177892190Y-86167022D01*
X178085714Y-86239594D01*
X178182476Y-86312165D01*
X178279238Y-86457308D01*
X178279238Y-86675022D01*
X178279238Y-84860737D02*
X177214857Y-84860737D01*
X177021333Y-84933308D01*
X176924571Y-85078451D01*
X176924571Y-85368737D01*
X177021333Y-85513880D01*
X178182476Y-84860737D02*
X178279238Y-85005880D01*
X178279238Y-85368737D01*
X178182476Y-85513880D01*
X177988952Y-85586451D01*
X177795428Y-85586451D01*
X177601904Y-85513880D01*
X177505142Y-85368737D01*
X177505142Y-85005880D01*
X177408380Y-84860737D01*
X178279238Y-84135022D02*
X176924571Y-84135022D01*
X177311619Y-84135022D02*
X177118095Y-84062451D01*
X177021333Y-83989880D01*
X176924571Y-83844737D01*
X176924571Y-83699594D01*
X178279238Y-82538451D02*
X176247238Y-82538451D01*
X178182476Y-82538451D02*
X178279238Y-82683594D01*
X178279238Y-82973880D01*
X178182476Y-83119022D01*
X178085714Y-83191594D01*
X177892190Y-83264165D01*
X177311619Y-83264165D01*
X177118095Y-83191594D01*
X177021333Y-83119022D01*
X176924571Y-82973880D01*
X176924571Y-82683594D01*
X177021333Y-82538451D01*
X178182476Y-81885308D02*
X178279238Y-81740165D01*
X178279238Y-81449880D01*
X178182476Y-81304737D01*
X177988952Y-81232165D01*
X177892190Y-81232165D01*
X177698666Y-81304737D01*
X177601904Y-81449880D01*
X177601904Y-81667594D01*
X177505142Y-81812737D01*
X177311619Y-81885308D01*
X177214857Y-81885308D01*
X177021333Y-81812737D01*
X176924571Y-81667594D01*
X176924571Y-81449880D01*
X177021333Y-81304737D01*
D12*
X129159000Y-35003619D02*
X129159000Y-33987619D01*
X129763761Y-35003619D02*
X129763761Y-33987619D01*
X130066142Y-33987619D01*
X130247571Y-34036000D01*
X130368523Y-34132761D01*
X130429000Y-34229523D01*
X130489476Y-34423047D01*
X130489476Y-34568190D01*
X130429000Y-34761714D01*
X130368523Y-34858476D01*
X130247571Y-34955238D01*
X130066142Y-35003619D01*
X129763761Y-35003619D01*
X136549190Y-42623619D02*
X136549190Y-41607619D01*
X136851571Y-41607619D01*
X137033000Y-41656000D01*
X137153952Y-41752761D01*
X137214428Y-41849523D01*
X137274904Y-42043047D01*
X137274904Y-42188190D01*
X137214428Y-42381714D01*
X137153952Y-42478476D01*
X137033000Y-42575238D01*
X136851571Y-42623619D01*
X136549190Y-42623619D01*
X137819190Y-42236571D02*
X138786809Y-42236571D01*
X138303000Y-42623619D02*
X138303000Y-41849523D01*
X131239380Y-39878000D02*
X131118428Y-39829619D01*
X130937000Y-39829619D01*
X130755571Y-39878000D01*
X130634619Y-39974761D01*
X130574142Y-40071523D01*
X130513666Y-40265047D01*
X130513666Y-40410190D01*
X130574142Y-40603714D01*
X130634619Y-40700476D01*
X130755571Y-40797238D01*
X130937000Y-40845619D01*
X131057952Y-40845619D01*
X131239380Y-40797238D01*
X131299857Y-40748857D01*
X131299857Y-40410190D01*
X131057952Y-40410190D01*
X131844142Y-40845619D02*
X131844142Y-39829619D01*
X132569857Y-40845619D01*
X132569857Y-39829619D01*
X133174619Y-40845619D02*
X133174619Y-39829619D01*
X133477000Y-39829619D01*
X133658428Y-39878000D01*
X133779380Y-39974761D01*
X133839857Y-40071523D01*
X133900333Y-40265047D01*
X133900333Y-40410190D01*
X133839857Y-40603714D01*
X133779380Y-40700476D01*
X133658428Y-40797238D01*
X133477000Y-40845619D01*
X133174619Y-40845619D01*
X142252095Y-39829619D02*
X141647333Y-39829619D01*
X141586857Y-40313428D01*
X141647333Y-40265047D01*
X141768285Y-40216666D01*
X142070666Y-40216666D01*
X142191619Y-40265047D01*
X142252095Y-40313428D01*
X142312571Y-40410190D01*
X142312571Y-40652095D01*
X142252095Y-40748857D01*
X142191619Y-40797238D01*
X142070666Y-40845619D01*
X141768285Y-40845619D01*
X141647333Y-40797238D01*
X141586857Y-40748857D01*
X142675428Y-39829619D02*
X143098761Y-40845619D01*
X143522095Y-39829619D01*
X145182650Y-35003619D02*
X145182650Y-33987619D01*
X145485031Y-33987619D01*
X145666460Y-34036000D01*
X145787412Y-34132761D01*
X145847888Y-34229523D01*
X145908364Y-34423047D01*
X145908364Y-34568190D01*
X145847888Y-34761714D01*
X145787412Y-34858476D01*
X145666460Y-34955238D01*
X145485031Y-35003619D01*
X145182650Y-35003619D01*
X146452650Y-34616571D02*
X147420269Y-34616571D01*
D11*
X67131834Y-46816514D02*
X67059262Y-46913276D01*
X66841548Y-47010038D01*
X66696405Y-47010038D01*
X66478691Y-46913276D01*
X66333548Y-46719752D01*
X66260977Y-46526228D01*
X66188405Y-46139180D01*
X66188405Y-45848895D01*
X66260977Y-45461847D01*
X66333548Y-45268323D01*
X66478691Y-45074800D01*
X66696405Y-44978038D01*
X66841548Y-44978038D01*
X67059262Y-45074800D01*
X67131834Y-45171561D01*
X68002691Y-47010038D02*
X67857548Y-46913276D01*
X67784977Y-46816514D01*
X67712405Y-46622990D01*
X67712405Y-46042419D01*
X67784977Y-45848895D01*
X67857548Y-45752133D01*
X68002691Y-45655371D01*
X68220405Y-45655371D01*
X68365548Y-45752133D01*
X68438120Y-45848895D01*
X68510691Y-46042419D01*
X68510691Y-46622990D01*
X68438120Y-46816514D01*
X68365548Y-46913276D01*
X68220405Y-47010038D01*
X68002691Y-47010038D01*
X69163834Y-47010038D02*
X69163834Y-45655371D01*
X69163834Y-45848895D02*
X69236405Y-45752133D01*
X69381548Y-45655371D01*
X69599262Y-45655371D01*
X69744405Y-45752133D01*
X69816977Y-45945657D01*
X69816977Y-47010038D01*
X69816977Y-45945657D02*
X69889548Y-45752133D01*
X70034691Y-45655371D01*
X70252405Y-45655371D01*
X70397548Y-45752133D01*
X70470120Y-45945657D01*
X70470120Y-47010038D01*
X71195834Y-45655371D02*
X71195834Y-47687371D01*
X71195834Y-45752133D02*
X71340977Y-45655371D01*
X71631262Y-45655371D01*
X71776405Y-45752133D01*
X71848977Y-45848895D01*
X71921548Y-46042419D01*
X71921548Y-46622990D01*
X71848977Y-46816514D01*
X71776405Y-46913276D01*
X71631262Y-47010038D01*
X71340977Y-47010038D01*
X71195834Y-46913276D01*
X72792405Y-47010038D02*
X72647262Y-46913276D01*
X72574691Y-46816514D01*
X72502120Y-46622990D01*
X72502120Y-46042419D01*
X72574691Y-45848895D01*
X72647262Y-45752133D01*
X72792405Y-45655371D01*
X73010120Y-45655371D01*
X73155262Y-45752133D01*
X73227834Y-45848895D01*
X73300405Y-46042419D01*
X73300405Y-46622990D01*
X73227834Y-46816514D01*
X73155262Y-46913276D01*
X73010120Y-47010038D01*
X72792405Y-47010038D01*
X73953548Y-45655371D02*
X73953548Y-47010038D01*
X73953548Y-45848895D02*
X74026120Y-45752133D01*
X74171262Y-45655371D01*
X74388977Y-45655371D01*
X74534120Y-45752133D01*
X74606691Y-45945657D01*
X74606691Y-47010038D01*
X75912977Y-46913276D02*
X75767834Y-47010038D01*
X75477548Y-47010038D01*
X75332405Y-46913276D01*
X75259834Y-46719752D01*
X75259834Y-45945657D01*
X75332405Y-45752133D01*
X75477548Y-45655371D01*
X75767834Y-45655371D01*
X75912977Y-45752133D01*
X75985548Y-45945657D01*
X75985548Y-46139180D01*
X75259834Y-46332704D01*
X76638691Y-45655371D02*
X76638691Y-47010038D01*
X76638691Y-45848895D02*
X76711262Y-45752133D01*
X76856405Y-45655371D01*
X77074120Y-45655371D01*
X77219262Y-45752133D01*
X77291834Y-45945657D01*
X77291834Y-47010038D01*
X77799834Y-45655371D02*
X78380405Y-45655371D01*
X78017548Y-44978038D02*
X78017548Y-46719752D01*
X78090120Y-46913276D01*
X78235262Y-47010038D01*
X78380405Y-47010038D01*
X78815834Y-46913276D02*
X78960977Y-47010038D01*
X79251262Y-47010038D01*
X79396405Y-46913276D01*
X79468977Y-46719752D01*
X79468977Y-46622990D01*
X79396405Y-46429466D01*
X79251262Y-46332704D01*
X79033548Y-46332704D01*
X78888405Y-46235942D01*
X78815834Y-46042419D01*
X78815834Y-45945657D01*
X78888405Y-45752133D01*
X79033548Y-45655371D01*
X79251262Y-45655371D01*
X79396405Y-45752133D01*
X81936405Y-47010038D02*
X81936405Y-45945657D01*
X81863834Y-45752133D01*
X81718691Y-45655371D01*
X81428405Y-45655371D01*
X81283262Y-45752133D01*
X81936405Y-46913276D02*
X81791262Y-47010038D01*
X81428405Y-47010038D01*
X81283262Y-46913276D01*
X81210691Y-46719752D01*
X81210691Y-46526228D01*
X81283262Y-46332704D01*
X81428405Y-46235942D01*
X81791262Y-46235942D01*
X81936405Y-46139180D01*
X82662120Y-47010038D02*
X82662120Y-45655371D01*
X82662120Y-46042419D02*
X82734691Y-45848895D01*
X82807262Y-45752133D01*
X82952405Y-45655371D01*
X83097548Y-45655371D01*
X84186120Y-46913276D02*
X84040977Y-47010038D01*
X83750691Y-47010038D01*
X83605548Y-46913276D01*
X83532977Y-46719752D01*
X83532977Y-45945657D01*
X83605548Y-45752133D01*
X83750691Y-45655371D01*
X84040977Y-45655371D01*
X84186120Y-45752133D01*
X84258691Y-45945657D01*
X84258691Y-46139180D01*
X83532977Y-46332704D01*
X86072977Y-47010038D02*
X86072977Y-45655371D01*
X86072977Y-44978038D02*
X86000405Y-45074800D01*
X86072977Y-45171561D01*
X86145548Y-45074800D01*
X86072977Y-44978038D01*
X86072977Y-45171561D01*
X86798691Y-45655371D02*
X86798691Y-47010038D01*
X86798691Y-45848895D02*
X86871262Y-45752133D01*
X87016405Y-45655371D01*
X87234120Y-45655371D01*
X87379262Y-45752133D01*
X87451834Y-45945657D01*
X87451834Y-47010038D01*
X87959834Y-45655371D02*
X88540405Y-45655371D01*
X88177548Y-44978038D02*
X88177548Y-46719752D01*
X88250120Y-46913276D01*
X88395262Y-47010038D01*
X88540405Y-47010038D01*
X89628977Y-46913276D02*
X89483834Y-47010038D01*
X89193548Y-47010038D01*
X89048405Y-46913276D01*
X88975834Y-46719752D01*
X88975834Y-45945657D01*
X89048405Y-45752133D01*
X89193548Y-45655371D01*
X89483834Y-45655371D01*
X89628977Y-45752133D01*
X89701548Y-45945657D01*
X89701548Y-46139180D01*
X88975834Y-46332704D01*
X90354691Y-45655371D02*
X90354691Y-47010038D01*
X90354691Y-45848895D02*
X90427262Y-45752133D01*
X90572405Y-45655371D01*
X90790120Y-45655371D01*
X90935262Y-45752133D01*
X91007834Y-45945657D01*
X91007834Y-47010038D01*
X92386691Y-47010038D02*
X92386691Y-44978038D01*
X92386691Y-46913276D02*
X92241548Y-47010038D01*
X91951262Y-47010038D01*
X91806120Y-46913276D01*
X91733548Y-46816514D01*
X91660977Y-46622990D01*
X91660977Y-46042419D01*
X91733548Y-45848895D01*
X91806120Y-45752133D01*
X91951262Y-45655371D01*
X92241548Y-45655371D01*
X92386691Y-45752133D01*
X93692977Y-46913276D02*
X93547834Y-47010038D01*
X93257548Y-47010038D01*
X93112405Y-46913276D01*
X93039834Y-46719752D01*
X93039834Y-45945657D01*
X93112405Y-45752133D01*
X93257548Y-45655371D01*
X93547834Y-45655371D01*
X93692977Y-45752133D01*
X93765548Y-45945657D01*
X93765548Y-46139180D01*
X93039834Y-46332704D01*
X95071834Y-47010038D02*
X95071834Y-44978038D01*
X95071834Y-46913276D02*
X94926691Y-47010038D01*
X94636405Y-47010038D01*
X94491262Y-46913276D01*
X94418691Y-46816514D01*
X94346119Y-46622990D01*
X94346119Y-46042419D01*
X94418691Y-45848895D01*
X94491262Y-45752133D01*
X94636405Y-45655371D01*
X94926691Y-45655371D01*
X95071834Y-45752133D01*
X96740977Y-45655371D02*
X97321548Y-45655371D01*
X96958691Y-44978038D02*
X96958691Y-46719752D01*
X97031262Y-46913276D01*
X97176405Y-47010038D01*
X97321548Y-47010038D01*
X98047262Y-47010038D02*
X97902119Y-46913276D01*
X97829548Y-46816514D01*
X97756977Y-46622990D01*
X97756977Y-46042419D01*
X97829548Y-45848895D01*
X97902119Y-45752133D01*
X98047262Y-45655371D01*
X98264977Y-45655371D01*
X98410119Y-45752133D01*
X98482691Y-45848895D01*
X98555262Y-46042419D01*
X98555262Y-46622990D01*
X98482691Y-46816514D01*
X98410119Y-46913276D01*
X98264977Y-47010038D01*
X98047262Y-47010038D01*
X100369548Y-47010038D02*
X100369548Y-44978038D01*
X100369548Y-45752133D02*
X100514691Y-45655371D01*
X100804977Y-45655371D01*
X100950120Y-45752133D01*
X101022691Y-45848895D01*
X101095262Y-46042419D01*
X101095262Y-46622990D01*
X101022691Y-46816514D01*
X100950120Y-46913276D01*
X100804977Y-47010038D01*
X100514691Y-47010038D01*
X100369548Y-46913276D01*
X102328977Y-46913276D02*
X102183834Y-47010038D01*
X101893548Y-47010038D01*
X101748405Y-46913276D01*
X101675834Y-46719752D01*
X101675834Y-45945657D01*
X101748405Y-45752133D01*
X101893548Y-45655371D01*
X102183834Y-45655371D01*
X102328977Y-45752133D01*
X102401548Y-45945657D01*
X102401548Y-46139180D01*
X101675834Y-46332704D01*
X66260977Y-49008171D02*
X66260977Y-51040171D01*
X66260977Y-49104933D02*
X66406120Y-49008171D01*
X66696405Y-49008171D01*
X66841548Y-49104933D01*
X66914120Y-49201695D01*
X66986691Y-49395219D01*
X66986691Y-49975790D01*
X66914120Y-50169314D01*
X66841548Y-50266076D01*
X66696405Y-50362838D01*
X66406120Y-50362838D01*
X66260977Y-50266076D01*
X67857548Y-50362838D02*
X67712405Y-50266076D01*
X67639834Y-50072552D01*
X67639834Y-48330838D01*
X69091262Y-50362838D02*
X69091262Y-49298457D01*
X69018691Y-49104933D01*
X68873548Y-49008171D01*
X68583262Y-49008171D01*
X68438120Y-49104933D01*
X69091262Y-50266076D02*
X68946120Y-50362838D01*
X68583262Y-50362838D01*
X68438120Y-50266076D01*
X68365548Y-50072552D01*
X68365548Y-49879028D01*
X68438120Y-49685504D01*
X68583262Y-49588742D01*
X68946120Y-49588742D01*
X69091262Y-49491980D01*
X70470120Y-50266076D02*
X70324977Y-50362838D01*
X70034691Y-50362838D01*
X69889548Y-50266076D01*
X69816977Y-50169314D01*
X69744405Y-49975790D01*
X69744405Y-49395219D01*
X69816977Y-49201695D01*
X69889548Y-49104933D01*
X70034691Y-49008171D01*
X70324977Y-49008171D01*
X70470120Y-49104933D01*
X71703834Y-50266076D02*
X71558691Y-50362838D01*
X71268405Y-50362838D01*
X71123262Y-50266076D01*
X71050691Y-50072552D01*
X71050691Y-49298457D01*
X71123262Y-49104933D01*
X71268405Y-49008171D01*
X71558691Y-49008171D01*
X71703834Y-49104933D01*
X71776405Y-49298457D01*
X71776405Y-49491980D01*
X71050691Y-49685504D01*
X73082691Y-50362838D02*
X73082691Y-48330838D01*
X73082691Y-50266076D02*
X72937548Y-50362838D01*
X72647262Y-50362838D01*
X72502120Y-50266076D01*
X72429548Y-50169314D01*
X72356977Y-49975790D01*
X72356977Y-49395219D01*
X72429548Y-49201695D01*
X72502120Y-49104933D01*
X72647262Y-49008171D01*
X72937548Y-49008171D01*
X73082691Y-49104933D01*
X75187262Y-50362838D02*
X75042120Y-50266076D01*
X74969548Y-50169314D01*
X74896977Y-49975790D01*
X74896977Y-49395219D01*
X74969548Y-49201695D01*
X75042120Y-49104933D01*
X75187262Y-49008171D01*
X75404977Y-49008171D01*
X75550120Y-49104933D01*
X75622691Y-49201695D01*
X75695262Y-49395219D01*
X75695262Y-49975790D01*
X75622691Y-50169314D01*
X75550120Y-50266076D01*
X75404977Y-50362838D01*
X75187262Y-50362838D01*
X76348405Y-49008171D02*
X76348405Y-50362838D01*
X76348405Y-49201695D02*
X76420977Y-49104933D01*
X76566120Y-49008171D01*
X76783834Y-49008171D01*
X76928977Y-49104933D01*
X77001548Y-49298457D01*
X77001548Y-50362838D01*
X78670691Y-49008171D02*
X79251262Y-49008171D01*
X78888405Y-48330838D02*
X78888405Y-50072552D01*
X78960977Y-50266076D01*
X79106120Y-50362838D01*
X79251262Y-50362838D01*
X79759262Y-50362838D02*
X79759262Y-48330838D01*
X80412405Y-50362838D02*
X80412405Y-49298457D01*
X80339834Y-49104933D01*
X80194691Y-49008171D01*
X79976977Y-49008171D01*
X79831834Y-49104933D01*
X79759262Y-49201695D01*
X81718691Y-50266076D02*
X81573548Y-50362838D01*
X81283262Y-50362838D01*
X81138120Y-50266076D01*
X81065548Y-50072552D01*
X81065548Y-49298457D01*
X81138120Y-49104933D01*
X81283262Y-49008171D01*
X81573548Y-49008171D01*
X81718691Y-49104933D01*
X81791262Y-49298457D01*
X81791262Y-49491980D01*
X81065548Y-49685504D01*
X83532977Y-50266076D02*
X83678120Y-50362838D01*
X83968405Y-50362838D01*
X84113548Y-50266076D01*
X84186120Y-50072552D01*
X84186120Y-49975790D01*
X84113548Y-49782266D01*
X83968405Y-49685504D01*
X83750691Y-49685504D01*
X83605548Y-49588742D01*
X83532977Y-49395219D01*
X83532977Y-49298457D01*
X83605548Y-49104933D01*
X83750691Y-49008171D01*
X83968405Y-49008171D01*
X84113548Y-49104933D01*
X84839262Y-50362838D02*
X84839262Y-49008171D01*
X84839262Y-48330838D02*
X84766691Y-48427600D01*
X84839262Y-48524361D01*
X84911834Y-48427600D01*
X84839262Y-48330838D01*
X84839262Y-48524361D01*
X86218120Y-50362838D02*
X86218120Y-48330838D01*
X86218120Y-50266076D02*
X86072977Y-50362838D01*
X85782691Y-50362838D01*
X85637548Y-50266076D01*
X85564977Y-50169314D01*
X85492405Y-49975790D01*
X85492405Y-49395219D01*
X85564977Y-49201695D01*
X85637548Y-49104933D01*
X85782691Y-49008171D01*
X86072977Y-49008171D01*
X86218120Y-49104933D01*
X87524405Y-50266076D02*
X87379262Y-50362838D01*
X87088977Y-50362838D01*
X86943834Y-50266076D01*
X86871262Y-50072552D01*
X86871262Y-49298457D01*
X86943834Y-49104933D01*
X87088977Y-49008171D01*
X87379262Y-49008171D01*
X87524405Y-49104933D01*
X87596977Y-49298457D01*
X87596977Y-49491980D01*
X86871262Y-49685504D01*
X89193548Y-49008171D02*
X89774120Y-49008171D01*
X89411262Y-48330838D02*
X89411262Y-50072552D01*
X89483834Y-50266076D01*
X89628977Y-50362838D01*
X89774120Y-50362838D01*
X90282120Y-50362838D02*
X90282120Y-48330838D01*
X90935262Y-50362838D02*
X90935262Y-49298457D01*
X90862691Y-49104933D01*
X90717548Y-49008171D01*
X90499834Y-49008171D01*
X90354691Y-49104933D01*
X90282120Y-49201695D01*
X92241548Y-50266076D02*
X92096405Y-50362838D01*
X91806120Y-50362838D01*
X91660977Y-50266076D01*
X91588405Y-50072552D01*
X91588405Y-49298457D01*
X91660977Y-49104933D01*
X91806120Y-49008171D01*
X92096405Y-49008171D01*
X92241548Y-49104933D01*
X92314120Y-49298457D01*
X92314120Y-49491980D01*
X91588405Y-49685504D01*
X92822120Y-49008171D02*
X93184977Y-50362838D01*
X93547834Y-49008171D02*
X93184977Y-50362838D01*
X93039834Y-50846647D01*
X92967262Y-50943409D01*
X92822120Y-51040171D01*
X95942691Y-50362838D02*
X95942691Y-49298457D01*
X95870120Y-49104933D01*
X95724977Y-49008171D01*
X95434691Y-49008171D01*
X95289548Y-49104933D01*
X95942691Y-50266076D02*
X95797548Y-50362838D01*
X95434691Y-50362838D01*
X95289548Y-50266076D01*
X95216977Y-50072552D01*
X95216977Y-49879028D01*
X95289548Y-49685504D01*
X95434691Y-49588742D01*
X95797548Y-49588742D01*
X95942691Y-49491980D01*
X96668405Y-50362838D02*
X96668405Y-49008171D01*
X96668405Y-49395219D02*
X96740977Y-49201695D01*
X96813548Y-49104933D01*
X96958691Y-49008171D01*
X97103834Y-49008171D01*
X98192405Y-50266076D02*
X98047262Y-50362838D01*
X97756977Y-50362838D01*
X97611834Y-50266076D01*
X97539262Y-50072552D01*
X97539262Y-49298457D01*
X97611834Y-49104933D01*
X97756977Y-49008171D01*
X98047262Y-49008171D01*
X98192405Y-49104933D01*
X98264977Y-49298457D01*
X98264977Y-49491980D01*
X97539262Y-49685504D01*
X100732405Y-50362838D02*
X100732405Y-48330838D01*
X100732405Y-50266076D02*
X100587262Y-50362838D01*
X100296977Y-50362838D01*
X100151834Y-50266076D01*
X100079262Y-50169314D01*
X100006691Y-49975790D01*
X100006691Y-49395219D01*
X100079262Y-49201695D01*
X100151834Y-49104933D01*
X100296977Y-49008171D01*
X100587262Y-49008171D01*
X100732405Y-49104933D01*
X101458120Y-50362838D02*
X101458120Y-49008171D01*
X101458120Y-49395219D02*
X101530691Y-49201695D01*
X101603262Y-49104933D01*
X101748405Y-49008171D01*
X101893548Y-49008171D01*
X103054691Y-50362838D02*
X103054691Y-49298457D01*
X102982120Y-49104933D01*
X102836977Y-49008171D01*
X102546691Y-49008171D01*
X102401548Y-49104933D01*
X103054691Y-50266076D02*
X102909548Y-50362838D01*
X102546691Y-50362838D01*
X102401548Y-50266076D01*
X102328977Y-50072552D01*
X102328977Y-49879028D01*
X102401548Y-49685504D01*
X102546691Y-49588742D01*
X102909548Y-49588742D01*
X103054691Y-49491980D01*
X103635262Y-49008171D02*
X103925548Y-50362838D01*
X104215834Y-49395219D01*
X104506120Y-50362838D01*
X104796405Y-49008171D01*
X105376977Y-49008171D02*
X105376977Y-50362838D01*
X105376977Y-49201695D02*
X105449548Y-49104933D01*
X105594691Y-49008171D01*
X105812405Y-49008171D01*
X105957548Y-49104933D01*
X106030120Y-49298457D01*
X106030120Y-50362838D01*
X106755834Y-50169314D02*
X106828405Y-50266076D01*
X106755834Y-50362838D01*
X106683262Y-50266076D01*
X106755834Y-50169314D01*
X106755834Y-50362838D01*
X108642691Y-50362838D02*
X108642691Y-48330838D01*
X109150691Y-49008171D02*
X109731262Y-49008171D01*
X109368405Y-48330838D02*
X109368405Y-50072552D01*
X109440977Y-50266076D01*
X109586119Y-50362838D01*
X109731262Y-50362838D01*
X111400405Y-50362838D02*
X111400405Y-49008171D01*
X111400405Y-48330838D02*
X111327834Y-48427600D01*
X111400405Y-48524361D01*
X111472977Y-48427600D01*
X111400405Y-48330838D01*
X111400405Y-48524361D01*
X112053548Y-50266076D02*
X112198691Y-50362838D01*
X112488977Y-50362838D01*
X112634119Y-50266076D01*
X112706691Y-50072552D01*
X112706691Y-49975790D01*
X112634119Y-49782266D01*
X112488977Y-49685504D01*
X112271262Y-49685504D01*
X112126119Y-49588742D01*
X112053548Y-49395219D01*
X112053548Y-49298457D01*
X112126119Y-49104933D01*
X112271262Y-49008171D01*
X112488977Y-49008171D01*
X112634119Y-49104933D01*
X114520977Y-50362838D02*
X114520977Y-48330838D01*
X115174119Y-50362838D02*
X115174119Y-49298457D01*
X115101548Y-49104933D01*
X114956405Y-49008171D01*
X114738691Y-49008171D01*
X114593548Y-49104933D01*
X114520977Y-49201695D01*
X116117548Y-50362838D02*
X115972405Y-50266076D01*
X115899834Y-50169314D01*
X115827262Y-49975790D01*
X115827262Y-49395219D01*
X115899834Y-49201695D01*
X115972405Y-49104933D01*
X116117548Y-49008171D01*
X116335262Y-49008171D01*
X116480405Y-49104933D01*
X116552977Y-49201695D01*
X116625548Y-49395219D01*
X116625548Y-49975790D01*
X116552977Y-50169314D01*
X116480405Y-50266076D01*
X116335262Y-50362838D01*
X116117548Y-50362838D01*
X117133548Y-49008171D02*
X117423834Y-50362838D01*
X117714119Y-49395219D01*
X118004405Y-50362838D01*
X118294691Y-49008171D01*
X119455834Y-50266076D02*
X119310691Y-50362838D01*
X119020405Y-50362838D01*
X118875262Y-50266076D01*
X118802691Y-50072552D01*
X118802691Y-49298457D01*
X118875262Y-49104933D01*
X119020405Y-49008171D01*
X119310691Y-49008171D01*
X119455834Y-49104933D01*
X119528405Y-49298457D01*
X119528405Y-49491980D01*
X118802691Y-49685504D01*
X120036405Y-49008171D02*
X120399262Y-50362838D01*
X120762119Y-49008171D01*
X121923262Y-50266076D02*
X121778119Y-50362838D01*
X121487834Y-50362838D01*
X121342691Y-50266076D01*
X121270119Y-50072552D01*
X121270119Y-49298457D01*
X121342691Y-49104933D01*
X121487834Y-49008171D01*
X121778119Y-49008171D01*
X121923262Y-49104933D01*
X121995834Y-49298457D01*
X121995834Y-49491980D01*
X121270119Y-49685504D01*
X122648977Y-50362838D02*
X122648977Y-49008171D01*
X122648977Y-49395219D02*
X122721548Y-49201695D01*
X122794119Y-49104933D01*
X122939262Y-49008171D01*
X123084405Y-49008171D01*
X124753548Y-49008171D02*
X124753548Y-51040171D01*
X124753548Y-49104933D02*
X124898691Y-49008171D01*
X125188977Y-49008171D01*
X125334120Y-49104933D01*
X125406691Y-49201695D01*
X125479262Y-49395219D01*
X125479262Y-49975790D01*
X125406691Y-50169314D01*
X125334120Y-50266076D01*
X125188977Y-50362838D01*
X124898691Y-50362838D01*
X124753548Y-50266076D01*
X126350119Y-50362838D02*
X126204977Y-50266076D01*
X126132405Y-50169314D01*
X126059834Y-49975790D01*
X126059834Y-49395219D01*
X126132405Y-49201695D01*
X126204977Y-49104933D01*
X126350119Y-49008171D01*
X126567834Y-49008171D01*
X126712977Y-49104933D01*
X126785548Y-49201695D01*
X126858119Y-49395219D01*
X126858119Y-49975790D01*
X126785548Y-50169314D01*
X126712977Y-50266076D01*
X126567834Y-50362838D01*
X126350119Y-50362838D01*
X127438691Y-50266076D02*
X127583834Y-50362838D01*
X127874119Y-50362838D01*
X128019262Y-50266076D01*
X128091834Y-50072552D01*
X128091834Y-49975790D01*
X128019262Y-49782266D01*
X127874119Y-49685504D01*
X127656405Y-49685504D01*
X127511262Y-49588742D01*
X127438691Y-49395219D01*
X127438691Y-49298457D01*
X127511262Y-49104933D01*
X127656405Y-49008171D01*
X127874119Y-49008171D01*
X128019262Y-49104933D01*
X128672405Y-50266076D02*
X128817548Y-50362838D01*
X129107834Y-50362838D01*
X129252977Y-50266076D01*
X129325548Y-50072552D01*
X129325548Y-49975790D01*
X129252977Y-49782266D01*
X129107834Y-49685504D01*
X128890119Y-49685504D01*
X128744977Y-49588742D01*
X128672405Y-49395219D01*
X128672405Y-49298457D01*
X128744977Y-49104933D01*
X128890119Y-49008171D01*
X129107834Y-49008171D01*
X129252977Y-49104933D01*
X129978691Y-50362838D02*
X129978691Y-49008171D01*
X129978691Y-48330838D02*
X129906119Y-48427600D01*
X129978691Y-48524361D01*
X130051262Y-48427600D01*
X129978691Y-48330838D01*
X129978691Y-48524361D01*
X130704405Y-50362838D02*
X130704405Y-48330838D01*
X130704405Y-49104933D02*
X130849548Y-49008171D01*
X131139834Y-49008171D01*
X131284977Y-49104933D01*
X131357548Y-49201695D01*
X131430119Y-49395219D01*
X131430119Y-49975790D01*
X131357548Y-50169314D01*
X131284977Y-50266076D01*
X131139834Y-50362838D01*
X130849548Y-50362838D01*
X130704405Y-50266076D01*
X132300977Y-50362838D02*
X132155834Y-50266076D01*
X132083262Y-50072552D01*
X132083262Y-48330838D01*
X133462119Y-50266076D02*
X133316977Y-50362838D01*
X133026691Y-50362838D01*
X132881548Y-50266076D01*
X132808977Y-50072552D01*
X132808977Y-49298457D01*
X132881548Y-49104933D01*
X133026691Y-49008171D01*
X133316977Y-49008171D01*
X133462119Y-49104933D01*
X133534691Y-49298457D01*
X133534691Y-49491980D01*
X132808977Y-49685504D01*
X135131262Y-49008171D02*
X135711834Y-49008171D01*
X135348977Y-48330838D02*
X135348977Y-50072552D01*
X135421548Y-50266076D01*
X135566691Y-50362838D01*
X135711834Y-50362838D01*
X136437548Y-50362838D02*
X136292405Y-50266076D01*
X136219834Y-50169314D01*
X136147262Y-49975790D01*
X136147262Y-49395219D01*
X136219834Y-49201695D01*
X136292405Y-49104933D01*
X136437548Y-49008171D01*
X136655262Y-49008171D01*
X136800405Y-49104933D01*
X136872977Y-49201695D01*
X136945548Y-49395219D01*
X136945548Y-49975790D01*
X136872977Y-50169314D01*
X136800405Y-50266076D01*
X136655262Y-50362838D01*
X136437548Y-50362838D01*
X66260977Y-53715638D02*
X66260977Y-52360971D01*
X66260977Y-51683638D02*
X66188405Y-51780400D01*
X66260977Y-51877161D01*
X66333548Y-51780400D01*
X66260977Y-51683638D01*
X66260977Y-51877161D01*
X66986691Y-52360971D02*
X66986691Y-53715638D01*
X66986691Y-52554495D02*
X67059262Y-52457733D01*
X67204405Y-52360971D01*
X67422120Y-52360971D01*
X67567262Y-52457733D01*
X67639834Y-52651257D01*
X67639834Y-53715638D01*
X68220405Y-52360971D02*
X68583262Y-53715638D01*
X68946120Y-52360971D01*
X70107262Y-53618876D02*
X69962120Y-53715638D01*
X69671834Y-53715638D01*
X69526691Y-53618876D01*
X69454120Y-53425352D01*
X69454120Y-52651257D01*
X69526691Y-52457733D01*
X69671834Y-52360971D01*
X69962120Y-52360971D01*
X70107262Y-52457733D01*
X70179834Y-52651257D01*
X70179834Y-52844780D01*
X69454120Y-53038304D01*
X70832977Y-53715638D02*
X70832977Y-52360971D01*
X70832977Y-52748019D02*
X70905548Y-52554495D01*
X70978120Y-52457733D01*
X71123262Y-52360971D01*
X71268405Y-52360971D01*
X71558691Y-52360971D02*
X72139262Y-52360971D01*
X71776405Y-51683638D02*
X71776405Y-53425352D01*
X71848977Y-53618876D01*
X71994120Y-53715638D01*
X72139262Y-53715638D01*
X73590691Y-52360971D02*
X74171262Y-52360971D01*
X73808405Y-51683638D02*
X73808405Y-53425352D01*
X73880977Y-53618876D01*
X74026120Y-53715638D01*
X74171262Y-53715638D01*
X74679262Y-53715638D02*
X74679262Y-51683638D01*
X75332405Y-53715638D02*
X75332405Y-52651257D01*
X75259834Y-52457733D01*
X75114691Y-52360971D01*
X74896977Y-52360971D01*
X74751834Y-52457733D01*
X74679262Y-52554495D01*
X76638691Y-53618876D02*
X76493548Y-53715638D01*
X76203262Y-53715638D01*
X76058120Y-53618876D01*
X75985548Y-53425352D01*
X75985548Y-52651257D01*
X76058120Y-52457733D01*
X76203262Y-52360971D01*
X76493548Y-52360971D01*
X76638691Y-52457733D01*
X76711262Y-52651257D01*
X76711262Y-52844780D01*
X75985548Y-53038304D01*
X79178691Y-53715638D02*
X79178691Y-51683638D01*
X79178691Y-53618876D02*
X79033548Y-53715638D01*
X78743262Y-53715638D01*
X78598120Y-53618876D01*
X78525548Y-53522114D01*
X78452977Y-53328590D01*
X78452977Y-52748019D01*
X78525548Y-52554495D01*
X78598120Y-52457733D01*
X78743262Y-52360971D01*
X79033548Y-52360971D01*
X79178691Y-52457733D01*
X80484977Y-53618876D02*
X80339834Y-53715638D01*
X80049548Y-53715638D01*
X79904405Y-53618876D01*
X79831834Y-53425352D01*
X79831834Y-52651257D01*
X79904405Y-52457733D01*
X80049548Y-52360971D01*
X80339834Y-52360971D01*
X80484977Y-52457733D01*
X80557548Y-52651257D01*
X80557548Y-52844780D01*
X79831834Y-53038304D01*
X81138120Y-53618876D02*
X81283262Y-53715638D01*
X81573548Y-53715638D01*
X81718691Y-53618876D01*
X81791262Y-53425352D01*
X81791262Y-53328590D01*
X81718691Y-53135066D01*
X81573548Y-53038304D01*
X81355834Y-53038304D01*
X81210691Y-52941542D01*
X81138120Y-52748019D01*
X81138120Y-52651257D01*
X81210691Y-52457733D01*
X81355834Y-52360971D01*
X81573548Y-52360971D01*
X81718691Y-52457733D01*
X82444405Y-53715638D02*
X82444405Y-52360971D01*
X82444405Y-51683638D02*
X82371834Y-51780400D01*
X82444405Y-51877161D01*
X82516977Y-51780400D01*
X82444405Y-51683638D01*
X82444405Y-51877161D01*
X83823262Y-52360971D02*
X83823262Y-54005923D01*
X83750691Y-54199447D01*
X83678120Y-54296209D01*
X83532977Y-54392971D01*
X83315262Y-54392971D01*
X83170120Y-54296209D01*
X83823262Y-53618876D02*
X83678120Y-53715638D01*
X83387834Y-53715638D01*
X83242691Y-53618876D01*
X83170120Y-53522114D01*
X83097548Y-53328590D01*
X83097548Y-52748019D01*
X83170120Y-52554495D01*
X83242691Y-52457733D01*
X83387834Y-52360971D01*
X83678120Y-52360971D01*
X83823262Y-52457733D01*
X84548977Y-52360971D02*
X84548977Y-53715638D01*
X84548977Y-52554495D02*
X84621548Y-52457733D01*
X84766691Y-52360971D01*
X84984405Y-52360971D01*
X85129548Y-52457733D01*
X85202120Y-52651257D01*
X85202120Y-53715638D01*
X85927834Y-53522114D02*
X86000405Y-53618876D01*
X85927834Y-53715638D01*
X85855262Y-53618876D01*
X85927834Y-53522114D01*
X85927834Y-53715638D01*
X87742120Y-53618876D02*
X87959834Y-53715638D01*
X88322691Y-53715638D01*
X88467834Y-53618876D01*
X88540405Y-53522114D01*
X88612977Y-53328590D01*
X88612977Y-53135066D01*
X88540405Y-52941542D01*
X88467834Y-52844780D01*
X88322691Y-52748019D01*
X88032405Y-52651257D01*
X87887262Y-52554495D01*
X87814691Y-52457733D01*
X87742120Y-52264209D01*
X87742120Y-52070685D01*
X87814691Y-51877161D01*
X87887262Y-51780400D01*
X88032405Y-51683638D01*
X88395262Y-51683638D01*
X88612977Y-51780400D01*
X89846691Y-53618876D02*
X89701548Y-53715638D01*
X89411262Y-53715638D01*
X89266120Y-53618876D01*
X89193548Y-53425352D01*
X89193548Y-52651257D01*
X89266120Y-52457733D01*
X89411262Y-52360971D01*
X89701548Y-52360971D01*
X89846691Y-52457733D01*
X89919262Y-52651257D01*
X89919262Y-52844780D01*
X89193548Y-53038304D01*
X91152977Y-53618876D02*
X91007834Y-53715638D01*
X90717548Y-53715638D01*
X90572405Y-53618876D01*
X90499834Y-53425352D01*
X90499834Y-52651257D01*
X90572405Y-52457733D01*
X90717548Y-52360971D01*
X91007834Y-52360971D01*
X91152977Y-52457733D01*
X91225548Y-52651257D01*
X91225548Y-52844780D01*
X90499834Y-53038304D01*
X92822120Y-52360971D02*
X93402691Y-52360971D01*
X93039834Y-51683638D02*
X93039834Y-53425352D01*
X93112405Y-53618876D01*
X93257548Y-53715638D01*
X93402691Y-53715638D01*
X93910691Y-53715638D02*
X93910691Y-51683638D01*
X94563834Y-53715638D02*
X94563834Y-52651257D01*
X94491262Y-52457733D01*
X94346120Y-52360971D01*
X94128405Y-52360971D01*
X93983262Y-52457733D01*
X93910691Y-52554495D01*
X95870120Y-53618876D02*
X95724977Y-53715638D01*
X95434691Y-53715638D01*
X95289548Y-53618876D01*
X95216977Y-53425352D01*
X95216977Y-52651257D01*
X95289548Y-52457733D01*
X95434691Y-52360971D01*
X95724977Y-52360971D01*
X95870120Y-52457733D01*
X95942691Y-52651257D01*
X95942691Y-52844780D01*
X95216977Y-53038304D01*
X97611834Y-52360971D02*
X97902120Y-53715638D01*
X98192405Y-52748019D01*
X98482691Y-53715638D01*
X98772977Y-52360971D01*
X99934120Y-53618876D02*
X99788977Y-53715638D01*
X99498691Y-53715638D01*
X99353548Y-53618876D01*
X99280977Y-53425352D01*
X99280977Y-52651257D01*
X99353548Y-52457733D01*
X99498691Y-52360971D01*
X99788977Y-52360971D01*
X99934120Y-52457733D01*
X100006691Y-52651257D01*
X100006691Y-52844780D01*
X99280977Y-53038304D01*
X100659834Y-53715638D02*
X100659834Y-51683638D01*
X100659834Y-52457733D02*
X100804977Y-52360971D01*
X101095262Y-52360971D01*
X101240405Y-52457733D01*
X101312977Y-52554495D01*
X101385548Y-52748019D01*
X101385548Y-53328590D01*
X101312977Y-53522114D01*
X101240405Y-53618876D01*
X101095262Y-53715638D01*
X100804977Y-53715638D01*
X100659834Y-53618876D01*
X102038691Y-52360971D02*
X102038691Y-54392971D01*
X102038691Y-52457733D02*
X102183834Y-52360971D01*
X102474120Y-52360971D01*
X102619262Y-52457733D01*
X102691834Y-52554495D01*
X102764405Y-52748019D01*
X102764405Y-53328590D01*
X102691834Y-53522114D01*
X102619262Y-53618876D01*
X102474120Y-53715638D01*
X102183834Y-53715638D01*
X102038691Y-53618876D01*
X104070691Y-53715638D02*
X104070691Y-52651257D01*
X103998120Y-52457733D01*
X103852977Y-52360971D01*
X103562691Y-52360971D01*
X103417548Y-52457733D01*
X104070691Y-53618876D02*
X103925548Y-53715638D01*
X103562691Y-53715638D01*
X103417548Y-53618876D01*
X103344977Y-53425352D01*
X103344977Y-53231828D01*
X103417548Y-53038304D01*
X103562691Y-52941542D01*
X103925548Y-52941542D01*
X104070691Y-52844780D01*
X105449548Y-52360971D02*
X105449548Y-54005923D01*
X105376977Y-54199447D01*
X105304405Y-54296209D01*
X105159262Y-54392971D01*
X104941548Y-54392971D01*
X104796405Y-54296209D01*
X105449548Y-53618876D02*
X105304405Y-53715638D01*
X105014119Y-53715638D01*
X104868977Y-53618876D01*
X104796405Y-53522114D01*
X104723834Y-53328590D01*
X104723834Y-52748019D01*
X104796405Y-52554495D01*
X104868977Y-52457733D01*
X105014119Y-52360971D01*
X105304405Y-52360971D01*
X105449548Y-52457733D01*
X106755834Y-53618876D02*
X106610691Y-53715638D01*
X106320405Y-53715638D01*
X106175262Y-53618876D01*
X106102691Y-53425352D01*
X106102691Y-52651257D01*
X106175262Y-52457733D01*
X106320405Y-52360971D01*
X106610691Y-52360971D01*
X106755834Y-52457733D01*
X106828405Y-52651257D01*
X106828405Y-52844780D01*
X106102691Y-53038304D01*
X108424977Y-52360971D02*
X109005548Y-52360971D01*
X108642691Y-53715638D02*
X108642691Y-51973923D01*
X108715262Y-51780400D01*
X108860405Y-51683638D01*
X109005548Y-51683638D01*
X109731262Y-53715638D02*
X109586120Y-53618876D01*
X109513548Y-53522114D01*
X109440977Y-53328590D01*
X109440977Y-52748019D01*
X109513548Y-52554495D01*
X109586120Y-52457733D01*
X109731262Y-52360971D01*
X109948977Y-52360971D01*
X110094120Y-52457733D01*
X110166691Y-52554495D01*
X110239262Y-52748019D01*
X110239262Y-53328590D01*
X110166691Y-53522114D01*
X110094120Y-53618876D01*
X109948977Y-53715638D01*
X109731262Y-53715638D01*
X110892405Y-53715638D02*
X110892405Y-52360971D01*
X110892405Y-52748019D02*
X110964977Y-52554495D01*
X111037548Y-52457733D01*
X111182691Y-52360971D01*
X111327834Y-52360971D01*
X112779262Y-52360971D02*
X113359834Y-52360971D01*
X112996977Y-53715638D02*
X112996977Y-51973923D01*
X113069548Y-51780400D01*
X113214691Y-51683638D01*
X113359834Y-51683638D01*
X114520977Y-52360971D02*
X114520977Y-53715638D01*
X113867834Y-52360971D02*
X113867834Y-53425352D01*
X113940405Y-53618876D01*
X114085548Y-53715638D01*
X114303262Y-53715638D01*
X114448405Y-53618876D01*
X114520977Y-53522114D01*
X115246691Y-53715638D02*
X115246691Y-52360971D01*
X115246691Y-52748019D02*
X115319262Y-52554495D01*
X115391834Y-52457733D01*
X115536977Y-52360971D01*
X115682120Y-52360971D01*
X115972405Y-52360971D02*
X116552977Y-52360971D01*
X116190120Y-51683638D02*
X116190120Y-53425352D01*
X116262691Y-53618876D01*
X116407834Y-53715638D01*
X116552977Y-53715638D01*
X117060977Y-53715638D02*
X117060977Y-51683638D01*
X117714120Y-53715638D02*
X117714120Y-52651257D01*
X117641548Y-52457733D01*
X117496405Y-52360971D01*
X117278691Y-52360971D01*
X117133548Y-52457733D01*
X117060977Y-52554495D01*
X119020405Y-53618876D02*
X118875262Y-53715638D01*
X118584977Y-53715638D01*
X118439834Y-53618876D01*
X118367262Y-53425352D01*
X118367262Y-52651257D01*
X118439834Y-52457733D01*
X118584977Y-52360971D01*
X118875262Y-52360971D01*
X119020405Y-52457733D01*
X119092977Y-52651257D01*
X119092977Y-52844780D01*
X118367262Y-53038304D01*
X119746120Y-53715638D02*
X119746120Y-52360971D01*
X119746120Y-52748019D02*
X119818691Y-52554495D01*
X119891262Y-52457733D01*
X120036405Y-52360971D01*
X120181548Y-52360971D01*
X121850691Y-53715638D02*
X121850691Y-52360971D01*
X121850691Y-51683638D02*
X121778120Y-51780400D01*
X121850691Y-51877161D01*
X121923262Y-51780400D01*
X121850691Y-51683638D01*
X121850691Y-51877161D01*
X122576405Y-52360971D02*
X122576405Y-53715638D01*
X122576405Y-52554495D02*
X122648977Y-52457733D01*
X122794120Y-52360971D01*
X123011834Y-52360971D01*
X123156977Y-52457733D01*
X123229548Y-52651257D01*
X123229548Y-53715638D01*
X123882691Y-53618876D02*
X124027834Y-53715638D01*
X124318120Y-53715638D01*
X124463262Y-53618876D01*
X124535834Y-53425352D01*
X124535834Y-53328590D01*
X124463262Y-53135066D01*
X124318120Y-53038304D01*
X124100405Y-53038304D01*
X123955262Y-52941542D01*
X123882691Y-52748019D01*
X123882691Y-52651257D01*
X123955262Y-52457733D01*
X124100405Y-52360971D01*
X124318120Y-52360971D01*
X124463262Y-52457733D01*
X124971262Y-52360971D02*
X125551834Y-52360971D01*
X125188977Y-51683638D02*
X125188977Y-53425352D01*
X125261548Y-53618876D01*
X125406691Y-53715638D01*
X125551834Y-53715638D01*
X126059834Y-53715638D02*
X126059834Y-52360971D01*
X126059834Y-52748019D02*
X126132405Y-52554495D01*
X126204977Y-52457733D01*
X126350120Y-52360971D01*
X126495262Y-52360971D01*
X127656405Y-52360971D02*
X127656405Y-53715638D01*
X127003262Y-52360971D02*
X127003262Y-53425352D01*
X127075834Y-53618876D01*
X127220977Y-53715638D01*
X127438691Y-53715638D01*
X127583834Y-53618876D01*
X127656405Y-53522114D01*
X129035262Y-53618876D02*
X128890120Y-53715638D01*
X128599834Y-53715638D01*
X128454691Y-53618876D01*
X128382120Y-53522114D01*
X128309548Y-53328590D01*
X128309548Y-52748019D01*
X128382120Y-52554495D01*
X128454691Y-52457733D01*
X128599834Y-52360971D01*
X128890120Y-52360971D01*
X129035262Y-52457733D01*
X129470691Y-52360971D02*
X130051262Y-52360971D01*
X129688405Y-51683638D02*
X129688405Y-53425352D01*
X129760977Y-53618876D01*
X129906120Y-53715638D01*
X130051262Y-53715638D01*
X130559262Y-53715638D02*
X130559262Y-52360971D01*
X130559262Y-51683638D02*
X130486691Y-51780400D01*
X130559262Y-51877161D01*
X130631834Y-51780400D01*
X130559262Y-51683638D01*
X130559262Y-51877161D01*
X131502691Y-53715638D02*
X131357548Y-53618876D01*
X131284977Y-53522114D01*
X131212405Y-53328590D01*
X131212405Y-52748019D01*
X131284977Y-52554495D01*
X131357548Y-52457733D01*
X131502691Y-52360971D01*
X131720405Y-52360971D01*
X131865548Y-52457733D01*
X131938120Y-52554495D01*
X132010691Y-52748019D01*
X132010691Y-53328590D01*
X131938120Y-53522114D01*
X131865548Y-53618876D01*
X131720405Y-53715638D01*
X131502691Y-53715638D01*
X132663834Y-52360971D02*
X132663834Y-53715638D01*
X132663834Y-52554495D02*
X132736405Y-52457733D01*
X132881548Y-52360971D01*
X133099262Y-52360971D01*
X133244405Y-52457733D01*
X133316977Y-52651257D01*
X133316977Y-53715638D01*
X133970120Y-53618876D02*
X134115262Y-53715638D01*
X134405548Y-53715638D01*
X134550691Y-53618876D01*
X134623262Y-53425352D01*
X134623262Y-53328590D01*
X134550691Y-53135066D01*
X134405548Y-53038304D01*
X134187834Y-53038304D01*
X134042691Y-52941542D01*
X133970120Y-52748019D01*
X133970120Y-52651257D01*
X134042691Y-52457733D01*
X134187834Y-52360971D01*
X134405548Y-52360971D01*
X134550691Y-52457733D01*
X135276405Y-53522114D02*
X135348977Y-53618876D01*
X135276405Y-53715638D01*
X135203834Y-53618876D01*
X135276405Y-53522114D01*
X135276405Y-53715638D01*
X66115834Y-55713771D02*
X66406120Y-57068438D01*
X66696405Y-56100819D01*
X66986691Y-57068438D01*
X67276977Y-55713771D01*
X67712405Y-55713771D02*
X68002691Y-57068438D01*
X68292977Y-56100819D01*
X68583262Y-57068438D01*
X68873548Y-55713771D01*
X69308977Y-55713771D02*
X69599262Y-57068438D01*
X69889548Y-56100819D01*
X70179834Y-57068438D01*
X70470120Y-55713771D01*
X71050691Y-56874914D02*
X71123262Y-56971676D01*
X71050691Y-57068438D01*
X70978120Y-56971676D01*
X71050691Y-56874914D01*
X71050691Y-57068438D01*
X72356977Y-56971676D02*
X72211834Y-57068438D01*
X71921548Y-57068438D01*
X71776405Y-56971676D01*
X71703834Y-56778152D01*
X71703834Y-56004057D01*
X71776405Y-55810533D01*
X71921548Y-55713771D01*
X72211834Y-55713771D01*
X72356977Y-55810533D01*
X72429548Y-56004057D01*
X72429548Y-56197580D01*
X71703834Y-56391104D01*
X73082691Y-57068438D02*
X73082691Y-55713771D01*
X73082691Y-56100819D02*
X73155262Y-55907295D01*
X73227834Y-55810533D01*
X73372977Y-55713771D01*
X73518120Y-55713771D01*
X74679262Y-55713771D02*
X74679262Y-57358723D01*
X74606691Y-57552247D01*
X74534120Y-57649009D01*
X74388977Y-57745771D01*
X74171262Y-57745771D01*
X74026120Y-57649009D01*
X74679262Y-56971676D02*
X74534120Y-57068438D01*
X74243834Y-57068438D01*
X74098691Y-56971676D01*
X74026120Y-56874914D01*
X73953548Y-56681390D01*
X73953548Y-56100819D01*
X74026120Y-55907295D01*
X74098691Y-55810533D01*
X74243834Y-55713771D01*
X74534120Y-55713771D01*
X74679262Y-55810533D01*
X75622691Y-57068438D02*
X75477548Y-56971676D01*
X75404977Y-56874914D01*
X75332405Y-56681390D01*
X75332405Y-56100819D01*
X75404977Y-55907295D01*
X75477548Y-55810533D01*
X75622691Y-55713771D01*
X75840405Y-55713771D01*
X75985548Y-55810533D01*
X76058120Y-55907295D01*
X76130691Y-56100819D01*
X76130691Y-56681390D01*
X76058120Y-56874914D01*
X75985548Y-56971676D01*
X75840405Y-57068438D01*
X75622691Y-57068438D01*
X77436977Y-57068438D02*
X77436977Y-55036438D01*
X77436977Y-56971676D02*
X77291834Y-57068438D01*
X77001548Y-57068438D01*
X76856405Y-56971676D01*
X76783834Y-56874914D01*
X76711262Y-56681390D01*
X76711262Y-56100819D01*
X76783834Y-55907295D01*
X76856405Y-55810533D01*
X77001548Y-55713771D01*
X77291834Y-55713771D01*
X77436977Y-55810533D01*
X78380405Y-57068438D02*
X78235262Y-56971676D01*
X78162691Y-56874914D01*
X78090120Y-56681390D01*
X78090120Y-56100819D01*
X78162691Y-55907295D01*
X78235262Y-55810533D01*
X78380405Y-55713771D01*
X78598120Y-55713771D01*
X78743262Y-55810533D01*
X78815834Y-55907295D01*
X78888405Y-56100819D01*
X78888405Y-56681390D01*
X78815834Y-56874914D01*
X78743262Y-56971676D01*
X78598120Y-57068438D01*
X78380405Y-57068438D01*
X79396405Y-57068438D02*
X80194691Y-55713771D01*
X79396405Y-55713771D02*
X80194691Y-57068438D01*
X80775262Y-56874914D02*
X80847834Y-56971676D01*
X80775262Y-57068438D01*
X80702691Y-56971676D01*
X80775262Y-56874914D01*
X80775262Y-57068438D01*
X81500977Y-57068438D02*
X81500977Y-55713771D01*
X81500977Y-55036438D02*
X81428405Y-55133200D01*
X81500977Y-55229961D01*
X81573548Y-55133200D01*
X81500977Y-55036438D01*
X81500977Y-55229961D01*
X82444405Y-57068438D02*
X82299262Y-56971676D01*
X82226691Y-56874914D01*
X82154120Y-56681390D01*
X82154120Y-56100819D01*
X82226691Y-55907295D01*
X82299262Y-55810533D01*
X82444405Y-55713771D01*
X82662120Y-55713771D01*
X82807262Y-55810533D01*
X82879834Y-55907295D01*
X82952405Y-56100819D01*
X82952405Y-56681390D01*
X82879834Y-56874914D01*
X82807262Y-56971676D01*
X82662120Y-57068438D01*
X82444405Y-57068438D01*
D13*
X69696390Y-99803857D02*
X68849723Y-98352428D01*
X68244961Y-99803857D02*
X68244961Y-96755857D01*
X69212580Y-96755857D01*
X69454485Y-96901000D01*
X69575438Y-97046142D01*
X69696390Y-97336428D01*
X69696390Y-97771857D01*
X69575438Y-98062142D01*
X69454485Y-98207285D01*
X69212580Y-98352428D01*
X68244961Y-98352428D01*
X70784961Y-99803857D02*
X70784961Y-96755857D01*
X73324961Y-96901000D02*
X73083057Y-96755857D01*
X72720200Y-96755857D01*
X72357342Y-96901000D01*
X72115438Y-97191285D01*
X71994485Y-97481571D01*
X71873533Y-98062142D01*
X71873533Y-98497571D01*
X71994485Y-99078142D01*
X72115438Y-99368428D01*
X72357342Y-99658714D01*
X72720200Y-99803857D01*
X72962104Y-99803857D01*
X73324961Y-99658714D01*
X73445914Y-99513571D01*
X73445914Y-98497571D01*
X72962104Y-98497571D01*
X74534485Y-99803857D02*
X74534485Y-96755857D01*
X74534485Y-98207285D02*
X75985914Y-98207285D01*
X75985914Y-99803857D02*
X75985914Y-96755857D01*
X76832580Y-96755857D02*
X78284009Y-96755857D01*
X77558295Y-99803857D02*
X77558295Y-96755857D01*
X68244961Y-104883857D02*
X68244961Y-101835857D01*
X68244961Y-103287285D02*
X69696390Y-103287285D01*
X69696390Y-104883857D02*
X69696390Y-101835857D01*
X70784961Y-104013000D02*
X71994485Y-104013000D01*
X70543057Y-104883857D02*
X71389723Y-101835857D01*
X72236390Y-104883857D01*
X73083057Y-104883857D02*
X73083057Y-101835857D01*
X74534485Y-104883857D01*
X74534485Y-101835857D01*
X75744009Y-104883857D02*
X75744009Y-101835857D01*
X76348771Y-101835857D01*
X76711628Y-101981000D01*
X76953533Y-102271285D01*
X77074485Y-102561571D01*
X77195438Y-103142142D01*
X77195438Y-103577571D01*
X77074485Y-104158142D01*
X76953533Y-104448428D01*
X76711628Y-104738714D01*
X76348771Y-104883857D01*
X75744009Y-104883857D01*
D11*
X161723977Y-52788457D02*
X161215977Y-52788457D01*
X161215977Y-53852838D02*
X161215977Y-51820838D01*
X161941691Y-51820838D01*
X163393120Y-53852838D02*
X162885120Y-52885219D01*
X162522262Y-53852838D02*
X162522262Y-51820838D01*
X163102834Y-51820838D01*
X163247977Y-51917600D01*
X163320548Y-52014361D01*
X163393120Y-52207885D01*
X163393120Y-52498171D01*
X163320548Y-52691695D01*
X163247977Y-52788457D01*
X163102834Y-52885219D01*
X162522262Y-52885219D01*
X164699405Y-52498171D02*
X164699405Y-53852838D01*
X164336548Y-51724076D02*
X163973691Y-53175504D01*
X164917120Y-53175504D01*
X166441120Y-51820838D02*
X167311977Y-51820838D01*
X166876548Y-53852838D02*
X166876548Y-51820838D01*
X168473120Y-52498171D02*
X168473120Y-54143123D01*
X168400548Y-54336647D01*
X168327977Y-54433409D01*
X168182834Y-54530171D01*
X167965120Y-54530171D01*
X167819977Y-54433409D01*
X168473120Y-53756076D02*
X168327977Y-53852838D01*
X168037691Y-53852838D01*
X167892548Y-53756076D01*
X167819977Y-53659314D01*
X167747405Y-53465790D01*
X167747405Y-52885219D01*
X167819977Y-52691695D01*
X167892548Y-52594933D01*
X168037691Y-52498171D01*
X168327977Y-52498171D01*
X168473120Y-52594933D01*
X169997120Y-53852838D02*
X169126262Y-53852838D01*
X169561691Y-53852838D02*
X169561691Y-51820838D01*
X169416548Y-52111123D01*
X169271405Y-52304647D01*
X169126262Y-52401409D01*
X170505120Y-51820838D02*
X171521120Y-51820838D01*
X170867977Y-53852838D01*
X172391977Y-51820838D02*
X172537120Y-51820838D01*
X172682262Y-51917600D01*
X172754834Y-52014361D01*
X172827405Y-52207885D01*
X172899977Y-52594933D01*
X172899977Y-53078742D01*
X172827405Y-53465790D01*
X172754834Y-53659314D01*
X172682262Y-53756076D01*
X172537120Y-53852838D01*
X172391977Y-53852838D01*
X172246834Y-53756076D01*
X172174262Y-53659314D01*
X172101691Y-53465790D01*
X172029120Y-53078742D01*
X172029120Y-52594933D01*
X172101691Y-52207885D01*
X172174262Y-52014361D01*
X172246834Y-51917600D01*
X172391977Y-51820838D01*
X173770834Y-51820838D02*
X173625691Y-51917600D01*
X173553120Y-52111123D01*
X173625691Y-52304647D01*
X173770834Y-52401409D01*
X173915977Y-52304647D01*
X173988548Y-52111123D01*
X173915977Y-51917600D01*
X173770834Y-51820838D01*
X176601120Y-53852838D02*
X175875405Y-53852838D01*
X175875405Y-51820838D01*
X177762262Y-53852838D02*
X177762262Y-52788457D01*
X177689691Y-52594933D01*
X177544548Y-52498171D01*
X177254262Y-52498171D01*
X177109120Y-52594933D01*
X177762262Y-53756076D02*
X177617120Y-53852838D01*
X177254262Y-53852838D01*
X177109120Y-53756076D01*
X177036548Y-53562552D01*
X177036548Y-53369028D01*
X177109120Y-53175504D01*
X177254262Y-53078742D01*
X177617120Y-53078742D01*
X177762262Y-52981980D01*
X178487977Y-53852838D02*
X178487977Y-52498171D01*
X178487977Y-52691695D02*
X178560548Y-52594933D01*
X178705691Y-52498171D01*
X178923405Y-52498171D01*
X179068548Y-52594933D01*
X179141120Y-52788457D01*
X179141120Y-53852838D01*
X179141120Y-52788457D02*
X179213691Y-52594933D01*
X179358834Y-52498171D01*
X179576548Y-52498171D01*
X179721691Y-52594933D01*
X179794262Y-52788457D01*
X179794262Y-53852838D01*
X180519977Y-53852838D02*
X180519977Y-52498171D01*
X180519977Y-51820838D02*
X180447405Y-51917600D01*
X180519977Y-52014361D01*
X180592548Y-51917600D01*
X180519977Y-51820838D01*
X180519977Y-52014361D01*
X181245691Y-52498171D02*
X181245691Y-53852838D01*
X181245691Y-52691695D02*
X181318262Y-52594933D01*
X181463405Y-52498171D01*
X181681120Y-52498171D01*
X181826262Y-52594933D01*
X181898834Y-52788457D01*
X181898834Y-53852838D01*
X183277691Y-53852838D02*
X183277691Y-52788457D01*
X183205120Y-52594933D01*
X183059977Y-52498171D01*
X182769691Y-52498171D01*
X182624548Y-52594933D01*
X183277691Y-53756076D02*
X183132548Y-53852838D01*
X182769691Y-53852838D01*
X182624548Y-53756076D01*
X182551977Y-53562552D01*
X182551977Y-53369028D01*
X182624548Y-53175504D01*
X182769691Y-53078742D01*
X183132548Y-53078742D01*
X183277691Y-52981980D01*
X183785691Y-52498171D02*
X184366262Y-52498171D01*
X184003405Y-51820838D02*
X184003405Y-53562552D01*
X184075977Y-53756076D01*
X184221120Y-53852838D01*
X184366262Y-53852838D01*
X185454834Y-53756076D02*
X185309691Y-53852838D01*
X185019405Y-53852838D01*
X184874262Y-53756076D01*
X184801691Y-53562552D01*
X184801691Y-52788457D01*
X184874262Y-52594933D01*
X185019405Y-52498171D01*
X185309691Y-52498171D01*
X185454834Y-52594933D01*
X185527405Y-52788457D01*
X185527405Y-52981980D01*
X184801691Y-53175504D01*
X161143405Y-55367161D02*
X161215977Y-55270400D01*
X161361120Y-55173638D01*
X161723977Y-55173638D01*
X161869120Y-55270400D01*
X161941691Y-55367161D01*
X162014262Y-55560685D01*
X162014262Y-55754209D01*
X161941691Y-56044495D01*
X161070834Y-57205638D01*
X162014262Y-57205638D01*
X163320548Y-55850971D02*
X163320548Y-57205638D01*
X162957691Y-55076876D02*
X162594834Y-56528304D01*
X163538262Y-56528304D01*
X164118834Y-57205638D02*
X164118834Y-55850971D01*
X164118834Y-56044495D02*
X164191405Y-55947733D01*
X164336548Y-55850971D01*
X164554262Y-55850971D01*
X164699405Y-55947733D01*
X164771977Y-56141257D01*
X164771977Y-57205638D01*
X164771977Y-56141257D02*
X164844548Y-55947733D01*
X164989691Y-55850971D01*
X165207405Y-55850971D01*
X165352548Y-55947733D01*
X165425120Y-56141257D01*
X165425120Y-57205638D01*
X166150834Y-57205638D02*
X166150834Y-55850971D01*
X166150834Y-55173638D02*
X166078262Y-55270400D01*
X166150834Y-55367161D01*
X166223405Y-55270400D01*
X166150834Y-55173638D01*
X166150834Y-55367161D01*
X167094262Y-57205638D02*
X166949120Y-57108876D01*
X166876548Y-56915352D01*
X166876548Y-55173638D01*
X168618262Y-55850971D02*
X169198834Y-55850971D01*
X168835977Y-55173638D02*
X168835977Y-56915352D01*
X168908548Y-57108876D01*
X169053691Y-57205638D01*
X169198834Y-57205638D01*
X169706834Y-57205638D02*
X169706834Y-55850971D01*
X169706834Y-56238019D02*
X169779405Y-56044495D01*
X169851977Y-55947733D01*
X169997120Y-55850971D01*
X170142262Y-55850971D01*
X171303405Y-57205638D02*
X171303405Y-56141257D01*
X171230834Y-55947733D01*
X171085691Y-55850971D01*
X170795405Y-55850971D01*
X170650262Y-55947733D01*
X171303405Y-57108876D02*
X171158262Y-57205638D01*
X170795405Y-57205638D01*
X170650262Y-57108876D01*
X170577691Y-56915352D01*
X170577691Y-56721828D01*
X170650262Y-56528304D01*
X170795405Y-56431542D01*
X171158262Y-56431542D01*
X171303405Y-56334780D01*
X172682262Y-57108876D02*
X172537120Y-57205638D01*
X172246834Y-57205638D01*
X172101691Y-57108876D01*
X172029120Y-57012114D01*
X171956548Y-56818590D01*
X171956548Y-56238019D01*
X172029120Y-56044495D01*
X172101691Y-55947733D01*
X172246834Y-55850971D01*
X172537120Y-55850971D01*
X172682262Y-55947733D01*
X173915977Y-57108876D02*
X173770834Y-57205638D01*
X173480548Y-57205638D01*
X173335405Y-57108876D01*
X173262834Y-56915352D01*
X173262834Y-56141257D01*
X173335405Y-55947733D01*
X173480548Y-55850971D01*
X173770834Y-55850971D01*
X173915977Y-55947733D01*
X173988548Y-56141257D01*
X173988548Y-56334780D01*
X173262834Y-56528304D01*
X174569120Y-57108876D02*
X174714262Y-57205638D01*
X175004548Y-57205638D01*
X175149691Y-57108876D01*
X175222262Y-56915352D01*
X175222262Y-56818590D01*
X175149691Y-56625066D01*
X175004548Y-56528304D01*
X174786834Y-56528304D01*
X174641691Y-56431542D01*
X174569120Y-56238019D01*
X174569120Y-56141257D01*
X174641691Y-55947733D01*
X174786834Y-55850971D01*
X175004548Y-55850971D01*
X175149691Y-55947733D01*
X177254262Y-57205638D02*
X177109120Y-57108876D01*
X177036548Y-57012114D01*
X176963977Y-56818590D01*
X176963977Y-56238019D01*
X177036548Y-56044495D01*
X177109120Y-55947733D01*
X177254262Y-55850971D01*
X177471977Y-55850971D01*
X177617120Y-55947733D01*
X177689691Y-56044495D01*
X177762262Y-56238019D01*
X177762262Y-56818590D01*
X177689691Y-57012114D01*
X177617120Y-57108876D01*
X177471977Y-57205638D01*
X177254262Y-57205638D01*
X178415405Y-55850971D02*
X178415405Y-57205638D01*
X178415405Y-56044495D02*
X178487977Y-55947733D01*
X178633120Y-55850971D01*
X178850834Y-55850971D01*
X178995977Y-55947733D01*
X179068548Y-56141257D01*
X179068548Y-57205638D01*
X181753691Y-57205638D02*
X180882834Y-57205638D01*
X181318262Y-57205638D02*
X181318262Y-55173638D01*
X181173120Y-55463923D01*
X181027977Y-55657447D01*
X180882834Y-55754209D01*
X182624548Y-57205638D02*
X182479405Y-57108876D01*
X182406834Y-57012114D01*
X182334262Y-56818590D01*
X182334262Y-56238019D01*
X182406834Y-56044495D01*
X182479405Y-55947733D01*
X182624548Y-55850971D01*
X182842262Y-55850971D01*
X182987405Y-55947733D01*
X183059977Y-56044495D01*
X183132548Y-56238019D01*
X183132548Y-56818590D01*
X183059977Y-57012114D01*
X182987405Y-57108876D01*
X182842262Y-57205638D01*
X182624548Y-57205638D01*
X183640548Y-55850971D02*
X184438834Y-55850971D01*
X183640548Y-57205638D01*
X184438834Y-57205638D01*
X186833691Y-57108876D02*
X186688548Y-57205638D01*
X186398262Y-57205638D01*
X186253120Y-57108876D01*
X186180548Y-57012114D01*
X186107977Y-56818590D01*
X186107977Y-56238019D01*
X186180548Y-56044495D01*
X186253120Y-55947733D01*
X186398262Y-55850971D01*
X186688548Y-55850971D01*
X186833691Y-55947733D01*
X187704548Y-57205638D02*
X187559405Y-57108876D01*
X187486834Y-57012114D01*
X187414262Y-56818590D01*
X187414262Y-56238019D01*
X187486834Y-56044495D01*
X187559405Y-55947733D01*
X187704548Y-55850971D01*
X187922262Y-55850971D01*
X188067405Y-55947733D01*
X188139977Y-56044495D01*
X188212548Y-56238019D01*
X188212548Y-56818590D01*
X188139977Y-57012114D01*
X188067405Y-57108876D01*
X187922262Y-57205638D01*
X187704548Y-57205638D01*
X188865691Y-55850971D02*
X188865691Y-57882971D01*
X188865691Y-55947733D02*
X189010834Y-55850971D01*
X189301120Y-55850971D01*
X189446262Y-55947733D01*
X189518834Y-56044495D01*
X189591405Y-56238019D01*
X189591405Y-56818590D01*
X189518834Y-57012114D01*
X189446262Y-57108876D01*
X189301120Y-57205638D01*
X189010834Y-57205638D01*
X188865691Y-57108876D01*
X190244548Y-55850971D02*
X190244548Y-57882971D01*
X190244548Y-55947733D02*
X190389691Y-55850971D01*
X190679977Y-55850971D01*
X190825120Y-55947733D01*
X190897691Y-56044495D01*
X190970262Y-56238019D01*
X190970262Y-56818590D01*
X190897691Y-57012114D01*
X190825120Y-57108876D01*
X190679977Y-57205638D01*
X190389691Y-57205638D01*
X190244548Y-57108876D01*
X192203977Y-57108876D02*
X192058834Y-57205638D01*
X191768548Y-57205638D01*
X191623405Y-57108876D01*
X191550834Y-56915352D01*
X191550834Y-56141257D01*
X191623405Y-55947733D01*
X191768548Y-55850971D01*
X192058834Y-55850971D01*
X192203977Y-55947733D01*
X192276548Y-56141257D01*
X192276548Y-56334780D01*
X191550834Y-56528304D01*
X192929691Y-57205638D02*
X192929691Y-55850971D01*
X192929691Y-56238019D02*
X193002262Y-56044495D01*
X193074834Y-55947733D01*
X193219977Y-55850971D01*
X193365120Y-55850971D01*
X202849238Y-126439022D02*
X200817238Y-126439022D01*
X200817238Y-126076165D01*
X200914000Y-125858451D01*
X201107523Y-125713308D01*
X201301047Y-125640737D01*
X201688095Y-125568165D01*
X201978380Y-125568165D01*
X202365428Y-125640737D01*
X202558952Y-125713308D01*
X202752476Y-125858451D01*
X202849238Y-126076165D01*
X202849238Y-126439022D01*
X202849238Y-124915022D02*
X201494571Y-124915022D01*
X201881619Y-124915022D02*
X201688095Y-124842451D01*
X201591333Y-124769880D01*
X201494571Y-124624737D01*
X201494571Y-124479594D01*
X202849238Y-123318451D02*
X201784857Y-123318451D01*
X201591333Y-123391022D01*
X201494571Y-123536165D01*
X201494571Y-123826451D01*
X201591333Y-123971594D01*
X202752476Y-123318451D02*
X202849238Y-123463594D01*
X202849238Y-123826451D01*
X202752476Y-123971594D01*
X202558952Y-124044165D01*
X202365428Y-124044165D01*
X202171904Y-123971594D01*
X202075142Y-123826451D01*
X202075142Y-123463594D01*
X201978380Y-123318451D01*
X201494571Y-122737880D02*
X202849238Y-122447594D01*
X201881619Y-122157308D01*
X202849238Y-121867022D01*
X201494571Y-121576737D01*
X201494571Y-120996165D02*
X202849238Y-120996165D01*
X201688095Y-120996165D02*
X201591333Y-120923594D01*
X201494571Y-120778451D01*
X201494571Y-120560737D01*
X201591333Y-120415594D01*
X201784857Y-120343022D01*
X202849238Y-120343022D01*
X202849238Y-118456165D02*
X201494571Y-118456165D01*
X200817238Y-118456165D02*
X200914000Y-118528737D01*
X201010761Y-118456165D01*
X200914000Y-118383594D01*
X200817238Y-118456165D01*
X201010761Y-118456165D01*
X201494571Y-117730451D02*
X202849238Y-117730451D01*
X201688095Y-117730451D02*
X201591333Y-117657880D01*
X201494571Y-117512737D01*
X201494571Y-117295022D01*
X201591333Y-117149880D01*
X201784857Y-117077308D01*
X202849238Y-117077308D01*
X202849238Y-115190451D02*
X200817238Y-115190451D01*
X202849238Y-114319594D02*
X201688095Y-114972737D01*
X200817238Y-114319594D02*
X201978380Y-115190451D01*
X202849238Y-113666451D02*
X201494571Y-113666451D01*
X200817238Y-113666451D02*
X200914000Y-113739022D01*
X201010761Y-113666451D01*
X200914000Y-113593880D01*
X200817238Y-113666451D01*
X201010761Y-113666451D01*
X202655714Y-112069880D02*
X202752476Y-112142451D01*
X202849238Y-112360165D01*
X202849238Y-112505308D01*
X202752476Y-112723022D01*
X202558952Y-112868165D01*
X202365428Y-112940737D01*
X201978380Y-113013308D01*
X201688095Y-113013308D01*
X201301047Y-112940737D01*
X201107523Y-112868165D01*
X200914000Y-112723022D01*
X200817238Y-112505308D01*
X200817238Y-112360165D01*
X200914000Y-112142451D01*
X201010761Y-112069880D01*
X202268666Y-111489308D02*
X202268666Y-110763594D01*
X202849238Y-111634451D02*
X200817238Y-111126451D01*
X202849238Y-110618451D01*
X202849238Y-110110451D02*
X200817238Y-110110451D01*
X200817238Y-109747594D01*
X200914000Y-109529880D01*
X201107523Y-109384737D01*
X201301047Y-109312165D01*
X201688095Y-109239594D01*
X201978380Y-109239594D01*
X202365428Y-109312165D01*
X202558952Y-109384737D01*
X202752476Y-109529880D01*
X202849238Y-109747594D01*
X202849238Y-110110451D01*
X202849238Y-107425308D02*
X200817238Y-107425308D01*
X201591333Y-107425308D02*
X201494571Y-107280165D01*
X201494571Y-106989880D01*
X201591333Y-106844737D01*
X201688095Y-106772165D01*
X201881619Y-106699594D01*
X202462190Y-106699594D01*
X202655714Y-106772165D01*
X202752476Y-106844737D01*
X202849238Y-106989880D01*
X202849238Y-107280165D01*
X202752476Y-107425308D01*
X201494571Y-106191594D02*
X202849238Y-105828737D01*
X201494571Y-105465880D02*
X202849238Y-105828737D01*
X203333047Y-105973880D01*
X203429809Y-106046451D01*
X203526571Y-106191594D01*
X201784857Y-103216165D02*
X201784857Y-103724165D01*
X202849238Y-103724165D02*
X200817238Y-103724165D01*
X200817238Y-102998451D01*
X202849238Y-102417880D02*
X201494571Y-102417880D01*
X201881619Y-102417880D02*
X201688095Y-102345308D01*
X201591333Y-102272737D01*
X201494571Y-102127594D01*
X201494571Y-101982451D01*
X202752476Y-100893880D02*
X202849238Y-101039022D01*
X202849238Y-101329308D01*
X202752476Y-101474451D01*
X202558952Y-101547022D01*
X201784857Y-101547022D01*
X201591333Y-101474451D01*
X201494571Y-101329308D01*
X201494571Y-101039022D01*
X201591333Y-100893880D01*
X201784857Y-100821308D01*
X201978380Y-100821308D01*
X202171904Y-101547022D01*
X202849238Y-99515022D02*
X200817238Y-99515022D01*
X202752476Y-99515022D02*
X202849238Y-99660165D01*
X202849238Y-99950451D01*
X202752476Y-100095594D01*
X202655714Y-100168165D01*
X202462190Y-100240737D01*
X201881619Y-100240737D01*
X201688095Y-100168165D01*
X201591333Y-100095594D01*
X201494571Y-99950451D01*
X201494571Y-99660165D01*
X201591333Y-99515022D01*
X202849238Y-98789308D02*
X201494571Y-98789308D01*
X201881619Y-98789308D02*
X201688095Y-98716737D01*
X201591333Y-98644165D01*
X201494571Y-98499022D01*
X201494571Y-98353880D01*
X202849238Y-97845880D02*
X201494571Y-97845880D01*
X200817238Y-97845880D02*
X200914000Y-97918451D01*
X201010761Y-97845880D01*
X200914000Y-97773308D01*
X200817238Y-97845880D01*
X201010761Y-97845880D01*
X202849238Y-97120165D02*
X200817238Y-97120165D01*
X202075142Y-96975022D02*
X202849238Y-96539594D01*
X201494571Y-96539594D02*
X202268666Y-97120165D01*
X202268666Y-94797880D02*
X202268666Y-94072165D01*
X202849238Y-94943022D02*
X200817238Y-94435022D01*
X202849238Y-93927022D01*
X201494571Y-93636737D02*
X201494571Y-93056165D01*
X200817238Y-93419022D02*
X202558952Y-93419022D01*
X202752476Y-93346451D01*
X202849238Y-93201308D01*
X202849238Y-93056165D01*
X202849238Y-92548165D02*
X201494571Y-92548165D01*
X201688095Y-92548165D02*
X201591333Y-92475594D01*
X201494571Y-92330451D01*
X201494571Y-92112737D01*
X201591333Y-91967594D01*
X201784857Y-91895022D01*
X202849238Y-91895022D01*
X201784857Y-91895022D02*
X201591333Y-91822451D01*
X201494571Y-91677308D01*
X201494571Y-91459594D01*
X201591333Y-91314451D01*
X201784857Y-91241880D01*
X202849238Y-91241880D01*
X202752476Y-89935594D02*
X202849238Y-90080737D01*
X202849238Y-90371022D01*
X202752476Y-90516165D01*
X202558952Y-90588737D01*
X201784857Y-90588737D01*
X201591333Y-90516165D01*
X201494571Y-90371022D01*
X201494571Y-90080737D01*
X201591333Y-89935594D01*
X201784857Y-89863022D01*
X201978380Y-89863022D01*
X202171904Y-90588737D01*
X202849238Y-89209880D02*
X201494571Y-89209880D01*
X201881619Y-89209880D02*
X201688095Y-89137308D01*
X201591333Y-89064737D01*
X201494571Y-88919594D01*
X201494571Y-88774451D01*
X202752476Y-88193880D02*
X202849238Y-88193880D01*
X203042761Y-88266451D01*
X203139523Y-88339022D01*
X201784857Y-85871594D02*
X201881619Y-85653880D01*
X201978380Y-85581308D01*
X202171904Y-85508737D01*
X202462190Y-85508737D01*
X202655714Y-85581308D01*
X202752476Y-85653880D01*
X202849238Y-85799022D01*
X202849238Y-86379594D01*
X200817238Y-86379594D01*
X200817238Y-85871594D01*
X200914000Y-85726451D01*
X201010761Y-85653880D01*
X201204285Y-85581308D01*
X201397809Y-85581308D01*
X201591333Y-85653880D01*
X201688095Y-85726451D01*
X201784857Y-85871594D01*
X201784857Y-86379594D01*
X202849238Y-84202451D02*
X201784857Y-84202451D01*
X201591333Y-84275022D01*
X201494571Y-84420165D01*
X201494571Y-84710451D01*
X201591333Y-84855594D01*
X202752476Y-84202451D02*
X202849238Y-84347594D01*
X202849238Y-84710451D01*
X202752476Y-84855594D01*
X202558952Y-84928165D01*
X202365428Y-84928165D01*
X202171904Y-84855594D01*
X202075142Y-84710451D01*
X202075142Y-84347594D01*
X201978380Y-84202451D01*
X201494571Y-83694451D02*
X201494571Y-83113880D01*
X200817238Y-83476737D02*
X202558952Y-83476737D01*
X202752476Y-83404165D01*
X202849238Y-83259022D01*
X202849238Y-83113880D01*
X202849238Y-82605880D02*
X200817238Y-82605880D01*
X202849238Y-81952737D02*
X201784857Y-81952737D01*
X201591333Y-82025308D01*
X201494571Y-82170451D01*
X201494571Y-82388165D01*
X201591333Y-82533308D01*
X201688095Y-82605880D01*
X202849238Y-81227022D02*
X201494571Y-81227022D01*
X201881619Y-81227022D02*
X201688095Y-81154451D01*
X201591333Y-81081880D01*
X201494571Y-80936737D01*
X201494571Y-80791594D01*
X202849238Y-80065880D02*
X202752476Y-80211022D01*
X202655714Y-80283594D01*
X202462190Y-80356165D01*
X201881619Y-80356165D01*
X201688095Y-80283594D01*
X201591333Y-80211022D01*
X201494571Y-80065880D01*
X201494571Y-79848165D01*
X201591333Y-79703022D01*
X201688095Y-79630451D01*
X201881619Y-79557880D01*
X202462190Y-79557880D01*
X202655714Y-79630451D01*
X202752476Y-79703022D01*
X202849238Y-79848165D01*
X202849238Y-80065880D01*
X202849238Y-78687022D02*
X202752476Y-78832165D01*
X202655714Y-78904737D01*
X202462190Y-78977308D01*
X201881619Y-78977308D01*
X201688095Y-78904737D01*
X201591333Y-78832165D01*
X201494571Y-78687022D01*
X201494571Y-78469308D01*
X201591333Y-78324165D01*
X201688095Y-78251594D01*
X201881619Y-78179022D01*
X202462190Y-78179022D01*
X202655714Y-78251594D01*
X202752476Y-78324165D01*
X202849238Y-78469308D01*
X202849238Y-78687022D01*
X202849238Y-77525880D02*
X201494571Y-77525880D01*
X201688095Y-77525880D02*
X201591333Y-77453308D01*
X201494571Y-77308165D01*
X201494571Y-77090451D01*
X201591333Y-76945308D01*
X201784857Y-76872737D01*
X202849238Y-76872737D01*
X201784857Y-76872737D02*
X201591333Y-76800165D01*
X201494571Y-76655022D01*
X201494571Y-76437308D01*
X201591333Y-76292165D01*
X201784857Y-76219594D01*
X202849238Y-76219594D01*
X201784857Y-74332737D02*
X201784857Y-73824737D01*
X202849238Y-73607022D02*
X202849238Y-74332737D01*
X200817238Y-74332737D01*
X200817238Y-73607022D01*
X201494571Y-72953880D02*
X203526571Y-72953880D01*
X201591333Y-72953880D02*
X201494571Y-72808737D01*
X201494571Y-72518451D01*
X201591333Y-72373308D01*
X201688095Y-72300737D01*
X201881619Y-72228165D01*
X202462190Y-72228165D01*
X202655714Y-72300737D01*
X202752476Y-72373308D01*
X202849238Y-72518451D01*
X202849238Y-72808737D01*
X202752476Y-72953880D01*
X202849238Y-71575022D02*
X201494571Y-71575022D01*
X200817238Y-71575022D02*
X200914000Y-71647594D01*
X201010761Y-71575022D01*
X200914000Y-71502451D01*
X200817238Y-71575022D01*
X201010761Y-71575022D01*
X201494571Y-70849308D02*
X203526571Y-70849308D01*
X201591333Y-70849308D02*
X201494571Y-70704165D01*
X201494571Y-70413880D01*
X201591333Y-70268737D01*
X201688095Y-70196165D01*
X201881619Y-70123594D01*
X202462190Y-70123594D01*
X202655714Y-70196165D01*
X202752476Y-70268737D01*
X202849238Y-70413880D01*
X202849238Y-70704165D01*
X202752476Y-70849308D01*
X202849238Y-69470451D02*
X200817238Y-69470451D01*
X202849238Y-68817308D02*
X201784857Y-68817308D01*
X201591333Y-68889880D01*
X201494571Y-69035022D01*
X201494571Y-69252737D01*
X201591333Y-69397880D01*
X201688095Y-69470451D01*
X202849238Y-67438451D02*
X201784857Y-67438451D01*
X201591333Y-67511022D01*
X201494571Y-67656165D01*
X201494571Y-67946451D01*
X201591333Y-68091594D01*
X202752476Y-67438451D02*
X202849238Y-67583594D01*
X202849238Y-67946451D01*
X202752476Y-68091594D01*
X202558952Y-68164165D01*
X202365428Y-68164165D01*
X202171904Y-68091594D01*
X202075142Y-67946451D01*
X202075142Y-67583594D01*
X201978380Y-67438451D01*
X201494571Y-66712737D02*
X202849238Y-66712737D01*
X201688095Y-66712737D02*
X201591333Y-66640165D01*
X201494571Y-66495022D01*
X201494571Y-66277308D01*
X201591333Y-66132165D01*
X201784857Y-66059594D01*
X202849238Y-66059594D01*
X202849238Y-65333880D02*
X201494571Y-65333880D01*
X200817238Y-65333880D02*
X200914000Y-65406451D01*
X201010761Y-65333880D01*
X200914000Y-65261308D01*
X200817238Y-65333880D01*
X201010761Y-65333880D01*
X202752476Y-64027594D02*
X202849238Y-64172737D01*
X202849238Y-64463022D01*
X202752476Y-64608165D01*
X202558952Y-64680737D01*
X201784857Y-64680737D01*
X201591333Y-64608165D01*
X201494571Y-64463022D01*
X201494571Y-64172737D01*
X201591333Y-64027594D01*
X201784857Y-63955022D01*
X201978380Y-63955022D01*
X202171904Y-64680737D01*
X202752476Y-63374451D02*
X202849238Y-63229308D01*
X202849238Y-62939022D01*
X202752476Y-62793880D01*
X202558952Y-62721308D01*
X202462190Y-62721308D01*
X202268666Y-62793880D01*
X202171904Y-62939022D01*
X202171904Y-63156737D01*
X202075142Y-63301880D01*
X201881619Y-63374451D01*
X201784857Y-63374451D01*
X201591333Y-63301880D01*
X201494571Y-63156737D01*
X201494571Y-62939022D01*
X201591333Y-62793880D01*
D14*
X141493240Y-28481020D02*
X141493240Y-37480240D01*
X141493240Y-37480240D02*
X133791960Y-37480240D01*
X133791960Y-37480240D02*
X133791960Y-28481020D01*
X133791960Y-28481020D02*
X141493240Y-28481020D01*
X163195000Y-48895000D02*
X163195000Y-51435000D01*
X160655000Y-48895000D02*
X163195000Y-48895000D01*
X191135000Y-33655000D02*
X160655000Y-33655000D01*
X191135000Y-51435000D02*
X191135000Y-33655000D01*
X160655000Y-51435000D02*
X191135000Y-51435000D01*
X160655000Y-33655000D02*
X160655000Y-51435000D01*
X152050590Y-44055462D02*
X147560462Y-48545590D01*
X147560462Y-48545590D02*
X145764410Y-46749538D01*
X145764410Y-46749538D02*
X150254538Y-42259410D01*
X150254538Y-42259410D02*
X152050590Y-44055462D01*
X145315398Y-48994602D02*
X146662436Y-47647564D01*
X152499602Y-41810398D02*
X151152564Y-43157436D01*
X150145590Y-42150462D02*
X145655462Y-46640590D01*
X145655462Y-46640590D02*
X143859410Y-44844538D01*
X143859410Y-44844538D02*
X148349538Y-40354410D01*
X148349538Y-40354410D02*
X150145590Y-42150462D01*
X143410398Y-47089602D02*
X144757436Y-45742564D01*
X150594602Y-39905398D02*
X149247564Y-41252436D01*
X128587500Y-48260000D02*
X122237500Y-48260000D01*
X122237500Y-48260000D02*
X122237500Y-45720000D01*
X122237500Y-45720000D02*
X128587500Y-45720000D01*
X128587500Y-45720000D02*
X128587500Y-48260000D01*
X120332500Y-46990000D02*
X122237500Y-46990000D01*
X130492500Y-46990000D02*
X128587500Y-46990000D01*
X104062962Y-37179410D02*
X108553090Y-41669538D01*
X108553090Y-41669538D02*
X106757038Y-43465590D01*
X106757038Y-43465590D02*
X102266910Y-38975462D01*
X102266910Y-38975462D02*
X104062962Y-37179410D01*
X109002102Y-43914602D02*
X107655064Y-42567564D01*
X101817898Y-36730398D02*
X103164936Y-38077436D01*
X100887962Y-38449410D02*
X105378090Y-42939538D01*
X105378090Y-42939538D02*
X103582038Y-44735590D01*
X103582038Y-44735590D02*
X99091910Y-40245462D01*
X99091910Y-40245462D02*
X100887962Y-38449410D01*
X105827102Y-45184602D02*
X104480064Y-43837564D01*
X98642898Y-38000398D02*
X99989936Y-39347436D01*
D15*
X78740000Y-40005000D02*
X78740000Y-37465000D01*
X93980000Y-37465000D02*
X93980000Y-34925000D01*
D14*
X91109800Y-30480000D02*
X91109800Y-42545000D01*
X91109800Y-42545000D02*
X81508600Y-42545000D01*
X81508600Y-42545000D02*
X81508600Y-30480000D01*
X185102500Y-79702660D02*
X186880500Y-79702660D01*
X196024500Y-79702660D02*
X197802500Y-79702660D01*
X197802500Y-79702660D02*
X197802500Y-81480660D01*
X197802500Y-90624660D02*
X197802500Y-92402660D01*
X197802500Y-92402660D02*
X196024500Y-92402660D01*
X186880500Y-92402660D02*
X185102500Y-92402660D01*
X185102500Y-92402660D02*
X185102500Y-90624660D01*
X185102500Y-81480660D02*
X185102500Y-79702660D01*
X185102500Y-117802660D02*
X186880500Y-117802660D01*
X196024500Y-117802660D02*
X197802500Y-117802660D01*
X197802500Y-117802660D02*
X197802500Y-119580660D01*
X197802500Y-128724660D02*
X197802500Y-130502660D01*
X197802500Y-130502660D02*
X196024500Y-130502660D01*
X186880500Y-130502660D02*
X185102500Y-130502660D01*
X185102500Y-130502660D02*
X185102500Y-128724660D01*
X185102500Y-119580660D02*
X185102500Y-117802660D01*
X185102500Y-60655200D02*
X186880500Y-60655200D01*
X196024500Y-60655200D02*
X197802500Y-60655200D01*
X197802500Y-60655200D02*
X197802500Y-62433200D01*
X197802500Y-71577200D02*
X197802500Y-73355200D01*
X197802500Y-73355200D02*
X196024500Y-73355200D01*
X186880500Y-73355200D02*
X185102500Y-73355200D01*
X185102500Y-73355200D02*
X185102500Y-71577200D01*
X185102500Y-62433200D02*
X185102500Y-60655200D01*
X185102500Y-98752660D02*
X186880500Y-98752660D01*
X196024500Y-98752660D02*
X197802500Y-98752660D01*
X197802500Y-98752660D02*
X197802500Y-100530660D01*
X197802500Y-109674660D02*
X197802500Y-111452660D01*
X197802500Y-111452660D02*
X196024500Y-111452660D01*
X186880500Y-111452660D02*
X185102500Y-111452660D01*
X185102500Y-111452660D02*
X185102500Y-109674660D01*
X185102500Y-100530660D02*
X185102500Y-98752660D01*
X85090000Y-58750200D02*
X86868000Y-58750200D01*
X96012000Y-58750200D02*
X97790000Y-58750200D01*
X97790000Y-58750200D02*
X97790000Y-60528200D01*
X97790000Y-69672200D02*
X97790000Y-71450200D01*
X97790000Y-71450200D02*
X96012000Y-71450200D01*
X86868000Y-71450200D02*
X85090000Y-71450200D01*
X85090000Y-71450200D02*
X85090000Y-69672200D01*
X85090000Y-60528200D02*
X85090000Y-58750200D01*
X142240000Y-76527660D02*
X144018000Y-76527660D01*
X153162000Y-76527660D02*
X154940000Y-76527660D01*
X154940000Y-76527660D02*
X154940000Y-78305660D01*
X154940000Y-87449660D02*
X154940000Y-89227660D01*
X154940000Y-89227660D02*
X153162000Y-89227660D01*
X144018000Y-89227660D02*
X142240000Y-89227660D01*
X142240000Y-89227660D02*
X142240000Y-87449660D01*
X142240000Y-78305660D02*
X142240000Y-76527660D01*
X60967052Y-169555960D02*
X60215636Y-167944545D01*
X56351215Y-159657267D02*
X55599800Y-158045852D01*
X55599800Y-158045852D02*
X57211215Y-157294436D01*
X65498493Y-153430015D02*
X67109908Y-152678600D01*
X67109908Y-152678600D02*
X67861324Y-154290015D01*
X71725745Y-162577293D02*
X72477160Y-164188708D01*
X72477160Y-164188708D02*
X70865745Y-164940124D01*
X62578467Y-168804545D02*
X60967052Y-169555960D01*
X78231432Y-161504160D02*
X77480016Y-159892745D01*
X73615595Y-151605467D02*
X72864180Y-149994052D01*
X72864180Y-149994052D02*
X74475595Y-149242636D01*
X82762873Y-145378215D02*
X84374288Y-144626800D01*
X84374288Y-144626800D02*
X85125704Y-146238215D01*
X88990125Y-154525493D02*
X89741540Y-156136908D01*
X89741540Y-156136908D02*
X88130125Y-156888324D01*
X79842847Y-160752745D02*
X78231432Y-161504160D01*
X104140000Y-133677660D02*
X105918000Y-133677660D01*
X115062000Y-133677660D02*
X116840000Y-133677660D01*
X116840000Y-133677660D02*
X116840000Y-135455660D01*
X116840000Y-144599660D02*
X116840000Y-146377660D01*
X116840000Y-146377660D02*
X115062000Y-146377660D01*
X105918000Y-146377660D02*
X104140000Y-146377660D01*
X104140000Y-146377660D02*
X104140000Y-144599660D01*
X104140000Y-135455660D02*
X104140000Y-133677660D01*
X123190000Y-132080000D02*
X124968000Y-132080000D01*
X134112000Y-132080000D02*
X135890000Y-132080000D01*
X135890000Y-132080000D02*
X135890000Y-133858000D01*
X135890000Y-143002000D02*
X135890000Y-144780000D01*
X135890000Y-144780000D02*
X134112000Y-144780000D01*
X124968000Y-144780000D02*
X123190000Y-144780000D01*
X123190000Y-144780000D02*
X123190000Y-143002000D01*
X123190000Y-133858000D02*
X123190000Y-132080000D01*
X161290000Y-136852660D02*
X163068000Y-136852660D01*
X172212000Y-136852660D02*
X173990000Y-136852660D01*
X173990000Y-136852660D02*
X173990000Y-138630660D01*
X173990000Y-147774660D02*
X173990000Y-149552660D01*
X173990000Y-149552660D02*
X172212000Y-149552660D01*
X163068000Y-149552660D02*
X161290000Y-149552660D01*
X161290000Y-149552660D02*
X161290000Y-147774660D01*
X161290000Y-138630660D02*
X161290000Y-136852660D01*
X85090000Y-115897660D02*
X86868000Y-115897660D01*
X96012000Y-115897660D02*
X97790000Y-115897660D01*
X97790000Y-115897660D02*
X97790000Y-117675660D01*
X97790000Y-126819660D02*
X97790000Y-128597660D01*
X97790000Y-128597660D02*
X96012000Y-128597660D01*
X86868000Y-128597660D02*
X85090000Y-128597660D01*
X85090000Y-128597660D02*
X85090000Y-126819660D01*
X85090000Y-117675660D02*
X85090000Y-115897660D01*
X104140000Y-114627660D02*
X105918000Y-114627660D01*
X115062000Y-114627660D02*
X116840000Y-114627660D01*
X116840000Y-114627660D02*
X116840000Y-116405660D01*
X116840000Y-125549660D02*
X116840000Y-127327660D01*
X116840000Y-127327660D02*
X115062000Y-127327660D01*
X105918000Y-127327660D02*
X104140000Y-127327660D01*
X104140000Y-127327660D02*
X104140000Y-125549660D01*
X104140000Y-116405660D02*
X104140000Y-114627660D01*
X123190000Y-113030000D02*
X124968000Y-113030000D01*
X134112000Y-113030000D02*
X135890000Y-113030000D01*
X135890000Y-113030000D02*
X135890000Y-114808000D01*
X135890000Y-123952000D02*
X135890000Y-125730000D01*
X135890000Y-125730000D02*
X134112000Y-125730000D01*
X124968000Y-125730000D02*
X123190000Y-125730000D01*
X123190000Y-125730000D02*
X123190000Y-123952000D01*
X123190000Y-114808000D02*
X123190000Y-113030000D01*
X142240000Y-114627660D02*
X144018000Y-114627660D01*
X153162000Y-114627660D02*
X154940000Y-114627660D01*
X154940000Y-114627660D02*
X154940000Y-116405660D01*
X154940000Y-125549660D02*
X154940000Y-127327660D01*
X154940000Y-127327660D02*
X153162000Y-127327660D01*
X144018000Y-127327660D02*
X142240000Y-127327660D01*
X142240000Y-127327660D02*
X142240000Y-125549660D01*
X142240000Y-116405660D02*
X142240000Y-114627660D01*
X161290000Y-117802660D02*
X163068000Y-117802660D01*
X172212000Y-117802660D02*
X173990000Y-117802660D01*
X173990000Y-117802660D02*
X173990000Y-119580660D01*
X173990000Y-128724660D02*
X173990000Y-130502660D01*
X173990000Y-130502660D02*
X172212000Y-130502660D01*
X163068000Y-130502660D02*
X161290000Y-130502660D01*
X161290000Y-130502660D02*
X161290000Y-128724660D01*
X161290000Y-119580660D02*
X161290000Y-117802660D01*
X85090000Y-96847660D02*
X86868000Y-96847660D01*
X96012000Y-96847660D02*
X97790000Y-96847660D01*
X97790000Y-96847660D02*
X97790000Y-98625660D01*
X97790000Y-107769660D02*
X97790000Y-109547660D01*
X97790000Y-109547660D02*
X96012000Y-109547660D01*
X86868000Y-109547660D02*
X85090000Y-109547660D01*
X85090000Y-109547660D02*
X85090000Y-107769660D01*
X85090000Y-98625660D02*
X85090000Y-96847660D01*
X104140000Y-95577660D02*
X105918000Y-95577660D01*
X115062000Y-95577660D02*
X116840000Y-95577660D01*
X116840000Y-95577660D02*
X116840000Y-97355660D01*
X116840000Y-106499660D02*
X116840000Y-108277660D01*
X116840000Y-108277660D02*
X115062000Y-108277660D01*
X105918000Y-108277660D02*
X104140000Y-108277660D01*
X104140000Y-108277660D02*
X104140000Y-106499660D01*
X104140000Y-97355660D02*
X104140000Y-95577660D01*
X123190000Y-93980000D02*
X124968000Y-93980000D01*
X134112000Y-93980000D02*
X135890000Y-93980000D01*
X135890000Y-93980000D02*
X135890000Y-95758000D01*
X135890000Y-104902000D02*
X135890000Y-106680000D01*
X135890000Y-106680000D02*
X134112000Y-106680000D01*
X124968000Y-106680000D02*
X123190000Y-106680000D01*
X123190000Y-106680000D02*
X123190000Y-104902000D01*
X123190000Y-95758000D02*
X123190000Y-93980000D01*
X142240000Y-95577660D02*
X144018000Y-95577660D01*
X153162000Y-95577660D02*
X154940000Y-95577660D01*
X154940000Y-95577660D02*
X154940000Y-97355660D01*
X154940000Y-106499660D02*
X154940000Y-108277660D01*
X154940000Y-108277660D02*
X153162000Y-108277660D01*
X144018000Y-108277660D02*
X142240000Y-108277660D01*
X142240000Y-108277660D02*
X142240000Y-106499660D01*
X142240000Y-97355660D02*
X142240000Y-95577660D01*
X104140000Y-76527660D02*
X105918000Y-76527660D01*
X115062000Y-76527660D02*
X116840000Y-76527660D01*
X116840000Y-76527660D02*
X116840000Y-78305660D01*
X116840000Y-87449660D02*
X116840000Y-89227660D01*
X116840000Y-89227660D02*
X115062000Y-89227660D01*
X105918000Y-89227660D02*
X104140000Y-89227660D01*
X104140000Y-89227660D02*
X104140000Y-87449660D01*
X104140000Y-78305660D02*
X104140000Y-76527660D01*
X123190000Y-74930000D02*
X124968000Y-74930000D01*
X134112000Y-74930000D02*
X135890000Y-74930000D01*
X135890000Y-74930000D02*
X135890000Y-76708000D01*
X135890000Y-85852000D02*
X135890000Y-87630000D01*
X135890000Y-87630000D02*
X134112000Y-87630000D01*
X124968000Y-87630000D02*
X123190000Y-87630000D01*
X123190000Y-87630000D02*
X123190000Y-85852000D01*
X123190000Y-76708000D02*
X123190000Y-74930000D01*
X161290000Y-79702660D02*
X163068000Y-79702660D01*
X172212000Y-79702660D02*
X173990000Y-79702660D01*
X173990000Y-79702660D02*
X173990000Y-81480660D01*
X173990000Y-90624660D02*
X173990000Y-92402660D01*
X173990000Y-92402660D02*
X172212000Y-92402660D01*
X163068000Y-92402660D02*
X161290000Y-92402660D01*
X161290000Y-92402660D02*
X161290000Y-90624660D01*
X161290000Y-81480660D02*
X161290000Y-79702660D01*
X142240000Y-133677660D02*
X144018000Y-133677660D01*
X153162000Y-133677660D02*
X154940000Y-133677660D01*
X154940000Y-133677660D02*
X154940000Y-135455660D01*
X154940000Y-144599660D02*
X154940000Y-146377660D01*
X154940000Y-146377660D02*
X153162000Y-146377660D01*
X144018000Y-146377660D02*
X142240000Y-146377660D01*
X142240000Y-146377660D02*
X142240000Y-144599660D01*
X142240000Y-135455660D02*
X142240000Y-133677660D01*
X104140000Y-57477660D02*
X105918000Y-57477660D01*
X115062000Y-57477660D02*
X116840000Y-57477660D01*
X116840000Y-57477660D02*
X116840000Y-59255660D01*
X116840000Y-68399660D02*
X116840000Y-70177660D01*
X116840000Y-70177660D02*
X115062000Y-70177660D01*
X105918000Y-70177660D02*
X104140000Y-70177660D01*
X104140000Y-70177660D02*
X104140000Y-68399660D01*
X104140000Y-59255660D02*
X104140000Y-57477660D01*
X123190000Y-55880000D02*
X124968000Y-55880000D01*
X134112000Y-55880000D02*
X135890000Y-55880000D01*
X135890000Y-55880000D02*
X135890000Y-57658000D01*
X135890000Y-66802000D02*
X135890000Y-68580000D01*
X135890000Y-68580000D02*
X134112000Y-68580000D01*
X124968000Y-68580000D02*
X123190000Y-68580000D01*
X123190000Y-68580000D02*
X123190000Y-66802000D01*
X123190000Y-57658000D02*
X123190000Y-55880000D01*
X142240000Y-57477660D02*
X144018000Y-57477660D01*
X153162000Y-57477660D02*
X154940000Y-57477660D01*
X154940000Y-57477660D02*
X154940000Y-59255660D01*
X154940000Y-68399660D02*
X154940000Y-70177660D01*
X154940000Y-70177660D02*
X153162000Y-70177660D01*
X144018000Y-70177660D02*
X142240000Y-70177660D01*
X142240000Y-70177660D02*
X142240000Y-68399660D01*
X142240000Y-59255660D02*
X142240000Y-57477660D01*
X161290000Y-60655200D02*
X163068000Y-60655200D01*
X172212000Y-60655200D02*
X173990000Y-60655200D01*
X173990000Y-60655200D02*
X173990000Y-62433200D01*
X173990000Y-71577200D02*
X173990000Y-73355200D01*
X173990000Y-73355200D02*
X172212000Y-73355200D01*
X163068000Y-73355200D02*
X161290000Y-73355200D01*
X161290000Y-73355200D02*
X161290000Y-71577200D01*
X161290000Y-62433200D02*
X161290000Y-60655200D01*
X43524640Y-132148012D02*
X45136055Y-131396596D01*
X53423333Y-127532175D02*
X55034748Y-126780760D01*
X55034748Y-126780760D02*
X55786164Y-128392175D01*
X59650585Y-136679453D02*
X60402000Y-138290868D01*
X60402000Y-138290868D02*
X58790585Y-139042284D01*
X50503307Y-142906705D02*
X48891892Y-143658120D01*
X48891892Y-143658120D02*
X48140476Y-142046705D01*
X44276055Y-133759427D02*
X43524640Y-132148012D01*
X26260260Y-140197272D02*
X27871675Y-139445856D01*
X36158953Y-135581435D02*
X37770368Y-134830020D01*
X37770368Y-134830020D02*
X38521784Y-136441435D01*
X42386205Y-144728713D02*
X43137620Y-146340128D01*
X43137620Y-146340128D02*
X41526205Y-147091544D01*
X33238927Y-150955965D02*
X31627512Y-151707380D01*
X31627512Y-151707380D02*
X30876096Y-150095965D01*
X27011675Y-141808687D02*
X26260260Y-140197272D01*
X42361320Y-174728572D02*
X43972735Y-173977156D01*
X52260013Y-170112735D02*
X53871428Y-169361320D01*
X53871428Y-169361320D02*
X54622844Y-170972735D01*
X58487265Y-179260013D02*
X59238680Y-180871428D01*
X59238680Y-180871428D02*
X57627265Y-181622844D01*
X49339987Y-185487265D02*
X47728572Y-186238680D01*
X47728572Y-186238680D02*
X46977156Y-184627265D01*
X43112735Y-176339987D02*
X42361320Y-174728572D01*
X34309520Y-157461652D02*
X35920935Y-156710236D01*
X44208213Y-152845815D02*
X45819628Y-152094400D01*
X45819628Y-152094400D02*
X46571044Y-153705815D01*
X50435465Y-161993093D02*
X51186880Y-163604508D01*
X51186880Y-163604508D02*
X49575465Y-164355924D01*
X41288187Y-168220345D02*
X39676772Y-168971760D01*
X39676772Y-168971760D02*
X38925356Y-167360345D01*
X35060935Y-159073067D02*
X34309520Y-157461652D01*
X85090000Y-77797660D02*
X86868000Y-77797660D01*
X96012000Y-77797660D02*
X97790000Y-77797660D01*
X97790000Y-77797660D02*
X97790000Y-79575660D01*
X97790000Y-88719660D02*
X97790000Y-90497660D01*
X97790000Y-90497660D02*
X96012000Y-90497660D01*
X86868000Y-90497660D02*
X85090000Y-90497660D01*
X85090000Y-90497660D02*
X85090000Y-88719660D01*
X85090000Y-79575660D02*
X85090000Y-77797660D01*
X180340000Y-136852660D02*
X182118000Y-136852660D01*
X191262000Y-136852660D02*
X193040000Y-136852660D01*
X193040000Y-136852660D02*
X193040000Y-138630660D01*
X193040000Y-147774660D02*
X193040000Y-149552660D01*
X193040000Y-149552660D02*
X191262000Y-149552660D01*
X182118000Y-149552660D02*
X180340000Y-149552660D01*
X180340000Y-149552660D02*
X180340000Y-147774660D01*
X180340000Y-138630660D02*
X180340000Y-136852660D01*
X66040000Y-123835160D02*
X66040000Y-122057160D01*
X66040000Y-112913160D02*
X66040000Y-111135160D01*
X66040000Y-111135160D02*
X67818000Y-111135160D01*
X76962000Y-111135160D02*
X78740000Y-111135160D01*
X78740000Y-111135160D02*
X78740000Y-112913160D01*
X78740000Y-122057160D02*
X78740000Y-123835160D01*
X78740000Y-123835160D02*
X76962000Y-123835160D01*
X67818000Y-123835160D02*
X66040000Y-123835160D01*
X66040000Y-95260160D02*
X66040000Y-93482160D01*
X66040000Y-84338160D02*
X66040000Y-82560160D01*
X66040000Y-82560160D02*
X67818000Y-82560160D01*
X76962000Y-82560160D02*
X78740000Y-82560160D01*
X78740000Y-82560160D02*
X78740000Y-84338160D01*
X78740000Y-93482160D02*
X78740000Y-95260160D01*
X78740000Y-95260160D02*
X76962000Y-95260160D01*
X67818000Y-95260160D02*
X66040000Y-95260160D01*
X66040000Y-58750200D02*
X67818000Y-58750200D01*
X76962000Y-58750200D02*
X78740000Y-58750200D01*
X78740000Y-58750200D02*
X78740000Y-60528200D01*
X78740000Y-69672200D02*
X78740000Y-71450200D01*
X78740000Y-71450200D02*
X76962000Y-71450200D01*
X67818000Y-71450200D02*
X66040000Y-71450200D01*
X66040000Y-71450200D02*
X66040000Y-69672200D01*
X66040000Y-60528200D02*
X66040000Y-58750200D01*
X161290000Y-98752660D02*
X163068000Y-98752660D01*
X172212000Y-98752660D02*
X173990000Y-98752660D01*
X173990000Y-98752660D02*
X173990000Y-100530660D01*
X173990000Y-109674660D02*
X173990000Y-111452660D01*
X173990000Y-111452660D02*
X172212000Y-111452660D01*
X163068000Y-111452660D02*
X161290000Y-111452660D01*
X161290000Y-111452660D02*
X161290000Y-109674660D01*
X161290000Y-100530660D02*
X161290000Y-98752660D01*
D10*
X195900000Y-43100000D02*
X195600000Y-43100000D01*
X195900000Y-39800000D02*
X195900000Y-43100000D01*
X195600000Y-39800000D02*
X195900000Y-39800000D01*
X193100000Y-43100000D02*
X193400000Y-43100000D01*
X193100000Y-39800000D02*
X193100000Y-43100000D01*
X193400000Y-39800000D02*
X193100000Y-39800000D01*
X195250000Y-41450000D02*
G75*
G03X195250000Y-41450000I-750000J0D01*
G01*
D11*
X135398933Y-32046333D02*
X135398933Y-33485666D01*
X135483600Y-33655000D01*
X135568266Y-33739666D01*
X135737600Y-33824333D01*
X136076266Y-33824333D01*
X136245600Y-33739666D01*
X136330266Y-33655000D01*
X136414933Y-33485666D01*
X136414933Y-32046333D01*
X137176933Y-33739666D02*
X137430933Y-33824333D01*
X137854266Y-33824333D01*
X138023600Y-33739666D01*
X138108266Y-33655000D01*
X138192933Y-33485666D01*
X138192933Y-33316333D01*
X138108266Y-33147000D01*
X138023600Y-33062333D01*
X137854266Y-32977666D01*
X137515600Y-32893000D01*
X137346266Y-32808333D01*
X137261600Y-32723666D01*
X137176933Y-32554333D01*
X137176933Y-32385000D01*
X137261600Y-32215666D01*
X137346266Y-32131000D01*
X137515600Y-32046333D01*
X137938933Y-32046333D01*
X138192933Y-32131000D01*
X139547600Y-32893000D02*
X139801600Y-32977666D01*
X139886266Y-33062333D01*
X139970933Y-33231666D01*
X139970933Y-33485666D01*
X139886266Y-33655000D01*
X139801600Y-33739666D01*
X139632266Y-33824333D01*
X138954933Y-33824333D01*
X138954933Y-32046333D01*
X139547600Y-32046333D01*
X139716933Y-32131000D01*
X139801600Y-32215666D01*
X139886266Y-32385000D01*
X139886266Y-32554333D01*
X139801600Y-32723666D01*
X139716933Y-32808333D01*
X139547600Y-32893000D01*
X138954933Y-32893000D01*
D16*
X165393809Y-39940857D02*
X166845238Y-39940857D01*
X166119523Y-42988857D02*
X166119523Y-39940857D01*
X167691904Y-41392285D02*
X168538571Y-41392285D01*
X168901428Y-42988857D02*
X167691904Y-42988857D01*
X167691904Y-39940857D01*
X168901428Y-39940857D01*
X169990000Y-41392285D02*
X170836666Y-41392285D01*
X171199523Y-42988857D02*
X169990000Y-42988857D01*
X169990000Y-39940857D01*
X171199523Y-39940857D01*
X172288095Y-42988857D02*
X172288095Y-39940857D01*
X173739523Y-42988857D01*
X173739523Y-39940857D01*
X174828095Y-42843714D02*
X175190952Y-42988857D01*
X175795714Y-42988857D01*
X176037619Y-42843714D01*
X176158571Y-42698571D01*
X176279523Y-42408285D01*
X176279523Y-42118000D01*
X176158571Y-41827714D01*
X176037619Y-41682571D01*
X175795714Y-41537428D01*
X175311904Y-41392285D01*
X175070000Y-41247142D01*
X174949047Y-41102000D01*
X174828095Y-40811714D01*
X174828095Y-40521428D01*
X174949047Y-40231142D01*
X175070000Y-40086000D01*
X175311904Y-39940857D01*
X175916666Y-39940857D01*
X176279523Y-40086000D01*
X177851904Y-41537428D02*
X177851904Y-42988857D01*
X177005238Y-39940857D02*
X177851904Y-41537428D01*
X178698571Y-39940857D01*
X179424285Y-40231142D02*
X179545238Y-40086000D01*
X179787142Y-39940857D01*
X180391904Y-39940857D01*
X180633809Y-40086000D01*
X180754761Y-40231142D01*
X180875714Y-40521428D01*
X180875714Y-40811714D01*
X180754761Y-41247142D01*
X179303333Y-42988857D01*
X180875714Y-42988857D01*
X181964285Y-42698571D02*
X182085238Y-42843714D01*
X181964285Y-42988857D01*
X181843333Y-42843714D01*
X181964285Y-42698571D01*
X181964285Y-42988857D01*
X183657619Y-39940857D02*
X183899523Y-39940857D01*
X184141428Y-40086000D01*
X184262380Y-40231142D01*
X184383333Y-40521428D01*
X184504285Y-41102000D01*
X184504285Y-41827714D01*
X184383333Y-42408285D01*
X184262380Y-42698571D01*
X184141428Y-42843714D01*
X183899523Y-42988857D01*
X183657619Y-42988857D01*
X183415714Y-42843714D01*
X183294761Y-42698571D01*
X183173809Y-42408285D01*
X183052857Y-41827714D01*
X183052857Y-41102000D01*
X183173809Y-40521428D01*
X183294761Y-40231142D01*
X183415714Y-40086000D01*
X183657619Y-39940857D01*
D17*
X83296880Y-119118017D02*
X83296880Y-119843731D01*
X81645880Y-119843731D01*
X82432071Y-118610017D02*
X82432071Y-118102017D01*
X83296880Y-117884302D02*
X83296880Y-118610017D01*
X81645880Y-118610017D01*
X81645880Y-117884302D01*
X83296880Y-117231160D02*
X81645880Y-117231160D01*
X81645880Y-116868302D01*
X81724500Y-116650588D01*
X81881738Y-116505445D01*
X82038976Y-116432874D01*
X82353452Y-116360302D01*
X82589309Y-116360302D01*
X82903785Y-116432874D01*
X83061023Y-116505445D01*
X83218261Y-116650588D01*
X83296880Y-116868302D01*
X83296880Y-117231160D01*
X83218261Y-115054017D02*
X83296880Y-115199160D01*
X83296880Y-115489445D01*
X83218261Y-115634588D01*
X83139642Y-115707160D01*
X82982404Y-115779731D01*
X82510690Y-115779731D01*
X82353452Y-115707160D01*
X82274833Y-115634588D01*
X82196214Y-115489445D01*
X82196214Y-115199160D01*
X82274833Y-115054017D01*
X83296880Y-90579302D02*
X83296880Y-91305017D01*
X81645880Y-91305017D01*
X82432071Y-90071302D02*
X82432071Y-89563302D01*
X83296880Y-89345588D02*
X83296880Y-90071302D01*
X81645880Y-90071302D01*
X81645880Y-89345588D01*
X83296880Y-88692445D02*
X81645880Y-88692445D01*
X81645880Y-88329588D01*
X81724500Y-88111874D01*
X81881738Y-87966731D01*
X82038976Y-87894160D01*
X82353452Y-87821588D01*
X82589309Y-87821588D01*
X82903785Y-87894160D01*
X83061023Y-87966731D01*
X83218261Y-88111874D01*
X83296880Y-88329588D01*
X83296880Y-88692445D01*
X83296880Y-87168445D02*
X81645880Y-87168445D01*
X82274833Y-87168445D02*
X82196214Y-87023302D01*
X82196214Y-86733017D01*
X82274833Y-86587874D01*
X82353452Y-86515302D01*
X82510690Y-86442731D01*
X82982404Y-86442731D01*
X83139642Y-86515302D01*
X83218261Y-86587874D01*
X83296880Y-86733017D01*
X83296880Y-87023302D01*
X83218261Y-87168445D01*
X70720857Y-76007080D02*
X69995142Y-76007080D01*
X69995142Y-74356080D01*
X71228857Y-75142271D02*
X71736857Y-75142271D01*
X71954571Y-76007080D02*
X71228857Y-76007080D01*
X71228857Y-74356080D01*
X71954571Y-74356080D01*
X72607714Y-76007080D02*
X72607714Y-74356080D01*
X72970571Y-74356080D01*
X73188285Y-74434700D01*
X73333428Y-74591938D01*
X73406000Y-74749176D01*
X73478571Y-75063652D01*
X73478571Y-75299509D01*
X73406000Y-75613985D01*
X73333428Y-75771223D01*
X73188285Y-75928461D01*
X72970571Y-76007080D01*
X72607714Y-76007080D01*
X74784857Y-76007080D02*
X74784857Y-75142271D01*
X74712285Y-74985033D01*
X74567142Y-74906414D01*
X74276857Y-74906414D01*
X74131714Y-74985033D01*
X74784857Y-75928461D02*
X74639714Y-76007080D01*
X74276857Y-76007080D01*
X74131714Y-75928461D01*
X74059142Y-75771223D01*
X74059142Y-75613985D01*
X74131714Y-75456747D01*
X74276857Y-75378128D01*
X74639714Y-75378128D01*
X74784857Y-75299509D01*
X75789584Y-149450759D02*
X76050456Y-149409186D01*
X76434127Y-149230277D01*
X76556925Y-149092942D01*
X76602989Y-148991388D01*
X76618383Y-148824062D01*
X76557043Y-148692518D01*
X76418969Y-148596756D01*
X76311565Y-148566766D01*
X76127427Y-148572557D01*
X75789820Y-148649912D01*
X75605682Y-148655703D01*
X75498278Y-148625713D01*
X75360204Y-148529950D01*
X75298864Y-148398406D01*
X75314258Y-148231080D01*
X75360322Y-148129526D01*
X75483120Y-147992191D01*
X75866790Y-147813283D01*
X76127663Y-147771710D01*
X76634131Y-147455466D02*
X78352478Y-148335735D01*
X77708408Y-146954522D02*
X77278201Y-148836679D01*
X79810425Y-147655884D02*
X78889617Y-148085264D01*
X79350021Y-147870574D02*
X78705951Y-146489361D01*
X78644493Y-146758240D01*
X78552364Y-146961347D01*
X78429566Y-147098683D01*
X80439692Y-147202304D02*
X80547096Y-147232295D01*
X80501032Y-147333848D01*
X80393628Y-147303858D01*
X80439692Y-147202304D01*
X80501032Y-147333848D01*
X80102322Y-146478812D02*
X80209726Y-146508802D01*
X80163662Y-146610356D01*
X80056258Y-146580365D01*
X80102322Y-146478812D01*
X80163662Y-146610356D01*
X81130534Y-146079422D02*
X80946396Y-146085213D01*
X80838992Y-146055223D01*
X80700918Y-145959460D01*
X80670248Y-145893688D01*
X80685642Y-145726363D01*
X80731706Y-145624809D01*
X80854504Y-145487473D01*
X81161441Y-145344347D01*
X81345579Y-145338555D01*
X81452983Y-145368546D01*
X81591057Y-145464308D01*
X81621727Y-145530080D01*
X81606333Y-145697406D01*
X81560269Y-145798960D01*
X81437471Y-145936295D01*
X81130534Y-146079422D01*
X81007736Y-146216757D01*
X80961672Y-146318311D01*
X80946278Y-146485637D01*
X81068958Y-146748725D01*
X81207032Y-146844487D01*
X81314436Y-146874478D01*
X81498575Y-146868687D01*
X81805511Y-146725560D01*
X81928309Y-146588224D01*
X81974373Y-146486671D01*
X81989767Y-146319345D01*
X81867087Y-146056257D01*
X81729013Y-145960494D01*
X81621609Y-145930504D01*
X81437471Y-145936295D01*
X58525204Y-157502559D02*
X58786076Y-157460986D01*
X59169747Y-157282077D01*
X59292545Y-157144742D01*
X59338609Y-157043188D01*
X59354003Y-156875862D01*
X59292663Y-156744318D01*
X59154589Y-156648556D01*
X59047185Y-156618566D01*
X58863047Y-156624357D01*
X58525440Y-156701712D01*
X58341302Y-156707503D01*
X58233898Y-156677513D01*
X58095824Y-156581750D01*
X58034484Y-156450206D01*
X58049878Y-156282880D01*
X58095942Y-156181326D01*
X58218740Y-156043991D01*
X58602410Y-155865083D01*
X58863283Y-155823510D01*
X59369751Y-155507266D02*
X61088098Y-156387535D01*
X60444028Y-155006322D02*
X60013821Y-156888479D01*
X62546045Y-155707684D02*
X61625237Y-156137064D01*
X62085641Y-155922374D02*
X61441571Y-154541161D01*
X61380113Y-154810040D01*
X61287984Y-155013147D01*
X61165186Y-155150483D01*
X63175312Y-155254104D02*
X63282716Y-155284095D01*
X63236652Y-155385648D01*
X63129248Y-155355658D01*
X63175312Y-155254104D01*
X63236652Y-155385648D01*
X62837942Y-154530612D02*
X62945346Y-154560602D01*
X62899282Y-154662156D01*
X62791878Y-154632165D01*
X62837942Y-154530612D01*
X62899282Y-154662156D01*
X63206454Y-153718182D02*
X64280731Y-153217238D01*
X64234195Y-154920487D01*
X80283072Y-161090240D02*
X80543944Y-161048667D01*
X80927614Y-160869758D01*
X81050412Y-160732423D01*
X81096476Y-160630869D01*
X81111870Y-160463543D01*
X81050530Y-160331999D01*
X80912456Y-160236237D01*
X80805052Y-160206246D01*
X80620914Y-160212038D01*
X80283308Y-160289392D01*
X80099170Y-160295184D01*
X79991765Y-160265193D01*
X79853691Y-160169431D01*
X79792351Y-160037887D01*
X79807745Y-159870561D01*
X79853809Y-159769007D01*
X79976608Y-159631672D01*
X80360278Y-159452763D01*
X80621150Y-159411190D01*
X81127618Y-159094947D02*
X82845966Y-159975216D01*
X82201895Y-158594003D02*
X81771689Y-160476160D01*
X83122704Y-158164623D02*
X83276172Y-158093060D01*
X83460310Y-158087268D01*
X83567714Y-158117259D01*
X83705788Y-158213021D01*
X83905203Y-158440328D01*
X84058553Y-158769188D01*
X84104499Y-159068058D01*
X84089105Y-159235384D01*
X84043040Y-159336937D01*
X83920242Y-159474273D01*
X83766774Y-159545836D01*
X83582636Y-159551627D01*
X83475232Y-159521637D01*
X83337158Y-159425875D01*
X83137744Y-159198568D01*
X82984394Y-158869708D01*
X82938448Y-158570838D01*
X82953842Y-158403512D01*
X82999906Y-158301958D01*
X83122704Y-158164623D01*
X84933179Y-158841785D02*
X85040583Y-158871775D01*
X84994519Y-158973329D01*
X84887115Y-158943339D01*
X84933179Y-158841785D01*
X84994519Y-158973329D01*
X84595809Y-158118293D02*
X84703213Y-158148283D01*
X84657149Y-158249837D01*
X84549745Y-158219846D01*
X84595809Y-158118293D01*
X84657149Y-158249837D01*
X86605934Y-158221914D02*
X85685126Y-158651294D01*
X86145530Y-158436604D02*
X85501460Y-157055391D01*
X85440002Y-157324270D01*
X85347874Y-157527378D01*
X85225076Y-157664713D01*
X86959407Y-156375539D02*
X87112875Y-156303976D01*
X87297013Y-156298184D01*
X87404417Y-156328175D01*
X87542491Y-156423937D01*
X87741905Y-156651244D01*
X87895256Y-156980104D01*
X87941202Y-157278974D01*
X87925807Y-157446300D01*
X87879743Y-157547853D01*
X87756945Y-157685189D01*
X87603477Y-157756752D01*
X87419339Y-157762543D01*
X87311935Y-157732553D01*
X87173861Y-157636791D01*
X86974447Y-157409484D01*
X86821097Y-157080624D01*
X86775151Y-156781754D01*
X86790545Y-156614428D01*
X86836609Y-156512874D01*
X86959407Y-156375539D01*
X63016152Y-169139500D02*
X63277024Y-169097927D01*
X63660694Y-168919018D01*
X63783492Y-168781683D01*
X63829556Y-168680129D01*
X63844950Y-168512803D01*
X63783610Y-168381259D01*
X63645536Y-168285497D01*
X63538132Y-168255506D01*
X63353994Y-168261298D01*
X63016388Y-168338652D01*
X62832250Y-168344444D01*
X62724845Y-168314453D01*
X62586771Y-168218691D01*
X62525431Y-168087147D01*
X62540825Y-167919821D01*
X62586889Y-167818267D01*
X62709688Y-167680932D01*
X63093358Y-167502023D01*
X63354230Y-167460450D01*
X63860698Y-167144207D02*
X65579046Y-168024476D01*
X64934975Y-166643263D02*
X64504769Y-168525420D01*
X65855784Y-166213883D02*
X66009252Y-166142320D01*
X66193390Y-166136528D01*
X66300794Y-166166519D01*
X66438868Y-166262281D01*
X66638283Y-166489588D01*
X66791633Y-166818448D01*
X66837579Y-167117318D01*
X66822185Y-167284644D01*
X66776120Y-167386197D01*
X66653322Y-167523533D01*
X66499854Y-167595096D01*
X66315716Y-167600887D01*
X66208312Y-167570897D01*
X66070238Y-167475135D01*
X65870824Y-167247828D01*
X65717474Y-166918968D01*
X65671528Y-166620098D01*
X65686922Y-166452772D01*
X65732986Y-166351218D01*
X65855784Y-166213883D01*
X67666259Y-166891045D02*
X67773663Y-166921035D01*
X67727599Y-167022589D01*
X67620195Y-166992599D01*
X67666259Y-166891045D01*
X67727599Y-167022589D01*
X67328889Y-166167553D02*
X67436293Y-166197543D01*
X67390229Y-166299097D01*
X67282825Y-166269106D01*
X67328889Y-166167553D01*
X67390229Y-166299097D01*
X69339014Y-166271174D02*
X68418206Y-166700554D01*
X68878610Y-166485864D02*
X68234540Y-165104651D01*
X68173082Y-165373530D01*
X68080954Y-165576638D01*
X67958156Y-165713973D01*
X70873696Y-165555540D02*
X69952887Y-165984920D01*
X70413291Y-165770230D02*
X69769221Y-164389017D01*
X69707763Y-164657897D01*
X69615635Y-164861004D01*
X69492837Y-164998340D01*
D12*
X148526908Y-46595591D02*
X148184803Y-46937696D01*
X147286777Y-46039670D01*
X148295987Y-45885723D02*
X148535460Y-45646249D01*
X149108486Y-46014012D02*
X148766381Y-46356117D01*
X147868356Y-45458092D01*
X148210461Y-45115987D01*
X149416381Y-45706118D02*
X148518355Y-44808092D01*
X148689408Y-44637040D01*
X148834802Y-44577171D01*
X148988749Y-44594276D01*
X149108486Y-44645592D01*
X149313749Y-44782434D01*
X149442039Y-44910724D01*
X149578881Y-45115987D01*
X149630196Y-45235723D01*
X149647302Y-45389671D01*
X149587433Y-45535065D01*
X149416381Y-45706118D01*
X150442696Y-44679803D02*
X149972301Y-44209408D01*
X149852565Y-44158093D01*
X149741380Y-44183750D01*
X149604538Y-44320592D01*
X149578881Y-44431777D01*
X150399933Y-44637040D02*
X150374275Y-44748224D01*
X150203222Y-44919276D01*
X150092038Y-44944934D01*
X149972301Y-44893618D01*
X149886775Y-44808092D01*
X149835459Y-44688355D01*
X149861117Y-44577171D01*
X150032170Y-44406119D01*
X150057828Y-44294935D01*
X146621908Y-44690591D02*
X146279803Y-45032696D01*
X145381777Y-44134670D01*
X146390987Y-43980723D02*
X146630460Y-43741249D01*
X147203486Y-44109012D02*
X146861381Y-44451117D01*
X145963356Y-43553092D01*
X146305461Y-43210987D01*
X147511381Y-43801118D02*
X146613355Y-42903092D01*
X146784408Y-42732040D01*
X146929802Y-42672171D01*
X147083749Y-42689276D01*
X147203486Y-42740592D01*
X147408749Y-42877434D01*
X147537039Y-43005724D01*
X147673881Y-43210987D01*
X147725196Y-43330723D01*
X147742302Y-43484671D01*
X147682433Y-43630065D01*
X147511381Y-43801118D01*
X148229801Y-43082697D02*
X147331776Y-42184672D01*
X147673881Y-42526777D02*
X147699538Y-42415592D01*
X147836380Y-42278750D01*
X147947565Y-42253093D01*
X148024538Y-42261645D01*
X148144275Y-42312961D01*
X148400854Y-42569540D01*
X148452169Y-42689276D01*
X148460722Y-42766250D01*
X148435064Y-42877434D01*
X148298222Y-43014276D01*
X148187038Y-43039934D01*
X124323928Y-47564523D02*
X123840119Y-47564523D01*
X123840119Y-46294523D01*
X124662595Y-46899285D02*
X125001261Y-46899285D01*
X125146404Y-47564523D02*
X124662595Y-47564523D01*
X124662595Y-46294523D01*
X125146404Y-46294523D01*
X125581833Y-47564523D02*
X125581833Y-46294523D01*
X125823738Y-46294523D01*
X125968880Y-46355000D01*
X126065642Y-46475952D01*
X126114023Y-46596904D01*
X126162404Y-46838809D01*
X126162404Y-47020238D01*
X126114023Y-47262142D01*
X126065642Y-47383095D01*
X125968880Y-47504047D01*
X125823738Y-47564523D01*
X125581833Y-47564523D01*
X127033261Y-47504047D02*
X126936500Y-47564523D01*
X126742976Y-47564523D01*
X126646214Y-47504047D01*
X126597833Y-47443571D01*
X126549452Y-47322619D01*
X126549452Y-46959761D01*
X126597833Y-46838809D01*
X126646214Y-46778333D01*
X126742976Y-46717857D01*
X126936500Y-46717857D01*
X127033261Y-46778333D01*
X104396513Y-38496514D02*
X104473487Y-38487961D01*
X104584671Y-38513619D01*
X104755724Y-38684672D01*
X104781382Y-38795856D01*
X104772829Y-38872830D01*
X104721513Y-38992566D01*
X104635987Y-39078093D01*
X104473487Y-39172171D01*
X103549804Y-39274803D01*
X103994540Y-39719539D01*
X104387961Y-39941908D02*
X104379408Y-40018881D01*
X104302435Y-40027434D01*
X104310987Y-39950460D01*
X104387961Y-39941908D01*
X104302435Y-40027434D01*
X105422828Y-39522829D02*
X105499802Y-39514276D01*
X105610986Y-39539934D01*
X105782039Y-39710987D01*
X105807697Y-39822171D01*
X105799144Y-39899145D01*
X105747828Y-40018881D01*
X105662302Y-40104408D01*
X105499802Y-40198486D01*
X104576119Y-40301118D01*
X105020855Y-40745854D01*
X105328750Y-41053749D02*
X106226775Y-40155723D01*
X105739276Y-40780065D02*
X105602434Y-41327433D01*
X106201117Y-40728749D02*
X105585328Y-40797170D01*
X105876118Y-41601117D02*
X106047170Y-41772169D01*
X106218223Y-41601117D01*
X106192565Y-41489933D01*
X106209670Y-41335986D01*
X106303749Y-41173486D01*
X106517564Y-40959670D01*
X106680064Y-40865591D01*
X106834012Y-40848486D01*
X106979406Y-40908354D01*
X107116248Y-41045196D01*
X107176117Y-41190591D01*
X107159011Y-41344538D01*
X107064932Y-41507038D01*
X106851117Y-41720854D01*
X106688617Y-41814933D01*
X106534670Y-41832038D01*
X106423486Y-41806380D01*
X106252433Y-41977432D01*
X106423486Y-42148485D01*
X101221513Y-39766514D02*
X101298487Y-39757961D01*
X101409671Y-39783619D01*
X101580724Y-39954672D01*
X101606382Y-40065856D01*
X101597829Y-40142830D01*
X101546513Y-40262566D01*
X101460987Y-40348093D01*
X101298487Y-40442171D01*
X100374804Y-40544803D01*
X100819540Y-40989539D01*
X101212961Y-41211908D02*
X101204408Y-41288881D01*
X101127435Y-41297434D01*
X101135987Y-41220460D01*
X101212961Y-41211908D01*
X101127435Y-41297434D01*
X102247828Y-40792829D02*
X102324802Y-40784276D01*
X102435986Y-40809934D01*
X102607039Y-40980987D01*
X102632697Y-41092171D01*
X102624144Y-41169145D01*
X102572828Y-41288881D01*
X102487302Y-41374408D01*
X102324802Y-41468486D01*
X101401119Y-41571118D01*
X101845855Y-42015854D01*
X102153750Y-42323749D02*
X103051775Y-41425723D01*
X102564276Y-42050065D02*
X102427434Y-42597433D01*
X103026117Y-41998749D02*
X102410328Y-42067170D01*
X102701118Y-42871117D02*
X102872170Y-43042169D01*
X103043223Y-42871117D01*
X103017565Y-42759933D01*
X103034670Y-42605986D01*
X103128749Y-42443486D01*
X103342564Y-42229670D01*
X103505064Y-42135591D01*
X103659012Y-42118486D01*
X103804406Y-42178354D01*
X103941248Y-42315196D01*
X104001117Y-42460591D01*
X103984011Y-42614538D01*
X103889932Y-42777038D01*
X103676117Y-42990854D01*
X103513617Y-43084933D01*
X103359670Y-43102038D01*
X103248486Y-43076380D01*
X103077433Y-43247432D01*
X103248486Y-43418485D01*
D11*
X82075866Y-35360428D02*
X83176533Y-35360428D01*
X82583866Y-35941000D01*
X82837866Y-35941000D01*
X83007200Y-36013571D01*
X83091866Y-36086142D01*
X83176533Y-36231285D01*
X83176533Y-36594142D01*
X83091866Y-36739285D01*
X83007200Y-36811857D01*
X82837866Y-36884428D01*
X82329866Y-36884428D01*
X82160533Y-36811857D01*
X82075866Y-36739285D01*
X83938533Y-36739285D02*
X84023200Y-36811857D01*
X83938533Y-36884428D01*
X83853866Y-36811857D01*
X83938533Y-36739285D01*
X83938533Y-36884428D01*
X85631866Y-35360428D02*
X84785200Y-35360428D01*
X84700533Y-36086142D01*
X84785200Y-36013571D01*
X84954533Y-35941000D01*
X85377866Y-35941000D01*
X85547200Y-36013571D01*
X85631866Y-36086142D01*
X85716533Y-36231285D01*
X85716533Y-36594142D01*
X85631866Y-36739285D01*
X85547200Y-36811857D01*
X85377866Y-36884428D01*
X84954533Y-36884428D01*
X84785200Y-36811857D01*
X84700533Y-36739285D01*
X86478533Y-36884428D02*
X86478533Y-35868428D01*
X86478533Y-36013571D02*
X86563200Y-35941000D01*
X86732533Y-35868428D01*
X86986533Y-35868428D01*
X87155866Y-35941000D01*
X87240533Y-36086142D01*
X87240533Y-36884428D01*
X87240533Y-36086142D02*
X87325200Y-35941000D01*
X87494533Y-35868428D01*
X87748533Y-35868428D01*
X87917866Y-35941000D01*
X88002533Y-36086142D01*
X88002533Y-36884428D01*
X88849200Y-36884428D02*
X88849200Y-35868428D01*
X88849200Y-36013571D02*
X88933866Y-35941000D01*
X89103200Y-35868428D01*
X89357200Y-35868428D01*
X89526533Y-35941000D01*
X89611200Y-36086142D01*
X89611200Y-36884428D01*
X89611200Y-36086142D02*
X89695866Y-35941000D01*
X89865200Y-35868428D01*
X90119200Y-35868428D01*
X90288533Y-35941000D01*
X90373200Y-36086142D01*
X90373200Y-36884428D01*
D17*
X186965166Y-89971517D02*
X187219166Y-90044088D01*
X187642500Y-90044088D01*
X187811833Y-89971517D01*
X187896500Y-89898945D01*
X187981166Y-89753802D01*
X187981166Y-89608660D01*
X187896500Y-89463517D01*
X187811833Y-89390945D01*
X187642500Y-89318374D01*
X187303833Y-89245802D01*
X187134500Y-89173231D01*
X187049833Y-89100660D01*
X186965166Y-88955517D01*
X186965166Y-88810374D01*
X187049833Y-88665231D01*
X187134500Y-88592660D01*
X187303833Y-88520088D01*
X187727166Y-88520088D01*
X187981166Y-88592660D01*
X188573833Y-88520088D02*
X188997166Y-90044088D01*
X189335833Y-88955517D01*
X189674500Y-90044088D01*
X190097833Y-88520088D01*
X191537166Y-89028088D02*
X191537166Y-90044088D01*
X191113833Y-88447517D02*
X190690500Y-89536088D01*
X191791166Y-89536088D01*
X192468500Y-89898945D02*
X192553166Y-89971517D01*
X192468500Y-90044088D01*
X192383833Y-89971517D01*
X192468500Y-89898945D01*
X192468500Y-90044088D01*
X192468500Y-89100660D02*
X192553166Y-89173231D01*
X192468500Y-89245802D01*
X192383833Y-89173231D01*
X192468500Y-89100660D01*
X192468500Y-89245802D01*
X194246500Y-90044088D02*
X193230500Y-90044088D01*
X193738500Y-90044088D02*
X193738500Y-88520088D01*
X193569166Y-88737802D01*
X193399833Y-88882945D01*
X193230500Y-88955517D01*
X194839166Y-88520088D02*
X195939833Y-88520088D01*
X195347166Y-89100660D01*
X195601166Y-89100660D01*
X195770500Y-89173231D01*
X195855166Y-89245802D01*
X195939833Y-89390945D01*
X195939833Y-89753802D01*
X195855166Y-89898945D01*
X195770500Y-89971517D01*
X195601166Y-90044088D01*
X195093166Y-90044088D01*
X194923833Y-89971517D01*
X194839166Y-89898945D01*
X186965166Y-128071517D02*
X187219166Y-128144088D01*
X187642500Y-128144088D01*
X187811833Y-128071517D01*
X187896500Y-127998945D01*
X187981166Y-127853802D01*
X187981166Y-127708660D01*
X187896500Y-127563517D01*
X187811833Y-127490945D01*
X187642500Y-127418374D01*
X187303833Y-127345802D01*
X187134500Y-127273231D01*
X187049833Y-127200660D01*
X186965166Y-127055517D01*
X186965166Y-126910374D01*
X187049833Y-126765231D01*
X187134500Y-126692660D01*
X187303833Y-126620088D01*
X187727166Y-126620088D01*
X187981166Y-126692660D01*
X188573833Y-126620088D02*
X188997166Y-128144088D01*
X189335833Y-127055517D01*
X189674500Y-128144088D01*
X190097833Y-126620088D01*
X190690500Y-126765231D02*
X190775166Y-126692660D01*
X190944500Y-126620088D01*
X191367833Y-126620088D01*
X191537166Y-126692660D01*
X191621833Y-126765231D01*
X191706500Y-126910374D01*
X191706500Y-127055517D01*
X191621833Y-127273231D01*
X190605833Y-128144088D01*
X191706500Y-128144088D01*
X192468500Y-127998945D02*
X192553166Y-128071517D01*
X192468500Y-128144088D01*
X192383833Y-128071517D01*
X192468500Y-127998945D01*
X192468500Y-128144088D01*
X192468500Y-127200660D02*
X192553166Y-127273231D01*
X192468500Y-127345802D01*
X192383833Y-127273231D01*
X192468500Y-127200660D01*
X192468500Y-127345802D01*
X194246500Y-128144088D02*
X193230500Y-128144088D01*
X193738500Y-128144088D02*
X193738500Y-126620088D01*
X193569166Y-126837802D01*
X193399833Y-126982945D01*
X193230500Y-127055517D01*
X194839166Y-126620088D02*
X195939833Y-126620088D01*
X195347166Y-127200660D01*
X195601166Y-127200660D01*
X195770500Y-127273231D01*
X195855166Y-127345802D01*
X195939833Y-127490945D01*
X195939833Y-127853802D01*
X195855166Y-127998945D01*
X195770500Y-128071517D01*
X195601166Y-128144088D01*
X195093166Y-128144088D01*
X194923833Y-128071517D01*
X194839166Y-127998945D01*
X186965166Y-70924057D02*
X187219166Y-70996628D01*
X187642500Y-70996628D01*
X187811833Y-70924057D01*
X187896500Y-70851485D01*
X187981166Y-70706342D01*
X187981166Y-70561200D01*
X187896500Y-70416057D01*
X187811833Y-70343485D01*
X187642500Y-70270914D01*
X187303833Y-70198342D01*
X187134500Y-70125771D01*
X187049833Y-70053200D01*
X186965166Y-69908057D01*
X186965166Y-69762914D01*
X187049833Y-69617771D01*
X187134500Y-69545200D01*
X187303833Y-69472628D01*
X187727166Y-69472628D01*
X187981166Y-69545200D01*
X188573833Y-69472628D02*
X188997166Y-70996628D01*
X189335833Y-69908057D01*
X189674500Y-70996628D01*
X190097833Y-69472628D01*
X191621833Y-69472628D02*
X190775166Y-69472628D01*
X190690500Y-70198342D01*
X190775166Y-70125771D01*
X190944500Y-70053200D01*
X191367833Y-70053200D01*
X191537166Y-70125771D01*
X191621833Y-70198342D01*
X191706500Y-70343485D01*
X191706500Y-70706342D01*
X191621833Y-70851485D01*
X191537166Y-70924057D01*
X191367833Y-70996628D01*
X190944500Y-70996628D01*
X190775166Y-70924057D01*
X190690500Y-70851485D01*
X192468500Y-70851485D02*
X192553166Y-70924057D01*
X192468500Y-70996628D01*
X192383833Y-70924057D01*
X192468500Y-70851485D01*
X192468500Y-70996628D01*
X192468500Y-70053200D02*
X192553166Y-70125771D01*
X192468500Y-70198342D01*
X192383833Y-70125771D01*
X192468500Y-70053200D01*
X192468500Y-70198342D01*
X194246500Y-70996628D02*
X193230500Y-70996628D01*
X193738500Y-70996628D02*
X193738500Y-69472628D01*
X193569166Y-69690342D01*
X193399833Y-69835485D01*
X193230500Y-69908057D01*
X194839166Y-69472628D02*
X195939833Y-69472628D01*
X195347166Y-70053200D01*
X195601166Y-70053200D01*
X195770500Y-70125771D01*
X195855166Y-70198342D01*
X195939833Y-70343485D01*
X195939833Y-70706342D01*
X195855166Y-70851485D01*
X195770500Y-70924057D01*
X195601166Y-70996628D01*
X195093166Y-70996628D01*
X194923833Y-70924057D01*
X194839166Y-70851485D01*
X186965166Y-109021517D02*
X187219166Y-109094088D01*
X187642500Y-109094088D01*
X187811833Y-109021517D01*
X187896500Y-108948945D01*
X187981166Y-108803802D01*
X187981166Y-108658660D01*
X187896500Y-108513517D01*
X187811833Y-108440945D01*
X187642500Y-108368374D01*
X187303833Y-108295802D01*
X187134500Y-108223231D01*
X187049833Y-108150660D01*
X186965166Y-108005517D01*
X186965166Y-107860374D01*
X187049833Y-107715231D01*
X187134500Y-107642660D01*
X187303833Y-107570088D01*
X187727166Y-107570088D01*
X187981166Y-107642660D01*
X188573833Y-107570088D02*
X188997166Y-109094088D01*
X189335833Y-108005517D01*
X189674500Y-109094088D01*
X190097833Y-107570088D01*
X190605833Y-107570088D02*
X191706500Y-107570088D01*
X191113833Y-108150660D01*
X191367833Y-108150660D01*
X191537166Y-108223231D01*
X191621833Y-108295802D01*
X191706500Y-108440945D01*
X191706500Y-108803802D01*
X191621833Y-108948945D01*
X191537166Y-109021517D01*
X191367833Y-109094088D01*
X190859833Y-109094088D01*
X190690500Y-109021517D01*
X190605833Y-108948945D01*
X192468500Y-108948945D02*
X192553166Y-109021517D01*
X192468500Y-109094088D01*
X192383833Y-109021517D01*
X192468500Y-108948945D01*
X192468500Y-109094088D01*
X192468500Y-108150660D02*
X192553166Y-108223231D01*
X192468500Y-108295802D01*
X192383833Y-108223231D01*
X192468500Y-108150660D01*
X192468500Y-108295802D01*
X194246500Y-109094088D02*
X193230500Y-109094088D01*
X193738500Y-109094088D02*
X193738500Y-107570088D01*
X193569166Y-107787802D01*
X193399833Y-107932945D01*
X193230500Y-108005517D01*
X194839166Y-107570088D02*
X195939833Y-107570088D01*
X195347166Y-108150660D01*
X195601166Y-108150660D01*
X195770500Y-108223231D01*
X195855166Y-108295802D01*
X195939833Y-108440945D01*
X195939833Y-108803802D01*
X195855166Y-108948945D01*
X195770500Y-109021517D01*
X195601166Y-109094088D01*
X195093166Y-109094088D01*
X194923833Y-109021517D01*
X194839166Y-108948945D01*
X87799333Y-69019057D02*
X88053333Y-69091628D01*
X88476666Y-69091628D01*
X88646000Y-69019057D01*
X88730666Y-68946485D01*
X88815333Y-68801342D01*
X88815333Y-68656200D01*
X88730666Y-68511057D01*
X88646000Y-68438485D01*
X88476666Y-68365914D01*
X88138000Y-68293342D01*
X87968666Y-68220771D01*
X87884000Y-68148200D01*
X87799333Y-68003057D01*
X87799333Y-67857914D01*
X87884000Y-67712771D01*
X87968666Y-67640200D01*
X88138000Y-67567628D01*
X88561333Y-67567628D01*
X88815333Y-67640200D01*
X89408000Y-67567628D02*
X89831333Y-69091628D01*
X90170000Y-68003057D01*
X90508666Y-69091628D01*
X90932000Y-67567628D01*
X92456000Y-67567628D02*
X91609333Y-67567628D01*
X91524666Y-68293342D01*
X91609333Y-68220771D01*
X91778666Y-68148200D01*
X92202000Y-68148200D01*
X92371333Y-68220771D01*
X92456000Y-68293342D01*
X92540666Y-68438485D01*
X92540666Y-68801342D01*
X92456000Y-68946485D01*
X92371333Y-69019057D01*
X92202000Y-69091628D01*
X91778666Y-69091628D01*
X91609333Y-69019057D01*
X91524666Y-68946485D01*
X93302666Y-68946485D02*
X93387333Y-69019057D01*
X93302666Y-69091628D01*
X93218000Y-69019057D01*
X93302666Y-68946485D01*
X93302666Y-69091628D01*
X93302666Y-68148200D02*
X93387333Y-68220771D01*
X93302666Y-68293342D01*
X93218000Y-68220771D01*
X93302666Y-68148200D01*
X93302666Y-68293342D01*
X94403333Y-68220771D02*
X94234000Y-68148200D01*
X94149333Y-68075628D01*
X94064666Y-67930485D01*
X94064666Y-67857914D01*
X94149333Y-67712771D01*
X94234000Y-67640200D01*
X94403333Y-67567628D01*
X94742000Y-67567628D01*
X94911333Y-67640200D01*
X94996000Y-67712771D01*
X95080666Y-67857914D01*
X95080666Y-67930485D01*
X94996000Y-68075628D01*
X94911333Y-68148200D01*
X94742000Y-68220771D01*
X94403333Y-68220771D01*
X94234000Y-68293342D01*
X94149333Y-68365914D01*
X94064666Y-68511057D01*
X94064666Y-68801342D01*
X94149333Y-68946485D01*
X94234000Y-69019057D01*
X94403333Y-69091628D01*
X94742000Y-69091628D01*
X94911333Y-69019057D01*
X94996000Y-68946485D01*
X95080666Y-68801342D01*
X95080666Y-68511057D01*
X94996000Y-68365914D01*
X94911333Y-68293342D01*
X94742000Y-68220771D01*
X144102666Y-86796517D02*
X144356666Y-86869088D01*
X144780000Y-86869088D01*
X144949333Y-86796517D01*
X145034000Y-86723945D01*
X145118666Y-86578802D01*
X145118666Y-86433660D01*
X145034000Y-86288517D01*
X144949333Y-86215945D01*
X144780000Y-86143374D01*
X144441333Y-86070802D01*
X144272000Y-85998231D01*
X144187333Y-85925660D01*
X144102666Y-85780517D01*
X144102666Y-85635374D01*
X144187333Y-85490231D01*
X144272000Y-85417660D01*
X144441333Y-85345088D01*
X144864666Y-85345088D01*
X145118666Y-85417660D01*
X145711333Y-85345088D02*
X146134666Y-86869088D01*
X146473333Y-85780517D01*
X146812000Y-86869088D01*
X147235333Y-85345088D01*
X148674666Y-85853088D02*
X148674666Y-86869088D01*
X148251333Y-85272517D02*
X147828000Y-86361088D01*
X148928666Y-86361088D01*
X149606000Y-86723945D02*
X149690666Y-86796517D01*
X149606000Y-86869088D01*
X149521333Y-86796517D01*
X149606000Y-86723945D01*
X149606000Y-86869088D01*
X149606000Y-85925660D02*
X149690666Y-85998231D01*
X149606000Y-86070802D01*
X149521333Y-85998231D01*
X149606000Y-85925660D01*
X149606000Y-86070802D01*
X151384000Y-86869088D02*
X150368000Y-86869088D01*
X150876000Y-86869088D02*
X150876000Y-85345088D01*
X150706666Y-85562802D01*
X150537333Y-85707945D01*
X150368000Y-85780517D01*
X153077333Y-86869088D02*
X152061333Y-86869088D01*
X152569333Y-86869088D02*
X152569333Y-85345088D01*
X152400000Y-85562802D01*
X152230666Y-85707945D01*
X152061333Y-85780517D01*
X64575616Y-155915583D02*
X64617189Y-156176456D01*
X64796097Y-156560126D01*
X64933433Y-156682924D01*
X65034987Y-156728988D01*
X65202312Y-156744382D01*
X65333856Y-156683042D01*
X65429619Y-156544968D01*
X65459609Y-156437564D01*
X65453818Y-156253426D01*
X65376463Y-155915820D01*
X65370672Y-155731681D01*
X65400662Y-155624277D01*
X65496425Y-155486203D01*
X65627969Y-155424863D01*
X65795295Y-155440257D01*
X65896848Y-155486321D01*
X66034184Y-155609119D01*
X66213092Y-155992790D01*
X66254665Y-156253662D01*
X66570909Y-156760130D02*
X65368604Y-157787871D01*
X66498312Y-157634757D01*
X65654858Y-158401743D01*
X67214979Y-158141343D01*
X67644359Y-159062152D02*
X67715923Y-159215620D01*
X67721714Y-159399758D01*
X67691724Y-159507162D01*
X67595961Y-159645237D01*
X67368655Y-159844651D01*
X67039794Y-159998001D01*
X66740925Y-160043947D01*
X66573599Y-160028553D01*
X66472045Y-159982489D01*
X66334710Y-159859690D01*
X66263146Y-159706222D01*
X66257355Y-159522084D01*
X66287345Y-159414680D01*
X66383108Y-159276606D01*
X66610414Y-159077192D01*
X66939275Y-158923842D01*
X67238144Y-158877896D01*
X67405470Y-158893290D01*
X67507024Y-158939354D01*
X67644359Y-159062152D01*
X66967197Y-160872627D02*
X66937207Y-160980031D01*
X66835653Y-160933967D01*
X66865644Y-160826563D01*
X66967197Y-160872627D01*
X66835653Y-160933967D01*
X67690690Y-160535257D02*
X67660699Y-160642661D01*
X67559146Y-160596597D01*
X67589136Y-160489193D01*
X67690690Y-160535257D01*
X67559146Y-160596597D01*
X67587068Y-162545383D02*
X67157688Y-161624574D01*
X67372378Y-162084978D02*
X68753591Y-161440908D01*
X68484712Y-161379450D01*
X68281604Y-161287322D01*
X68144269Y-161164524D01*
X68302702Y-164080064D02*
X67873322Y-163159255D01*
X68088012Y-163619659D02*
X69469225Y-162975589D01*
X69200346Y-162914131D01*
X68997238Y-162822003D01*
X68859903Y-162699205D01*
X81839996Y-147863783D02*
X81881569Y-148124656D01*
X82060477Y-148508326D01*
X82197813Y-148631124D01*
X82299367Y-148677188D01*
X82466692Y-148692582D01*
X82598236Y-148631242D01*
X82693999Y-148493168D01*
X82723989Y-148385764D01*
X82718198Y-148201626D01*
X82640843Y-147864020D01*
X82635052Y-147679881D01*
X82665042Y-147572477D01*
X82760805Y-147434403D01*
X82892349Y-147373063D01*
X83059675Y-147388457D01*
X83161228Y-147434521D01*
X83298564Y-147557319D01*
X83477472Y-147940990D01*
X83519045Y-148201862D01*
X83835289Y-148708330D02*
X82632984Y-149736071D01*
X83762692Y-149582957D01*
X82919238Y-150349943D01*
X84479359Y-150089543D01*
X84908739Y-151010352D02*
X84980303Y-151163820D01*
X84986094Y-151347958D01*
X84956104Y-151455362D01*
X84860341Y-151593437D01*
X84633035Y-151792851D01*
X84304174Y-151946201D01*
X84005305Y-151992147D01*
X83837979Y-151976753D01*
X83736425Y-151930689D01*
X83599090Y-151807890D01*
X83527526Y-151654422D01*
X83521735Y-151470284D01*
X83551725Y-151362880D01*
X83647488Y-151224806D01*
X83874794Y-151025392D01*
X84203655Y-150872042D01*
X84502524Y-150826096D01*
X84669850Y-150841490D01*
X84771404Y-150887554D01*
X84908739Y-151010352D01*
X84231577Y-152820827D02*
X84201587Y-152928231D01*
X84100033Y-152882167D01*
X84130024Y-152774763D01*
X84231577Y-152820827D01*
X84100033Y-152882167D01*
X84955070Y-152483457D02*
X84925079Y-152590861D01*
X84823526Y-152544797D01*
X84853516Y-152437393D01*
X84955070Y-152483457D01*
X84823526Y-152544797D01*
X84851448Y-154493583D02*
X84422068Y-153572774D01*
X84636758Y-154033178D02*
X86017971Y-153389108D01*
X85749092Y-153327650D01*
X85545984Y-153235522D01*
X85408649Y-153112724D01*
X86697823Y-154847055D02*
X86769387Y-155000523D01*
X86775178Y-155184661D01*
X86745188Y-155292065D01*
X86649425Y-155430140D01*
X86422119Y-155629554D01*
X86093258Y-155782904D01*
X85794389Y-155828850D01*
X85627063Y-155813456D01*
X85525509Y-155767392D01*
X85388174Y-155644593D01*
X85316610Y-155491125D01*
X85310819Y-155306987D01*
X85340809Y-155199583D01*
X85436572Y-155061509D01*
X85663878Y-154862095D01*
X85992739Y-154708745D01*
X86291608Y-154662799D01*
X86458934Y-154678193D01*
X86560488Y-154724257D01*
X86697823Y-154847055D01*
X106849333Y-143946517D02*
X107103333Y-144019088D01*
X107526666Y-144019088D01*
X107696000Y-143946517D01*
X107780666Y-143873945D01*
X107865333Y-143728802D01*
X107865333Y-143583660D01*
X107780666Y-143438517D01*
X107696000Y-143365945D01*
X107526666Y-143293374D01*
X107188000Y-143220802D01*
X107018666Y-143148231D01*
X106934000Y-143075660D01*
X106849333Y-142930517D01*
X106849333Y-142785374D01*
X106934000Y-142640231D01*
X107018666Y-142567660D01*
X107188000Y-142495088D01*
X107611333Y-142495088D01*
X107865333Y-142567660D01*
X108458000Y-142495088D02*
X108881333Y-144019088D01*
X109220000Y-142930517D01*
X109558666Y-144019088D01*
X109982000Y-142495088D01*
X111590666Y-144019088D02*
X110574666Y-144019088D01*
X111082666Y-144019088D02*
X111082666Y-142495088D01*
X110913333Y-142712802D01*
X110744000Y-142857945D01*
X110574666Y-142930517D01*
X112352666Y-143873945D02*
X112437333Y-143946517D01*
X112352666Y-144019088D01*
X112268000Y-143946517D01*
X112352666Y-143873945D01*
X112352666Y-144019088D01*
X112352666Y-143075660D02*
X112437333Y-143148231D01*
X112352666Y-143220802D01*
X112268000Y-143148231D01*
X112352666Y-143075660D01*
X112352666Y-143220802D01*
X113284000Y-144019088D02*
X113622666Y-144019088D01*
X113792000Y-143946517D01*
X113876666Y-143873945D01*
X114046000Y-143656231D01*
X114130666Y-143365945D01*
X114130666Y-142785374D01*
X114046000Y-142640231D01*
X113961333Y-142567660D01*
X113792000Y-142495088D01*
X113453333Y-142495088D01*
X113284000Y-142567660D01*
X113199333Y-142640231D01*
X113114666Y-142785374D01*
X113114666Y-143148231D01*
X113199333Y-143293374D01*
X113284000Y-143365945D01*
X113453333Y-143438517D01*
X113792000Y-143438517D01*
X113961333Y-143365945D01*
X114046000Y-143293374D01*
X114130666Y-143148231D01*
X125052666Y-142348857D02*
X125306666Y-142421428D01*
X125730000Y-142421428D01*
X125899333Y-142348857D01*
X125984000Y-142276285D01*
X126068666Y-142131142D01*
X126068666Y-141986000D01*
X125984000Y-141840857D01*
X125899333Y-141768285D01*
X125730000Y-141695714D01*
X125391333Y-141623142D01*
X125222000Y-141550571D01*
X125137333Y-141478000D01*
X125052666Y-141332857D01*
X125052666Y-141187714D01*
X125137333Y-141042571D01*
X125222000Y-140970000D01*
X125391333Y-140897428D01*
X125814666Y-140897428D01*
X126068666Y-140970000D01*
X126661333Y-140897428D02*
X127084666Y-142421428D01*
X127423333Y-141332857D01*
X127762000Y-142421428D01*
X128185333Y-140897428D01*
X129794000Y-142421428D02*
X128778000Y-142421428D01*
X129286000Y-142421428D02*
X129286000Y-140897428D01*
X129116666Y-141115142D01*
X128947333Y-141260285D01*
X128778000Y-141332857D01*
X130556000Y-142276285D02*
X130640666Y-142348857D01*
X130556000Y-142421428D01*
X130471333Y-142348857D01*
X130556000Y-142276285D01*
X130556000Y-142421428D01*
X130556000Y-141478000D02*
X130640666Y-141550571D01*
X130556000Y-141623142D01*
X130471333Y-141550571D01*
X130556000Y-141478000D01*
X130556000Y-141623142D01*
X132334000Y-142421428D02*
X131318000Y-142421428D01*
X131826000Y-142421428D02*
X131826000Y-140897428D01*
X131656666Y-141115142D01*
X131487333Y-141260285D01*
X131318000Y-141332857D01*
X133434666Y-140897428D02*
X133604000Y-140897428D01*
X133773333Y-140970000D01*
X133858000Y-141042571D01*
X133942666Y-141187714D01*
X134027333Y-141478000D01*
X134027333Y-141840857D01*
X133942666Y-142131142D01*
X133858000Y-142276285D01*
X133773333Y-142348857D01*
X133604000Y-142421428D01*
X133434666Y-142421428D01*
X133265333Y-142348857D01*
X133180666Y-142276285D01*
X133096000Y-142131142D01*
X133011333Y-141840857D01*
X133011333Y-141478000D01*
X133096000Y-141187714D01*
X133180666Y-141042571D01*
X133265333Y-140970000D01*
X133434666Y-140897428D01*
X163152666Y-147121517D02*
X163406666Y-147194088D01*
X163830000Y-147194088D01*
X163999333Y-147121517D01*
X164084000Y-147048945D01*
X164168666Y-146903802D01*
X164168666Y-146758660D01*
X164084000Y-146613517D01*
X163999333Y-146540945D01*
X163830000Y-146468374D01*
X163491333Y-146395802D01*
X163322000Y-146323231D01*
X163237333Y-146250660D01*
X163152666Y-146105517D01*
X163152666Y-145960374D01*
X163237333Y-145815231D01*
X163322000Y-145742660D01*
X163491333Y-145670088D01*
X163914666Y-145670088D01*
X164168666Y-145742660D01*
X164761333Y-145670088D02*
X165184666Y-147194088D01*
X165523333Y-146105517D01*
X165862000Y-147194088D01*
X166285333Y-145670088D01*
X167894000Y-147194088D02*
X166878000Y-147194088D01*
X167386000Y-147194088D02*
X167386000Y-145670088D01*
X167216666Y-145887802D01*
X167047333Y-146032945D01*
X166878000Y-146105517D01*
X168656000Y-147048945D02*
X168740666Y-147121517D01*
X168656000Y-147194088D01*
X168571333Y-147121517D01*
X168656000Y-147048945D01*
X168656000Y-147194088D01*
X168656000Y-146250660D02*
X168740666Y-146323231D01*
X168656000Y-146395802D01*
X168571333Y-146323231D01*
X168656000Y-146250660D01*
X168656000Y-146395802D01*
X170434000Y-147194088D02*
X169418000Y-147194088D01*
X169926000Y-147194088D02*
X169926000Y-145670088D01*
X169756666Y-145887802D01*
X169587333Y-146032945D01*
X169418000Y-146105517D01*
X171111333Y-145815231D02*
X171196000Y-145742660D01*
X171365333Y-145670088D01*
X171788666Y-145670088D01*
X171958000Y-145742660D01*
X172042666Y-145815231D01*
X172127333Y-145960374D01*
X172127333Y-146105517D01*
X172042666Y-146323231D01*
X171026666Y-147194088D01*
X172127333Y-147194088D01*
X87799333Y-126166517D02*
X88053333Y-126239088D01*
X88476666Y-126239088D01*
X88646000Y-126166517D01*
X88730666Y-126093945D01*
X88815333Y-125948802D01*
X88815333Y-125803660D01*
X88730666Y-125658517D01*
X88646000Y-125585945D01*
X88476666Y-125513374D01*
X88138000Y-125440802D01*
X87968666Y-125368231D01*
X87884000Y-125295660D01*
X87799333Y-125150517D01*
X87799333Y-125005374D01*
X87884000Y-124860231D01*
X87968666Y-124787660D01*
X88138000Y-124715088D01*
X88561333Y-124715088D01*
X88815333Y-124787660D01*
X89408000Y-124715088D02*
X89831333Y-126239088D01*
X90170000Y-125150517D01*
X90508666Y-126239088D01*
X90932000Y-124715088D01*
X91524666Y-124860231D02*
X91609333Y-124787660D01*
X91778666Y-124715088D01*
X92202000Y-124715088D01*
X92371333Y-124787660D01*
X92456000Y-124860231D01*
X92540666Y-125005374D01*
X92540666Y-125150517D01*
X92456000Y-125368231D01*
X91440000Y-126239088D01*
X92540666Y-126239088D01*
X93302666Y-126093945D02*
X93387333Y-126166517D01*
X93302666Y-126239088D01*
X93218000Y-126166517D01*
X93302666Y-126093945D01*
X93302666Y-126239088D01*
X93302666Y-125295660D02*
X93387333Y-125368231D01*
X93302666Y-125440802D01*
X93218000Y-125368231D01*
X93302666Y-125295660D01*
X93302666Y-125440802D01*
X94403333Y-125368231D02*
X94234000Y-125295660D01*
X94149333Y-125223088D01*
X94064666Y-125077945D01*
X94064666Y-125005374D01*
X94149333Y-124860231D01*
X94234000Y-124787660D01*
X94403333Y-124715088D01*
X94742000Y-124715088D01*
X94911333Y-124787660D01*
X94996000Y-124860231D01*
X95080666Y-125005374D01*
X95080666Y-125077945D01*
X94996000Y-125223088D01*
X94911333Y-125295660D01*
X94742000Y-125368231D01*
X94403333Y-125368231D01*
X94234000Y-125440802D01*
X94149333Y-125513374D01*
X94064666Y-125658517D01*
X94064666Y-125948802D01*
X94149333Y-126093945D01*
X94234000Y-126166517D01*
X94403333Y-126239088D01*
X94742000Y-126239088D01*
X94911333Y-126166517D01*
X94996000Y-126093945D01*
X95080666Y-125948802D01*
X95080666Y-125658517D01*
X94996000Y-125513374D01*
X94911333Y-125440802D01*
X94742000Y-125368231D01*
X106849333Y-124896517D02*
X107103333Y-124969088D01*
X107526666Y-124969088D01*
X107696000Y-124896517D01*
X107780666Y-124823945D01*
X107865333Y-124678802D01*
X107865333Y-124533660D01*
X107780666Y-124388517D01*
X107696000Y-124315945D01*
X107526666Y-124243374D01*
X107188000Y-124170802D01*
X107018666Y-124098231D01*
X106934000Y-124025660D01*
X106849333Y-123880517D01*
X106849333Y-123735374D01*
X106934000Y-123590231D01*
X107018666Y-123517660D01*
X107188000Y-123445088D01*
X107611333Y-123445088D01*
X107865333Y-123517660D01*
X108458000Y-123445088D02*
X108881333Y-124969088D01*
X109220000Y-123880517D01*
X109558666Y-124969088D01*
X109982000Y-123445088D01*
X110574666Y-123590231D02*
X110659333Y-123517660D01*
X110828666Y-123445088D01*
X111252000Y-123445088D01*
X111421333Y-123517660D01*
X111506000Y-123590231D01*
X111590666Y-123735374D01*
X111590666Y-123880517D01*
X111506000Y-124098231D01*
X110490000Y-124969088D01*
X111590666Y-124969088D01*
X112352666Y-124823945D02*
X112437333Y-124896517D01*
X112352666Y-124969088D01*
X112268000Y-124896517D01*
X112352666Y-124823945D01*
X112352666Y-124969088D01*
X112352666Y-124025660D02*
X112437333Y-124098231D01*
X112352666Y-124170802D01*
X112268000Y-124098231D01*
X112352666Y-124025660D01*
X112352666Y-124170802D01*
X113284000Y-124969088D02*
X113622666Y-124969088D01*
X113792000Y-124896517D01*
X113876666Y-124823945D01*
X114046000Y-124606231D01*
X114130666Y-124315945D01*
X114130666Y-123735374D01*
X114046000Y-123590231D01*
X113961333Y-123517660D01*
X113792000Y-123445088D01*
X113453333Y-123445088D01*
X113284000Y-123517660D01*
X113199333Y-123590231D01*
X113114666Y-123735374D01*
X113114666Y-124098231D01*
X113199333Y-124243374D01*
X113284000Y-124315945D01*
X113453333Y-124388517D01*
X113792000Y-124388517D01*
X113961333Y-124315945D01*
X114046000Y-124243374D01*
X114130666Y-124098231D01*
X125052666Y-123298857D02*
X125306666Y-123371428D01*
X125730000Y-123371428D01*
X125899333Y-123298857D01*
X125984000Y-123226285D01*
X126068666Y-123081142D01*
X126068666Y-122936000D01*
X125984000Y-122790857D01*
X125899333Y-122718285D01*
X125730000Y-122645714D01*
X125391333Y-122573142D01*
X125222000Y-122500571D01*
X125137333Y-122428000D01*
X125052666Y-122282857D01*
X125052666Y-122137714D01*
X125137333Y-121992571D01*
X125222000Y-121920000D01*
X125391333Y-121847428D01*
X125814666Y-121847428D01*
X126068666Y-121920000D01*
X126661333Y-121847428D02*
X127084666Y-123371428D01*
X127423333Y-122282857D01*
X127762000Y-123371428D01*
X128185333Y-121847428D01*
X128778000Y-121992571D02*
X128862666Y-121920000D01*
X129032000Y-121847428D01*
X129455333Y-121847428D01*
X129624666Y-121920000D01*
X129709333Y-121992571D01*
X129794000Y-122137714D01*
X129794000Y-122282857D01*
X129709333Y-122500571D01*
X128693333Y-123371428D01*
X129794000Y-123371428D01*
X130556000Y-123226285D02*
X130640666Y-123298857D01*
X130556000Y-123371428D01*
X130471333Y-123298857D01*
X130556000Y-123226285D01*
X130556000Y-123371428D01*
X130556000Y-122428000D02*
X130640666Y-122500571D01*
X130556000Y-122573142D01*
X130471333Y-122500571D01*
X130556000Y-122428000D01*
X130556000Y-122573142D01*
X132334000Y-123371428D02*
X131318000Y-123371428D01*
X131826000Y-123371428D02*
X131826000Y-121847428D01*
X131656666Y-122065142D01*
X131487333Y-122210285D01*
X131318000Y-122282857D01*
X133434666Y-121847428D02*
X133604000Y-121847428D01*
X133773333Y-121920000D01*
X133858000Y-121992571D01*
X133942666Y-122137714D01*
X134027333Y-122428000D01*
X134027333Y-122790857D01*
X133942666Y-123081142D01*
X133858000Y-123226285D01*
X133773333Y-123298857D01*
X133604000Y-123371428D01*
X133434666Y-123371428D01*
X133265333Y-123298857D01*
X133180666Y-123226285D01*
X133096000Y-123081142D01*
X133011333Y-122790857D01*
X133011333Y-122428000D01*
X133096000Y-122137714D01*
X133180666Y-121992571D01*
X133265333Y-121920000D01*
X133434666Y-121847428D01*
X144102666Y-124896517D02*
X144356666Y-124969088D01*
X144780000Y-124969088D01*
X144949333Y-124896517D01*
X145034000Y-124823945D01*
X145118666Y-124678802D01*
X145118666Y-124533660D01*
X145034000Y-124388517D01*
X144949333Y-124315945D01*
X144780000Y-124243374D01*
X144441333Y-124170802D01*
X144272000Y-124098231D01*
X144187333Y-124025660D01*
X144102666Y-123880517D01*
X144102666Y-123735374D01*
X144187333Y-123590231D01*
X144272000Y-123517660D01*
X144441333Y-123445088D01*
X144864666Y-123445088D01*
X145118666Y-123517660D01*
X145711333Y-123445088D02*
X146134666Y-124969088D01*
X146473333Y-123880517D01*
X146812000Y-124969088D01*
X147235333Y-123445088D01*
X147828000Y-123590231D02*
X147912666Y-123517660D01*
X148082000Y-123445088D01*
X148505333Y-123445088D01*
X148674666Y-123517660D01*
X148759333Y-123590231D01*
X148844000Y-123735374D01*
X148844000Y-123880517D01*
X148759333Y-124098231D01*
X147743333Y-124969088D01*
X148844000Y-124969088D01*
X149606000Y-124823945D02*
X149690666Y-124896517D01*
X149606000Y-124969088D01*
X149521333Y-124896517D01*
X149606000Y-124823945D01*
X149606000Y-124969088D01*
X149606000Y-124025660D02*
X149690666Y-124098231D01*
X149606000Y-124170802D01*
X149521333Y-124098231D01*
X149606000Y-124025660D01*
X149606000Y-124170802D01*
X151384000Y-124969088D02*
X150368000Y-124969088D01*
X150876000Y-124969088D02*
X150876000Y-123445088D01*
X150706666Y-123662802D01*
X150537333Y-123807945D01*
X150368000Y-123880517D01*
X153077333Y-124969088D02*
X152061333Y-124969088D01*
X152569333Y-124969088D02*
X152569333Y-123445088D01*
X152400000Y-123662802D01*
X152230666Y-123807945D01*
X152061333Y-123880517D01*
X163152666Y-128071517D02*
X163406666Y-128144088D01*
X163830000Y-128144088D01*
X163999333Y-128071517D01*
X164084000Y-127998945D01*
X164168666Y-127853802D01*
X164168666Y-127708660D01*
X164084000Y-127563517D01*
X163999333Y-127490945D01*
X163830000Y-127418374D01*
X163491333Y-127345802D01*
X163322000Y-127273231D01*
X163237333Y-127200660D01*
X163152666Y-127055517D01*
X163152666Y-126910374D01*
X163237333Y-126765231D01*
X163322000Y-126692660D01*
X163491333Y-126620088D01*
X163914666Y-126620088D01*
X164168666Y-126692660D01*
X164761333Y-126620088D02*
X165184666Y-128144088D01*
X165523333Y-127055517D01*
X165862000Y-128144088D01*
X166285333Y-126620088D01*
X166878000Y-126765231D02*
X166962666Y-126692660D01*
X167132000Y-126620088D01*
X167555333Y-126620088D01*
X167724666Y-126692660D01*
X167809333Y-126765231D01*
X167894000Y-126910374D01*
X167894000Y-127055517D01*
X167809333Y-127273231D01*
X166793333Y-128144088D01*
X167894000Y-128144088D01*
X168656000Y-127998945D02*
X168740666Y-128071517D01*
X168656000Y-128144088D01*
X168571333Y-128071517D01*
X168656000Y-127998945D01*
X168656000Y-128144088D01*
X168656000Y-127200660D02*
X168740666Y-127273231D01*
X168656000Y-127345802D01*
X168571333Y-127273231D01*
X168656000Y-127200660D01*
X168656000Y-127345802D01*
X170434000Y-128144088D02*
X169418000Y-128144088D01*
X169926000Y-128144088D02*
X169926000Y-126620088D01*
X169756666Y-126837802D01*
X169587333Y-126982945D01*
X169418000Y-127055517D01*
X171111333Y-126765231D02*
X171196000Y-126692660D01*
X171365333Y-126620088D01*
X171788666Y-126620088D01*
X171958000Y-126692660D01*
X172042666Y-126765231D01*
X172127333Y-126910374D01*
X172127333Y-127055517D01*
X172042666Y-127273231D01*
X171026666Y-128144088D01*
X172127333Y-128144088D01*
X87799333Y-107116517D02*
X88053333Y-107189088D01*
X88476666Y-107189088D01*
X88646000Y-107116517D01*
X88730666Y-107043945D01*
X88815333Y-106898802D01*
X88815333Y-106753660D01*
X88730666Y-106608517D01*
X88646000Y-106535945D01*
X88476666Y-106463374D01*
X88138000Y-106390802D01*
X87968666Y-106318231D01*
X87884000Y-106245660D01*
X87799333Y-106100517D01*
X87799333Y-105955374D01*
X87884000Y-105810231D01*
X87968666Y-105737660D01*
X88138000Y-105665088D01*
X88561333Y-105665088D01*
X88815333Y-105737660D01*
X89408000Y-105665088D02*
X89831333Y-107189088D01*
X90170000Y-106100517D01*
X90508666Y-107189088D01*
X90932000Y-105665088D01*
X91440000Y-105665088D02*
X92540666Y-105665088D01*
X91948000Y-106245660D01*
X92202000Y-106245660D01*
X92371333Y-106318231D01*
X92456000Y-106390802D01*
X92540666Y-106535945D01*
X92540666Y-106898802D01*
X92456000Y-107043945D01*
X92371333Y-107116517D01*
X92202000Y-107189088D01*
X91694000Y-107189088D01*
X91524666Y-107116517D01*
X91440000Y-107043945D01*
X93302666Y-107043945D02*
X93387333Y-107116517D01*
X93302666Y-107189088D01*
X93218000Y-107116517D01*
X93302666Y-107043945D01*
X93302666Y-107189088D01*
X93302666Y-106245660D02*
X93387333Y-106318231D01*
X93302666Y-106390802D01*
X93218000Y-106318231D01*
X93302666Y-106245660D01*
X93302666Y-106390802D01*
X94403333Y-106318231D02*
X94234000Y-106245660D01*
X94149333Y-106173088D01*
X94064666Y-106027945D01*
X94064666Y-105955374D01*
X94149333Y-105810231D01*
X94234000Y-105737660D01*
X94403333Y-105665088D01*
X94742000Y-105665088D01*
X94911333Y-105737660D01*
X94996000Y-105810231D01*
X95080666Y-105955374D01*
X95080666Y-106027945D01*
X94996000Y-106173088D01*
X94911333Y-106245660D01*
X94742000Y-106318231D01*
X94403333Y-106318231D01*
X94234000Y-106390802D01*
X94149333Y-106463374D01*
X94064666Y-106608517D01*
X94064666Y-106898802D01*
X94149333Y-107043945D01*
X94234000Y-107116517D01*
X94403333Y-107189088D01*
X94742000Y-107189088D01*
X94911333Y-107116517D01*
X94996000Y-107043945D01*
X95080666Y-106898802D01*
X95080666Y-106608517D01*
X94996000Y-106463374D01*
X94911333Y-106390802D01*
X94742000Y-106318231D01*
X106849333Y-105846517D02*
X107103333Y-105919088D01*
X107526666Y-105919088D01*
X107696000Y-105846517D01*
X107780666Y-105773945D01*
X107865333Y-105628802D01*
X107865333Y-105483660D01*
X107780666Y-105338517D01*
X107696000Y-105265945D01*
X107526666Y-105193374D01*
X107188000Y-105120802D01*
X107018666Y-105048231D01*
X106934000Y-104975660D01*
X106849333Y-104830517D01*
X106849333Y-104685374D01*
X106934000Y-104540231D01*
X107018666Y-104467660D01*
X107188000Y-104395088D01*
X107611333Y-104395088D01*
X107865333Y-104467660D01*
X108458000Y-104395088D02*
X108881333Y-105919088D01*
X109220000Y-104830517D01*
X109558666Y-105919088D01*
X109982000Y-104395088D01*
X110490000Y-104395088D02*
X111590666Y-104395088D01*
X110998000Y-104975660D01*
X111252000Y-104975660D01*
X111421333Y-105048231D01*
X111506000Y-105120802D01*
X111590666Y-105265945D01*
X111590666Y-105628802D01*
X111506000Y-105773945D01*
X111421333Y-105846517D01*
X111252000Y-105919088D01*
X110744000Y-105919088D01*
X110574666Y-105846517D01*
X110490000Y-105773945D01*
X112352666Y-105773945D02*
X112437333Y-105846517D01*
X112352666Y-105919088D01*
X112268000Y-105846517D01*
X112352666Y-105773945D01*
X112352666Y-105919088D01*
X112352666Y-104975660D02*
X112437333Y-105048231D01*
X112352666Y-105120802D01*
X112268000Y-105048231D01*
X112352666Y-104975660D01*
X112352666Y-105120802D01*
X113284000Y-105919088D02*
X113622666Y-105919088D01*
X113792000Y-105846517D01*
X113876666Y-105773945D01*
X114046000Y-105556231D01*
X114130666Y-105265945D01*
X114130666Y-104685374D01*
X114046000Y-104540231D01*
X113961333Y-104467660D01*
X113792000Y-104395088D01*
X113453333Y-104395088D01*
X113284000Y-104467660D01*
X113199333Y-104540231D01*
X113114666Y-104685374D01*
X113114666Y-105048231D01*
X113199333Y-105193374D01*
X113284000Y-105265945D01*
X113453333Y-105338517D01*
X113792000Y-105338517D01*
X113961333Y-105265945D01*
X114046000Y-105193374D01*
X114130666Y-105048231D01*
X125052666Y-104248857D02*
X125306666Y-104321428D01*
X125730000Y-104321428D01*
X125899333Y-104248857D01*
X125984000Y-104176285D01*
X126068666Y-104031142D01*
X126068666Y-103886000D01*
X125984000Y-103740857D01*
X125899333Y-103668285D01*
X125730000Y-103595714D01*
X125391333Y-103523142D01*
X125222000Y-103450571D01*
X125137333Y-103378000D01*
X125052666Y-103232857D01*
X125052666Y-103087714D01*
X125137333Y-102942571D01*
X125222000Y-102870000D01*
X125391333Y-102797428D01*
X125814666Y-102797428D01*
X126068666Y-102870000D01*
X126661333Y-102797428D02*
X127084666Y-104321428D01*
X127423333Y-103232857D01*
X127762000Y-104321428D01*
X128185333Y-102797428D01*
X128693333Y-102797428D02*
X129794000Y-102797428D01*
X129201333Y-103378000D01*
X129455333Y-103378000D01*
X129624666Y-103450571D01*
X129709333Y-103523142D01*
X129794000Y-103668285D01*
X129794000Y-104031142D01*
X129709333Y-104176285D01*
X129624666Y-104248857D01*
X129455333Y-104321428D01*
X128947333Y-104321428D01*
X128778000Y-104248857D01*
X128693333Y-104176285D01*
X130556000Y-104176285D02*
X130640666Y-104248857D01*
X130556000Y-104321428D01*
X130471333Y-104248857D01*
X130556000Y-104176285D01*
X130556000Y-104321428D01*
X130556000Y-103378000D02*
X130640666Y-103450571D01*
X130556000Y-103523142D01*
X130471333Y-103450571D01*
X130556000Y-103378000D01*
X130556000Y-103523142D01*
X132334000Y-104321428D02*
X131318000Y-104321428D01*
X131826000Y-104321428D02*
X131826000Y-102797428D01*
X131656666Y-103015142D01*
X131487333Y-103160285D01*
X131318000Y-103232857D01*
X133434666Y-102797428D02*
X133604000Y-102797428D01*
X133773333Y-102870000D01*
X133858000Y-102942571D01*
X133942666Y-103087714D01*
X134027333Y-103378000D01*
X134027333Y-103740857D01*
X133942666Y-104031142D01*
X133858000Y-104176285D01*
X133773333Y-104248857D01*
X133604000Y-104321428D01*
X133434666Y-104321428D01*
X133265333Y-104248857D01*
X133180666Y-104176285D01*
X133096000Y-104031142D01*
X133011333Y-103740857D01*
X133011333Y-103378000D01*
X133096000Y-103087714D01*
X133180666Y-102942571D01*
X133265333Y-102870000D01*
X133434666Y-102797428D01*
X144102666Y-105846517D02*
X144356666Y-105919088D01*
X144780000Y-105919088D01*
X144949333Y-105846517D01*
X145034000Y-105773945D01*
X145118666Y-105628802D01*
X145118666Y-105483660D01*
X145034000Y-105338517D01*
X144949333Y-105265945D01*
X144780000Y-105193374D01*
X144441333Y-105120802D01*
X144272000Y-105048231D01*
X144187333Y-104975660D01*
X144102666Y-104830517D01*
X144102666Y-104685374D01*
X144187333Y-104540231D01*
X144272000Y-104467660D01*
X144441333Y-104395088D01*
X144864666Y-104395088D01*
X145118666Y-104467660D01*
X145711333Y-104395088D02*
X146134666Y-105919088D01*
X146473333Y-104830517D01*
X146812000Y-105919088D01*
X147235333Y-104395088D01*
X147743333Y-104395088D02*
X148844000Y-104395088D01*
X148251333Y-104975660D01*
X148505333Y-104975660D01*
X148674666Y-105048231D01*
X148759333Y-105120802D01*
X148844000Y-105265945D01*
X148844000Y-105628802D01*
X148759333Y-105773945D01*
X148674666Y-105846517D01*
X148505333Y-105919088D01*
X147997333Y-105919088D01*
X147828000Y-105846517D01*
X147743333Y-105773945D01*
X149606000Y-105773945D02*
X149690666Y-105846517D01*
X149606000Y-105919088D01*
X149521333Y-105846517D01*
X149606000Y-105773945D01*
X149606000Y-105919088D01*
X149606000Y-104975660D02*
X149690666Y-105048231D01*
X149606000Y-105120802D01*
X149521333Y-105048231D01*
X149606000Y-104975660D01*
X149606000Y-105120802D01*
X151384000Y-105919088D02*
X150368000Y-105919088D01*
X150876000Y-105919088D02*
X150876000Y-104395088D01*
X150706666Y-104612802D01*
X150537333Y-104757945D01*
X150368000Y-104830517D01*
X153077333Y-105919088D02*
X152061333Y-105919088D01*
X152569333Y-105919088D02*
X152569333Y-104395088D01*
X152400000Y-104612802D01*
X152230666Y-104757945D01*
X152061333Y-104830517D01*
X106849333Y-86796517D02*
X107103333Y-86869088D01*
X107526666Y-86869088D01*
X107696000Y-86796517D01*
X107780666Y-86723945D01*
X107865333Y-86578802D01*
X107865333Y-86433660D01*
X107780666Y-86288517D01*
X107696000Y-86215945D01*
X107526666Y-86143374D01*
X107188000Y-86070802D01*
X107018666Y-85998231D01*
X106934000Y-85925660D01*
X106849333Y-85780517D01*
X106849333Y-85635374D01*
X106934000Y-85490231D01*
X107018666Y-85417660D01*
X107188000Y-85345088D01*
X107611333Y-85345088D01*
X107865333Y-85417660D01*
X108458000Y-85345088D02*
X108881333Y-86869088D01*
X109220000Y-85780517D01*
X109558666Y-86869088D01*
X109982000Y-85345088D01*
X111421333Y-85853088D02*
X111421333Y-86869088D01*
X110998000Y-85272517D02*
X110574666Y-86361088D01*
X111675333Y-86361088D01*
X112352666Y-86723945D02*
X112437333Y-86796517D01*
X112352666Y-86869088D01*
X112268000Y-86796517D01*
X112352666Y-86723945D01*
X112352666Y-86869088D01*
X112352666Y-85925660D02*
X112437333Y-85998231D01*
X112352666Y-86070802D01*
X112268000Y-85998231D01*
X112352666Y-85925660D01*
X112352666Y-86070802D01*
X113284000Y-86869088D02*
X113622666Y-86869088D01*
X113792000Y-86796517D01*
X113876666Y-86723945D01*
X114046000Y-86506231D01*
X114130666Y-86215945D01*
X114130666Y-85635374D01*
X114046000Y-85490231D01*
X113961333Y-85417660D01*
X113792000Y-85345088D01*
X113453333Y-85345088D01*
X113284000Y-85417660D01*
X113199333Y-85490231D01*
X113114666Y-85635374D01*
X113114666Y-85998231D01*
X113199333Y-86143374D01*
X113284000Y-86215945D01*
X113453333Y-86288517D01*
X113792000Y-86288517D01*
X113961333Y-86215945D01*
X114046000Y-86143374D01*
X114130666Y-85998231D01*
X125052666Y-85198857D02*
X125306666Y-85271428D01*
X125730000Y-85271428D01*
X125899333Y-85198857D01*
X125984000Y-85126285D01*
X126068666Y-84981142D01*
X126068666Y-84836000D01*
X125984000Y-84690857D01*
X125899333Y-84618285D01*
X125730000Y-84545714D01*
X125391333Y-84473142D01*
X125222000Y-84400571D01*
X125137333Y-84328000D01*
X125052666Y-84182857D01*
X125052666Y-84037714D01*
X125137333Y-83892571D01*
X125222000Y-83820000D01*
X125391333Y-83747428D01*
X125814666Y-83747428D01*
X126068666Y-83820000D01*
X126661333Y-83747428D02*
X127084666Y-85271428D01*
X127423333Y-84182857D01*
X127762000Y-85271428D01*
X128185333Y-83747428D01*
X129624666Y-84255428D02*
X129624666Y-85271428D01*
X129201333Y-83674857D02*
X128778000Y-84763428D01*
X129878666Y-84763428D01*
X130556000Y-85126285D02*
X130640666Y-85198857D01*
X130556000Y-85271428D01*
X130471333Y-85198857D01*
X130556000Y-85126285D01*
X130556000Y-85271428D01*
X130556000Y-84328000D02*
X130640666Y-84400571D01*
X130556000Y-84473142D01*
X130471333Y-84400571D01*
X130556000Y-84328000D01*
X130556000Y-84473142D01*
X132334000Y-85271428D02*
X131318000Y-85271428D01*
X131826000Y-85271428D02*
X131826000Y-83747428D01*
X131656666Y-83965142D01*
X131487333Y-84110285D01*
X131318000Y-84182857D01*
X133434666Y-83747428D02*
X133604000Y-83747428D01*
X133773333Y-83820000D01*
X133858000Y-83892571D01*
X133942666Y-84037714D01*
X134027333Y-84328000D01*
X134027333Y-84690857D01*
X133942666Y-84981142D01*
X133858000Y-85126285D01*
X133773333Y-85198857D01*
X133604000Y-85271428D01*
X133434666Y-85271428D01*
X133265333Y-85198857D01*
X133180666Y-85126285D01*
X133096000Y-84981142D01*
X133011333Y-84690857D01*
X133011333Y-84328000D01*
X133096000Y-84037714D01*
X133180666Y-83892571D01*
X133265333Y-83820000D01*
X133434666Y-83747428D01*
X163152666Y-89971517D02*
X163406666Y-90044088D01*
X163830000Y-90044088D01*
X163999333Y-89971517D01*
X164084000Y-89898945D01*
X164168666Y-89753802D01*
X164168666Y-89608660D01*
X164084000Y-89463517D01*
X163999333Y-89390945D01*
X163830000Y-89318374D01*
X163491333Y-89245802D01*
X163322000Y-89173231D01*
X163237333Y-89100660D01*
X163152666Y-88955517D01*
X163152666Y-88810374D01*
X163237333Y-88665231D01*
X163322000Y-88592660D01*
X163491333Y-88520088D01*
X163914666Y-88520088D01*
X164168666Y-88592660D01*
X164761333Y-88520088D02*
X165184666Y-90044088D01*
X165523333Y-88955517D01*
X165862000Y-90044088D01*
X166285333Y-88520088D01*
X167724666Y-89028088D02*
X167724666Y-90044088D01*
X167301333Y-88447517D02*
X166878000Y-89536088D01*
X167978666Y-89536088D01*
X168656000Y-89898945D02*
X168740666Y-89971517D01*
X168656000Y-90044088D01*
X168571333Y-89971517D01*
X168656000Y-89898945D01*
X168656000Y-90044088D01*
X168656000Y-89100660D02*
X168740666Y-89173231D01*
X168656000Y-89245802D01*
X168571333Y-89173231D01*
X168656000Y-89100660D01*
X168656000Y-89245802D01*
X170434000Y-90044088D02*
X169418000Y-90044088D01*
X169926000Y-90044088D02*
X169926000Y-88520088D01*
X169756666Y-88737802D01*
X169587333Y-88882945D01*
X169418000Y-88955517D01*
X171111333Y-88665231D02*
X171196000Y-88592660D01*
X171365333Y-88520088D01*
X171788666Y-88520088D01*
X171958000Y-88592660D01*
X172042666Y-88665231D01*
X172127333Y-88810374D01*
X172127333Y-88955517D01*
X172042666Y-89173231D01*
X171026666Y-90044088D01*
X172127333Y-90044088D01*
X144102666Y-143946517D02*
X144356666Y-144019088D01*
X144780000Y-144019088D01*
X144949333Y-143946517D01*
X145034000Y-143873945D01*
X145118666Y-143728802D01*
X145118666Y-143583660D01*
X145034000Y-143438517D01*
X144949333Y-143365945D01*
X144780000Y-143293374D01*
X144441333Y-143220802D01*
X144272000Y-143148231D01*
X144187333Y-143075660D01*
X144102666Y-142930517D01*
X144102666Y-142785374D01*
X144187333Y-142640231D01*
X144272000Y-142567660D01*
X144441333Y-142495088D01*
X144864666Y-142495088D01*
X145118666Y-142567660D01*
X145711333Y-142495088D02*
X146134666Y-144019088D01*
X146473333Y-142930517D01*
X146812000Y-144019088D01*
X147235333Y-142495088D01*
X148844000Y-144019088D02*
X147828000Y-144019088D01*
X148336000Y-144019088D02*
X148336000Y-142495088D01*
X148166666Y-142712802D01*
X147997333Y-142857945D01*
X147828000Y-142930517D01*
X149606000Y-143873945D02*
X149690666Y-143946517D01*
X149606000Y-144019088D01*
X149521333Y-143946517D01*
X149606000Y-143873945D01*
X149606000Y-144019088D01*
X149606000Y-143075660D02*
X149690666Y-143148231D01*
X149606000Y-143220802D01*
X149521333Y-143148231D01*
X149606000Y-143075660D01*
X149606000Y-143220802D01*
X151384000Y-144019088D02*
X150368000Y-144019088D01*
X150876000Y-144019088D02*
X150876000Y-142495088D01*
X150706666Y-142712802D01*
X150537333Y-142857945D01*
X150368000Y-142930517D01*
X153077333Y-144019088D02*
X152061333Y-144019088D01*
X152569333Y-144019088D02*
X152569333Y-142495088D01*
X152400000Y-142712802D01*
X152230666Y-142857945D01*
X152061333Y-142930517D01*
X106849333Y-67746517D02*
X107103333Y-67819088D01*
X107526666Y-67819088D01*
X107696000Y-67746517D01*
X107780666Y-67673945D01*
X107865333Y-67528802D01*
X107865333Y-67383660D01*
X107780666Y-67238517D01*
X107696000Y-67165945D01*
X107526666Y-67093374D01*
X107188000Y-67020802D01*
X107018666Y-66948231D01*
X106934000Y-66875660D01*
X106849333Y-66730517D01*
X106849333Y-66585374D01*
X106934000Y-66440231D01*
X107018666Y-66367660D01*
X107188000Y-66295088D01*
X107611333Y-66295088D01*
X107865333Y-66367660D01*
X108458000Y-66295088D02*
X108881333Y-67819088D01*
X109220000Y-66730517D01*
X109558666Y-67819088D01*
X109982000Y-66295088D01*
X111506000Y-66295088D02*
X110659333Y-66295088D01*
X110574666Y-67020802D01*
X110659333Y-66948231D01*
X110828666Y-66875660D01*
X111252000Y-66875660D01*
X111421333Y-66948231D01*
X111506000Y-67020802D01*
X111590666Y-67165945D01*
X111590666Y-67528802D01*
X111506000Y-67673945D01*
X111421333Y-67746517D01*
X111252000Y-67819088D01*
X110828666Y-67819088D01*
X110659333Y-67746517D01*
X110574666Y-67673945D01*
X112352666Y-67673945D02*
X112437333Y-67746517D01*
X112352666Y-67819088D01*
X112268000Y-67746517D01*
X112352666Y-67673945D01*
X112352666Y-67819088D01*
X112352666Y-66875660D02*
X112437333Y-66948231D01*
X112352666Y-67020802D01*
X112268000Y-66948231D01*
X112352666Y-66875660D01*
X112352666Y-67020802D01*
X113284000Y-67819088D02*
X113622666Y-67819088D01*
X113792000Y-67746517D01*
X113876666Y-67673945D01*
X114046000Y-67456231D01*
X114130666Y-67165945D01*
X114130666Y-66585374D01*
X114046000Y-66440231D01*
X113961333Y-66367660D01*
X113792000Y-66295088D01*
X113453333Y-66295088D01*
X113284000Y-66367660D01*
X113199333Y-66440231D01*
X113114666Y-66585374D01*
X113114666Y-66948231D01*
X113199333Y-67093374D01*
X113284000Y-67165945D01*
X113453333Y-67238517D01*
X113792000Y-67238517D01*
X113961333Y-67165945D01*
X114046000Y-67093374D01*
X114130666Y-66948231D01*
X125052666Y-66148857D02*
X125306666Y-66221428D01*
X125730000Y-66221428D01*
X125899333Y-66148857D01*
X125984000Y-66076285D01*
X126068666Y-65931142D01*
X126068666Y-65786000D01*
X125984000Y-65640857D01*
X125899333Y-65568285D01*
X125730000Y-65495714D01*
X125391333Y-65423142D01*
X125222000Y-65350571D01*
X125137333Y-65278000D01*
X125052666Y-65132857D01*
X125052666Y-64987714D01*
X125137333Y-64842571D01*
X125222000Y-64770000D01*
X125391333Y-64697428D01*
X125814666Y-64697428D01*
X126068666Y-64770000D01*
X126661333Y-64697428D02*
X127084666Y-66221428D01*
X127423333Y-65132857D01*
X127762000Y-66221428D01*
X128185333Y-64697428D01*
X129709333Y-64697428D02*
X128862666Y-64697428D01*
X128778000Y-65423142D01*
X128862666Y-65350571D01*
X129032000Y-65278000D01*
X129455333Y-65278000D01*
X129624666Y-65350571D01*
X129709333Y-65423142D01*
X129794000Y-65568285D01*
X129794000Y-65931142D01*
X129709333Y-66076285D01*
X129624666Y-66148857D01*
X129455333Y-66221428D01*
X129032000Y-66221428D01*
X128862666Y-66148857D01*
X128778000Y-66076285D01*
X130556000Y-66076285D02*
X130640666Y-66148857D01*
X130556000Y-66221428D01*
X130471333Y-66148857D01*
X130556000Y-66076285D01*
X130556000Y-66221428D01*
X130556000Y-65278000D02*
X130640666Y-65350571D01*
X130556000Y-65423142D01*
X130471333Y-65350571D01*
X130556000Y-65278000D01*
X130556000Y-65423142D01*
X132334000Y-66221428D02*
X131318000Y-66221428D01*
X131826000Y-66221428D02*
X131826000Y-64697428D01*
X131656666Y-64915142D01*
X131487333Y-65060285D01*
X131318000Y-65132857D01*
X133434666Y-64697428D02*
X133604000Y-64697428D01*
X133773333Y-64770000D01*
X133858000Y-64842571D01*
X133942666Y-64987714D01*
X134027333Y-65278000D01*
X134027333Y-65640857D01*
X133942666Y-65931142D01*
X133858000Y-66076285D01*
X133773333Y-66148857D01*
X133604000Y-66221428D01*
X133434666Y-66221428D01*
X133265333Y-66148857D01*
X133180666Y-66076285D01*
X133096000Y-65931142D01*
X133011333Y-65640857D01*
X133011333Y-65278000D01*
X133096000Y-64987714D01*
X133180666Y-64842571D01*
X133265333Y-64770000D01*
X133434666Y-64697428D01*
X144102666Y-67746517D02*
X144356666Y-67819088D01*
X144780000Y-67819088D01*
X144949333Y-67746517D01*
X145034000Y-67673945D01*
X145118666Y-67528802D01*
X145118666Y-67383660D01*
X145034000Y-67238517D01*
X144949333Y-67165945D01*
X144780000Y-67093374D01*
X144441333Y-67020802D01*
X144272000Y-66948231D01*
X144187333Y-66875660D01*
X144102666Y-66730517D01*
X144102666Y-66585374D01*
X144187333Y-66440231D01*
X144272000Y-66367660D01*
X144441333Y-66295088D01*
X144864666Y-66295088D01*
X145118666Y-66367660D01*
X145711333Y-66295088D02*
X146134666Y-67819088D01*
X146473333Y-66730517D01*
X146812000Y-67819088D01*
X147235333Y-66295088D01*
X148759333Y-66295088D02*
X147912666Y-66295088D01*
X147828000Y-67020802D01*
X147912666Y-66948231D01*
X148082000Y-66875660D01*
X148505333Y-66875660D01*
X148674666Y-66948231D01*
X148759333Y-67020802D01*
X148844000Y-67165945D01*
X148844000Y-67528802D01*
X148759333Y-67673945D01*
X148674666Y-67746517D01*
X148505333Y-67819088D01*
X148082000Y-67819088D01*
X147912666Y-67746517D01*
X147828000Y-67673945D01*
X149606000Y-67673945D02*
X149690666Y-67746517D01*
X149606000Y-67819088D01*
X149521333Y-67746517D01*
X149606000Y-67673945D01*
X149606000Y-67819088D01*
X149606000Y-66875660D02*
X149690666Y-66948231D01*
X149606000Y-67020802D01*
X149521333Y-66948231D01*
X149606000Y-66875660D01*
X149606000Y-67020802D01*
X151384000Y-67819088D02*
X150368000Y-67819088D01*
X150876000Y-67819088D02*
X150876000Y-66295088D01*
X150706666Y-66512802D01*
X150537333Y-66657945D01*
X150368000Y-66730517D01*
X153077333Y-67819088D02*
X152061333Y-67819088D01*
X152569333Y-67819088D02*
X152569333Y-66295088D01*
X152400000Y-66512802D01*
X152230666Y-66657945D01*
X152061333Y-66730517D01*
X163152666Y-70924057D02*
X163406666Y-70996628D01*
X163830000Y-70996628D01*
X163999333Y-70924057D01*
X164084000Y-70851485D01*
X164168666Y-70706342D01*
X164168666Y-70561200D01*
X164084000Y-70416057D01*
X163999333Y-70343485D01*
X163830000Y-70270914D01*
X163491333Y-70198342D01*
X163322000Y-70125771D01*
X163237333Y-70053200D01*
X163152666Y-69908057D01*
X163152666Y-69762914D01*
X163237333Y-69617771D01*
X163322000Y-69545200D01*
X163491333Y-69472628D01*
X163914666Y-69472628D01*
X164168666Y-69545200D01*
X164761333Y-69472628D02*
X165184666Y-70996628D01*
X165523333Y-69908057D01*
X165862000Y-70996628D01*
X166285333Y-69472628D01*
X167809333Y-69472628D02*
X166962666Y-69472628D01*
X166878000Y-70198342D01*
X166962666Y-70125771D01*
X167132000Y-70053200D01*
X167555333Y-70053200D01*
X167724666Y-70125771D01*
X167809333Y-70198342D01*
X167894000Y-70343485D01*
X167894000Y-70706342D01*
X167809333Y-70851485D01*
X167724666Y-70924057D01*
X167555333Y-70996628D01*
X167132000Y-70996628D01*
X166962666Y-70924057D01*
X166878000Y-70851485D01*
X168656000Y-70851485D02*
X168740666Y-70924057D01*
X168656000Y-70996628D01*
X168571333Y-70924057D01*
X168656000Y-70851485D01*
X168656000Y-70996628D01*
X168656000Y-70053200D02*
X168740666Y-70125771D01*
X168656000Y-70198342D01*
X168571333Y-70125771D01*
X168656000Y-70053200D01*
X168656000Y-70198342D01*
X170434000Y-70996628D02*
X169418000Y-70996628D01*
X169926000Y-70996628D02*
X169926000Y-69472628D01*
X169756666Y-69690342D01*
X169587333Y-69835485D01*
X169418000Y-69908057D01*
X171111333Y-69617771D02*
X171196000Y-69545200D01*
X171365333Y-69472628D01*
X171788666Y-69472628D01*
X171958000Y-69545200D01*
X172042666Y-69617771D01*
X172127333Y-69762914D01*
X172127333Y-69908057D01*
X172042666Y-70125771D01*
X171026666Y-70996628D01*
X172127333Y-70996628D01*
X50319936Y-140309742D02*
X50580808Y-140268169D01*
X50964479Y-140089261D01*
X51087277Y-139951925D01*
X51133341Y-139850372D01*
X51148735Y-139683046D01*
X51087395Y-139551502D01*
X50949321Y-139455739D01*
X50841917Y-139425749D01*
X50657778Y-139431540D01*
X50320172Y-139508895D01*
X50136034Y-139514686D01*
X50028630Y-139484696D01*
X49890556Y-139388933D01*
X49829216Y-139257389D01*
X49844610Y-139090064D01*
X49890674Y-138988510D01*
X50013472Y-138851174D01*
X50397142Y-138672266D01*
X50658015Y-138630693D01*
X51164483Y-138314449D02*
X52192223Y-139516754D01*
X52039110Y-138387046D01*
X52806096Y-139230500D01*
X52545696Y-137670379D01*
X53466505Y-137240999D02*
X53619973Y-137169435D01*
X53804111Y-137163644D01*
X53911515Y-137193635D01*
X54049589Y-137289397D01*
X54249003Y-137516703D01*
X54402353Y-137845564D01*
X54448299Y-138144434D01*
X54432905Y-138311759D01*
X54386841Y-138413313D01*
X54264043Y-138550649D01*
X54110575Y-138622212D01*
X53926437Y-138628003D01*
X53819033Y-138598013D01*
X53680959Y-138502250D01*
X53481545Y-138274944D01*
X53328195Y-137946084D01*
X53282249Y-137647214D01*
X53297643Y-137479888D01*
X53343707Y-137378334D01*
X53466505Y-137240999D01*
X55276980Y-137918161D02*
X55384384Y-137948151D01*
X55338320Y-138049705D01*
X55230916Y-138019715D01*
X55276980Y-137918161D01*
X55338320Y-138049705D01*
X54939610Y-137194668D02*
X55047014Y-137224659D01*
X55000950Y-137326212D01*
X54893546Y-137296222D01*
X54939610Y-137194668D01*
X55000950Y-137326212D01*
X55967823Y-136795279D02*
X55783684Y-136801070D01*
X55676280Y-136771080D01*
X55538206Y-136675317D01*
X55507536Y-136609545D01*
X55522930Y-136442219D01*
X55568994Y-136340666D01*
X55691792Y-136203330D01*
X55998729Y-136060203D01*
X56182867Y-136054412D01*
X56290271Y-136084402D01*
X56428345Y-136180165D01*
X56459015Y-136245937D01*
X56443621Y-136413263D01*
X56397557Y-136514816D01*
X56274759Y-136652152D01*
X55967823Y-136795279D01*
X55845024Y-136932614D01*
X55798960Y-137034168D01*
X55783566Y-137201494D01*
X55906246Y-137464582D01*
X56044320Y-137560344D01*
X56151725Y-137590335D01*
X56335863Y-137584543D01*
X56642799Y-137441416D01*
X56765597Y-137304081D01*
X56811661Y-137202527D01*
X56827055Y-137035202D01*
X56704375Y-136772113D01*
X56566301Y-136676351D01*
X56458897Y-136646361D01*
X56274759Y-136652152D01*
X33055556Y-148359002D02*
X33316428Y-148317429D01*
X33700099Y-148138521D01*
X33822897Y-148001185D01*
X33868961Y-147899632D01*
X33884355Y-147732306D01*
X33823015Y-147600762D01*
X33684941Y-147504999D01*
X33577537Y-147475009D01*
X33393398Y-147480800D01*
X33055792Y-147558155D01*
X32871654Y-147563946D01*
X32764250Y-147533956D01*
X32626176Y-147438193D01*
X32564836Y-147306649D01*
X32580230Y-147139324D01*
X32626294Y-147037770D01*
X32749092Y-146900434D01*
X33132762Y-146721526D01*
X33393635Y-146679953D01*
X33900103Y-146363709D02*
X34927843Y-147566014D01*
X34774730Y-146436306D01*
X35541716Y-147279760D01*
X35281316Y-145719639D01*
X36202125Y-145290259D02*
X36355593Y-145218695D01*
X36539731Y-145212904D01*
X36647135Y-145242895D01*
X36785209Y-145338657D01*
X36984623Y-145565963D01*
X37137973Y-145894824D01*
X37183919Y-146193694D01*
X37168525Y-146361019D01*
X37122461Y-146462573D01*
X36999663Y-146599909D01*
X36846195Y-146671472D01*
X36662057Y-146677263D01*
X36554653Y-146647273D01*
X36416579Y-146551510D01*
X36217165Y-146324204D01*
X36063815Y-145995344D01*
X36017869Y-145696474D01*
X36033263Y-145529148D01*
X36079327Y-145427594D01*
X36202125Y-145290259D01*
X38012600Y-145967421D02*
X38120004Y-145997411D01*
X38073940Y-146098965D01*
X37966536Y-146068975D01*
X38012600Y-145967421D01*
X38073940Y-146098965D01*
X37675230Y-145243928D02*
X37782634Y-145273919D01*
X37736570Y-145375472D01*
X37629166Y-145345482D01*
X37675230Y-145243928D01*
X37736570Y-145375472D01*
X38043742Y-144431499D02*
X39118019Y-143930555D01*
X39071483Y-145633803D01*
X48389275Y-183248119D02*
X48650148Y-183206546D01*
X49033818Y-183027638D01*
X49156616Y-182890302D01*
X49202680Y-182788748D01*
X49218074Y-182621423D01*
X49156734Y-182489879D01*
X49018660Y-182394116D01*
X48911256Y-182364126D01*
X48727118Y-182369917D01*
X48389512Y-182447272D01*
X48205373Y-182453063D01*
X48097969Y-182423073D01*
X47959895Y-182327310D01*
X47898555Y-182195766D01*
X47913949Y-182028440D01*
X47960013Y-181926887D01*
X48082811Y-181789551D01*
X48466482Y-181610643D01*
X48727354Y-181569070D01*
X49233822Y-181252826D02*
X50261563Y-182455131D01*
X50108449Y-181325423D01*
X50875435Y-182168877D01*
X50615035Y-180608756D01*
X51535844Y-180179376D02*
X51689312Y-180107812D01*
X51873450Y-180102021D01*
X51980854Y-180132011D01*
X52118929Y-180227774D01*
X52318343Y-180455080D01*
X52471693Y-180783941D01*
X52517639Y-181082810D01*
X52502245Y-181250136D01*
X52456181Y-181351690D01*
X52333382Y-181489025D01*
X52179914Y-181560589D01*
X51995776Y-181566380D01*
X51888372Y-181536390D01*
X51750298Y-181440627D01*
X51550884Y-181213321D01*
X51397534Y-180884460D01*
X51351588Y-180585591D01*
X51366982Y-180418265D01*
X51413046Y-180316711D01*
X51535844Y-180179376D01*
X53346319Y-180856538D02*
X53453723Y-180886528D01*
X53407659Y-180988082D01*
X53300255Y-180958091D01*
X53346319Y-180856538D01*
X53407659Y-180988082D01*
X53008949Y-180133045D02*
X53116353Y-180163036D01*
X53070289Y-180264589D01*
X52962885Y-180234599D01*
X53008949Y-180133045D01*
X53070289Y-180264589D01*
X55019075Y-180236667D02*
X54098266Y-180666047D01*
X54558670Y-180451357D02*
X53914600Y-179070144D01*
X53853142Y-179339023D01*
X53761014Y-179542131D01*
X53638216Y-179679466D01*
X55050217Y-178700744D02*
X55096281Y-178599190D01*
X55219079Y-178461855D01*
X55602749Y-178282947D01*
X55786887Y-178277155D01*
X55894291Y-178307146D01*
X56032366Y-178402908D01*
X56093706Y-178534452D01*
X56108982Y-178767550D01*
X55556213Y-179986195D01*
X56553756Y-179521033D01*
X41104816Y-165623382D02*
X41365688Y-165581809D01*
X41749359Y-165402901D01*
X41872157Y-165265565D01*
X41918221Y-165164012D01*
X41933615Y-164996686D01*
X41872275Y-164865142D01*
X41734201Y-164769379D01*
X41626797Y-164739389D01*
X41442658Y-164745180D01*
X41105052Y-164822535D01*
X40920914Y-164828326D01*
X40813510Y-164798336D01*
X40675436Y-164702573D01*
X40614096Y-164571029D01*
X40629490Y-164403704D01*
X40675554Y-164302150D01*
X40798352Y-164164814D01*
X41182022Y-163985906D01*
X41442895Y-163944333D01*
X41949363Y-163628089D02*
X42977103Y-164830394D01*
X42823990Y-163700686D01*
X43590976Y-164544140D01*
X43330576Y-162984019D01*
X44251385Y-162554639D02*
X44404853Y-162483075D01*
X44588991Y-162477284D01*
X44696395Y-162507275D01*
X44834469Y-162603037D01*
X45033883Y-162830343D01*
X45187233Y-163159204D01*
X45233179Y-163458074D01*
X45217785Y-163625399D01*
X45171721Y-163726953D01*
X45048923Y-163864289D01*
X44895455Y-163935852D01*
X44711317Y-163941643D01*
X44603913Y-163911653D01*
X44465839Y-163815890D01*
X44266425Y-163588584D01*
X44113075Y-163259724D01*
X44067129Y-162960854D01*
X44082523Y-162793528D01*
X44128587Y-162691974D01*
X44251385Y-162554639D01*
X46061860Y-163231801D02*
X46169264Y-163261791D01*
X46123200Y-163363345D01*
X46015796Y-163333355D01*
X46061860Y-163231801D01*
X46123200Y-163363345D01*
X45724490Y-162508308D02*
X45831894Y-162538299D01*
X45785830Y-162639852D01*
X45678426Y-162609862D01*
X45724490Y-162508308D01*
X45785830Y-162639852D01*
X46967275Y-162969747D02*
X47274211Y-162826620D01*
X47397009Y-162689284D01*
X47443073Y-162587731D01*
X47504531Y-162318851D01*
X47458585Y-162019981D01*
X47213225Y-161493805D01*
X47075151Y-161398042D01*
X46967747Y-161368052D01*
X46783609Y-161373843D01*
X46476672Y-161516970D01*
X46353874Y-161654306D01*
X46307810Y-161755859D01*
X46292416Y-161923185D01*
X46445766Y-162252045D01*
X46583840Y-162347808D01*
X46691244Y-162377798D01*
X46875383Y-162372007D01*
X47182319Y-162228880D01*
X47305117Y-162091545D01*
X47351181Y-161989991D01*
X47366575Y-161822665D01*
X87799333Y-88066517D02*
X88053333Y-88139088D01*
X88476666Y-88139088D01*
X88646000Y-88066517D01*
X88730666Y-87993945D01*
X88815333Y-87848802D01*
X88815333Y-87703660D01*
X88730666Y-87558517D01*
X88646000Y-87485945D01*
X88476666Y-87413374D01*
X88138000Y-87340802D01*
X87968666Y-87268231D01*
X87884000Y-87195660D01*
X87799333Y-87050517D01*
X87799333Y-86905374D01*
X87884000Y-86760231D01*
X87968666Y-86687660D01*
X88138000Y-86615088D01*
X88561333Y-86615088D01*
X88815333Y-86687660D01*
X89408000Y-86615088D02*
X89831333Y-88139088D01*
X90170000Y-87050517D01*
X90508666Y-88139088D01*
X90932000Y-86615088D01*
X92371333Y-87123088D02*
X92371333Y-88139088D01*
X91948000Y-86542517D02*
X91524666Y-87631088D01*
X92625333Y-87631088D01*
X93302666Y-87993945D02*
X93387333Y-88066517D01*
X93302666Y-88139088D01*
X93218000Y-88066517D01*
X93302666Y-87993945D01*
X93302666Y-88139088D01*
X93302666Y-87195660D02*
X93387333Y-87268231D01*
X93302666Y-87340802D01*
X93218000Y-87268231D01*
X93302666Y-87195660D01*
X93302666Y-87340802D01*
X94403333Y-87268231D02*
X94234000Y-87195660D01*
X94149333Y-87123088D01*
X94064666Y-86977945D01*
X94064666Y-86905374D01*
X94149333Y-86760231D01*
X94234000Y-86687660D01*
X94403333Y-86615088D01*
X94742000Y-86615088D01*
X94911333Y-86687660D01*
X94996000Y-86760231D01*
X95080666Y-86905374D01*
X95080666Y-86977945D01*
X94996000Y-87123088D01*
X94911333Y-87195660D01*
X94742000Y-87268231D01*
X94403333Y-87268231D01*
X94234000Y-87340802D01*
X94149333Y-87413374D01*
X94064666Y-87558517D01*
X94064666Y-87848802D01*
X94149333Y-87993945D01*
X94234000Y-88066517D01*
X94403333Y-88139088D01*
X94742000Y-88139088D01*
X94911333Y-88066517D01*
X94996000Y-87993945D01*
X95080666Y-87848802D01*
X95080666Y-87558517D01*
X94996000Y-87413374D01*
X94911333Y-87340802D01*
X94742000Y-87268231D01*
X182202666Y-147121517D02*
X182456666Y-147194088D01*
X182880000Y-147194088D01*
X183049333Y-147121517D01*
X183134000Y-147048945D01*
X183218666Y-146903802D01*
X183218666Y-146758660D01*
X183134000Y-146613517D01*
X183049333Y-146540945D01*
X182880000Y-146468374D01*
X182541333Y-146395802D01*
X182372000Y-146323231D01*
X182287333Y-146250660D01*
X182202666Y-146105517D01*
X182202666Y-145960374D01*
X182287333Y-145815231D01*
X182372000Y-145742660D01*
X182541333Y-145670088D01*
X182964666Y-145670088D01*
X183218666Y-145742660D01*
X183811333Y-145670088D02*
X184234666Y-147194088D01*
X184573333Y-146105517D01*
X184912000Y-147194088D01*
X185335333Y-145670088D01*
X186944000Y-147194088D02*
X185928000Y-147194088D01*
X186436000Y-147194088D02*
X186436000Y-145670088D01*
X186266666Y-145887802D01*
X186097333Y-146032945D01*
X185928000Y-146105517D01*
X187706000Y-147048945D02*
X187790666Y-147121517D01*
X187706000Y-147194088D01*
X187621333Y-147121517D01*
X187706000Y-147048945D01*
X187706000Y-147194088D01*
X187706000Y-146250660D02*
X187790666Y-146323231D01*
X187706000Y-146395802D01*
X187621333Y-146323231D01*
X187706000Y-146250660D01*
X187706000Y-146395802D01*
X189484000Y-147194088D02*
X188468000Y-147194088D01*
X188976000Y-147194088D02*
X188976000Y-145670088D01*
X188806666Y-145887802D01*
X188637333Y-146032945D01*
X188468000Y-146105517D01*
X190076666Y-145670088D02*
X191177333Y-145670088D01*
X190584666Y-146250660D01*
X190838666Y-146250660D01*
X191008000Y-146323231D01*
X191092666Y-146395802D01*
X191177333Y-146540945D01*
X191177333Y-146903802D01*
X191092666Y-147048945D01*
X191008000Y-147121517D01*
X190838666Y-147194088D01*
X190330666Y-147194088D01*
X190161333Y-147121517D01*
X190076666Y-147048945D01*
X76308857Y-121125826D02*
X76381428Y-120871826D01*
X76381428Y-120448493D01*
X76308857Y-120279160D01*
X76236285Y-120194493D01*
X76091142Y-120109826D01*
X75946000Y-120109826D01*
X75800857Y-120194493D01*
X75728285Y-120279160D01*
X75655714Y-120448493D01*
X75583142Y-120787160D01*
X75510571Y-120956493D01*
X75438000Y-121041160D01*
X75292857Y-121125826D01*
X75147714Y-121125826D01*
X75002571Y-121041160D01*
X74930000Y-120956493D01*
X74857428Y-120787160D01*
X74857428Y-120363826D01*
X74930000Y-120109826D01*
X74857428Y-119517160D02*
X76381428Y-119093826D01*
X75292857Y-118755160D01*
X76381428Y-118416493D01*
X74857428Y-117993160D01*
X75002571Y-117400493D02*
X74930000Y-117315826D01*
X74857428Y-117146493D01*
X74857428Y-116723160D01*
X74930000Y-116553826D01*
X75002571Y-116469160D01*
X75147714Y-116384493D01*
X75292857Y-116384493D01*
X75510571Y-116469160D01*
X76381428Y-117485160D01*
X76381428Y-116384493D01*
X76236285Y-115622493D02*
X76308857Y-115537826D01*
X76381428Y-115622493D01*
X76308857Y-115707160D01*
X76236285Y-115622493D01*
X76381428Y-115622493D01*
X75438000Y-115622493D02*
X75510571Y-115537826D01*
X75583142Y-115622493D01*
X75510571Y-115707160D01*
X75438000Y-115622493D01*
X75583142Y-115622493D01*
X74857428Y-114945160D02*
X74857428Y-113759826D01*
X76381428Y-114521826D01*
X76308857Y-92550826D02*
X76381428Y-92296826D01*
X76381428Y-91873493D01*
X76308857Y-91704160D01*
X76236285Y-91619493D01*
X76091142Y-91534826D01*
X75946000Y-91534826D01*
X75800857Y-91619493D01*
X75728285Y-91704160D01*
X75655714Y-91873493D01*
X75583142Y-92212160D01*
X75510571Y-92381493D01*
X75438000Y-92466160D01*
X75292857Y-92550826D01*
X75147714Y-92550826D01*
X75002571Y-92466160D01*
X74930000Y-92381493D01*
X74857428Y-92212160D01*
X74857428Y-91788826D01*
X74930000Y-91534826D01*
X74857428Y-90942160D02*
X76381428Y-90518826D01*
X75292857Y-90180160D01*
X76381428Y-89841493D01*
X74857428Y-89418160D01*
X75365428Y-87978826D02*
X76381428Y-87978826D01*
X74784857Y-88402160D02*
X75873428Y-88825493D01*
X75873428Y-87724826D01*
X76236285Y-87047493D02*
X76308857Y-86962826D01*
X76381428Y-87047493D01*
X76308857Y-87132160D01*
X76236285Y-87047493D01*
X76381428Y-87047493D01*
X75438000Y-87047493D02*
X75510571Y-86962826D01*
X75583142Y-87047493D01*
X75510571Y-87132160D01*
X75438000Y-87047493D01*
X75583142Y-87047493D01*
X74857428Y-86370160D02*
X74857428Y-85184826D01*
X76381428Y-85946826D01*
X68749333Y-69019057D02*
X69003333Y-69091628D01*
X69426666Y-69091628D01*
X69596000Y-69019057D01*
X69680666Y-68946485D01*
X69765333Y-68801342D01*
X69765333Y-68656200D01*
X69680666Y-68511057D01*
X69596000Y-68438485D01*
X69426666Y-68365914D01*
X69088000Y-68293342D01*
X68918666Y-68220771D01*
X68834000Y-68148200D01*
X68749333Y-68003057D01*
X68749333Y-67857914D01*
X68834000Y-67712771D01*
X68918666Y-67640200D01*
X69088000Y-67567628D01*
X69511333Y-67567628D01*
X69765333Y-67640200D01*
X70358000Y-67567628D02*
X70781333Y-69091628D01*
X71120000Y-68003057D01*
X71458666Y-69091628D01*
X71882000Y-67567628D01*
X73406000Y-67567628D02*
X72559333Y-67567628D01*
X72474666Y-68293342D01*
X72559333Y-68220771D01*
X72728666Y-68148200D01*
X73152000Y-68148200D01*
X73321333Y-68220771D01*
X73406000Y-68293342D01*
X73490666Y-68438485D01*
X73490666Y-68801342D01*
X73406000Y-68946485D01*
X73321333Y-69019057D01*
X73152000Y-69091628D01*
X72728666Y-69091628D01*
X72559333Y-69019057D01*
X72474666Y-68946485D01*
X74252666Y-68946485D02*
X74337333Y-69019057D01*
X74252666Y-69091628D01*
X74168000Y-69019057D01*
X74252666Y-68946485D01*
X74252666Y-69091628D01*
X74252666Y-68148200D02*
X74337333Y-68220771D01*
X74252666Y-68293342D01*
X74168000Y-68220771D01*
X74252666Y-68148200D01*
X74252666Y-68293342D01*
X74930000Y-67567628D02*
X76115333Y-67567628D01*
X75353333Y-69091628D01*
X163152666Y-109021517D02*
X163406666Y-109094088D01*
X163830000Y-109094088D01*
X163999333Y-109021517D01*
X164084000Y-108948945D01*
X164168666Y-108803802D01*
X164168666Y-108658660D01*
X164084000Y-108513517D01*
X163999333Y-108440945D01*
X163830000Y-108368374D01*
X163491333Y-108295802D01*
X163322000Y-108223231D01*
X163237333Y-108150660D01*
X163152666Y-108005517D01*
X163152666Y-107860374D01*
X163237333Y-107715231D01*
X163322000Y-107642660D01*
X163491333Y-107570088D01*
X163914666Y-107570088D01*
X164168666Y-107642660D01*
X164761333Y-107570088D02*
X165184666Y-109094088D01*
X165523333Y-108005517D01*
X165862000Y-109094088D01*
X166285333Y-107570088D01*
X166793333Y-107570088D02*
X167894000Y-107570088D01*
X167301333Y-108150660D01*
X167555333Y-108150660D01*
X167724666Y-108223231D01*
X167809333Y-108295802D01*
X167894000Y-108440945D01*
X167894000Y-108803802D01*
X167809333Y-108948945D01*
X167724666Y-109021517D01*
X167555333Y-109094088D01*
X167047333Y-109094088D01*
X166878000Y-109021517D01*
X166793333Y-108948945D01*
X168656000Y-108948945D02*
X168740666Y-109021517D01*
X168656000Y-109094088D01*
X168571333Y-109021517D01*
X168656000Y-108948945D01*
X168656000Y-109094088D01*
X168656000Y-108150660D02*
X168740666Y-108223231D01*
X168656000Y-108295802D01*
X168571333Y-108223231D01*
X168656000Y-108150660D01*
X168656000Y-108295802D01*
X170434000Y-109094088D02*
X169418000Y-109094088D01*
X169926000Y-109094088D02*
X169926000Y-107570088D01*
X169756666Y-107787802D01*
X169587333Y-107932945D01*
X169418000Y-108005517D01*
X171111333Y-107715231D02*
X171196000Y-107642660D01*
X171365333Y-107570088D01*
X171788666Y-107570088D01*
X171958000Y-107642660D01*
X172042666Y-107715231D01*
X172127333Y-107860374D01*
X172127333Y-108005517D01*
X172042666Y-108223231D01*
X171026666Y-109094088D01*
X172127333Y-109094088D01*
D10*
X197404761Y-44521428D02*
X197452380Y-44378571D01*
X197452380Y-44140476D01*
X197404761Y-44045238D01*
X197357142Y-43997619D01*
X197261904Y-43950000D01*
X197166666Y-43950000D01*
X197071428Y-43997619D01*
X197023809Y-44045238D01*
X196976190Y-44140476D01*
X196928571Y-44330952D01*
X196880952Y-44426190D01*
X196833333Y-44473809D01*
X196738095Y-44521428D01*
X196642857Y-44521428D01*
X196547619Y-44473809D01*
X196500000Y-44426190D01*
X196452380Y-44330952D01*
X196452380Y-44092857D01*
X196500000Y-43950000D01*
X196452380Y-43616666D02*
X197452380Y-43378571D01*
X196738095Y-43188095D01*
X197452380Y-42997619D01*
X196452380Y-42759523D01*
X197547619Y-42616666D02*
X197547619Y-41854761D01*
X197452380Y-41045238D02*
X196976190Y-41378571D01*
X197452380Y-41616666D02*
X196452380Y-41616666D01*
X196452380Y-41235714D01*
X196500000Y-41140476D01*
X196547619Y-41092857D01*
X196642857Y-41045238D01*
X196785714Y-41045238D01*
X196880952Y-41092857D01*
X196928571Y-41140476D01*
X196976190Y-41235714D01*
X196976190Y-41616666D01*
X197404761Y-40664285D02*
X197452380Y-40521428D01*
X197452380Y-40283333D01*
X197404761Y-40188095D01*
X197357142Y-40140476D01*
X197261904Y-40092857D01*
X197166666Y-40092857D01*
X197071428Y-40140476D01*
X197023809Y-40188095D01*
X196976190Y-40283333D01*
X196928571Y-40473809D01*
X196880952Y-40569047D01*
X196833333Y-40616666D01*
X196738095Y-40664285D01*
X196642857Y-40664285D01*
X196547619Y-40616666D01*
X196500000Y-40569047D01*
X196452380Y-40473809D01*
X196452380Y-40235714D01*
X196500000Y-40092857D01*
X196452380Y-39807142D02*
X196452380Y-39235714D01*
X197452380Y-39521428D02*
X196452380Y-39521428D01*
X197452380Y-38378571D02*
X197452380Y-38950000D01*
X197452380Y-38664285D02*
X196452380Y-38664285D01*
X196595238Y-38759523D01*
X196690476Y-38854761D01*
X196738095Y-38950000D01*
M02*
