M48
INCH,TZ
T1C0.039
T2C0.043
T3C0.067
T4C0.120
T5C0.157
T6C0.251
%
G90
G05
T1
X33980Y-13140
X33980Y-15110
T2
X72750Y-17750
X73750Y-17750
X74750Y-17750
T3
X11848Y-57250
X15017Y-64047
X15474Y-55560
X18187Y-70845
X18643Y-62357
X18645Y-54081
X21813Y-69155
X21815Y-60878
X22271Y-52391
X24367Y-61619
X24984Y-67675
X25441Y-59188
X26057Y-65245
X26500Y-25630
X28500Y-33004
X28500Y-37004
X28500Y-44254
X28500Y-48254
X28610Y-65985
X28612Y-57708
X30500Y-25630
X31164Y-58449
X31782Y-64506
X32238Y-56018
X32854Y-62075
X34000Y-25630
X34000Y-33129
X34000Y-40629
X34000Y-48129
X35408Y-62816
X38000Y-25630
X38000Y-33129
X38000Y-40629
X38000Y-48129
X41500Y-25129
X41500Y-32629
X41500Y-40129
X41500Y-47629
X41500Y-55129
X45500Y-25129
X45500Y-32629
X45500Y-40129
X45500Y-47629
X45500Y-55129
X49000Y-24500
X49000Y-32000
X49000Y-39500
X49000Y-47000
X49000Y-54500
X53000Y-24500
X53000Y-32000
X53000Y-39500
X53000Y-47000
X53000Y-54500
X56500Y-25129
X56500Y-32629
X56500Y-40129
X56500Y-47629
X56500Y-55129
X60500Y-25129
X60500Y-32629
X60500Y-40129
X60500Y-47629
X60500Y-55129
X64000Y-26380
X64000Y-33879
X64000Y-41379
X64000Y-48879
X64000Y-56379
X68000Y-26380
X68000Y-33879
X68000Y-41379
X68000Y-48879
X68000Y-56379
X71500Y-56379
X75500Y-56379
X77375Y-26380
X77375Y-33879
X77375Y-41379
X77375Y-48879
T4
X25718Y-58010
X27530Y-57165
X29691Y-66529
X31503Y-65684
T5
X13661Y-56405
X16830Y-63202
X20000Y-70000
X20280Y-60546
X20458Y-53236
X23628Y-60033
X24253Y-69065
X25212Y-63432
X26797Y-66830
X28500Y-25630
X28500Y-35004
X28500Y-46254
X30425Y-56863
X32009Y-60262
X32968Y-54629
X33595Y-63661
X36000Y-25630
X36000Y-33129
X36000Y-40629
X36000Y-48129
X36941Y-63148
X43500Y-25129
X43500Y-32629
X43500Y-40129
X43500Y-47629
X43500Y-55129
X51000Y-24500
X51000Y-32000
X51000Y-39500
X51000Y-47000
X51000Y-54500
X58500Y-25129
X58500Y-32629
X58500Y-40129
X58500Y-47629
X58500Y-55129
X66000Y-26380
X66000Y-33879
X66000Y-41379
X66000Y-48879
X66000Y-56379
X73500Y-56379
T6
X21220Y-65290
X23490Y-47900
X26540Y-14620
X41510Y-62110
X46540Y-14620
X54740Y-36060
X79190Y-14620
X79440Y-55140
T0
M30
