  0
SECTION
  2
BLOCKS
  0
ENDSEC
  0
SECTION
  2
ENTITIES
  0
LINE
  8
0
 10
40.1631
 20
223.743
 11
42.1145
 21
224.737
  0
LINE
  8
0
 10
42.1145
 20
224.737
 11
43.6631
 21
226.286
  0
LINE
  8
0
 10
43.6631
 20
226.286
 11
44.6574
 21
228.237
  0
LINE
  8
0
 10
44.6574
 20
228.237
 11
45
 21
230.4
  0
LINE
  8
0
 10
45
 20
230.4
 11
45
 21
268.4
  0
LINE
  8
0
 10
45
 20
268.4
 11
44.6574
 21
270.563
  0
LINE
  8
0
 10
44.6574
 20
270.563
 11
37.1574
 21
289.363
  0
LINE
  8
0
 10
37.1574
 20
289.363
 11
36.1631
 21
291.314
  0
LINE
  8
0
 10
36.1631
 20
291.314
 11
34.6145
 21
292.863
  0
LINE
  8
0
 10
34.6145
 20
292.863
 11
32.6631
 21
293.857
  0
LINE
  8
0
 10
32.6631
 20
293.857
 11
30.5
 21
294.2
  0
LINE
  8
0
 10
30.5
 20
294.2
 11
0
 21
294.2
  0
LINE
  8
0
 10
0
 20
294.2
 11
-2.16312
 21
293.857
  0
LINE
  8
0
 10
-2.16312
 20
293.857
 11
-4.11449
 21
292.863
  0
LINE
  8
0
 10
-4.11449
 20
292.863
 11
-5.66312
 21
291.314
  0
LINE
  8
0
 10
-5.66312
 20
291.314
 11
-6.65739
 21
289.363
  0
LINE
  8
0
 10
-6.65739
 20
289.363
 11
-7
 21
287.2
  0
LINE
  8
0
 10
-7
 20
287.2
 11
-7
 21
230.4
  0
LINE
  8
0
 10
-7
 20
230.4
 11
-6.65739
 21
228.237
  0
LINE
  8
0
 10
-6.65739
 20
228.237
 11
-5.66312
 21
226.286
  0
LINE
  8
0
 10
-5.66312
 20
226.286
 11
-4.11449
 21
224.737
  0
LINE
  8
0
 10
-4.11449
 20
224.737
 11
-2.16312
 21
223.743
  0
LINE
  8
0
 10
-2.16312
 20
223.743
 11
0
 21
223.4
  0
LINE
  8
0
 10
0
 20
223.4
 11
38
 21
223.4
  0
LINE
  8
0
 10
38
 20
223.4
 11
40.1631
 21
223.743
  0
LINE
  8
0
 10
-2.93839
 20
288.248
 11
-3.35654
 21
288.461
  0
LINE
  8
0
 10
-3.35654
 20
288.461
 11
-3.68839
 21
288.793
  0
LINE
  8
0
 10
-3.68839
 20
288.793
 11
-3.90144
 21
289.211
  0
LINE
  8
0
 10
-3.90144
 20
289.211
 11
-3.97487
 21
289.675
  0
LINE
  8
0
 10
-3.97487
 20
289.675
 11
-3.90144
 21
290.138
  0
LINE
  8
0
 10
-3.90144
 20
290.138
 11
-3.68839
 21
290.557
  0
LINE
  8
0
 10
-3.68839
 20
290.557
 11
-3.35654
 21
290.888
  0
LINE
  8
0
 10
-3.35654
 20
290.888
 11
-2.93839
 21
291.101
  0
LINE
  8
0
 10
-2.93839
 20
291.101
 11
-2.47487
 21
291.175
  0
LINE
  8
0
 10
-2.47487
 20
291.175
 11
-2.01134
 21
291.101
  0
LINE
  8
0
 10
-2.01134
 20
291.101
 11
-1.59319
 21
290.888
  0
LINE
  8
0
 10
-1.59319
 20
290.888
 11
-1.26134
 21
290.557
  0
LINE
  8
0
 10
-1.26134
 20
290.557
 11
-1.04828
 21
290.138
  0
LINE
  8
0
 10
-1.04828
 20
290.138
 11
-0.974869
 21
289.675
  0
LINE
  8
0
 10
-0.974869
 20
289.675
 11
-1.04828
 21
289.211
  0
LINE
  8
0
 10
-1.04828
 20
289.211
 11
-1.26134
 21
288.793
  0
LINE
  8
0
 10
-1.26134
 20
288.793
 11
-1.59319
 21
288.461
  0
LINE
  8
0
 10
-1.59319
 20
288.461
 11
-2.01134
 21
288.248
  0
LINE
  8
0
 10
-2.01134
 20
288.248
 11
-2.47487
 21
288.175
  0
LINE
  8
0
 10
-2.47487
 20
288.175
 11
-2.93839
 21
288.248
  0
LINE
  8
0
 10
18.9394
 20
277.737
 11
18.6548
 21
277.825
  0
LINE
  8
0
 10
18.6548
 20
277.825
 11
18.427
 21
277.972
  0
LINE
  8
0
 10
18.427
 20
277.972
 11
18.2455
 21
278.2
  0
LINE
  8
0
 10
18.2455
 20
278.2
 11
18.0999
 21
278.534
  0
LINE
  8
0
 10
18.0999
 20
278.534
 11
17.99
 21
278.972
  0
LINE
  8
0
 10
17.99
 20
278.972
 11
17.7746
 21
278.645
  0
LINE
  8
0
 10
17.7746
 20
278.645
 11
17.5175
 21
278.348
  0
LINE
  8
0
 10
17.5175
 20
278.348
 11
17.219
 21
278.083
  0
LINE
  8
0
 10
17.219
 20
278.083
 11
16.885
 21
277.875
  0
LINE
  8
0
 10
16.885
 20
277.875
 11
16.5217
 21
277.75
  0
LINE
  8
0
 10
16.5217
 20
277.75
 11
16.129
 21
277.708
  0
LINE
  8
0
 10
16.129
 20
277.708
 11
15.671
 21
277.738
  0
LINE
  8
0
 10
15.671
 20
277.738
 11
15.261
 21
277.829
  0
LINE
  8
0
 10
15.261
 20
277.829
 11
14.899
 21
277.98
  0
LINE
  8
0
 10
14.899
 20
277.98
 11
14.5815
 21
278.18
  0
LINE
  8
0
 10
14.5815
 20
278.18
 11
14.3039
 21
278.416
  0
LINE
  8
0
 10
14.3039
 20
278.416
 11
14.066
 21
278.687
  0
LINE
  8
0
 10
14.066
 20
278.687
 11
13.8687
 21
278.989
  0
LINE
  8
0
 10
13.8687
 20
278.989
 11
13.7113
 21
279.318
  0
LINE
  8
0
 10
13.7113
 20
279.318
 11
13.594
 21
279.673
  0
LINE
  8
0
 10
13.594
 20
279.673
 11
13.5129
 21
280.042
  0
LINE
  8
0
 10
13.5129
 20
280.042
 11
13.4642
 21
280.413
  0
LINE
  8
0
 10
13.4642
 20
280.413
 11
13.448
 21
280.785
  0
LINE
  8
0
 10
13.448
 20
280.785
 11
13.4719
 21
281.271
  0
LINE
  8
0
 10
13.4719
 20
281.271
 11
13.5435
 21
281.723
  0
LINE
  8
0
 10
13.5435
 20
281.723
 11
13.663
 21
282.141
  0
LINE
  8
0
 10
13.663
 20
282.141
 11
13.8247
 21
282.522
  0
LINE
  8
0
 10
13.8247
 20
282.522
 11
14.0217
 21
282.862
  0
LINE
  8
0
 10
14.0217
 20
282.862
 11
14.254
 21
283.162
  0
LINE
  8
0
 10
14.254
 20
283.162
 11
14.5171
 21
283.421
  0
LINE
  8
0
 10
14.5171
 20
283.421
 11
14.8064
 21
283.638
  0
LINE
  8
0
 10
14.8064
 20
283.638
 11
15.122
 21
283.813
  0
LINE
  8
0
 10
15.122
 20
283.813
 11
15.4576
 21
283.941
  0
LINE
  8
0
 10
15.4576
 20
283.941
 11
15.8069
 21
284.018
  0
LINE
  8
0
 10
15.8069
 20
284.018
 11
16.17
 21
284.044
  0
LINE
  8
0
 10
16.17
 20
284.044
 11
16.4887
 21
284.03
  0
LINE
  8
0
 10
16.4887
 20
284.03
 11
16.778
 21
283.989
  0
LINE
  8
0
 10
16.778
 20
283.989
 11
17.038
 21
283.921
  0
LINE
  8
0
 10
17.038
 20
283.921
 11
17.2726
 21
283.825
  0
LINE
  8
0
 10
17.2726
 20
283.825
 11
17.4855
 21
283.701
  0
LINE
  8
0
 10
17.4855
 20
283.701
 11
17.677
 21
283.549
  0
LINE
  8
0
 10
17.677
 20
283.549
 11
17.8491
 21
283.367
  0
LINE
  8
0
 10
17.8491
 20
283.367
 11
18.0041
 21
283.154
  0
LINE
  8
0
 10
18.0041
 20
283.154
 11
18.142
 21
282.91
  0
LINE
  8
0
 10
18.142
 20
282.91
 11
18.2673
 21
282.633
  0
LINE
  8
0
 10
18.2673
 20
282.633
 11
18.3833
 21
282.318
  0
LINE
  8
0
 10
18.3833
 20
282.318
 11
18.49
 21
281.966
  0
LINE
  8
0
 10
18.49
 20
281.966
 11
18.5601
 21
282.188
  0
LINE
  8
0
 10
18.5601
 20
282.188
 11
18.6224
 21
282.426
  0
LINE
  8
0
 10
18.6224
 20
282.426
 11
18.677
 21
282.681
  0
LINE
  8
0
 10
18.677
 20
282.681
 11
18.7223
 21
282.937
  0
LINE
  8
0
 10
18.7223
 20
282.937
 11
18.757
 21
283.175
  0
LINE
  8
0
 10
18.757
 20
283.175
 11
18.781
 21
283.397
  0
LINE
  8
0
 10
18.781
 20
283.397
 11
18.8142
 21
283.543
  0
LINE
  8
0
 10
18.8142
 20
283.543
 11
18.8765
 21
283.647
  0
LINE
  8
0
 10
18.8765
 20
283.647
 11
18.968
 21
283.709
  0
LINE
  8
0
 10
18.968
 20
283.709
 11
19.1048
 21
283.755
  0
LINE
  8
0
 10
19.1048
 20
283.755
 11
19.3018
 21
283.808
  0
LINE
  8
0
 10
19.3018
 20
283.808
 11
19.559
 21
283.869
  0
LINE
  8
0
 10
19.559
 20
283.869
 11
20.0262
 21
283.971
  0
LINE
  8
0
 10
20.0262
 20
283.971
 11
20.0795
 21
283.978
  0
LINE
  8
0
 10
20.0795
 20
283.978
 11
20.128
 21
283.98
  0
LINE
  8
0
 10
20.128
 20
283.98
 11
20.1935
 21
283.973
  0
LINE
  8
0
 10
20.1935
 20
283.973
 11
20.2422
 21
283.952
  0
LINE
  8
0
 10
20.2422
 20
283.952
 11
20.274
 21
283.917
  0
LINE
  8
0
 10
20.274
 20
283.917
 11
20.2934
 21
283.872
  0
LINE
  8
0
 10
20.2934
 20
283.872
 11
20.3051
 21
283.819
  0
LINE
  8
0
 10
20.3051
 20
283.819
 11
20.309
 21
283.759
  0
LINE
  8
0
 10
20.309
 20
283.759
 11
20.2681
 21
283.401
  0
LINE
  8
0
 10
20.2681
 20
283.401
 11
20.1454
 21
282.956
  0
LINE
  8
0
 10
20.1454
 20
282.956
 11
19.941
 21
282.423
  0
LINE
  8
0
 10
19.941
 20
282.423
 11
19.6702
 21
281.808
  0
LINE
  8
0
 10
19.6702
 20
281.808
 11
19.3485
 21
281.114
  0
LINE
  8
0
 10
19.3485
 20
281.114
 11
18.976
 21
280.342
  0
LINE
  8
0
 10
18.976
 20
280.342
 11
19.0585
 21
279.967
  0
LINE
  8
0
 10
19.0585
 20
279.967
 11
19.1395
 21
279.653
  0
LINE
  8
0
 10
19.1395
 20
279.653
 11
19.219
 21
279.401
  0
LINE
  8
0
 10
19.219
 20
279.401
 11
19.2977
 21
279.198
  0
LINE
  8
0
 10
19.2977
 20
279.198
 11
19.3763
 21
279.032
  0
LINE
  8
0
 10
19.3763
 20
279.032
 11
19.455
 21
278.903
  0
LINE
  8
0
 10
19.455
 20
278.903
 11
19.5337
 21
278.807
  0
LINE
  8
0
 10
19.5337
 20
278.807
 11
19.6123
 21
278.74
  0
LINE
  8
0
 10
19.6123
 20
278.74
 11
19.691
 21
278.702
  0
LINE
  8
0
 10
19.691
 20
278.702
 11
19.7735
 21
278.683
  0
LINE
  8
0
 10
19.7735
 20
278.683
 11
19.8639
 21
278.672
  0
LINE
  8
0
 10
19.8639
 20
278.672
 11
19.962
 21
278.668
  0
LINE
  8
0
 10
19.962
 20
278.668
 11
20.0468
 21
278.674
  0
LINE
  8
0
 10
20.0468
 20
278.674
 11
20.1531
 21
278.692
  0
LINE
  8
0
 10
20.1531
 20
278.692
 11
20.281
 21
278.723
  0
LINE
  8
0
 10
20.281
 20
278.723
 11
20.4167
 21
278.763
  0
LINE
  8
0
 10
20.4167
 20
278.763
 11
20.5463
 21
278.81
  0
LINE
  8
0
 10
20.5463
 20
278.81
 11
20.67
 21
278.862
  0
LINE
  8
0
 10
20.67
 20
278.862
 11
20.7432
 21
278.793
  0
LINE
  8
0
 10
20.7432
 20
278.793
 11
20.7962
 21
278.715
  0
LINE
  8
0
 10
20.7962
 20
278.715
 11
20.829
 21
278.629
  0
LINE
  8
0
 10
20.829
 20
278.629
 11
20.8469
 21
278.544
  0
LINE
  8
0
 10
20.8469
 20
278.544
 11
20.8539
 21
278.469
  0
LINE
  8
0
 10
20.8539
 20
278.469
 11
20.85
 21
278.406
  0
LINE
  8
0
 10
20.85
 20
278.406
 11
20.761
 21
278.311
  0
LINE
  8
0
 10
20.761
 20
278.311
 11
20.6593
 21
278.219
  0
LINE
  8
0
 10
20.6593
 20
278.219
 11
20.545
 21
278.13
  0
LINE
  8
0
 10
20.545
 20
278.13
 11
20.4213
 21
278.047
  0
LINE
  8
0
 10
20.4213
 20
278.047
 11
20.2917
 21
277.971
  0
LINE
  8
0
 10
20.2917
 20
277.971
 11
20.156
 21
277.904
  0
LINE
  8
0
 10
20.156
 20
277.904
 11
20.0149
 21
277.846
  0
LINE
  8
0
 10
20.0149
 20
277.846
 11
19.8689
 21
277.798
  0
LINE
  8
0
 10
19.8689
 20
277.798
 11
19.718
 21
277.759
  0
LINE
  8
0
 10
19.718
 20
277.759
 11
19.5677
 21
277.731
  0
LINE
  8
0
 10
19.5677
 20
277.731
 11
19.422
 21
277.714
  0
LINE
  8
0
 10
19.422
 20
277.714
 11
19.281
 21
277.708
  0
LINE
  8
0
 10
19.281
 20
277.708
 11
18.9394
 21
277.737
  0
LINE
  8
0
 10
16.5674
 20
278.596
 11
16.8524
 21
278.766
  0
LINE
  8
0
 10
16.8524
 20
278.766
 11
17.111
 21
279.048
  0
LINE
  8
0
 10
17.111
 20
279.048
 11
17.3447
 21
279.422
  0
LINE
  8
0
 10
17.3447
 20
279.422
 11
17.555
 21
279.866
  0
LINE
  8
0
 10
17.555
 20
279.866
 11
17.742
 21
280.379
  0
LINE
  8
0
 10
17.742
 20
280.379
 11
17.7076
 21
280.644
  0
LINE
  8
0
 10
17.7076
 20
280.644
 11
17.6589
 21
280.936
  0
LINE
  8
0
 10
17.6589
 20
280.936
 11
17.596
 21
281.256
  0
LINE
  8
0
 10
17.596
 20
281.256
 11
17.5174
 21
281.584
  0
LINE
  8
0
 10
17.5174
 20
281.584
 11
17.4204
 21
281.9
  0
LINE
  8
0
 10
17.4204
 20
281.9
 11
17.305
 21
282.203
  0
LINE
  8
0
 10
17.305
 20
282.203
 11
17.1702
 21
282.486
  0
LINE
  8
0
 10
17.1702
 20
282.486
 11
17.0152
 21
282.739
  0
LINE
  8
0
 10
17.0152
 20
282.739
 11
16.84
 21
282.962
  0
LINE
  8
0
 10
16.84
 20
282.962
 11
16.6423
 21
283.136
  0
LINE
  8
0
 10
16.6423
 20
283.136
 11
16.42
 21
283.241
  0
LINE
  8
0
 10
16.42
 20
283.241
 11
16.173
 21
283.276
  0
LINE
  8
0
 10
16.173
 20
283.276
 11
15.8534
 21
283.215
  0
LINE
  8
0
 10
15.8534
 20
283.215
 11
15.5801
 21
283.032
  0
LINE
  8
0
 10
15.5801
 20
283.032
 11
15.353
 21
282.726
  0
LINE
  8
0
 10
15.353
 20
282.726
 11
15.1835
 21
282.304
  0
LINE
  8
0
 10
15.1835
 20
282.304
 11
15.0819
 21
281.773
  0
LINE
  8
0
 10
15.0819
 20
281.773
 11
15.048
 21
281.131
  0
LINE
  8
0
 10
15.048
 20
281.131
 11
15.0811
 21
280.402
  0
LINE
  8
0
 10
15.0811
 20
280.402
 11
15.1804
 21
279.775
  0
LINE
  8
0
 10
15.1804
 20
279.775
 11
15.346
 21
279.25
  0
LINE
  8
0
 10
15.346
 20
279.25
 11
15.58
 21
278.856
  0
LINE
  8
0
 10
15.58
 20
278.856
 11
15.8833
 21
278.619
  0
LINE
  8
0
 10
15.8833
 20
278.619
 11
16.256
 21
278.54
  0
LINE
  8
0
 10
16.256
 20
278.54
 11
16.5674
 21
278.596
  0
LINE
  8
0
 10
40.0113
 20
269.448
 11
39.5932
 21
269.661
  0
LINE
  8
0
 10
39.5932
 20
269.661
 11
39.2613
 21
269.993
  0
LINE
  8
0
 10
39.2613
 20
269.993
 11
39.0483
 21
270.411
  0
LINE
  8
0
 10
39.0483
 20
270.411
 11
38.9749
 21
270.875
  0
LINE
  8
0
 10
38.9749
 20
270.875
 11
39.0483
 21
271.338
  0
LINE
  8
0
 10
39.0483
 20
271.338
 11
39.2613
 21
271.757
  0
LINE
  8
0
 10
39.2613
 20
271.757
 11
39.5932
 21
272.088
  0
LINE
  8
0
 10
39.5932
 20
272.088
 11
40.0113
 21
272.301
  0
LINE
  8
0
 10
40.0113
 20
272.301
 11
40.4749
 21
272.375
  0
LINE
  8
0
 10
40.4749
 20
272.375
 11
40.9384
 21
272.301
  0
LINE
  8
0
 10
40.9384
 20
272.301
 11
41.3565
 21
272.088
  0
LINE
  8
0
 10
41.3565
 20
272.088
 11
41.6884
 21
271.757
  0
LINE
  8
0
 10
41.6884
 20
271.757
 11
41.9014
 21
271.338
  0
LINE
  8
0
 10
41.9014
 20
271.338
 11
41.9749
 21
270.875
  0
LINE
  8
0
 10
41.9749
 20
270.875
 11
41.9014
 21
270.411
  0
LINE
  8
0
 10
41.9014
 20
270.411
 11
41.6884
 21
269.993
  0
LINE
  8
0
 10
41.6884
 20
269.993
 11
41.3565
 21
269.661
  0
LINE
  8
0
 10
41.3565
 20
269.661
 11
40.9384
 21
269.448
  0
LINE
  8
0
 10
40.9384
 20
269.448
 11
40.4749
 21
269.375
  0
LINE
  8
0
 10
40.4749
 20
269.375
 11
40.0113
 21
269.448
  0
LINE
  8
0
 10
-0.5
 20
229.9
 11
-0.5
 21
268.9
  0
LINE
  8
0
 10
-0.5
 20
268.9
 11
38.5
 21
268.9
  0
LINE
  8
0
 10
38.5
 20
268.9
 11
38.5
 21
229.9
  0
LINE
  8
0
 10
38.5
 20
229.9
 11
-0.5
 21
229.9
  0
LINE
  8
0
 10
-2.93839
 20
226.499
 11
-3.35654
 21
226.712
  0
LINE
  8
0
 10
-3.35654
 20
226.712
 11
-3.68839
 21
227.043
  0
LINE
  8
0
 10
-3.68839
 20
227.043
 11
-3.90144
 21
227.462
  0
LINE
  8
0
 10
-3.90144
 20
227.462
 11
-3.97487
 21
227.925
  0
LINE
  8
0
 10
-3.97487
 20
227.925
 11
-3.90144
 21
228.389
  0
LINE
  8
0
 10
-3.90144
 20
228.389
 11
-3.68839
 21
228.807
  0
LINE
  8
0
 10
-3.68839
 20
228.807
 11
-3.35654
 21
229.139
  0
LINE
  8
0
 10
-3.35654
 20
229.139
 11
-2.93839
 21
229.352
  0
LINE
  8
0
 10
-2.93839
 20
229.352
 11
-2.47487
 21
229.425
  0
LINE
  8
0
 10
-2.47487
 20
229.425
 11
-2.01134
 21
229.352
  0
LINE
  8
0
 10
-2.01134
 20
229.352
 11
-1.59319
 21
229.139
  0
LINE
  8
0
 10
-1.59319
 20
229.139
 11
-1.26134
 21
228.807
  0
LINE
  8
0
 10
-1.26134
 20
228.807
 11
-1.04828
 21
228.389
  0
LINE
  8
0
 10
-1.04828
 20
228.389
 11
-0.974869
 21
227.925
  0
LINE
  8
0
 10
-0.974869
 20
227.925
 11
-1.04828
 21
227.462
  0
LINE
  8
0
 10
-1.04828
 20
227.462
 11
-1.26134
 21
227.043
  0
LINE
  8
0
 10
-1.26134
 20
227.043
 11
-1.59319
 21
226.712
  0
LINE
  8
0
 10
-1.59319
 20
226.712
 11
-2.01134
 21
226.499
  0
LINE
  8
0
 10
-2.01134
 20
226.499
 11
-2.47487
 21
226.425
  0
LINE
  8
0
 10
-2.47487
 20
226.425
 11
-2.93839
 21
226.499
  0
LINE
  8
0
 10
40.0113
 20
226.499
 11
39.5932
 21
226.712
  0
LINE
  8
0
 10
39.5932
 20
226.712
 11
39.2613
 21
227.043
  0
LINE
  8
0
 10
39.2613
 20
227.043
 11
39.0483
 21
227.462
  0
LINE
  8
0
 10
39.0483
 20
227.462
 11
38.9749
 21
227.925
  0
LINE
  8
0
 10
38.9749
 20
227.925
 11
39.0483
 21
228.389
  0
LINE
  8
0
 10
39.0483
 20
228.389
 11
39.2613
 21
228.807
  0
LINE
  8
0
 10
39.2613
 20
228.807
 11
39.5932
 21
229.139
  0
LINE
  8
0
 10
39.5932
 20
229.139
 11
40.0113
 21
229.352
  0
LINE
  8
0
 10
40.0113
 20
229.352
 11
40.4749
 21
229.425
  0
LINE
  8
0
 10
40.4749
 20
229.425
 11
40.9384
 21
229.352
  0
LINE
  8
0
 10
40.9384
 20
229.352
 11
41.3565
 21
229.139
  0
LINE
  8
0
 10
41.3565
 20
229.139
 11
41.6884
 21
228.807
  0
LINE
  8
0
 10
41.6884
 20
228.807
 11
41.9014
 21
228.389
  0
LINE
  8
0
 10
41.9014
 20
228.389
 11
41.9749
 21
227.925
  0
LINE
  8
0
 10
41.9749
 20
227.925
 11
41.9014
 21
227.462
  0
LINE
  8
0
 10
41.9014
 20
227.462
 11
41.6884
 21
227.043
  0
LINE
  8
0
 10
41.6884
 20
227.043
 11
41.3565
 21
226.712
  0
LINE
  8
0
 10
41.3565
 20
226.712
 11
40.9384
 21
226.499
  0
LINE
  8
0
 10
40.9384
 20
226.499
 11
40.4749
 21
226.425
  0
LINE
  8
0
 10
40.4749
 20
226.425
 11
40.0113
 21
226.499
  0
LINE
  8
0
 10
99.1631
 20
146.943
 11
101.114
 21
147.937
  0
LINE
  8
0
 10
101.114
 20
147.937
 11
102.663
 21
149.486
  0
LINE
  8
0
 10
102.663
 20
149.486
 11
103.657
 21
151.437
  0
LINE
  8
0
 10
103.657
 20
151.437
 11
104
 21
153.6
  0
LINE
  8
0
 10
104
 20
153.6
 11
104
 21
191.6
  0
LINE
  8
0
 10
104
 20
191.6
 11
103.657
 21
193.763
  0
LINE
  8
0
 10
103.657
 20
193.763
 11
96.1574
 21
212.563
  0
LINE
  8
0
 10
96.1574
 20
212.563
 11
95.1631
 21
214.514
  0
LINE
  8
0
 10
95.1631
 20
214.514
 11
93.6145
 21
216.063
  0
LINE
  8
0
 10
93.6145
 20
216.063
 11
91.6631
 21
217.057
  0
LINE
  8
0
 10
91.6631
 20
217.057
 11
89.5
 21
217.4
  0
LINE
  8
0
 10
89.5
 20
217.4
 11
59
 21
217.4
  0
LINE
  8
0
 10
59
 20
217.4
 11
56.8369
 21
217.057
  0
LINE
  8
0
 10
56.8369
 20
217.057
 11
54.8855
 21
216.063
  0
LINE
  8
0
 10
54.8855
 20
216.063
 11
53.3369
 21
214.514
  0
LINE
  8
0
 10
53.3369
 20
214.514
 11
52.3426
 21
212.563
  0
LINE
  8
0
 10
52.3426
 20
212.563
 11
52
 21
210.4
  0
LINE
  8
0
 10
52
 20
210.4
 11
52
 21
153.6
  0
LINE
  8
0
 10
52
 20
153.6
 11
52.3426
 21
151.437
  0
LINE
  8
0
 10
52.3426
 20
151.437
 11
53.3369
 21
149.486
  0
LINE
  8
0
 10
53.3369
 20
149.486
 11
54.8855
 21
147.937
  0
LINE
  8
0
 10
54.8855
 20
147.937
 11
56.8369
 21
146.943
  0
LINE
  8
0
 10
56.8369
 20
146.943
 11
59
 21
146.6
  0
LINE
  8
0
 10
59
 20
146.6
 11
97
 21
146.6
  0
LINE
  8
0
 10
97
 20
146.6
 11
99.1631
 21
146.943
  0
LINE
  8
0
 10
56.0616
 20
211.448
 11
55.6435
 21
211.661
  0
LINE
  8
0
 10
55.6435
 20
211.661
 11
55.3116
 21
211.993
  0
LINE
  8
0
 10
55.3116
 20
211.993
 11
55.0986
 21
212.411
  0
LINE
  8
0
 10
55.0986
 20
212.411
 11
55.0251
 21
212.875
  0
LINE
  8
0
 10
55.0251
 20
212.875
 11
55.0986
 21
213.338
  0
LINE
  8
0
 10
55.0986
 20
213.338
 11
55.3116
 21
213.757
  0
LINE
  8
0
 10
55.3116
 20
213.757
 11
55.6435
 21
214.088
  0
LINE
  8
0
 10
55.6435
 20
214.088
 11
56.0616
 21
214.301
  0
LINE
  8
0
 10
56.0616
 20
214.301
 11
56.5251
 21
214.375
  0
LINE
  8
0
 10
56.5251
 20
214.375
 11
56.9887
 21
214.301
  0
LINE
  8
0
 10
56.9887
 20
214.301
 11
57.4068
 21
214.088
  0
LINE
  8
0
 10
57.4068
 20
214.088
 11
57.7387
 21
213.757
  0
LINE
  8
0
 10
57.7387
 20
213.757
 11
57.9517
 21
213.338
  0
LINE
  8
0
 10
57.9517
 20
213.338
 11
58.0251
 21
212.875
  0
LINE
  8
0
 10
58.0251
 20
212.875
 11
57.9517
 21
212.411
  0
LINE
  8
0
 10
57.9517
 20
212.411
 11
57.7387
 21
211.993
  0
LINE
  8
0
 10
57.7387
 20
211.993
 11
57.4068
 21
211.661
  0
LINE
  8
0
 10
57.4068
 20
211.661
 11
56.9887
 21
211.448
  0
LINE
  8
0
 10
56.9887
 20
211.448
 11
56.5251
 21
211.375
  0
LINE
  8
0
 10
56.5251
 20
211.375
 11
56.0616
 21
211.448
  0
LINE
  8
0
 10
89.5
 20
210.4
 11
94.5
 21
189.1
  0
LINE
  8
0
 10
94.5
 20
189.1
 11
94.5
 21
156.1
  0
LINE
  8
0
 10
94.5
 20
156.1
 11
61.5
 21
156.1
  0
LINE
  8
0
 10
61.5
 20
156.1
 11
59
 21
192.6
  0
LINE
  8
0
 10
59
 20
192.6
 11
62.5
 21
192.6
  0
LINE
  8
0
 10
62.5
 20
192.6
 11
62.5
 21
210.4
  0
LINE
  8
0
 10
62.5
 20
210.4
 11
86
 21
210.4
  0
LINE
  8
0
 10
86
 20
210.4
 11
86
 21
192.6
  0
LINE
  8
0
 10
86
 20
192.6
 11
89.5
 21
192.6
  0
LINE
  8
0
 10
89.5
 20
192.6
 11
89.5
 21
210.4
  0
LINE
  8
0
 10
99.0113
 20
192.648
 11
98.5932
 21
192.861
  0
LINE
  8
0
 10
98.5932
 20
192.861
 11
98.2613
 21
193.193
  0
LINE
  8
0
 10
98.2613
 20
193.193
 11
98.0483
 21
193.611
  0
LINE
  8
0
 10
98.0483
 20
193.611
 11
97.9749
 21
194.075
  0
LINE
  8
0
 10
97.9749
 20
194.075
 11
98.0483
 21
194.538
  0
LINE
  8
0
 10
98.0483
 20
194.538
 11
98.2613
 21
194.957
  0
LINE
  8
0
 10
98.2613
 20
194.957
 11
98.5932
 21
195.288
  0
LINE
  8
0
 10
98.5932
 20
195.288
 11
99.0113
 21
195.501
  0
LINE
  8
0
 10
99.0113
 20
195.501
 11
99.4749
 21
195.575
  0
LINE
  8
0
 10
99.4749
 20
195.575
 11
99.9384
 21
195.501
  0
LINE
  8
0
 10
99.9384
 20
195.501
 11
100.357
 21
195.288
  0
LINE
  8
0
 10
100.357
 20
195.288
 11
100.688
 21
194.957
  0
LINE
  8
0
 10
100.688
 20
194.957
 11
100.901
 21
194.538
  0
LINE
  8
0
 10
100.901
 20
194.538
 11
100.975
 21
194.075
  0
LINE
  8
0
 10
100.975
 20
194.075
 11
100.901
 21
193.611
  0
LINE
  8
0
 10
100.901
 20
193.611
 11
100.688
 21
193.193
  0
LINE
  8
0
 10
100.688
 20
193.193
 11
100.357
 21
192.861
  0
LINE
  8
0
 10
100.357
 20
192.861
 11
99.9384
 21
192.648
  0
LINE
  8
0
 10
99.9384
 20
192.648
 11
99.4749
 21
192.575
  0
LINE
  8
0
 10
99.4749
 20
192.575
 11
99.0113
 21
192.648
  0
LINE
  8
0
 10
99.0113
 20
149.699
 11
98.5932
 21
149.912
  0
LINE
  8
0
 10
98.5932
 20
149.912
 11
98.2613
 21
150.243
  0
LINE
  8
0
 10
98.2613
 20
150.243
 11
98.0483
 21
150.662
  0
LINE
  8
0
 10
98.0483
 20
150.662
 11
97.9749
 21
151.125
  0
LINE
  8
0
 10
97.9749
 20
151.125
 11
98.0483
 21
151.589
  0
LINE
  8
0
 10
98.0483
 20
151.589
 11
98.2613
 21
152.007
  0
LINE
  8
0
 10
98.2613
 20
152.007
 11
98.5932
 21
152.339
  0
LINE
  8
0
 10
98.5932
 20
152.339
 11
99.0113
 21
152.552
  0
LINE
  8
0
 10
99.0113
 20
152.552
 11
99.4749
 21
152.625
  0
LINE
  8
0
 10
99.4749
 20
152.625
 11
99.9384
 21
152.552
  0
LINE
  8
0
 10
99.9384
 20
152.552
 11
100.357
 21
152.339
  0
LINE
  8
0
 10
100.357
 20
152.339
 11
100.688
 21
152.007
  0
LINE
  8
0
 10
100.688
 20
152.007
 11
100.901
 21
151.589
  0
LINE
  8
0
 10
100.901
 20
151.589
 11
100.975
 21
151.125
  0
LINE
  8
0
 10
100.975
 20
151.125
 11
100.901
 21
150.662
  0
LINE
  8
0
 10
100.901
 20
150.662
 11
100.688
 21
150.243
  0
LINE
  8
0
 10
100.688
 20
150.243
 11
100.357
 21
149.912
  0
LINE
  8
0
 10
100.357
 20
149.912
 11
99.9384
 21
149.699
  0
LINE
  8
0
 10
99.9384
 20
149.699
 11
99.4749
 21
149.625
  0
LINE
  8
0
 10
99.4749
 20
149.625
 11
99.0113
 21
149.699
  0
LINE
  8
0
 10
56.0616
 20
149.699
 11
55.6435
 21
149.912
  0
LINE
  8
0
 10
55.6435
 20
149.912
 11
55.3116
 21
150.243
  0
LINE
  8
0
 10
55.3116
 20
150.243
 11
55.0986
 21
150.662
  0
LINE
  8
0
 10
55.0986
 20
150.662
 11
55.0251
 21
151.125
  0
LINE
  8
0
 10
55.0251
 20
151.125
 11
55.0986
 21
151.589
  0
LINE
  8
0
 10
55.0986
 20
151.589
 11
55.3116
 21
152.007
  0
LINE
  8
0
 10
55.3116
 20
152.007
 11
55.6435
 21
152.339
  0
LINE
  8
0
 10
55.6435
 20
152.339
 11
56.0616
 21
152.552
  0
LINE
  8
0
 10
56.0616
 20
152.552
 11
56.5251
 21
152.625
  0
LINE
  8
0
 10
56.5251
 20
152.625
 11
56.9887
 21
152.552
  0
LINE
  8
0
 10
56.9887
 20
152.552
 11
57.4068
 21
152.339
  0
LINE
  8
0
 10
57.4068
 20
152.339
 11
57.7387
 21
152.007
  0
LINE
  8
0
 10
57.7387
 20
152.007
 11
57.9517
 21
151.589
  0
LINE
  8
0
 10
57.9517
 20
151.589
 11
58.0251
 21
151.125
  0
LINE
  8
0
 10
58.0251
 20
151.125
 11
57.9517
 21
150.662
  0
LINE
  8
0
 10
57.9517
 20
150.662
 11
57.7387
 21
150.243
  0
LINE
  8
0
 10
57.7387
 20
150.243
 11
57.4068
 21
149.912
  0
LINE
  8
0
 10
57.4068
 20
149.912
 11
56.9887
 21
149.699
  0
LINE
  8
0
 10
56.9887
 20
149.699
 11
56.5251
 21
149.625
  0
LINE
  8
0
 10
56.5251
 20
149.625
 11
56.0616
 21
149.699
  0
LINE
  8
0
 10
40.1631
 20
146.943
 11
42.1145
 21
147.937
  0
LINE
  8
0
 10
42.1145
 20
147.937
 11
43.6631
 21
149.486
  0
LINE
  8
0
 10
43.6631
 20
149.486
 11
44.6574
 21
151.437
  0
LINE
  8
0
 10
44.6574
 20
151.437
 11
45
 21
153.6
  0
LINE
  8
0
 10
45
 20
153.6
 11
45
 21
191.6
  0
LINE
  8
0
 10
45
 20
191.6
 11
44.6574
 21
193.763
  0
LINE
  8
0
 10
44.6574
 20
193.763
 11
37.1574
 21
212.563
  0
LINE
  8
0
 10
37.1574
 20
212.563
 11
36.1631
 21
214.514
  0
LINE
  8
0
 10
36.1631
 20
214.514
 11
34.6145
 21
216.063
  0
LINE
  8
0
 10
34.6145
 20
216.063
 11
32.6631
 21
217.057
  0
LINE
  8
0
 10
32.6631
 20
217.057
 11
30.5
 21
217.4
  0
LINE
  8
0
 10
30.5
 20
217.4
 11
0
 21
217.4
  0
LINE
  8
0
 10
0
 20
217.4
 11
-2.16312
 21
217.057
  0
LINE
  8
0
 10
-2.16312
 20
217.057
 11
-4.11449
 21
216.063
  0
LINE
  8
0
 10
-4.11449
 20
216.063
 11
-5.66312
 21
214.514
  0
LINE
  8
0
 10
-5.66312
 20
214.514
 11
-6.65739
 21
212.563
  0
LINE
  8
0
 10
-6.65739
 20
212.563
 11
-7
 21
210.4
  0
LINE
  8
0
 10
-7
 20
210.4
 11
-7
 21
153.6
  0
LINE
  8
0
 10
-7
 20
153.6
 11
-6.65739
 21
151.437
  0
LINE
  8
0
 10
-6.65739
 20
151.437
 11
-5.66312
 21
149.486
  0
LINE
  8
0
 10
-5.66312
 20
149.486
 11
-4.11449
 21
147.937
  0
LINE
  8
0
 10
-4.11449
 20
147.937
 11
-2.16312
 21
146.943
  0
LINE
  8
0
 10
-2.16312
 20
146.943
 11
0
 21
146.6
  0
LINE
  8
0
 10
0
 20
146.6
 11
38
 21
146.6
  0
LINE
  8
0
 10
38
 20
146.6
 11
40.1631
 21
146.943
  0
LINE
  8
0
 10
-2.93839
 20
211.448
 11
-3.35654
 21
211.661
  0
LINE
  8
0
 10
-3.35654
 20
211.661
 11
-3.68839
 21
211.993
  0
LINE
  8
0
 10
-3.68839
 20
211.993
 11
-3.90144
 21
212.411
  0
LINE
  8
0
 10
-3.90144
 20
212.411
 11
-3.97487
 21
212.875
  0
LINE
  8
0
 10
-3.97487
 20
212.875
 11
-3.90144
 21
213.338
  0
LINE
  8
0
 10
-3.90144
 20
213.338
 11
-3.68839
 21
213.757
  0
LINE
  8
0
 10
-3.68839
 20
213.757
 11
-3.35654
 21
214.088
  0
LINE
  8
0
 10
-3.35654
 20
214.088
 11
-2.93839
 21
214.301
  0
LINE
  8
0
 10
-2.93839
 20
214.301
 11
-2.47487
 21
214.375
  0
LINE
  8
0
 10
-2.47487
 20
214.375
 11
-2.01134
 21
214.301
  0
LINE
  8
0
 10
-2.01134
 20
214.301
 11
-1.59319
 21
214.088
  0
LINE
  8
0
 10
-1.59319
 20
214.088
 11
-1.26134
 21
213.757
  0
LINE
  8
0
 10
-1.26134
 20
213.757
 11
-1.04828
 21
213.338
  0
LINE
  8
0
 10
-1.04828
 20
213.338
 11
-0.974869
 21
212.875
  0
LINE
  8
0
 10
-0.974869
 20
212.875
 11
-1.04828
 21
212.411
  0
LINE
  8
0
 10
-1.04828
 20
212.411
 11
-1.26134
 21
211.993
  0
LINE
  8
0
 10
-1.26134
 20
211.993
 11
-1.59319
 21
211.661
  0
LINE
  8
0
 10
-1.59319
 20
211.661
 11
-2.01134
 21
211.448
  0
LINE
  8
0
 10
-2.01134
 20
211.448
 11
-2.47487
 21
211.375
  0
LINE
  8
0
 10
-2.47487
 20
211.375
 11
-2.93839
 21
211.448
  0
LINE
  8
0
 10
40.0113
 20
192.648
 11
39.5932
 21
192.861
  0
LINE
  8
0
 10
39.5932
 20
192.861
 11
39.2613
 21
193.193
  0
LINE
  8
0
 10
39.2613
 20
193.193
 11
39.0483
 21
193.611
  0
LINE
  8
0
 10
39.0483
 20
193.611
 11
38.9749
 21
194.075
  0
LINE
  8
0
 10
38.9749
 20
194.075
 11
39.0483
 21
194.538
  0
LINE
  8
0
 10
39.0483
 20
194.538
 11
39.2613
 21
194.957
  0
LINE
  8
0
 10
39.2613
 20
194.957
 11
39.5932
 21
195.288
  0
LINE
  8
0
 10
39.5932
 20
195.288
 11
40.0113
 21
195.501
  0
LINE
  8
0
 10
40.0113
 20
195.501
 11
40.4749
 21
195.575
  0
LINE
  8
0
 10
40.4749
 20
195.575
 11
40.9384
 21
195.501
  0
LINE
  8
0
 10
40.9384
 20
195.501
 11
41.3565
 21
195.288
  0
LINE
  8
0
 10
41.3565
 20
195.288
 11
41.6884
 21
194.957
  0
LINE
  8
0
 10
41.6884
 20
194.957
 11
41.9014
 21
194.538
  0
LINE
  8
0
 10
41.9014
 20
194.538
 11
41.9749
 21
194.075
  0
LINE
  8
0
 10
41.9749
 20
194.075
 11
41.9014
 21
193.611
  0
LINE
  8
0
 10
41.9014
 20
193.611
 11
41.6884
 21
193.193
  0
LINE
  8
0
 10
41.6884
 20
193.193
 11
41.3565
 21
192.861
  0
LINE
  8
0
 10
41.3565
 20
192.861
 11
40.9384
 21
192.648
  0
LINE
  8
0
 10
40.9384
 20
192.648
 11
40.4749
 21
192.575
  0
LINE
  8
0
 10
40.4749
 20
192.575
 11
40.0113
 21
192.648
  0
LINE
  8
0
 10
40.0113
 20
149.699
 11
39.5932
 21
149.912
  0
LINE
  8
0
 10
39.5932
 20
149.912
 11
39.2613
 21
150.243
  0
LINE
  8
0
 10
39.2613
 20
150.243
 11
39.0483
 21
150.662
  0
LINE
  8
0
 10
39.0483
 20
150.662
 11
38.9749
 21
151.125
  0
LINE
  8
0
 10
38.9749
 20
151.125
 11
39.0483
 21
151.589
  0
LINE
  8
0
 10
39.0483
 20
151.589
 11
39.2613
 21
152.007
  0
LINE
  8
0
 10
39.2613
 20
152.007
 11
39.5932
 21
152.339
  0
LINE
  8
0
 10
39.5932
 20
152.339
 11
40.0113
 21
152.552
  0
LINE
  8
0
 10
40.0113
 20
152.552
 11
40.4749
 21
152.625
  0
LINE
  8
0
 10
40.4749
 20
152.625
 11
40.9384
 21
152.552
  0
LINE
  8
0
 10
40.9384
 20
152.552
 11
41.3565
 21
152.339
  0
LINE
  8
0
 10
41.3565
 20
152.339
 11
41.6884
 21
152.007
  0
LINE
  8
0
 10
41.6884
 20
152.007
 11
41.9014
 21
151.589
  0
LINE
  8
0
 10
41.9014
 20
151.589
 11
41.9749
 21
151.125
  0
LINE
  8
0
 10
41.9749
 20
151.125
 11
41.9014
 21
150.662
  0
LINE
  8
0
 10
41.9014
 20
150.662
 11
41.6884
 21
150.243
  0
LINE
  8
0
 10
41.6884
 20
150.243
 11
41.3565
 21
149.912
  0
LINE
  8
0
 10
41.3565
 20
149.912
 11
40.9384
 21
149.699
  0
LINE
  8
0
 10
40.9384
 20
149.699
 11
40.4749
 21
149.625
  0
LINE
  8
0
 10
40.4749
 20
149.625
 11
40.0113
 21
149.699
  0
LINE
  8
0
 10
-2.93839
 20
149.699
 11
-3.35654
 21
149.912
  0
LINE
  8
0
 10
-3.35654
 20
149.912
 11
-3.68839
 21
150.243
  0
LINE
  8
0
 10
-3.68839
 20
150.243
 11
-3.90144
 21
150.662
  0
LINE
  8
0
 10
-3.90144
 20
150.662
 11
-3.97487
 21
151.125
  0
LINE
  8
0
 10
-3.97487
 20
151.125
 11
-3.90144
 21
151.589
  0
LINE
  8
0
 10
-3.90144
 20
151.589
 11
-3.68839
 21
152.007
  0
LINE
  8
0
 10
-3.68839
 20
152.007
 11
-3.35654
 21
152.339
  0
LINE
  8
0
 10
-3.35654
 20
152.339
 11
-2.93839
 21
152.552
  0
LINE
  8
0
 10
-2.93839
 20
152.552
 11
-2.47487
 21
152.625
  0
LINE
  8
0
 10
-2.47487
 20
152.625
 11
-2.01134
 21
152.552
  0
LINE
  8
0
 10
-2.01134
 20
152.552
 11
-1.59319
 21
152.339
  0
LINE
  8
0
 10
-1.59319
 20
152.339
 11
-1.26134
 21
152.007
  0
LINE
  8
0
 10
-1.26134
 20
152.007
 11
-1.04828
 21
151.589
  0
LINE
  8
0
 10
-1.04828
 20
151.589
 11
-0.974869
 21
151.125
  0
LINE
  8
0
 10
-0.974869
 20
151.125
 11
-1.04828
 21
150.662
  0
LINE
  8
0
 10
-1.04828
 20
150.662
 11
-1.26134
 21
150.243
  0
LINE
  8
0
 10
-1.26134
 20
150.243
 11
-1.59319
 21
149.912
  0
LINE
  8
0
 10
-1.59319
 20
149.912
 11
-2.01134
 21
149.699
  0
LINE
  8
0
 10
-2.01134
 20
149.699
 11
-2.47487
 21
149.625
  0
LINE
  8
0
 10
-2.47487
 20
149.625
 11
-2.93839
 21
149.699
  0
LINE
  8
0
 10
99.1631
 20
70.1426
 11
101.114
 21
71.1369
  0
LINE
  8
0
 10
101.114
 20
71.1369
 11
102.663
 21
72.6855
  0
LINE
  8
0
 10
102.663
 20
72.6855
 11
103.657
 21
74.6369
  0
LINE
  8
0
 10
103.657
 20
74.6369
 11
104
 21
76.8
  0
LINE
  8
0
 10
104
 20
76.8
 11
104
 21
114.8
  0
LINE
  8
0
 10
104
 20
114.8
 11
103.657
 21
116.963
  0
LINE
  8
0
 10
103.657
 20
116.963
 11
96.1574
 21
135.763
  0
LINE
  8
0
 10
96.1574
 20
135.763
 11
95.1631
 21
137.714
  0
LINE
  8
0
 10
95.1631
 20
137.714
 11
93.6145
 21
139.263
  0
LINE
  8
0
 10
93.6145
 20
139.263
 11
91.6631
 21
140.257
  0
LINE
  8
0
 10
91.6631
 20
140.257
 11
89.5
 21
140.6
  0
LINE
  8
0
 10
89.5
 20
140.6
 11
59
 21
140.6
  0
LINE
  8
0
 10
59
 20
140.6
 11
56.8369
 21
140.257
  0
LINE
  8
0
 10
56.8369
 20
140.257
 11
54.8855
 21
139.263
  0
LINE
  8
0
 10
54.8855
 20
139.263
 11
53.3369
 21
137.714
  0
LINE
  8
0
 10
53.3369
 20
137.714
 11
52.3426
 21
135.763
  0
LINE
  8
0
 10
52.3426
 20
135.763
 11
52
 21
133.6
  0
LINE
  8
0
 10
52
 20
133.6
 11
52
 21
76.8
  0
LINE
  8
0
 10
52
 20
76.8
 11
52.3426
 21
74.6369
  0
LINE
  8
0
 10
52.3426
 20
74.6369
 11
53.3369
 21
72.6855
  0
LINE
  8
0
 10
53.3369
 20
72.6855
 11
54.8855
 21
71.1369
  0
LINE
  8
0
 10
54.8855
 20
71.1369
 11
56.8369
 21
70.1426
  0
LINE
  8
0
 10
56.8369
 20
70.1426
 11
59
 21
69.8
  0
LINE
  8
0
 10
59
 20
69.8
 11
97
 21
69.8
  0
LINE
  8
0
 10
97
 20
69.8
 11
99.1631
 21
70.1426
  0
LINE
  8
0
 10
56.0616
 20
134.648
 11
55.6435
 21
134.861
  0
LINE
  8
0
 10
55.6435
 20
134.861
 11
55.3116
 21
135.193
  0
LINE
  8
0
 10
55.3116
 20
135.193
 11
55.0986
 21
135.611
  0
LINE
  8
0
 10
55.0986
 20
135.611
 11
55.0251
 21
136.075
  0
LINE
  8
0
 10
55.0251
 20
136.075
 11
55.0986
 21
136.538
  0
LINE
  8
0
 10
55.0986
 20
136.538
 11
55.3116
 21
136.957
  0
LINE
  8
0
 10
55.3116
 20
136.957
 11
55.6435
 21
137.288
  0
LINE
  8
0
 10
55.6435
 20
137.288
 11
56.0616
 21
137.501
  0
LINE
  8
0
 10
56.0616
 20
137.501
 11
56.5251
 21
137.575
  0
LINE
  8
0
 10
56.5251
 20
137.575
 11
56.9887
 21
137.501
  0
LINE
  8
0
 10
56.9887
 20
137.501
 11
57.4068
 21
137.288
  0
LINE
  8
0
 10
57.4068
 20
137.288
 11
57.7387
 21
136.957
  0
LINE
  8
0
 10
57.7387
 20
136.957
 11
57.9517
 21
136.538
  0
LINE
  8
0
 10
57.9517
 20
136.538
 11
58.0251
 21
136.075
  0
LINE
  8
0
 10
58.0251
 20
136.075
 11
57.9517
 21
135.611
  0
LINE
  8
0
 10
57.9517
 20
135.611
 11
57.7387
 21
135.193
  0
LINE
  8
0
 10
57.7387
 20
135.193
 11
57.4068
 21
134.861
  0
LINE
  8
0
 10
57.4068
 20
134.861
 11
56.9887
 21
134.648
  0
LINE
  8
0
 10
56.9887
 20
134.648
 11
56.5251
 21
134.575
  0
LINE
  8
0
 10
56.5251
 20
134.575
 11
56.0616
 21
134.648
  0
LINE
  8
0
 10
61.5
 20
79.3
 11
59
 21
115.8
  0
LINE
  8
0
 10
59
 20
115.8
 11
59
 21
133.6
  0
LINE
  8
0
 10
59
 20
133.6
 11
89.5
 21
133.6
  0
LINE
  8
0
 10
89.5
 20
133.6
 11
94.5
 21
112.3
  0
LINE
  8
0
 10
94.5
 20
112.3
 11
94.5
 21
79.3
  0
LINE
  8
0
 10
94.5
 20
79.3
 11
61.5
 21
79.3
  0
LINE
  8
0
 10
99.0113
 20
115.848
 11
98.5932
 21
116.061
  0
LINE
  8
0
 10
98.5932
 20
116.061
 11
98.2613
 21
116.393
  0
LINE
  8
0
 10
98.2613
 20
116.393
 11
98.0483
 21
116.811
  0
LINE
  8
0
 10
98.0483
 20
116.811
 11
97.9749
 21
117.275
  0
LINE
  8
0
 10
97.9749
 20
117.275
 11
98.0483
 21
117.738
  0
LINE
  8
0
 10
98.0483
 20
117.738
 11
98.2613
 21
118.157
  0
LINE
  8
0
 10
98.2613
 20
118.157
 11
98.5932
 21
118.488
  0
LINE
  8
0
 10
98.5932
 20
118.488
 11
99.0113
 21
118.701
  0
LINE
  8
0
 10
99.0113
 20
118.701
 11
99.4749
 21
118.775
  0
LINE
  8
0
 10
99.4749
 20
118.775
 11
99.9384
 21
118.701
  0
LINE
  8
0
 10
99.9384
 20
118.701
 11
100.357
 21
118.488
  0
LINE
  8
0
 10
100.357
 20
118.488
 11
100.688
 21
118.157
  0
LINE
  8
0
 10
100.688
 20
118.157
 11
100.901
 21
117.738
  0
LINE
  8
0
 10
100.901
 20
117.738
 11
100.975
 21
117.275
  0
LINE
  8
0
 10
100.975
 20
117.275
 11
100.901
 21
116.811
  0
LINE
  8
0
 10
100.901
 20
116.811
 11
100.688
 21
116.393
  0
LINE
  8
0
 10
100.688
 20
116.393
 11
100.357
 21
116.061
  0
LINE
  8
0
 10
100.357
 20
116.061
 11
99.9384
 21
115.848
  0
LINE
  8
0
 10
99.9384
 20
115.848
 11
99.4749
 21
115.775
  0
LINE
  8
0
 10
99.4749
 20
115.775
 11
99.0113
 21
115.848
  0
LINE
  8
0
 10
56.0616
 20
72.8985
 11
55.6435
 21
73.1116
  0
LINE
  8
0
 10
55.6435
 20
73.1116
 11
55.3116
 21
73.4435
  0
LINE
  8
0
 10
55.3116
 20
73.4435
 11
55.0986
 21
73.8616
  0
LINE
  8
0
 10
55.0986
 20
73.8616
 11
55.0251
 21
74.3251
  0
LINE
  8
0
 10
55.0251
 20
74.3251
 11
55.0986
 21
74.7887
  0
LINE
  8
0
 10
55.0986
 20
74.7887
 11
55.3116
 21
75.2068
  0
LINE
  8
0
 10
55.3116
 20
75.2068
 11
55.6435
 21
75.5387
  0
LINE
  8
0
 10
55.6435
 20
75.5387
 11
56.0616
 21
75.7517
  0
LINE
  8
0
 10
56.0616
 20
75.7517
 11
56.5251
 21
75.8251
  0
LINE
  8
0
 10
56.5251
 20
75.8251
 11
56.9887
 21
75.7517
  0
LINE
  8
0
 10
56.9887
 20
75.7517
 11
57.4068
 21
75.5387
  0
LINE
  8
0
 10
57.4068
 20
75.5387
 11
57.7387
 21
75.2068
  0
LINE
  8
0
 10
57.7387
 20
75.2068
 11
57.9517
 21
74.7887
  0
LINE
  8
0
 10
57.9517
 20
74.7887
 11
58.0251
 21
74.3251
  0
LINE
  8
0
 10
58.0251
 20
74.3251
 11
57.9517
 21
73.8616
  0
LINE
  8
0
 10
57.9517
 20
73.8616
 11
57.7387
 21
73.4435
  0
LINE
  8
0
 10
57.7387
 20
73.4435
 11
57.4068
 21
73.1116
  0
LINE
  8
0
 10
57.4068
 20
73.1116
 11
56.9887
 21
72.8985
  0
LINE
  8
0
 10
56.9887
 20
72.8985
 11
56.5251
 21
72.8251
  0
LINE
  8
0
 10
56.5251
 20
72.8251
 11
56.0616
 21
72.8985
  0
LINE
  8
0
 10
99.0113
 20
72.8985
 11
98.5932
 21
73.1116
  0
LINE
  8
0
 10
98.5932
 20
73.1116
 11
98.2613
 21
73.4435
  0
LINE
  8
0
 10
98.2613
 20
73.4435
 11
98.0483
 21
73.8616
  0
LINE
  8
0
 10
98.0483
 20
73.8616
 11
97.9749
 21
74.3251
  0
LINE
  8
0
 10
97.9749
 20
74.3251
 11
98.0483
 21
74.7887
  0
LINE
  8
0
 10
98.0483
 20
74.7887
 11
98.2613
 21
75.2068
  0
LINE
  8
0
 10
98.2613
 20
75.2068
 11
98.5932
 21
75.5387
  0
LINE
  8
0
 10
98.5932
 20
75.5387
 11
99.0113
 21
75.7517
  0
LINE
  8
0
 10
99.0113
 20
75.7517
 11
99.4749
 21
75.8251
  0
LINE
  8
0
 10
99.4749
 20
75.8251
 11
99.9384
 21
75.7517
  0
LINE
  8
0
 10
99.9384
 20
75.7517
 11
100.357
 21
75.5387
  0
LINE
  8
0
 10
100.357
 20
75.5387
 11
100.688
 21
75.2068
  0
LINE
  8
0
 10
100.688
 20
75.2068
 11
100.901
 21
74.7887
  0
LINE
  8
0
 10
100.901
 20
74.7887
 11
100.975
 21
74.3251
  0
LINE
  8
0
 10
100.975
 20
74.3251
 11
100.901
 21
73.8616
  0
LINE
  8
0
 10
100.901
 20
73.8616
 11
100.688
 21
73.4435
  0
LINE
  8
0
 10
100.688
 20
73.4435
 11
100.357
 21
73.1116
  0
LINE
  8
0
 10
100.357
 20
73.1116
 11
99.9384
 21
72.8985
  0
LINE
  8
0
 10
99.9384
 20
72.8985
 11
99.4749
 21
72.8251
  0
LINE
  8
0
 10
99.4749
 20
72.8251
 11
99.0113
 21
72.8985
  0
LINE
  8
0
 10
40.1631
 20
70.1426
 11
42.1145
 21
71.1369
  0
LINE
  8
0
 10
42.1145
 20
71.1369
 11
43.6631
 21
72.6855
  0
LINE
  8
0
 10
43.6631
 20
72.6855
 11
44.6574
 21
74.6369
  0
LINE
  8
0
 10
44.6574
 20
74.6369
 11
45
 21
76.8
  0
LINE
  8
0
 10
45
 20
76.8
 11
45
 21
114.8
  0
LINE
  8
0
 10
45
 20
114.8
 11
44.6574
 21
116.963
  0
LINE
  8
0
 10
44.6574
 20
116.963
 11
37.1574
 21
135.763
  0
LINE
  8
0
 10
37.1574
 20
135.763
 11
36.1631
 21
137.714
  0
LINE
  8
0
 10
36.1631
 20
137.714
 11
34.6145
 21
139.263
  0
LINE
  8
0
 10
34.6145
 20
139.263
 11
32.6631
 21
140.257
  0
LINE
  8
0
 10
32.6631
 20
140.257
 11
30.5
 21
140.6
  0
LINE
  8
0
 10
30.5
 20
140.6
 11
0
 21
140.6
  0
LINE
  8
0
 10
0
 20
140.6
 11
-2.16312
 21
140.257
  0
LINE
  8
0
 10
-2.16312
 20
140.257
 11
-4.11449
 21
139.263
  0
LINE
  8
0
 10
-4.11449
 20
139.263
 11
-5.66312
 21
137.714
  0
LINE
  8
0
 10
-5.66312
 20
137.714
 11
-6.65739
 21
135.763
  0
LINE
  8
0
 10
-6.65739
 20
135.763
 11
-7
 21
133.6
  0
LINE
  8
0
 10
-7
 20
133.6
 11
-7
 21
76.8
  0
LINE
  8
0
 10
-7
 20
76.8
 11
-6.65739
 21
74.6369
  0
LINE
  8
0
 10
-6.65739
 20
74.6369
 11
-5.66312
 21
72.6855
  0
LINE
  8
0
 10
-5.66312
 20
72.6855
 11
-4.11449
 21
71.1369
  0
LINE
  8
0
 10
-4.11449
 20
71.1369
 11
-2.16312
 21
70.1426
  0
LINE
  8
0
 10
-2.16312
 20
70.1426
 11
0
 21
69.8
  0
LINE
  8
0
 10
0
 20
69.8
 11
38
 21
69.8
  0
LINE
  8
0
 10
38
 20
69.8
 11
40.1631
 21
70.1426
  0
LINE
  8
0
 10
-2.93839
 20
134.648
 11
-3.35654
 21
134.861
  0
LINE
  8
0
 10
-3.35654
 20
134.861
 11
-3.68839
 21
135.193
  0
LINE
  8
0
 10
-3.68839
 20
135.193
 11
-3.90144
 21
135.611
  0
LINE
  8
0
 10
-3.90144
 20
135.611
 11
-3.97487
 21
136.075
  0
LINE
  8
0
 10
-3.97487
 20
136.075
 11
-3.90144
 21
136.538
  0
LINE
  8
0
 10
-3.90144
 20
136.538
 11
-3.68839
 21
136.957
  0
LINE
  8
0
 10
-3.68839
 20
136.957
 11
-3.35654
 21
137.288
  0
LINE
  8
0
 10
-3.35654
 20
137.288
 11
-2.93839
 21
137.501
  0
LINE
  8
0
 10
-2.93839
 20
137.501
 11
-2.47487
 21
137.575
  0
LINE
  8
0
 10
-2.47487
 20
137.575
 11
-2.01134
 21
137.501
  0
LINE
  8
0
 10
-2.01134
 20
137.501
 11
-1.59319
 21
137.288
  0
LINE
  8
0
 10
-1.59319
 20
137.288
 11
-1.26134
 21
136.957
  0
LINE
  8
0
 10
-1.26134
 20
136.957
 11
-1.04828
 21
136.538
  0
LINE
  8
0
 10
-1.04828
 20
136.538
 11
-0.974869
 21
136.075
  0
LINE
  8
0
 10
-0.974869
 20
136.075
 11
-1.04828
 21
135.611
  0
LINE
  8
0
 10
-1.04828
 20
135.611
 11
-1.26134
 21
135.193
  0
LINE
  8
0
 10
-1.26134
 20
135.193
 11
-1.59319
 21
134.861
  0
LINE
  8
0
 10
-1.59319
 20
134.861
 11
-2.01134
 21
134.648
  0
LINE
  8
0
 10
-2.01134
 20
134.648
 11
-2.47487
 21
134.575
  0
LINE
  8
0
 10
-2.47487
 20
134.575
 11
-2.93839
 21
134.648
  0
LINE
  8
0
 10
30.5
 20
133.6
 11
35.5
 21
112.3
  0
LINE
  8
0
 10
35.5
 20
112.3
 11
35.5
 21
79.3
  0
LINE
  8
0
 10
35.5
 20
79.3
 11
2.5
 21
79.3
  0
LINE
  8
0
 10
2.5
 20
79.3
 11
0
 21
115.8
  0
LINE
  8
0
 10
0
 20
115.8
 11
3.5
 21
115.8
  0
LINE
  8
0
 10
3.5
 20
115.8
 11
3.5
 21
133.6
  0
LINE
  8
0
 10
3.5
 20
133.6
 11
27
 21
133.6
  0
LINE
  8
0
 10
27
 20
133.6
 11
27
 21
115.8
  0
LINE
  8
0
 10
27
 20
115.8
 11
30.5
 21
115.8
  0
LINE
  8
0
 10
30.5
 20
115.8
 11
30.5
 21
133.6
  0
LINE
  8
0
 10
40.0113
 20
115.848
 11
39.5932
 21
116.061
  0
LINE
  8
0
 10
39.5932
 20
116.061
 11
39.2613
 21
116.393
  0
LINE
  8
0
 10
39.2613
 20
116.393
 11
39.0483
 21
116.811
  0
LINE
  8
0
 10
39.0483
 20
116.811
 11
38.9749
 21
117.275
  0
LINE
  8
0
 10
38.9749
 20
117.275
 11
39.0483
 21
117.738
  0
LINE
  8
0
 10
39.0483
 20
117.738
 11
39.2613
 21
118.157
  0
LINE
  8
0
 10
39.2613
 20
118.157
 11
39.5932
 21
118.488
  0
LINE
  8
0
 10
39.5932
 20
118.488
 11
40.0113
 21
118.701
  0
LINE
  8
0
 10
40.0113
 20
118.701
 11
40.4749
 21
118.775
  0
LINE
  8
0
 10
40.4749
 20
118.775
 11
40.9384
 21
118.701
  0
LINE
  8
0
 10
40.9384
 20
118.701
 11
41.3565
 21
118.488
  0
LINE
  8
0
 10
41.3565
 20
118.488
 11
41.6884
 21
118.157
  0
LINE
  8
0
 10
41.6884
 20
118.157
 11
41.9014
 21
117.738
  0
LINE
  8
0
 10
41.9014
 20
117.738
 11
41.9749
 21
117.275
  0
LINE
  8
0
 10
41.9749
 20
117.275
 11
41.9014
 21
116.811
  0
LINE
  8
0
 10
41.9014
 20
116.811
 11
41.6884
 21
116.393
  0
LINE
  8
0
 10
41.6884
 20
116.393
 11
41.3565
 21
116.061
  0
LINE
  8
0
 10
41.3565
 20
116.061
 11
40.9384
 21
115.848
  0
LINE
  8
0
 10
40.9384
 20
115.848
 11
40.4749
 21
115.775
  0
LINE
  8
0
 10
40.4749
 20
115.775
 11
40.0113
 21
115.848
  0
LINE
  8
0
 10
40.0113
 20
72.8985
 11
39.5932
 21
73.1116
  0
LINE
  8
0
 10
39.5932
 20
73.1116
 11
39.2613
 21
73.4435
  0
LINE
  8
0
 10
39.2613
 20
73.4435
 11
39.0483
 21
73.8616
  0
LINE
  8
0
 10
39.0483
 20
73.8616
 11
38.9749
 21
74.3251
  0
LINE
  8
0
 10
38.9749
 20
74.3251
 11
39.0483
 21
74.7887
  0
LINE
  8
0
 10
39.0483
 20
74.7887
 11
39.2613
 21
75.2068
  0
LINE
  8
0
 10
39.2613
 20
75.2068
 11
39.5932
 21
75.5387
  0
LINE
  8
0
 10
39.5932
 20
75.5387
 11
40.0113
 21
75.7517
  0
LINE
  8
0
 10
40.0113
 20
75.7517
 11
40.4749
 21
75.8251
  0
LINE
  8
0
 10
40.4749
 20
75.8251
 11
40.9384
 21
75.7517
  0
LINE
  8
0
 10
40.9384
 20
75.7517
 11
41.3565
 21
75.5387
  0
LINE
  8
0
 10
41.3565
 20
75.5387
 11
41.6884
 21
75.2068
  0
LINE
  8
0
 10
41.6884
 20
75.2068
 11
41.9014
 21
74.7887
  0
LINE
  8
0
 10
41.9014
 20
74.7887
 11
41.9749
 21
74.3251
  0
LINE
  8
0
 10
41.9749
 20
74.3251
 11
41.9014
 21
73.8616
  0
LINE
  8
0
 10
41.9014
 20
73.8616
 11
41.6884
 21
73.4435
  0
LINE
  8
0
 10
41.6884
 20
73.4435
 11
41.3565
 21
73.1116
  0
LINE
  8
0
 10
41.3565
 20
73.1116
 11
40.9384
 21
72.8985
  0
LINE
  8
0
 10
40.9384
 20
72.8985
 11
40.4749
 21
72.8251
  0
LINE
  8
0
 10
40.4749
 20
72.8251
 11
40.0113
 21
72.8985
  0
LINE
  8
0
 10
-2.93839
 20
72.8985
 11
-3.35654
 21
73.1116
  0
LINE
  8
0
 10
-3.35654
 20
73.1116
 11
-3.68839
 21
73.4435
  0
LINE
  8
0
 10
-3.68839
 20
73.4435
 11
-3.90144
 21
73.8616
  0
LINE
  8
0
 10
-3.90144
 20
73.8616
 11
-3.97487
 21
74.3251
  0
LINE
  8
0
 10
-3.97487
 20
74.3251
 11
-3.90144
 21
74.7887
  0
LINE
  8
0
 10
-3.90144
 20
74.7887
 11
-3.68839
 21
75.2068
  0
LINE
  8
0
 10
-3.68839
 20
75.2068
 11
-3.35654
 21
75.5387
  0
LINE
  8
0
 10
-3.35654
 20
75.5387
 11
-2.93839
 21
75.7517
  0
LINE
  8
0
 10
-2.93839
 20
75.7517
 11
-2.47487
 21
75.8251
  0
LINE
  8
0
 10
-2.47487
 20
75.8251
 11
-2.01134
 21
75.7517
  0
LINE
  8
0
 10
-2.01134
 20
75.7517
 11
-1.59319
 21
75.5387
  0
LINE
  8
0
 10
-1.59319
 20
75.5387
 11
-1.26134
 21
75.2068
  0
LINE
  8
0
 10
-1.26134
 20
75.2068
 11
-1.04828
 21
74.7887
  0
LINE
  8
0
 10
-1.04828
 20
74.7887
 11
-0.974869
 21
74.3251
  0
LINE
  8
0
 10
-0.974869
 20
74.3251
 11
-1.04828
 21
73.8616
  0
LINE
  8
0
 10
-1.04828
 20
73.8616
 11
-1.26134
 21
73.4435
  0
LINE
  8
0
 10
-1.26134
 20
73.4435
 11
-1.59319
 21
73.1116
  0
LINE
  8
0
 10
-1.59319
 20
73.1116
 11
-2.01134
 21
72.8985
  0
LINE
  8
0
 10
-2.01134
 20
72.8985
 11
-2.47487
 21
72.8251
  0
LINE
  8
0
 10
-2.47487
 20
72.8251
 11
-2.93839
 21
72.8985
  0
LINE
  8
0
 10
99.1631
 20
-6.65739
 11
101.114
 21
-5.66312
  0
LINE
  8
0
 10
101.114
 20
-5.66312
 11
102.663
 21
-4.11449
  0
LINE
  8
0
 10
102.663
 20
-4.11449
 11
103.657
 21
-2.16312
  0
LINE
  8
0
 10
103.657
 20
-2.16312
 11
104
 21
0
  0
LINE
  8
0
 10
104
 20
0
 11
104
 21
38
  0
LINE
  8
0
 10
104
 20
38
 11
103.657
 21
40.1631
  0
LINE
  8
0
 10
103.657
 20
40.1631
 11
96.1574
 21
58.9631
  0
LINE
  8
0
 10
96.1574
 20
58.9631
 11
95.1631
 21
60.9145
  0
LINE
  8
0
 10
95.1631
 20
60.9145
 11
93.6145
 21
62.4631
  0
LINE
  8
0
 10
93.6145
 20
62.4631
 11
91.6631
 21
63.4574
  0
LINE
  8
0
 10
91.6631
 20
63.4574
 11
89.5
 21
63.8
  0
LINE
  8
0
 10
89.5
 20
63.8
 11
59
 21
63.8
  0
LINE
  8
0
 10
59
 20
63.8
 11
56.8369
 21
63.4574
  0
LINE
  8
0
 10
56.8369
 20
63.4574
 11
54.8855
 21
62.4631
  0
LINE
  8
0
 10
54.8855
 20
62.4631
 11
53.3369
 21
60.9145
  0
LINE
  8
0
 10
53.3369
 20
60.9145
 11
52.3426
 21
58.9631
  0
LINE
  8
0
 10
52.3426
 20
58.9631
 11
52
 21
56.8
  0
LINE
  8
0
 10
52
 20
56.8
 11
52
 21
52.9
  0
LINE
  8
0
 10
52
 20
52.9
 11
59
 21
52.9
  0
LINE
  8
0
 10
59
 20
52.9
 11
59
 21
56.8
  0
LINE
  8
0
 10
59
 20
56.8
 11
89.5
 21
56.8
  0
LINE
  8
0
 10
89.5
 20
56.8
 11
89.5
 21
39
  0
LINE
  8
0
 10
89.5
 20
39
 11
59
 21
39
  0
LINE
  8
0
 10
59
 20
39
 11
59
 21
42.9
  0
LINE
  8
0
 10
59
 20
42.9
 11
52
 21
42.9
  0
LINE
  8
0
 10
52
 20
42.9
 11
52
 21
0
  0
LINE
  8
0
 10
52
 20
0
 11
52.3426
 21
-2.16312
  0
LINE
  8
0
 10
52.3426
 20
-2.16312
 11
53.3369
 21
-4.11449
  0
LINE
  8
0
 10
53.3369
 20
-4.11449
 11
54.8855
 21
-5.66312
  0
LINE
  8
0
 10
54.8855
 20
-5.66312
 11
56.8369
 21
-6.65739
  0
LINE
  8
0
 10
56.8369
 20
-6.65739
 11
59
 21
-7
  0
LINE
  8
0
 10
59
 20
-7
 11
97
 21
-7
  0
LINE
  8
0
 10
97
 20
-7
 11
99.1631
 21
-6.65739
  0
LINE
  8
0
 10
56.0616
 20
57.8483
 11
55.6435
 21
58.0613
  0
LINE
  8
0
 10
55.6435
 20
58.0613
 11
55.3116
 21
58.3932
  0
LINE
  8
0
 10
55.3116
 20
58.3932
 11
55.0986
 21
58.8113
  0
LINE
  8
0
 10
55.0986
 20
58.8113
 11
55.0251
 21
59.2749
  0
LINE
  8
0
 10
55.0251
 20
59.2749
 11
55.0986
 21
59.7384
  0
LINE
  8
0
 10
55.0986
 20
59.7384
 11
55.3116
 21
60.1565
  0
LINE
  8
0
 10
55.3116
 20
60.1565
 11
55.6435
 21
60.4884
  0
LINE
  8
0
 10
55.6435
 20
60.4884
 11
56.0616
 21
60.7014
  0
LINE
  8
0
 10
56.0616
 20
60.7014
 11
56.5251
 21
60.7749
  0
LINE
  8
0
 10
56.5251
 20
60.7749
 11
56.9887
 21
60.7014
  0
LINE
  8
0
 10
56.9887
 20
60.7014
 11
57.4068
 21
60.4884
  0
LINE
  8
0
 10
57.4068
 20
60.4884
 11
57.7387
 21
60.1565
  0
LINE
  8
0
 10
57.7387
 20
60.1565
 11
57.9517
 21
59.7384
  0
LINE
  8
0
 10
57.9517
 20
59.7384
 11
58.0251
 21
59.2749
  0
LINE
  8
0
 10
58.0251
 20
59.2749
 11
57.9517
 21
58.8113
  0
LINE
  8
0
 10
57.9517
 20
58.8113
 11
57.7387
 21
58.3932
  0
LINE
  8
0
 10
57.7387
 20
58.3932
 11
57.4068
 21
58.0613
  0
LINE
  8
0
 10
57.4068
 20
58.0613
 11
56.9887
 21
57.8483
  0
LINE
  8
0
 10
56.9887
 20
57.8483
 11
56.5251
 21
57.7749
  0
LINE
  8
0
 10
56.5251
 20
57.7749
 11
56.0616
 21
57.8483
  0
LINE
  8
0
 10
99.0113
 20
39.0483
 11
98.5932
 21
39.2613
  0
LINE
  8
0
 10
98.5932
 20
39.2613
 11
98.2613
 21
39.5932
  0
LINE
  8
0
 10
98.2613
 20
39.5932
 11
98.0483
 21
40.0113
  0
LINE
  8
0
 10
98.0483
 20
40.0113
 11
97.9749
 21
40.4749
  0
LINE
  8
0
 10
97.9749
 20
40.4749
 11
98.0483
 21
40.9384
  0
LINE
  8
0
 10
98.0483
 20
40.9384
 11
98.2613
 21
41.3565
  0
LINE
  8
0
 10
98.2613
 20
41.3565
 11
98.5932
 21
41.6884
  0
LINE
  8
0
 10
98.5932
 20
41.6884
 11
99.0113
 21
41.9014
  0
LINE
  8
0
 10
99.0113
 20
41.9014
 11
99.4749
 21
41.9749
  0
LINE
  8
0
 10
99.4749
 20
41.9749
 11
99.9384
 21
41.9014
  0
LINE
  8
0
 10
99.9384
 20
41.9014
 11
100.357
 21
41.6884
  0
LINE
  8
0
 10
100.357
 20
41.6884
 11
100.688
 21
41.3565
  0
LINE
  8
0
 10
100.688
 20
41.3565
 11
100.901
 21
40.9384
  0
LINE
  8
0
 10
100.901
 20
40.9384
 11
100.975
 21
40.4749
  0
LINE
  8
0
 10
100.975
 20
40.4749
 11
100.901
 21
40.0113
  0
LINE
  8
0
 10
100.901
 20
40.0113
 11
100.688
 21
39.5932
  0
LINE
  8
0
 10
100.688
 20
39.5932
 11
100.357
 21
39.2613
  0
LINE
  8
0
 10
100.357
 20
39.2613
 11
99.9384
 21
39.0483
  0
LINE
  8
0
 10
99.9384
 20
39.0483
 11
99.4749
 21
38.9749
  0
LINE
  8
0
 10
99.4749
 20
38.9749
 11
99.0113
 21
39.0483
  0
LINE
  8
0
 10
61.5
 20
2.5
 11
61.5
 21
35.5
  0
LINE
  8
0
 10
61.5
 20
35.5
 11
94.5
 21
35.5
  0
LINE
  8
0
 10
94.5
 20
35.5
 11
94.5
 21
2.5
  0
LINE
  8
0
 10
94.5
 20
2.5
 11
61.5
 21
2.5
  0
LINE
  8
0
 10
56.0616
 20
-3.90144
 11
55.6435
 21
-3.68839
  0
LINE
  8
0
 10
55.6435
 20
-3.68839
 11
55.3116
 21
-3.35654
  0
LINE
  8
0
 10
55.3116
 20
-3.35654
 11
55.0986
 21
-2.93839
  0
LINE
  8
0
 10
55.0986
 20
-2.93839
 11
55.0251
 21
-2.47487
  0
LINE
  8
0
 10
55.0251
 20
-2.47487
 11
55.0986
 21
-2.01134
  0
LINE
  8
0
 10
55.0986
 20
-2.01134
 11
55.3116
 21
-1.59319
  0
LINE
  8
0
 10
55.3116
 20
-1.59319
 11
55.6435
 21
-1.26134
  0
LINE
  8
0
 10
55.6435
 20
-1.26134
 11
56.0616
 21
-1.04828
  0
LINE
  8
0
 10
56.0616
 20
-1.04828
 11
56.5251
 21
-0.974869
  0
LINE
  8
0
 10
56.5251
 20
-0.974869
 11
56.9887
 21
-1.04828
  0
LINE
  8
0
 10
56.9887
 20
-1.04828
 11
57.4068
 21
-1.26134
  0
LINE
  8
0
 10
57.4068
 20
-1.26134
 11
57.7387
 21
-1.59319
  0
LINE
  8
0
 10
57.7387
 20
-1.59319
 11
57.9517
 21
-2.01134
  0
LINE
  8
0
 10
57.9517
 20
-2.01134
 11
58.0251
 21
-2.47487
  0
LINE
  8
0
 10
58.0251
 20
-2.47487
 11
57.9517
 21
-2.93839
  0
LINE
  8
0
 10
57.9517
 20
-2.93839
 11
57.7387
 21
-3.35654
  0
LINE
  8
0
 10
57.7387
 20
-3.35654
 11
57.4068
 21
-3.68839
  0
LINE
  8
0
 10
57.4068
 20
-3.68839
 11
56.9887
 21
-3.90144
  0
LINE
  8
0
 10
56.9887
 20
-3.90144
 11
56.5251
 21
-3.97487
  0
LINE
  8
0
 10
56.5251
 20
-3.97487
 11
56.0616
 21
-3.90144
  0
LINE
  8
0
 10
99.0113
 20
-3.90144
 11
98.5932
 21
-3.68839
  0
LINE
  8
0
 10
98.5932
 20
-3.68839
 11
98.2613
 21
-3.35654
  0
LINE
  8
0
 10
98.2613
 20
-3.35654
 11
98.0483
 21
-2.93839
  0
LINE
  8
0
 10
98.0483
 20
-2.93839
 11
97.9749
 21
-2.47487
  0
LINE
  8
0
 10
97.9749
 20
-2.47487
 11
98.0483
 21
-2.01134
  0
LINE
  8
0
 10
98.0483
 20
-2.01134
 11
98.2613
 21
-1.59319
  0
LINE
  8
0
 10
98.2613
 20
-1.59319
 11
98.5932
 21
-1.26134
  0
LINE
  8
0
 10
98.5932
 20
-1.26134
 11
99.0113
 21
-1.04828
  0
LINE
  8
0
 10
99.0113
 20
-1.04828
 11
99.4749
 21
-0.974869
  0
LINE
  8
0
 10
99.4749
 20
-0.974869
 11
99.9384
 21
-1.04828
  0
LINE
  8
0
 10
99.9384
 20
-1.04828
 11
100.357
 21
-1.26134
  0
LINE
  8
0
 10
100.357
 20
-1.26134
 11
100.688
 21
-1.59319
  0
LINE
  8
0
 10
100.688
 20
-1.59319
 11
100.901
 21
-2.01134
  0
LINE
  8
0
 10
100.901
 20
-2.01134
 11
100.975
 21
-2.47487
  0
LINE
  8
0
 10
100.975
 20
-2.47487
 11
100.901
 21
-2.93839
  0
LINE
  8
0
 10
100.901
 20
-2.93839
 11
100.688
 21
-3.35654
  0
LINE
  8
0
 10
100.688
 20
-3.35654
 11
100.357
 21
-3.68839
  0
LINE
  8
0
 10
100.357
 20
-3.68839
 11
99.9384
 21
-3.90144
  0
LINE
  8
0
 10
99.9384
 20
-3.90144
 11
99.4749
 21
-3.97487
  0
LINE
  8
0
 10
99.4749
 20
-3.97487
 11
99.0113
 21
-3.90144
  0
LINE
  8
0
 10
40.1631
 20
-6.65739
 11
42.1145
 21
-5.66312
  0
LINE
  8
0
 10
42.1145
 20
-5.66312
 11
43.6631
 21
-4.11449
  0
LINE
  8
0
 10
43.6631
 20
-4.11449
 11
44.6574
 21
-2.16312
  0
LINE
  8
0
 10
44.6574
 20
-2.16312
 11
45
 21
0
  0
LINE
  8
0
 10
45
 20
0
 11
45
 21
38
  0
LINE
  8
0
 10
45
 20
38
 11
44.6574
 21
40.1631
  0
LINE
  8
0
 10
44.6574
 20
40.1631
 11
37.1574
 21
58.9631
  0
LINE
  8
0
 10
37.1574
 20
58.9631
 11
36.1631
 21
60.9145
  0
LINE
  8
0
 10
36.1631
 20
60.9145
 11
34.6145
 21
62.4631
  0
LINE
  8
0
 10
34.6145
 20
62.4631
 11
32.6631
 21
63.4574
  0
LINE
  8
0
 10
32.6631
 20
63.4574
 11
30.5
 21
63.8
  0
LINE
  8
0
 10
30.5
 20
63.8
 11
0
 21
63.8
  0
LINE
  8
0
 10
0
 20
63.8
 11
-2.16312
 21
63.4574
  0
LINE
  8
0
 10
-2.16312
 20
63.4574
 11
-4.11449
 21
62.4631
  0
LINE
  8
0
 10
-4.11449
 20
62.4631
 11
-5.66312
 21
60.9145
  0
LINE
  8
0
 10
-5.66312
 20
60.9145
 11
-6.65739
 21
58.9631
  0
LINE
  8
0
 10
-6.65739
 20
58.9631
 11
-7
 21
56.8
  0
LINE
  8
0
 10
-7
 20
56.8
 11
-7
 21
0
  0
LINE
  8
0
 10
-7
 20
0
 11
-6.65739
 21
-2.16312
  0
LINE
  8
0
 10
-6.65739
 20
-2.16312
 11
-5.66312
 21
-4.11449
  0
LINE
  8
0
 10
-5.66312
 20
-4.11449
 11
-4.11449
 21
-5.66312
  0
LINE
  8
0
 10
-4.11449
 20
-5.66312
 11
-2.16312
 21
-6.65739
  0
LINE
  8
0
 10
-2.16312
 20
-6.65739
 11
0
 21
-7
  0
LINE
  8
0
 10
0
 20
-7
 11
38
 21
-7
  0
LINE
  8
0
 10
38
 20
-7
 11
40.1631
 21
-6.65739
  0
LINE
  8
0
 10
-2.93839
 20
57.8483
 11
-3.35654
 21
58.0613
  0
LINE
  8
0
 10
-3.35654
 20
58.0613
 11
-3.68839
 21
58.3932
  0
LINE
  8
0
 10
-3.68839
 20
58.3932
 11
-3.90144
 21
58.8113
  0
LINE
  8
0
 10
-3.90144
 20
58.8113
 11
-3.97487
 21
59.2749
  0
LINE
  8
0
 10
-3.97487
 20
59.2749
 11
-3.90144
 21
59.7384
  0
LINE
  8
0
 10
-3.90144
 20
59.7384
 11
-3.68839
 21
60.1565
  0
LINE
  8
0
 10
-3.68839
 20
60.1565
 11
-3.35654
 21
60.4884
  0
LINE
  8
0
 10
-3.35654
 20
60.4884
 11
-2.93839
 21
60.7014
  0
LINE
  8
0
 10
-2.93839
 20
60.7014
 11
-2.47487
 21
60.7749
  0
LINE
  8
0
 10
-2.47487
 20
60.7749
 11
-2.01134
 21
60.7014
  0
LINE
  8
0
 10
-2.01134
 20
60.7014
 11
-1.59319
 21
60.4884
  0
LINE
  8
0
 10
-1.59319
 20
60.4884
 11
-1.26134
 21
60.1565
  0
LINE
  8
0
 10
-1.26134
 20
60.1565
 11
-1.04828
 21
59.7384
  0
LINE
  8
0
 10
-1.04828
 20
59.7384
 11
-0.974869
 21
59.2749
  0
LINE
  8
0
 10
-0.974869
 20
59.2749
 11
-1.04828
 21
58.8113
  0
LINE
  8
0
 10
-1.04828
 20
58.8113
 11
-1.26134
 21
58.3932
  0
LINE
  8
0
 10
-1.26134
 20
58.3932
 11
-1.59319
 21
58.0613
  0
LINE
  8
0
 10
-1.59319
 20
58.0613
 11
-2.01134
 21
57.8483
  0
LINE
  8
0
 10
-2.01134
 20
57.8483
 11
-2.47487
 21
57.7749
  0
LINE
  8
0
 10
-2.47487
 20
57.7749
 11
-2.93839
 21
57.8483
  0
LINE
  8
0
 10
18.9394
 20
47.3373
 11
18.6548
 21
47.4253
  0
LINE
  8
0
 10
18.6548
 20
47.4253
 11
18.427
 21
47.572
  0
LINE
  8
0
 10
18.427
 20
47.572
 11
18.2455
 21
47.8004
  0
LINE
  8
0
 10
18.2455
 20
47.8004
 11
18.0999
 21
48.1338
  0
LINE
  8
0
 10
18.0999
 20
48.1338
 11
17.99
 21
48.572
  0
LINE
  8
0
 10
17.99
 20
48.572
 11
17.7746
 21
48.2448
  0
LINE
  8
0
 10
17.7746
 20
48.2448
 11
17.5175
 21
47.9484
  0
LINE
  8
0
 10
17.5175
 20
47.9484
 11
17.219
 21
47.683
  0
LINE
  8
0
 10
17.219
 20
47.683
 11
16.885
 21
47.4747
  0
LINE
  8
0
 10
16.885
 20
47.4747
 11
16.5217
 21
47.3497
  0
LINE
  8
0
 10
16.5217
 20
47.3497
 11
16.129
 21
47.308
  0
LINE
  8
0
 10
16.129
 20
47.308
 11
15.671
 21
47.3382
  0
LINE
  8
0
 10
15.671
 20
47.3382
 11
15.261
 21
47.4289
  0
LINE
  8
0
 10
15.261
 20
47.4289
 11
14.899
 21
47.58
  0
LINE
  8
0
 10
14.899
 20
47.58
 11
14.5815
 21
47.7799
  0
LINE
  8
0
 10
14.5815
 20
47.7799
 11
14.3039
 21
48.0155
  0
LINE
  8
0
 10
14.3039
 20
48.0155
 11
14.066
 21
48.287
  0
LINE
  8
0
 10
14.066
 20
48.287
 11
13.8687
 21
48.5894
  0
LINE
  8
0
 10
13.8687
 20
48.5894
 11
13.7113
 21
48.9181
  0
LINE
  8
0
 10
13.7113
 20
48.9181
 11
13.594
 21
49.273
  0
LINE
  8
0
 10
13.594
 20
49.273
 11
13.5129
 21
49.6423
  0
LINE
  8
0
 10
13.5129
 20
49.6423
 11
13.4642
 21
50.013
  0
LINE
  8
0
 10
13.4642
 20
50.013
 11
13.448
 21
50.385
  0
LINE
  8
0
 10
13.448
 20
50.385
 11
13.4719
 21
50.8712
  0
LINE
  8
0
 10
13.4719
 20
50.8712
 11
13.5435
 21
51.3232
  0
LINE
  8
0
 10
13.5435
 20
51.3232
 11
13.663
 21
51.741
  0
LINE
  8
0
 10
13.663
 20
51.741
 11
13.8247
 21
52.122
  0
LINE
  8
0
 10
13.8247
 20
52.122
 11
14.0217
 21
52.4623
  0
LINE
  8
0
 10
14.0217
 20
52.4623
 11
14.254
 21
52.762
  0
LINE
  8
0
 10
14.254
 20
52.762
 11
14.5171
 21
53.021
  0
LINE
  8
0
 10
14.5171
 20
53.021
 11
14.8064
 21
53.238
  0
LINE
  8
0
 10
14.8064
 20
53.238
 11
15.122
 21
53.413
  0
LINE
  8
0
 10
15.122
 20
53.413
 11
15.4576
 21
53.5413
  0
LINE
  8
0
 10
15.4576
 20
53.5413
 11
15.8069
 21
53.6183
  0
LINE
  8
0
 10
15.8069
 20
53.6183
 11
16.17
 21
53.644
  0
LINE
  8
0
 10
16.17
 20
53.644
 11
16.4887
 21
53.6303
  0
LINE
  8
0
 10
16.4887
 20
53.6303
 11
16.778
 21
53.5893
  0
LINE
  8
0
 10
16.778
 20
53.5893
 11
17.038
 21
53.521
  0
LINE
  8
0
 10
17.038
 20
53.521
 11
17.2726
 21
53.4254
  0
LINE
  8
0
 10
17.2726
 20
53.4254
 11
17.4855
 21
53.3014
  0
LINE
  8
0
 10
17.4855
 20
53.3014
 11
17.677
 21
53.149
  0
LINE
  8
0
 10
17.677
 20
53.149
 11
17.8491
 21
52.9669
  0
LINE
  8
0
 10
17.8491
 20
52.9669
 11
18.0041
 21
52.7539
  0
LINE
  8
0
 10
18.0041
 20
52.7539
 11
18.142
 21
52.51
  0
LINE
  8
0
 10
18.142
 20
52.51
 11
18.2673
 21
52.2327
  0
LINE
  8
0
 10
18.2673
 20
52.2327
 11
18.3833
 21
51.918
  0
LINE
  8
0
 10
18.3833
 20
51.918
 11
18.49
 21
51.566
  0
LINE
  8
0
 10
18.49
 20
51.566
 11
18.5601
 21
51.7877
  0
LINE
  8
0
 10
18.5601
 20
51.7877
 11
18.6224
 21
52.026
  0
LINE
  8
0
 10
18.6224
 20
52.026
 11
18.677
 21
52.281
  0
LINE
  8
0
 10
18.677
 20
52.281
 11
18.7223
 21
52.5365
  0
LINE
  8
0
 10
18.7223
 20
52.5365
 11
18.757
 21
52.7752
  0
LINE
  8
0
 10
18.757
 20
52.7752
 11
18.781
 21
52.997
  0
LINE
  8
0
 10
18.781
 20
52.997
 11
18.8142
 21
53.1428
  0
LINE
  8
0
 10
18.8142
 20
53.1428
 11
18.8765
 21
53.2468
  0
LINE
  8
0
 10
18.8765
 20
53.2468
 11
18.968
 21
53.309
  0
LINE
  8
0
 10
18.968
 20
53.309
 11
19.1048
 21
53.3548
  0
LINE
  8
0
 10
19.1048
 20
53.3548
 11
19.3018
 21
53.4081
  0
LINE
  8
0
 10
19.3018
 20
53.4081
 11
19.559
 21
53.469
  0
LINE
  8
0
 10
19.559
 20
53.469
 11
20.0262
 21
53.5707
  0
LINE
  8
0
 10
20.0262
 20
53.5707
 11
20.0795
 21
53.5777
  0
LINE
  8
0
 10
20.0795
 20
53.5777
 11
20.128
 21
53.58
  0
LINE
  8
0
 10
20.128
 20
53.58
 11
20.1935
 21
53.573
  0
LINE
  8
0
 10
20.1935
 20
53.573
 11
20.2422
 21
53.552
  0
LINE
  8
0
 10
20.2422
 20
53.552
 11
20.274
 21
53.517
  0
LINE
  8
0
 10
20.274
 20
53.517
 11
20.2934
 21
53.4719
  0
LINE
  8
0
 10
20.2934
 20
53.4719
 11
20.3051
 21
53.4192
  0
LINE
  8
0
 10
20.3051
 20
53.4192
 11
20.309
 21
53.359
  0
LINE
  8
0
 10
20.309
 20
53.359
 11
20.2681
 21
53.0012
  0
LINE
  8
0
 10
20.2681
 20
53.0012
 11
20.1454
 21
52.5559
  0
LINE
  8
0
 10
20.1454
 20
52.5559
 11
19.941
 21
52.023
  0
LINE
  8
0
 10
19.941
 20
52.023
 11
19.6702
 21
51.4078
  0
LINE
  8
0
 10
19.6702
 20
51.4078
 11
19.3485
 21
50.7141
  0
LINE
  8
0
 10
19.3485
 20
50.7141
 11
18.976
 21
49.942
  0
LINE
  8
0
 10
18.976
 20
49.942
 11
19.0585
 21
49.5668
  0
LINE
  8
0
 10
19.0585
 20
49.5668
 11
19.1395
 21
49.2531
  0
LINE
  8
0
 10
19.1395
 20
49.2531
 11
19.219
 21
49.001
  0
LINE
  8
0
 10
19.219
 20
49.001
 11
19.2977
 21
48.7981
  0
LINE
  8
0
 10
19.2977
 20
48.7981
 11
19.3763
 21
48.6321
  0
LINE
  8
0
 10
19.3763
 20
48.6321
 11
19.455
 21
48.503
  0
LINE
  8
0
 10
19.455
 20
48.503
 11
19.5337
 21
48.4069
  0
LINE
  8
0
 10
19.5337
 20
48.4069
 11
19.6123
 21
48.3399
  0
LINE
  8
0
 10
19.6123
 20
48.3399
 11
19.691
 21
48.302
  0
LINE
  8
0
 10
19.691
 20
48.302
 11
19.7735
 21
48.2831
  0
LINE
  8
0
 10
19.7735
 20
48.2831
 11
19.8639
 21
48.2718
  0
LINE
  8
0
 10
19.8639
 20
48.2718
 11
19.962
 21
48.268
  0
LINE
  8
0
 10
19.962
 20
48.268
 11
20.0468
 21
48.2741
  0
LINE
  8
0
 10
20.0468
 20
48.2741
 11
20.1531
 21
48.2924
  0
LINE
  8
0
 10
20.1531
 20
48.2924
 11
20.281
 21
48.323
  0
LINE
  8
0
 10
20.281
 20
48.323
 11
20.4167
 21
48.3633
  0
LINE
  8
0
 10
20.4167
 20
48.3633
 11
20.5463
 21
48.4097
  0
LINE
  8
0
 10
20.5463
 20
48.4097
 11
20.67
 21
48.462
  0
LINE
  8
0
 10
20.67
 20
48.462
 11
20.7432
 21
48.393
  0
LINE
  8
0
 10
20.7432
 20
48.393
 11
20.7962
 21
48.3153
  0
LINE
  8
0
 10
20.7962
 20
48.3153
 11
20.829
 21
48.229
  0
LINE
  8
0
 10
20.829
 20
48.229
 11
20.8469
 21
48.1438
  0
LINE
  8
0
 10
20.8469
 20
48.1438
 11
20.8539
 21
48.0694
  0
LINE
  8
0
 10
20.8539
 20
48.0694
 11
20.85
 21
48.006
  0
LINE
  8
0
 10
20.85
 20
48.006
 11
20.761
 21
47.9109
  0
LINE
  8
0
 10
20.761
 20
47.9109
 11
20.6593
 21
47.8189
  0
LINE
  8
0
 10
20.6593
 20
47.8189
 11
20.545
 21
47.73
  0
LINE
  8
0
 10
20.545
 20
47.73
 11
20.4213
 21
47.6467
  0
LINE
  8
0
 10
20.4213
 20
47.6467
 11
20.2917
 21
47.5713
  0
LINE
  8
0
 10
20.2917
 20
47.5713
 11
20.156
 21
47.504
  0
LINE
  8
0
 10
20.156
 20
47.504
 11
20.0149
 21
47.4461
  0
LINE
  8
0
 10
20.0149
 20
47.4461
 11
19.8689
 21
47.3978
  0
LINE
  8
0
 10
19.8689
 20
47.3978
 11
19.718
 21
47.359
  0
LINE
  8
0
 10
19.718
 20
47.359
 11
19.5677
 21
47.3307
  0
LINE
  8
0
 10
19.5677
 20
47.3307
 11
19.422
 21
47.3137
  0
LINE
  8
0
 10
19.422
 20
47.3137
 11
19.281
 21
47.308
  0
LINE
  8
0
 10
19.281
 20
47.308
 11
18.9394
 21
47.3373
  0
LINE
  8
0
 10
16.5674
 20
48.1964
 11
16.8524
 21
48.3658
  0
LINE
  8
0
 10
16.8524
 20
48.3658
 11
17.111
 21
48.648
  0
LINE
  8
0
 10
17.111
 20
48.648
 11
17.3447
 21
49.0221
  0
LINE
  8
0
 10
17.3447
 20
49.0221
 11
17.555
 21
49.4658
  0
LINE
  8
0
 10
17.555
 20
49.4658
 11
17.742
 21
49.979
  0
LINE
  8
0
 10
17.742
 20
49.979
 11
17.7076
 21
50.2435
  0
LINE
  8
0
 10
17.7076
 20
50.2435
 11
17.6589
 21
50.5359
  0
LINE
  8
0
 10
17.6589
 20
50.5359
 11
17.596
 21
50.856
  0
LINE
  8
0
 10
17.596
 20
50.856
 11
17.5174
 21
51.1843
  0
LINE
  8
0
 10
17.5174
 20
51.1843
 11
17.4204
 21
51.5
  0
LINE
  8
0
 10
17.4204
 20
51.5
 11
17.305
 21
51.803
  0
LINE
  8
0
 10
17.305
 20
51.803
 11
17.1702
 21
52.0855
  0
LINE
  8
0
 10
17.1702
 20
52.0855
 11
17.0152
 21
52.3385
  0
LINE
  8
0
 10
17.0152
 20
52.3385
 11
16.84
 21
52.562
  0
LINE
  8
0
 10
16.84
 20
52.562
 11
16.6423
 21
52.7364
  0
LINE
  8
0
 10
16.6423
 20
52.7364
 11
16.42
 21
52.8411
  0
LINE
  8
0
 10
16.42
 20
52.8411
 11
16.173
 21
52.876
  0
LINE
  8
0
 10
16.173
 20
52.876
 11
15.8534
 21
52.8149
  0
LINE
  8
0
 10
15.8534
 20
52.8149
 11
15.5801
 21
52.6315
  0
LINE
  8
0
 10
15.5801
 20
52.6315
 11
15.353
 21
52.326
  0
LINE
  8
0
 10
15.353
 20
52.326
 11
15.1835
 21
51.9043
  0
LINE
  8
0
 10
15.1835
 20
51.9043
 11
15.0819
 21
51.3727
  0
LINE
  8
0
 10
15.0819
 20
51.3727
 11
15.048
 21
50.731
  0
LINE
  8
0
 10
15.048
 20
50.731
 11
15.0811
 21
50.002
  0
LINE
  8
0
 10
15.0811
 20
50.002
 11
15.1804
 21
49.375
  0
LINE
  8
0
 10
15.1804
 20
49.375
 11
15.346
 21
48.85
  0
LINE
  8
0
 10
15.346
 20
48.85
 11
15.58
 21
48.4556
  0
LINE
  8
0
 10
15.58
 20
48.4556
 11
15.8833
 21
48.2189
  0
LINE
  8
0
 10
15.8833
 20
48.2189
 11
16.256
 21
48.14
  0
LINE
  8
0
 10
16.256
 20
48.14
 11
16.5674
 21
48.1964
  0
LINE
  8
0
 10
40.0113
 20
39.0483
 11
39.5932
 21
39.2613
  0
LINE
  8
0
 10
39.5932
 20
39.2613
 11
39.2613
 21
39.5932
  0
LINE
  8
0
 10
39.2613
 20
39.5932
 11
39.0483
 21
40.0113
  0
LINE
  8
0
 10
39.0483
 20
40.0113
 11
38.9749
 21
40.4749
  0
LINE
  8
0
 10
38.9749
 20
40.4749
 11
39.0483
 21
40.9384
  0
LINE
  8
0
 10
39.0483
 20
40.9384
 11
39.2613
 21
41.3565
  0
LINE
  8
0
 10
39.2613
 20
41.3565
 11
39.5932
 21
41.6884
  0
LINE
  8
0
 10
39.5932
 20
41.6884
 11
40.0113
 21
41.9014
  0
LINE
  8
0
 10
40.0113
 20
41.9014
 11
40.4749
 21
41.9749
  0
LINE
  8
0
 10
40.4749
 20
41.9749
 11
40.9384
 21
41.9014
  0
LINE
  8
0
 10
40.9384
 20
41.9014
 11
41.3565
 21
41.6884
  0
LINE
  8
0
 10
41.3565
 20
41.6884
 11
41.6884
 21
41.3565
  0
LINE
  8
0
 10
41.6884
 20
41.3565
 11
41.9014
 21
40.9384
  0
LINE
  8
0
 10
41.9014
 20
40.9384
 11
41.9749
 21
40.4749
  0
LINE
  8
0
 10
41.9749
 20
40.4749
 11
41.9014
 21
40.0113
  0
LINE
  8
0
 10
41.9014
 20
40.0113
 11
41.6884
 21
39.5932
  0
LINE
  8
0
 10
41.6884
 20
39.5932
 11
41.3565
 21
39.2613
  0
LINE
  8
0
 10
41.3565
 20
39.2613
 11
40.9384
 21
39.0483
  0
LINE
  8
0
 10
40.9384
 20
39.0483
 11
40.4749
 21
38.9749
  0
LINE
  8
0
 10
40.4749
 20
38.9749
 11
40.0113
 21
39.0483
  0
LINE
  8
0
 10
21.515
 20
21.515
 11
21.515
 21
22.4955
  0
LINE
  8
0
 10
21.515
 20
22.4955
 11
20.7022
 21
22.4955
  0
LINE
  8
0
 10
20.7022
 20
22.4955
 11
20.7022
 21
25.9956
  0
LINE
  8
0
 10
20.7022
 20
25.9956
 11
21.515
 21
25.9956
  0
LINE
  8
0
 10
21.515
 20
25.9956
 11
21.515
 21
31.0044
  0
LINE
  8
0
 10
21.515
 20
31.0044
 11
20.7022
 21
31.0044
  0
LINE
  8
0
 10
20.7022
 20
31.0044
 11
20.7022
 21
34.5045
  0
LINE
  8
0
 10
20.7022
 20
34.5045
 11
21.515
 21
34.5045
  0
LINE
  8
0
 10
21.515
 20
34.5045
 11
21.515
 21
35.485
  0
LINE
  8
0
 10
21.515
 20
35.485
 11
35.485
 21
35.485
  0
LINE
  8
0
 10
35.485
 20
35.485
 11
35.485
 21
34.5045
  0
LINE
  8
0
 10
35.485
 20
34.5045
 11
36.2978
 21
34.5045
  0
LINE
  8
0
 10
36.2978
 20
34.5045
 11
36.2978
 21
31.0044
  0
LINE
  8
0
 10
36.2978
 20
31.0044
 11
35.485
 21
31.0044
  0
LINE
  8
0
 10
35.485
 20
31.0044
 11
35.485
 21
25.9956
  0
LINE
  8
0
 10
35.485
 20
25.9956
 11
36.2978
 21
25.9956
  0
LINE
  8
0
 10
36.2978
 20
25.9956
 11
36.2978
 21
22.4955
  0
LINE
  8
0
 10
36.2978
 20
22.4955
 11
35.485
 21
22.4955
  0
LINE
  8
0
 10
35.485
 20
22.4955
 11
35.485
 21
21.515
  0
LINE
  8
0
 10
35.485
 20
21.515
 11
21.515
 21
21.515
  0
LINE
  8
0
 10
2.51501
 20
21.515
 11
2.51501
 21
22.4955
  0
LINE
  8
0
 10
2.51501
 20
22.4955
 11
1.70221
 21
22.4955
  0
LINE
  8
0
 10
1.70221
 20
22.4955
 11
1.70221
 21
25.9956
  0
LINE
  8
0
 10
1.70221
 20
25.9956
 11
2.51501
 21
25.9956
  0
LINE
  8
0
 10
2.51501
 20
25.9956
 11
2.51501
 21
31.0044
  0
LINE
  8
0
 10
2.51501
 20
31.0044
 11
1.70221
 21
31.0044
  0
LINE
  8
0
 10
1.70221
 20
31.0044
 11
1.70221
 21
34.5045
  0
LINE
  8
0
 10
1.70221
 20
34.5045
 11
2.51501
 21
34.5045
  0
LINE
  8
0
 10
2.51501
 20
34.5045
 11
2.51501
 21
35.485
  0
LINE
  8
0
 10
2.51501
 20
35.485
 11
16.485
 21
35.485
  0
LINE
  8
0
 10
16.485
 20
35.485
 11
16.485
 21
34.5045
  0
LINE
  8
0
 10
16.485
 20
34.5045
 11
17.2978
 21
34.5045
  0
LINE
  8
0
 10
17.2978
 20
34.5045
 11
17.2978
 21
31.0044
  0
LINE
  8
0
 10
17.2978
 20
31.0044
 11
16.485
 21
31.0044
  0
LINE
  8
0
 10
16.485
 20
31.0044
 11
16.485
 21
25.9956
  0
LINE
  8
0
 10
16.485
 20
25.9956
 11
17.2978
 21
25.9956
  0
LINE
  8
0
 10
17.2978
 20
25.9956
 11
17.2978
 21
22.4955
  0
LINE
  8
0
 10
17.2978
 20
22.4955
 11
16.485
 21
22.4955
  0
LINE
  8
0
 10
16.485
 20
22.4955
 11
16.485
 21
21.515
  0
LINE
  8
0
 10
16.485
 20
21.515
 11
2.51501
 21
21.515
  0
LINE
  8
0
 10
21.515
 20
2.51501
 11
21.515
 21
3.49545
  0
LINE
  8
0
 10
21.515
 20
3.49545
 11
20.7022
 21
3.49545
  0
LINE
  8
0
 10
20.7022
 20
3.49545
 11
20.7022
 21
6.99556
  0
LINE
  8
0
 10
20.7022
 20
6.99556
 11
21.515
 21
6.99556
  0
LINE
  8
0
 10
21.515
 20
6.99556
 11
21.515
 21
12.0044
  0
LINE
  8
0
 10
21.515
 20
12.0044
 11
20.7022
 21
12.0044
  0
LINE
  8
0
 10
20.7022
 20
12.0044
 11
20.7022
 21
15.5045
  0
LINE
  8
0
 10
20.7022
 20
15.5045
 11
21.515
 21
15.5045
  0
LINE
  8
0
 10
21.515
 20
15.5045
 11
21.515
 21
16.485
  0
LINE
  8
0
 10
21.515
 20
16.485
 11
35.485
 21
16.485
  0
LINE
  8
0
 10
35.485
 20
16.485
 11
35.485
 21
15.5045
  0
LINE
  8
0
 10
35.485
 20
15.5045
 11
36.2978
 21
15.5045
  0
LINE
  8
0
 10
36.2978
 20
15.5045
 11
36.2978
 21
12.0044
  0
LINE
  8
0
 10
36.2978
 20
12.0044
 11
35.485
 21
12.0044
  0
LINE
  8
0
 10
35.485
 20
12.0044
 11
35.485
 21
6.99556
  0
LINE
  8
0
 10
35.485
 20
6.99556
 11
36.2978
 21
6.99556
  0
LINE
  8
0
 10
36.2978
 20
6.99556
 11
36.2978
 21
3.49545
  0
LINE
  8
0
 10
36.2978
 20
3.49545
 11
35.485
 21
3.49545
  0
LINE
  8
0
 10
35.485
 20
3.49545
 11
35.485
 21
2.51501
  0
LINE
  8
0
 10
35.485
 20
2.51501
 11
21.515
 21
2.51501
  0
LINE
  8
0
 10
2.51501
 20
2.51501
 11
2.51501
 21
3.49545
  0
LINE
  8
0
 10
2.51501
 20
3.49545
 11
1.70221
 21
3.49545
  0
LINE
  8
0
 10
1.70221
 20
3.49545
 11
1.70221
 21
6.99556
  0
LINE
  8
0
 10
1.70221
 20
6.99556
 11
2.51501
 21
6.99556
  0
LINE
  8
0
 10
2.51501
 20
6.99556
 11
2.51501
 21
12.0044
  0
LINE
  8
0
 10
2.51501
 20
12.0044
 11
1.70221
 21
12.0044
  0
LINE
  8
0
 10
1.70221
 20
12.0044
 11
1.70221
 21
15.5045
  0
LINE
  8
0
 10
1.70221
 20
15.5045
 11
2.51501
 21
15.5045
  0
LINE
  8
0
 10
2.51501
 20
15.5045
 11
2.51501
 21
16.485
  0
LINE
  8
0
 10
2.51501
 20
16.485
 11
16.485
 21
16.485
  0
LINE
  8
0
 10
16.485
 20
16.485
 11
16.485
 21
15.5045
  0
LINE
  8
0
 10
16.485
 20
15.5045
 11
17.2978
 21
15.5045
  0
LINE
  8
0
 10
17.2978
 20
15.5045
 11
17.2978
 21
12.0044
  0
LINE
  8
0
 10
17.2978
 20
12.0044
 11
16.485
 21
12.0044
  0
LINE
  8
0
 10
16.485
 20
12.0044
 11
16.485
 21
6.99556
  0
LINE
  8
0
 10
16.485
 20
6.99556
 11
17.2978
 21
6.99556
  0
LINE
  8
0
 10
17.2978
 20
6.99556
 11
17.2978
 21
3.49545
  0
LINE
  8
0
 10
17.2978
 20
3.49545
 11
16.485
 21
3.49545
  0
LINE
  8
0
 10
16.485
 20
3.49545
 11
16.485
 21
2.51501
  0
LINE
  8
0
 10
16.485
 20
2.51501
 11
2.51501
 21
2.51501
  0
LINE
  8
0
 10
-2.93839
 20
-3.90144
 11
-3.35654
 21
-3.68839
  0
LINE
  8
0
 10
-3.35654
 20
-3.68839
 11
-3.68839
 21
-3.35654
  0
LINE
  8
0
 10
-3.68839
 20
-3.35654
 11
-3.90144
 21
-2.93839
  0
LINE
  8
0
 10
-3.90144
 20
-2.93839
 11
-3.97487
 21
-2.47487
  0
LINE
  8
0
 10
-3.97487
 20
-2.47487
 11
-3.90144
 21
-2.01134
  0
LINE
  8
0
 10
-3.90144
 20
-2.01134
 11
-3.68839
 21
-1.59319
  0
LINE
  8
0
 10
-3.68839
 20
-1.59319
 11
-3.35654
 21
-1.26134
  0
LINE
  8
0
 10
-3.35654
 20
-1.26134
 11
-2.93839
 21
-1.04828
  0
LINE
  8
0
 10
-2.93839
 20
-1.04828
 11
-2.47487
 21
-0.974869
  0
LINE
  8
0
 10
-2.47487
 20
-0.974869
 11
-2.01134
 21
-1.04828
  0
LINE
  8
0
 10
-2.01134
 20
-1.04828
 11
-1.59319
 21
-1.26134
  0
LINE
  8
0
 10
-1.59319
 20
-1.26134
 11
-1.26134
 21
-1.59319
  0
LINE
  8
0
 10
-1.26134
 20
-1.59319
 11
-1.04828
 21
-2.01134
  0
LINE
  8
0
 10
-1.04828
 20
-2.01134
 11
-0.974869
 21
-2.47487
  0
LINE
  8
0
 10
-0.974869
 20
-2.47487
 11
-1.04828
 21
-2.93839
  0
LINE
  8
0
 10
-1.04828
 20
-2.93839
 11
-1.26134
 21
-3.35654
  0
LINE
  8
0
 10
-1.26134
 20
-3.35654
 11
-1.59319
 21
-3.68839
  0
LINE
  8
0
 10
-1.59319
 20
-3.68839
 11
-2.01134
 21
-3.90144
  0
LINE
  8
0
 10
-2.01134
 20
-3.90144
 11
-2.47487
 21
-3.97487
  0
LINE
  8
0
 10
-2.47487
 20
-3.97487
 11
-2.93839
 21
-3.90144
  0
LINE
  8
0
 10
40.0113
 20
-3.90144
 11
39.5932
 21
-3.68839
  0
LINE
  8
0
 10
39.5932
 20
-3.68839
 11
39.2613
 21
-3.35654
  0
LINE
  8
0
 10
39.2613
 20
-3.35654
 11
39.0483
 21
-2.93839
  0
LINE
  8
0
 10
39.0483
 20
-2.93839
 11
38.9749
 21
-2.47487
  0
LINE
  8
0
 10
38.9749
 20
-2.47487
 11
39.0483
 21
-2.01134
  0
LINE
  8
0
 10
39.0483
 20
-2.01134
 11
39.2613
 21
-1.59319
  0
LINE
  8
0
 10
39.2613
 20
-1.59319
 11
39.5932
 21
-1.26134
  0
LINE
  8
0
 10
39.5932
 20
-1.26134
 11
40.0113
 21
-1.04828
  0
LINE
  8
0
 10
40.0113
 20
-1.04828
 11
40.4749
 21
-0.974869
  0
LINE
  8
0
 10
40.4749
 20
-0.974869
 11
40.9384
 21
-1.04828
  0
LINE
  8
0
 10
40.9384
 20
-1.04828
 11
41.3565
 21
-1.26134
  0
LINE
  8
0
 10
41.3565
 20
-1.26134
 11
41.6884
 21
-1.59319
  0
LINE
  8
0
 10
41.6884
 20
-1.59319
 11
41.9014
 21
-2.01134
  0
LINE
  8
0
 10
41.9014
 20
-2.01134
 11
41.9749
 21
-2.47487
  0
LINE
  8
0
 10
41.9749
 20
-2.47487
 11
41.9014
 21
-2.93839
  0
LINE
  8
0
 10
41.9014
 20
-2.93839
 11
41.6884
 21
-3.35654
  0
LINE
  8
0
 10
41.6884
 20
-3.35654
 11
41.3565
 21
-3.68839
  0
LINE
  8
0
 10
41.3565
 20
-3.68839
 11
40.9384
 21
-3.90144
  0
LINE
  8
0
 10
40.9384
 20
-3.90144
 11
40.4749
 21
-3.97487
  0
LINE
  8
0
 10
40.4749
 20
-3.97487
 11
40.0113
 21
-3.90144
  0
LINE
  8
0
 10
-15
 20
5
 11
-25
 21
5
  0
LINE
  8
0
 10
-25
 20
5
 11
-25
 21
-5
  0
LINE
  8
0
 10
-25
 20
-5
 11
-15
 21
-5
  0
LINE
  8
0
 10
-15
 20
-5
 11
-15
 21
5
  0
ENDSEC
  0
SECTION
  2
OBJECTS
  0
DICTIONARY
  0
ENDSEC
  0
EOF
