  0
SECTION
  2
HEADER
  9
$ACADVER
  1
AC1014
  9
$HANDSEED
  5
FFFF
  9
$MEASUREMENT
 70
     1
  0
ENDSEC
  0
SECTION
  2
TABLES
  0
TABLE
  2
VPORT
  5
8
330
0
100
AcDbSymbolTable
 70
     4
  0
VPORT
  5
2E
330
8
100
AcDbSymbolTableRecord
100
AcDbViewportTableRecord
  2
*ACTIVE
 70
     0
 10
0.0
 20
0.0
 11
1.0
 21
1.0
 12
210.0
 22
148.5
 13
0.0
 23
0.0
 14
10.0
 24
10.0
 15
10.0
 25
10.0
 16
0.0
 26
0.0
 36
1.0
 17
0.0
 27
0.0
 37
0.0
 40
341.0
 41
1.24
 42
50.0
 43
0.0
 44
0.0
 50
0.0
 51
0.0
 71
     0
 72
   100
 73
     1
 74
     3
 75
     0
 76
     0
 77
     0
 78
     0
  0
ENDTAB
  0
TABLE
  2
LTYPE
  5
5
330
0
100
AcDbSymbolTable
 70
     1
  0
LTYPE
  5
14
330
5
100
AcDbSymbolTableRecord
100
AcDbLinetypeTableRecord
  2
BYBLOCK
 70
     0
  3

 72
    65
 73
     0
 40
0.0
  0
LTYPE
  5
15
330
5
100
AcDbSymbolTableRecord
100
AcDbLinetypeTableRecord
  2
BYLAYER
 70
     0
  3

 72
    65
 73
     0
 40
0.0
  0
LTYPE
  5
16
330
5
100
AcDbSymbolTableRecord
100
AcDbLinetypeTableRecord
  2
CONTINUOUS
 70
     0
  3
Solid line
 72
    65
 73
     0
 40
0.0
  0
ENDTAB
  0
TABLE
  2
LAYER
  5
2
100
AcDbSymbolTable
 70
1
  0
LAYER
  5
50
100
AcDbSymbolTableRecord
100
AcDbLayerTableRecord
  2
0
 70
0
  6
CONTINUOUS
  0
ENDTAB
  0
TABLE
  2
STYLE
  5
3
330
0
100
AcDbSymbolTable
 70
     1
  0
STYLE
  5
11
330
3
100
AcDbSymbolTableRecord
100
AcDbTextStyleTableRecord
  2
STANDARD
 70
     0
 40
0.0
 41
1.0
 50
0.0
 71
     0
 42
2.5
  3
txt
  4

  0
ENDTAB
  0
TABLE
  2
VIEW
  5
6
330
0
100
AcDbSymbolTable
 70
     0
  0
ENDTAB
  0
TABLE
  2
UCS
  5
7
330
0
100
AcDbSymbolTable
 70
     0
  0
ENDTAB
  0
TABLE
  2
APPID
  5
9
330
0
100
AcDbSymbolTable
 70
     2
  0
APPID
  5
12
330
9
100
AcDbSymbolTableRecord
100
AcDbRegAppTableRecord
  2
ACAD
 70
     0
  0
ENDTAB
  0
TABLE
  2
DIMSTYLE
  5
A
330
0
100
AcDbSymbolTable
 70
     1
  0
DIMSTYLE
105
27
330
A
100
AcDbSymbolTableRecord
100
AcDbDimStyleTableRecord
  2
ISO-25
 70
     0
  3

  4

  5

  6

  7

 40
1.0
 41
2.5
 42
0.625
 43
3.75
 44
1.25
 45
0.0
 46
0.0
 47
0.0
 48
0.0
140
2.5
141
2.5
142
0.0
143
0.03937007874016
144
1.0
145
0.0
146
1.0
147
0.625
 71
     0
 72
     0
 73
     0
 74
     0
 75
     0
 76
     0
 77
     1
 78
     8
170
     0
171
     3
172
     1
173
     0
174
     0
175
     0
176
     0
177
     0
178
     0
270
     2
271
     2
272
     2
273
     2
274
     3
340
11
275
     0
280
     0
281
     0
282
     0
283
     0
284
     8
285
     0
286
     0
287
     3
288
     0
  0
ENDTAB
  0
TABLE
  2
BLOCK_RECORD
  5
1
330
0
100
AcDbSymbolTable
 70
     1
  0
BLOCK_RECORD
  5
1F
330
1
100
AcDbSymbolTableRecord
100
AcDbBlockTableRecord
  2
*MODEL_SPACE
  0
BLOCK_RECORD
  5
1B
330
1
100
AcDbSymbolTableRecord
100
AcDbBlockTableRecord
  2
*PAPER_SPACE
  0
ENDTAB
  0
ENDSEC
  0
SECTION
  2
BLOCKS
  0
BLOCK
  5
20
330
1F
100
AcDbEntity
  8
0
100
AcDbBlockBegin
  2
*MODEL_SPACE
 70
     0
 10
0.0
 20
0.0
 30
0.0
  3
*MODEL_SPACE
  1

  0
ENDBLK
  5
21
330
1F
100
AcDbEntity
  8
0
100
AcDbBlockEnd
  0
BLOCK
  5
1C
330
1B
100
AcDbEntity
 67
     1
  8
0
100
AcDbBlockBegin
  2
*PAPER_SPACE
  1

  0
ENDBLK
  5
1D
330
1B
100
AcDbEntity
 67
     1
  8
0
100
AcDbBlockEnd
  0
ENDSEC
  0
SECTION
  2
ENTITIES
  0
LWPOLYLINE
  5
100
100
AcDbEntity
  8
0
 62
7
100
AcDbPolyline
 90
25
 70
0
 10
0.400000
 20
75.410384
 30
0.0
 10
0.451040
 20
81.008864
 30
0.0
 10
40.813544
 20
309.920648
 30
0.0
 10
42.681576
 20
315.195928
 30
0.0
 10
46.159680
 20
319.583960
 30
0.0
 10
50.873696
 20
322.602856
 30
0.0
 10
56.313384
 20
323.926632
 30
0.0
 10
764.725352
 20
323.926632
 30
0.0
 10
770.165040
 20
322.602856
 30
0.0
 10
774.879056
 20
319.583960
 30
0.0
 10
778.357160
 20
315.195928
 30
0.0
 10
780.225192
 20
309.920648
 30
0.0
 10
820.587712
 20
81.008864
 30
0.0
 10
820.638752
 20
75.410384
 30
0.0
 10
818.869920
 20
70.101104
 30
0.0
 10
815.471176
 20
65.650704
 30
0.0
 10
810.813856
 20
62.546784
 30
0.0
 10
805.399680
 20
61.118144
 30
0.0
 10
542.662048
 20
0.399984
 30
0.0
 10
278.376688
 20
0.399984
 30
0.0
 10
15.639056
 20
61.118144
 30
0.0
 10
10.224880
 20
62.546784
 30
0.0
 10
5.567560
 20
65.650704
 30
0.0
 10
2.168816
 20
70.101104
 30
0.0
 10
0.400000
 20
75.410384
 30
0.0
  0
LWPOLYLINE
  5
101
100
AcDbEntity
  8
0
 62
7
100
AcDbPolyline
 90
69
 70
0
 10
0.400000
 20
500.607264
 30
0.0
 10
0.451040
 20
506.205688
 30
0.0
 10
40.813544
 20
735.117504
 30
0.0
 10
42.681576
 20
740.392776
 30
0.0
 10
46.159680
 20
744.780808
 30
0.0
 10
50.873696
 20
747.799704
 30
0.0
 10
56.313384
 20
749.123488
 30
0.0
 10
379.338266
 20
749.123488
 30
0.0
 10
379.338266
 20
748.998760
 30
0.0
 10
380.741415
 20
749.114984
 30
0.0
 10
386.169762
 20
747.740176
 30
0.0
 10
390.858266
 20
744.675928
 30
0.0
 10
394.296691
 20
740.259552
 30
0.0
 10
396.113698
 20
734.964432
 30
0.0
 10
396.113698
 20
729.363168
 30
0.0
 10
394.296691
 20
724.068056
 30
0.0
 10
390.858266
 20
719.651672
 30
0.0
 10
386.169762
 20
716.587424
 30
0.0
 10
380.741415
 20
715.212616
 30
0.0
 10
379.338266
 20
715.328840
 30
0.0
 10
379.338266
 20
714.101440
 30
0.0
 10
70.208816
 20
714.101440
 30
0.0
 10
42.151496
 20
554.981440
 30
0.0
 10
35.260472
 20
515.900176
 30
0.0
 10
74.344568
 20
509.009152
 30
0.0
 10
287.980472
 20
479.973880
 30
0.0
 10
302.371968
 20
479.973880
 30
0.0
 10
298.616064
 20
458.668680
 30
0.0
 10
337.697321
 20
451.777656
 30
0.0
 10
483.341415
 20
451.777656
 30
0.0
 10
522.422672
 20
458.668680
 30
0.0
 10
518.666768
 20
479.973880
 30
0.0
 10
533.058264
 20
479.973880
 30
0.0
 10
746.694168
 20
509.009152
 30
0.0
 10
785.778264
 20
515.900176
 30
0.0
 10
778.887240
 20
554.981440
 30
0.0
 10
750.829920
 20
714.101440
 30
0.0
 10
441.700470
 20
714.101440
 30
0.0
 10
441.700470
 20
715.328840
 30
0.0
 10
440.297321
 20
715.212616
 30
0.0
 10
434.868974
 20
716.587424
 30
0.0
 10
430.180470
 20
719.651672
 30
0.0
 10
426.742045
 20
724.068056
 30
0.0
 10
424.925038
 20
729.363168
 30
0.0
 10
424.925038
 20
734.964432
 30
0.0
 10
426.742045
 20
740.259552
 30
0.0
 10
430.180470
 20
744.675928
 30
0.0
 10
434.868974
 20
747.740176
 30
0.0
 10
440.297321
 20
749.114984
 30
0.0
 10
441.700470
 20
748.998760
 30
0.0
 10
441.700470
 20
749.123488
 30
0.0
 10
764.725352
 20
749.123488
 30
0.0
 10
770.165040
 20
747.799704
 30
0.0
 10
774.879056
 20
744.780808
 30
0.0
 10
778.357160
 20
740.392776
 30
0.0
 10
780.225192
 20
735.117504
 30
0.0
 10
820.587712
 20
506.205688
 30
0.0
 10
820.638752
 20
500.607264
 30
0.0
 10
818.869920
 20
495.297976
 30
0.0
 10
815.471176
 20
490.847576
 30
0.0
 10
810.813856
 20
487.743640
 30
0.0
 10
805.399680
 20
486.314984
 30
0.0
 10
542.662048
 20
425.596872
 30
0.0
 10
278.376688
 20
425.596872
 30
0.0
 10
15.639056
 20
486.314984
 30
0.0
 10
10.224880
 20
487.743640
 30
0.0
 10
5.567560
 20
490.847576
 30
0.0
 10
2.168816
 20
495.297976
 30
0.0
 10
0.400000
 20
500.607264
 30
0.0
  0
LWPOLYLINE
  5
102
100
AcDbEntity
  8
0
 62
7
100
AcDbPolyline
 90
6
 70
0
 10
13.014168
 20
78.794944
 30
0.0
 10
16.608504
 20
82.267424
 30
0.0
 10
21.024880
 20
79.920304
 30
0.0
 10
20.154640
 20
74.996544
 30
0.0
 10
15.202520
 20
74.302064
 30
0.0
 10
13.014168
 20
78.794944
 30
0.0
  0
LWPOLYLINE
  5
103
100
AcDbEntity
  8
0
 62
7
100
AcDbPolyline
 90
6
 70
0
 10
13.014168
 20
503.991832
 30
0.0
 10
16.608504
 20
507.464272
 30
0.0
 10
21.024880
 20
505.117184
 30
0.0
 10
20.154640
 20
500.193408
 30
0.0
 10
15.202520
 20
499.498920
 30
0.0
 10
13.014168
 20
503.991832
 30
0.0
  0
LWPOLYLINE
  5
104
100
AcDbEntity
  8
0
 62
7
100
AcDbPolyline
 90
6
 70
0
 10
53.376688
 20
307.703960
 30
0.0
 10
56.971024
 20
311.179232
 30
0.0
 10
61.387400
 20
308.829312
 30
0.0
 10
60.517160
 20
303.905536
 30
0.0
 10
55.565040
 20
303.211048
 30
0.0
 10
53.376688
 20
307.703960
 30
0.0
  0
LWPOLYLINE
  5
105
100
AcDbEntity
  8
0
 62
7
100
AcDbPolyline
 90
6
 70
0
 10
53.376688
 20
732.900808
 30
0.0
 10
56.971024
 20
736.376080
 30
0.0
 10
61.387400
 20
734.026160
 30
0.0
 10
60.517160
 20
729.102384
 30
0.0
 10
55.565040
 20
728.407896
 30
0.0
 10
53.376688
 20
732.900808
 30
0.0
  0
LWPOLYLINE
  5
106
100
AcDbEntity
  8
0
 62
7
100
AcDbPolyline
 90
6
 70
0
 10
275.751808
 20
18.074064
 30
0.0
 10
279.346144
 20
21.549344
 30
0.0
 10
283.762520
 20
19.202224
 30
0.0
 10
282.895120
 20
14.275584
 30
0.0
 10
277.942992
 20
13.581104
 30
0.0
 10
275.751808
 20
18.074064
 30
0.0
  0
LWPOLYLINE
  5
107
100
AcDbEntity
  8
0
 62
7
100
AcDbPolyline
 90
6
 70
0
 10
275.751808
 20
443.270888
 30
0.0
 10
279.346144
 20
446.746160
 30
0.0
 10
283.762520
 20
444.399080
 30
0.0
 10
282.895120
 20
439.472464
 30
0.0
 10
277.942992
 20
438.777976
 30
0.0
 10
275.751808
 20
443.270888
 30
0.0
  0
LWPOLYLINE
  5
108
100
AcDbEntity
  8
0
 62
7
100
AcDbPolyline
 90
6
 70
0
 10
375.086297
 20
306.966952
 30
0.0
 10
378.022990
 20
311.011992
 30
0.0
 10
382.779526
 20
309.467104
 30
0.0
 10
382.779526
 20
304.466792
 30
0.0
 10
378.022990
 20
302.921912
 30
0.0
 10
375.086297
 20
306.966952
 30
0.0
  0
LWPOLYLINE
  5
109
100
AcDbEntity
  8
0
 62
7
100
AcDbPolyline
 90
6
 70
0
 10
375.086297
 20
732.163800
 30
0.0
 10
378.022990
 20
736.208840
 30
0.0
 10
382.779526
 20
734.663960
 30
0.0
 10
382.779526
 20
729.663640
 30
0.0
 10
378.022990
 20
728.118760
 30
0.0
 10
375.086297
 20
732.163800
 30
0.0
  0
LWPOLYLINE
  5
10a
100
AcDbEntity
  8
0
 62
1
100
AcDbPolyline
 90
5
 70
0
 10
396.346140
 20
483.551200
 30
0.0
 10
396.346140
 20
511.897656
 30
0.0
 10
424.692596
 20
511.897656
 30
0.0
 10
424.692596
 20
483.551200
 30
0.0
 10
396.346140
 20
483.551200
 30
0.0
  0
LWPOLYLINE
  5
10b
100
AcDbEntity
  8
0
 62
7
100
AcDbPolyline
 90
6
 70
0
 10
438.259210
 20
304.466792
 30
0.0
 10
438.259210
 20
309.467104
 30
0.0
 10
443.015746
 20
311.011992
 30
0.0
 10
445.952439
 20
306.966952
 30
0.0
 10
443.015746
 20
302.921912
 30
0.0
 10
438.259210
 20
304.466792
 30
0.0
  0
LWPOLYLINE
  5
10c
100
AcDbEntity
  8
0
 62
7
100
AcDbPolyline
 90
6
 70
0
 10
438.259210
 20
729.663640
 30
0.0
 10
438.259210
 20
734.663960
 30
0.0
 10
443.015746
 20
736.208840
 30
0.0
 10
445.952439
 20
732.163800
 30
0.0
 10
443.015746
 20
728.118760
 30
0.0
 10
438.259210
 20
729.663640
 30
0.0
  0
LWPOLYLINE
  5
10d
100
AcDbEntity
  8
0
 62
7
100
AcDbPolyline
 90
6
 70
0
 10
537.276216
 20
19.202224
 30
0.0
 10
541.692592
 20
21.549344
 30
0.0
 10
545.286928
 20
18.074064
 30
0.0
 10
543.095744
 20
13.581104
 30
0.0
 10
538.143616
 20
14.275584
 30
0.0
 10
537.276216
 20
19.202224
 30
0.0
  0
LWPOLYLINE
  5
10e
100
AcDbEntity
  8
0
 62
7
100
AcDbPolyline
 90
6
 70
0
 10
537.276216
 20
444.399080
 30
0.0
 10
541.692592
 20
446.746160
 30
0.0
 10
545.286928
 20
443.270888
 30
0.0
 10
543.095744
 20
438.777976
 30
0.0
 10
538.143616
 20
439.472464
 30
0.0
 10
537.276216
 20
444.399080
 30
0.0
  0
LWPOLYLINE
  5
10f
100
AcDbEntity
  8
0
 62
7
100
AcDbPolyline
 90
6
 70
0
 10
759.651336
 20
308.829312
 30
0.0
 10
764.067712
 20
311.179232
 30
0.0
 10
767.662048
 20
307.703960
 30
0.0
 10
765.473696
 20
303.211048
 30
0.0
 10
760.521576
 20
303.905536
 30
0.0
 10
759.651336
 20
308.829312
 30
0.0
  0
LWPOLYLINE
  5
110
100
AcDbEntity
  8
0
 62
7
100
AcDbPolyline
 90
6
 70
0
 10
759.651336
 20
734.026160
 30
0.0
 10
764.067712
 20
736.376080
 30
0.0
 10
767.662048
 20
732.900808
 30
0.0
 10
765.473696
 20
728.407896
 30
0.0
 10
760.521576
 20
729.102384
 30
0.0
 10
759.651336
 20
734.026160
 30
0.0
  0
LWPOLYLINE
  5
111
100
AcDbEntity
  8
0
 62
7
100
AcDbPolyline
 90
6
 70
0
 10
800.013856
 20
79.920304
 30
0.0
 10
804.430232
 20
82.267424
 30
0.0
 10
808.024568
 20
78.794944
 30
0.0
 10
805.836216
 20
74.302064
 30
0.0
 10
800.884096
 20
74.996544
 30
0.0
 10
800.013856
 20
79.920304
 30
0.0
  0
LWPOLYLINE
  5
112
100
AcDbEntity
  8
0
 62
7
100
AcDbPolyline
 90
6
 70
0
 10
800.013856
 20
505.117184
 30
0.0
 10
804.430232
 20
507.464272
 30
0.0
 10
808.024568
 20
503.991832
 30
0.0
 10
805.836216
 20
499.498920
 30
0.0
 10
800.884096
 20
500.193408
 30
0.0
 10
800.013856
 20
505.117184
 30
0.0
  0
LWPOLYLINE
  5
113
100
AcDbEntity
  8
0
 62
7
100
AcDbPolyline
 90
14
 70
0
 10
850.793696
 20
75.410384
 30
0.0
 10
850.844736
 20
81.008864
 30
0.0
 10
891.207240
 20
309.920648
 30
0.0
 10
893.075272
 20
315.195928
 30
0.0
 10
896.553384
 20
319.583960
 30
0.0
 10
901.267400
 20
322.602856
 30
0.0
 10
906.707088
 20
323.926632
 30
0.0
 10
1615.119048
 20
323.926632
 30
0.0
 10
1620.558728
 20
322.602856
 30
0.0
 10
1625.272728
 20
319.583960
 30
0.0
 10
1628.750888
 20
315.195928
 30
0.0
 10
1630.618888
 20
309.920648
 30
0.0
 10
1670.981448
 20
81.008864
 30
0.0
 10
1671.032648
 20
75.410384
 30
0.0
  0
LWPOLYLINE
  5
114
100
AcDbEntity
  8
0
 62
7
100
AcDbPolyline
 90
12
 70
0
 10
1671.032408
 20
75.410384
 30
0.0
 10
1669.263608
 20
70.101104
 30
0.0
 10
1665.864888
 20
65.650704
 30
0.0
 10
1661.207528
 20
62.546784
 30
0.0
 10
1655.793368
 20
61.118144
 30
0.0
 10
1393.055768
 20
0.399984
 30
0.0
 10
1128.770392
 20
0.399984
 30
0.0
 10
866.032752
 20
61.118144
 30
0.0
 10
860.618584
 20
62.546784
 30
0.0
 10
855.961256
 20
65.650704
 30
0.0
 10
852.562520
 20
70.101104
 30
0.0
 10
850.793696
 20
75.410384
 30
0.0
  0
LWPOLYLINE
  5
115
100
AcDbEntity
  8
0
 62
7
100
AcDbPolyline
 90
14
 70
0
 10
850.793696
 20
500.607264
 30
0.0
 10
850.844736
 20
506.205688
 30
0.0
 10
891.207240
 20
735.117504
 30
0.0
 10
893.075272
 20
740.392776
 30
0.0
 10
896.553384
 20
744.780808
 30
0.0
 10
901.267400
 20
747.799704
 30
0.0
 10
906.707088
 20
749.123488
 30
0.0
 10
1615.119048
 20
749.123488
 30
0.0
 10
1620.558728
 20
747.799704
 30
0.0
 10
1625.272728
 20
744.780808
 30
0.0
 10
1628.750888
 20
740.392776
 30
0.0
 10
1630.618888
 20
735.117504
 30
0.0
 10
1670.981448
 20
506.205688
 30
0.0
 10
1671.032648
 20
500.607264
 30
0.0
  0
LWPOLYLINE
  5
116
100
AcDbEntity
  8
0
 62
7
100
AcDbPolyline
 90
12
 70
0
 10
1671.032408
 20
500.607264
 30
0.0
 10
1669.263608
 20
495.297976
 30
0.0
 10
1665.864888
 20
490.847576
 30
0.0
 10
1661.207528
 20
487.743640
 30
0.0
 10
1655.793368
 20
486.314984
 30
0.0
 10
1393.055768
 20
425.596872
 30
0.0
 10
1128.770392
 20
425.596872
 30
0.0
 10
866.032752
 20
486.314984
 30
0.0
 10
860.618584
 20
487.743640
 30
0.0
 10
855.961256
 20
490.847576
 30
0.0
 10
852.562520
 20
495.297976
 30
0.0
 10
850.793696
 20
500.607264
 30
0.0
  0
LWPOLYLINE
  5
117
100
AcDbEntity
  8
0
 62
7
100
AcDbPolyline
 90
6
 70
0
 10
863.407872
 20
78.794944
 30
0.0
 10
867.002200
 20
82.267424
 30
0.0
 10
871.418584
 20
79.920304
 30
0.0
 10
870.548344
 20
74.996544
 30
0.0
 10
865.596216
 20
74.302064
 30
0.0
 10
863.407872
 20
78.794944
 30
0.0
  0
LWPOLYLINE
  5
118
100
AcDbEntity
  8
0
 62
7
100
AcDbPolyline
 90
6
 70
0
 10
863.407872
 20
503.991832
 30
0.0
 10
867.002200
 20
507.464272
 30
0.0
 10
871.418584
 20
505.117184
 30
0.0
 10
870.548344
 20
500.193408
 30
0.0
 10
865.596216
 20
499.498920
 30
0.0
 10
863.407872
 20
503.991832
 30
0.0
  0
LWPOLYLINE
  5
119
100
AcDbEntity
  8
0
 62
7
100
AcDbPolyline
 90
21
 70
0
 10
883.916536
 20
519.069312
 30
0.0
 10
885.640000
 20
528.843168
 30
0.0
 10
887.910552
 20
528.443488
 30
0.0
 10
890.376688
 20
542.423960
 30
0.0
 10
888.106144
 20
542.823640
 30
0.0
 10
889.829600
 20
552.597504
 30
0.0
 10
892.097320
 20
552.197816
 30
0.0
 10
892.582048
 20
554.933248
 30
0.0
 10
931.578264
 20
548.056400
 30
0.0
 10
931.096376
 20
545.320968
 30
0.0
 10
933.366928
 20
544.921280
 30
0.0
 10
931.643464
 20
535.147424
 30
0.0
 10
929.372912
 20
535.547104
 30
0.0
 10
926.909600
 20
521.566632
 30
0.0
 10
929.177320
 20
521.166952
 30
0.0
 10
927.453856
 20
511.393096
 30
0.0
 10
925.186144
 20
511.792776
 30
0.0
 10
924.704248
 20
509.057344
 30
0.0
 10
885.705192
 20
515.934192
 30
0.0
 10
886.187088
 20
518.669624
 30
0.0
 10
883.916536
 20
519.069312
 30
0.0
  0
LWPOLYLINE
  5
11a
100
AcDbEntity
  8
0
 62
7
100
AcDbPolyline
 90
17
 70
0
 10
885.654168
 20
90.703344
 30
0.0
 10
892.545192
 20
129.784592
 30
0.0
 10
920.602520
 20
288.904592
 30
0.0
 10
1601.223608
 20
288.904592
 30
0.0
 10
1629.280968
 20
129.784592
 30
0.0
 10
1636.171928
 20
90.703344
 30
0.0
 10
1597.087848
 20
83.812304
 30
0.0
 10
1383.451928
 20
54.777024
 30
0.0
 10
1369.060488
 20
54.777024
 30
0.0
 10
1372.816408
 20
33.471824
 30
0.0
 10
1333.735128
 20
26.580784
 30
0.0
 10
1188.091024
 20
26.580784
 30
0.0
 10
1149.009760
 20
33.471824
 30
0.0
 10
1152.765664
 20
54.777024
 30
0.0
 10
1138.374168
 20
54.777024
 30
0.0
 10
924.738264
 20
83.812304
 30
0.0
 10
885.654168
 20
90.703344
 30
0.0
  0
LWPOLYLINE
  5
11b
100
AcDbEntity
  8
0
 62
7
100
AcDbPolyline
 90
21
 70
0
 10
893.270864
 20
572.111200
 30
0.0
 10
894.994328
 20
581.882224
 30
0.0
 10
897.262048
 20
581.482544
 30
0.0
 10
899.728184
 20
595.463016
 30
0.0
 10
897.457632
 20
595.862696
 30
0.0
 10
899.181104
 20
605.636560
 30
0.0
 10
901.451648
 20
605.236872
 30
0.0
 10
901.933544
 20
607.972304
 30
0.0
 10
940.932592
 20
601.095456
 30
0.0
 10
940.450704
 20
598.360024
 30
0.0
 10
942.718424
 20
597.960336
 30
0.0
 10
940.994960
 20
588.186480
 30
0.0
 10
938.727240
 20
588.586160
 30
0.0
 10
936.261096
 20
574.605688
 30
0.0
 10
938.531648
 20
574.206008
 30
0.0
 10
936.808184
 20
564.432144
 30
0.0
 10
934.537632
 20
564.834664
 30
0.0
 10
934.055744
 20
562.096400
 30
0.0
 10
895.056688
 20
568.973248
 30
0.0
 10
895.538584
 20
571.708680
 30
0.0
 10
893.270864
 20
572.111200
 30
0.0
  0
LWPOLYLINE
  5
11c
100
AcDbEntity
  8
0
 62
7
100
AcDbPolyline
 90
21
 70
0
 10
902.622360
 20
625.150256
 30
0.0
 10
904.345824
 20
634.924120
 30
0.0
 10
906.616376
 20
634.524432
 30
0.0
 10
909.079680
 20
648.502072
 30
0.0
 10
906.809136
 20
648.904592
 30
0.0
 10
908.532592
 20
658.675616
 30
0.0
 10
910.803144
 20
658.275928
 30
0.0
 10
911.285040
 20
661.011360
 30
0.0
 10
950.284096
 20
654.137344
 30
0.0
 10
949.802200
 20
651.399080
 30
0.0
 10
952.072752
 20
650.999392
 30
0.0
 10
950.349288
 20
641.225536
 30
0.0
 10
948.078736
 20
641.628056
 30
0.0
 10
945.612592
 20
627.647584
 30
0.0
 10
947.883144
 20
627.247896
 30
0.0
 10
946.159680
 20
617.474040
 30
0.0
 10
943.889136
 20
617.873720
 30
0.0
 10
943.407240
 20
615.138288
 30
0.0
 10
904.408184
 20
622.015136
 30
0.0
 10
904.892912
 20
624.750576
 30
0.0
 10
902.622360
 20
625.150256
 30
0.0
  0
LWPOLYLINE
  5
11d
100
AcDbEntity
  8
0
 62
7
100
AcDbPolyline
 90
6
 70
0
 10
903.770392
 20
307.703960
 30
0.0
 10
907.364720
 20
311.179232
 30
0.0
 10
911.781104
 20
308.829312
 30
0.0
 10
910.910864
 20
303.905536
 30
0.0
 10
905.958736
 20
303.211048
 30
0.0
 10
903.770392
 20
307.703960
 30
0.0
  0
LWPOLYLINE
  5
11e
100
AcDbEntity
  8
0
 62
7
100
AcDbPolyline
 90
6
 70
0
 10
903.770392
 20
732.900808
 30
0.0
 10
907.364720
 20
736.376080
 30
0.0
 10
911.781104
 20
734.026160
 30
0.0
 10
910.910864
 20
729.102384
 30
0.0
 10
905.958736
 20
728.407896
 30
0.0
 10
903.770392
 20
732.900808
 30
0.0
  0
LWPOLYLINE
  5
11f
100
AcDbEntity
  8
0
 62
7
100
AcDbPolyline
 90
21
 70
0
 10
911.973856
 20
678.189312
 30
0.0
 10
913.697320
 20
687.963168
 30
0.0
 10
915.967872
 20
687.563488
 30
0.0
 10
918.431176
 20
701.543960
 30
0.0
 10
916.163464
 20
701.943640
 30
0.0
 10
917.886928
 20
711.717504
 30
0.0
 10
920.154640
 20
711.317816
 30
0.0
 10
920.639368
 20
714.053248
 30
0.0
 10
959.635592
 20
707.176400
 30
0.0
 10
959.153696
 20
704.440968
 30
0.0
 10
961.424248
 20
704.041280
 30
0.0
 10
959.700784
 20
694.267424
 30
0.0
 10
957.430232
 20
694.667112
 30
0.0
 10
954.966928
 20
680.686632
 30
0.0
 10
957.234640
 20
680.286952
 30
0.0
 10
955.511176
 20
670.513096
 30
0.0
 10
953.243464
 20
670.912776
 30
0.0
 10
952.758736
 20
668.177344
 30
0.0
 10
913.762520
 20
675.054192
 30
0.0
 10
914.244408
 20
677.789624
 30
0.0
 10
911.973856
 20
678.189312
 30
0.0
  0
LWPOLYLINE
  5
120
100
AcDbEntity
  8
0
 62
7
100
AcDbPolyline
 90
21
 70
0
 10
937.942048
 20
515.302072
 30
0.0
 10
939.665512
 20
525.073096
 30
0.0
 10
941.936064
 20
524.673408
 30
0.0
 10
944.399368
 20
538.653880
 30
0.0
 10
942.131648
 20
539.053568
 30
0.0
 10
943.852280
 20
548.827424
 30
0.0
 10
946.122832
 20
548.427736
 30
0.0
 10
946.604720
 20
551.163168
 30
0.0
 10
985.603776
 20
544.286320
 30
0.0
 10
985.121888
 20
541.550888
 30
0.0
 10
987.392440
 20
541.151200
 30
0.0
 10
985.668976
 20
531.377344
 30
0.0
 10
983.398424
 20
531.777032
 30
0.0
 10
980.932280
 20
517.796560
 30
0.0
 10
983.202832
 20
517.396872
 30
0.0
 10
981.479368
 20
507.623016
 30
0.0
 10
979.208816
 20
508.022696
 30
0.0
 10
978.726928
 20
505.287264
 30
0.0
 10
939.727872
 20
512.164120
 30
0.0
 10
940.212592
 20
514.899552
 30
0.0
 10
937.942048
 20
515.302072
 30
0.0
  0
LWPOLYLINE
  5
121
100
AcDbEntity
  8
0
 62
7
100
AcDbPolyline
 90
21
 70
0
 10
947.293544
 20
568.341120
 30
0.0
 10
949.017008
 20
578.114984
 30
0.0
 10
951.287560
 20
577.712464
 30
0.0
 10
953.750864
 20
591.692936
 30
0.0
 10
951.483144
 20
592.095456
 30
0.0
 10
953.206608
 20
601.866480
 30
0.0
 10
955.474328
 20
601.466792
 30
0.0
 10
955.959056
 20
604.202224
 30
0.0
 10
994.955272
 20
597.325376
 30
0.0
 10
994.473384
 20
594.589944
 30
0.0
 10
996.743936
 20
594.190256
 30
0.0
 10
995.020472
 20
584.416400
 30
0.0
 10
992.749920
 20
584.818920
 30
0.0
 10
990.286616
 20
570.838448
 30
0.0
 10
992.554328
 20
570.435928
 30
0.0
 10
990.830864
 20
560.664904
 30
0.0
 10
988.563144
 20
561.064592
 30
0.0
 10
988.078424
 20
558.329152
 30
0.0
 10
949.082200
 20
565.206008
 30
0.0
 10
949.564096
 20
567.941440
 30
0.0
 10
947.293544
 20
568.341120
 30
0.0
  0
LWPOLYLINE
  5
122
100
AcDbEntity
  8
0
 62
7
100
AcDbPolyline
 90
21
 70
0
 10
956.647872
 20
621.380176
 30
0.0
 10
958.371336
 20
631.154040
 30
0.0
 10
960.639056
 20
630.754352
 30
0.0
 10
963.105192
 20
644.734824
 30
0.0
 10
960.834640
 20
645.134512
 30
0.0
 10
962.558104
 20
654.908368
 30
0.0
 10
964.828656
 20
654.508680
 30
0.0
 10
965.310552
 20
657.244112
 30
0.0
 10
1004.309600
 20
650.367264
 30
0.0
 10
1003.824880
 20
647.631832
 30
0.0
 10
1006.095432
 20
647.232144
 30
0.0
 10
1004.371968
 20
637.458288
 30
0.0
 10
1002.104248
 20
637.857976
 30
0.0
 10
999.638104
 20
623.877504
 30
0.0
 10
1001.908656
 20
623.477816
 30
0.0
 10
1000.185192
 20
613.703960
 30
0.0
 10
997.914640
 20
614.103640
 30
0.0
 10
997.432752
 20
611.368208
 30
0.0
 10
958.433696
 20
618.245064
 30
0.0
 10
958.915592
 20
620.980496
 30
0.0
 10
956.647872
 20
621.380176
 30
0.0
  0
LWPOLYLINE
  5
123
100
AcDbEntity
  8
0
 62
7
100
AcDbPolyline
 90
21
 70
0
 10
965.999368
 20
674.422072
 30
0.0
 10
967.722832
 20
684.193096
 30
0.0
 10
969.990552
 20
683.793408
 30
0.0
 10
972.456688
 20
697.773880
 30
0.0
 10
970.186144
 20
698.173568
 30
0.0
 10
971.909600
 20
707.947424
 30
0.0
 10
974.180152
 20
707.547736
 30
0.0
 10
974.662048
 20
710.283168
 30
0.0
 10
1013.661096
 20
703.406320
 30
0.0
 10
1013.179208
 20
700.670888
 30
0.0
 10
1015.446928
 20
700.271200
 30
0.0
 10
1013.726296
 20
690.497344
 30
0.0
 10
1011.455744
 20
690.897032
 30
0.0
 10
1008.989608
 20
676.916560
 30
0.0
 10
1011.260152
 20
676.516872
 30
0.0
 10
1009.536688
 20
666.743016
 30
0.0
 10
1007.266136
 20
667.145536
 30
0.0
 10
1006.784248
 20
664.407264
 30
0.0
 10
967.785192
 20
671.284120
 30
0.0
 10
968.269920
 20
674.019552
 30
0.0
 10
965.999368
 20
674.422072
 30
0.0
  0
LWPOLYLINE
  5
124
100
AcDbEntity
  8
0
 62
7
100
AcDbPolyline
 90
21
 70
0
 10
991.967560
 20
511.531992
 30
0.0
 10
993.691024
 20
521.305848
 30
0.0
 10
995.958736
 20
520.903328
 30
0.0
 10
998.424880
 20
534.883800
 30
0.0
 10
996.154328
 20
535.286320
 30
0.0
 10
997.877792
 20
545.057344
 30
0.0
 10
1000.148344
 20
544.657656
 30
0.0
 10
1000.630232
 20
547.393096
 30
0.0
 10
1039.629288
 20
540.516240
 30
0.0
 10
1039.147400
 20
537.780808
 30
0.0
 10
1041.415112
 20
537.381120
 30
0.0
 10
1039.691648
 20
527.607264
 30
0.0
 10
1037.423936
 20
528.009784
 30
0.0
 10
1034.957792
 20
514.029312
 30
0.0
 10
1037.228344
 20
513.626792
 30
0.0
 10
1035.504880
 20
503.855768
 30
0.0
 10
1033.234328
 20
504.255456
 30
0.0
 10
1032.752440
 20
501.520024
 30
0.0
 10
993.753384
 20
508.396872
 30
0.0
 10
994.235272
 20
511.132304
 30
0.0
 10
991.967560
 20
511.531992
 30
0.0
  0
LWPOLYLINE
  5
125
100
AcDbEntity
  8
0
 62
7
100
AcDbPolyline
 90
21
 70
0
 10
1001.319056
 20
564.571048
 30
0.0
 10
1003.042520
 20
574.344904
 30
0.0
 10
1005.310232
 20
573.945216
 30
0.0
 10
1007.776376
 20
587.925688
 30
0.0
 10
1005.505824
 20
588.325376
 30
0.0
 10
1007.229288
 20
598.099232
 30
0.0
 10
1009.499840
 20
597.699552
 30
0.0
 10
1009.981728
 20
600.434984
 30
0.0
 10
1048.980784
 20
593.558128
 30
0.0
 10
1048.498896
 20
590.822696
 30
0.0
 10
1050.766608
 20
590.420176
 30
0.0
 10
1049.045984
 20
580.649152
 30
0.0
 10
1046.775432
 20
581.048840
 30
0.0
 10
1044.309288
 20
567.068368
 30
0.0
 10
1046.579840
 20
566.668680
 30
0.0
 10
1044.856376
 20
556.894824
 30
0.0
 10
1042.585824
 20
557.294512
 30
0.0
 10
1042.103936
 20
554.559080
 30
0.0
 10
1003.104880
 20
561.435928
 30
0.0
 10
1003.589608
 20
564.171360
 30
0.0
 10
1001.319056
 20
564.571048
 30
0.0
  0
LWPOLYLINE
  5
126
100
AcDbEntity
  8
0
 62
7
100
AcDbPolyline
 90
21
 70
0
 10
1010.670552
 20
617.612936
 30
0.0
 10
1012.394016
 20
627.383960
 30
0.0
 10
1014.664568
 20
626.984272
 30
0.0
 10
1017.127872
 20
640.964744
 30
0.0
 10
1014.860152
 20
641.364432
 30
0.0
 10
1016.583624
 20
651.138288
 30
0.0
 10
1018.851336
 20
650.738600
 30
0.0
 10
1019.336064
 20
653.474040
 30
0.0
 10
1058.332280
 20
646.597184
 30
0.0
 10
1057.850392
 20
643.861752
 30
0.0
 10
1060.120944
 20
643.462072
 30
0.0
 10
1058.397480
 20
633.688208
 30
0.0
 10
1056.126928
 20
634.087896
 30
0.0
 10
1053.663616
 20
620.107424
 30
0.0
 10
1055.931336
 20
619.707736
 30
0.0
 10
1054.207872
 20
609.933880
 30
0.0
 10
1051.940152
 20
610.333568
 30
0.0
 10
1051.455432
 20
607.598128
 30
0.0
 10
1012.459208
 20
614.474984
 30
0.0
 10
1012.941096
 20
617.210416
 30
0.0
 10
1010.670552
 20
617.612936
 30
0.0
  0
LWPOLYLINE
  5
127
100
AcDbEntity
  8
0
 62
7
100
AcDbPolyline
 90
21
 70
0
 10
1020.024880
 20
670.651992
 30
0.0
 10
1021.745512
 20
680.425848
 30
0.0
 10
1024.016064
 20
680.023328
 30
0.0
 10
1026.482200
 20
694.003800
 30
0.0
 10
1024.211648
 20
694.406320
 30
0.0
 10
1025.935112
 20
704.177344
 30
0.0
 10
1028.205664
 20
703.777656
 30
0.0
 10
1028.687560
 20
706.513096
 30
0.0
 10
1067.686616
 20
699.636240
 30
0.0
 10
1067.201888
 20
696.900808
 30
0.0
 10
1069.472440
 20
696.501120
 30
0.0
 10
1067.748976
 20
686.727264
 30
0.0
 10
1065.481256
 20
687.129784
 30
0.0
 10
1063.015112
 20
673.149312
 30
0.0
 10
1065.285664
 20
672.746792
 30
0.0
 10
1063.562200
 20
662.975768
 30
0.0
 10
1061.291648
 20
663.375456
 30
0.0
 10
1060.809760
 20
660.640024
 30
0.0
 10
1021.810704
 20
667.516872
 30
0.0
 10
1022.292600
 20
670.252304
 30
0.0
 10
1020.024880
 20
670.651992
 30
0.0
  0
LWPOLYLINE
  5
128
100
AcDbEntity
  8
0
 62
7
100
AcDbPolyline
 90
21
 70
0
 10
1045.499840
 20
504.969784
 30
0.0
 10
1047.223304
 20
514.743640
 30
0.0
 10
1049.491024
 20
514.343960
 30
0.0
 10
1051.957160
 20
528.324432
 30
0.0
 10
1049.686616
 20
528.724120
 30
0.0
 10
1051.410080
 20
538.497976
 30
0.0
 10
1053.680632
 20
538.098288
 30
0.0
 10
1054.162520
 20
540.833720
 30
0.0
 10
1093.161576
 20
533.956872
 30
0.0
 10
1092.679680
 20
531.221440
 30
0.0
 10
1094.947400
 20
530.821752
 30
0.0
 10
1093.223936
 20
521.047896
 30
0.0
 10
1090.956216
 20
521.447584
 30
0.0
 10
1088.490080
 20
507.467112
 30
0.0
 10
1090.760624
 20
507.067424
 30
0.0
 10
1089.037160
 20
497.293568
 30
0.0
 10
1086.766608
 20
497.693248
 30
0.0
 10
1086.284720
 20
494.957816
 30
0.0
 10
1047.285664
 20
501.834664
 30
0.0
 10
1047.767560
 20
504.570104
 30
0.0
 10
1045.499840
 20
504.969784
 30
0.0
  0
LWPOLYLINE
  5
129
100
AcDbEntity
  8
0
 62
7
100
AcDbPolyline
 90
21
 70
0
 10
1054.851336
 20
558.011672
 30
0.0
 10
1056.574800
 20
567.782696
 30
0.0
 10
1058.842520
 20
567.383016
 30
0.0
 10
1061.308656
 20
581.363488
 30
0.0
 10
1059.038104
 20
581.763168
 30
0.0
 10
1060.761576
 20
591.537032
 30
0.0
 10
1063.032120
 20
591.137344
 30
0.0
 10
1063.514016
 20
593.872776
 30
0.0
 10
1102.513072
 20
586.995928
 30
0.0
 10
1102.031176
 20
584.260496
 30
0.0
 10
1104.298896
 20
583.860808
 30
0.0
 10
1102.578264
 20
574.086952
 30
0.0
 10
1100.307712
 20
574.486632
 30
0.0
 10
1097.841576
 20
560.506160
 30
0.0
 10
1100.112120
 20
560.106480
 30
0.0
 10
1098.388656
 20
550.332616
 30
0.0
 10
1096.118104
 20
550.735136
 30
0.0
 10
1095.636216
 20
547.999704
 30
0.0
 10
1056.637160
 20
554.873720
 30
0.0
 10
1057.121888
 20
557.609152
 30
0.0
 10
1054.851336
 20
558.011672
 30
0.0
  0
LWPOLYLINE
  5
12a
100
AcDbEntity
  8
0
 62
7
100
AcDbPolyline
 90
21
 70
0
 10
1064.202832
 20
611.050728
 30
0.0
 10
1065.926296
 20
620.824592
 30
0.0
 10
1068.196848
 20
620.424904
 30
0.0
 10
1070.660152
 20
634.405376
 30
0.0
 10
1068.392440
 20
634.805064
 30
0.0
 10
1070.115904
 20
644.578920
 30
0.0
 10
1072.383624
 20
644.176400
 30
0.0
 10
1072.868344
 20
646.911832
 30
0.0
 10
1111.864568
 20
640.037816
 30
0.0
 10
1111.382672
 20
637.302384
 30
0.0
 10
1113.653224
 20
636.899864
 30
0.0
 10
1111.929760
 20
627.128840
 30
0.0
 10
1109.659208
 20
627.528528
 30
0.0
 10
1107.195904
 20
613.548056
 30
0.0
 10
1109.463616
 20
613.148368
 30
0.0
 10
1107.740152
 20
603.374512
 30
0.0
 10
1105.472440
 20
603.774192
 30
0.0
 10
1104.987712
 20
601.038760
 30
0.0
 10
1065.991496
 20
607.915616
 30
0.0
 10
1066.473384
 20
610.651048
 30
0.0
 10
1064.202832
 20
611.050728
 30
0.0
  0
LWPOLYLINE
  5
12b
100
AcDbEntity
  8
0
 62
7
100
AcDbPolyline
 90
21
 70
0
 10
1073.557160
 20
664.089784
 30
0.0
 10
1075.277792
 20
673.863640
 30
0.0
 10
1077.548344
 20
673.463960
 30
0.0
 10
1080.014488
 20
687.444432
 30
0.0
 10
1077.743936
 20
687.844112
 30
0.0
 10
1079.467400
 20
697.617976
 30
0.0
 10
1081.737952
 20
697.218288
 30
0.0
 10
1082.219840
 20
699.953720
 30
0.0
 10
1121.218896
 20
693.076872
 30
0.0
 10
1120.734168
 20
690.341440
 30
0.0
 10
1123.004720
 20
689.941752
 30
0.0
 10
1121.281256
 20
680.167896
 30
0.0
 10
1119.013544
 20
680.567584
 30
0.0
 10
1116.547400
 20
666.587104
 30
0.0
 10
1118.817952
 20
666.187424
 30
0.0
 10
1117.094488
 20
656.413568
 30
0.0
 10
1114.823936
 20
656.813248
 30
0.0
 10
1114.342048
 20
654.077816
 30
0.0
 10
1075.342992
 20
660.954664
 30
0.0
 10
1075.824880
 20
663.690096
 30
0.0
 10
1073.557160
 20
664.089784
 30
0.0
  0
LWPOLYLINE
  5
12c
100
AcDbEntity
  8
0
 62
7
100
AcDbPolyline
 90
21
 70
0
 10
1097.555272
 20
490.034040
 30
0.0
 10
1099.278736
 20
499.807896
 30
0.0
 10
1101.546456
 20
499.408208
 30
0.0
 10
1104.012592
 20
513.388680
 30
0.0
 10
1101.742048
 20
513.788368
 30
0.0
 10
1103.465512
 20
523.562224
 30
0.0
 10
1105.736064
 20
523.162544
 30
0.0
 10
1106.217952
 20
525.897976
 30
0.0
 10
1145.217008
 20
519.021120
 30
0.0
 10
1144.735112
 20
516.285688
 30
0.0
 10
1147.002832
 20
515.886008
 30
0.0
 10
1145.279368
 20
506.112144
 30
0.0
 10
1143.011648
 20
506.511832
 30
0.0
 10
1140.545512
 20
492.531360
 30
0.0
 10
1142.816064
 20
492.131672
 30
0.0
 10
1141.092600
 20
482.357816
 30
0.0
 10
1138.822048
 20
482.757504
 30
0.0
 10
1138.340152
 20
480.022072
 30
0.0
 10
1099.341096
 20
486.898920
 30
0.0
 10
1099.822992
 20
489.634352
 30
0.0
 10
1097.555272
 20
490.034040
 30
0.0
  0
LWPOLYLINE
  5
12d
100
AcDbEntity
  8
0
 62
7
100
AcDbPolyline
 90
21
 70
0
 10
1106.906768
 20
543.075928
 30
0.0
 10
1108.630232
 20
552.849784
 30
0.0
 10
1110.900784
 20
552.447264
 30
0.0
 10
1113.364096
 20
566.427736
 30
0.0
 10
1111.096376
 20
566.827424
 30
0.0
 10
1112.817008
 20
576.601280
 30
0.0
 10
1115.087560
 20
576.201600
 30
0.0
 10
1115.569448
 20
578.937032
 30
0.0
 10
1154.568504
 20
572.060176
 30
0.0
 10
1154.086616
 20
569.324744
 30
0.0
 10
1156.357160
 20
568.925064
 30
0.0
 10
1154.633696
 20
559.151200
 30
0.0
 10
1152.363144
 20
559.550888
 30
0.0
 10
1149.897008
 20
545.570416
 30
0.0
 10
1152.167560
 20
545.170728
 30
0.0
 10
1150.444096
 20
535.399704
 30
0.0
 10
1148.173544
 20
535.799392
 30
0.0
 10
1147.691648
 20
533.063960
 30
0.0
 10
1108.692600
 20
539.937976
 30
0.0
 10
1109.177320
 20
542.676240
 30
0.0
 10
1106.906768
 20
543.075928
 30
0.0
  0
LWPOLYLINE
  5
12e
100
AcDbEntity
  8
0
 62
7
100
AcDbPolyline
 90
21
 70
0
 10
1116.258264
 20
596.114984
 30
0.0
 10
1117.981728
 20
605.888840
 30
0.0
 10
1120.252280
 20
605.489152
 30
0.0
 10
1122.715592
 20
619.469624
 30
0.0
 10
1120.447872
 20
619.869312
 30
0.0
 10
1122.171336
 20
629.643168
 30
0.0
 10
1124.439056
 20
629.240648
 30
0.0
 10
1124.923776
 20
631.978920
 30
0.0
 10
1163.920000
 20
625.102072
 30
0.0
 10
1163.438104
 20
622.366632
 30
0.0
 10
1165.708656
 20
621.964120
 30
0.0
 10
1163.985192
 20
612.193096
 30
0.0
 10
1161.714640
 20
612.592776
 30
0.0
 10
1159.251336
 20
598.612304
 30
0.0
 10
1161.519056
 20
598.212616
 30
0.0
 10
1159.795592
 20
588.438760
 30
0.0
 10
1157.527872
 20
588.838448
 30
0.0
 10
1157.043144
 20
586.103016
 30
0.0
 10
1118.046928
 20
592.979864
 30
0.0
 10
1118.528816
 20
595.715296
 30
0.0
 10
1116.258264
 20
596.114984
 30
0.0
  0
LWPOLYLINE
  5
12f
100
AcDbEntity
  8
0
 62
7
100
AcDbPolyline
 90
21
 70
0
 10
1125.612592
 20
649.154040
 30
0.0
 10
1127.336064
 20
658.927896
 30
0.0
 10
1129.603776
 20
658.528208
 30
0.0
 10
1132.069920
 20
672.508680
 30
0.0
 10
1129.799368
 20
672.908368
 30
0.0
 10
1131.522832
 20
682.682224
 30
0.0
 10
1133.793384
 20
682.282544
 30
0.0
 10
1134.275272
 20
685.017976
 30
0.0
 10
1173.274328
 20
678.141120
 30
0.0
 10
1172.792440
 20
675.405688
 30
0.0
 10
1175.060152
 20
675.006008
 30
0.0
 10
1173.336688
 20
665.232144
 30
0.0
 10
1171.068976
 20
665.631832
 30
0.0
 10
1168.602832
 20
651.651360
 30
0.0
 10
1170.873384
 20
651.251672
 30
0.0
 10
1169.149920
 20
641.477816
 30
0.0
 10
1166.879368
 20
641.877504
 30
0.0
 10
1166.397480
 20
639.142072
 30
0.0
 10
1127.398424
 20
646.018920
 30
0.0
 10
1127.880312
 20
648.754352
 30
0.0
 10
1125.612592
 20
649.154040
 30
0.0
  0
LWPOLYLINE
  5
130
100
AcDbEntity
  8
0
 62
7
100
AcDbPolyline
 90
6
 70
0
 10
1126.145512
 20
18.074064
 30
0.0
 10
1129.739840
 20
21.549344
 30
0.0
 10
1134.156216
 20
19.202224
 30
0.0
 10
1133.288816
 20
14.275584
 30
0.0
 10
1128.336688
 20
13.581104
 30
0.0
 10
1126.145512
 20
18.074064
 30
0.0
  0
LWPOLYLINE
  5
131
100
AcDbEntity
  8
0
 62
7
100
AcDbPolyline
 90
6
 70
0
 10
1126.145512
 20
443.270888
 30
0.0
 10
1129.739840
 20
446.746160
 30
0.0
 10
1134.156216
 20
444.399080
 30
0.0
 10
1133.288816
 20
439.472464
 30
0.0
 10
1128.336688
 20
438.777976
 30
0.0
 10
1126.145512
 20
443.270888
 30
0.0
  0
LWPOLYLINE
  5
132
100
AcDbEntity
  8
0
 62
7
100
AcDbPolyline
 90
21
 70
0
 10
1147.272128
 20
461.840648
 30
0.0
 10
1148.995592
 20
471.611672
 30
0.0
 10
1151.263304
 20
471.211992
 30
0.0
 10
1153.729448
 20
485.192464
 30
0.0
 10
1151.458896
 20
485.592144
 30
0.0
 10
1153.182360
 20
495.366008
 30
0.0
 10
1155.452912
 20
494.966320
 30
0.0
 10
1155.934800
 20
497.701752
 30
0.0
 10
1194.933856
 20
490.824904
 30
0.0
 10
1194.451968
 20
488.089472
 30
0.0
 10
1196.719680
 20
487.689784
 30
0.0
 10
1194.996216
 20
477.915928
 30
0.0
 10
1192.728504
 20
478.315616
 30
0.0
 10
1190.262360
 20
464.335136
 30
0.0
 10
1192.532912
 20
463.935456
 30
0.0
 10
1190.809448
 20
454.161592
 30
0.0
 10
1188.538896
 20
454.564112
 30
0.0
 10
1188.057008
 20
451.825848
 30
0.0
 10
1149.057952
 20
458.702696
 30
0.0
 10
1149.542672
 20
461.438128
 30
0.0
 10
1147.272128
 20
461.840648
 30
0.0
  0
LWPOLYLINE
  5
133
100
AcDbEntity
  8
0
 62
7
100
AcDbPolyline
 90
21
 70
0
 10
1158.962200
 20
528.140176
 30
0.0
 10
1160.685664
 20
537.914040
 30
0.0
 10
1162.956216
 20
537.511520
 30
0.0
 10
1165.419528
 20
551.491992
 30
0.0
 10
1163.151808
 20
551.894512
 30
0.0
 10
1164.875272
 20
561.665536
 30
0.0
 10
1167.142992
 20
561.265848
 30
0.0
 10
1167.624880
 20
564.001280
 30
0.0
 10
1206.623936
 20
557.124432
 30
0.0
 10
1206.142048
 20
554.389000
 30
0.0
 10
1208.412592
 20
553.989312
 30
0.0
 10
1206.689136
 20
544.215456
 30
0.0
 10
1204.418584
 20
544.615136
 30
0.0
 10
1201.952440
 20
530.637504
 30
0.0
 10
1204.222992
 20
530.234984
 30
0.0
 10
1202.499528
 20
520.463960
 30
0.0
 10
1200.228976
 20
520.863640
 30
0.0
 10
1199.747088
 20
518.128208
 30
0.0
 10
1160.748032
 20
525.005064
 30
0.0
 10
1161.232752
 20
527.740496
 30
0.0
 10
1158.962200
 20
528.140176
 30
0.0
  0
LWPOLYLINE
  5
134
100
AcDbEntity
  8
0
 62
7
100
AcDbPolyline
 90
21
 70
0
 10
1168.313696
 20
581.179232
 30
0.0
 10
1170.037160
 20
590.953096
 30
0.0
 10
1172.307712
 20
590.553408
 30
0.0
 10
1174.773856
 20
604.533880
 30
0.0
 10
1172.503304
 20
604.933568
 30
0.0
 10
1174.226768
 20
614.707424
 30
0.0
 10
1176.494488
 20
614.307736
 30
0.0
 10
1176.979208
 20
617.043168
 30
0.0
 10
1215.975448
 20
610.166320
 30
0.0
 10
1215.493528
 20
607.430888
 30
0.0
 10
1217.764088
 20
607.028368
 30
0.0
 10
1216.040648
 20
597.257344
 30
0.0
 10
1213.770088
 20
597.657032
 30
0.0
 10
1211.306808
 20
583.676560
 30
0.0
 10
1213.574488
 20
583.276872
 30
0.0
 10
1211.851048
 20
573.503016
 30
0.0
 10
1209.583304
 20
573.902696
 30
0.0
 10
1209.101416
 20
571.167264
 30
0.0
 10
1170.102360
 20
578.044112
 30
0.0
 10
1170.584248
 20
580.779552
 30
0.0
 10
1168.313696
 20
581.179232
 30
0.0
  0
LWPOLYLINE
  5
135
100
AcDbEntity
  8
0
 62
7
100
AcDbPolyline
 90
21
 70
0
 10
1177.668032
 20
634.218288
 30
0.0
 10
1179.391496
 20
643.992144
 30
0.0
 10
1181.659208
 20
643.592464
 30
0.0
 10
1184.125352
 20
657.572936
 30
0.0
 10
1181.854800
 20
657.972616
 30
0.0
 10
1183.578264
 20
667.746480
 30
0.0
 10
1185.848816
 20
667.346792
 30
0.0
 10
1186.330704
 20
670.082224
 30
0.0
 10
1225.329768
 20
663.205376
 30
0.0
 10
1224.847848
 20
660.469944
 30
0.0
 10
1227.115608
 20
660.070256
 30
0.0
 10
1225.392088
 20
650.296400
 30
0.0
 10
1223.124408
 20
650.696088
 30
0.0
 10
1220.658248
 20
636.715616
 30
0.0
 10
1222.928808
 20
636.315928
 30
0.0
 10
1221.205368
 20
626.542072
 30
0.0
 10
1218.934808
 20
626.941752
 30
0.0
 10
1218.452888
 20
624.206320
 30
0.0
 10
1179.453856
 20
631.083168
 30
0.0
 10
1179.935744
 20
633.818608
 30
0.0
 10
1177.668032
 20
634.218288
 30
0.0
  0
LWPOLYLINE
  5
136
100
AcDbEntity
  8
0
 62
7
100
AcDbPolyline
 90
21
 70
0
 10
1202.156536
 20
462.954664
 30
0.0
 10
1203.880000
 20
472.728528
 30
0.0
 10
1206.150552
 20
472.328840
 30
0.0
 10
1208.616688
 20
486.309312
 30
0.0
 10
1206.346136
 20
486.709000
 30
0.0
 10
1208.069608
 20
496.482856
 30
0.0
 10
1210.340152
 20
496.083168
 30
0.0
 10
1210.822008
 20
498.818608
 30
0.0
 10
1249.818248
 20
491.941752
 30
0.0
 10
1249.336408
 20
489.206320
 30
0.0
 10
1251.606888
 20
488.806632
 30
0.0
 10
1249.883448
 20
479.032776
 30
0.0
 10
1247.612888
 20
479.432464
 30
0.0
 10
1245.149608
 20
465.451992
 30
0.0
 10
1247.417288
 20
465.052304
 30
0.0
 10
1245.693848
 20
455.278448
 30
0.0
 10
1243.426168
 20
455.678128
 30
0.0
 10
1242.944248
 20
452.942696
 30
0.0
 10
1203.945192
 20
459.819552
 30
0.0
 10
1204.427088
 20
462.554984
 30
0.0
 10
1202.156536
 20
462.954664
 30
0.0
  0
LWPOLYLINE
  5
137
100
AcDbEntity
  8
0
 62
7
100
AcDbPolyline
 90
6
 70
0
 10
1225.480008
 20
306.966952
 30
0.0
 10
1228.416728
 20
311.011992
 30
0.0
 10
1233.173208
 20
309.467104
 30
0.0
 10
1233.173208
 20
304.466792
 30
0.0
 10
1228.416728
 20
302.921912
 30
0.0
 10
1225.480008
 20
306.966952
 30
0.0
  0
LWPOLYLINE
  5
138
100
AcDbEntity
  8
0
 62
7
100
AcDbPolyline
 90
6
 70
0
 10
1225.480008
 20
732.163800
 30
0.0
 10
1228.416728
 20
736.208840
 30
0.0
 10
1233.173208
 20
734.663960
 30
0.0
 10
1233.173208
 20
729.663640
 30
0.0
 10
1228.416728
 20
728.118760
 30
0.0
 10
1225.480008
 20
732.163800
 30
0.0
  0
LWPOLYLINE
  5
139
100
AcDbEntity
  8
0
 62
7
100
AcDbPolyline
 90
21
 70
0
 10
1270.219208
 20
488.806632
 30
0.0
 10
1272.489768
 20
489.206320
 30
0.0
 10
1272.007848
 20
491.941752
 30
0.0
 10
1311.004088
 20
498.818608
 30
0.0
 10
1311.486008
 20
496.083168
 30
0.0
 10
1313.756568
 20
496.482856
 30
0.0
 10
1315.480008
 20
486.709000
 30
0.0
 10
1313.209448
 20
486.309312
 30
0.0
 10
1315.675608
 20
472.328840
 30
0.0
 10
1317.946168
 20
472.728528
 30
0.0
 10
1319.669608
 20
462.954664
 30
0.0
 10
1317.399048
 20
462.554984
 30
0.0
 10
1317.880968
 20
459.819552
 30
0.0
 10
1278.881928
 20
452.942696
 30
0.0
 10
1278.400008
 20
455.678128
 30
0.0
 10
1276.132248
 20
455.278448
 30
0.0
 10
1274.408808
 20
465.052304
 30
0.0
 10
1276.676568
 20
465.451992
 30
0.0
 10
1274.213208
 20
479.432464
 30
0.0
 10
1271.942648
 20
479.032776
 30
0.0
 10
1270.219208
 20
488.806632
 30
0.0
  0
LWPOLYLINE
  5
13a
100
AcDbEntity
  8
0
 62
7
100
AcDbPolyline
 90
6
 70
0
 10
1288.652888
 20
304.466792
 30
0.0
 10
1288.652888
 20
309.467104
 30
0.0
 10
1293.409448
 20
311.011992
 30
0.0
 10
1296.346168
 20
306.966952
 30
0.0
 10
1293.409448
 20
302.921912
 30
0.0
 10
1288.652888
 20
304.466792
 30
0.0
  0
LWPOLYLINE
  5
13b
100
AcDbEntity
  8
0
 62
7
100
AcDbPolyline
 90
6
 70
0
 10
1288.652888
 20
729.663640
 30
0.0
 10
1288.652888
 20
734.663960
 30
0.0
 10
1293.409448
 20
736.208840
 30
0.0
 10
1296.346168
 20
732.163800
 30
0.0
 10
1293.409448
 20
728.118760
 30
0.0
 10
1288.652888
 20
729.663640
 30
0.0
  0
LWPOLYLINE
  5
13c
100
AcDbEntity
  8
0
 62
7
100
AcDbPolyline
 90
21
 70
0
 10
1294.710568
 20
660.070256
 30
0.0
 10
1296.978248
 20
660.469944
 30
0.0
 10
1296.496408
 20
663.205376
 30
0.0
 10
1335.495448
 20
670.082224
 30
0.0
 10
1335.977288
 20
667.346792
 30
0.0
 10
1338.247848
 20
667.746480
 30
0.0
 10
1339.971368
 20
657.972616
 30
0.0
 10
1337.700808
 20
657.572936
 30
0.0
 10
1340.166888
 20
643.592464
 30
0.0
 10
1342.434648
 20
643.992144
 30
0.0
 10
1344.158088
 20
634.218288
 30
0.0
 10
1341.890408
 20
633.818608
 30
0.0
 10
1342.372248
 20
631.083168
 30
0.0
 10
1303.373208
 20
624.206320
 30
0.0
 10
1302.891368
 20
626.941752
 30
0.0
 10
1300.620808
 20
626.542072
 30
0.0
 10
1298.897288
 20
636.315928
 30
0.0
 10
1301.167848
 20
636.715616
 30
0.0
 10
1298.701768
 20
650.696088
 30
0.0
 10
1296.434008
 20
650.296400
 30
0.0
 10
1294.710568
 20
660.070256
 30
0.0
  0
LWPOLYLINE
  5
13d
100
AcDbEntity
  8
0
 62
7
100
AcDbPolyline
 90
21
 70
0
 10
1304.062008
 20
607.028368
 30
0.0
 10
1306.332568
 20
607.430888
 30
0.0
 10
1305.850728
 20
610.166320
 30
0.0
 10
1344.846888
 20
617.043168
 30
0.0
 10
1345.331688
 20
614.307736
 30
0.0
 10
1347.599368
 20
614.707424
 30
0.0
 10
1349.322808
 20
604.933568
 30
0.0
 10
1347.052248
 20
604.533880
 30
0.0
 10
1349.518408
 20
590.553408
 30
0.0
 10
1351.788968
 20
590.953096
 30
0.0
 10
1353.512408
 20
581.179232
 30
0.0
 10
1351.241928
 20
580.779552
 30
0.0
 10
1351.723768
 20
578.044112
 30
0.0
 10
1312.724728
 20
571.167264
 30
0.0
 10
1312.242808
 20
573.902696
 30
0.0
 10
1309.975128
 20
573.503016
 30
0.0
 10
1308.251688
 20
583.276872
 30
0.0
 10
1310.519368
 20
583.676560
 30
0.0
 10
1308.056088
 20
597.657032
 30
0.0
 10
1305.785528
 20
597.257344
 30
0.0
 10
1304.062008
 20
607.028368
 30
0.0
  0
LWPOLYLINE
  5
13e
100
AcDbEntity
  8
0
 62
7
100
AcDbPolyline
 90
21
 70
0
 10
1313.413528
 20
553.989312
 30
0.0
 10
1315.684088
 20
554.389000
 30
0.0
 10
1315.202168
 20
557.124432
 30
0.0
 10
1354.201288
 20
564.001280
 30
0.0
 10
1354.683128
 20
561.265848
 30
0.0
 10
1356.950888
 20
561.665536
 30
0.0
 10
1358.674328
 20
551.894512
 30
0.0
 10
1356.406648
 20
551.491992
 30
0.0
 10
1358.869928
 20
537.511520
 30
0.0
 10
1361.140488
 20
537.914040
 30
0.0
 10
1362.863928
 20
528.140176
 30
0.0
 10
1360.593368
 20
527.740496
 30
0.0
 10
1361.078088
 20
525.005064
 30
0.0
 10
1322.079048
 20
518.128208
 30
0.0
 10
1321.597128
 20
520.863640
 30
0.0
 10
1319.326648
 20
520.463960
 30
0.0
 10
1317.603128
 20
530.234984
 30
0.0
 10
1319.873688
 20
530.637504
 30
0.0
 10
1317.407528
 20
544.615136
 30
0.0
 10
1315.136968
 20
544.215456
 30
0.0
 10
1313.413528
 20
553.989312
 30
0.0
  0
LWPOLYLINE
  5
13f
100
AcDbEntity
  8
0
 62
7
100
AcDbPolyline
 90
21
 70
0
 10
1325.106488
 20
487.689784
 30
0.0
 10
1327.374168
 20
488.089472
 30
0.0
 10
1326.892248
 20
490.824904
 30
0.0
 10
1365.891368
 20
497.701752
 30
0.0
 10
1366.373208
 20
494.966320
 30
0.0
 10
1368.643768
 20
495.366008
 30
0.0
 10
1370.367208
 20
485.592144
 30
0.0
 10
1368.096728
 20
485.192464
 30
0.0
 10
1370.562808
 20
471.211992
 30
0.0
 10
1372.830568
 20
471.611672
 30
0.0
 10
1374.554008
 20
461.840648
 30
0.0
 10
1372.283448
 20
461.438128
 30
0.0
 10
1372.768168
 20
458.702696
 30
0.0
 10
1333.769128
 20
451.825848
 30
0.0
 10
1333.287208
 20
454.564112
 30
0.0
 10
1331.016728
 20
454.161592
 30
0.0
 10
1329.293208
 20
463.935456
 30
0.0
 10
1331.563768
 20
464.335136
 30
0.0
 10
1329.097608
 20
478.315616
 30
0.0
 10
1326.829928
 20
477.915928
 30
0.0
 10
1325.106488
 20
487.689784
 30
0.0
  0
LWPOLYLINE
  5
140
100
AcDbEntity
  8
0
 62
7
100
AcDbPolyline
 90
21
 70
0
 10
1346.766008
 20
675.006008
 30
0.0
 10
1349.033688
 20
675.405688
 30
0.0
 10
1348.551848
 20
678.141120
 30
0.0
 10
1387.550888
 20
685.017976
 30
0.0
 10
1388.032728
 20
682.282544
 30
0.0
 10
1390.303288
 20
682.682224
 30
0.0
 10
1392.026808
 20
672.908368
 30
0.0
 10
1389.756248
 20
672.508680
 30
0.0
 10
1392.222328
 20
658.528208
 30
0.0
 10
1394.490088
 20
658.927896
 30
0.0
 10
1396.213528
 20
649.154040
 30
0.0
 10
1393.945848
 20
648.754352
 30
0.0
 10
1394.427688
 20
646.018920
 30
0.0
 10
1355.428648
 20
639.142072
 30
0.0
 10
1354.946808
 20
641.877504
 30
0.0
 10
1352.676248
 20
641.477816
 30
0.0
 10
1350.952728
 20
651.251672
 30
0.0
 10
1353.223288
 20
651.651360
 30
0.0
 10
1350.757128
 20
665.631832
 30
0.0
 10
1348.489448
 20
665.232144
 30
0.0
 10
1346.766008
 20
675.006008
 30
0.0
  0
LWPOLYLINE
  5
141
100
AcDbEntity
  8
0
 62
7
100
AcDbPolyline
 90
21
 70
0
 10
1356.117448
 20
621.964120
 30
0.0
 10
1358.388008
 20
622.366632
 30
0.0
 10
1357.906168
 20
625.102072
 30
0.0
 10
1396.902328
 20
631.978920
 30
0.0
 10
1397.387048
 20
629.240648
 30
0.0
 10
1399.654808
 20
629.643168
 30
0.0
 10
1401.378248
 20
619.869312
 30
0.0
 10
1399.110568
 20
619.469624
 30
0.0
 10
1401.573848
 20
605.489152
 30
0.0
 10
1403.844408
 20
605.888840
 30
0.0
 10
1405.567848
 20
596.114984
 30
0.0
 10
1403.297288
 20
595.715296
 30
0.0
 10
1403.779208
 20
592.979864
 30
0.0
 10
1364.782968
 20
586.103016
 30
0.0
 10
1364.298248
 20
588.838448
 30
0.0
 10
1362.030568
 20
588.438760
 30
0.0
 10
1360.307048
 20
598.212616
 30
0.0
 10
1362.574808
 20
598.612304
 30
0.0
 10
1360.111528
 20
612.592776
 30
0.0
 10
1357.840968
 20
612.193096
 30
0.0
 10
1356.117448
 20
621.964120
 30
0.0
  0
LWPOLYLINE
  5
142
100
AcDbEntity
  8
0
 62
7
100
AcDbPolyline
 90
21
 70
0
 10
1365.468968
 20
568.925064
 30
0.0
 10
1367.739528
 20
569.324744
 30
0.0
 10
1367.257608
 20
572.060176
 30
0.0
 10
1406.256728
 20
578.937032
 30
0.0
 10
1406.738568
 20
576.201600
 30
0.0
 10
1409.009128
 20
576.601280
 30
0.0
 10
1410.729768
 20
566.827424
 30
0.0
 10
1408.462008
 20
566.427736
 30
0.0
 10
1410.925368
 20
552.447264
 30
0.0
 10
1413.195928
 20
552.849784
 30
0.0
 10
1414.919368
 20
543.075928
 30
0.0
 10
1412.648808
 20
542.676240
 30
0.0
 10
1413.133528
 20
539.937976
 30
0.0
 10
1374.134488
 20
533.063960
 30
0.0
 10
1373.652568
 20
535.799392
 30
0.0
 10
1371.382008
 20
535.399704
 30
0.0
 10
1369.658568
 20
545.170728
 30
0.0
 10
1371.929128
 20
545.570416
 30
0.0
 10
1369.462968
 20
559.550888
 30
0.0
 10
1367.192408
 20
559.151200
 30
0.0
 10
1365.468968
 20
568.925064
 30
0.0
  0
LWPOLYLINE
  5
143
100
AcDbEntity
  8
0
 62
7
100
AcDbPolyline
 90
21
 70
0
 10
1374.823288
 20
515.886008
 30
0.0
 10
1377.091048
 20
516.285688
 30
0.0
 10
1376.609128
 20
519.021120
 30
0.0
 10
1415.608168
 20
525.897976
 30
0.0
 10
1416.090088
 20
523.162544
 30
0.0
 10
1418.360648
 20
523.562224
 30
0.0
 10
1420.084088
 20
513.788368
 30
0.0
 10
1417.813528
 20
513.388680
 30
0.0
 10
1420.279688
 20
499.408208
 30
0.0
 10
1422.547368
 20
499.807896
 30
0.0
 10
1424.270888
 20
490.034040
 30
0.0
 10
1422.003128
 20
489.634352
 30
0.0
 10
1422.485048
 20
486.898920
 30
0.0
 10
1383.486008
 20
480.022072
 30
0.0
 10
1383.004088
 20
482.757504
 30
0.0
 10
1380.733528
 20
482.357816
 30
0.0
 10
1379.010088
 20
492.131672
 30
0.0
 10
1381.280648
 20
492.531360
 30
0.0
 10
1378.814488
 20
506.511832
 30
0.0
 10
1376.546808
 20
506.112144
 30
0.0
 10
1374.823288
 20
515.886008
 30
0.0
  0
LWPOLYLINE
  5
144
100
AcDbEntity
  8
0
 62
7
100
AcDbPolyline
 90
6
 70
0
 10
1387.669928
 20
19.202224
 30
0.0
 10
1392.086328
 20
21.549344
 30
0.0
 10
1395.680648
 20
18.074064
 30
0.0
 10
1393.489448
 20
13.581104
 30
0.0
 10
1388.537288
 20
14.275584
 30
0.0
 10
1387.669928
 20
19.202224
 30
0.0
  0
LWPOLYLINE
  5
145
100
AcDbEntity
  8
0
 62
7
100
AcDbPolyline
 90
6
 70
0
 10
1387.669928
 20
444.399080
 30
0.0
 10
1392.086328
 20
446.746160
 30
0.0
 10
1395.680648
 20
443.270888
 30
0.0
 10
1393.489448
 20
438.777976
 30
0.0
 10
1388.537288
 20
439.472464
 30
0.0
 10
1387.669928
 20
444.399080
 30
0.0
  0
LWPOLYLINE
  5
146
100
AcDbEntity
  8
0
 62
7
100
AcDbPolyline
 90
21
 70
0
 10
1398.821448
 20
689.941752
 30
0.0
 10
1401.091928
 20
690.341440
 30
0.0
 10
1400.607208
 20
693.076872
 30
0.0
 10
1439.606328
 20
699.953720
 30
0.0
 10
1440.088168
 20
697.218288
 30
0.0
 10
1442.358728
 20
697.617976
 30
0.0
 10
1444.082168
 20
687.844112
 30
0.0
 10
1441.811688
 20
687.444432
 30
0.0
 10
1444.277768
 20
673.463960
 30
0.0
 10
1446.548328
 20
673.863640
 30
0.0
 10
1448.268968
 20
664.089784
 30
0.0
 10
1446.001288
 20
663.690096
 30
0.0
 10
1446.483128
 20
660.954664
 30
0.0
 10
1407.484088
 20
654.077816
 30
0.0
 10
1407.002168
 20
656.813248
 30
0.0
 10
1404.731688
 20
656.413568
 30
0.0
 10
1403.008168
 20
666.187424
 30
0.0
 10
1405.278728
 20
666.587104
 30
0.0
 10
1402.812568
 20
680.567584
 30
0.0
 10
1400.544888
 20
680.167896
 30
0.0
 10
1398.821448
 20
689.941752
 30
0.0
  0
LWPOLYLINE
  5
147
100
AcDbEntity
  8
0
 62
7
100
AcDbPolyline
 90
21
 70
0
 10
1408.172888
 20
636.899864
 30
0.0
 10
1410.443448
 20
637.302384
 30
0.0
 10
1409.961608
 20
640.037816
 30
0.0
 10
1448.957768
 20
646.911832
 30
0.0
 10
1449.442488
 20
644.176400
 30
0.0
 10
1451.710248
 20
644.578920
 30
0.0
 10
1453.433688
 20
634.805064
 30
0.0
 10
1451.166008
 20
634.405376
 30
0.0
 10
1453.629288
 20
620.424904
 30
0.0
 10
1455.899848
 20
620.824592
 30
0.0
 10
1457.623288
 20
611.050728
 30
0.0
 10
1455.352728
 20
610.651048
 30
0.0
 10
1455.834648
 20
607.915616
 30
0.0
 10
1416.838408
 20
601.038760
 30
0.0
 10
1416.353688
 20
603.774192
 30
0.0
 10
1414.086008
 20
603.374512
 30
0.0
 10
1412.362488
 20
613.148368
 30
0.0
 10
1414.630248
 20
613.548056
 30
0.0
 10
1412.166888
 20
627.528528
 30
0.0
 10
1409.896408
 20
627.128840
 30
0.0
 10
1408.172888
 20
636.899864
 30
0.0
  0
LWPOLYLINE
  5
148
100
AcDbEntity
  8
0
 62
7
100
AcDbPolyline
 90
21
 70
0
 10
1417.527208
 20
583.860808
 30
0.0
 10
1419.794968
 20
584.260496
 30
0.0
 10
1419.313048
 20
586.995928
 30
0.0
 10
1458.312088
 20
593.872776
 30
0.0
 10
1458.794008
 20
591.137344
 30
0.0
 10
1461.064568
 20
591.537032
 30
0.0
 10
1462.788008
 20
581.763168
 30
0.0
 10
1460.517448
 20
581.363488
 30
0.0
 10
1462.983608
 20
567.383016
 30
0.0
 10
1465.251368
 20
567.782696
 30
0.0
 10
1466.974808
 20
558.011672
 30
0.0
 10
1464.704248
 20
557.609152
 30
0.0
 10
1465.188968
 20
554.873720
 30
0.0
 10
1426.189928
 20
547.999704
 30
0.0
 10
1425.708008
 20
550.735136
 30
0.0
 10
1423.437448
 20
550.332616
 30
0.0
 10
1421.714008
 20
560.106480
 30
0.0
 10
1423.984568
 20
560.506160
 30
0.0
 10
1421.518408
 20
574.486632
 30
0.0
 10
1419.247848
 20
574.086952
 30
0.0
 10
1417.527208
 20
583.860808
 30
0.0
  0
LWPOLYLINE
  5
149
100
AcDbEntity
  8
0
 62
7
100
AcDbPolyline
 90
21
 70
0
 10
1426.878728
 20
530.821752
 30
0.0
 10
1429.146488
 20
531.221440
 30
0.0
 10
1428.664568
 20
533.956872
 30
0.0
 10
1467.663608
 20
540.833720
 30
0.0
 10
1468.145528
 20
538.098288
 30
0.0
 10
1470.416088
 20
538.497976
 30
0.0
 10
1472.139528
 20
528.724120
 30
0.0
 10
1469.868968
 20
528.324432
 30
0.0
 10
1472.335128
 20
514.343960
 30
0.0
 10
1474.602808
 20
514.743640
 30
0.0
 10
1476.326328
 20
504.969784
 30
0.0
 10
1474.058568
 20
504.570104
 30
0.0
 10
1474.540488
 20
501.834664
 30
0.0
 10
1435.541448
 20
494.957816
 30
0.0
 10
1435.059528
 20
497.693248
 30
0.0
 10
1432.788968
 20
497.293568
 30
0.0
 10
1431.065528
 20
507.067424
 30
0.0
 10
1433.336088
 20
507.467112
 30
0.0
 10
1430.869928
 20
521.447584
 30
0.0
 10
1428.602168
 20
521.047896
 30
0.0
 10
1426.878728
 20
530.821752
 30
0.0
  0
LWPOLYLINE
  5
14a
100
AcDbEntity
  8
0
 62
7
100
AcDbPolyline
 90
21
 70
0
 10
1452.353688
 20
696.501120
 30
0.0
 10
1454.624248
 20
696.900808
 30
0.0
 10
1454.139528
 20
699.636240
 30
0.0
 10
1493.138568
 20
706.513096
 30
0.0
 10
1493.620488
 20
703.777656
 30
0.0
 10
1495.891048
 20
704.177344
 30
0.0
 10
1497.614488
 20
694.406320
 30
0.0
 10
1495.343928
 20
694.003800
 30
0.0
 10
1497.810088
 20
680.023328
 30
0.0
 10
1500.080648
 20
680.425848
 30
0.0
 10
1501.801288
 20
670.651992
 30
0.0
 10
1499.533528
 20
670.252304
 30
0.0
 10
1500.015448
 20
667.516872
 30
0.0
 10
1461.016408
 20
660.640024
 30
0.0
 10
1460.534488
 20
663.375456
 30
0.0
 10
1458.263928
 20
662.975768
 30
0.0
 10
1456.540488
 20
672.746792
 30
0.0
 10
1458.811048
 20
673.149312
 30
0.0
 10
1456.344888
 20
687.129784
 30
0.0
 10
1454.077128
 20
686.727264
 30
0.0
 10
1452.353688
 20
696.501120
 30
0.0
  0
LWPOLYLINE
  5
14b
100
AcDbEntity
  8
0
 62
7
100
AcDbPolyline
 90
21
 70
0
 10
1461.705208
 20
643.462072
 30
0.0
 10
1463.975768
 20
643.861752
 30
0.0
 10
1463.493848
 20
646.597184
 30
0.0
 10
1502.490088
 20
653.474040
 30
0.0
 10
1502.974808
 20
650.738600
 30
0.0
 10
1505.242488
 20
651.138288
 30
0.0
 10
1506.966008
 20
641.364432
 30
0.0
 10
1504.698248
 20
640.964744
 30
0.0
 10
1507.161608
 20
626.984272
 30
0.0
 10
1509.432088
 20
627.383960
 30
0.0
 10
1511.155608
 20
617.612936
 30
0.0
 10
1508.885048
 20
617.210416
 30
0.0
 10
1509.366888
 20
614.474984
 30
0.0
 10
1470.370728
 20
607.598128
 30
0.0
 10
1469.886008
 20
610.333568
 30
0.0
 10
1467.618248
 20
609.933880
 30
0.0
 10
1465.894808
 20
619.707736
 30
0.0
 10
1468.162488
 20
620.107424
 30
0.0
 10
1465.699208
 20
634.087896
 30
0.0
 10
1463.428648
 20
633.688208
 30
0.0
 10
1461.705208
 20
643.462072
 30
0.0
  0
LWPOLYLINE
  5
14c
100
AcDbEntity
  8
0
 62
7
100
AcDbPolyline
 90
21
 70
0
 10
1471.059528
 20
590.420176
 30
0.0
 10
1473.327208
 20
590.822696
 30
0.0
 10
1472.845368
 20
593.558128
 30
0.0
 10
1511.844408
 20
600.434984
 30
0.0
 10
1512.326328
 20
597.699552
 30
0.0
 10
1514.596888
 20
598.099232
 30
0.0
 10
1516.320328
 20
588.325376
 30
0.0
 10
1514.049768
 20
587.925688
 30
0.0
 10
1516.515928
 20
573.945216
 30
0.0
 10
1518.783608
 20
574.344904
 30
0.0
 10
1520.507048
 20
564.571048
 30
0.0
 10
1518.236568
 20
564.171360
 30
0.0
 10
1518.721288
 20
561.435928
 30
0.0
 10
1479.722168
 20
554.559080
 30
0.0
 10
1479.240328
 20
557.294512
 30
0.0
 10
1476.969768
 20
556.894824
 30
0.0
 10
1475.246328
 20
566.668680
 30
0.0
 10
1477.516888
 20
567.068368
 30
0.0
 10
1475.050728
 20
581.048840
 30
0.0
 10
1472.780168
 20
580.649152
 30
0.0
 10
1471.059528
 20
590.420176
 30
0.0
  0
LWPOLYLINE
  5
14d
100
AcDbEntity
  8
0
 62
7
100
AcDbPolyline
 90
21
 70
0
 10
1480.411048
 20
537.381120
 30
0.0
 10
1482.678728
 20
537.780808
 30
0.0
 10
1482.196888
 20
540.516240
 30
0.0
 10
1521.195928
 20
547.393096
 30
0.0
 10
1521.677768
 20
544.657656
 30
0.0
 10
1523.948328
 20
545.057344
 30
0.0
 10
1525.671848
 20
535.286320
 30
0.0
 10
1523.401288
 20
534.883800
 30
0.0
 10
1525.867368
 20
520.903328
 30
0.0
 10
1528.135128
 20
521.305848
 30
0.0
 10
1529.858568
 20
511.531992
 30
0.0
 10
1527.590888
 20
511.132304
 30
0.0
 10
1528.072728
 20
508.396872
 30
0.0
 10
1489.073688
 20
501.520024
 30
0.0
 10
1488.591848
 20
504.255456
 30
0.0
 10
1486.321288
 20
503.855768
 30
0.0
 10
1484.597768
 20
513.626792
 30
0.0
 10
1486.868328
 20
514.029312
 30
0.0
 10
1484.402168
 20
528.009784
 30
0.0
 10
1482.134488
 20
527.607264
 30
0.0
 10
1480.411048
 20
537.381120
 30
0.0
  0
LWPOLYLINE
  5
14e
100
AcDbEntity
  8
0
 62
7
100
AcDbPolyline
 90
21
 70
0
 10
1506.379208
 20
700.271200
 30
0.0
 10
1508.646888
 20
700.670888
 30
0.0
 10
1508.165048
 20
703.406320
 30
0.0
 10
1547.164088
 20
710.283168
 30
0.0
 10
1547.646008
 20
707.547736
 30
0.0
 10
1549.916568
 20
707.947424
 30
0.0
 10
1551.640008
 20
698.173568
 30
0.0
 10
1549.369448
 20
697.773880
 30
0.0
 10
1551.835608
 20
683.793408
 30
0.0
 10
1554.103288
 20
684.193096
 30
0.0
 10
1555.826808
 20
674.422072
 30
0.0
 10
1553.556248
 20
674.019552
 30
0.0
 10
1554.040968
 20
671.284120
 30
0.0
 10
1515.041928
 20
664.407264
 30
0.0
 10
1514.560008
 20
667.145536
 30
0.0
 10
1512.289448
 20
666.743016
 30
0.0
 10
1510.566008
 20
676.516872
 30
0.0
 10
1512.836568
 20
676.916560
 30
0.0
 10
1510.370408
 20
690.897032
 30
0.0
 10
1508.099848
 20
690.497344
 30
0.0
 10
1506.379208
 20
700.271200
 30
0.0
  0
LWPOLYLINE
  5
14f
100
AcDbEntity
  8
0
 62
7
100
AcDbPolyline
 90
21
 70
0
 10
1515.730728
 20
647.232144
 30
0.0
 10
1518.001288
 20
647.631832
 30
0.0
 10
1517.516568
 20
650.367264
 30
0.0
 10
1556.515608
 20
657.244112
 30
0.0
 10
1556.997448
 20
654.508680
 30
0.0
 10
1559.268008
 20
654.908368
 30
0.0
 10
1560.991528
 20
645.134512
 30
0.0
 10
1558.720968
 20
644.734824
 30
0.0
 10
1561.187048
 20
630.754352
 30
0.0
 10
1563.454808
 20
631.154040
 30
0.0
 10
1565.178248
 20
621.380176
 30
0.0
 10
1562.910568
 20
620.980496
 30
0.0
 10
1563.392408
 20
618.245064
 30
0.0
 10
1524.393368
 20
611.368208
 30
0.0
 10
1523.911528
 20
614.103640
 30
0.0
 10
1521.640968
 20
613.703960
 30
0.0
 10
1519.917448
 20
623.477816
 30
0.0
 10
1522.188008
 20
623.877504
 30
0.0
 10
1519.721928
 20
637.857976
 30
0.0
 10
1517.454168
 20
637.458288
 30
0.0
 10
1515.730728
 20
647.232144
 30
0.0
  0
LWPOLYLINE
  5
150
100
AcDbEntity
  8
0
 62
7
100
AcDbPolyline
 90
21
 70
0
 10
1525.082168
 20
594.190256
 30
0.0
 10
1527.352728
 20
594.589944
 30
0.0
 10
1526.870888
 20
597.325376
 30
0.0
 10
1565.867048
 20
604.202224
 30
0.0
 10
1566.351848
 20
601.466792
 30
0.0
 10
1568.619528
 20
601.866480
 30
0.0
 10
1570.342968
 20
592.095456
 30
0.0
 10
1568.075288
 20
591.692936
 30
0.0
 10
1570.538568
 20
577.712464
 30
0.0
 10
1572.809128
 20
578.114984
 30
0.0
 10
1574.532568
 20
568.341120
 30
0.0
 10
1572.262008
 20
567.941440
 30
0.0
 10
1572.743928
 20
565.206008
 30
0.0
 10
1533.747688
 20
558.329152
 30
0.0
 10
1533.262968
 20
561.064592
 30
0.0
 10
1530.995288
 20
560.664904
 30
0.0
 10
1529.271848
 20
570.435928
 30
0.0
 10
1531.539528
 20
570.838448
 30
0.0
 10
1529.076248
 20
584.818920
 30
0.0
 10
1526.805688
 20
584.416400
 30
0.0
 10
1525.082168
 20
594.190256
 30
0.0
  0
LWPOLYLINE
  5
151
100
AcDbEntity
  8
0
 62
7
100
AcDbPolyline
 90
21
 70
0
 10
1534.433688
 20
541.151200
 30
0.0
 10
1536.704248
 20
541.550888
 30
0.0
 10
1536.222328
 20
544.286320
 30
0.0
 10
1575.221448
 20
551.163168
 30
0.0
 10
1575.703288
 20
548.427736
 30
0.0
 10
1577.973848
 20
548.827424
 30
0.0
 10
1579.694488
 20
539.053568
 30
0.0
 10
1577.426808
 20
538.653880
 30
0.0
 10
1579.890088
 20
524.673408
 30
0.0
 10
1582.160648
 20
525.073096
 30
0.0
 10
1583.884088
 20
515.302072
 30
0.0
 10
1581.613528
 20
514.899552
 30
0.0
 10
1582.098248
 20
512.164120
 30
0.0
 10
1543.099208
 20
505.287264
 30
0.0
 10
1542.617288
 20
508.022696
 30
0.0
 10
1540.346808
 20
507.623016
 30
0.0
 10
1538.623288
 20
517.396872
 30
0.0
 10
1540.893848
 20
517.796560
 30
0.0
 10
1538.427688
 20
531.777032
 30
0.0
 10
1536.157128
 20
531.377344
 30
0.0
 10
1534.433688
 20
541.151200
 30
0.0
  0
LWPOLYLINE
  5
152
100
AcDbEntity
  8
0
 62
7
100
AcDbPolyline
 90
21
 70
0
 10
1560.401928
 20
704.041280
 30
0.0
 10
1562.672408
 20
704.440968
 30
0.0
 10
1562.190568
 20
707.176400
 30
0.0
 10
1601.186808
 20
714.053248
 30
0.0
 10
1601.671528
 20
711.317816
 30
0.0
 10
1603.939208
 20
711.717504
 30
0.0
 10
1605.662648
 20
701.943640
 30
0.0
 10
1603.394968
 20
701.543960
 30
0.0
 10
1605.858248
 20
687.563488
 30
0.0
 10
1608.128808
 20
687.963168
 30
0.0
 10
1609.852248
 20
678.189312
 30
0.0
 10
1607.581768
 20
677.789624
 30
0.0
 10
1608.063608
 20
675.054192
 30
0.0
 10
1569.067368
 20
668.177344
 30
0.0
 10
1568.582648
 20
670.912776
 30
0.0
 10
1566.314968
 20
670.513096
 30
0.0
 10
1564.591528
 20
680.286952
 30
0.0
 10
1566.859208
 20
680.686632
 30
0.0
 10
1564.395928
 20
694.667112
 30
0.0
 10
1562.125368
 20
694.267424
 30
0.0
 10
1560.401928
 20
704.041280
 30
0.0
  0
LWPOLYLINE
  5
153
100
AcDbEntity
  8
0
 62
7
100
AcDbPolyline
 90
21
 70
0
 10
1569.753368
 20
650.999392
 30
0.0
 10
1572.023928
 20
651.399080
 30
0.0
 10
1571.542008
 20
654.137344
 30
0.0
 10
1610.541128
 20
661.011360
 30
0.0
 10
1611.022968
 20
658.275928
 30
0.0
 10
1613.293528
 20
658.675616
 30
0.0
 10
1615.016968
 20
648.904592
 30
0.0
 10
1612.746488
 20
648.502072
 30
0.0
 10
1615.209768
 20
634.524432
 30
0.0
 10
1617.480328
 20
634.924120
 30
0.0
 10
1619.203768
 20
625.150256
 30
0.0
 10
1616.933208
 20
624.750576
 30
0.0
 10
1617.417928
 20
622.015136
 30
0.0
 10
1578.418888
 20
615.138288
 30
0.0
 10
1577.936968
 20
617.873720
 30
0.0
 10
1575.666488
 20
617.474040
 30
0.0
 10
1573.942968
 20
627.247896
 30
0.0
 10
1576.213528
 20
627.647584
 30
0.0
 10
1573.747368
 20
641.628056
 30
0.0
 10
1571.476888
 20
641.225536
 30
0.0
 10
1569.753368
 20
650.999392
 30
0.0
  0
LWPOLYLINE
  5
154
100
AcDbEntity
  8
0
 62
7
100
AcDbPolyline
 90
21
 70
0
 10
1579.107688
 20
597.960336
 30
0.0
 10
1581.375448
 20
598.360024
 30
0.0
 10
1580.893528
 20
601.095456
 30
0.0
 10
1619.892568
 20
607.972304
 30
0.0
 10
1620.374488
 20
605.236872
 30
0.0
 10
1622.645048
 20
605.636560
 30
0.0
 10
1624.368488
 20
595.862696
 30
0.0
 10
1622.097928
 20
595.463016
 30
0.0
 10
1624.564088
 20
581.482544
 30
0.0
 10
1626.831848
 20
581.882224
 30
0.0
 10
1628.555288
 20
572.111200
 30
0.0
 10
1626.287528
 20
571.708680
 30
0.0
 10
1626.769448
 20
568.973248
 30
0.0
 10
1587.770408
 20
562.096400
 30
0.0
 10
1587.288488
 20
564.834664
 30
0.0
 10
1585.017928
 20
564.432144
 30
0.0
 10
1583.294488
 20
574.206008
 30
0.0
 10
1585.565048
 20
574.605688
 30
0.0
 10
1583.098888
 20
588.586160
 30
0.0
 10
1580.831208
 20
588.186480
 30
0.0
 10
1579.107688
 20
597.960336
 30
0.0
  0
LWPOLYLINE
  5
155
100
AcDbEntity
  8
0
 62
7
100
AcDbPolyline
 90
21
 70
0
 10
1588.459208
 20
544.921280
 30
0.0
 10
1590.729768
 20
545.320968
 30
0.0
 10
1590.247848
 20
548.056400
 30
0.0
 10
1629.244088
 20
554.933248
 30
0.0
 10
1629.728808
 20
552.197816
 30
0.0
 10
1631.996568
 20
552.597504
 30
0.0
 10
1633.720008
 20
542.823640
 30
0.0
 10
1631.449448
 20
542.423960
 30
0.0
 10
1633.915608
 20
528.443488
 30
0.0
 10
1636.186168
 20
528.843168
 30
0.0
 10
1637.909608
 20
519.069312
 30
0.0
 10
1635.639048
 20
518.669624
 30
0.0
 10
1636.120968
 20
515.934192
 30
0.0
 10
1597.121928
 20
509.057344
 30
0.0
 10
1596.640008
 20
511.792776
 30
0.0
 10
1594.372248
 20
511.393096
 30
0.0
 10
1592.648808
 20
521.166952
 30
0.0
 10
1594.916568
 20
521.566632
 30
0.0
 10
1592.453208
 20
535.547104
 30
0.0
 10
1590.182648
 20
535.147424
 30
0.0
 10
1588.459208
 20
544.921280
 30
0.0
  0
LWPOLYLINE
  5
156
100
AcDbEntity
  8
0
 62
7
100
AcDbPolyline
 90
6
 70
0
 10
1610.045048
 20
308.829312
 30
0.0
 10
1614.461448
 20
311.179232
 30
0.0
 10
1618.055768
 20
307.703960
 30
0.0
 10
1615.867368
 20
303.211048
 30
0.0
 10
1610.915288
 20
303.905536
 30
0.0
 10
1610.045048
 20
308.829312
 30
0.0
  0
LWPOLYLINE
  5
157
100
AcDbEntity
  8
0
 62
7
100
AcDbPolyline
 90
6
 70
0
 10
1610.045048
 20
734.026160
 30
0.0
 10
1614.461448
 20
736.376080
 30
0.0
 10
1618.055768
 20
732.900808
 30
0.0
 10
1615.867368
 20
728.407896
 30
0.0
 10
1610.915288
 20
729.102384
 30
0.0
 10
1610.045048
 20
734.026160
 30
0.0
  0
LWPOLYLINE
  5
158
100
AcDbEntity
  8
0
 62
7
100
AcDbPolyline
 90
6
 70
0
 10
1650.407528
 20
79.920304
 30
0.0
 10
1654.823928
 20
82.267424
 30
0.0
 10
1658.418248
 20
78.794944
 30
0.0
 10
1656.229928
 20
74.302064
 30
0.0
 10
1651.277768
 20
74.996544
 30
0.0
 10
1650.407528
 20
79.920304
 30
0.0
  0
LWPOLYLINE
  5
159
100
AcDbEntity
  8
0
 62
7
100
AcDbPolyline
 90
6
 70
0
 10
1650.407528
 20
505.117184
 30
0.0
 10
1654.823928
 20
507.464272
 30
0.0
 10
1658.418248
 20
503.991832
 30
0.0
 10
1656.229928
 20
499.498920
 30
0.0
 10
1651.277768
 20
500.193408
 30
0.0
 10
1650.407528
 20
505.117184
 30
0.0
  0
ENDSEC
  0
SECTION
  2
OBJECTS
  0
DICTIONARY
  5
C
330
0
100
AcDbDictionary
  3
ACAD_GROUP
350
D
  3
ACAD_MLINESTYLE
350
17
  0
DICTIONARY
  5
D
330
C
100
AcDbDictionary
  0
DICTIONARY
  5
1A
330
C
100
AcDbDictionary
  0
DICTIONARY
  5
17
330
C
100
AcDbDictionary
  3
STANDARD
350
18
  0
DICTIONARY
  5
19
330
C
100
AcDbDictionary
  0
ENDSEC
  0
EOF
