<?xml version="1.0" encoding="UTF-8" standalone="no"?>
<!-- Created with Inkscape (http://www.inkscape.org/) -->

<svg
   xmlns:dc="http://purl.org/dc/elements/1.1/"
   xmlns:cc="http://creativecommons.org/ns#"
   xmlns:rdf="http://www.w3.org/1999/02/22-rdf-syntax-ns#"
   xmlns:svg="http://www.w3.org/2000/svg"
   xmlns="http://www.w3.org/2000/svg"
   version="1.1"
   width="5866.7075"
   height="1949.1381"
   id="svg4551">
  <desc
     id="desc4553">/Users/alpha/Dropbox/src/github.com/kejadlen/alphadox/case/alphadox.dxf - scale = 1.000000</desc>
  <metadata
     id="metadata4749">
    <rdf:RDF>
      <cc:Work
         rdf:about="">
        <dc:format>image/svg+xml</dc:format>
        <dc:type
           rdf:resource="http://purl.org/dc/dcmitype/StillImage" />
        <dc:title></dc:title>
      </cc:Work>
    </rdf:RDF>
  </metadata>
  <defs
     id="defs4555">
    <marker
       refX="0"
       refY="0"
       orient="auto"
       id="DistanceX"
       style="overflow:visible">
      <path
         d="M 3,-3 -3,3 M 0,-5 0,5"
         id="path4558"
         style="stroke:#000000;stroke-width:0.5" />
    </marker>
    <pattern
       y="0"
       x="0"
       width="8"
       patternUnits="userSpaceOnUse"
       id="Hatch"
       height="8">
      <path
         id="path4561"
         stroke-width="0.25"
         stroke="#000000"
         linecap="square"
         d="M8 4 l-4,4" />
      <path
         id="path4563"
         stroke-width="0.25"
         stroke="#000000"
         linecap="square"
         d="M6 2 l-4,4" />
      <path
         id="path4565"
         stroke-width="0.25"
         stroke="#000000"
         linecap="square"
         d="M4 0 l-4,4" />
    </pattern>
    <symbol
       id="*MODEL_SPACE" />
    <symbol
       id="*PAPER_SPACE" />
  </defs>
  <g
     transform="translate(-0.917323,897.69322)"
     id="g4569">
    <path
       d="m 1.417323,990.8818 0,-823.60976 3.264321,-19.56574 9.441383,-17.44648 14.593946,-13.43888 18.169654,-7.9649 19.766608,-1.64725 2722.029865,0 19.7666,1.64725 18.1697,7.9649 14.5939,13.43888 9.4414,17.44648 3.2643,19.56574 0,823.60976 -3.2643,19.5656 -9.4414,17.4464 -14.5939,13.439 -18.1697,7.9648 -19.7666,1.6472 -2722.029865,0 -19.766608,-1.6472 -18.169654,-7.9648 -14.593946,-13.439 -9.441383,-17.4464 -3.264321,-19.5656"
       id="path4571"
       style="fill:none;stroke:#000000" />
    <path
       d="m 1.417323,-13.520324 0,-823.609646 3.264321,-19.56574 9.441383,-17.44648 14.593946,-13.43889 18.169654,-7.9649 19.766608,-1.64724 1255.502565,0 19.2343,4.87137 16.6128,10.85757 12.1834,15.6486 6.4382,18.76221 0,19.847 -6.4382,18.76224 -12.1834,15.64857 -16.6128,10.85758 -19.2343,4.87136 -19.7667,-1.64721 -7.2417,-3.17392 -1178.22382,0 0,713.125412 954.18192,0 0,47.709099 713.1254,0 0,-47.709099 954.1819,0 0,-713.125412 -1178.2238,0 -7.2418,3.17392 -19.7666,1.64721 -19.2343,-4.87136 -16.6128,-10.85758 -12.1834,-15.64857 -6.4382,-18.76224 0,-19.847 6.4382,-18.76221 12.1834,-15.6486 16.6128,-10.85757 19.2343,-4.87137 1255.5025,0 19.7666,1.64724 18.1697,7.9649 14.5939,13.43889 9.4414,17.44648 3.2643,19.56574 0,823.609646 -3.2643,19.565744 -9.4414,17.446479 -14.5939,13.438885 -18.1697,7.964929 -19.7666,1.647213 -2722.029865,0 L 46.886627,44.895713 28.716973,36.930784 14.123027,23.491899 4.681644,6.04542 1.417323,-13.520324"
       id="path4573"
       style="fill:none;stroke:#000000" />
    <path
       d="m 46.615436,990.8818 10.405588,-14.33282 16.853867,5.47399 0,17.71767 -16.853867,5.47396 -10.405588,-14.3328"
       id="path4575"
       style="fill:none;stroke:#000000" />
    <path
       d="m 46.615436,167.27204 10.405588,-14.33282 16.853867,5.47399 0,17.71767 -16.853867,5.47398 -10.405588,-14.33282"
       id="path4577"
       style="fill:none;stroke:#000000" />
    <path
       d="m 46.615436,-13.520324 10.405588,-14.332819 16.853867,5.473984 0,17.717669 -16.853867,5.473984 -10.405588,-14.332818"
       id="path4579"
       style="fill:none;stroke:#000000" />
    <path
       d="m 46.615436,-837.12997 10.405588,-14.33282 16.853867,5.47399 0,17.71767 -16.853867,5.47398 -10.405588,-14.33282"
       id="path4581"
       style="fill:none;stroke:#000000" />
    <path
       d="m 1000.7973,990.8818 10.4057,-14.33282 16.8538,5.47399 0,17.71767 -16.8538,5.47396 -10.4057,-14.3328"
       id="path4583"
       style="fill:none;stroke:#000000" />
    <path
       d="m 1000.7973,-13.520324 10.4057,-14.332819 16.8538,5.473984 0,17.717669 -16.8538,5.473984 -10.4057,-14.332818"
       id="path4585"
       style="fill:none;stroke:#000000" />
    <path
       d="m 1302.1179,167.27204 10.4056,-14.33282 16.8539,5.47399 0,17.71767 -16.8539,5.47398 -10.4056,-14.33282"
       id="path4587"
       style="fill:none;stroke:#000000" />
    <path
       d="m 1302.1179,-837.12997 10.4056,-14.33282 16.8539,5.47399 0,17.71767 -16.8539,5.47398 -10.4056,-14.33282"
       id="path4589"
       style="fill:none;stroke:#000000" />
    <path
       d="m 1377.4481,-184.26866 0,-100.4402 100.4402,0 0,100.4402 -100.4402,0"
       id="path4591"
       style="fill:none;stroke:#ff0000;stroke-opacity:1" />
    <path
       d="m 1525.959,176.13088 0,-17.71767 16.8538,-5.47399 10.4056,14.33282 -10.4056,14.33282 -16.8538,-5.47398"
       id="path4593"
       style="fill:none;stroke:#000000" />
    <path
       d="m 1525.959,-828.27113 0,-17.71767 16.8538,-5.47399 10.4056,14.33282 -10.4056,14.33282 -16.8538,-5.47398"
       id="path4595"
       style="fill:none;stroke:#000000" />
    <path
       d="m 1827.2796,999.74064 0,-17.71767 16.8538,-5.47399 10.4056,14.33282 -10.4056,14.3328 -16.8538,-5.47396"
       id="path4597"
       style="fill:none;stroke:#000000" />
    <path
       d="m 1827.2796,-4.66149 0,-17.717669 16.8538,-5.473984 10.4056,14.332819 -10.4056,14.332818 -16.8538,-5.473984"
       id="path4599"
       style="fill:none;stroke:#000000" />
    <path
       d="m 2781.4615,999.74064 0,-17.71767 16.8538,-5.47399 10.4056,14.33282 -10.4056,14.3328 -16.8538,-5.47396"
       id="path4601"
       style="fill:none;stroke:#000000" />
    <path
       d="m 2781.4615,176.13088 0,-17.71767 16.8538,-5.47399 10.4056,14.33282 -10.4056,14.33282 -16.8538,-5.47398"
       id="path4603"
       style="fill:none;stroke:#000000" />
    <path
       d="m 2781.4615,-4.66149 0,-17.717669 16.8538,-5.473984 10.4056,14.332819 -10.4056,14.332818 -16.8538,-5.473984"
       id="path4605"
       style="fill:none;stroke:#000000" />
    <path
       d="m 2781.4615,-828.27113 0,-17.71767 16.8538,-5.47399 10.4056,14.33282 -10.4056,14.33282 -16.8538,-5.47398"
       id="path4607"
       style="fill:none;stroke:#000000" />
    <path
       d="m 3014.6234,990.8818 0,-823.60976 3.2643,-19.56574 9.4413,-17.44648 14.594,-13.43888 18.1696,-7.9649 19.7667,-1.64725 2722.03,0 19.7665,1.64725 18.1696,7.9649 14.5938,13.43888 9.4417,17.44648 3.2641,19.56574 0,823.60976 -3.2641,19.5656 -9.4417,17.4464 -14.5938,13.439 -18.1696,7.9648 -19.7665,1.6472 -2722.03,0 -19.7667,-1.6472 -18.1696,-7.9648 -14.594,-13.439 -9.4413,-17.4464 -3.2643,-19.5656"
       id="path4609"
       style="fill:none;stroke:#000000" />
    <path
       d="m 3014.6234,-13.520324 0,-823.609646 3.2643,-19.56574 9.4413,-17.44648 14.594,-13.43889 18.1696,-7.9649 19.7667,-1.64724 2722.03,0 19.7665,1.64724 18.1696,7.9649 14.5938,13.43889 9.4417,17.44648 3.2641,19.56574 0,823.609646 -3.2641,19.565744 -9.4417,17.446479 -14.5938,13.438885 -18.1696,7.964929 -19.7665,1.647213 -2722.03,0 -19.7667,-1.647213 -18.1696,-7.964929 -14.594,-13.438885 -9.4413,-17.446479 -3.2643,-19.565744"
       id="path4611"
       style="fill:none;stroke:#000000" />
    <path
       d="m 3059.8214,990.8818 10.4057,-14.33282 16.8538,5.47399 0,17.71767 -16.8538,5.47396 -10.4057,-14.3328"
       id="path4613"
       style="fill:none;stroke:#000000" />
    <path
       d="m 3059.8214,167.27204 10.4057,-14.33282 16.8538,5.47399 0,17.71767 -16.8538,5.47398 -10.4057,-14.33282"
       id="path4615"
       style="fill:none;stroke:#000000" />
    <path
       d="m 3059.8214,-13.520324 10.4057,-14.332819 16.8538,5.473984 0,17.717669 -16.8538,5.473984 -10.4057,-14.332818"
       id="path4617"
       style="fill:none;stroke:#000000" />
    <path
       d="m 3059.8214,-837.12997 10.4057,-14.33282 16.8538,5.47399 0,17.71767 -16.8538,5.47398 -10.4057,-14.33282"
       id="path4619"
       style="fill:none;stroke:#000000" />
    <path
       d="m 3122.1145,-78.756236 0,-35.164124 8.1657,0 0,-50.30044 -8.1657,0 0,-35.16412 8.1657,0 0,-9.84314 140.315,0 0,9.84314 8.1658,0 0,35.16412 -8.1658,0 0,50.30044 8.1658,0 0,35.164124 -8.1658,0 0,9.843137 -140.315,0 0,-9.843137 -8.1657,0"
       id="path4621"
       style="fill:none;stroke:#000000" />
    <path
       d="m 3122.1145,-269.5926 0,-35.16412 8.1657,0 0,-50.30045 -8.1657,0 0,-35.16412 8.1657,0 0,-9.84314 140.315,0 0,9.84314 8.1658,0 0,35.16412 -8.1658,0 0,50.30045 8.1658,0 0,35.16412 -8.1658,0 0,9.84313 -140.315,0 0,-9.84313 -8.1657,0"
       id="path4623"
       style="fill:none;stroke:#000000" />
    <path
       d="m 3122.1145,-460.429 0,-35.16412 8.1657,0 0,-50.30045 -8.1657,0 0,-35.16412 8.1657,0 0,-9.84314 140.315,0 0,9.84314 8.1658,0 0,35.16412 -8.1658,0 0,50.30045 8.1658,0 0,35.16412 -8.1658,0 0,9.84314 -140.315,0 0,-9.84314 -8.1657,0"
       id="path4625"
       style="fill:none;stroke:#000000" />
    <path
       d="m 3122.1145,-651.26537 0,-35.16412 8.1657,0 0,-50.30045 -8.1657,0 0,-35.16412 8.1657,0 0,-9.84313 140.315,0 0,9.84313 8.1658,0 0,35.16412 -8.1658,0 0,50.30045 8.1658,0 0,35.16412 -8.1658,0 0,9.84314 -140.315,0 0,-9.84314 -8.1657,0"
       id="path4627"
       style="fill:none;stroke:#000000" />
    <path
       d="m 3130.1296,935.63966 0,-713.1255 2621.4892,0 0,713.1255 -954.182,0 0,47.70907 -713.1253,0 0,-47.70907 -954.1819,0"
       id="path4629"
       style="fill:none;stroke:#000000" />
    <path
       d="m 3312.9509,-78.756236 0,-35.164124 8.1657,0 0,-50.30044 -8.1657,0 0,-35.16412 8.1657,0 0,-9.84314 140.315,0 0,9.84314 8.1658,0 0,35.16412 -8.1658,0 0,50.30044 8.1658,0 0,35.164124 -8.1658,0 0,9.843137 -140.315,0 0,-9.843137 -8.1657,0"
       id="path4631"
       style="fill:none;stroke:#000000" />
    <path
       d="m 3312.9509,-269.5926 0,-35.16412 8.1657,0 0,-50.30045 -8.1657,0 0,-35.16412 8.1657,0 0,-9.84314 140.315,0 0,9.84314 8.1658,0 0,35.16412 -8.1658,0 0,50.30045 8.1658,0 0,35.16412 -8.1658,0 0,9.84313 -140.315,0 0,-9.84313 -8.1657,0"
       id="path4633"
       style="fill:none;stroke:#000000" />
    <path
       d="m 3312.9509,-460.429 0,-35.16412 8.1657,0 0,-50.30045 -8.1657,0 0,-35.16412 8.1657,0 0,-9.84314 140.315,0 0,9.84314 8.1658,0 0,35.16412 -8.1658,0 0,50.30045 8.1658,0 0,35.16412 -8.1658,0 0,9.84314 -140.315,0 0,-9.84314 -8.1657,0"
       id="path4635"
       style="fill:none;stroke:#000000" />
    <path
       d="m 3312.9509,-651.26537 0,-35.16412 8.1657,0 0,-50.30045 -8.1657,0 0,-35.16412 8.1657,0 0,-9.84313 140.315,0 0,9.84313 8.1658,0 0,35.16412 -8.1658,0 0,50.30045 8.1658,0 0,35.16412 -8.1658,0 0,9.84314 -140.315,0 0,-9.84314 -8.1657,0"
       id="path4637"
       style="fill:none;stroke:#000000" />
    <path
       d="m 3503.7872,-78.756236 0,-35.164124 8.1658,0 0,-50.30044 -8.1658,0 0,-35.16412 8.1658,0 0,-9.84314 140.315,0 0,9.84314 8.1658,0 0,35.16412 -8.1658,0 0,50.30044 8.1658,0 0,35.164124 -8.1658,0 0,9.843137 -140.315,0 0,-9.843137 -8.1658,0"
       id="path4639"
       style="fill:none;stroke:#000000" />
    <path
       d="m 3503.7872,-269.5926 0,-35.16412 8.1658,0 0,-50.30045 -8.1658,0 0,-35.16412 8.1658,0 0,-9.84314 140.315,0 0,9.84314 8.1658,0 0,35.16412 -8.1658,0 0,50.30045 8.1658,0 0,35.16412 -8.1658,0 0,9.84313 -140.315,0 0,-9.84313 -8.1658,0"
       id="path4641"
       style="fill:none;stroke:#000000" />
    <path
       d="m 3503.7872,-460.429 0,-35.16412 8.1658,0 0,-50.30045 -8.1658,0 0,-35.16412 8.1658,0 0,-9.84314 140.315,0 0,9.84314 8.1658,0 0,35.16412 -8.1658,0 0,50.30045 8.1658,0 0,35.16412 -8.1658,0 0,9.84314 -140.315,0 0,-9.84314 -8.1658,0"
       id="path4643"
       style="fill:none;stroke:#000000" />
    <path
       d="m 3503.7872,-651.26537 0,-35.16412 8.1658,0 0,-50.30045 -8.1658,0 0,-35.16412 8.1658,0 0,-9.84313 140.315,0 0,9.84313 8.1658,0 0,35.16412 -8.1658,0 0,50.30045 8.1658,0 0,35.16412 -8.1658,0 0,9.84314 -140.315,0 0,-9.84314 -8.1658,0"
       id="path4645"
       style="fill:none;stroke:#000000" />
    <path
       d="m 3694.6236,-78.756236 0,-35.164124 8.1658,0 0,-50.30044 -8.1658,0 0,-35.16412 8.1658,0 0,-9.84314 140.315,0 0,9.84314 8.1657,0 0,35.16412 -8.1657,0 0,50.30044 8.1657,0 0,35.164124 -8.1657,0 0,9.843137 -140.315,0 0,-9.843137 -8.1658,0"
       id="path4647"
       style="fill:none;stroke:#000000" />
    <path
       d="m 3694.6236,-269.5926 0,-35.16412 8.1658,0 0,-50.30045 -8.1658,0 0,-35.16412 8.1658,0 0,-9.84314 140.315,0 0,9.84314 8.1657,0 0,35.16412 -8.1657,0 0,50.30045 8.1657,0 0,35.16412 -8.1657,0 0,9.84313 -140.315,0 0,-9.84313 -8.1658,0"
       id="path4649"
       style="fill:none;stroke:#000000" />
    <path
       d="m 3694.6236,-460.429 0,-35.16412 8.1658,0 0,-50.30045 -8.1658,0 0,-35.16412 8.1658,0 0,-9.84314 140.315,0 0,9.84314 8.1657,0 0,35.16412 -8.1657,0 0,50.30045 8.1657,0 0,35.16412 -8.1657,0 0,9.84314 -140.315,0 0,-9.84314 -8.1658,0"
       id="path4651"
       style="fill:none;stroke:#000000" />
    <path
       d="m 3694.6236,-651.26537 0,-35.16412 8.1658,0 0,-50.30045 -8.1658,0 0,-35.16412 8.1658,0 0,-9.84313 140.315,0 0,9.84313 8.1657,0 0,35.16412 -8.1657,0 0,50.30045 8.1657,0 0,35.16412 -8.1657,0 0,9.84314 -140.315,0 0,-9.84314 -8.1658,0"
       id="path4653"
       style="fill:none;stroke:#000000" />
    <path
       d="m 3885.46,-78.756236 0,-35.164124 8.1658,0 0,-50.30044 -8.1658,0 0,-35.16412 8.1658,0 0,-9.84314 140.3149,0 0,9.84314 8.1658,0 0,35.16412 -8.1658,0 0,50.30044 8.1658,0 0,35.164124 -8.1658,0 0,9.843137 -140.3149,0 0,-9.843137 -8.1658,0"
       id="path4655"
       style="fill:none;stroke:#000000" />
    <path
       d="m 3885.46,-269.5926 0,-35.16412 8.1658,0 0,-50.30045 -8.1658,0 0,-35.16412 8.1658,0 0,-9.84314 140.3149,0 0,9.84314 8.1658,0 0,35.16412 -8.1658,0 0,50.30045 8.1658,0 0,35.16412 -8.1658,0 0,9.84313 -140.3149,0 0,-9.84313 -8.1658,0"
       id="path4657"
       style="fill:none;stroke:#000000" />
    <path
       d="m 3885.46,-460.429 0,-35.16412 8.1658,0 0,-50.30045 -8.1658,0 0,-35.16412 8.1658,0 0,-9.84314 140.3149,0 0,9.84314 8.1658,0 0,35.16412 -8.1658,0 0,50.30045 8.1658,0 0,35.16412 -8.1658,0 0,9.84314 -140.3149,0 0,-9.84314 -8.1658,0"
       id="path4659"
       style="fill:none;stroke:#000000" />
    <path
       d="m 3885.46,-651.26537 0,-35.16412 8.1658,0 0,-50.30045 -8.1658,0 0,-35.16412 8.1658,0 0,-9.84313 140.3149,0 0,9.84313 8.1658,0 0,35.16412 -8.1658,0 0,50.30045 8.1658,0 0,35.16412 -8.1658,0 0,9.84314 -140.3149,0 0,-9.84314 -8.1658,0"
       id="path4661"
       style="fill:none;stroke:#000000" />
    <path
       d="m 4014.0033,990.8818 10.4057,-14.33282 16.8538,5.47399 0,17.71767 -16.8538,5.47396 -10.4057,-14.3328"
       id="path4663"
       style="fill:none;stroke:#000000" />
    <path
       d="m 4014.0033,-13.520324 10.4057,-14.332819 16.8538,5.473984 0,17.717669 -16.8538,5.473984 -10.4057,-14.332818"
       id="path4665"
       style="fill:none;stroke:#000000" />
    <path
       d="m 4076.2964,-31.047137 0,-35.16412 8.1657,0 0,-50.300443 -8.1657,0 0,-35.16412 8.1657,0 0,-9.84314 140.315,0 0,9.84314 8.1658,0 0,35.16412 -8.1658,0 0,50.300443 8.1658,0 0,35.16412 -8.1658,0 0,9.843137 -140.315,0 0,-9.843137 -8.1657,0"
       id="path4667"
       style="fill:none;stroke:#000000" />
    <path
       d="m 4076.2964,-269.5926 0,-35.16412 8.1657,0 0,-50.30045 -8.1657,0 0,-35.16412 8.1657,0 0,-9.84314 140.315,0 0,9.84314 8.1658,0 0,35.16412 -8.1658,0 0,50.30045 8.1658,0 0,35.16412 -8.1658,0 0,9.84313 -140.315,0 0,-9.84313 -8.1657,0"
       id="path4669"
       style="fill:none;stroke:#000000" />
    <path
       d="m 4076.2964,-460.429 0,-35.16412 8.1657,0 0,-50.30045 -8.1657,0 0,-35.16412 8.1657,0 0,-9.84314 140.315,0 0,9.84314 8.1658,0 0,35.16412 -8.1658,0 0,50.30045 8.1658,0 0,35.16412 -8.1658,0 0,9.84314 -140.315,0 0,-9.84314 -8.1657,0"
       id="path4671"
       style="fill:none;stroke:#000000" />
    <path
       d="m 4076.2964,-651.26537 0,-35.16412 8.1657,0 0,-50.30045 -8.1657,0 0,-35.16412 8.1657,0 0,-9.84313 140.315,0 0,9.84313 8.1658,0 0,35.16412 -8.1658,0 0,50.30045 8.1658,0 0,35.16412 -8.1658,0 0,9.84314 -140.315,0 0,-9.84314 -8.1657,0"
       id="path4673"
       style="fill:none;stroke:#000000" />
    <path
       d="m 4267.1328,-31.047137 0,-35.16412 8.1657,0 0,-50.300443 -8.1657,0 0,-35.16412 8.1657,0 0,-9.84314 140.315,0 0,9.84314 8.1657,0 0,35.16412 -8.1657,0 0,50.300443 8.1657,0 0,35.16412 -8.1657,0 0,9.843137 -140.315,0 0,-9.843137 -8.1657,0"
       id="path4675"
       style="fill:none;stroke:#000000" />
    <path
       d="m 4315.324,167.27204 10.4057,-14.33282 16.8537,5.47399 0,17.71767 -16.8537,5.47398 -10.4057,-14.33282"
       id="path4677"
       style="fill:none;stroke:#000000" />
    <path
       d="m 4315.324,-837.12997 10.4057,-14.33282 16.8537,5.47399 0,17.71767 -16.8537,5.47398 -10.4057,-14.33282"
       id="path4679"
       style="fill:none;stroke:#000000" />
    <path
       d="m 4457.969,-31.047137 0,-35.16412 8.1658,0 0,-50.300443 -8.1658,0 0,-35.16412 8.1658,0 0,-9.84314 140.315,0 0,9.84314 8.166,0 0,35.16412 -8.166,0 0,50.300443 8.166,0 0,35.16412 -8.166,0 0,9.843137 -140.315,0 0,-9.843137 -8.1658,0"
       id="path4681"
       style="fill:none;stroke:#000000" />
    <path
       d="m 4539.1649,176.13088 0,-17.71767 16.854,-5.47399 10.4057,14.33282 -10.4057,14.33282 -16.854,-5.47398"
       id="path4683"
       style="fill:none;stroke:#000000" />
    <path
       d="m 4539.1649,-828.27113 0,-17.71767 16.854,-5.47399 10.4057,14.33282 -10.4057,14.33282 -16.854,-5.47398"
       id="path4685"
       style="fill:none;stroke:#000000" />
    <path
       d="m 4648.8056,-31.047137 0,-35.16412 8.1658,0 0,-50.300443 -8.1658,0 0,-35.16412 8.1658,0 0,-9.84314 140.3149,0 0,9.84314 8.1658,0 0,35.16412 -8.1658,0 0,50.300443 8.1658,0 0,35.16412 -8.1658,0 0,9.843137 -140.3149,0 0,-9.843137 -8.1658,0"
       id="path4687"
       style="fill:none;stroke:#000000" />
    <path
       d="m 4648.8056,-269.5926 0,-35.16412 8.1658,0 0,-50.30045 -8.1658,0 0,-35.16412 8.1658,0 0,-9.84314 140.3149,0 0,9.84314 8.1658,0 0,35.16412 -8.1658,0 0,50.30045 8.1658,0 0,35.16412 -8.1658,0 0,9.84313 -140.3149,0 0,-9.84313 -8.1658,0"
       id="path4689"
       style="fill:none;stroke:#000000" />
    <path
       d="m 4648.8056,-460.429 0,-35.16412 8.1658,0 0,-50.30045 -8.1658,0 0,-35.16412 8.1658,0 0,-9.84314 140.3149,0 0,9.84314 8.1658,0 0,35.16412 -8.1658,0 0,50.30045 8.1658,0 0,35.16412 -8.1658,0 0,9.84314 -140.3149,0 0,-9.84314 -8.1658,0"
       id="path4691"
       style="fill:none;stroke:#000000" />
    <path
       d="m 4648.8056,-651.26537 0,-35.16412 8.1658,0 0,-50.30045 -8.1658,0 0,-35.16412 8.1658,0 0,-9.84313 140.3149,0 0,9.84313 8.1658,0 0,35.16412 -8.1658,0 0,50.30045 8.1658,0 0,35.16412 -8.1658,0 0,9.84314 -140.3149,0 0,-9.84314 -8.1658,0"
       id="path4693"
       style="fill:none;stroke:#000000" />
    <path
       d="m 4839.6419,-78.756236 0,-35.164124 8.1657,0 0,-50.30044 -8.1657,0 0,-35.16412 8.1657,0 0,-9.84314 140.315,0 0,9.84314 8.1658,0 0,35.16412 -8.1658,0 0,50.30044 8.1658,0 0,35.164124 -8.1658,0 0,9.843137 -140.315,0 0,-9.843137 -8.1657,0"
       id="path4695"
       style="fill:none;stroke:#000000" />
    <path
       d="m 4839.6419,-269.5926 0,-35.16412 8.1657,0 0,-50.30045 -8.1657,0 0,-35.16412 8.1657,0 0,-9.84314 140.315,0 0,9.84314 8.1658,0 0,35.16412 -8.1658,0 0,50.30045 8.1658,0 0,35.16412 -8.1658,0 0,9.84313 -140.315,0 0,-9.84313 -8.1657,0"
       id="path4697"
       style="fill:none;stroke:#000000" />
    <path
       d="m 4839.6419,-460.429 0,-35.16412 8.1657,0 0,-50.30045 -8.1657,0 0,-35.16412 8.1657,0 0,-9.84314 140.315,0 0,9.84314 8.1658,0 0,35.16412 -8.1658,0 0,50.30045 8.1658,0 0,35.16412 -8.1658,0 0,9.84314 -140.315,0 0,-9.84314 -8.1657,0"
       id="path4699"
       style="fill:none;stroke:#000000" />
    <path
       d="m 4839.6419,-651.26537 0,-35.16412 8.1657,0 0,-50.30045 -8.1657,0 0,-35.16412 8.1657,0 0,-9.84313 140.315,0 0,9.84313 8.1658,0 0,35.16412 -8.1658,0 0,50.30045 8.1658,0 0,35.16412 -8.1658,0 0,9.84314 -140.315,0 0,-9.84314 -8.1657,0"
       id="path4701"
       style="fill:none;stroke:#000000" />
    <path
       d="m 4840.4855,999.74064 0,-17.71767 16.8539,-5.47399 10.4057,14.33282 -10.4057,14.3328 -16.8539,-5.47396"
       id="path4703"
       style="fill:none;stroke:#000000" />
    <path
       d="m 4840.4855,-4.66149 0,-17.717669 16.8539,-5.473984 10.4057,14.332819 -10.4057,14.332818 -16.8539,-5.473984"
       id="path4705"
       style="fill:none;stroke:#000000" />
    <path
       d="m 5030.4782,-78.756236 0,-35.164124 8.1657,0 0,-50.30044 -8.1657,0 0,-35.16412 8.1657,0 0,-9.84314 140.315,0 0,9.84314 8.166,0 0,35.16412 -8.166,0 0,50.30044 8.166,0 0,35.164124 -8.166,0 0,9.843137 -140.315,0 0,-9.843137 -8.1657,0"
       id="path4707"
       style="fill:none;stroke:#000000" />
    <path
       d="m 5030.4782,-269.5926 0,-35.16412 8.1657,0 0,-50.30045 -8.1657,0 0,-35.16412 8.1657,0 0,-9.84314 140.315,0 0,9.84314 8.166,0 0,35.16412 -8.166,0 0,50.30045 8.166,0 0,35.16412 -8.166,0 0,9.84313 -140.315,0 0,-9.84313 -8.1657,0"
       id="path4709"
       style="fill:none;stroke:#000000" />
    <path
       d="m 5030.4782,-460.429 0,-35.16412 8.1657,0 0,-50.30045 -8.1657,0 0,-35.16412 8.1657,0 0,-9.84314 140.315,0 0,9.84314 8.166,0 0,35.16412 -8.166,0 0,50.30045 8.166,0 0,35.16412 -8.166,0 0,9.84314 -140.315,0 0,-9.84314 -8.1657,0"
       id="path4711"
       style="fill:none;stroke:#000000" />
    <path
       d="m 5030.4782,-651.26537 0,-35.16412 8.1657,0 0,-50.30045 -8.1657,0 0,-35.16412 8.1657,0 0,-9.84313 140.315,0 0,9.84313 8.166,0 0,35.16412 -8.166,0 0,50.30045 8.166,0 0,35.16412 -8.166,0 0,9.84314 -140.315,0 0,-9.84314 -8.1657,0"
       id="path4713"
       style="fill:none;stroke:#000000" />
    <path
       d="m 5221.3147,-78.756236 0,-35.164124 8.1658,0 0,-50.30044 -8.1658,0 0,-35.16412 8.1658,0 0,-9.84314 140.315,0 0,9.84314 8.1657,0 0,35.16412 -8.1657,0 0,50.30044 8.1657,0 0,35.164124 -8.1657,0 0,9.843137 -140.315,0 0,-9.843137 -8.1658,0"
       id="path4715"
       style="fill:none;stroke:#000000" />
    <path
       d="m 5221.3147,-269.5926 0,-35.16412 8.1658,0 0,-50.30045 -8.1658,0 0,-35.16412 8.1658,0 0,-9.84314 140.315,0 0,9.84314 8.1657,0 0,35.16412 -8.1657,0 0,50.30045 8.1657,0 0,35.16412 -8.1657,0 0,9.84313 -140.315,0 0,-9.84313 -8.1658,0"
       id="path4717"
       style="fill:none;stroke:#000000" />
    <path
       d="m 5221.3147,-460.429 0,-35.16412 8.1658,0 0,-50.30045 -8.1658,0 0,-35.16412 8.1658,0 0,-9.84314 140.315,0 0,9.84314 8.1657,0 0,35.16412 -8.1657,0 0,50.30045 8.1657,0 0,35.16412 -8.1657,0 0,9.84314 -140.315,0 0,-9.84314 -8.1658,0"
       id="path4719"
       style="fill:none;stroke:#000000" />
    <path
       d="m 5221.3147,-651.26537 0,-35.16412 8.1658,0 0,-50.30045 -8.1658,0 0,-35.16412 8.1658,0 0,-9.84313 140.315,0 0,9.84313 8.1657,0 0,35.16412 -8.1657,0 0,50.30045 8.1657,0 0,35.16412 -8.1657,0 0,9.84314 -140.315,0 0,-9.84314 -8.1658,0"
       id="path4721"
       style="fill:none;stroke:#000000" />
    <path
       d="m 5412.151,-78.756236 0,-35.164124 8.1658,0 0,-50.30044 -8.1658,0 0,-35.16412 8.1658,0 0,-9.84314 140.3149,0 0,9.84314 8.1658,0 0,35.16412 -8.1658,0 0,50.30044 8.1658,0 0,35.164124 -8.1658,0 0,9.843137 -140.3149,0 0,-9.843137 -8.1658,0"
       id="path4723"
       style="fill:none;stroke:#000000" />
    <path
       d="m 5412.151,-269.5926 0,-35.16412 8.1658,0 0,-50.30045 -8.1658,0 0,-35.16412 8.1658,0 0,-9.84314 140.3149,0 0,9.84314 8.1658,0 0,35.16412 -8.1658,0 0,50.30045 8.1658,0 0,35.16412 -8.1658,0 0,9.84313 -140.3149,0 0,-9.84313 -8.1658,0"
       id="path4725"
       style="fill:none;stroke:#000000" />
    <path
       d="m 5412.151,-460.429 0,-35.16412 8.1658,0 0,-50.30045 -8.1658,0 0,-35.16412 8.1658,0 0,-9.84314 140.3149,0 0,9.84314 8.1658,0 0,35.16412 -8.1658,0 0,50.30045 8.1658,0 0,35.16412 -8.1658,0 0,9.84314 -140.3149,0 0,-9.84314 -8.1658,0"
       id="path4727"
       style="fill:none;stroke:#000000" />
    <path
       d="m 5412.151,-651.26537 0,-35.16412 8.1658,0 0,-50.30045 -8.1658,0 0,-35.16412 8.1658,0 0,-9.84313 140.3149,0 0,9.84313 8.1658,0 0,35.16412 -8.1658,0 0,50.30045 8.1658,0 0,35.16412 -8.1658,0 0,9.84314 -140.3149,0 0,-9.84314 -8.1658,0"
       id="path4729"
       style="fill:none;stroke:#000000" />
    <path
       d="m 5602.9873,-78.756236 0,-35.164124 8.1661,0 0,-50.30044 -8.1661,0 0,-35.16412 8.1661,0 0,-9.84314 140.3149,0 0,9.84314 8.1658,0 0,35.16412 -8.1658,0 0,50.30044 8.1658,0 0,35.164124 -8.1658,0 0,9.843137 -140.3149,0 0,-9.843137 -8.1661,0"
       id="path4731"
       style="fill:none;stroke:#000000" />
    <path
       d="m 5602.9873,-269.5926 0,-35.16412 8.1661,0 0,-50.30045 -8.1661,0 0,-35.16412 8.1661,0 0,-9.84314 140.3149,0 0,9.84314 8.1658,0 0,35.16412 -8.1658,0 0,50.30045 8.1658,0 0,35.16412 -8.1658,0 0,9.84313 -140.3149,0 0,-9.84313 -8.1661,0"
       id="path4733"
       style="fill:none;stroke:#000000" />
    <path
       d="m 5602.9873,-460.429 0,-35.16412 8.1661,0 0,-50.30045 -8.1661,0 0,-35.16412 8.1661,0 0,-9.84314 140.3149,0 0,9.84314 8.1658,0 0,35.16412 -8.1658,0 0,50.30045 8.1658,0 0,35.16412 -8.1658,0 0,9.84314 -140.3149,0 0,-9.84314 -8.1661,0"
       id="path4735"
       style="fill:none;stroke:#000000" />
    <path
       d="m 5602.9873,-651.26537 0,-35.16412 8.1661,0 0,-50.30045 -8.1661,0 0,-35.16412 8.1661,0 0,-9.84313 140.3149,0 0,9.84313 8.1658,0 0,35.16412 -8.1658,0 0,50.30045 8.1658,0 0,35.16412 -8.1658,0 0,9.84314 -140.3149,0 0,-9.84314 -8.1661,0"
       id="path4737"
       style="fill:none;stroke:#000000" />
    <path
       d="m 5794.6675,999.74064 0,-17.71767 16.8539,-5.47399 10.4057,14.33282 -10.4057,14.3328 -16.8539,-5.47396"
       id="path4739"
       style="fill:none;stroke:#000000" />
    <path
       d="m 5794.6675,176.13088 0,-17.71767 16.8539,-5.47399 10.4057,14.33282 -10.4057,14.33282 -16.8539,-5.47398"
       id="path4741"
       style="fill:none;stroke:#000000" />
    <path
       d="m 5794.6675,-4.66149 0,-17.717669 16.8539,-5.473984 10.4057,14.332819 -10.4057,14.332818 -16.8539,-5.473984"
       id="path4743"
       style="fill:none;stroke:#000000" />
    <path
       d="m 5794.6675,-828.27113 0,-17.71767 16.8539,-5.47399 10.4057,14.33282 -10.4057,14.33282 -16.8539,-5.47398"
       id="path4745"
       style="fill:none;stroke:#000000" />
  </g>
</svg>
