  0
SECTION
  2
BLOCKS
  0
ENDSEC
  0
SECTION
  2
ENTITIES
  0
LINE
  8
0
 10
43.824
 20
115.062
 11
44.1331
 21
115.117
  0
LINE
  8
0
 10
44.1331
 20
115.117
 11
44.4331
 21
115.21
  0
LINE
  8
0
 10
44.4331
 20
115.21
 11
117.455
 21
138.747
  0
LINE
  8
0
 10
117.455
 20
138.747
 11
117.741
 21
138.877
  0
LINE
  8
0
 10
117.741
 20
138.877
 11
118.008
 21
139.042
  0
LINE
  8
0
 10
118.008
 20
139.042
 11
118.253
 21
139.238
  0
LINE
  8
0
 10
118.253
 20
139.238
 11
118.471
 21
139.464
  0
LINE
  8
0
 10
118.471
 20
139.464
 11
118.659
 21
139.716
  0
LINE
  8
0
 10
118.659
 20
139.716
 11
118.814
 21
139.989
  0
LINE
  8
0
 10
118.814
 20
139.989
 11
118.934
 21
140.279
  0
LINE
  8
0
 10
118.934
 20
140.279
 11
119.016
 21
140.582
  0
LINE
  8
0
 10
119.016
 20
140.582
 11
119.06
 21
140.893
  0
LINE
  8
0
 10
119.06
 20
140.893
 11
119.064
 21
141.207
  0
LINE
  8
0
 10
119.064
 20
141.207
 11
119.029
 21
141.519
  0
LINE
  8
0
 10
119.029
 20
141.519
 11
105.485
 21
218.334
  0
LINE
  8
0
 10
105.485
 20
218.334
 11
105.411
 21
218.639
  0
LINE
  8
0
 10
105.411
 20
218.639
 11
105.3
 21
218.932
  0
LINE
  8
0
 10
105.3
 20
218.932
 11
105.152
 21
219.21
  0
LINE
  8
0
 10
105.152
 20
219.21
 11
104.971
 21
219.466
  0
LINE
  8
0
 10
104.971
 20
219.466
 11
104.759
 21
219.698
  0
LINE
  8
0
 10
104.759
 20
219.698
 11
104.52
 21
219.901
  0
LINE
  8
0
 10
104.52
 20
219.901
 11
104.258
 21
220.073
  0
LINE
  8
0
 10
104.258
 20
220.073
 11
103.975
 21
220.211
  0
LINE
  8
0
 10
103.975
 20
220.211
 11
103.678
 21
220.312
  0
LINE
  8
0
 10
103.678
 20
220.312
 11
103.371
 21
220.375
  0
LINE
  8
0
 10
103.371
 20
220.375
 11
103.058
 21
220.399
  0
LINE
  8
0
 10
103.058
 20
220.399
 11
-103.058
 21
220.399
  0
LINE
  8
0
 10
-103.058
 20
220.399
 11
-103.371
 21
220.375
  0
LINE
  8
0
 10
-103.371
 20
220.375
 11
-103.678
 21
220.312
  0
LINE
  8
0
 10
-103.678
 20
220.312
 11
-103.975
 21
220.211
  0
LINE
  8
0
 10
-103.975
 20
220.211
 11
-104.258
 21
220.073
  0
LINE
  8
0
 10
-104.258
 20
220.073
 11
-104.52
 21
219.901
  0
LINE
  8
0
 10
-104.52
 20
219.901
 11
-104.759
 21
219.698
  0
LINE
  8
0
 10
-104.759
 20
219.698
 11
-104.971
 21
219.466
  0
LINE
  8
0
 10
-104.971
 20
219.466
 11
-105.152
 21
219.21
  0
LINE
  8
0
 10
-105.152
 20
219.21
 11
-105.3
 21
218.932
  0
LINE
  8
0
 10
-105.3
 20
218.932
 11
-105.411
 21
218.639
  0
LINE
  8
0
 10
-105.411
 20
218.639
 11
-105.485
 21
218.334
  0
LINE
  8
0
 10
-105.485
 20
218.334
 11
-119.029
 21
141.519
  0
LINE
  8
0
 10
-119.029
 20
141.519
 11
-119.064
 21
141.207
  0
LINE
  8
0
 10
-119.064
 20
141.207
 11
-119.06
 21
140.893
  0
LINE
  8
0
 10
-119.06
 20
140.893
 11
-119.016
 21
140.582
  0
LINE
  8
0
 10
-119.016
 20
140.582
 11
-118.934
 21
140.279
  0
LINE
  8
0
 10
-118.934
 20
140.279
 11
-118.814
 21
139.989
  0
LINE
  8
0
 10
-118.814
 20
139.989
 11
-118.659
 21
139.716
  0
LINE
  8
0
 10
-118.659
 20
139.716
 11
-118.471
 21
139.464
  0
LINE
  8
0
 10
-118.471
 20
139.464
 11
-118.253
 21
139.238
  0
LINE
  8
0
 10
-118.253
 20
139.238
 11
-118.008
 21
139.042
  0
LINE
  8
0
 10
-118.008
 20
139.042
 11
-117.741
 21
138.877
  0
LINE
  8
0
 10
-117.741
 20
138.877
 11
-117.455
 21
138.747
  0
LINE
  8
0
 10
-117.455
 20
138.747
 11
-44.4331
 21
115.21
  0
LINE
  8
0
 10
-44.4331
 20
115.21
 11
-44.1331
 21
115.117
  0
LINE
  8
0
 10
-44.1331
 20
115.117
 11
-43.824
 21
115.062
  0
LINE
  8
0
 10
-43.824
 20
115.062
 11
-43.5104
 21
115.047
  0
LINE
  8
0
 10
-43.5104
 20
115.047
 11
43.5104
 21
115.047
  0
LINE
  8
0
 10
43.5104
 20
115.047
 11
43.824
 21
115.062
  0
LINE
  8
0
 10
-64.3826
 20
203.521
 11
-64.2184
 21
204.452
  0
LINE
  8
0
 10
-64.2184
 20
204.452
 11
-65.0188
 21
204.594
  0
LINE
  8
0
 10
-65.0188
 20
204.594
 11
-64.411
 21
208.04
  0
LINE
  8
0
 10
-64.411
 20
208.04
 11
-63.6106
 21
207.899
  0
LINE
  8
0
 10
-63.6106
 20
207.899
 11
-62.7408
 21
212.832
  0
LINE
  8
0
 10
-62.7408
 20
212.832
 11
-63.5412
 21
212.973
  0
LINE
  8
0
 10
-63.5412
 20
212.973
 11
-62.9335
 21
216.42
  0
LINE
  8
0
 10
-62.9335
 20
216.42
 11
-62.133
 21
216.279
  0
LINE
  8
0
 10
-62.133
 20
216.279
 11
-61.9688
 21
217.21
  0
LINE
  8
0
 10
-61.9688
 20
217.21
 11
-48.28
 21
214.796
  0
LINE
  8
0
 10
-48.28
 20
214.796
 11
-48.4442
 21
213.865
  0
LINE
  8
0
 10
-48.4442
 20
213.865
 11
-47.6438
 21
213.724
  0
LINE
  8
0
 10
-47.6438
 20
213.724
 11
-48.2515
 21
210.277
  0
LINE
  8
0
 10
-48.2515
 20
210.277
 11
-49.052
 21
210.418
  0
LINE
  8
0
 10
-49.052
 20
210.418
 11
-49.9218
 21
205.486
  0
LINE
  8
0
 10
-49.9218
 20
205.486
 11
-49.1213
 21
205.344
  0
LINE
  8
0
 10
-49.1213
 20
205.344
 11
-49.7291
 21
201.898
  0
LINE
  8
0
 10
-49.7291
 20
201.898
 11
-50.5296
 21
202.039
  0
LINE
  8
0
 10
-50.5296
 20
202.039
 11
-50.6937
 21
201.108
  0
LINE
  8
0
 10
-50.6937
 20
201.108
 11
-64.3826
 21
203.521
  0
LINE
  8
0
 10
50.5296
 20
202.039
 11
49.7291
 21
201.898
  0
LINE
  8
0
 10
49.7291
 20
201.898
 11
49.1213
 21
205.344
  0
LINE
  8
0
 10
49.1213
 20
205.344
 11
49.9218
 21
205.486
  0
LINE
  8
0
 10
49.9218
 20
205.486
 11
49.052
 21
210.418
  0
LINE
  8
0
 10
49.052
 20
210.418
 11
48.2515
 21
210.277
  0
LINE
  8
0
 10
48.2515
 20
210.277
 11
47.6438
 21
213.724
  0
LINE
  8
0
 10
47.6438
 20
213.724
 11
48.4442
 21
213.865
  0
LINE
  8
0
 10
48.4442
 20
213.865
 11
48.28
 21
214.796
  0
LINE
  8
0
 10
48.28
 20
214.796
 11
61.9688
 21
217.21
  0
LINE
  8
0
 10
61.9688
 20
217.21
 11
62.133
 21
216.279
  0
LINE
  8
0
 10
62.133
 20
216.279
 11
62.9335
 21
216.42
  0
LINE
  8
0
 10
62.9335
 20
216.42
 11
63.5412
 21
212.973
  0
LINE
  8
0
 10
63.5412
 20
212.973
 11
62.7408
 21
212.832
  0
LINE
  8
0
 10
62.7408
 20
212.832
 11
63.6106
 21
207.899
  0
LINE
  8
0
 10
63.6106
 20
207.899
 11
64.411
 21
208.04
  0
LINE
  8
0
 10
64.411
 20
208.04
 11
65.0188
 21
204.594
  0
LINE
  8
0
 10
65.0188
 20
204.594
 11
64.2184
 21
204.452
  0
LINE
  8
0
 10
64.2184
 20
204.452
 11
64.3826
 21
203.521
  0
LINE
  8
0
 10
64.3826
 20
203.521
 11
50.6937
 21
201.108
  0
LINE
  8
0
 10
50.6937
 20
201.108
 11
50.5296
 21
202.039
  0
LINE
  8
0
 10
-83.9621
 20
201.897
 11
-83.798
 21
202.828
  0
LINE
  8
0
 10
-83.798
 20
202.828
 11
-84.5984
 21
202.969
  0
LINE
  8
0
 10
-84.5984
 20
202.969
 11
-83.9906
 21
206.416
  0
LINE
  8
0
 10
-83.9906
 20
206.416
 11
-83.1902
 21
206.275
  0
LINE
  8
0
 10
-83.1902
 20
206.275
 11
-82.3204
 21
211.207
  0
LINE
  8
0
 10
-82.3204
 20
211.207
 11
-83.1208
 21
211.349
  0
LINE
  8
0
 10
-83.1208
 20
211.349
 11
-82.513
 21
214.795
  0
LINE
  8
0
 10
-82.513
 20
214.795
 11
-81.7126
 21
214.654
  0
LINE
  8
0
 10
-81.7126
 20
214.654
 11
-81.5484
 21
215.585
  0
LINE
  8
0
 10
-81.5484
 20
215.585
 11
-67.8596
 21
213.172
  0
LINE
  8
0
 10
-67.8596
 20
213.172
 11
-68.0238
 21
212.241
  0
LINE
  8
0
 10
-68.0238
 20
212.241
 11
-67.2233
 21
212.099
  0
LINE
  8
0
 10
-67.2233
 20
212.099
 11
-67.8311
 21
208.653
  0
LINE
  8
0
 10
-67.8311
 20
208.653
 11
-68.6316
 21
208.794
  0
LINE
  8
0
 10
-68.6316
 20
208.794
 11
-69.5014
 21
203.861
  0
LINE
  8
0
 10
-69.5014
 20
203.861
 11
-68.7009
 21
203.72
  0
LINE
  8
0
 10
-68.7009
 20
203.72
 11
-69.3087
 21
200.273
  0
LINE
  8
0
 10
-69.3087
 20
200.273
 11
-70.1091
 21
200.414
  0
LINE
  8
0
 10
-70.1091
 20
200.414
 11
-70.2733
 21
199.483
  0
LINE
  8
0
 10
-70.2733
 20
199.483
 11
-83.9621
 21
201.897
  0
LINE
  8
0
 10
70.1091
 20
200.414
 11
69.3087
 21
200.273
  0
LINE
  8
0
 10
69.3087
 20
200.273
 11
68.7009
 21
203.72
  0
LINE
  8
0
 10
68.7009
 20
203.72
 11
69.5014
 21
203.861
  0
LINE
  8
0
 10
69.5014
 20
203.861
 11
68.6316
 21
208.794
  0
LINE
  8
0
 10
68.6316
 20
208.794
 11
67.8311
 21
208.653
  0
LINE
  8
0
 10
67.8311
 20
208.653
 11
67.2233
 21
212.099
  0
LINE
  8
0
 10
67.2233
 20
212.099
 11
68.0238
 21
212.241
  0
LINE
  8
0
 10
68.0238
 20
212.241
 11
67.8596
 21
213.172
  0
LINE
  8
0
 10
67.8596
 20
213.172
 11
81.5484
 21
215.585
  0
LINE
  8
0
 10
81.5484
 20
215.585
 11
81.7126
 21
214.654
  0
LINE
  8
0
 10
81.7126
 20
214.654
 11
82.513
 21
214.795
  0
LINE
  8
0
 10
82.513
 20
214.795
 11
83.1208
 21
211.349
  0
LINE
  8
0
 10
83.1208
 20
211.349
 11
82.3204
 21
211.207
  0
LINE
  8
0
 10
82.3204
 20
211.207
 11
83.1902
 21
206.275
  0
LINE
  8
0
 10
83.1902
 20
206.275
 11
83.9906
 21
206.416
  0
LINE
  8
0
 10
83.9906
 20
206.416
 11
84.5984
 21
202.969
  0
LINE
  8
0
 10
84.5984
 20
202.969
 11
83.798
 21
202.828
  0
LINE
  8
0
 10
83.798
 20
202.828
 11
83.9621
 21
201.897
  0
LINE
  8
0
 10
83.9621
 20
201.897
 11
70.2733
 21
199.483
  0
LINE
  8
0
 10
70.2733
 20
199.483
 11
70.1091
 21
200.414
  0
LINE
  8
0
 10
-103.715
 20
199.287
 11
-103.551
 21
200.218
  0
LINE
  8
0
 10
-103.551
 20
200.218
 11
-104.352
 21
200.359
  0
LINE
  8
0
 10
-104.352
 20
200.359
 11
-103.744
 21
203.806
  0
LINE
  8
0
 10
-103.744
 20
203.806
 11
-102.943
 21
203.665
  0
LINE
  8
0
 10
-102.943
 20
203.665
 11
-102.074
 21
208.598
  0
LINE
  8
0
 10
-102.074
 20
208.598
 11
-102.874
 21
208.739
  0
LINE
  8
0
 10
-102.874
 20
208.739
 11
-102.266
 21
212.186
  0
LINE
  8
0
 10
-102.266
 20
212.186
 11
-101.466
 21
212.045
  0
LINE
  8
0
 10
-101.466
 20
212.045
 11
-101.302
 21
212.976
  0
LINE
  8
0
 10
-101.302
 20
212.976
 11
-87.6129
 21
210.562
  0
LINE
  8
0
 10
-87.6129
 20
210.562
 11
-87.777
 21
209.631
  0
LINE
  8
0
 10
-87.777
 20
209.631
 11
-86.9766
 21
209.49
  0
LINE
  8
0
 10
-86.9766
 20
209.49
 11
-87.5844
 21
206.043
  0
LINE
  8
0
 10
-87.5844
 20
206.043
 11
-88.3848
 21
206.184
  0
LINE
  8
0
 10
-88.3848
 20
206.184
 11
-89.2546
 21
201.251
  0
LINE
  8
0
 10
-89.2546
 20
201.251
 11
-88.4541
 21
201.11
  0
LINE
  8
0
 10
-88.4541
 20
201.11
 11
-89.0619
 21
197.663
  0
LINE
  8
0
 10
-89.0619
 20
197.663
 11
-89.8624
 21
197.804
  0
LINE
  8
0
 10
-89.8624
 20
197.804
 11
-90.0266
 21
196.873
  0
LINE
  8
0
 10
-90.0266
 20
196.873
 11
-103.715
 21
199.287
  0
LINE
  8
0
 10
89.8624
 20
197.804
 11
89.0619
 21
197.663
  0
LINE
  8
0
 10
89.0619
 20
197.663
 11
88.4541
 21
201.11
  0
LINE
  8
0
 10
88.4541
 20
201.11
 11
89.2546
 21
201.251
  0
LINE
  8
0
 10
89.2546
 20
201.251
 11
88.3848
 21
206.184
  0
LINE
  8
0
 10
88.3848
 20
206.184
 11
87.5844
 21
206.043
  0
LINE
  8
0
 10
87.5844
 20
206.043
 11
86.9766
 21
209.49
  0
LINE
  8
0
 10
86.9766
 20
209.49
 11
87.777
 21
209.631
  0
LINE
  8
0
 10
87.777
 20
209.631
 11
87.6129
 21
210.562
  0
LINE
  8
0
 10
87.6129
 20
210.562
 11
101.302
 21
212.976
  0
LINE
  8
0
 10
101.302
 20
212.976
 11
101.466
 21
212.045
  0
LINE
  8
0
 10
101.466
 20
212.045
 11
102.266
 21
212.186
  0
LINE
  8
0
 10
102.266
 20
212.186
 11
102.874
 21
208.739
  0
LINE
  8
0
 10
102.874
 20
208.739
 11
102.074
 21
208.598
  0
LINE
  8
0
 10
102.074
 20
208.598
 11
102.943
 21
203.665
  0
LINE
  8
0
 10
102.943
 20
203.665
 11
103.744
 21
203.806
  0
LINE
  8
0
 10
103.744
 20
203.806
 11
104.352
 21
200.359
  0
LINE
  8
0
 10
104.352
 20
200.359
 11
103.551
 21
200.218
  0
LINE
  8
0
 10
103.551
 20
200.218
 11
103.715
 21
199.287
  0
LINE
  8
0
 10
103.715
 20
199.287
 11
90.0266
 21
196.873
  0
LINE
  8
0
 10
90.0266
 20
196.873
 11
89.8624
 21
197.804
  0
LINE
  8
0
 10
28.4952
 20
206.791
 11
28.366
 21
206.817
  0
LINE
  8
0
 10
28.366
 20
206.817
 11
28.2412
 21
206.86
  0
LINE
  8
0
 10
28.2412
 20
206.86
 11
28.1227
 21
206.917
  0
LINE
  8
0
 10
28.1227
 20
206.917
 11
28.0123
 21
206.99
  0
LINE
  8
0
 10
28.0123
 20
206.99
 11
27.9119
 21
207.075
  0
LINE
  8
0
 10
27.9119
 20
207.075
 11
27.823
 21
207.172
  0
LINE
  8
0
 10
27.823
 20
207.172
 11
27.747
 21
207.28
  0
LINE
  8
0
 10
27.747
 20
207.28
 11
27.6851
 21
207.397
  0
LINE
  8
0
 10
27.6851
 20
207.397
 11
27.6383
 21
207.52
  0
LINE
  8
0
 10
27.6383
 20
207.52
 11
27.6073
 21
207.648
  0
LINE
  8
0
 10
27.6073
 20
207.648
 11
27.5925
 21
207.779
  0
LINE
  8
0
 10
27.5925
 20
207.779
 11
27.5944
 21
207.911
  0
LINE
  8
0
 10
27.5944
 20
207.911
 11
27.6127
 21
208.041
  0
LINE
  8
0
 10
27.6127
 20
208.041
 11
27.6473
 21
208.169
  0
LINE
  8
0
 10
27.6473
 20
208.169
 11
27.6976
 21
208.291
  0
LINE
  8
0
 10
27.6976
 20
208.291
 11
27.7627
 21
208.405
  0
LINE
  8
0
 10
27.7627
 20
208.405
 11
27.8417
 21
208.511
  0
LINE
  8
0
 10
27.8417
 20
208.511
 11
27.9333
 21
208.606
  0
LINE
  8
0
 10
27.9333
 20
208.606
 11
28.036
 21
208.688
  0
LINE
  8
0
 10
28.036
 20
208.688
 11
28.1484
 21
208.757
  0
LINE
  8
0
 10
28.1484
 20
208.757
 11
28.2684
 21
208.812
  0
LINE
  8
0
 10
28.2684
 20
208.812
 11
28.3944
 21
208.851
  0
LINE
  8
0
 10
28.3944
 20
208.851
 11
28.5242
 21
208.874
  0
LINE
  8
0
 10
28.5242
 20
208.874
 11
28.656
 21
208.88
  0
LINE
  8
0
 10
28.656
 20
208.88
 11
28.7874
 21
208.87
  0
LINE
  8
0
 10
28.7874
 20
208.87
 11
28.9166
 21
208.844
  0
LINE
  8
0
 10
28.9166
 20
208.844
 11
29.0414
 21
208.801
  0
LINE
  8
0
 10
29.0414
 20
208.801
 11
29.1599
 21
208.743
  0
LINE
  8
0
 10
29.1599
 20
208.743
 11
29.2703
 21
208.671
  0
LINE
  8
0
 10
29.2703
 20
208.671
 11
29.3707
 21
208.586
  0
LINE
  8
0
 10
29.3707
 20
208.586
 11
29.4596
 21
208.488
  0
LINE
  8
0
 10
29.4596
 20
208.488
 11
29.5356
 21
208.381
  0
LINE
  8
0
 10
29.5356
 20
208.381
 11
29.5975
 21
208.264
  0
LINE
  8
0
 10
29.5975
 20
208.264
 11
29.6443
 21
208.141
  0
LINE
  8
0
 10
29.6443
 20
208.141
 11
29.6753
 21
208.013
  0
LINE
  8
0
 10
29.6753
 20
208.013
 11
29.69
 21
207.882
  0
LINE
  8
0
 10
29.69
 20
207.882
 11
29.6882
 21
207.75
  0
LINE
  8
0
 10
29.6882
 20
207.75
 11
29.6699
 21
207.619
  0
LINE
  8
0
 10
29.6699
 20
207.619
 11
29.6353
 21
207.492
  0
LINE
  8
0
 10
29.6353
 20
207.492
 11
29.585
 21
207.37
  0
LINE
  8
0
 10
29.585
 20
207.37
 11
29.5199
 21
207.255
  0
LINE
  8
0
 10
29.5199
 20
207.255
 11
29.4409
 21
207.15
  0
LINE
  8
0
 10
29.4409
 20
207.15
 11
29.3493
 21
207.055
  0
LINE
  8
0
 10
29.3493
 20
207.055
 11
29.2466
 21
206.972
  0
LINE
  8
0
 10
29.2466
 20
206.972
 11
29.1342
 21
206.903
  0
LINE
  8
0
 10
29.1342
 20
206.903
 11
29.0142
 21
206.849
  0
LINE
  8
0
 10
29.0142
 20
206.849
 11
28.8882
 21
206.81
  0
LINE
  8
0
 10
28.8882
 20
206.81
 11
28.7583
 21
206.787
  0
LINE
  8
0
 10
28.7583
 20
206.787
 11
28.6266
 21
206.78
  0
LINE
  8
0
 10
28.6266
 20
206.78
 11
28.4952
 21
206.791
  0
LINE
  8
0
 10
-28.7583
 20
206.787
 11
-28.8882
 21
206.81
  0
LINE
  8
0
 10
-28.8882
 20
206.81
 11
-29.0142
 21
206.849
  0
LINE
  8
0
 10
-29.0142
 20
206.849
 11
-29.1342
 21
206.903
  0
LINE
  8
0
 10
-29.1342
 20
206.903
 11
-29.2466
 21
206.972
  0
LINE
  8
0
 10
-29.2466
 20
206.972
 11
-29.3493
 21
207.055
  0
LINE
  8
0
 10
-29.3493
 20
207.055
 11
-29.4409
 21
207.15
  0
LINE
  8
0
 10
-29.4409
 20
207.15
 11
-29.5199
 21
207.255
  0
LINE
  8
0
 10
-29.5199
 20
207.255
 11
-29.585
 21
207.37
  0
LINE
  8
0
 10
-29.585
 20
207.37
 11
-29.6353
 21
207.492
  0
LINE
  8
0
 10
-29.6353
 20
207.492
 11
-29.6699
 21
207.619
  0
LINE
  8
0
 10
-29.6699
 20
207.619
 11
-29.6882
 21
207.75
  0
LINE
  8
0
 10
-29.6882
 20
207.75
 11
-29.69
 21
207.882
  0
LINE
  8
0
 10
-29.69
 20
207.882
 11
-29.6753
 21
208.013
  0
LINE
  8
0
 10
-29.6753
 20
208.013
 11
-29.6443
 21
208.141
  0
LINE
  8
0
 10
-29.6443
 20
208.141
 11
-29.5975
 21
208.264
  0
LINE
  8
0
 10
-29.5975
 20
208.264
 11
-29.5356
 21
208.381
  0
LINE
  8
0
 10
-29.5356
 20
208.381
 11
-29.4596
 21
208.488
  0
LINE
  8
0
 10
-29.4596
 20
208.488
 11
-29.3707
 21
208.586
  0
LINE
  8
0
 10
-29.3707
 20
208.586
 11
-29.2703
 21
208.671
  0
LINE
  8
0
 10
-29.2703
 20
208.671
 11
-29.1599
 21
208.743
  0
LINE
  8
0
 10
-29.1599
 20
208.743
 11
-29.0414
 21
208.801
  0
LINE
  8
0
 10
-29.0414
 20
208.801
 11
-28.9166
 21
208.844
  0
LINE
  8
0
 10
-28.9166
 20
208.844
 11
-28.7874
 21
208.87
  0
LINE
  8
0
 10
-28.7874
 20
208.87
 11
-28.656
 21
208.88
  0
LINE
  8
0
 10
-28.656
 20
208.88
 11
-28.5242
 21
208.874
  0
LINE
  8
0
 10
-28.5242
 20
208.874
 11
-28.3944
 21
208.851
  0
LINE
  8
0
 10
-28.3944
 20
208.851
 11
-28.2684
 21
208.812
  0
LINE
  8
0
 10
-28.2684
 20
208.812
 11
-28.1484
 21
208.757
  0
LINE
  8
0
 10
-28.1484
 20
208.757
 11
-28.036
 21
208.688
  0
LINE
  8
0
 10
-28.036
 20
208.688
 11
-27.9333
 21
208.606
  0
LINE
  8
0
 10
-27.9333
 20
208.606
 11
-27.8417
 21
208.511
  0
LINE
  8
0
 10
-27.8417
 20
208.511
 11
-27.7627
 21
208.405
  0
LINE
  8
0
 10
-27.7627
 20
208.405
 11
-27.6976
 21
208.291
  0
LINE
  8
0
 10
-27.6976
 20
208.291
 11
-27.6473
 21
208.169
  0
LINE
  8
0
 10
-27.6473
 20
208.169
 11
-27.6127
 21
208.041
  0
LINE
  8
0
 10
-27.6127
 20
208.041
 11
-27.5944
 21
207.911
  0
LINE
  8
0
 10
-27.5944
 20
207.911
 11
-27.5925
 21
207.779
  0
LINE
  8
0
 10
-27.5925
 20
207.779
 11
-27.6073
 21
207.648
  0
LINE
  8
0
 10
-27.6073
 20
207.648
 11
-27.6383
 21
207.52
  0
LINE
  8
0
 10
-27.6383
 20
207.52
 11
-27.6851
 21
207.397
  0
LINE
  8
0
 10
-27.6851
 20
207.397
 11
-27.747
 21
207.28
  0
LINE
  8
0
 10
-27.747
 20
207.28
 11
-27.823
 21
207.172
  0
LINE
  8
0
 10
-27.823
 20
207.172
 11
-27.9119
 21
207.075
  0
LINE
  8
0
 10
-27.9119
 20
207.075
 11
-28.0123
 21
206.99
  0
LINE
  8
0
 10
-28.0123
 20
206.99
 11
-28.1227
 21
206.917
  0
LINE
  8
0
 10
-28.1227
 20
206.917
 11
-28.2412
 21
206.86
  0
LINE
  8
0
 10
-28.2412
 20
206.86
 11
-28.366
 21
206.817
  0
LINE
  8
0
 10
-28.366
 20
206.817
 11
-28.4952
 21
206.791
  0
LINE
  8
0
 10
-28.4952
 20
206.791
 11
-28.6266
 21
206.78
  0
LINE
  8
0
 10
-28.6266
 20
206.78
 11
-28.7583
 21
206.787
  0
LINE
  8
0
 10
-46.7131
 20
194.313
 11
-46.5489
 21
195.244
  0
LINE
  8
0
 10
-46.5489
 20
195.244
 11
-47.3494
 21
195.385
  0
LINE
  8
0
 10
-47.3494
 20
195.385
 11
-46.7416
 21
198.832
  0
LINE
  8
0
 10
-46.7416
 20
198.832
 11
-45.9411
 21
198.691
  0
LINE
  8
0
 10
-45.9411
 20
198.691
 11
-45.0714
 21
203.624
  0
LINE
  8
0
 10
-45.0714
 20
203.624
 11
-45.8718
 21
203.765
  0
LINE
  8
0
 10
-45.8718
 20
203.765
 11
-45.264
 21
207.212
  0
LINE
  8
0
 10
-45.264
 20
207.212
 11
-44.4636
 21
207.071
  0
LINE
  8
0
 10
-44.4636
 20
207.071
 11
-44.2994
 21
208.002
  0
LINE
  8
0
 10
-44.2994
 20
208.002
 11
-30.6106
 21
205.588
  0
LINE
  8
0
 10
-30.6106
 20
205.588
 11
-30.7747
 21
204.657
  0
LINE
  8
0
 10
-30.7747
 20
204.657
 11
-29.9743
 21
204.516
  0
LINE
  8
0
 10
-29.9743
 20
204.516
 11
-30.5821
 21
201.069
  0
LINE
  8
0
 10
-30.5821
 20
201.069
 11
-31.3825
 21
201.21
  0
LINE
  8
0
 10
-31.3825
 20
201.21
 11
-32.2523
 21
196.277
  0
LINE
  8
0
 10
-32.2523
 20
196.277
 11
-31.4519
 21
196.136
  0
LINE
  8
0
 10
-31.4519
 20
196.136
 11
-32.0597
 21
192.689
  0
LINE
  8
0
 10
-32.0597
 20
192.689
 11
-32.8601
 21
192.831
  0
LINE
  8
0
 10
-32.8601
 20
192.831
 11
-33.0243
 21
191.899
  0
LINE
  8
0
 10
-33.0243
 20
191.899
 11
-46.7131
 21
194.313
  0
LINE
  8
0
 10
32.8601
 20
192.831
 11
32.0597
 21
192.689
  0
LINE
  8
0
 10
32.0597
 20
192.689
 11
31.4519
 21
196.136
  0
LINE
  8
0
 10
31.4519
 20
196.136
 11
32.2523
 21
196.277
  0
LINE
  8
0
 10
32.2523
 20
196.277
 11
31.3825
 21
201.21
  0
LINE
  8
0
 10
31.3825
 20
201.21
 11
30.5821
 21
201.069
  0
LINE
  8
0
 10
30.5821
 20
201.069
 11
29.9743
 21
204.516
  0
LINE
  8
0
 10
29.9743
 20
204.516
 11
30.7747
 21
204.657
  0
LINE
  8
0
 10
30.7747
 20
204.657
 11
30.6106
 21
205.588
  0
LINE
  8
0
 10
30.6106
 20
205.588
 11
44.2994
 21
208.002
  0
LINE
  8
0
 10
44.2994
 20
208.002
 11
44.4636
 21
207.071
  0
LINE
  8
0
 10
44.4636
 20
207.071
 11
45.264
 21
207.212
  0
LINE
  8
0
 10
45.264
 20
207.212
 11
45.8718
 21
203.765
  0
LINE
  8
0
 10
45.8718
 20
203.765
 11
45.0714
 21
203.624
  0
LINE
  8
0
 10
45.0714
 20
203.624
 11
45.9411
 21
198.691
  0
LINE
  8
0
 10
45.9411
 20
198.691
 11
46.7416
 21
198.832
  0
LINE
  8
0
 10
46.7416
 20
198.832
 11
47.3494
 21
195.385
  0
LINE
  8
0
 10
47.3494
 20
195.385
 11
46.5489
 21
195.244
  0
LINE
  8
0
 10
46.5489
 20
195.244
 11
46.7131
 21
194.313
  0
LINE
  8
0
 10
46.7131
 20
194.313
 11
33.0243
 21
191.899
  0
LINE
  8
0
 10
33.0243
 20
191.899
 11
32.8601
 21
192.831
  0
LINE
  8
0
 10
-28.87
 20
186.09
 11
-28.7058
 21
187.021
  0
LINE
  8
0
 10
-28.7058
 20
187.021
 11
-29.5063
 21
187.162
  0
LINE
  8
0
 10
-29.5063
 20
187.162
 11
-28.8985
 21
190.609
  0
LINE
  8
0
 10
-28.8985
 20
190.609
 11
-28.098
 21
190.468
  0
LINE
  8
0
 10
-28.098
 20
190.468
 11
-27.2282
 21
195.401
  0
LINE
  8
0
 10
-27.2282
 20
195.401
 11
-28.0287
 21
195.542
  0
LINE
  8
0
 10
-28.0287
 20
195.542
 11
-27.4209
 21
198.989
  0
LINE
  8
0
 10
-27.4209
 20
198.989
 11
-26.6205
 21
198.848
  0
LINE
  8
0
 10
-26.6205
 20
198.848
 11
-26.4563
 21
199.779
  0
LINE
  8
0
 10
-26.4563
 20
199.779
 11
-12.7675
 21
197.365
  0
LINE
  8
0
 10
-12.7675
 20
197.365
 11
-12.9316
 21
196.434
  0
LINE
  8
0
 10
-12.9316
 20
196.434
 11
-12.1312
 21
196.293
  0
LINE
  8
0
 10
-12.1312
 20
196.293
 11
-12.739
 21
192.846
  0
LINE
  8
0
 10
-12.739
 20
192.846
 11
-13.5394
 21
192.987
  0
LINE
  8
0
 10
-13.5394
 20
192.987
 11
-14.4092
 21
188.054
  0
LINE
  8
0
 10
-14.4092
 20
188.054
 11
-13.6088
 21
187.913
  0
LINE
  8
0
 10
-13.6088
 20
187.913
 11
-14.2166
 21
184.466
  0
LINE
  8
0
 10
-14.2166
 20
184.466
 11
-15.017
 21
184.607
  0
LINE
  8
0
 10
-15.017
 20
184.607
 11
-15.1812
 21
183.676
  0
LINE
  8
0
 10
-15.1812
 20
183.676
 11
-28.87
 21
186.09
  0
LINE
  8
0
 10
15.017
 20
184.607
 11
14.2166
 21
184.466
  0
LINE
  8
0
 10
14.2166
 20
184.466
 11
13.6088
 21
187.913
  0
LINE
  8
0
 10
13.6088
 20
187.913
 11
14.4092
 21
188.054
  0
LINE
  8
0
 10
14.4092
 20
188.054
 11
13.5394
 21
192.987
  0
LINE
  8
0
 10
13.5394
 20
192.987
 11
12.739
 21
192.846
  0
LINE
  8
0
 10
12.739
 20
192.846
 11
12.1312
 21
196.293
  0
LINE
  8
0
 10
12.1312
 20
196.293
 11
12.9316
 21
196.434
  0
LINE
  8
0
 10
12.9316
 20
196.434
 11
12.7675
 21
197.365
  0
LINE
  8
0
 10
12.7675
 20
197.365
 11
26.4563
 21
199.779
  0
LINE
  8
0
 10
26.4563
 20
199.779
 11
26.6205
 21
198.848
  0
LINE
  8
0
 10
26.6205
 20
198.848
 11
27.4209
 21
198.989
  0
LINE
  8
0
 10
27.4209
 20
198.989
 11
28.0287
 21
195.542
  0
LINE
  8
0
 10
28.0287
 20
195.542
 11
27.2282
 21
195.401
  0
LINE
  8
0
 10
27.2282
 20
195.401
 11
28.098
 21
190.468
  0
LINE
  8
0
 10
28.098
 20
190.468
 11
28.8985
 21
190.609
  0
LINE
  8
0
 10
28.8985
 20
190.609
 11
29.5063
 21
187.162
  0
LINE
  8
0
 10
29.5063
 20
187.162
 11
28.7058
 21
187.021
  0
LINE
  8
0
 10
28.7058
 20
187.021
 11
28.87
 21
186.09
  0
LINE
  8
0
 10
28.87
 20
186.09
 11
15.1812
 21
183.676
  0
LINE
  8
0
 10
15.1812
 20
183.676
 11
15.017
 21
184.607
  0
LINE
  8
0
 10
-67.6819
 20
184.81
 11
-67.5177
 21
185.741
  0
LINE
  8
0
 10
-67.5177
 20
185.741
 11
-68.3181
 21
185.882
  0
LINE
  8
0
 10
-68.3181
 20
185.882
 11
-67.7103
 21
189.329
  0
LINE
  8
0
 10
-67.7103
 20
189.329
 11
-66.9099
 21
189.188
  0
LINE
  8
0
 10
-66.9099
 20
189.188
 11
-66.0401
 21
194.121
  0
LINE
  8
0
 10
-66.0401
 20
194.121
 11
-66.8406
 21
194.262
  0
LINE
  8
0
 10
-66.8406
 20
194.262
 11
-66.2328
 21
197.709
  0
LINE
  8
0
 10
-66.2328
 20
197.709
 11
-65.4323
 21
197.568
  0
LINE
  8
0
 10
-65.4323
 20
197.568
 11
-65.2682
 21
198.499
  0
LINE
  8
0
 10
-65.2682
 20
198.499
 11
-51.5793
 21
196.085
  0
LINE
  8
0
 10
-51.5793
 20
196.085
 11
-51.7435
 21
195.154
  0
LINE
  8
0
 10
-51.7435
 20
195.154
 11
-50.9431
 21
195.013
  0
LINE
  8
0
 10
-50.9431
 20
195.013
 11
-51.5509
 21
191.566
  0
LINE
  8
0
 10
-51.5509
 20
191.566
 11
-52.3513
 21
191.707
  0
LINE
  8
0
 10
-52.3513
 20
191.707
 11
-53.2211
 21
186.774
  0
LINE
  8
0
 10
-53.2211
 20
186.774
 11
-52.4206
 21
186.633
  0
LINE
  8
0
 10
-52.4206
 20
186.633
 11
-53.0284
 21
183.186
  0
LINE
  8
0
 10
-53.0284
 20
183.186
 11
-53.8289
 21
183.327
  0
LINE
  8
0
 10
-53.8289
 20
183.327
 11
-53.993
 21
182.396
  0
LINE
  8
0
 10
-53.993
 20
182.396
 11
-67.6819
 21
184.81
  0
LINE
  8
0
 10
53.8289
 20
183.327
 11
53.0284
 21
183.186
  0
LINE
  8
0
 10
53.0284
 20
183.186
 11
52.4206
 21
186.633
  0
LINE
  8
0
 10
52.4206
 20
186.633
 11
53.2211
 21
186.774
  0
LINE
  8
0
 10
53.2211
 20
186.774
 11
52.3513
 21
191.707
  0
LINE
  8
0
 10
52.3513
 20
191.707
 11
51.5509
 21
191.566
  0
LINE
  8
0
 10
51.5509
 20
191.566
 11
50.9431
 21
195.013
  0
LINE
  8
0
 10
50.9431
 20
195.013
 11
51.7435
 21
195.154
  0
LINE
  8
0
 10
51.7435
 20
195.154
 11
51.5793
 21
196.085
  0
LINE
  8
0
 10
51.5793
 20
196.085
 11
65.2682
 21
198.499
  0
LINE
  8
0
 10
65.2682
 20
198.499
 11
65.4323
 21
197.568
  0
LINE
  8
0
 10
65.4323
 20
197.568
 11
66.2328
 21
197.709
  0
LINE
  8
0
 10
66.2328
 20
197.709
 11
66.8406
 21
194.262
  0
LINE
  8
0
 10
66.8406
 20
194.262
 11
66.0401
 21
194.121
  0
LINE
  8
0
 10
66.0401
 20
194.121
 11
66.9099
 21
189.188
  0
LINE
  8
0
 10
66.9099
 20
189.188
 11
67.7103
 21
189.329
  0
LINE
  8
0
 10
67.7103
 20
189.329
 11
68.3181
 21
185.882
  0
LINE
  8
0
 10
68.3181
 20
185.882
 11
67.5177
 21
185.741
  0
LINE
  8
0
 10
67.5177
 20
185.741
 11
67.6819
 21
184.81
  0
LINE
  8
0
 10
67.6819
 20
184.81
 11
53.993
 21
182.396
  0
LINE
  8
0
 10
53.993
 20
182.396
 11
53.8289
 21
183.327
  0
LINE
  8
0
 10
-87.2615
 20
183.185
 11
-87.0973
 21
184.116
  0
LINE
  8
0
 10
-87.0973
 20
184.116
 11
-87.8977
 21
184.257
  0
LINE
  8
0
 10
-87.8977
 20
184.257
 11
-87.2899
 21
187.704
  0
LINE
  8
0
 10
-87.2899
 20
187.704
 11
-86.4895
 21
187.563
  0
LINE
  8
0
 10
-86.4895
 20
187.563
 11
-85.6197
 21
192.496
  0
LINE
  8
0
 10
-85.6197
 20
192.496
 11
-86.4202
 21
192.637
  0
LINE
  8
0
 10
-86.4202
 20
192.637
 11
-85.8124
 21
196.084
  0
LINE
  8
0
 10
-85.8124
 20
196.084
 11
-85.0119
 21
195.943
  0
LINE
  8
0
 10
-85.0119
 20
195.943
 11
-84.8477
 21
196.874
  0
LINE
  8
0
 10
-84.8477
 20
196.874
 11
-71.1589
 21
194.46
  0
LINE
  8
0
 10
-71.1589
 20
194.46
 11
-71.3231
 21
193.529
  0
LINE
  8
0
 10
-71.3231
 20
193.529
 11
-70.5227
 21
193.388
  0
LINE
  8
0
 10
-70.5227
 20
193.388
 11
-71.1304
 21
189.941
  0
LINE
  8
0
 10
-71.1304
 20
189.941
 11
-71.9309
 21
190.082
  0
LINE
  8
0
 10
-71.9309
 20
190.082
 11
-72.8007
 21
185.15
  0
LINE
  8
0
 10
-72.8007
 20
185.15
 11
-72.0002
 21
185.008
  0
LINE
  8
0
 10
-72.0002
 20
185.008
 11
-72.608
 21
181.561
  0
LINE
  8
0
 10
-72.608
 20
181.561
 11
-73.4085
 21
181.703
  0
LINE
  8
0
 10
-73.4085
 20
181.703
 11
-73.5726
 21
180.772
  0
LINE
  8
0
 10
-73.5726
 20
180.772
 11
-87.2615
 21
183.185
  0
LINE
  8
0
 10
73.4085
 20
181.703
 11
72.608
 21
181.561
  0
LINE
  8
0
 10
72.608
 20
181.561
 11
72.0002
 21
185.008
  0
LINE
  8
0
 10
72.0002
 20
185.008
 11
72.8007
 21
185.15
  0
LINE
  8
0
 10
72.8007
 20
185.15
 11
71.9309
 21
190.082
  0
LINE
  8
0
 10
71.9309
 20
190.082
 11
71.1304
 21
189.941
  0
LINE
  8
0
 10
71.1304
 20
189.941
 11
70.5227
 21
193.388
  0
LINE
  8
0
 10
70.5227
 20
193.388
 11
71.3231
 21
193.529
  0
LINE
  8
0
 10
71.3231
 20
193.529
 11
71.1589
 21
194.46
  0
LINE
  8
0
 10
71.1589
 20
194.46
 11
84.8477
 21
196.874
  0
LINE
  8
0
 10
84.8477
 20
196.874
 11
85.0119
 21
195.943
  0
LINE
  8
0
 10
85.0119
 20
195.943
 11
85.8124
 21
196.084
  0
LINE
  8
0
 10
85.8124
 20
196.084
 11
86.4202
 21
192.637
  0
LINE
  8
0
 10
86.4202
 20
192.637
 11
85.6197
 21
192.496
  0
LINE
  8
0
 10
85.6197
 20
192.496
 11
86.4895
 21
187.563
  0
LINE
  8
0
 10
86.4895
 20
187.563
 11
87.2899
 21
187.704
  0
LINE
  8
0
 10
87.2899
 20
187.704
 11
87.8977
 21
184.257
  0
LINE
  8
0
 10
87.8977
 20
184.257
 11
87.0973
 21
184.116
  0
LINE
  8
0
 10
87.0973
 20
184.116
 11
87.2615
 21
183.185
  0
LINE
  8
0
 10
87.2615
 20
183.185
 11
73.5726
 21
180.772
  0
LINE
  8
0
 10
73.5726
 20
180.772
 11
73.4085
 21
181.703
  0
LINE
  8
0
 10
88.7968
 20
193.053
 11
88.6676
 21
193.08
  0
LINE
  8
0
 10
88.6676
 20
193.08
 11
88.5428
 21
193.122
  0
LINE
  8
0
 10
88.5428
 20
193.122
 11
88.4243
 21
193.18
  0
LINE
  8
0
 10
88.4243
 20
193.18
 11
88.3139
 21
193.252
  0
LINE
  8
0
 10
88.3139
 20
193.252
 11
88.2135
 21
193.338
  0
LINE
  8
0
 10
88.2135
 20
193.338
 11
88.1246
 21
193.435
  0
LINE
  8
0
 10
88.1246
 20
193.435
 11
88.0486
 21
193.543
  0
LINE
  8
0
 10
88.0486
 20
193.543
 11
87.9867
 21
193.659
  0
LINE
  8
0
 10
87.9867
 20
193.659
 11
87.9398
 21
193.782
  0
LINE
  8
0
 10
87.9398
 20
193.782
 11
87.9089
 21
193.911
  0
LINE
  8
0
 10
87.9089
 20
193.911
 11
87.8941
 21
194.042
  0
LINE
  8
0
 10
87.8941
 20
194.042
 11
87.896
 21
194.173
  0
LINE
  8
0
 10
87.896
 20
194.173
 11
87.9144
 21
194.304
  0
LINE
  8
0
 10
87.9144
 20
194.304
 11
87.9489
 21
194.431
  0
LINE
  8
0
 10
87.9489
 20
194.431
 11
87.9992
 21
194.553
  0
LINE
  8
0
 10
87.9992
 20
194.553
 11
88.0643
 21
194.668
  0
LINE
  8
0
 10
88.0643
 20
194.668
 11
88.1433
 21
194.773
  0
LINE
  8
0
 10
88.1433
 20
194.773
 11
88.2349
 21
194.868
  0
LINE
  8
0
 10
88.2349
 20
194.868
 11
88.3376
 21
194.951
  0
LINE
  8
0
 10
88.3376
 20
194.951
 11
88.45
 21
195.02
  0
LINE
  8
0
 10
88.45
 20
195.02
 11
88.57
 21
195.074
  0
LINE
  8
0
 10
88.57
 20
195.074
 11
88.696
 21
195.113
  0
LINE
  8
0
 10
88.696
 20
195.113
 11
88.8259
 21
195.136
  0
LINE
  8
0
 10
88.8259
 20
195.136
 11
88.9576
 21
195.143
  0
LINE
  8
0
 10
88.9576
 20
195.143
 11
89.089
 21
195.133
  0
LINE
  8
0
 10
89.089
 20
195.133
 11
89.2182
 21
195.106
  0
LINE
  8
0
 10
89.2182
 20
195.106
 11
89.343
 21
195.064
  0
LINE
  8
0
 10
89.343
 20
195.064
 11
89.4615
 21
195.006
  0
LINE
  8
0
 10
89.4615
 20
195.006
 11
89.5719
 21
194.934
  0
LINE
  8
0
 10
89.5719
 20
194.934
 11
89.6723
 21
194.848
  0
LINE
  8
0
 10
89.6723
 20
194.848
 11
89.7612
 21
194.751
  0
LINE
  8
0
 10
89.7612
 20
194.751
 11
89.8372
 21
194.643
  0
LINE
  8
0
 10
89.8372
 20
194.643
 11
89.8991
 21
194.527
  0
LINE
  8
0
 10
89.8991
 20
194.527
 11
89.946
 21
194.403
  0
LINE
  8
0
 10
89.946
 20
194.403
 11
89.9769
 21
194.275
  0
LINE
  8
0
 10
89.9769
 20
194.275
 11
89.9917
 21
194.144
  0
LINE
  8
0
 10
89.9917
 20
194.144
 11
89.9898
 21
194.012
  0
LINE
  8
0
 10
89.9898
 20
194.012
 11
89.9715
 21
193.882
  0
LINE
  8
0
 10
89.9715
 20
193.882
 11
89.9369
 21
193.755
  0
LINE
  8
0
 10
89.9369
 20
193.755
 11
89.8866
 21
193.633
  0
LINE
  8
0
 10
89.8866
 20
193.633
 11
89.8215
 21
193.518
  0
LINE
  8
0
 10
89.8215
 20
193.518
 11
89.7425
 21
193.412
  0
LINE
  8
0
 10
89.7425
 20
193.412
 11
89.6509
 21
193.318
  0
LINE
  8
0
 10
89.6509
 20
193.318
 11
89.5482
 21
193.235
  0
LINE
  8
0
 10
89.5482
 20
193.235
 11
89.4359
 21
193.166
  0
LINE
  8
0
 10
89.4359
 20
193.166
 11
89.3158
 21
193.111
  0
LINE
  8
0
 10
89.3158
 20
193.111
 11
89.1898
 21
193.072
  0
LINE
  8
0
 10
89.1898
 20
193.072
 11
89.06
 21
193.049
  0
LINE
  8
0
 10
89.06
 20
193.049
 11
88.9282
 21
193.043
  0
LINE
  8
0
 10
88.9282
 20
193.043
 11
88.7968
 21
193.053
  0
LINE
  8
0
 10
-89.06
 20
193.049
 11
-89.1898
 21
193.072
  0
LINE
  8
0
 10
-89.1898
 20
193.072
 11
-89.3158
 21
193.111
  0
LINE
  8
0
 10
-89.3158
 20
193.111
 11
-89.4359
 21
193.166
  0
LINE
  8
0
 10
-89.4359
 20
193.166
 11
-89.5482
 21
193.235
  0
LINE
  8
0
 10
-89.5482
 20
193.235
 11
-89.6509
 21
193.318
  0
LINE
  8
0
 10
-89.6509
 20
193.318
 11
-89.7425
 21
193.412
  0
LINE
  8
0
 10
-89.7425
 20
193.412
 11
-89.8215
 21
193.518
  0
LINE
  8
0
 10
-89.8215
 20
193.518
 11
-89.8866
 21
193.633
  0
LINE
  8
0
 10
-89.8866
 20
193.633
 11
-89.9369
 21
193.755
  0
LINE
  8
0
 10
-89.9369
 20
193.755
 11
-89.9715
 21
193.882
  0
LINE
  8
0
 10
-89.9715
 20
193.882
 11
-89.9898
 21
194.012
  0
LINE
  8
0
 10
-89.9898
 20
194.012
 11
-89.9917
 21
194.144
  0
LINE
  8
0
 10
-89.9917
 20
194.144
 11
-89.9769
 21
194.275
  0
LINE
  8
0
 10
-89.9769
 20
194.275
 11
-89.946
 21
194.403
  0
LINE
  8
0
 10
-89.946
 20
194.403
 11
-89.8991
 21
194.527
  0
LINE
  8
0
 10
-89.8991
 20
194.527
 11
-89.8372
 21
194.643
  0
LINE
  8
0
 10
-89.8372
 20
194.643
 11
-89.7612
 21
194.751
  0
LINE
  8
0
 10
-89.7612
 20
194.751
 11
-89.6723
 21
194.848
  0
LINE
  8
0
 10
-89.6723
 20
194.848
 11
-89.5719
 21
194.934
  0
LINE
  8
0
 10
-89.5719
 20
194.934
 11
-89.4615
 21
195.006
  0
LINE
  8
0
 10
-89.4615
 20
195.006
 11
-89.343
 21
195.064
  0
LINE
  8
0
 10
-89.343
 20
195.064
 11
-89.2182
 21
195.106
  0
LINE
  8
0
 10
-89.2182
 20
195.106
 11
-89.089
 21
195.133
  0
LINE
  8
0
 10
-89.089
 20
195.133
 11
-88.9576
 21
195.143
  0
LINE
  8
0
 10
-88.9576
 20
195.143
 11
-88.8259
 21
195.136
  0
LINE
  8
0
 10
-88.8259
 20
195.136
 11
-88.696
 21
195.113
  0
LINE
  8
0
 10
-88.696
 20
195.113
 11
-88.57
 21
195.074
  0
LINE
  8
0
 10
-88.57
 20
195.074
 11
-88.45
 21
195.02
  0
LINE
  8
0
 10
-88.45
 20
195.02
 11
-88.3376
 21
194.951
  0
LINE
  8
0
 10
-88.3376
 20
194.951
 11
-88.2349
 21
194.868
  0
LINE
  8
0
 10
-88.2349
 20
194.868
 11
-88.1433
 21
194.773
  0
LINE
  8
0
 10
-88.1433
 20
194.773
 11
-88.0643
 21
194.668
  0
LINE
  8
0
 10
-88.0643
 20
194.668
 11
-87.9992
 21
194.553
  0
LINE
  8
0
 10
-87.9992
 20
194.553
 11
-87.9489
 21
194.431
  0
LINE
  8
0
 10
-87.9489
 20
194.431
 11
-87.9144
 21
194.304
  0
LINE
  8
0
 10
-87.9144
 20
194.304
 11
-87.896
 21
194.173
  0
LINE
  8
0
 10
-87.896
 20
194.173
 11
-87.8941
 21
194.042
  0
LINE
  8
0
 10
-87.8941
 20
194.042
 11
-87.9089
 21
193.911
  0
LINE
  8
0
 10
-87.9089
 20
193.911
 11
-87.9398
 21
193.782
  0
LINE
  8
0
 10
-87.9398
 20
193.782
 11
-87.9867
 21
193.659
  0
LINE
  8
0
 10
-87.9867
 20
193.659
 11
-88.0486
 21
193.543
  0
LINE
  8
0
 10
-88.0486
 20
193.543
 11
-88.1246
 21
193.435
  0
LINE
  8
0
 10
-88.1246
 20
193.435
 11
-88.2135
 21
193.338
  0
LINE
  8
0
 10
-88.2135
 20
193.338
 11
-88.3139
 21
193.252
  0
LINE
  8
0
 10
-88.3139
 20
193.252
 11
-88.4243
 21
193.18
  0
LINE
  8
0
 10
-88.4243
 20
193.18
 11
-88.5428
 21
193.122
  0
LINE
  8
0
 10
-88.5428
 20
193.122
 11
-88.6676
 21
193.08
  0
LINE
  8
0
 10
-88.6676
 20
193.08
 11
-88.7968
 21
193.053
  0
LINE
  8
0
 10
-88.7968
 20
193.053
 11
-88.9282
 21
193.043
  0
LINE
  8
0
 10
-88.9282
 20
193.043
 11
-89.06
 21
193.049
  0
LINE
  8
0
 10
-107.015
 20
180.576
 11
-106.851
 21
181.507
  0
LINE
  8
0
 10
-106.851
 20
181.507
 11
-107.651
 21
181.648
  0
LINE
  8
0
 10
-107.651
 20
181.648
 11
-107.043
 21
185.095
  0
LINE
  8
0
 10
-107.043
 20
185.095
 11
-106.243
 21
184.954
  0
LINE
  8
0
 10
-106.243
 20
184.954
 11
-105.373
 21
189.886
  0
LINE
  8
0
 10
-105.373
 20
189.886
 11
-106.173
 21
190.028
  0
LINE
  8
0
 10
-106.173
 20
190.028
 11
-105.566
 21
193.475
  0
LINE
  8
0
 10
-105.566
 20
193.475
 11
-104.765
 21
193.333
  0
LINE
  8
0
 10
-104.765
 20
193.333
 11
-104.601
 21
194.265
  0
LINE
  8
0
 10
-104.601
 20
194.265
 11
-90.9122
 21
191.851
  0
LINE
  8
0
 10
-90.9122
 20
191.851
 11
-91.0763
 21
190.92
  0
LINE
  8
0
 10
-91.0763
 20
190.92
 11
-90.2759
 21
190.779
  0
LINE
  8
0
 10
-90.2759
 20
190.779
 11
-90.8837
 21
187.332
  0
LINE
  8
0
 10
-90.8837
 20
187.332
 11
-91.6841
 21
187.473
  0
LINE
  8
0
 10
-91.6841
 20
187.473
 11
-92.5539
 21
182.54
  0
LINE
  8
0
 10
-92.5539
 20
182.54
 11
-91.7535
 21
182.399
  0
LINE
  8
0
 10
-91.7535
 20
182.399
 11
-92.3613
 21
178.952
  0
LINE
  8
0
 10
-92.3613
 20
178.952
 11
-93.1617
 21
179.093
  0
LINE
  8
0
 10
-93.1617
 20
179.093
 11
-93.3259
 21
178.162
  0
LINE
  8
0
 10
-93.3259
 20
178.162
 11
-107.015
 21
180.576
  0
LINE
  8
0
 10
93.1617
 20
179.093
 11
92.3613
 21
178.952
  0
LINE
  8
0
 10
92.3613
 20
178.952
 11
91.7535
 21
182.399
  0
LINE
  8
0
 10
91.7535
 20
182.399
 11
92.5539
 21
182.54
  0
LINE
  8
0
 10
92.5539
 20
182.54
 11
91.6841
 21
187.473
  0
LINE
  8
0
 10
91.6841
 20
187.473
 11
90.8837
 21
187.332
  0
LINE
  8
0
 10
90.8837
 20
187.332
 11
90.2759
 21
190.779
  0
LINE
  8
0
 10
90.2759
 20
190.779
 11
91.0763
 21
190.92
  0
LINE
  8
0
 10
91.0763
 20
190.92
 11
90.9122
 21
191.851
  0
LINE
  8
0
 10
90.9122
 20
191.851
 11
104.601
 21
194.265
  0
LINE
  8
0
 10
104.601
 20
194.265
 11
104.765
 21
193.333
  0
LINE
  8
0
 10
104.765
 20
193.333
 11
105.566
 21
193.475
  0
LINE
  8
0
 10
105.566
 20
193.475
 11
106.173
 21
190.028
  0
LINE
  8
0
 10
106.173
 20
190.028
 11
105.373
 21
189.886
  0
LINE
  8
0
 10
105.373
 20
189.886
 11
106.243
 21
184.954
  0
LINE
  8
0
 10
106.243
 20
184.954
 11
107.043
 21
185.095
  0
LINE
  8
0
 10
107.043
 20
185.095
 11
107.651
 21
181.648
  0
LINE
  8
0
 10
107.651
 20
181.648
 11
106.851
 21
181.507
  0
LINE
  8
0
 10
106.851
 20
181.507
 11
107.015
 21
180.576
  0
LINE
  8
0
 10
107.015
 20
180.576
 11
93.3259
 21
178.162
  0
LINE
  8
0
 10
93.3259
 20
178.162
 11
93.1617
 21
179.093
  0
LINE
  8
0
 10
-50.0124
 20
175.602
 11
-49.8482
 21
176.533
  0
LINE
  8
0
 10
-49.8482
 20
176.533
 11
-50.6487
 21
176.674
  0
LINE
  8
0
 10
-50.6487
 20
176.674
 11
-50.0409
 21
180.121
  0
LINE
  8
0
 10
-50.0409
 20
180.121
 11
-49.2404
 21
179.98
  0
LINE
  8
0
 10
-49.2404
 20
179.98
 11
-48.3707
 21
184.913
  0
LINE
  8
0
 10
-48.3707
 20
184.913
 11
-49.1711
 21
185.054
  0
LINE
  8
0
 10
-49.1711
 20
185.054
 11
-48.5633
 21
188.501
  0
LINE
  8
0
 10
-48.5633
 20
188.501
 11
-47.7629
 21
188.36
  0
LINE
  8
0
 10
-47.7629
 20
188.36
 11
-47.5987
 21
189.291
  0
LINE
  8
0
 10
-47.5987
 20
189.291
 11
-33.9099
 21
186.877
  0
LINE
  8
0
 10
-33.9099
 20
186.877
 11
-34.0741
 21
185.946
  0
LINE
  8
0
 10
-34.0741
 20
185.946
 11
-33.2736
 21
185.805
  0
LINE
  8
0
 10
-33.2736
 20
185.805
 11
-33.8814
 21
182.358
  0
LINE
  8
0
 10
-33.8814
 20
182.358
 11
-34.6818
 21
182.499
  0
LINE
  8
0
 10
-34.6818
 20
182.499
 11
-35.5516
 21
177.566
  0
LINE
  8
0
 10
-35.5516
 20
177.566
 11
-34.7512
 21
177.425
  0
LINE
  8
0
 10
-34.7512
 20
177.425
 11
-35.359
 21
173.978
  0
LINE
  8
0
 10
-35.359
 20
173.978
 11
-36.1594
 21
174.119
  0
LINE
  8
0
 10
-36.1594
 20
174.119
 11
-36.3236
 21
173.188
  0
LINE
  8
0
 10
-36.3236
 20
173.188
 11
-50.0124
 21
175.602
  0
LINE
  8
0
 10
36.1594
 20
174.119
 11
35.359
 21
173.978
  0
LINE
  8
0
 10
35.359
 20
173.978
 11
34.7512
 21
177.425
  0
LINE
  8
0
 10
34.7512
 20
177.425
 11
35.5516
 21
177.566
  0
LINE
  8
0
 10
35.5516
 20
177.566
 11
34.6818
 21
182.499
  0
LINE
  8
0
 10
34.6818
 20
182.499
 11
33.8814
 21
182.358
  0
LINE
  8
0
 10
33.8814
 20
182.358
 11
33.2736
 21
185.805
  0
LINE
  8
0
 10
33.2736
 20
185.805
 11
34.0741
 21
185.946
  0
LINE
  8
0
 10
34.0741
 20
185.946
 11
33.9099
 21
186.877
  0
LINE
  8
0
 10
33.9099
 20
186.877
 11
47.5987
 21
189.291
  0
LINE
  8
0
 10
47.5987
 20
189.291
 11
47.7629
 21
188.36
  0
LINE
  8
0
 10
47.7629
 20
188.36
 11
48.5633
 21
188.501
  0
LINE
  8
0
 10
48.5633
 20
188.501
 11
49.1711
 21
185.054
  0
LINE
  8
0
 10
49.1711
 20
185.054
 11
48.3707
 21
184.913
  0
LINE
  8
0
 10
48.3707
 20
184.913
 11
49.2404
 21
179.98
  0
LINE
  8
0
 10
49.2404
 20
179.98
 11
50.0409
 21
180.121
  0
LINE
  8
0
 10
50.0409
 20
180.121
 11
50.6487
 21
176.674
  0
LINE
  8
0
 10
50.6487
 20
176.674
 11
49.8482
 21
176.533
  0
LINE
  8
0
 10
49.8482
 20
176.533
 11
50.0124
 21
175.602
  0
LINE
  8
0
 10
50.0124
 20
175.602
 11
36.3236
 21
173.188
  0
LINE
  8
0
 10
36.3236
 20
173.188
 11
36.1594
 21
174.119
  0
LINE
  8
0
 10
-32.1693
 20
167.378
 11
-32.0051
 21
168.31
  0
LINE
  8
0
 10
-32.0051
 20
168.31
 11
-32.8056
 21
168.451
  0
LINE
  8
0
 10
-32.8056
 20
168.451
 11
-32.1978
 21
171.898
  0
LINE
  8
0
 10
-32.1978
 20
171.898
 11
-31.3973
 21
171.756
  0
LINE
  8
0
 10
-31.3973
 20
171.756
 11
-30.5276
 21
176.689
  0
LINE
  8
0
 10
-30.5276
 20
176.689
 11
-31.328
 21
176.83
  0
LINE
  8
0
 10
-31.328
 20
176.83
 11
-30.7202
 21
180.277
  0
LINE
  8
0
 10
-30.7202
 20
180.277
 11
-29.9198
 21
180.136
  0
LINE
  8
0
 10
-29.9198
 20
180.136
 11
-29.7556
 21
181.067
  0
LINE
  8
0
 10
-29.7556
 20
181.067
 11
-16.0668
 21
178.654
  0
LINE
  8
0
 10
-16.0668
 20
178.654
 11
-16.231
 21
177.722
  0
LINE
  8
0
 10
-16.231
 20
177.722
 11
-15.4305
 21
177.581
  0
LINE
  8
0
 10
-15.4305
 20
177.581
 11
-16.0383
 21
174.134
  0
LINE
  8
0
 10
-16.0383
 20
174.134
 11
-16.8387
 21
174.276
  0
LINE
  8
0
 10
-16.8387
 20
174.276
 11
-17.7085
 21
169.343
  0
LINE
  8
0
 10
-17.7085
 20
169.343
 11
-16.9081
 21
169.202
  0
LINE
  8
0
 10
-16.9081
 20
169.202
 11
-17.5159
 21
165.755
  0
LINE
  8
0
 10
-17.5159
 20
165.755
 11
-18.3163
 21
165.896
  0
LINE
  8
0
 10
-18.3163
 20
165.896
 11
-18.4805
 21
164.965
  0
LINE
  8
0
 10
-18.4805
 20
164.965
 11
-32.1693
 21
167.378
  0
LINE
  8
0
 10
18.3163
 20
165.896
 11
17.5159
 21
165.755
  0
LINE
  8
0
 10
17.5159
 20
165.755
 11
16.9081
 21
169.202
  0
LINE
  8
0
 10
16.9081
 20
169.202
 11
17.7085
 21
169.343
  0
LINE
  8
0
 10
17.7085
 20
169.343
 11
16.8387
 21
174.276
  0
LINE
  8
0
 10
16.8387
 20
174.276
 11
16.0383
 21
174.134
  0
LINE
  8
0
 10
16.0383
 20
174.134
 11
15.4305
 21
177.581
  0
LINE
  8
0
 10
15.4305
 20
177.581
 11
16.231
 21
177.722
  0
LINE
  8
0
 10
16.231
 20
177.722
 11
16.0668
 21
178.654
  0
LINE
  8
0
 10
16.0668
 20
178.654
 11
29.7556
 21
181.067
  0
LINE
  8
0
 10
29.7556
 20
181.067
 11
29.9198
 21
180.136
  0
LINE
  8
0
 10
29.9198
 20
180.136
 11
30.7202
 21
180.277
  0
LINE
  8
0
 10
30.7202
 20
180.277
 11
31.328
 21
176.83
  0
LINE
  8
0
 10
31.328
 20
176.83
 11
30.5276
 21
176.689
  0
LINE
  8
0
 10
30.5276
 20
176.689
 11
31.3973
 21
171.756
  0
LINE
  8
0
 10
31.3973
 20
171.756
 11
32.1978
 21
171.898
  0
LINE
  8
0
 10
32.1978
 20
171.898
 11
32.8056
 21
168.451
  0
LINE
  8
0
 10
32.8056
 20
168.451
 11
32.0051
 21
168.31
  0
LINE
  8
0
 10
32.0051
 20
168.31
 11
32.1693
 21
167.378
  0
LINE
  8
0
 10
32.1693
 20
167.378
 11
18.4805
 21
164.965
  0
LINE
  8
0
 10
18.4805
 20
164.965
 11
18.3163
 21
165.896
  0
LINE
  8
0
 10
-70.9812
 20
166.099
 11
-70.817
 21
167.03
  0
LINE
  8
0
 10
-70.817
 20
167.03
 11
-71.6174
 21
167.171
  0
LINE
  8
0
 10
-71.6174
 20
167.171
 11
-71.0097
 21
170.618
  0
LINE
  8
0
 10
-71.0097
 20
170.618
 11
-70.2092
 21
170.477
  0
LINE
  8
0
 10
-70.2092
 20
170.477
 11
-69.3394
 21
175.409
  0
LINE
  8
0
 10
-69.3394
 20
175.409
 11
-70.1399
 21
175.551
  0
LINE
  8
0
 10
-70.1399
 20
175.551
 11
-69.5321
 21
178.997
  0
LINE
  8
0
 10
-69.5321
 20
178.997
 11
-68.7317
 21
178.856
  0
LINE
  8
0
 10
-68.7317
 20
178.856
 11
-68.5675
 21
179.787
  0
LINE
  8
0
 10
-68.5675
 20
179.787
 11
-54.8787
 21
177.374
  0
LINE
  8
0
 10
-54.8787
 20
177.374
 11
-55.0428
 21
176.443
  0
LINE
  8
0
 10
-55.0428
 20
176.443
 11
-54.2424
 21
176.301
  0
LINE
  8
0
 10
-54.2424
 20
176.301
 11
-54.8502
 21
172.855
  0
LINE
  8
0
 10
-54.8502
 20
172.855
 11
-55.6506
 21
172.996
  0
LINE
  8
0
 10
-55.6506
 20
172.996
 11
-56.5204
 21
168.063
  0
LINE
  8
0
 10
-56.5204
 20
168.063
 11
-55.72
 21
167.922
  0
LINE
  8
0
 10
-55.72
 20
167.922
 11
-56.3277
 21
164.475
  0
LINE
  8
0
 10
-56.3277
 20
164.475
 11
-57.1282
 21
164.616
  0
LINE
  8
0
 10
-57.1282
 20
164.616
 11
-57.2924
 21
163.685
  0
LINE
  8
0
 10
-57.2924
 20
163.685
 11
-70.9812
 21
166.099
  0
LINE
  8
0
 10
57.1282
 20
164.616
 11
56.3277
 21
164.475
  0
LINE
  8
0
 10
56.3277
 20
164.475
 11
55.72
 21
167.922
  0
LINE
  8
0
 10
55.72
 20
167.922
 11
56.5204
 21
168.063
  0
LINE
  8
0
 10
56.5204
 20
168.063
 11
55.6506
 21
172.996
  0
LINE
  8
0
 10
55.6506
 20
172.996
 11
54.8502
 21
172.855
  0
LINE
  8
0
 10
54.8502
 20
172.855
 11
54.2424
 21
176.301
  0
LINE
  8
0
 10
54.2424
 20
176.301
 11
55.0428
 21
176.443
  0
LINE
  8
0
 10
55.0428
 20
176.443
 11
54.8787
 21
177.374
  0
LINE
  8
0
 10
54.8787
 20
177.374
 11
68.5675
 21
179.787
  0
LINE
  8
0
 10
68.5675
 20
179.787
 11
68.7317
 21
178.856
  0
LINE
  8
0
 10
68.7317
 20
178.856
 11
69.5321
 21
178.997
  0
LINE
  8
0
 10
69.5321
 20
178.997
 11
70.1399
 21
175.551
  0
LINE
  8
0
 10
70.1399
 20
175.551
 11
69.3394
 21
175.409
  0
LINE
  8
0
 10
69.3394
 20
175.409
 11
70.2092
 21
170.477
  0
LINE
  8
0
 10
70.2092
 20
170.477
 11
71.0097
 21
170.618
  0
LINE
  8
0
 10
71.0097
 20
170.618
 11
71.6174
 21
167.171
  0
LINE
  8
0
 10
71.6174
 20
167.171
 11
70.817
 21
167.03
  0
LINE
  8
0
 10
70.817
 20
167.03
 11
70.9812
 21
166.099
  0
LINE
  8
0
 10
70.9812
 20
166.099
 11
57.2924
 21
163.685
  0
LINE
  8
0
 10
57.2924
 20
163.685
 11
57.1282
 21
164.616
  0
LINE
  8
0
 10
-90.5608
 20
164.474
 11
-90.3966
 21
165.405
  0
LINE
  8
0
 10
-90.3966
 20
165.405
 11
-91.197
 21
165.546
  0
LINE
  8
0
 10
-91.197
 20
165.546
 11
-90.5892
 21
168.993
  0
LINE
  8
0
 10
-90.5892
 20
168.993
 11
-89.7888
 21
168.852
  0
LINE
  8
0
 10
-89.7888
 20
168.852
 11
-88.919
 21
173.785
  0
LINE
  8
0
 10
-88.919
 20
173.785
 11
-89.7195
 21
173.926
  0
LINE
  8
0
 10
-89.7195
 20
173.926
 11
-89.1117
 21
177.373
  0
LINE
  8
0
 10
-89.1117
 20
177.373
 11
-88.3112
 21
177.232
  0
LINE
  8
0
 10
-88.3112
 20
177.232
 11
-88.1471
 21
178.163
  0
LINE
  8
0
 10
-88.1471
 20
178.163
 11
-74.4582
 21
175.749
  0
LINE
  8
0
 10
-74.4582
 20
175.749
 11
-74.6224
 21
174.818
  0
LINE
  8
0
 10
-74.6224
 20
174.818
 11
-73.822
 21
174.677
  0
LINE
  8
0
 10
-73.822
 20
174.677
 11
-74.4298
 21
171.23
  0
LINE
  8
0
 10
-74.4298
 20
171.23
 11
-75.2302
 21
171.371
  0
LINE
  8
0
 10
-75.2302
 20
171.371
 11
-76.1
 21
166.438
  0
LINE
  8
0
 10
-76.1
 20
166.438
 11
-75.2995
 21
166.297
  0
LINE
  8
0
 10
-75.2995
 20
166.297
 11
-75.9073
 21
162.85
  0
LINE
  8
0
 10
-75.9073
 20
162.85
 11
-76.7078
 21
162.991
  0
LINE
  8
0
 10
-76.7078
 20
162.991
 11
-76.8719
 21
162.06
  0
LINE
  8
0
 10
-76.8719
 20
162.06
 11
-90.5608
 21
164.474
  0
LINE
  8
0
 10
76.7078
 20
162.991
 11
75.9073
 21
162.85
  0
LINE
  8
0
 10
75.9073
 20
162.85
 11
75.2995
 21
166.297
  0
LINE
  8
0
 10
75.2995
 20
166.297
 11
76.1
 21
166.438
  0
LINE
  8
0
 10
76.1
 20
166.438
 11
75.2302
 21
171.371
  0
LINE
  8
0
 10
75.2302
 20
171.371
 11
74.4298
 21
171.23
  0
LINE
  8
0
 10
74.4298
 20
171.23
 11
73.822
 21
174.677
  0
LINE
  8
0
 10
73.822
 20
174.677
 11
74.6224
 21
174.818
  0
LINE
  8
0
 10
74.6224
 20
174.818
 11
74.4582
 21
175.749
  0
LINE
  8
0
 10
74.4582
 20
175.749
 11
88.1471
 21
178.163
  0
LINE
  8
0
 10
88.1471
 20
178.163
 11
88.3112
 21
177.232
  0
LINE
  8
0
 10
88.3112
 20
177.232
 11
89.1117
 21
177.373
  0
LINE
  8
0
 10
89.1117
 20
177.373
 11
89.7195
 21
173.926
  0
LINE
  8
0
 10
89.7195
 20
173.926
 11
88.919
 21
173.785
  0
LINE
  8
0
 10
88.919
 20
173.785
 11
89.7888
 21
168.852
  0
LINE
  8
0
 10
89.7888
 20
168.852
 11
90.5892
 21
168.993
  0
LINE
  8
0
 10
90.5892
 20
168.993
 11
91.197
 21
165.546
  0
LINE
  8
0
 10
91.197
 20
165.546
 11
90.3966
 21
165.405
  0
LINE
  8
0
 10
90.3966
 20
165.405
 11
90.5608
 21
164.474
  0
LINE
  8
0
 10
90.5608
 20
164.474
 11
76.8719
 21
162.06
  0
LINE
  8
0
 10
76.8719
 20
162.06
 11
76.7078
 21
162.991
  0
LINE
  8
0
 10
-110.314
 20
161.864
 11
-110.15
 21
162.795
  0
LINE
  8
0
 10
-110.15
 20
162.795
 11
-110.95
 21
162.937
  0
LINE
  8
0
 10
-110.95
 20
162.937
 11
-110.342
 21
166.383
  0
LINE
  8
0
 10
-110.342
 20
166.383
 11
-109.542
 21
166.242
  0
LINE
  8
0
 10
-109.542
 20
166.242
 11
-108.672
 21
171.175
  0
LINE
  8
0
 10
-108.672
 20
171.175
 11
-109.473
 21
171.316
  0
LINE
  8
0
 10
-109.473
 20
171.316
 11
-108.865
 21
174.763
  0
LINE
  8
0
 10
-108.865
 20
174.763
 11
-108.064
 21
174.622
  0
LINE
  8
0
 10
-108.064
 20
174.622
 11
-107.9
 21
175.553
  0
LINE
  8
0
 10
-107.9
 20
175.553
 11
-94.2115
 21
173.139
  0
LINE
  8
0
 10
-94.2115
 20
173.139
 11
-94.3757
 21
172.208
  0
LINE
  8
0
 10
-94.3757
 20
172.208
 11
-93.5752
 21
172.067
  0
LINE
  8
0
 10
-93.5752
 20
172.067
 11
-94.183
 21
168.62
  0
LINE
  8
0
 10
-94.183
 20
168.62
 11
-94.9834
 21
168.761
  0
LINE
  8
0
 10
-94.9834
 20
168.761
 11
-95.8532
 21
163.829
  0
LINE
  8
0
 10
-95.8532
 20
163.829
 11
-95.0528
 21
163.688
  0
LINE
  8
0
 10
-95.0528
 20
163.688
 11
-95.6606
 21
160.241
  0
LINE
  8
0
 10
-95.6606
 20
160.241
 11
-96.461
 21
160.382
  0
LINE
  8
0
 10
-96.461
 20
160.382
 11
-96.6252
 21
159.451
  0
LINE
  8
0
 10
-96.6252
 20
159.451
 11
-110.314
 21
161.864
  0
LINE
  8
0
 10
96.461
 20
160.382
 11
95.6606
 21
160.241
  0
LINE
  8
0
 10
95.6606
 20
160.241
 11
95.0528
 21
163.688
  0
LINE
  8
0
 10
95.0528
 20
163.688
 11
95.8532
 21
163.829
  0
LINE
  8
0
 10
95.8532
 20
163.829
 11
94.9834
 21
168.761
  0
LINE
  8
0
 10
94.9834
 20
168.761
 11
94.183
 21
168.62
  0
LINE
  8
0
 10
94.183
 20
168.62
 11
93.5752
 21
172.067
  0
LINE
  8
0
 10
93.5752
 20
172.067
 11
94.3757
 21
172.208
  0
LINE
  8
0
 10
94.3757
 20
172.208
 11
94.2115
 21
173.139
  0
LINE
  8
0
 10
94.2115
 20
173.139
 11
107.9
 21
175.553
  0
LINE
  8
0
 10
107.9
 20
175.553
 11
108.064
 21
174.622
  0
LINE
  8
0
 10
108.064
 20
174.622
 11
108.865
 21
174.763
  0
LINE
  8
0
 10
108.865
 20
174.763
 11
109.473
 21
171.316
  0
LINE
  8
0
 10
109.473
 20
171.316
 11
108.672
 21
171.175
  0
LINE
  8
0
 10
108.672
 20
171.175
 11
109.542
 21
166.242
  0
LINE
  8
0
 10
109.542
 20
166.242
 11
110.342
 21
166.383
  0
LINE
  8
0
 10
110.342
 20
166.383
 11
110.95
 21
162.937
  0
LINE
  8
0
 10
110.95
 20
162.937
 11
110.15
 21
162.795
  0
LINE
  8
0
 10
110.15
 20
162.795
 11
110.314
 21
161.864
  0
LINE
  8
0
 10
110.314
 20
161.864
 11
96.6252
 21
159.451
  0
LINE
  8
0
 10
96.6252
 20
159.451
 11
96.461
 21
160.382
  0
LINE
  8
0
 10
35.0938
 20
169.368
 11
34.9646
 21
169.394
  0
LINE
  8
0
 10
34.9646
 20
169.394
 11
34.8398
 21
169.437
  0
LINE
  8
0
 10
34.8398
 20
169.437
 11
34.7213
 21
169.495
  0
LINE
  8
0
 10
34.7213
 20
169.495
 11
34.611
 21
169.567
  0
LINE
  8
0
 10
34.611
 20
169.567
 11
34.5105
 21
169.652
  0
LINE
  8
0
 10
34.5105
 20
169.652
 11
34.4216
 21
169.75
  0
LINE
  8
0
 10
34.4216
 20
169.75
 11
34.3456
 21
169.857
  0
LINE
  8
0
 10
34.3456
 20
169.857
 11
34.2837
 21
169.974
  0
LINE
  8
0
 10
34.2837
 20
169.974
 11
34.2369
 21
170.097
  0
LINE
  8
0
 10
34.2369
 20
170.097
 11
34.2059
 21
170.225
  0
LINE
  8
0
 10
34.2059
 20
170.225
 11
34.1912
 21
170.356
  0
LINE
  8
0
 10
34.1912
 20
170.356
 11
34.193
 21
170.488
  0
LINE
  8
0
 10
34.193
 20
170.488
 11
34.2114
 21
170.619
  0
LINE
  8
0
 10
34.2114
 20
170.619
 11
34.2459
 21
170.746
  0
LINE
  8
0
 10
34.2459
 20
170.746
 11
34.2962
 21
170.868
  0
LINE
  8
0
 10
34.2962
 20
170.868
 11
34.3613
 21
170.983
  0
LINE
  8
0
 10
34.3613
 20
170.983
 11
34.4403
 21
171.088
  0
LINE
  8
0
 10
34.4403
 20
171.088
 11
34.5319
 21
171.183
  0
LINE
  8
0
 10
34.5319
 20
171.183
 11
34.6347
 21
171.266
  0
LINE
  8
0
 10
34.6347
 20
171.266
 11
34.747
 21
171.335
  0
LINE
  8
0
 10
34.747
 20
171.335
 11
34.8671
 21
171.389
  0
LINE
  8
0
 10
34.8671
 20
171.389
 11
34.993
 21
171.428
  0
LINE
  8
0
 10
34.993
 20
171.428
 11
35.1229
 21
171.451
  0
LINE
  8
0
 10
35.1229
 20
171.451
 11
35.2546
 21
171.458
  0
LINE
  8
0
 10
35.2546
 20
171.458
 11
35.3861
 21
171.447
  0
LINE
  8
0
 10
35.3861
 20
171.447
 11
35.5152
 21
171.421
  0
LINE
  8
0
 10
35.5152
 20
171.421
 11
35.64
 21
171.378
  0
LINE
  8
0
 10
35.64
 20
171.378
 11
35.7586
 21
171.321
  0
LINE
  8
0
 10
35.7586
 20
171.321
 11
35.8689
 21
171.248
  0
LINE
  8
0
 10
35.8689
 20
171.248
 11
35.9693
 21
171.163
  0
LINE
  8
0
 10
35.9693
 20
171.163
 11
36.0582
 21
171.066
  0
LINE
  8
0
 10
36.0582
 20
171.066
 11
36.1342
 21
170.958
  0
LINE
  8
0
 10
36.1342
 20
170.958
 11
36.1961
 21
170.841
  0
LINE
  8
0
 10
36.1961
 20
170.841
 11
36.243
 21
170.718
  0
LINE
  8
0
 10
36.243
 20
170.718
 11
36.274
 21
170.59
  0
LINE
  8
0
 10
36.274
 20
170.59
 11
36.2887
 21
170.459
  0
LINE
  8
0
 10
36.2887
 20
170.459
 11
36.2868
 21
170.327
  0
LINE
  8
0
 10
36.2868
 20
170.327
 11
36.2685
 21
170.197
  0
LINE
  8
0
 10
36.2685
 20
170.197
 11
36.2339
 21
170.069
  0
LINE
  8
0
 10
36.2339
 20
170.069
 11
36.1837
 21
169.947
  0
LINE
  8
0
 10
36.1837
 20
169.947
 11
36.1185
 21
169.833
  0
LINE
  8
0
 10
36.1185
 20
169.833
 11
36.0395
 21
169.727
  0
LINE
  8
0
 10
36.0395
 20
169.727
 11
35.948
 21
169.632
  0
LINE
  8
0
 10
35.948
 20
169.632
 11
35.8452
 21
169.55
  0
LINE
  8
0
 10
35.8452
 20
169.55
 11
35.7329
 21
169.481
  0
LINE
  8
0
 10
35.7329
 20
169.481
 11
35.6128
 21
169.426
  0
LINE
  8
0
 10
35.6128
 20
169.426
 11
35.4868
 21
169.387
  0
LINE
  8
0
 10
35.4868
 20
169.387
 11
35.357
 21
169.364
  0
LINE
  8
0
 10
35.357
 20
169.364
 11
35.2253
 21
169.358
  0
LINE
  8
0
 10
35.2253
 20
169.358
 11
35.0938
 21
169.368
  0
LINE
  8
0
 10
-35.357
 20
169.364
 11
-35.4868
 21
169.387
  0
LINE
  8
0
 10
-35.4868
 20
169.387
 11
-35.6128
 21
169.426
  0
LINE
  8
0
 10
-35.6128
 20
169.426
 11
-35.7329
 21
169.481
  0
LINE
  8
0
 10
-35.7329
 20
169.481
 11
-35.8452
 21
169.55
  0
LINE
  8
0
 10
-35.8452
 20
169.55
 11
-35.948
 21
169.632
  0
LINE
  8
0
 10
-35.948
 20
169.632
 11
-36.0395
 21
169.727
  0
LINE
  8
0
 10
-36.0395
 20
169.727
 11
-36.1185
 21
169.833
  0
LINE
  8
0
 10
-36.1185
 20
169.833
 11
-36.1837
 21
169.947
  0
LINE
  8
0
 10
-36.1837
 20
169.947
 11
-36.2339
 21
170.069
  0
LINE
  8
0
 10
-36.2339
 20
170.069
 11
-36.2685
 21
170.197
  0
LINE
  8
0
 10
-36.2685
 20
170.197
 11
-36.2868
 21
170.327
  0
LINE
  8
0
 10
-36.2868
 20
170.327
 11
-36.2887
 21
170.459
  0
LINE
  8
0
 10
-36.2887
 20
170.459
 11
-36.274
 21
170.59
  0
LINE
  8
0
 10
-36.274
 20
170.59
 11
-36.243
 21
170.718
  0
LINE
  8
0
 10
-36.243
 20
170.718
 11
-36.1961
 21
170.841
  0
LINE
  8
0
 10
-36.1961
 20
170.841
 11
-36.1342
 21
170.958
  0
LINE
  8
0
 10
-36.1342
 20
170.958
 11
-36.0582
 21
171.066
  0
LINE
  8
0
 10
-36.0582
 20
171.066
 11
-35.9693
 21
171.163
  0
LINE
  8
0
 10
-35.9693
 20
171.163
 11
-35.8689
 21
171.248
  0
LINE
  8
0
 10
-35.8689
 20
171.248
 11
-35.7586
 21
171.321
  0
LINE
  8
0
 10
-35.7586
 20
171.321
 11
-35.64
 21
171.378
  0
LINE
  8
0
 10
-35.64
 20
171.378
 11
-35.5152
 21
171.421
  0
LINE
  8
0
 10
-35.5152
 20
171.421
 11
-35.3861
 21
171.447
  0
LINE
  8
0
 10
-35.3861
 20
171.447
 11
-35.2546
 21
171.458
  0
LINE
  8
0
 10
-35.2546
 20
171.458
 11
-35.1229
 21
171.451
  0
LINE
  8
0
 10
-35.1229
 20
171.451
 11
-34.993
 21
171.428
  0
LINE
  8
0
 10
-34.993
 20
171.428
 11
-34.8671
 21
171.389
  0
LINE
  8
0
 10
-34.8671
 20
171.389
 11
-34.747
 21
171.335
  0
LINE
  8
0
 10
-34.747
 20
171.335
 11
-34.6347
 21
171.266
  0
LINE
  8
0
 10
-34.6347
 20
171.266
 11
-34.5319
 21
171.183
  0
LINE
  8
0
 10
-34.5319
 20
171.183
 11
-34.4403
 21
171.088
  0
LINE
  8
0
 10
-34.4403
 20
171.088
 11
-34.3613
 21
170.983
  0
LINE
  8
0
 10
-34.3613
 20
170.983
 11
-34.2962
 21
170.868
  0
LINE
  8
0
 10
-34.2962
 20
170.868
 11
-34.2459
 21
170.746
  0
LINE
  8
0
 10
-34.2459
 20
170.746
 11
-34.2114
 21
170.619
  0
LINE
  8
0
 10
-34.2114
 20
170.619
 11
-34.193
 21
170.488
  0
LINE
  8
0
 10
-34.193
 20
170.488
 11
-34.1912
 21
170.356
  0
LINE
  8
0
 10
-34.1912
 20
170.356
 11
-34.2059
 21
170.225
  0
LINE
  8
0
 10
-34.2059
 20
170.225
 11
-34.2369
 21
170.097
  0
LINE
  8
0
 10
-34.2369
 20
170.097
 11
-34.2837
 21
169.974
  0
LINE
  8
0
 10
-34.2837
 20
169.974
 11
-34.3456
 21
169.857
  0
LINE
  8
0
 10
-34.3456
 20
169.857
 11
-34.4216
 21
169.75
  0
LINE
  8
0
 10
-34.4216
 20
169.75
 11
-34.5105
 21
169.652
  0
LINE
  8
0
 10
-34.5105
 20
169.652
 11
-34.611
 21
169.567
  0
LINE
  8
0
 10
-34.611
 20
169.567
 11
-34.7213
 21
169.495
  0
LINE
  8
0
 10
-34.7213
 20
169.495
 11
-34.8398
 21
169.437
  0
LINE
  8
0
 10
-34.8398
 20
169.437
 11
-34.9646
 21
169.394
  0
LINE
  8
0
 10
-34.9646
 20
169.394
 11
-35.0938
 21
169.368
  0
LINE
  8
0
 10
-35.0938
 20
169.368
 11
-35.2253
 21
169.358
  0
LINE
  8
0
 10
-35.2253
 20
169.358
 11
-35.357
 21
169.364
  0
LINE
  8
0
 10
-53.3117
 20
156.89
 11
-53.1476
 21
157.822
  0
LINE
  8
0
 10
-53.1476
 20
157.822
 11
-53.948
 21
157.963
  0
LINE
  8
0
 10
-53.948
 20
157.963
 11
-53.3402
 21
161.41
  0
LINE
  8
0
 10
-53.3402
 20
161.41
 11
-52.5398
 21
161.268
  0
LINE
  8
0
 10
-52.5398
 20
161.268
 11
-51.67
 21
166.201
  0
LINE
  8
0
 10
-51.67
 20
166.201
 11
-52.4704
 21
166.342
  0
LINE
  8
0
 10
-52.4704
 20
166.342
 11
-51.8626
 21
169.789
  0
LINE
  8
0
 10
-51.8626
 20
169.789
 11
-51.0622
 21
169.648
  0
LINE
  8
0
 10
-51.0622
 20
169.648
 11
-50.898
 21
170.579
  0
LINE
  8
0
 10
-50.898
 20
170.579
 11
-37.2092
 21
168.166
  0
LINE
  8
0
 10
-37.2092
 20
168.166
 11
-37.3734
 21
167.234
  0
LINE
  8
0
 10
-37.3734
 20
167.234
 11
-36.5729
 21
167.093
  0
LINE
  8
0
 10
-36.5729
 20
167.093
 11
-37.1807
 21
163.646
  0
LINE
  8
0
 10
-37.1807
 20
163.646
 11
-37.9812
 21
163.788
  0
LINE
  8
0
 10
-37.9812
 20
163.788
 11
-38.8509
 21
158.855
  0
LINE
  8
0
 10
-38.8509
 20
158.855
 11
-38.0505
 21
158.714
  0
LINE
  8
0
 10
-38.0505
 20
158.714
 11
-38.6583
 21
155.267
  0
LINE
  8
0
 10
-38.6583
 20
155.267
 11
-39.4587
 21
155.408
  0
LINE
  8
0
 10
-39.4587
 20
155.408
 11
-39.6229
 21
154.477
  0
LINE
  8
0
 10
-39.6229
 20
154.477
 11
-53.3117
 21
156.89
  0
LINE
  8
0
 10
39.4587
 20
155.408
 11
38.6583
 21
155.267
  0
LINE
  8
0
 10
38.6583
 20
155.267
 11
38.0505
 21
158.714
  0
LINE
  8
0
 10
38.0505
 20
158.714
 11
38.8509
 21
158.855
  0
LINE
  8
0
 10
38.8509
 20
158.855
 11
37.9812
 21
163.788
  0
LINE
  8
0
 10
37.9812
 20
163.788
 11
37.1807
 21
163.646
  0
LINE
  8
0
 10
37.1807
 20
163.646
 11
36.5729
 21
167.093
  0
LINE
  8
0
 10
36.5729
 20
167.093
 11
37.3734
 21
167.234
  0
LINE
  8
0
 10
37.3734
 20
167.234
 11
37.2092
 21
168.166
  0
LINE
  8
0
 10
37.2092
 20
168.166
 11
50.898
 21
170.579
  0
LINE
  8
0
 10
50.898
 20
170.579
 11
51.0622
 21
169.648
  0
LINE
  8
0
 10
51.0622
 20
169.648
 11
51.8626
 21
169.789
  0
LINE
  8
0
 10
51.8626
 20
169.789
 11
52.4704
 21
166.342
  0
LINE
  8
0
 10
52.4704
 20
166.342
 11
51.67
 21
166.201
  0
LINE
  8
0
 10
51.67
 20
166.201
 11
52.5398
 21
161.268
  0
LINE
  8
0
 10
52.5398
 20
161.268
 11
53.3402
 21
161.41
  0
LINE
  8
0
 10
53.3402
 20
161.41
 11
53.948
 21
157.963
  0
LINE
  8
0
 10
53.948
 20
157.963
 11
53.1476
 21
157.822
  0
LINE
  8
0
 10
53.1476
 20
157.822
 11
53.3117
 21
156.89
  0
LINE
  8
0
 10
53.3117
 20
156.89
 11
39.6229
 21
154.477
  0
LINE
  8
0
 10
39.6229
 20
154.477
 11
39.4587
 21
155.408
  0
LINE
  8
0
 10
-35.4686
 20
148.667
 11
-35.3044
 21
149.598
  0
LINE
  8
0
 10
-35.3044
 20
149.598
 11
-36.1049
 21
149.739
  0
LINE
  8
0
 10
-36.1049
 20
149.739
 11
-35.4971
 21
153.186
  0
LINE
  8
0
 10
-35.4971
 20
153.186
 11
-34.6967
 21
153.045
  0
LINE
  8
0
 10
-34.6967
 20
153.045
 11
-33.8269
 21
157.978
  0
LINE
  8
0
 10
-33.8269
 20
157.978
 11
-34.6273
 21
158.119
  0
LINE
  8
0
 10
-34.6273
 20
158.119
 11
-34.0195
 21
161.566
  0
LINE
  8
0
 10
-34.0195
 20
161.566
 11
-33.2191
 21
161.425
  0
LINE
  8
0
 10
-33.2191
 20
161.425
 11
-33.0549
 21
162.356
  0
LINE
  8
0
 10
-33.0549
 20
162.356
 11
-19.3661
 21
159.942
  0
LINE
  8
0
 10
-19.3661
 20
159.942
 11
-19.5303
 21
159.011
  0
LINE
  8
0
 10
-19.5303
 20
159.011
 11
-18.7298
 21
158.87
  0
LINE
  8
0
 10
-18.7298
 20
158.87
 11
-19.3376
 21
155.423
  0
LINE
  8
0
 10
-19.3376
 20
155.423
 11
-20.138
 21
155.564
  0
LINE
  8
0
 10
-20.138
 20
155.564
 11
-21.0078
 21
150.631
  0
LINE
  8
0
 10
-21.0078
 20
150.631
 11
-20.2074
 21
150.49
  0
LINE
  8
0
 10
-20.2074
 20
150.49
 11
-20.8152
 21
147.043
  0
LINE
  8
0
 10
-20.8152
 20
147.043
 11
-21.6156
 21
147.184
  0
LINE
  8
0
 10
-21.6156
 20
147.184
 11
-21.7798
 21
146.253
  0
LINE
  8
0
 10
-21.7798
 20
146.253
 11
-35.4686
 21
148.667
  0
LINE
  8
0
 10
21.6156
 20
147.184
 11
20.8152
 21
147.043
  0
LINE
  8
0
 10
20.8152
 20
147.043
 11
20.2074
 21
150.49
  0
LINE
  8
0
 10
20.2074
 20
150.49
 11
21.0078
 21
150.631
  0
LINE
  8
0
 10
21.0078
 20
150.631
 11
20.138
 21
155.564
  0
LINE
  8
0
 10
20.138
 20
155.564
 11
19.3376
 21
155.423
  0
LINE
  8
0
 10
19.3376
 20
155.423
 11
18.7298
 21
158.87
  0
LINE
  8
0
 10
18.7298
 20
158.87
 11
19.5303
 21
159.011
  0
LINE
  8
0
 10
19.5303
 20
159.011
 11
19.3661
 21
159.942
  0
LINE
  8
0
 10
19.3661
 20
159.942
 11
33.0549
 21
162.356
  0
LINE
  8
0
 10
33.0549
 20
162.356
 11
33.2191
 21
161.425
  0
LINE
  8
0
 10
33.2191
 20
161.425
 11
34.0195
 21
161.566
  0
LINE
  8
0
 10
34.0195
 20
161.566
 11
34.6273
 21
158.119
  0
LINE
  8
0
 10
34.6273
 20
158.119
 11
33.8269
 21
157.978
  0
LINE
  8
0
 10
33.8269
 20
157.978
 11
34.6967
 21
153.045
  0
LINE
  8
0
 10
34.6967
 20
153.045
 11
35.4971
 21
153.186
  0
LINE
  8
0
 10
35.4971
 20
153.186
 11
36.1049
 21
149.739
  0
LINE
  8
0
 10
36.1049
 20
149.739
 11
35.3044
 21
149.598
  0
LINE
  8
0
 10
35.3044
 20
149.598
 11
35.4686
 21
148.667
  0
LINE
  8
0
 10
35.4686
 20
148.667
 11
21.7798
 21
146.253
  0
LINE
  8
0
 10
21.7798
 20
146.253
 11
21.6156
 21
147.184
  0
LINE
  8
0
 10
-74.2805
 20
147.387
 11
-74.1163
 21
148.318
  0
LINE
  8
0
 10
-74.1163
 20
148.318
 11
-74.9168
 21
148.459
  0
LINE
  8
0
 10
-74.9168
 20
148.459
 11
-74.309
 21
151.906
  0
LINE
  8
0
 10
-74.309
 20
151.906
 11
-73.5085
 21
151.765
  0
LINE
  8
0
 10
-73.5085
 20
151.765
 11
-72.6387
 21
156.698
  0
LINE
  8
0
 10
-72.6387
 20
156.698
 11
-73.4392
 21
156.839
  0
LINE
  8
0
 10
-73.4392
 20
156.839
 11
-72.8314
 21
160.286
  0
LINE
  8
0
 10
-72.8314
 20
160.286
 11
-72.031
 21
160.145
  0
LINE
  8
0
 10
-72.031
 20
160.145
 11
-71.8668
 21
161.076
  0
LINE
  8
0
 10
-71.8668
 20
161.076
 11
-58.178
 21
158.662
  0
LINE
  8
0
 10
-58.178
 20
158.662
 11
-58.3421
 21
157.731
  0
LINE
  8
0
 10
-58.3421
 20
157.731
 11
-57.5417
 21
157.59
  0
LINE
  8
0
 10
-57.5417
 20
157.59
 11
-58.1495
 21
154.143
  0
LINE
  8
0
 10
-58.1495
 20
154.143
 11
-58.9499
 21
154.284
  0
LINE
  8
0
 10
-58.9499
 20
154.284
 11
-59.8197
 21
149.352
  0
LINE
  8
0
 10
-59.8197
 20
149.352
 11
-59.0193
 21
149.21
  0
LINE
  8
0
 10
-59.0193
 20
149.21
 11
-59.6271
 21
145.763
  0
LINE
  8
0
 10
-59.6271
 20
145.763
 11
-60.4275
 21
145.905
  0
LINE
  8
0
 10
-60.4275
 20
145.905
 11
-60.5917
 21
144.974
  0
LINE
  8
0
 10
-60.5917
 20
144.974
 11
-74.2805
 21
147.387
  0
LINE
  8
0
 10
60.4275
 20
145.905
 11
59.6271
 21
145.763
  0
LINE
  8
0
 10
59.6271
 20
145.763
 11
59.0193
 21
149.21
  0
LINE
  8
0
 10
59.0193
 20
149.21
 11
59.8197
 21
149.352
  0
LINE
  8
0
 10
59.8197
 20
149.352
 11
58.9499
 21
154.284
  0
LINE
  8
0
 10
58.9499
 20
154.284
 11
58.1495
 21
154.143
  0
LINE
  8
0
 10
58.1495
 20
154.143
 11
57.5417
 21
157.59
  0
LINE
  8
0
 10
57.5417
 20
157.59
 11
58.3421
 21
157.731
  0
LINE
  8
0
 10
58.3421
 20
157.731
 11
58.178
 21
158.662
  0
LINE
  8
0
 10
58.178
 20
158.662
 11
71.8668
 21
161.076
  0
LINE
  8
0
 10
71.8668
 20
161.076
 11
72.031
 21
160.145
  0
LINE
  8
0
 10
72.031
 20
160.145
 11
72.8314
 21
160.286
  0
LINE
  8
0
 10
72.8314
 20
160.286
 11
73.4392
 21
156.839
  0
LINE
  8
0
 10
73.4392
 20
156.839
 11
72.6387
 21
156.698
  0
LINE
  8
0
 10
72.6387
 20
156.698
 11
73.5085
 21
151.765
  0
LINE
  8
0
 10
73.5085
 20
151.765
 11
74.309
 21
151.906
  0
LINE
  8
0
 10
74.309
 20
151.906
 11
74.9168
 21
148.459
  0
LINE
  8
0
 10
74.9168
 20
148.459
 11
74.1163
 21
148.318
  0
LINE
  8
0
 10
74.1163
 20
148.318
 11
74.2805
 21
147.387
  0
LINE
  8
0
 10
74.2805
 20
147.387
 11
60.5917
 21
144.974
  0
LINE
  8
0
 10
60.5917
 20
144.974
 11
60.4275
 21
145.905
  0
LINE
  8
0
 10
-93.8601
 20
145.763
 11
-93.6959
 21
146.694
  0
LINE
  8
0
 10
-93.6959
 20
146.694
 11
-94.4964
 21
146.835
  0
LINE
  8
0
 10
-94.4964
 20
146.835
 11
-93.8886
 21
150.282
  0
LINE
  8
0
 10
-93.8886
 20
150.282
 11
-93.0881
 21
150.141
  0
LINE
  8
0
 10
-93.0881
 20
150.141
 11
-92.2183
 21
155.073
  0
LINE
  8
0
 10
-92.2183
 20
155.073
 11
-93.0188
 21
155.214
  0
LINE
  8
0
 10
-93.0188
 20
155.214
 11
-92.411
 21
158.661
  0
LINE
  8
0
 10
-92.411
 20
158.661
 11
-91.6105
 21
158.52
  0
LINE
  8
0
 10
-91.6105
 20
158.52
 11
-91.4464
 21
159.451
  0
LINE
  8
0
 10
-91.4464
 20
159.451
 11
-77.7576
 21
157.038
  0
LINE
  8
0
 10
-77.7576
 20
157.038
 11
-77.9217
 21
156.107
  0
LINE
  8
0
 10
-77.9217
 20
156.107
 11
-77.1213
 21
155.965
  0
LINE
  8
0
 10
-77.1213
 20
155.965
 11
-77.7291
 21
152.518
  0
LINE
  8
0
 10
-77.7291
 20
152.518
 11
-78.5295
 21
152.66
  0
LINE
  8
0
 10
-78.5295
 20
152.66
 11
-79.3993
 21
147.727
  0
LINE
  8
0
 10
-79.3993
 20
147.727
 11
-78.5989
 21
147.586
  0
LINE
  8
0
 10
-78.5989
 20
147.586
 11
-79.2066
 21
144.139
  0
LINE
  8
0
 10
-79.2066
 20
144.139
 11
-80.0071
 21
144.28
  0
LINE
  8
0
 10
-80.0071
 20
144.28
 11
-80.1713
 21
143.349
  0
LINE
  8
0
 10
-80.1713
 20
143.349
 11
-93.8601
 21
145.763
  0
LINE
  8
0
 10
80.0071
 20
144.28
 11
79.2066
 21
144.139
  0
LINE
  8
0
 10
79.2066
 20
144.139
 11
78.5989
 21
147.586
  0
LINE
  8
0
 10
78.5989
 20
147.586
 11
79.3993
 21
147.727
  0
LINE
  8
0
 10
79.3993
 20
147.727
 11
78.5295
 21
152.66
  0
LINE
  8
0
 10
78.5295
 20
152.66
 11
77.7291
 21
152.518
  0
LINE
  8
0
 10
77.7291
 20
152.518
 11
77.1213
 21
155.965
  0
LINE
  8
0
 10
77.1213
 20
155.965
 11
77.9217
 21
156.107
  0
LINE
  8
0
 10
77.9217
 20
156.107
 11
77.7576
 21
157.038
  0
LINE
  8
0
 10
77.7576
 20
157.038
 11
91.4464
 21
159.451
  0
LINE
  8
0
 10
91.4464
 20
159.451
 11
91.6105
 21
158.52
  0
LINE
  8
0
 10
91.6105
 20
158.52
 11
92.411
 21
158.661
  0
LINE
  8
0
 10
92.411
 20
158.661
 11
93.0188
 21
155.214
  0
LINE
  8
0
 10
93.0188
 20
155.214
 11
92.2183
 21
155.073
  0
LINE
  8
0
 10
92.2183
 20
155.073
 11
93.0881
 21
150.141
  0
LINE
  8
0
 10
93.0881
 20
150.141
 11
93.8886
 21
150.282
  0
LINE
  8
0
 10
93.8886
 20
150.282
 11
94.4964
 21
146.835
  0
LINE
  8
0
 10
94.4964
 20
146.835
 11
93.6959
 21
146.694
  0
LINE
  8
0
 10
93.6959
 20
146.694
 11
93.8601
 21
145.763
  0
LINE
  8
0
 10
93.8601
 20
145.763
 11
80.1713
 21
143.349
  0
LINE
  8
0
 10
80.1713
 20
143.349
 11
80.0071
 21
144.28
  0
LINE
  8
0
 10
95.3954
 20
155.63
 11
95.2662
 21
155.657
  0
LINE
  8
0
 10
95.2662
 20
155.657
 11
95.1414
 21
155.699
  0
LINE
  8
0
 10
95.1414
 20
155.699
 11
95.0229
 21
155.757
  0
LINE
  8
0
 10
95.0229
 20
155.757
 11
94.9126
 21
155.829
  0
LINE
  8
0
 10
94.9126
 20
155.829
 11
94.8121
 21
155.915
  0
LINE
  8
0
 10
94.8121
 20
155.915
 11
94.7232
 21
156.012
  0
LINE
  8
0
 10
94.7232
 20
156.012
 11
94.6472
 21
156.12
  0
LINE
  8
0
 10
94.6472
 20
156.12
 11
94.5853
 21
156.236
  0
LINE
  8
0
 10
94.5853
 20
156.236
 11
94.5385
 21
156.36
  0
LINE
  8
0
 10
94.5385
 20
156.36
 11
94.5075
 21
156.488
  0
LINE
  8
0
 10
94.5075
 20
156.488
 11
94.4928
 21
156.619
  0
LINE
  8
0
 10
94.4928
 20
156.619
 11
94.4946
 21
156.751
  0
LINE
  8
0
 10
94.4946
 20
156.751
 11
94.513
 21
156.881
  0
LINE
  8
0
 10
94.513
 20
156.881
 11
94.5475
 21
157.009
  0
LINE
  8
0
 10
94.5475
 20
157.009
 11
94.5978
 21
157.131
  0
LINE
  8
0
 10
94.5978
 20
157.131
 11
94.6629
 21
157.245
  0
LINE
  8
0
 10
94.6629
 20
157.245
 11
94.7419
 21
157.351
  0
LINE
  8
0
 10
94.7419
 20
157.351
 11
94.8335
 21
157.446
  0
LINE
  8
0
 10
94.8335
 20
157.446
 11
94.9363
 21
157.528
  0
LINE
  8
0
 10
94.9363
 20
157.528
 11
95.0486
 21
157.597
  0
LINE
  8
0
 10
95.0486
 20
157.597
 11
95.1687
 21
157.652
  0
LINE
  8
0
 10
95.1687
 20
157.652
 11
95.2946
 21
157.691
  0
LINE
  8
0
 10
95.2946
 20
157.691
 11
95.4245
 21
157.714
  0
LINE
  8
0
 10
95.4245
 20
157.714
 11
95.5562
 21
157.72
  0
LINE
  8
0
 10
95.5562
 20
157.72
 11
95.6877
 21
157.71
  0
LINE
  8
0
 10
95.6877
 20
157.71
 11
95.8168
 21
157.683
  0
LINE
  8
0
 10
95.8168
 20
157.683
 11
95.9417
 21
157.641
  0
LINE
  8
0
 10
95.9417
 20
157.641
 11
96.0602
 21
157.583
  0
LINE
  8
0
 10
96.0602
 20
157.583
 11
96.1705
 21
157.511
  0
LINE
  8
0
 10
96.1705
 20
157.511
 11
96.2709
 21
157.426
  0
LINE
  8
0
 10
96.2709
 20
157.426
 11
96.3598
 21
157.328
  0
LINE
  8
0
 10
96.3598
 20
157.328
 11
96.4358
 21
157.22
  0
LINE
  8
0
 10
96.4358
 20
157.22
 11
96.4977
 21
157.104
  0
LINE
  8
0
 10
96.4977
 20
157.104
 11
96.5446
 21
156.981
  0
LINE
  8
0
 10
96.5446
 20
156.981
 11
96.5756
 21
156.853
  0
LINE
  8
0
 10
96.5756
 20
156.853
 11
96.5903
 21
156.722
  0
LINE
  8
0
 10
96.5903
 20
156.722
 11
96.5884
 21
156.59
  0
LINE
  8
0
 10
96.5884
 20
156.59
 11
96.5701
 21
156.459
  0
LINE
  8
0
 10
96.5701
 20
156.459
 11
96.5355
 21
156.332
  0
LINE
  8
0
 10
96.5355
 20
156.332
 11
96.4853
 21
156.21
  0
LINE
  8
0
 10
96.4853
 20
156.21
 11
96.4201
 21
156.095
  0
LINE
  8
0
 10
96.4201
 20
156.095
 11
96.3411
 21
155.99
  0
LINE
  8
0
 10
96.3411
 20
155.99
 11
96.2495
 21
155.895
  0
LINE
  8
0
 10
96.2495
 20
155.895
 11
96.1468
 21
155.812
  0
LINE
  8
0
 10
96.1468
 20
155.812
 11
96.0345
 21
155.743
  0
LINE
  8
0
 10
96.0345
 20
155.743
 11
95.9144
 21
155.689
  0
LINE
  8
0
 10
95.9144
 20
155.689
 11
95.7884
 21
155.65
  0
LINE
  8
0
 10
95.7884
 20
155.65
 11
95.6586
 21
155.627
  0
LINE
  8
0
 10
95.6586
 20
155.627
 11
95.5269
 21
155.62
  0
LINE
  8
0
 10
95.5269
 20
155.62
 11
95.3954
 21
155.63
  0
LINE
  8
0
 10
-95.6586
 20
155.627
 11
-95.7884
 21
155.65
  0
LINE
  8
0
 10
-95.7884
 20
155.65
 11
-95.9144
 21
155.689
  0
LINE
  8
0
 10
-95.9144
 20
155.689
 11
-96.0345
 21
155.743
  0
LINE
  8
0
 10
-96.0345
 20
155.743
 11
-96.1468
 21
155.812
  0
LINE
  8
0
 10
-96.1468
 20
155.812
 11
-96.2495
 21
155.895
  0
LINE
  8
0
 10
-96.2495
 20
155.895
 11
-96.3411
 21
155.99
  0
LINE
  8
0
 10
-96.3411
 20
155.99
 11
-96.4201
 21
156.095
  0
LINE
  8
0
 10
-96.4201
 20
156.095
 11
-96.4853
 21
156.21
  0
LINE
  8
0
 10
-96.4853
 20
156.21
 11
-96.5355
 21
156.332
  0
LINE
  8
0
 10
-96.5355
 20
156.332
 11
-96.5701
 21
156.459
  0
LINE
  8
0
 10
-96.5701
 20
156.459
 11
-96.5884
 21
156.59
  0
LINE
  8
0
 10
-96.5884
 20
156.59
 11
-96.5903
 21
156.722
  0
LINE
  8
0
 10
-96.5903
 20
156.722
 11
-96.5756
 21
156.853
  0
LINE
  8
0
 10
-96.5756
 20
156.853
 11
-96.5446
 21
156.981
  0
LINE
  8
0
 10
-96.5446
 20
156.981
 11
-96.4977
 21
157.104
  0
LINE
  8
0
 10
-96.4977
 20
157.104
 11
-96.4358
 21
157.22
  0
LINE
  8
0
 10
-96.4358
 20
157.22
 11
-96.3598
 21
157.328
  0
LINE
  8
0
 10
-96.3598
 20
157.328
 11
-96.2709
 21
157.426
  0
LINE
  8
0
 10
-96.2709
 20
157.426
 11
-96.1705
 21
157.511
  0
LINE
  8
0
 10
-96.1705
 20
157.511
 11
-96.0602
 21
157.583
  0
LINE
  8
0
 10
-96.0602
 20
157.583
 11
-95.9417
 21
157.641
  0
LINE
  8
0
 10
-95.9417
 20
157.641
 11
-95.8168
 21
157.683
  0
LINE
  8
0
 10
-95.8168
 20
157.683
 11
-95.6877
 21
157.71
  0
LINE
  8
0
 10
-95.6877
 20
157.71
 11
-95.5562
 21
157.72
  0
LINE
  8
0
 10
-95.5562
 20
157.72
 11
-95.4245
 21
157.714
  0
LINE
  8
0
 10
-95.4245
 20
157.714
 11
-95.2946
 21
157.691
  0
LINE
  8
0
 10
-95.2946
 20
157.691
 11
-95.1687
 21
157.652
  0
LINE
  8
0
 10
-95.1687
 20
157.652
 11
-95.0486
 21
157.597
  0
LINE
  8
0
 10
-95.0486
 20
157.597
 11
-94.9363
 21
157.528
  0
LINE
  8
0
 10
-94.9363
 20
157.528
 11
-94.8335
 21
157.446
  0
LINE
  8
0
 10
-94.8335
 20
157.446
 11
-94.7419
 21
157.351
  0
LINE
  8
0
 10
-94.7419
 20
157.351
 11
-94.6629
 21
157.245
  0
LINE
  8
0
 10
-94.6629
 20
157.245
 11
-94.5978
 21
157.131
  0
LINE
  8
0
 10
-94.5978
 20
157.131
 11
-94.5475
 21
157.009
  0
LINE
  8
0
 10
-94.5475
 20
157.009
 11
-94.513
 21
156.881
  0
LINE
  8
0
 10
-94.513
 20
156.881
 11
-94.4946
 21
156.751
  0
LINE
  8
0
 10
-94.4946
 20
156.751
 11
-94.4928
 21
156.619
  0
LINE
  8
0
 10
-94.4928
 20
156.619
 11
-94.5075
 21
156.488
  0
LINE
  8
0
 10
-94.5075
 20
156.488
 11
-94.5385
 21
156.36
  0
LINE
  8
0
 10
-94.5385
 20
156.36
 11
-94.5853
 21
156.236
  0
LINE
  8
0
 10
-94.5853
 20
156.236
 11
-94.6472
 21
156.12
  0
LINE
  8
0
 10
-94.6472
 20
156.12
 11
-94.7232
 21
156.012
  0
LINE
  8
0
 10
-94.7232
 20
156.012
 11
-94.8121
 21
155.915
  0
LINE
  8
0
 10
-94.8121
 20
155.915
 11
-94.9126
 21
155.829
  0
LINE
  8
0
 10
-94.9126
 20
155.829
 11
-95.0229
 21
155.757
  0
LINE
  8
0
 10
-95.0229
 20
155.757
 11
-95.1414
 21
155.699
  0
LINE
  8
0
 10
-95.1414
 20
155.699
 11
-95.2662
 21
155.657
  0
LINE
  8
0
 10
-95.2662
 20
155.657
 11
-95.3954
 21
155.63
  0
LINE
  8
0
 10
-95.3954
 20
155.63
 11
-95.5269
 21
155.62
  0
LINE
  8
0
 10
-95.5269
 20
155.62
 11
-95.6586
 21
155.627
  0
LINE
  8
0
 10
-113.613
 20
143.153
 11
-113.449
 21
144.084
  0
LINE
  8
0
 10
-113.449
 20
144.084
 11
-114.25
 21
144.225
  0
LINE
  8
0
 10
-114.25
 20
144.225
 11
-113.642
 21
147.672
  0
LINE
  8
0
 10
-113.642
 20
147.672
 11
-112.841
 21
147.531
  0
LINE
  8
0
 10
-112.841
 20
147.531
 11
-111.972
 21
152.464
  0
LINE
  8
0
 10
-111.972
 20
152.464
 11
-112.772
 21
152.605
  0
LINE
  8
0
 10
-112.772
 20
152.605
 11
-112.164
 21
156.052
  0
LINE
  8
0
 10
-112.164
 20
156.052
 11
-111.364
 21
155.911
  0
LINE
  8
0
 10
-111.364
 20
155.911
 11
-111.2
 21
156.842
  0
LINE
  8
0
 10
-111.2
 20
156.842
 11
-97.5108
 21
154.428
  0
LINE
  8
0
 10
-97.5108
 20
154.428
 11
-97.675
 21
153.497
  0
LINE
  8
0
 10
-97.675
 20
153.497
 11
-96.8745
 21
153.356
  0
LINE
  8
0
 10
-96.8745
 20
153.356
 11
-97.4823
 21
149.909
  0
LINE
  8
0
 10
-97.4823
 20
149.909
 11
-98.2828
 21
150.05
  0
LINE
  8
0
 10
-98.2828
 20
150.05
 11
-99.1525
 21
145.117
  0
LINE
  8
0
 10
-99.1525
 20
145.117
 11
-98.3521
 21
144.976
  0
LINE
  8
0
 10
-98.3521
 20
144.976
 11
-98.9599
 21
141.529
  0
LINE
  8
0
 10
-98.9599
 20
141.529
 11
-99.7603
 21
141.67
  0
LINE
  8
0
 10
-99.7603
 20
141.67
 11
-99.9245
 21
140.739
  0
LINE
  8
0
 10
-99.9245
 20
140.739
 11
-113.613
 21
143.153
  0
LINE
  8
0
 10
99.7603
 20
141.67
 11
98.9599
 21
141.529
  0
LINE
  8
0
 10
98.9599
 20
141.529
 11
98.3521
 21
144.976
  0
LINE
  8
0
 10
98.3521
 20
144.976
 11
99.1525
 21
145.117
  0
LINE
  8
0
 10
99.1525
 20
145.117
 11
98.2828
 21
150.05
  0
LINE
  8
0
 10
98.2828
 20
150.05
 11
97.4823
 21
149.909
  0
LINE
  8
0
 10
97.4823
 20
149.909
 11
96.8745
 21
153.356
  0
LINE
  8
0
 10
96.8745
 20
153.356
 11
97.675
 21
153.497
  0
LINE
  8
0
 10
97.675
 20
153.497
 11
97.5108
 21
154.428
  0
LINE
  8
0
 10
97.5108
 20
154.428
 11
111.2
 21
156.842
  0
LINE
  8
0
 10
111.2
 20
156.842
 11
111.364
 21
155.911
  0
LINE
  8
0
 10
111.364
 20
155.911
 11
112.164
 21
156.052
  0
LINE
  8
0
 10
112.164
 20
156.052
 11
112.772
 21
152.605
  0
LINE
  8
0
 10
112.772
 20
152.605
 11
111.972
 21
152.464
  0
LINE
  8
0
 10
111.972
 20
152.464
 11
112.841
 21
147.531
  0
LINE
  8
0
 10
112.841
 20
147.531
 11
113.642
 21
147.672
  0
LINE
  8
0
 10
113.642
 20
147.672
 11
114.25
 21
144.225
  0
LINE
  8
0
 10
114.25
 20
144.225
 11
113.449
 21
144.084
  0
LINE
  8
0
 10
113.449
 20
144.084
 11
113.613
 21
143.153
  0
LINE
  8
0
 10
113.613
 20
143.153
 11
99.9245
 21
140.739
  0
LINE
  8
0
 10
99.9245
 20
140.739
 11
99.7603
 21
141.67
  0
LINE
  8
0
 10
-56.611
 20
138.179
 11
-56.4469
 21
139.11
  0
LINE
  8
0
 10
-56.4469
 20
139.11
 11
-57.2473
 21
139.251
  0
LINE
  8
0
 10
-57.2473
 20
139.251
 11
-56.6395
 21
142.698
  0
LINE
  8
0
 10
-56.6395
 20
142.698
 11
-55.8391
 21
142.557
  0
LINE
  8
0
 10
-55.8391
 20
142.557
 11
-54.9693
 21
147.49
  0
LINE
  8
0
 10
-54.9693
 20
147.49
 11
-55.7697
 21
147.631
  0
LINE
  8
0
 10
-55.7697
 20
147.631
 11
-55.162
 21
151.078
  0
LINE
  8
0
 10
-55.162
 20
151.078
 11
-54.3615
 21
150.937
  0
LINE
  8
0
 10
-54.3615
 20
150.937
 11
-54.1973
 21
151.868
  0
LINE
  8
0
 10
-54.1973
 20
151.868
 11
-40.5085
 21
149.454
  0
LINE
  8
0
 10
-40.5085
 20
149.454
 11
-40.6727
 21
148.523
  0
LINE
  8
0
 10
-40.6727
 20
148.523
 11
-39.8723
 21
148.382
  0
LINE
  8
0
 10
-39.8723
 20
148.382
 11
-40.48
 21
144.935
  0
LINE
  8
0
 10
-40.48
 20
144.935
 11
-41.2805
 21
145.076
  0
LINE
  8
0
 10
-41.2805
 20
145.076
 11
-42.1503
 21
140.143
  0
LINE
  8
0
 10
-42.1503
 20
140.143
 11
-41.3498
 21
140.002
  0
LINE
  8
0
 10
-41.3498
 20
140.002
 11
-41.9576
 21
136.555
  0
LINE
  8
0
 10
-41.9576
 20
136.555
 11
-42.758
 21
136.696
  0
LINE
  8
0
 10
-42.758
 20
136.696
 11
-42.9222
 21
135.765
  0
LINE
  8
0
 10
-42.9222
 20
135.765
 11
-56.611
 21
138.179
  0
LINE
  8
0
 10
42.758
 20
136.696
 11
41.9576
 21
136.555
  0
LINE
  8
0
 10
41.9576
 20
136.555
 11
41.3498
 21
140.002
  0
LINE
  8
0
 10
41.3498
 20
140.002
 11
42.1503
 21
140.143
  0
LINE
  8
0
 10
42.1503
 20
140.143
 11
41.2805
 21
145.076
  0
LINE
  8
0
 10
41.2805
 20
145.076
 11
40.48
 21
144.935
  0
LINE
  8
0
 10
40.48
 20
144.935
 11
39.8723
 21
148.382
  0
LINE
  8
0
 10
39.8723
 20
148.382
 11
40.6727
 21
148.523
  0
LINE
  8
0
 10
40.6727
 20
148.523
 11
40.5085
 21
149.454
  0
LINE
  8
0
 10
40.5085
 20
149.454
 11
54.1973
 21
151.868
  0
LINE
  8
0
 10
54.1973
 20
151.868
 11
54.3615
 21
150.937
  0
LINE
  8
0
 10
54.3615
 20
150.937
 11
55.162
 21
151.078
  0
LINE
  8
0
 10
55.162
 20
151.078
 11
55.7697
 21
147.631
  0
LINE
  8
0
 10
55.7697
 20
147.631
 11
54.9693
 21
147.49
  0
LINE
  8
0
 10
54.9693
 20
147.49
 11
55.8391
 21
142.557
  0
LINE
  8
0
 10
55.8391
 20
142.557
 11
56.6395
 21
142.698
  0
LINE
  8
0
 10
56.6395
 20
142.698
 11
57.2473
 21
139.251
  0
LINE
  8
0
 10
57.2473
 20
139.251
 11
56.4469
 21
139.11
  0
LINE
  8
0
 10
56.4469
 20
139.11
 11
56.611
 21
138.179
  0
LINE
  8
0
 10
56.611
 20
138.179
 11
42.9222
 21
135.765
  0
LINE
  8
0
 10
42.9222
 20
135.765
 11
42.758
 21
136.696
  0
LINE
  8
0
 10
-20.0566
 20
126.656
 11
-19.8924
 21
127.588
  0
LINE
  8
0
 10
-19.8924
 20
127.588
 11
-20.6929
 21
127.729
  0
LINE
  8
0
 10
-20.6929
 20
127.729
 11
-20.0851
 21
131.176
  0
LINE
  8
0
 10
-20.0851
 20
131.176
 11
-19.2846
 21
131.034
  0
LINE
  8
0
 10
-19.2846
 20
131.034
 11
-18.4148
 21
135.967
  0
LINE
  8
0
 10
-18.4148
 20
135.967
 11
-19.2153
 21
136.108
  0
LINE
  8
0
 10
-19.2153
 20
136.108
 11
-18.6075
 21
139.555
  0
LINE
  8
0
 10
-18.6075
 20
139.555
 11
-17.8071
 21
139.414
  0
LINE
  8
0
 10
-17.8071
 20
139.414
 11
-17.6429
 21
140.345
  0
LINE
  8
0
 10
-17.6429
 20
140.345
 11
-3.95406
 21
137.932
  0
LINE
  8
0
 10
-3.95406
 20
137.932
 11
-4.11824
 21
137
  0
LINE
  8
0
 10
-4.11824
 20
137
 11
-3.31779
 21
136.859
  0
LINE
  8
0
 10
-3.31779
 20
136.859
 11
-3.92558
 21
133.412
  0
LINE
  8
0
 10
-3.92558
 20
133.412
 11
-4.72603
 21
133.554
  0
LINE
  8
0
 10
-4.72603
 20
133.554
 11
-5.59581
 21
128.621
  0
LINE
  8
0
 10
-5.59581
 20
128.621
 11
-4.79536
 21
128.48
  0
LINE
  8
0
 10
-4.79536
 20
128.48
 11
-5.40315
 21
125.033
  0
LINE
  8
0
 10
-5.40315
 20
125.033
 11
-6.2036
 21
125.174
  0
LINE
  8
0
 10
-6.2036
 20
125.174
 11
-6.36777
 21
124.243
  0
LINE
  8
0
 10
-6.36777
 20
124.243
 11
-20.0566
 21
126.656
  0
LINE
  8
0
 10
6.2036
 20
125.174
 11
5.40315
 21
125.033
  0
LINE
  8
0
 10
5.40315
 20
125.033
 11
4.79536
 21
128.48
  0
LINE
  8
0
 10
4.79536
 20
128.48
 11
5.59581
 21
128.621
  0
LINE
  8
0
 10
5.59581
 20
128.621
 11
4.72603
 21
133.554
  0
LINE
  8
0
 10
4.72603
 20
133.554
 11
3.92558
 21
133.412
  0
LINE
  8
0
 10
3.92558
 20
133.412
 11
3.31779
 21
136.859
  0
LINE
  8
0
 10
3.31779
 20
136.859
 11
4.11824
 21
137
  0
LINE
  8
0
 10
4.11824
 20
137
 11
3.95406
 21
137.932
  0
LINE
  8
0
 10
3.95406
 20
137.932
 11
17.6429
 21
140.345
  0
LINE
  8
0
 10
17.6429
 20
140.345
 11
17.8071
 21
139.414
  0
LINE
  8
0
 10
17.8071
 20
139.414
 11
18.6075
 21
139.555
  0
LINE
  8
0
 10
18.6075
 20
139.555
 11
19.2153
 21
136.108
  0
LINE
  8
0
 10
19.2153
 20
136.108
 11
18.4148
 21
135.967
  0
LINE
  8
0
 10
18.4148
 20
135.967
 11
19.2846
 21
131.034
  0
LINE
  8
0
 10
19.2846
 20
131.034
 11
20.0851
 21
131.176
  0
LINE
  8
0
 10
20.0851
 20
131.176
 11
20.6929
 21
127.729
  0
LINE
  8
0
 10
20.6929
 20
127.729
 11
19.8924
 21
127.588
  0
LINE
  8
0
 10
19.8924
 20
127.588
 11
20.0566
 21
126.656
  0
LINE
  8
0
 10
20.0566
 20
126.656
 11
6.36777
 21
124.243
  0
LINE
  8
0
 10
6.36777
 20
124.243
 11
6.2036
 21
125.174
  0
LINE
  8
0
 10
-39.5928
 20
125.278
 11
-39.4286
 21
126.209
  0
LINE
  8
0
 10
-39.4286
 20
126.209
 11
-40.229
 21
126.35
  0
LINE
  8
0
 10
-40.229
 20
126.35
 11
-39.6212
 21
129.797
  0
LINE
  8
0
 10
-39.6212
 20
129.797
 11
-38.8208
 21
129.656
  0
LINE
  8
0
 10
-38.8208
 20
129.656
 11
-37.951
 21
134.589
  0
LINE
  8
0
 10
-37.951
 20
134.589
 11
-38.7515
 21
134.73
  0
LINE
  8
0
 10
-38.7515
 20
134.73
 11
-38.1437
 21
138.177
  0
LINE
  8
0
 10
-38.1437
 20
138.177
 11
-37.3432
 21
138.036
  0
LINE
  8
0
 10
-37.3432
 20
138.036
 11
-37.1791
 21
138.967
  0
LINE
  8
0
 10
-37.1791
 20
138.967
 11
-23.4902
 21
136.553
  0
LINE
  8
0
 10
-23.4902
 20
136.553
 11
-23.6544
 21
135.622
  0
LINE
  8
0
 10
-23.6544
 20
135.622
 11
-22.854
 21
135.481
  0
LINE
  8
0
 10
-22.854
 20
135.481
 11
-23.4618
 21
132.034
  0
LINE
  8
0
 10
-23.4618
 20
132.034
 11
-24.2622
 21
132.175
  0
LINE
  8
0
 10
-24.2622
 20
132.175
 11
-25.132
 21
127.242
  0
LINE
  8
0
 10
-25.132
 20
127.242
 11
-24.3315
 21
127.101
  0
LINE
  8
0
 10
-24.3315
 20
127.101
 11
-24.9393
 21
123.654
  0
LINE
  8
0
 10
-24.9393
 20
123.654
 11
-25.7398
 21
123.795
  0
LINE
  8
0
 10
-25.7398
 20
123.795
 11
-25.9039
 21
122.864
  0
LINE
  8
0
 10
-25.9039
 20
122.864
 11
-39.5928
 21
125.278
  0
LINE
  8
0
 10
25.7398
 20
123.795
 11
24.9393
 21
123.654
  0
LINE
  8
0
 10
24.9393
 20
123.654
 11
24.3315
 21
127.101
  0
LINE
  8
0
 10
24.3315
 20
127.101
 11
25.132
 21
127.242
  0
LINE
  8
0
 10
25.132
 20
127.242
 11
24.2622
 21
132.175
  0
LINE
  8
0
 10
24.2622
 20
132.175
 11
23.4618
 21
132.034
  0
LINE
  8
0
 10
23.4618
 20
132.034
 11
22.854
 21
135.481
  0
LINE
  8
0
 10
22.854
 20
135.481
 11
23.6544
 21
135.622
  0
LINE
  8
0
 10
23.6544
 20
135.622
 11
23.4902
 21
136.553
  0
LINE
  8
0
 10
23.4902
 20
136.553
 11
37.1791
 21
138.967
  0
LINE
  8
0
 10
37.1791
 20
138.967
 11
37.3432
 21
138.036
  0
LINE
  8
0
 10
37.3432
 20
138.036
 11
38.1437
 21
138.177
  0
LINE
  8
0
 10
38.1437
 20
138.177
 11
38.7515
 21
134.73
  0
LINE
  8
0
 10
38.7515
 20
134.73
 11
37.951
 21
134.589
  0
LINE
  8
0
 10
37.951
 20
134.589
 11
38.8208
 21
129.656
  0
LINE
  8
0
 10
38.8208
 20
129.656
 11
39.6212
 21
129.797
  0
LINE
  8
0
 10
39.6212
 20
129.797
 11
40.229
 21
126.35
  0
LINE
  8
0
 10
40.229
 20
126.35
 11
39.4286
 21
126.209
  0
LINE
  8
0
 10
39.4286
 20
126.209
 11
39.5928
 21
125.278
  0
LINE
  8
0
 10
39.5928
 20
125.278
 11
25.9039
 21
122.864
  0
LINE
  8
0
 10
25.9039
 20
122.864
 11
25.7398
 21
123.795
  0
LINE
  8
0
 10
43.3421
 20
122.59
 11
43.2129
 21
122.616
  0
LINE
  8
0
 10
43.2129
 20
122.616
 11
43.0881
 21
122.659
  0
LINE
  8
0
 10
43.0881
 20
122.659
 11
42.9696
 21
122.716
  0
LINE
  8
0
 10
42.9696
 20
122.716
 11
42.8592
 21
122.789
  0
LINE
  8
0
 10
42.8592
 20
122.789
 11
42.7588
 21
122.874
  0
LINE
  8
0
 10
42.7588
 20
122.874
 11
42.6699
 21
122.971
  0
LINE
  8
0
 10
42.6699
 20
122.971
 11
42.5939
 21
123.079
  0
LINE
  8
0
 10
42.5939
 20
123.079
 11
42.532
 21
123.196
  0
LINE
  8
0
 10
42.532
 20
123.196
 11
42.4852
 21
123.319
  0
LINE
  8
0
 10
42.4852
 20
123.319
 11
42.4542
 21
123.447
  0
LINE
  8
0
 10
42.4542
 20
123.447
 11
42.4395
 21
123.578
  0
LINE
  8
0
 10
42.4395
 20
123.578
 11
42.4413
 21
123.71
  0
LINE
  8
0
 10
42.4413
 20
123.71
 11
42.4597
 21
123.84
  0
LINE
  8
0
 10
42.4597
 20
123.84
 11
42.4942
 21
123.968
  0
LINE
  8
0
 10
42.4942
 20
123.968
 11
42.5445
 21
124.09
  0
LINE
  8
0
 10
42.5445
 20
124.09
 11
42.6096
 21
124.204
  0
LINE
  8
0
 10
42.6096
 20
124.204
 11
42.6886
 21
124.31
  0
LINE
  8
0
 10
42.6886
 20
124.31
 11
42.7802
 21
124.405
  0
LINE
  8
0
 10
42.7802
 20
124.405
 11
42.883
 21
124.487
  0
LINE
  8
0
 10
42.883
 20
124.487
 11
42.9953
 21
124.556
  0
LINE
  8
0
 10
42.9953
 20
124.556
 11
43.1154
 21
124.611
  0
LINE
  8
0
 10
43.1154
 20
124.611
 11
43.2413
 21
124.65
  0
LINE
  8
0
 10
43.2413
 20
124.65
 11
43.3712
 21
124.673
  0
LINE
  8
0
 10
43.3712
 20
124.673
 11
43.5029
 21
124.679
  0
LINE
  8
0
 10
43.5029
 20
124.679
 11
43.6344
 21
124.669
  0
LINE
  8
0
 10
43.6344
 20
124.669
 11
43.7635
 21
124.643
  0
LINE
  8
0
 10
43.7635
 20
124.643
 11
43.8883
 21
124.6
  0
LINE
  8
0
 10
43.8883
 20
124.6
 11
44.0069
 21
124.542
  0
LINE
  8
0
 10
44.0069
 20
124.542
 11
44.1172
 21
124.47
  0
LINE
  8
0
 10
44.1172
 20
124.47
 11
44.2176
 21
124.385
  0
LINE
  8
0
 10
44.2176
 20
124.385
 11
44.3065
 21
124.287
  0
LINE
  8
0
 10
44.3065
 20
124.287
 11
44.3825
 21
124.179
  0
LINE
  8
0
 10
44.3825
 20
124.179
 11
44.4444
 21
124.063
  0
LINE
  8
0
 10
44.4444
 20
124.063
 11
44.4913
 21
123.94
  0
LINE
  8
0
 10
44.4913
 20
123.94
 11
44.5223
 21
123.812
  0
LINE
  8
0
 10
44.5223
 20
123.812
 11
44.537
 21
123.681
  0
LINE
  8
0
 10
44.537
 20
123.681
 11
44.5351
 21
123.549
  0
LINE
  8
0
 10
44.5351
 20
123.549
 11
44.5168
 21
123.418
  0
LINE
  8
0
 10
44.5168
 20
123.418
 11
44.4822
 21
123.291
  0
LINE
  8
0
 10
44.4822
 20
123.291
 11
44.4319
 21
123.169
  0
LINE
  8
0
 10
44.4319
 20
123.169
 11
44.3668
 21
123.054
  0
LINE
  8
0
 10
44.3668
 20
123.054
 11
44.2878
 21
122.949
  0
LINE
  8
0
 10
44.2878
 20
122.949
 11
44.1962
 21
122.854
  0
LINE
  8
0
 10
44.1962
 20
122.854
 11
44.0935
 21
122.771
  0
LINE
  8
0
 10
44.0935
 20
122.771
 11
43.9812
 21
122.702
  0
LINE
  8
0
 10
43.9812
 20
122.702
 11
43.8611
 21
122.648
  0
LINE
  8
0
 10
43.8611
 20
122.648
 11
43.7351
 21
122.609
  0
LINE
  8
0
 10
43.7351
 20
122.609
 11
43.6053
 21
122.586
  0
LINE
  8
0
 10
43.6053
 20
122.586
 11
43.4736
 21
122.579
  0
LINE
  8
0
 10
43.4736
 20
122.579
 11
43.3421
 21
122.59
  0
LINE
  8
0
 10
-43.6053
 20
122.586
 11
-43.7351
 21
122.609
  0
LINE
  8
0
 10
-43.7351
 20
122.609
 11
-43.8611
 21
122.648
  0
LINE
  8
0
 10
-43.8611
 20
122.648
 11
-43.9812
 21
122.702
  0
LINE
  8
0
 10
-43.9812
 20
122.702
 11
-44.0935
 21
122.771
  0
LINE
  8
0
 10
-44.0935
 20
122.771
 11
-44.1962
 21
122.854
  0
LINE
  8
0
 10
-44.1962
 20
122.854
 11
-44.2878
 21
122.949
  0
LINE
  8
0
 10
-44.2878
 20
122.949
 11
-44.3668
 21
123.054
  0
LINE
  8
0
 10
-44.3668
 20
123.054
 11
-44.4319
 21
123.169
  0
LINE
  8
0
 10
-44.4319
 20
123.169
 11
-44.4822
 21
123.291
  0
LINE
  8
0
 10
-44.4822
 20
123.291
 11
-44.5168
 21
123.418
  0
LINE
  8
0
 10
-44.5168
 20
123.418
 11
-44.5351
 21
123.549
  0
LINE
  8
0
 10
-44.5351
 20
123.549
 11
-44.537
 21
123.681
  0
LINE
  8
0
 10
-44.537
 20
123.681
 11
-44.5223
 21
123.812
  0
LINE
  8
0
 10
-44.5223
 20
123.812
 11
-44.4913
 21
123.94
  0
LINE
  8
0
 10
-44.4913
 20
123.94
 11
-44.4444
 21
124.063
  0
LINE
  8
0
 10
-44.4444
 20
124.063
 11
-44.3825
 21
124.179
  0
LINE
  8
0
 10
-44.3825
 20
124.179
 11
-44.3065
 21
124.287
  0
LINE
  8
0
 10
-44.3065
 20
124.287
 11
-44.2176
 21
124.385
  0
LINE
  8
0
 10
-44.2176
 20
124.385
 11
-44.1172
 21
124.47
  0
LINE
  8
0
 10
-44.1172
 20
124.47
 11
-44.0069
 21
124.542
  0
LINE
  8
0
 10
-44.0069
 20
124.542
 11
-43.8883
 21
124.6
  0
LINE
  8
0
 10
-43.8883
 20
124.6
 11
-43.7635
 21
124.643
  0
LINE
  8
0
 10
-43.7635
 20
124.643
 11
-43.6344
 21
124.669
  0
LINE
  8
0
 10
-43.6344
 20
124.669
 11
-43.5029
 21
124.679
  0
LINE
  8
0
 10
-43.5029
 20
124.679
 11
-43.3712
 21
124.673
  0
LINE
  8
0
 10
-43.3712
 20
124.673
 11
-43.2413
 21
124.65
  0
LINE
  8
0
 10
-43.2413
 20
124.65
 11
-43.1154
 21
124.611
  0
LINE
  8
0
 10
-43.1154
 20
124.611
 11
-42.9953
 21
124.556
  0
LINE
  8
0
 10
-42.9953
 20
124.556
 11
-42.883
 21
124.487
  0
LINE
  8
0
 10
-42.883
 20
124.487
 11
-42.7802
 21
124.405
  0
LINE
  8
0
 10
-42.7802
 20
124.405
 11
-42.6886
 21
124.31
  0
LINE
  8
0
 10
-42.6886
 20
124.31
 11
-42.6096
 21
124.204
  0
LINE
  8
0
 10
-42.6096
 20
124.204
 11
-42.5445
 21
124.09
  0
LINE
  8
0
 10
-42.5445
 20
124.09
 11
-42.4942
 21
123.968
  0
LINE
  8
0
 10
-42.4942
 20
123.968
 11
-42.4597
 21
123.84
  0
LINE
  8
0
 10
-42.4597
 20
123.84
 11
-42.4413
 21
123.71
  0
LINE
  8
0
 10
-42.4413
 20
123.71
 11
-42.4395
 21
123.578
  0
LINE
  8
0
 10
-42.4395
 20
123.578
 11
-42.4542
 21
123.447
  0
LINE
  8
0
 10
-42.4542
 20
123.447
 11
-42.4852
 21
123.319
  0
LINE
  8
0
 10
-42.4852
 20
123.319
 11
-42.532
 21
123.196
  0
LINE
  8
0
 10
-42.532
 20
123.196
 11
-42.5939
 21
123.079
  0
LINE
  8
0
 10
-42.5939
 20
123.079
 11
-42.6699
 21
122.971
  0
LINE
  8
0
 10
-42.6699
 20
122.971
 11
-42.7588
 21
122.874
  0
LINE
  8
0
 10
-42.7588
 20
122.874
 11
-42.8592
 21
122.789
  0
LINE
  8
0
 10
-42.8592
 20
122.789
 11
-42.9696
 21
122.716
  0
LINE
  8
0
 10
-42.9696
 20
122.716
 11
-43.0881
 21
122.659
  0
LINE
  8
0
 10
-43.0881
 20
122.659
 11
-43.2129
 21
122.616
  0
LINE
  8
0
 10
-43.2129
 20
122.616
 11
-43.3421
 21
122.59
  0
LINE
  8
0
 10
-43.3421
 20
122.59
 11
-43.4736
 21
122.579
  0
LINE
  8
0
 10
-43.4736
 20
122.579
 11
-43.6053
 21
122.586
  0
LINE
  8
0
 10
43.824
 20
5.06239
 11
44.1331
 21
5.11691
  0
LINE
  8
0
 10
44.1331
 20
5.11691
 11
44.4331
 21
5.20976
  0
LINE
  8
0
 10
44.4331
 20
5.20976
 11
117.455
 21
28.7475
  0
LINE
  8
0
 10
117.455
 20
28.7475
 11
117.741
 21
28.8772
  0
LINE
  8
0
 10
117.741
 20
28.8772
 11
118.008
 21
29.0417
  0
LINE
  8
0
 10
118.008
 20
29.0417
 11
118.253
 21
29.2384
  0
LINE
  8
0
 10
118.253
 20
29.2384
 11
118.471
 21
29.4643
  0
LINE
  8
0
 10
118.471
 20
29.4643
 11
118.659
 21
29.7157
  0
LINE
  8
0
 10
118.659
 20
29.7157
 11
118.814
 21
29.9886
  0
LINE
  8
0
 10
118.814
 20
29.9886
 11
118.934
 21
30.2789
  0
LINE
  8
0
 10
118.934
 20
30.2789
 11
119.016
 21
30.5818
  0
LINE
  8
0
 10
119.016
 20
30.5818
 11
119.06
 21
30.8927
  0
LINE
  8
0
 10
119.06
 20
30.8927
 11
119.064
 21
31.2067
  0
LINE
  8
0
 10
119.064
 20
31.2067
 11
119.029
 21
31.5187
  0
LINE
  8
0
 10
119.029
 20
31.5187
 11
105.485
 21
108.334
  0
LINE
  8
0
 10
105.485
 20
108.334
 11
105.411
 21
108.639
  0
LINE
  8
0
 10
105.411
 20
108.639
 11
105.3
 21
108.932
  0
LINE
  8
0
 10
105.3
 20
108.932
 11
105.152
 21
109.21
  0
LINE
  8
0
 10
105.152
 20
109.21
 11
104.971
 21
109.466
  0
LINE
  8
0
 10
104.971
 20
109.466
 11
104.759
 21
109.698
  0
LINE
  8
0
 10
104.759
 20
109.698
 11
104.52
 21
109.901
  0
LINE
  8
0
 10
104.52
 20
109.901
 11
104.258
 21
110.073
  0
LINE
  8
0
 10
104.258
 20
110.073
 11
103.975
 21
110.211
  0
LINE
  8
0
 10
103.975
 20
110.211
 11
103.678
 21
110.312
  0
LINE
  8
0
 10
103.678
 20
110.312
 11
103.371
 21
110.375
  0
LINE
  8
0
 10
103.371
 20
110.375
 11
103.058
 21
110.399
  0
LINE
  8
0
 10
103.058
 20
110.399
 11
-103.058
 21
110.399
  0
LINE
  8
0
 10
-103.058
 20
110.399
 11
-103.371
 21
110.375
  0
LINE
  8
0
 10
-103.371
 20
110.375
 11
-103.678
 21
110.312
  0
LINE
  8
0
 10
-103.678
 20
110.312
 11
-103.975
 21
110.211
  0
LINE
  8
0
 10
-103.975
 20
110.211
 11
-104.258
 21
110.073
  0
LINE
  8
0
 10
-104.258
 20
110.073
 11
-104.52
 21
109.901
  0
LINE
  8
0
 10
-104.52
 20
109.901
 11
-104.759
 21
109.698
  0
LINE
  8
0
 10
-104.759
 20
109.698
 11
-104.971
 21
109.466
  0
LINE
  8
0
 10
-104.971
 20
109.466
 11
-105.152
 21
109.21
  0
LINE
  8
0
 10
-105.152
 20
109.21
 11
-105.3
 21
108.932
  0
LINE
  8
0
 10
-105.3
 20
108.932
 11
-105.411
 21
108.639
  0
LINE
  8
0
 10
-105.411
 20
108.639
 11
-105.485
 21
108.334
  0
LINE
  8
0
 10
-105.485
 20
108.334
 11
-119.029
 21
31.5187
  0
LINE
  8
0
 10
-119.029
 20
31.5187
 11
-119.064
 21
31.2067
  0
LINE
  8
0
 10
-119.064
 20
31.2067
 11
-119.06
 21
30.8927
  0
LINE
  8
0
 10
-119.06
 20
30.8927
 11
-119.016
 21
30.5818
  0
LINE
  8
0
 10
-119.016
 20
30.5818
 11
-118.934
 21
30.2789
  0
LINE
  8
0
 10
-118.934
 20
30.2789
 11
-118.814
 21
29.9886
  0
LINE
  8
0
 10
-118.814
 20
29.9886
 11
-118.659
 21
29.7157
  0
LINE
  8
0
 10
-118.659
 20
29.7157
 11
-118.471
 21
29.4643
  0
LINE
  8
0
 10
-118.471
 20
29.4643
 11
-118.253
 21
29.2384
  0
LINE
  8
0
 10
-118.253
 20
29.2384
 11
-118.008
 21
29.0417
  0
LINE
  8
0
 10
-118.008
 20
29.0417
 11
-117.741
 21
28.8772
  0
LINE
  8
0
 10
-117.741
 20
28.8772
 11
-117.455
 21
28.7475
  0
LINE
  8
0
 10
-117.455
 20
28.7475
 11
-44.4331
 21
5.20976
  0
LINE
  8
0
 10
-44.4331
 20
5.20976
 11
-44.1331
 21
5.11691
  0
LINE
  8
0
 10
-44.1331
 20
5.11691
 11
-43.824
 21
5.06239
  0
LINE
  8
0
 10
-43.824
 20
5.06239
 11
-43.5104
 21
5.04707
  0
LINE
  8
0
 10
-43.5104
 20
5.04707
 11
43.5104
 21
5.04707
  0
LINE
  8
0
 10
43.5104
 20
5.04707
 11
43.824
 21
5.06239
  0
LINE
  8
0
 10
-7.66592
 20
106.452
 11
-7.79675
 21
106.469
  0
LINE
  8
0
 10
-7.79675
 20
106.469
 11
-7.92447
 21
106.501
  0
LINE
  8
0
 10
-7.92447
 20
106.501
 11
-8.04707
 21
106.55
  0
LINE
  8
0
 10
-8.04707
 20
106.55
 11
-8.16261
 21
106.613
  0
LINE
  8
0
 10
-8.16261
 20
106.613
 11
-8.26929
 21
106.691
  0
LINE
  8
0
 10
-8.26929
 20
106.691
 11
-8.36542
 21
106.781
  0
LINE
  8
0
 10
-8.36542
 20
106.781
 11
-8.44946
 21
106.883
  0
LINE
  8
0
 10
-8.44946
 20
106.883
 11
-8.52013
 21
106.994
  0
LINE
  8
0
 10
-8.52013
 20
106.994
 11
-8.57626
 21
107.113
  0
LINE
  8
0
 10
-8.57626
 20
107.113
 11
-8.617
 21
107.239
  0
LINE
  8
0
 10
-8.617
 20
107.239
 11
-8.64172
 21
107.368
  0
LINE
  8
0
 10
-8.64172
 20
107.368
 11
-8.64999
 21
107.5
  0
LINE
  8
0
 10
-8.64999
 20
107.5
 11
-8.64172
 21
107.632
  0
LINE
  8
0
 10
-8.64172
 20
107.632
 11
-8.617
 21
107.761
  0
LINE
  8
0
 10
-8.617
 20
107.761
 11
-8.57626
 21
107.887
  0
LINE
  8
0
 10
-8.57626
 20
107.887
 11
-8.52013
 21
108.006
  0
LINE
  8
0
 10
-8.52013
 20
108.006
 11
-8.44946
 21
108.117
  0
LINE
  8
0
 10
-8.44946
 20
108.117
 11
-8.36542
 21
108.219
  0
LINE
  8
0
 10
-8.36542
 20
108.219
 11
-8.26929
 21
108.309
  0
LINE
  8
0
 10
-8.26929
 20
108.309
 11
-8.16261
 21
108.387
  0
LINE
  8
0
 10
-8.16261
 20
108.387
 11
-8.04707
 21
108.45
  0
LINE
  8
0
 10
-8.04707
 20
108.45
 11
-7.92447
 21
108.499
  0
LINE
  8
0
 10
-7.92447
 20
108.499
 11
-7.79675
 21
108.531
  0
LINE
  8
0
 10
-7.79675
 20
108.531
 11
-7.66592
 21
108.548
  0
LINE
  8
0
 10
-7.66592
 20
108.548
 11
-7.53407
 21
108.548
  0
LINE
  8
0
 10
-7.53407
 20
108.548
 11
-7.40324
 21
108.531
  0
LINE
  8
0
 10
-7.40324
 20
108.531
 11
-7.27553
 21
108.499
  0
LINE
  8
0
 10
-7.27553
 20
108.499
 11
-7.15292
 21
108.45
  0
LINE
  8
0
 10
-7.15292
 20
108.45
 11
-7.03738
 21
108.387
  0
LINE
  8
0
 10
-7.03738
 20
108.387
 11
-6.93071
 21
108.309
  0
LINE
  8
0
 10
-6.93071
 20
108.309
 11
-6.83458
 21
108.219
  0
LINE
  8
0
 10
-6.83458
 20
108.219
 11
-6.75053
 21
108.117
  0
LINE
  8
0
 10
-6.75053
 20
108.117
 11
-6.67987
 21
108.006
  0
LINE
  8
0
 10
-6.67987
 20
108.006
 11
-6.62373
 21
107.887
  0
LINE
  8
0
 10
-6.62373
 20
107.887
 11
-6.58299
 21
107.761
  0
LINE
  8
0
 10
-6.58299
 20
107.761
 11
-6.55827
 21
107.632
  0
LINE
  8
0
 10
-6.55827
 20
107.632
 11
-6.55
 21
107.5
  0
LINE
  8
0
 10
-6.55
 20
107.5
 11
-6.55827
 21
107.368
  0
LINE
  8
0
 10
-6.55827
 20
107.368
 11
-6.58299
 21
107.239
  0
LINE
  8
0
 10
-6.58299
 20
107.239
 11
-6.62373
 21
107.113
  0
LINE
  8
0
 10
-6.62373
 20
107.113
 11
-6.67987
 21
106.994
  0
LINE
  8
0
 10
-6.67987
 20
106.994
 11
-6.75053
 21
106.883
  0
LINE
  8
0
 10
-6.75053
 20
106.883
 11
-6.83458
 21
106.781
  0
LINE
  8
0
 10
-6.83458
 20
106.781
 11
-6.93071
 21
106.691
  0
LINE
  8
0
 10
-6.93071
 20
106.691
 11
-7.03738
 21
106.613
  0
LINE
  8
0
 10
-7.03738
 20
106.613
 11
-7.15292
 21
106.55
  0
LINE
  8
0
 10
-7.15292
 20
106.55
 11
-7.27553
 21
106.501
  0
LINE
  8
0
 10
-7.27553
 20
106.501
 11
-7.40324
 21
106.469
  0
LINE
  8
0
 10
-7.40324
 20
106.469
 11
-7.53407
 21
106.452
  0
LINE
  8
0
 10
-7.53407
 20
106.452
 11
-7.66592
 21
106.452
  0
LINE
  8
0
 10
7.53406
 20
106.452
 11
7.40323
 21
106.469
  0
LINE
  8
0
 10
7.40323
 20
106.469
 11
7.27551
 21
106.501
  0
LINE
  8
0
 10
7.27551
 20
106.501
 11
7.15292
 21
106.55
  0
LINE
  8
0
 10
7.15292
 20
106.55
 11
7.03737
 21
106.613
  0
LINE
  8
0
 10
7.03737
 20
106.613
 11
6.93069
 21
106.691
  0
LINE
  8
0
 10
6.93069
 20
106.691
 11
6.83456
 21
106.781
  0
LINE
  8
0
 10
6.83456
 20
106.781
 11
6.75052
 21
106.883
  0
LINE
  8
0
 10
6.75052
 20
106.883
 11
6.67987
 21
106.994
  0
LINE
  8
0
 10
6.67987
 20
106.994
 11
6.62372
 21
107.113
  0
LINE
  8
0
 10
6.62372
 20
107.113
 11
6.58298
 21
107.239
  0
LINE
  8
0
 10
6.58298
 20
107.239
 11
6.55827
 21
107.368
  0
LINE
  8
0
 10
6.55827
 20
107.368
 11
6.54999
 21
107.5
  0
LINE
  8
0
 10
6.54999
 20
107.5
 11
6.55827
 21
107.632
  0
LINE
  8
0
 10
6.55827
 20
107.632
 11
6.58298
 21
107.761
  0
LINE
  8
0
 10
6.58298
 20
107.761
 11
6.62372
 21
107.887
  0
LINE
  8
0
 10
6.62372
 20
107.887
 11
6.67987
 21
108.006
  0
LINE
  8
0
 10
6.67987
 20
108.006
 11
6.75052
 21
108.117
  0
LINE
  8
0
 10
6.75052
 20
108.117
 11
6.83456
 21
108.219
  0
LINE
  8
0
 10
6.83456
 20
108.219
 11
6.93069
 21
108.309
  0
LINE
  8
0
 10
6.93069
 20
108.309
 11
7.03737
 21
108.387
  0
LINE
  8
0
 10
7.03737
 20
108.387
 11
7.15292
 21
108.45
  0
LINE
  8
0
 10
7.15292
 20
108.45
 11
7.27551
 21
108.499
  0
LINE
  8
0
 10
7.27551
 20
108.499
 11
7.40323
 21
108.531
  0
LINE
  8
0
 10
7.40323
 20
108.531
 11
7.53406
 21
108.548
  0
LINE
  8
0
 10
7.53406
 20
108.548
 11
7.66591
 21
108.548
  0
LINE
  8
0
 10
7.66591
 20
108.548
 11
7.79674
 21
108.531
  0
LINE
  8
0
 10
7.79674
 20
108.531
 11
7.92445
 21
108.499
  0
LINE
  8
0
 10
7.92445
 20
108.499
 11
8.04706
 21
108.45
  0
LINE
  8
0
 10
8.04706
 20
108.45
 11
8.1626
 21
108.387
  0
LINE
  8
0
 10
8.1626
 20
108.387
 11
8.26929
 21
108.309
  0
LINE
  8
0
 10
8.26929
 20
108.309
 11
8.3654
 21
108.219
  0
LINE
  8
0
 10
8.3654
 20
108.219
 11
8.44945
 21
108.117
  0
LINE
  8
0
 10
8.44945
 20
108.117
 11
8.52011
 21
108.006
  0
LINE
  8
0
 10
8.52011
 20
108.006
 11
8.57625
 21
107.887
  0
LINE
  8
0
 10
8.57625
 20
107.887
 11
8.617
 21
107.761
  0
LINE
  8
0
 10
8.617
 20
107.761
 11
8.64171
 21
107.632
  0
LINE
  8
0
 10
8.64171
 20
107.632
 11
8.64999
 21
107.5
  0
LINE
  8
0
 10
8.64999
 20
107.5
 11
8.64171
 21
107.368
  0
LINE
  8
0
 10
8.64171
 20
107.368
 11
8.617
 21
107.239
  0
LINE
  8
0
 10
8.617
 20
107.239
 11
8.57625
 21
107.113
  0
LINE
  8
0
 10
8.57625
 20
107.113
 11
8.52011
 21
106.994
  0
LINE
  8
0
 10
8.52011
 20
106.994
 11
8.44945
 21
106.883
  0
LINE
  8
0
 10
8.44945
 20
106.883
 11
8.3654
 21
106.781
  0
LINE
  8
0
 10
8.3654
 20
106.781
 11
8.26929
 21
106.691
  0
LINE
  8
0
 10
8.26929
 20
106.691
 11
8.1626
 21
106.613
  0
LINE
  8
0
 10
8.1626
 20
106.613
 11
8.04706
 21
106.55
  0
LINE
  8
0
 10
8.04706
 20
106.55
 11
7.92445
 21
106.501
  0
LINE
  8
0
 10
7.92445
 20
106.501
 11
7.79674
 21
106.469
  0
LINE
  8
0
 10
7.79674
 20
106.469
 11
7.66591
 21
106.452
  0
LINE
  8
0
 10
7.66591
 20
106.452
 11
7.53406
 21
106.452
  0
LINE
  8
0
 10
28.4952
 20
96.7906
 11
28.366
 21
96.8171
  0
LINE
  8
0
 10
28.366
 20
96.8171
 11
28.2412
 21
96.8596
  0
LINE
  8
0
 10
28.2412
 20
96.8596
 11
28.1227
 21
96.9174
  0
LINE
  8
0
 10
28.1227
 20
96.9174
 11
28.0123
 21
96.9896
  0
LINE
  8
0
 10
28.0123
 20
96.9896
 11
27.9119
 21
97.075
  0
LINE
  8
0
 10
27.9119
 20
97.075
 11
27.823
 21
97.1724
  0
LINE
  8
0
 10
27.823
 20
97.1724
 11
27.747
 21
97.2802
  0
LINE
  8
0
 10
27.747
 20
97.2802
 11
27.6851
 21
97.3966
  0
LINE
  8
0
 10
27.6851
 20
97.3966
 11
27.6383
 21
97.5199
  0
LINE
  8
0
 10
27.6383
 20
97.5199
 11
27.6073
 21
97.648
  0
LINE
  8
0
 10
27.6073
 20
97.648
 11
27.5925
 21
97.7791
  0
LINE
  8
0
 10
27.5925
 20
97.7791
 11
27.5944
 21
97.9109
  0
LINE
  8
0
 10
27.5944
 20
97.9109
 11
27.6127
 21
98.0415
  0
LINE
  8
0
 10
27.6127
 20
98.0415
 11
27.6473
 21
98.1687
  0
LINE
  8
0
 10
27.6473
 20
98.1687
 11
27.6976
 21
98.2906
  0
LINE
  8
0
 10
27.6976
 20
98.2906
 11
27.7627
 21
98.4053
  0
LINE
  8
0
 10
27.7627
 20
98.4053
 11
27.8417
 21
98.5109
  0
LINE
  8
0
 10
27.8417
 20
98.5109
 11
27.9333
 21
98.6057
  0
LINE
  8
0
 10
27.9333
 20
98.6057
 11
28.036
 21
98.6883
  0
LINE
  8
0
 10
28.036
 20
98.6883
 11
28.1484
 21
98.7574
  0
LINE
  8
0
 10
28.1484
 20
98.7574
 11
28.2684
 21
98.8119
  0
LINE
  8
0
 10
28.2684
 20
98.8119
 11
28.3944
 21
98.8509
  0
LINE
  8
0
 10
28.3944
 20
98.8509
 11
28.5242
 21
98.8738
  0
LINE
  8
0
 10
28.5242
 20
98.8738
 11
28.656
 21
98.8802
  0
LINE
  8
0
 10
28.656
 20
98.8802
 11
28.7874
 21
98.8701
  0
LINE
  8
0
 10
28.7874
 20
98.8701
 11
28.9166
 21
98.8436
  0
LINE
  8
0
 10
28.9166
 20
98.8436
 11
29.0414
 21
98.8011
  0
LINE
  8
0
 10
29.0414
 20
98.8011
 11
29.1599
 21
98.7433
  0
LINE
  8
0
 10
29.1599
 20
98.7433
 11
29.2703
 21
98.6711
  0
LINE
  8
0
 10
29.2703
 20
98.6711
 11
29.3707
 21
98.5856
  0
LINE
  8
0
 10
29.3707
 20
98.5856
 11
29.4596
 21
98.4883
  0
LINE
  8
0
 10
29.4596
 20
98.4883
 11
29.5356
 21
98.3805
  0
LINE
  8
0
 10
29.5356
 20
98.3805
 11
29.5975
 21
98.2641
  0
LINE
  8
0
 10
29.5975
 20
98.2641
 11
29.6443
 21
98.1408
  0
LINE
  8
0
 10
29.6443
 20
98.1408
 11
29.6753
 21
98.0127
  0
LINE
  8
0
 10
29.6753
 20
98.0127
 11
29.69
 21
97.8816
  0
LINE
  8
0
 10
29.69
 20
97.8816
 11
29.6882
 21
97.7498
  0
LINE
  8
0
 10
29.6882
 20
97.7498
 11
29.6699
 21
97.6192
  0
LINE
  8
0
 10
29.6699
 20
97.6192
 11
29.6353
 21
97.492
  0
LINE
  8
0
 10
29.6353
 20
97.492
 11
29.585
 21
97.37
  0
LINE
  8
0
 10
29.585
 20
97.37
 11
29.5199
 21
97.2554
  0
LINE
  8
0
 10
29.5199
 20
97.2554
 11
29.4409
 21
97.1498
  0
LINE
  8
0
 10
29.4409
 20
97.1498
 11
29.3493
 21
97.055
  0
LINE
  8
0
 10
29.3493
 20
97.055
 11
29.2466
 21
96.9724
  0
LINE
  8
0
 10
29.2466
 20
96.9724
 11
29.1342
 21
96.9033
  0
LINE
  8
0
 10
29.1342
 20
96.9033
 11
29.0142
 21
96.8488
  0
LINE
  8
0
 10
29.0142
 20
96.8488
 11
28.8882
 21
96.8098
  0
LINE
  8
0
 10
28.8882
 20
96.8098
 11
28.7583
 21
96.7869
  0
LINE
  8
0
 10
28.7583
 20
96.7869
 11
28.6266
 21
96.7805
  0
LINE
  8
0
 10
28.6266
 20
96.7805
 11
28.4952
 21
96.7906
  0
LINE
  8
0
 10
-28.7583
 20
96.7869
 11
-28.8882
 21
96.8098
  0
LINE
  8
0
 10
-28.8882
 20
96.8098
 11
-29.0142
 21
96.8488
  0
LINE
  8
0
 10
-29.0142
 20
96.8488
 11
-29.1342
 21
96.9033
  0
LINE
  8
0
 10
-29.1342
 20
96.9033
 11
-29.2466
 21
96.9724
  0
LINE
  8
0
 10
-29.2466
 20
96.9724
 11
-29.3493
 21
97.055
  0
LINE
  8
0
 10
-29.3493
 20
97.055
 11
-29.4409
 21
97.1498
  0
LINE
  8
0
 10
-29.4409
 20
97.1498
 11
-29.5199
 21
97.2554
  0
LINE
  8
0
 10
-29.5199
 20
97.2554
 11
-29.585
 21
97.37
  0
LINE
  8
0
 10
-29.585
 20
97.37
 11
-29.6353
 21
97.492
  0
LINE
  8
0
 10
-29.6353
 20
97.492
 11
-29.6699
 21
97.6192
  0
LINE
  8
0
 10
-29.6699
 20
97.6192
 11
-29.6882
 21
97.7498
  0
LINE
  8
0
 10
-29.6882
 20
97.7498
 11
-29.69
 21
97.8816
  0
LINE
  8
0
 10
-29.69
 20
97.8816
 11
-29.6753
 21
98.0127
  0
LINE
  8
0
 10
-29.6753
 20
98.0127
 11
-29.6443
 21
98.1408
  0
LINE
  8
0
 10
-29.6443
 20
98.1408
 11
-29.5975
 21
98.2641
  0
LINE
  8
0
 10
-29.5975
 20
98.2641
 11
-29.5356
 21
98.3805
  0
LINE
  8
0
 10
-29.5356
 20
98.3805
 11
-29.4596
 21
98.4883
  0
LINE
  8
0
 10
-29.4596
 20
98.4883
 11
-29.3707
 21
98.5856
  0
LINE
  8
0
 10
-29.3707
 20
98.5856
 11
-29.2703
 21
98.6711
  0
LINE
  8
0
 10
-29.2703
 20
98.6711
 11
-29.1599
 21
98.7433
  0
LINE
  8
0
 10
-29.1599
 20
98.7433
 11
-29.0414
 21
98.8011
  0
LINE
  8
0
 10
-29.0414
 20
98.8011
 11
-28.9166
 21
98.8436
  0
LINE
  8
0
 10
-28.9166
 20
98.8436
 11
-28.7874
 21
98.8701
  0
LINE
  8
0
 10
-28.7874
 20
98.8701
 11
-28.656
 21
98.8802
  0
LINE
  8
0
 10
-28.656
 20
98.8802
 11
-28.5242
 21
98.8738
  0
LINE
  8
0
 10
-28.5242
 20
98.8738
 11
-28.3944
 21
98.8509
  0
LINE
  8
0
 10
-28.3944
 20
98.8509
 11
-28.2684
 21
98.8119
  0
LINE
  8
0
 10
-28.2684
 20
98.8119
 11
-28.1484
 21
98.7574
  0
LINE
  8
0
 10
-28.1484
 20
98.7574
 11
-28.036
 21
98.6883
  0
LINE
  8
0
 10
-28.036
 20
98.6883
 11
-27.9333
 21
98.6057
  0
LINE
  8
0
 10
-27.9333
 20
98.6057
 11
-27.8417
 21
98.5109
  0
LINE
  8
0
 10
-27.8417
 20
98.5109
 11
-27.7627
 21
98.4053
  0
LINE
  8
0
 10
-27.7627
 20
98.4053
 11
-27.6976
 21
98.2906
  0
LINE
  8
0
 10
-27.6976
 20
98.2906
 11
-27.6473
 21
98.1687
  0
LINE
  8
0
 10
-27.6473
 20
98.1687
 11
-27.6127
 21
98.0415
  0
LINE
  8
0
 10
-27.6127
 20
98.0415
 11
-27.5944
 21
97.9109
  0
LINE
  8
0
 10
-27.5944
 20
97.9109
 11
-27.5925
 21
97.7791
  0
LINE
  8
0
 10
-27.5925
 20
97.7791
 11
-27.6073
 21
97.648
  0
LINE
  8
0
 10
-27.6073
 20
97.648
 11
-27.6383
 21
97.5199
  0
LINE
  8
0
 10
-27.6383
 20
97.5199
 11
-27.6851
 21
97.3966
  0
LINE
  8
0
 10
-27.6851
 20
97.3966
 11
-27.747
 21
97.2802
  0
LINE
  8
0
 10
-27.747
 20
97.2802
 11
-27.823
 21
97.1724
  0
LINE
  8
0
 10
-27.823
 20
97.1724
 11
-27.9119
 21
97.075
  0
LINE
  8
0
 10
-27.9119
 20
97.075
 11
-28.0123
 21
96.9896
  0
LINE
  8
0
 10
-28.0123
 20
96.9896
 11
-28.1227
 21
96.9174
  0
LINE
  8
0
 10
-28.1227
 20
96.9174
 11
-28.2412
 21
96.8596
  0
LINE
  8
0
 10
-28.2412
 20
96.8596
 11
-28.366
 21
96.8171
  0
LINE
  8
0
 10
-28.366
 20
96.8171
 11
-28.4952
 21
96.7906
  0
LINE
  8
0
 10
-28.4952
 20
96.7906
 11
-28.6266
 21
96.7805
  0
LINE
  8
0
 10
-28.6266
 20
96.7805
 11
-28.7583
 21
96.7869
  0
LINE
  8
0
 10
88.7968
 20
83.0531
 11
88.6676
 21
83.0796
  0
LINE
  8
0
 10
88.6676
 20
83.0796
 11
88.5428
 21
83.1221
  0
LINE
  8
0
 10
88.5428
 20
83.1221
 11
88.4243
 21
83.1799
  0
LINE
  8
0
 10
88.4243
 20
83.1799
 11
88.3139
 21
83.2521
  0
LINE
  8
0
 10
88.3139
 20
83.2521
 11
88.2135
 21
83.3376
  0
LINE
  8
0
 10
88.2135
 20
83.3376
 11
88.1246
 21
83.435
  0
LINE
  8
0
 10
88.1246
 20
83.435
 11
88.0486
 21
83.5427
  0
LINE
  8
0
 10
88.0486
 20
83.5427
 11
87.9867
 21
83.6591
  0
LINE
  8
0
 10
87.9867
 20
83.6591
 11
87.9398
 21
83.7824
  0
LINE
  8
0
 10
87.9398
 20
83.7824
 11
87.9089
 21
83.9106
  0
LINE
  8
0
 10
87.9089
 20
83.9106
 11
87.8941
 21
84.0416
  0
LINE
  8
0
 10
87.8941
 20
84.0416
 11
87.896
 21
84.1735
  0
LINE
  8
0
 10
87.896
 20
84.1735
 11
87.9144
 21
84.304
  0
LINE
  8
0
 10
87.9144
 20
84.304
 11
87.9489
 21
84.4313
  0
LINE
  8
0
 10
87.9489
 20
84.4313
 11
87.9992
 21
84.5532
  0
LINE
  8
0
 10
87.9992
 20
84.5532
 11
88.0643
 21
84.6678
  0
LINE
  8
0
 10
88.0643
 20
84.6678
 11
88.1433
 21
84.7734
  0
LINE
  8
0
 10
88.1433
 20
84.7734
 11
88.2349
 21
84.8683
  0
LINE
  8
0
 10
88.2349
 20
84.8683
 11
88.3376
 21
84.9509
  0
LINE
  8
0
 10
88.3376
 20
84.9509
 11
88.45
 21
85.02
  0
LINE
  8
0
 10
88.45
 20
85.02
 11
88.57
 21
85.0745
  0
LINE
  8
0
 10
88.57
 20
85.0745
 11
88.696
 21
85.1135
  0
LINE
  8
0
 10
88.696
 20
85.1135
 11
88.8259
 21
85.1364
  0
LINE
  8
0
 10
88.8259
 20
85.1364
 11
88.9576
 21
85.1428
  0
LINE
  8
0
 10
88.9576
 20
85.1428
 11
89.089
 21
85.1327
  0
LINE
  8
0
 10
89.089
 20
85.1327
 11
89.2182
 21
85.1062
  0
LINE
  8
0
 10
89.2182
 20
85.1062
 11
89.343
 21
85.0637
  0
LINE
  8
0
 10
89.343
 20
85.0637
 11
89.4615
 21
85.0059
  0
LINE
  8
0
 10
89.4615
 20
85.0059
 11
89.5719
 21
84.9337
  0
LINE
  8
0
 10
89.5719
 20
84.9337
 11
89.6723
 21
84.8482
  0
LINE
  8
0
 10
89.6723
 20
84.8482
 11
89.7612
 21
84.7508
  0
LINE
  8
0
 10
89.7612
 20
84.7508
 11
89.8372
 21
84.6431
  0
LINE
  8
0
 10
89.8372
 20
84.6431
 11
89.8991
 21
84.5267
  0
LINE
  8
0
 10
89.8991
 20
84.5267
 11
89.946
 21
84.4034
  0
LINE
  8
0
 10
89.946
 20
84.4034
 11
89.9769
 21
84.2752
  0
LINE
  8
0
 10
89.9769
 20
84.2752
 11
89.9917
 21
84.1442
  0
LINE
  8
0
 10
89.9917
 20
84.1442
 11
89.9898
 21
84.0123
  0
LINE
  8
0
 10
89.9898
 20
84.0123
 11
89.9715
 21
83.8818
  0
LINE
  8
0
 10
89.9715
 20
83.8818
 11
89.9369
 21
83.7545
  0
LINE
  8
0
 10
89.9369
 20
83.7545
 11
89.8866
 21
83.6326
  0
LINE
  8
0
 10
89.8866
 20
83.6326
 11
89.8215
 21
83.518
  0
LINE
  8
0
 10
89.8215
 20
83.518
 11
89.7425
 21
83.4124
  0
LINE
  8
0
 10
89.7425
 20
83.4124
 11
89.6509
 21
83.3175
  0
LINE
  8
0
 10
89.6509
 20
83.3175
 11
89.5482
 21
83.2349
  0
LINE
  8
0
 10
89.5482
 20
83.2349
 11
89.4359
 21
83.1658
  0
LINE
  8
0
 10
89.4359
 20
83.1658
 11
89.3158
 21
83.1113
  0
LINE
  8
0
 10
89.3158
 20
83.1113
 11
89.1898
 21
83.0723
  0
LINE
  8
0
 10
89.1898
 20
83.0723
 11
89.06
 21
83.0494
  0
LINE
  8
0
 10
89.06
 20
83.0494
 11
88.9282
 21
83.043
  0
LINE
  8
0
 10
88.9282
 20
83.043
 11
88.7968
 21
83.0531
  0
LINE
  8
0
 10
-89.06
 20
83.0494
 11
-89.1898
 21
83.0723
  0
LINE
  8
0
 10
-89.1898
 20
83.0723
 11
-89.3158
 21
83.1113
  0
LINE
  8
0
 10
-89.3158
 20
83.1113
 11
-89.4359
 21
83.1658
  0
LINE
  8
0
 10
-89.4359
 20
83.1658
 11
-89.5482
 21
83.2349
  0
LINE
  8
0
 10
-89.5482
 20
83.2349
 11
-89.6509
 21
83.3175
  0
LINE
  8
0
 10
-89.6509
 20
83.3175
 11
-89.7425
 21
83.4124
  0
LINE
  8
0
 10
-89.7425
 20
83.4124
 11
-89.8215
 21
83.518
  0
LINE
  8
0
 10
-89.8215
 20
83.518
 11
-89.8866
 21
83.6326
  0
LINE
  8
0
 10
-89.8866
 20
83.6326
 11
-89.9369
 21
83.7545
  0
LINE
  8
0
 10
-89.9369
 20
83.7545
 11
-89.9715
 21
83.8818
  0
LINE
  8
0
 10
-89.9715
 20
83.8818
 11
-89.9898
 21
84.0123
  0
LINE
  8
0
 10
-89.9898
 20
84.0123
 11
-89.9917
 21
84.1442
  0
LINE
  8
0
 10
-89.9917
 20
84.1442
 11
-89.9769
 21
84.2752
  0
LINE
  8
0
 10
-89.9769
 20
84.2752
 11
-89.946
 21
84.4034
  0
LINE
  8
0
 10
-89.946
 20
84.4034
 11
-89.8991
 21
84.5267
  0
LINE
  8
0
 10
-89.8991
 20
84.5267
 11
-89.8372
 21
84.6431
  0
LINE
  8
0
 10
-89.8372
 20
84.6431
 11
-89.7612
 21
84.7508
  0
LINE
  8
0
 10
-89.7612
 20
84.7508
 11
-89.6723
 21
84.8482
  0
LINE
  8
0
 10
-89.6723
 20
84.8482
 11
-89.5719
 21
84.9337
  0
LINE
  8
0
 10
-89.5719
 20
84.9337
 11
-89.4615
 21
85.0059
  0
LINE
  8
0
 10
-89.4615
 20
85.0059
 11
-89.343
 21
85.0637
  0
LINE
  8
0
 10
-89.343
 20
85.0637
 11
-89.2182
 21
85.1062
  0
LINE
  8
0
 10
-89.2182
 20
85.1062
 11
-89.089
 21
85.1327
  0
LINE
  8
0
 10
-89.089
 20
85.1327
 11
-88.9576
 21
85.1428
  0
LINE
  8
0
 10
-88.9576
 20
85.1428
 11
-88.8259
 21
85.1364
  0
LINE
  8
0
 10
-88.8259
 20
85.1364
 11
-88.696
 21
85.1135
  0
LINE
  8
0
 10
-88.696
 20
85.1135
 11
-88.57
 21
85.0745
  0
LINE
  8
0
 10
-88.57
 20
85.0745
 11
-88.45
 21
85.02
  0
LINE
  8
0
 10
-88.45
 20
85.02
 11
-88.3376
 21
84.9509
  0
LINE
  8
0
 10
-88.3376
 20
84.9509
 11
-88.2349
 21
84.8683
  0
LINE
  8
0
 10
-88.2349
 20
84.8683
 11
-88.1433
 21
84.7734
  0
LINE
  8
0
 10
-88.1433
 20
84.7734
 11
-88.0643
 21
84.6678
  0
LINE
  8
0
 10
-88.0643
 20
84.6678
 11
-87.9992
 21
84.5532
  0
LINE
  8
0
 10
-87.9992
 20
84.5532
 11
-87.9489
 21
84.4313
  0
LINE
  8
0
 10
-87.9489
 20
84.4313
 11
-87.9144
 21
84.304
  0
LINE
  8
0
 10
-87.9144
 20
84.304
 11
-87.896
 21
84.1735
  0
LINE
  8
0
 10
-87.896
 20
84.1735
 11
-87.8941
 21
84.0416
  0
LINE
  8
0
 10
-87.8941
 20
84.0416
 11
-87.9089
 21
83.9106
  0
LINE
  8
0
 10
-87.9089
 20
83.9106
 11
-87.9398
 21
83.7824
  0
LINE
  8
0
 10
-87.9398
 20
83.7824
 11
-87.9867
 21
83.6591
  0
LINE
  8
0
 10
-87.9867
 20
83.6591
 11
-88.0486
 21
83.5427
  0
LINE
  8
0
 10
-88.0486
 20
83.5427
 11
-88.1246
 21
83.435
  0
LINE
  8
0
 10
-88.1246
 20
83.435
 11
-88.2135
 21
83.3376
  0
LINE
  8
0
 10
-88.2135
 20
83.3376
 11
-88.3139
 21
83.2521
  0
LINE
  8
0
 10
-88.3139
 20
83.2521
 11
-88.4243
 21
83.1799
  0
LINE
  8
0
 10
-88.4243
 20
83.1799
 11
-88.5428
 21
83.1221
  0
LINE
  8
0
 10
-88.5428
 20
83.1221
 11
-88.6676
 21
83.0796
  0
LINE
  8
0
 10
-88.6676
 20
83.0796
 11
-88.7968
 21
83.0531
  0
LINE
  8
0
 10
-88.7968
 20
83.0531
 11
-88.9282
 21
83.043
  0
LINE
  8
0
 10
-88.9282
 20
83.043
 11
-89.06
 21
83.0494
  0
LINE
  8
0
 10
35.0938
 20
59.3679
 11
34.9646
 21
59.3944
  0
LINE
  8
0
 10
34.9646
 20
59.3944
 11
34.8398
 21
59.4369
  0
LINE
  8
0
 10
34.8398
 20
59.4369
 11
34.7213
 21
59.4947
  0
LINE
  8
0
 10
34.7213
 20
59.4947
 11
34.611
 21
59.5669
  0
LINE
  8
0
 10
34.611
 20
59.5669
 11
34.5105
 21
59.6523
  0
LINE
  8
0
 10
34.5105
 20
59.6523
 11
34.4216
 21
59.7497
  0
LINE
  8
0
 10
34.4216
 20
59.7497
 11
34.3456
 21
59.8575
  0
LINE
  8
0
 10
34.3456
 20
59.8575
 11
34.2837
 21
59.9739
  0
LINE
  8
0
 10
34.2837
 20
59.9739
 11
34.2369
 21
60.0972
  0
LINE
  8
0
 10
34.2369
 20
60.0972
 11
34.2059
 21
60.2253
  0
LINE
  8
0
 10
34.2059
 20
60.2253
 11
34.1912
 21
60.3564
  0
LINE
  8
0
 10
34.1912
 20
60.3564
 11
34.193
 21
60.4882
  0
LINE
  8
0
 10
34.193
 20
60.4882
 11
34.2114
 21
60.6188
  0
LINE
  8
0
 10
34.2114
 20
60.6188
 11
34.2459
 21
60.746
  0
LINE
  8
0
 10
34.2459
 20
60.746
 11
34.2962
 21
60.868
  0
LINE
  8
0
 10
34.2962
 20
60.868
 11
34.3613
 21
60.9826
  0
LINE
  8
0
 10
34.3613
 20
60.9826
 11
34.4403
 21
61.0882
  0
LINE
  8
0
 10
34.4403
 20
61.0882
 11
34.5319
 21
61.183
  0
LINE
  8
0
 10
34.5319
 20
61.183
 11
34.6347
 21
61.2656
  0
LINE
  8
0
 10
34.6347
 20
61.2656
 11
34.747
 21
61.3347
  0
LINE
  8
0
 10
34.747
 20
61.3347
 11
34.8671
 21
61.3892
  0
LINE
  8
0
 10
34.8671
 20
61.3892
 11
34.993
 21
61.4282
  0
LINE
  8
0
 10
34.993
 20
61.4282
 11
35.1229
 21
61.4511
  0
LINE
  8
0
 10
35.1229
 20
61.4511
 11
35.2546
 21
61.4575
  0
LINE
  8
0
 10
35.2546
 20
61.4575
 11
35.3861
 21
61.4474
  0
LINE
  8
0
 10
35.3861
 20
61.4474
 11
35.5152
 21
61.4209
  0
LINE
  8
0
 10
35.5152
 20
61.4209
 11
35.64
 21
61.3784
  0
LINE
  8
0
 10
35.64
 20
61.3784
 11
35.7586
 21
61.3206
  0
LINE
  8
0
 10
35.7586
 20
61.3206
 11
35.8689
 21
61.2484
  0
LINE
  8
0
 10
35.8689
 20
61.2484
 11
35.9693
 21
61.163
  0
LINE
  8
0
 10
35.9693
 20
61.163
 11
36.0582
 21
61.0656
  0
LINE
  8
0
 10
36.0582
 20
61.0656
 11
36.1342
 21
60.9578
  0
LINE
  8
0
 10
36.1342
 20
60.9578
 11
36.1961
 21
60.8414
  0
LINE
  8
0
 10
36.1961
 20
60.8414
 11
36.243
 21
60.7181
  0
LINE
  8
0
 10
36.243
 20
60.7181
 11
36.274
 21
60.59
  0
LINE
  8
0
 10
36.274
 20
60.59
 11
36.2887
 21
60.4589
  0
LINE
  8
0
 10
36.2887
 20
60.4589
 11
36.2868
 21
60.3271
  0
LINE
  8
0
 10
36.2868
 20
60.3271
 11
36.2685
 21
60.1965
  0
LINE
  8
0
 10
36.2685
 20
60.1965
 11
36.2339
 21
60.0693
  0
LINE
  8
0
 10
36.2339
 20
60.0693
 11
36.1837
 21
59.9474
  0
LINE
  8
0
 10
36.1837
 20
59.9474
 11
36.1185
 21
59.8327
  0
LINE
  8
0
 10
36.1185
 20
59.8327
 11
36.0395
 21
59.7271
  0
LINE
  8
0
 10
36.0395
 20
59.7271
 11
35.948
 21
59.6323
  0
LINE
  8
0
 10
35.948
 20
59.6323
 11
35.8452
 21
59.5497
  0
LINE
  8
0
 10
35.8452
 20
59.5497
 11
35.7329
 21
59.4806
  0
LINE
  8
0
 10
35.7329
 20
59.4806
 11
35.6128
 21
59.4261
  0
LINE
  8
0
 10
35.6128
 20
59.4261
 11
35.4868
 21
59.3871
  0
LINE
  8
0
 10
35.4868
 20
59.3871
 11
35.357
 21
59.3642
  0
LINE
  8
0
 10
35.357
 20
59.3642
 11
35.2253
 21
59.3578
  0
LINE
  8
0
 10
35.2253
 20
59.3578
 11
35.0938
 21
59.3679
  0
LINE
  8
0
 10
-35.357
 20
59.3642
 11
-35.4868
 21
59.3871
  0
LINE
  8
0
 10
-35.4868
 20
59.3871
 11
-35.6128
 21
59.4261
  0
LINE
  8
0
 10
-35.6128
 20
59.4261
 11
-35.7329
 21
59.4806
  0
LINE
  8
0
 10
-35.7329
 20
59.4806
 11
-35.8452
 21
59.5497
  0
LINE
  8
0
 10
-35.8452
 20
59.5497
 11
-35.948
 21
59.6323
  0
LINE
  8
0
 10
-35.948
 20
59.6323
 11
-36.0395
 21
59.7271
  0
LINE
  8
0
 10
-36.0395
 20
59.7271
 11
-36.1185
 21
59.8327
  0
LINE
  8
0
 10
-36.1185
 20
59.8327
 11
-36.1837
 21
59.9474
  0
LINE
  8
0
 10
-36.1837
 20
59.9474
 11
-36.2339
 21
60.0693
  0
LINE
  8
0
 10
-36.2339
 20
60.0693
 11
-36.2685
 21
60.1965
  0
LINE
  8
0
 10
-36.2685
 20
60.1965
 11
-36.2868
 21
60.3271
  0
LINE
  8
0
 10
-36.2868
 20
60.3271
 11
-36.2887
 21
60.4589
  0
LINE
  8
0
 10
-36.2887
 20
60.4589
 11
-36.274
 21
60.59
  0
LINE
  8
0
 10
-36.274
 20
60.59
 11
-36.243
 21
60.7181
  0
LINE
  8
0
 10
-36.243
 20
60.7181
 11
-36.1961
 21
60.8414
  0
LINE
  8
0
 10
-36.1961
 20
60.8414
 11
-36.1342
 21
60.9578
  0
LINE
  8
0
 10
-36.1342
 20
60.9578
 11
-36.0582
 21
61.0656
  0
LINE
  8
0
 10
-36.0582
 20
61.0656
 11
-35.9693
 21
61.163
  0
LINE
  8
0
 10
-35.9693
 20
61.163
 11
-35.8689
 21
61.2484
  0
LINE
  8
0
 10
-35.8689
 20
61.2484
 11
-35.7586
 21
61.3206
  0
LINE
  8
0
 10
-35.7586
 20
61.3206
 11
-35.64
 21
61.3784
  0
LINE
  8
0
 10
-35.64
 20
61.3784
 11
-35.5152
 21
61.4209
  0
LINE
  8
0
 10
-35.5152
 20
61.4209
 11
-35.3861
 21
61.4474
  0
LINE
  8
0
 10
-35.3861
 20
61.4474
 11
-35.2546
 21
61.4575
  0
LINE
  8
0
 10
-35.2546
 20
61.4575
 11
-35.1229
 21
61.4511
  0
LINE
  8
0
 10
-35.1229
 20
61.4511
 11
-34.993
 21
61.4282
  0
LINE
  8
0
 10
-34.993
 20
61.4282
 11
-34.8671
 21
61.3892
  0
LINE
  8
0
 10
-34.8671
 20
61.3892
 11
-34.747
 21
61.3347
  0
LINE
  8
0
 10
-34.747
 20
61.3347
 11
-34.6347
 21
61.2656
  0
LINE
  8
0
 10
-34.6347
 20
61.2656
 11
-34.5319
 21
61.183
  0
LINE
  8
0
 10
-34.5319
 20
61.183
 11
-34.4403
 21
61.0882
  0
LINE
  8
0
 10
-34.4403
 20
61.0882
 11
-34.3613
 21
60.9826
  0
LINE
  8
0
 10
-34.3613
 20
60.9826
 11
-34.2962
 21
60.868
  0
LINE
  8
0
 10
-34.2962
 20
60.868
 11
-34.2459
 21
60.746
  0
LINE
  8
0
 10
-34.2459
 20
60.746
 11
-34.2114
 21
60.6188
  0
LINE
  8
0
 10
-34.2114
 20
60.6188
 11
-34.193
 21
60.4882
  0
LINE
  8
0
 10
-34.193
 20
60.4882
 11
-34.1912
 21
60.3564
  0
LINE
  8
0
 10
-34.1912
 20
60.3564
 11
-34.2059
 21
60.2253
  0
LINE
  8
0
 10
-34.2059
 20
60.2253
 11
-34.2369
 21
60.0972
  0
LINE
  8
0
 10
-34.2369
 20
60.0972
 11
-34.2837
 21
59.9739
  0
LINE
  8
0
 10
-34.2837
 20
59.9739
 11
-34.3456
 21
59.8575
  0
LINE
  8
0
 10
-34.3456
 20
59.8575
 11
-34.4216
 21
59.7497
  0
LINE
  8
0
 10
-34.4216
 20
59.7497
 11
-34.5105
 21
59.6523
  0
LINE
  8
0
 10
-34.5105
 20
59.6523
 11
-34.611
 21
59.5669
  0
LINE
  8
0
 10
-34.611
 20
59.5669
 11
-34.7213
 21
59.4947
  0
LINE
  8
0
 10
-34.7213
 20
59.4947
 11
-34.8398
 21
59.4369
  0
LINE
  8
0
 10
-34.8398
 20
59.4369
 11
-34.9646
 21
59.3944
  0
LINE
  8
0
 10
-34.9646
 20
59.3944
 11
-35.0938
 21
59.3679
  0
LINE
  8
0
 10
-35.0938
 20
59.3679
 11
-35.2253
 21
59.3578
  0
LINE
  8
0
 10
-35.2253
 20
59.3578
 11
-35.357
 21
59.3642
  0
LINE
  8
0
 10
95.3954
 20
45.6304
 11
95.2662
 21
45.657
  0
LINE
  8
0
 10
95.2662
 20
45.657
 11
95.1414
 21
45.6994
  0
LINE
  8
0
 10
95.1414
 20
45.6994
 11
95.0229
 21
45.7572
  0
LINE
  8
0
 10
95.0229
 20
45.7572
 11
94.9126
 21
45.8295
  0
LINE
  8
0
 10
94.9126
 20
45.8295
 11
94.8121
 21
45.9149
  0
LINE
  8
0
 10
94.8121
 20
45.9149
 11
94.7232
 21
46.0123
  0
LINE
  8
0
 10
94.7232
 20
46.0123
 11
94.6472
 21
46.12
  0
LINE
  8
0
 10
94.6472
 20
46.12
 11
94.5853
 21
46.2365
  0
LINE
  8
0
 10
94.5853
 20
46.2365
 11
94.5385
 21
46.3597
  0
LINE
  8
0
 10
94.5385
 20
46.3597
 11
94.5075
 21
46.4879
  0
LINE
  8
0
 10
94.5075
 20
46.4879
 11
94.4928
 21
46.6189
  0
LINE
  8
0
 10
94.4928
 20
46.6189
 11
94.4946
 21
46.7508
  0
LINE
  8
0
 10
94.4946
 20
46.7508
 11
94.513
 21
46.8813
  0
LINE
  8
0
 10
94.513
 20
46.8813
 11
94.5475
 21
47.0086
  0
LINE
  8
0
 10
94.5475
 20
47.0086
 11
94.5978
 21
47.1305
  0
LINE
  8
0
 10
94.5978
 20
47.1305
 11
94.6629
 21
47.2451
  0
LINE
  8
0
 10
94.6629
 20
47.2451
 11
94.7419
 21
47.3507
  0
LINE
  8
0
 10
94.7419
 20
47.3507
 11
94.8335
 21
47.4456
  0
LINE
  8
0
 10
94.8335
 20
47.4456
 11
94.9363
 21
47.5282
  0
LINE
  8
0
 10
94.9363
 20
47.5282
 11
95.0486
 21
47.5973
  0
LINE
  8
0
 10
95.0486
 20
47.5973
 11
95.1687
 21
47.6518
  0
LINE
  8
0
 10
95.1687
 20
47.6518
 11
95.2946
 21
47.6908
  0
LINE
  8
0
 10
95.2946
 20
47.6908
 11
95.4245
 21
47.7137
  0
LINE
  8
0
 10
95.4245
 20
47.7137
 11
95.5562
 21
47.7201
  0
LINE
  8
0
 10
95.5562
 20
47.7201
 11
95.6877
 21
47.71
  0
LINE
  8
0
 10
95.6877
 20
47.71
 11
95.8168
 21
47.6835
  0
LINE
  8
0
 10
95.8168
 20
47.6835
 11
95.9417
 21
47.641
  0
LINE
  8
0
 10
95.9417
 20
47.641
 11
96.0602
 21
47.5832
  0
LINE
  8
0
 10
96.0602
 20
47.5832
 11
96.1705
 21
47.511
  0
LINE
  8
0
 10
96.1705
 20
47.511
 11
96.2709
 21
47.4255
  0
LINE
  8
0
 10
96.2709
 20
47.4255
 11
96.3598
 21
47.3281
  0
LINE
  8
0
 10
96.3598
 20
47.3281
 11
96.4358
 21
47.2204
  0
LINE
  8
0
 10
96.4358
 20
47.2204
 11
96.4977
 21
47.104
  0
LINE
  8
0
 10
96.4977
 20
47.104
 11
96.5446
 21
46.9807
  0
LINE
  8
0
 10
96.5446
 20
46.9807
 11
96.5756
 21
46.8525
  0
LINE
  8
0
 10
96.5756
 20
46.8525
 11
96.5903
 21
46.7215
  0
LINE
  8
0
 10
96.5903
 20
46.7215
 11
96.5884
 21
46.5897
  0
LINE
  8
0
 10
96.5884
 20
46.5897
 11
96.5701
 21
46.4591
  0
LINE
  8
0
 10
96.5701
 20
46.4591
 11
96.5355
 21
46.3318
  0
LINE
  8
0
 10
96.5355
 20
46.3318
 11
96.4853
 21
46.2099
  0
LINE
  8
0
 10
96.4853
 20
46.2099
 11
96.4201
 21
46.0953
  0
LINE
  8
0
 10
96.4201
 20
46.0953
 11
96.3411
 21
45.9897
  0
LINE
  8
0
 10
96.3411
 20
45.9897
 11
96.2495
 21
45.8949
  0
LINE
  8
0
 10
96.2495
 20
45.8949
 11
96.1468
 21
45.8122
  0
LINE
  8
0
 10
96.1468
 20
45.8122
 11
96.0345
 21
45.7431
  0
LINE
  8
0
 10
96.0345
 20
45.7431
 11
95.9144
 21
45.6887
  0
LINE
  8
0
 10
95.9144
 20
45.6887
 11
95.7884
 21
45.6497
  0
LINE
  8
0
 10
95.7884
 20
45.6497
 11
95.6586
 21
45.6268
  0
LINE
  8
0
 10
95.6586
 20
45.6268
 11
95.5269
 21
45.6203
  0
LINE
  8
0
 10
95.5269
 20
45.6203
 11
95.3954
 21
45.6304
  0
LINE
  8
0
 10
-95.6586
 20
45.6268
 11
-95.7884
 21
45.6497
  0
LINE
  8
0
 10
-95.7884
 20
45.6497
 11
-95.9144
 21
45.6887
  0
LINE
  8
0
 10
-95.9144
 20
45.6887
 11
-96.0345
 21
45.7431
  0
LINE
  8
0
 10
-96.0345
 20
45.7431
 11
-96.1468
 21
45.8122
  0
LINE
  8
0
 10
-96.1468
 20
45.8122
 11
-96.2495
 21
45.8949
  0
LINE
  8
0
 10
-96.2495
 20
45.8949
 11
-96.3411
 21
45.9897
  0
LINE
  8
0
 10
-96.3411
 20
45.9897
 11
-96.4201
 21
46.0953
  0
LINE
  8
0
 10
-96.4201
 20
46.0953
 11
-96.4853
 21
46.2099
  0
LINE
  8
0
 10
-96.4853
 20
46.2099
 11
-96.5355
 21
46.3318
  0
LINE
  8
0
 10
-96.5355
 20
46.3318
 11
-96.5701
 21
46.4591
  0
LINE
  8
0
 10
-96.5701
 20
46.4591
 11
-96.5884
 21
46.5897
  0
LINE
  8
0
 10
-96.5884
 20
46.5897
 11
-96.5903
 21
46.7215
  0
LINE
  8
0
 10
-96.5903
 20
46.7215
 11
-96.5756
 21
46.8525
  0
LINE
  8
0
 10
-96.5756
 20
46.8525
 11
-96.5446
 21
46.9807
  0
LINE
  8
0
 10
-96.5446
 20
46.9807
 11
-96.4977
 21
47.104
  0
LINE
  8
0
 10
-96.4977
 20
47.104
 11
-96.4358
 21
47.2204
  0
LINE
  8
0
 10
-96.4358
 20
47.2204
 11
-96.3598
 21
47.3281
  0
LINE
  8
0
 10
-96.3598
 20
47.3281
 11
-96.2709
 21
47.4255
  0
LINE
  8
0
 10
-96.2709
 20
47.4255
 11
-96.1705
 21
47.511
  0
LINE
  8
0
 10
-96.1705
 20
47.511
 11
-96.0602
 21
47.5832
  0
LINE
  8
0
 10
-96.0602
 20
47.5832
 11
-95.9417
 21
47.641
  0
LINE
  8
0
 10
-95.9417
 20
47.641
 11
-95.8168
 21
47.6835
  0
LINE
  8
0
 10
-95.8168
 20
47.6835
 11
-95.6877
 21
47.71
  0
LINE
  8
0
 10
-95.6877
 20
47.71
 11
-95.5562
 21
47.7201
  0
LINE
  8
0
 10
-95.5562
 20
47.7201
 11
-95.4245
 21
47.7137
  0
LINE
  8
0
 10
-95.4245
 20
47.7137
 11
-95.2946
 21
47.6908
  0
LINE
  8
0
 10
-95.2946
 20
47.6908
 11
-95.1687
 21
47.6518
  0
LINE
  8
0
 10
-95.1687
 20
47.6518
 11
-95.0486
 21
47.5973
  0
LINE
  8
0
 10
-95.0486
 20
47.5973
 11
-94.9363
 21
47.5282
  0
LINE
  8
0
 10
-94.9363
 20
47.5282
 11
-94.8335
 21
47.4456
  0
LINE
  8
0
 10
-94.8335
 20
47.4456
 11
-94.7419
 21
47.3507
  0
LINE
  8
0
 10
-94.7419
 20
47.3507
 11
-94.6629
 21
47.2451
  0
LINE
  8
0
 10
-94.6629
 20
47.2451
 11
-94.5978
 21
47.1305
  0
LINE
  8
0
 10
-94.5978
 20
47.1305
 11
-94.5475
 21
47.0086
  0
LINE
  8
0
 10
-94.5475
 20
47.0086
 11
-94.513
 21
46.8813
  0
LINE
  8
0
 10
-94.513
 20
46.8813
 11
-94.4946
 21
46.7508
  0
LINE
  8
0
 10
-94.4946
 20
46.7508
 11
-94.4928
 21
46.6189
  0
LINE
  8
0
 10
-94.4928
 20
46.6189
 11
-94.5075
 21
46.4879
  0
LINE
  8
0
 10
-94.5075
 20
46.4879
 11
-94.5385
 21
46.3597
  0
LINE
  8
0
 10
-94.5385
 20
46.3597
 11
-94.5853
 21
46.2365
  0
LINE
  8
0
 10
-94.5853
 20
46.2365
 11
-94.6472
 21
46.12
  0
LINE
  8
0
 10
-94.6472
 20
46.12
 11
-94.7232
 21
46.0123
  0
LINE
  8
0
 10
-94.7232
 20
46.0123
 11
-94.8121
 21
45.9149
  0
LINE
  8
0
 10
-94.8121
 20
45.9149
 11
-94.9126
 21
45.8295
  0
LINE
  8
0
 10
-94.9126
 20
45.8295
 11
-95.0229
 21
45.7572
  0
LINE
  8
0
 10
-95.0229
 20
45.7572
 11
-95.1414
 21
45.6994
  0
LINE
  8
0
 10
-95.1414
 20
45.6994
 11
-95.2662
 21
45.657
  0
LINE
  8
0
 10
-95.2662
 20
45.657
 11
-95.3954
 21
45.6304
  0
LINE
  8
0
 10
-95.3954
 20
45.6304
 11
-95.5269
 21
45.6203
  0
LINE
  8
0
 10
-95.5269
 20
45.6203
 11
-95.6586
 21
45.6268
  0
LINE
  8
0
 10
43.3421
 20
12.5895
 11
43.2129
 21
12.616
  0
LINE
  8
0
 10
43.2129
 20
12.616
 11
43.0881
 21
12.6585
  0
LINE
  8
0
 10
43.0881
 20
12.6585
 11
42.9696
 21
12.7163
  0
LINE
  8
0
 10
42.9696
 20
12.7163
 11
42.8592
 21
12.7885
  0
LINE
  8
0
 10
42.8592
 20
12.7885
 11
42.7588
 21
12.874
  0
LINE
  8
0
 10
42.7588
 20
12.874
 11
42.6699
 21
12.9714
  0
LINE
  8
0
 10
42.6699
 20
12.9714
 11
42.5939
 21
13.0791
  0
LINE
  8
0
 10
42.5939
 20
13.0791
 11
42.532
 21
13.1955
  0
LINE
  8
0
 10
42.532
 20
13.1955
 11
42.4852
 21
13.3188
  0
LINE
  8
0
 10
42.4852
 20
13.3188
 11
42.4542
 21
13.447
  0
LINE
  8
0
 10
42.4542
 20
13.447
 11
42.4395
 21
13.578
  0
LINE
  8
0
 10
42.4395
 20
13.578
 11
42.4413
 21
13.7099
  0
LINE
  8
0
 10
42.4413
 20
13.7099
 11
42.4597
 21
13.8404
  0
LINE
  8
0
 10
42.4597
 20
13.8404
 11
42.4942
 21
13.9677
  0
LINE
  8
0
 10
42.4942
 20
13.9677
 11
42.5445
 21
14.0896
  0
LINE
  8
0
 10
42.5445
 20
14.0896
 11
42.6096
 21
14.2043
  0
LINE
  8
0
 10
42.6096
 20
14.2043
 11
42.6886
 21
14.3098
  0
LINE
  8
0
 10
42.6886
 20
14.3098
 11
42.7802
 21
14.4047
  0
LINE
  8
0
 10
42.7802
 20
14.4047
 11
42.883
 21
14.4873
  0
LINE
  8
0
 10
42.883
 20
14.4873
 11
42.9953
 21
14.5564
  0
LINE
  8
0
 10
42.9953
 20
14.5564
 11
43.1154
 21
14.6109
  0
LINE
  8
0
 10
43.1154
 20
14.6109
 11
43.2413
 21
14.6499
  0
LINE
  8
0
 10
43.2413
 20
14.6499
 11
43.3712
 21
14.6728
  0
LINE
  8
0
 10
43.3712
 20
14.6728
 11
43.5029
 21
14.6792
  0
LINE
  8
0
 10
43.5029
 20
14.6792
 11
43.6344
 21
14.6691
  0
LINE
  8
0
 10
43.6344
 20
14.6691
 11
43.7635
 21
14.6426
  0
LINE
  8
0
 10
43.7635
 20
14.6426
 11
43.8883
 21
14.6001
  0
LINE
  8
0
 10
43.8883
 20
14.6001
 11
44.0069
 21
14.5423
  0
LINE
  8
0
 10
44.0069
 20
14.5423
 11
44.1172
 21
14.4701
  0
LINE
  8
0
 10
44.1172
 20
14.4701
 11
44.2176
 21
14.3846
  0
LINE
  8
0
 10
44.2176
 20
14.3846
 11
44.3065
 21
14.2872
  0
LINE
  8
0
 10
44.3065
 20
14.2872
 11
44.3825
 21
14.1795
  0
LINE
  8
0
 10
44.3825
 20
14.1795
 11
44.4444
 21
14.0631
  0
LINE
  8
0
 10
44.4444
 20
14.0631
 11
44.4913
 21
13.9398
  0
LINE
  8
0
 10
44.4913
 20
13.9398
 11
44.5223
 21
13.8116
  0
LINE
  8
0
 10
44.5223
 20
13.8116
 11
44.537
 21
13.6806
  0
LINE
  8
0
 10
44.537
 20
13.6806
 11
44.5351
 21
13.5488
  0
LINE
  8
0
 10
44.5351
 20
13.5488
 11
44.5168
 21
13.4182
  0
LINE
  8
0
 10
44.5168
 20
13.4182
 11
44.4822
 21
13.2909
  0
LINE
  8
0
 10
44.4822
 20
13.2909
 11
44.4319
 21
13.169
  0
LINE
  8
0
 10
44.4319
 20
13.169
 11
44.3668
 21
13.0544
  0
LINE
  8
0
 10
44.3668
 20
13.0544
 11
44.2878
 21
12.9488
  0
LINE
  8
0
 10
44.2878
 20
12.9488
 11
44.1962
 21
12.8539
  0
LINE
  8
0
 10
44.1962
 20
12.8539
 11
44.0935
 21
12.7713
  0
LINE
  8
0
 10
44.0935
 20
12.7713
 11
43.9812
 21
12.7022
  0
LINE
  8
0
 10
43.9812
 20
12.7022
 11
43.8611
 21
12.6478
  0
LINE
  8
0
 10
43.8611
 20
12.6478
 11
43.7351
 21
12.6087
  0
LINE
  8
0
 10
43.7351
 20
12.6087
 11
43.6053
 21
12.5858
  0
LINE
  8
0
 10
43.6053
 20
12.5858
 11
43.4736
 21
12.5794
  0
LINE
  8
0
 10
43.4736
 20
12.5794
 11
43.3421
 21
12.5895
  0
LINE
  8
0
 10
-43.6053
 20
12.5858
 11
-43.7351
 21
12.6087
  0
LINE
  8
0
 10
-43.7351
 20
12.6087
 11
-43.8611
 21
12.6478
  0
LINE
  8
0
 10
-43.8611
 20
12.6478
 11
-43.9812
 21
12.7022
  0
LINE
  8
0
 10
-43.9812
 20
12.7022
 11
-44.0935
 21
12.7713
  0
LINE
  8
0
 10
-44.0935
 20
12.7713
 11
-44.1962
 21
12.8539
  0
LINE
  8
0
 10
-44.1962
 20
12.8539
 11
-44.2878
 21
12.9488
  0
LINE
  8
0
 10
-44.2878
 20
12.9488
 11
-44.3668
 21
13.0544
  0
LINE
  8
0
 10
-44.3668
 20
13.0544
 11
-44.4319
 21
13.169
  0
LINE
  8
0
 10
-44.4319
 20
13.169
 11
-44.4822
 21
13.2909
  0
LINE
  8
0
 10
-44.4822
 20
13.2909
 11
-44.5168
 21
13.4182
  0
LINE
  8
0
 10
-44.5168
 20
13.4182
 11
-44.5351
 21
13.5488
  0
LINE
  8
0
 10
-44.5351
 20
13.5488
 11
-44.537
 21
13.6806
  0
LINE
  8
0
 10
-44.537
 20
13.6806
 11
-44.5223
 21
13.8116
  0
LINE
  8
0
 10
-44.5223
 20
13.8116
 11
-44.4913
 21
13.9398
  0
LINE
  8
0
 10
-44.4913
 20
13.9398
 11
-44.4444
 21
14.0631
  0
LINE
  8
0
 10
-44.4444
 20
14.0631
 11
-44.3825
 21
14.1795
  0
LINE
  8
0
 10
-44.3825
 20
14.1795
 11
-44.3065
 21
14.2872
  0
LINE
  8
0
 10
-44.3065
 20
14.2872
 11
-44.2176
 21
14.3846
  0
LINE
  8
0
 10
-44.2176
 20
14.3846
 11
-44.1172
 21
14.4701
  0
LINE
  8
0
 10
-44.1172
 20
14.4701
 11
-44.0069
 21
14.5423
  0
LINE
  8
0
 10
-44.0069
 20
14.5423
 11
-43.8883
 21
14.6001
  0
LINE
  8
0
 10
-43.8883
 20
14.6001
 11
-43.7635
 21
14.6426
  0
LINE
  8
0
 10
-43.7635
 20
14.6426
 11
-43.6344
 21
14.6691
  0
LINE
  8
0
 10
-43.6344
 20
14.6691
 11
-43.5029
 21
14.6792
  0
LINE
  8
0
 10
-43.5029
 20
14.6792
 11
-43.3712
 21
14.6728
  0
LINE
  8
0
 10
-43.3712
 20
14.6728
 11
-43.2413
 21
14.6499
  0
LINE
  8
0
 10
-43.2413
 20
14.6499
 11
-43.1154
 21
14.6109
  0
LINE
  8
0
 10
-43.1154
 20
14.6109
 11
-42.9953
 21
14.5564
  0
LINE
  8
0
 10
-42.9953
 20
14.5564
 11
-42.883
 21
14.4873
  0
LINE
  8
0
 10
-42.883
 20
14.4873
 11
-42.7802
 21
14.4047
  0
LINE
  8
0
 10
-42.7802
 20
14.4047
 11
-42.6886
 21
14.3098
  0
LINE
  8
0
 10
-42.6886
 20
14.3098
 11
-42.6096
 21
14.2043
  0
LINE
  8
0
 10
-42.6096
 20
14.2043
 11
-42.5445
 21
14.0896
  0
LINE
  8
0
 10
-42.5445
 20
14.0896
 11
-42.4942
 21
13.9677
  0
LINE
  8
0
 10
-42.4942
 20
13.9677
 11
-42.4597
 21
13.8404
  0
LINE
  8
0
 10
-42.4597
 20
13.8404
 11
-42.4413
 21
13.7099
  0
LINE
  8
0
 10
-42.4413
 20
13.7099
 11
-42.4395
 21
13.578
  0
LINE
  8
0
 10
-42.4395
 20
13.578
 11
-42.4542
 21
13.447
  0
LINE
  8
0
 10
-42.4542
 20
13.447
 11
-42.4852
 21
13.3188
  0
LINE
  8
0
 10
-42.4852
 20
13.3188
 11
-42.532
 21
13.1955
  0
LINE
  8
0
 10
-42.532
 20
13.1955
 11
-42.5939
 21
13.0791
  0
LINE
  8
0
 10
-42.5939
 20
13.0791
 11
-42.6699
 21
12.9714
  0
LINE
  8
0
 10
-42.6699
 20
12.9714
 11
-42.7588
 21
12.874
  0
LINE
  8
0
 10
-42.7588
 20
12.874
 11
-42.8592
 21
12.7885
  0
LINE
  8
0
 10
-42.8592
 20
12.7885
 11
-42.9696
 21
12.7163
  0
LINE
  8
0
 10
-42.9696
 20
12.7163
 11
-43.0881
 21
12.6585
  0
LINE
  8
0
 10
-43.0881
 20
12.6585
 11
-43.2129
 21
12.616
  0
LINE
  8
0
 10
-43.2129
 20
12.616
 11
-43.3421
 21
12.5895
  0
LINE
  8
0
 10
-43.3421
 20
12.5895
 11
-43.4736
 21
12.5794
  0
LINE
  8
0
 10
-43.4736
 20
12.5794
 11
-43.6053
 21
12.5858
  0
ENDSEC
  0
SECTION
  2
OBJECTS
  0
DICTIONARY
  0
ENDSEC
  0
EOF
