  0
SECTION
  2
HEADER
  9
$ACADVER
  1
AC1014
  9
$HANDSEED
  5
FFFF
  9
$MEASUREMENT
 70
     1
  0
ENDSEC
  0
SECTION
  2
TABLES
  0
TABLE
  2
VPORT
  5
8
330
0
100
AcDbSymbolTable
 70
     4
  0
VPORT
  5
2E
330
8
100
AcDbSymbolTableRecord
100
AcDbViewportTableRecord
  2
*ACTIVE
 70
     0
 10
0.0
 20
0.0
 11
1.0
 21
1.0
 12
210.0
 22
148.5
 13
0.0
 23
0.0
 14
10.0
 24
10.0
 15
10.0
 25
10.0
 16
0.0
 26
0.0
 36
1.0
 17
0.0
 27
0.0
 37
0.0
 40
341.0
 41
1.24
 42
50.0
 43
0.0
 44
0.0
 50
0.0
 51
0.0
 71
     0
 72
   100
 73
     1
 74
     3
 75
     0
 76
     0
 77
     0
 78
     0
  0
ENDTAB
  0
TABLE
  2
LTYPE
  5
5
330
0
100
AcDbSymbolTable
 70
     1
  0
LTYPE
  5
14
330
5
100
AcDbSymbolTableRecord
100
AcDbLinetypeTableRecord
  2
BYBLOCK
 70
     0
  3

 72
    65
 73
     0
 40
0.0
  0
LTYPE
  5
15
330
5
100
AcDbSymbolTableRecord
100
AcDbLinetypeTableRecord
  2
BYLAYER
 70
     0
  3

 72
    65
 73
     0
 40
0.0
  0
LTYPE
  5
16
330
5
100
AcDbSymbolTableRecord
100
AcDbLinetypeTableRecord
  2
CONTINUOUS
 70
     0
  3
Solid line
 72
    65
 73
     0
 40
0.0
  0
ENDTAB
  0
TABLE
  2
LAYER
  5
2
100
AcDbSymbolTable
 70
1
  0
LAYER
  5
50
100
AcDbSymbolTableRecord
100
AcDbLayerTableRecord
  2
0
 70
0
  6
CONTINUOUS
  0
ENDTAB
  0
TABLE
  2
STYLE
  5
3
330
0
100
AcDbSymbolTable
 70
     1
  0
STYLE
  5
11
330
3
100
AcDbSymbolTableRecord
100
AcDbTextStyleTableRecord
  2
STANDARD
 70
     0
 40
0.0
 41
1.0
 50
0.0
 71
     0
 42
2.5
  3
txt
  4

  0
ENDTAB
  0
TABLE
  2
VIEW
  5
6
330
0
100
AcDbSymbolTable
 70
     0
  0
ENDTAB
  0
TABLE
  2
UCS
  5
7
330
0
100
AcDbSymbolTable
 70
     0
  0
ENDTAB
  0
TABLE
  2
APPID
  5
9
330
0
100
AcDbSymbolTable
 70
     2
  0
APPID
  5
12
330
9
100
AcDbSymbolTableRecord
100
AcDbRegAppTableRecord
  2
ACAD
 70
     0
  0
ENDTAB
  0
TABLE
  2
DIMSTYLE
  5
A
330
0
100
AcDbSymbolTable
 70
     1
  0
DIMSTYLE
105
27
330
A
100
AcDbSymbolTableRecord
100
AcDbDimStyleTableRecord
  2
ISO-25
 70
     0
  3

  4

  5

  6

  7

 40
1.0
 41
2.5
 42
0.625
 43
3.75
 44
1.25
 45
0.0
 46
0.0
 47
0.0
 48
0.0
140
2.5
141
2.5
142
0.0
143
0.03937007874016
144
1.0
145
0.0
146
1.0
147
0.625
 71
     0
 72
     0
 73
     0
 74
     0
 75
     0
 76
     0
 77
     1
 78
     8
170
     0
171
     3
172
     1
173
     0
174
     0
175
     0
176
     0
177
     0
178
     0
270
     2
271
     2
272
     2
273
     2
274
     3
340
11
275
     0
280
     0
281
     0
282
     0
283
     0
284
     8
285
     0
286
     0
287
     3
288
     0
  0
ENDTAB
  0
TABLE
  2
BLOCK_RECORD
  5
1
330
0
100
AcDbSymbolTable
 70
     1
  0
BLOCK_RECORD
  5
1F
330
1
100
AcDbSymbolTableRecord
100
AcDbBlockTableRecord
  2
*MODEL_SPACE
  0
BLOCK_RECORD
  5
1B
330
1
100
AcDbSymbolTableRecord
100
AcDbBlockTableRecord
  2
*PAPER_SPACE
  0
ENDTAB
  0
ENDSEC
  0
SECTION
  2
BLOCKS
  0
BLOCK
  5
20
330
1F
100
AcDbEntity
  8
0
100
AcDbBlockBegin
  2
*MODEL_SPACE
 70
     0
 10
0.0
 20
0.0
 30
0.0
  3
*MODEL_SPACE
  1

  0
ENDBLK
  5
21
330
1F
100
AcDbEntity
  8
0
100
AcDbBlockEnd
  0
BLOCK
  5
1C
330
1B
100
AcDbEntity
 67
     1
  8
0
100
AcDbBlockBegin
  2
*PAPER_SPACE
  1

  0
ENDBLK
  5
1D
330
1B
100
AcDbEntity
 67
     1
  8
0
100
AcDbBlockEnd
  0
ENDSEC
  0
SECTION
  2
ENTITIES
  0
LWPOLYLINE
  5
100
100
AcDbEntity
  8
0
 62
7
100
AcDbPolyline
 90
25
 70
0
 10
0.400000
 20
98.801840
 30
0.0
 10
0.451040
 20
104.400320
 30
0.0
 10
40.813544
 20
333.312104
 30
0.0
 10
42.681576
 20
338.587384
 30
0.0
 10
46.159688
 20
342.975416
 30
0.0
 10
50.873704
 20
345.994312
 30
0.0
 10
56.313384
 20
347.318088
 30
0.0
 10
761.890712
 20
347.318088
 30
0.0
 10
767.330392
 20
345.994312
 30
0.0
 10
772.044408
 20
342.975416
 30
0.0
 10
775.522520
 20
338.587384
 30
0.0
 10
777.390552
 20
333.312104
 30
0.0
 10
817.753072
 20
104.400320
 30
0.0
 10
817.804112
 20
98.801840
 30
0.0
 10
816.035272
 20
93.492560
 30
0.0
 10
812.636536
 20
89.042160
 30
0.0
 10
807.979216
 20
85.938240
 30
0.0
 10
802.565040
 20
84.509600
 30
0.0
 10
480.625827
 20
0.400000
 30
0.0
 10
337.578269
 20
0.400000
 30
0.0
 10
15.639056
 20
84.509600
 30
0.0
 10
10.224880
 20
85.938240
 30
0.0
 10
5.567560
 20
89.042160
 30
0.0
 10
2.168824
 20
93.492560
 30
0.0
 10
0.400000
 20
98.801840
 30
0.0
  0
LWPOLYLINE
  5
101
100
AcDbEntity
  8
0
 62
7
100
AcDbPolyline
 90
63
 70
0
 10
0.400000
 20
523.998720
 30
0.0
 10
0.451040
 20
529.597144
 30
0.0
 10
40.813544
 20
758.508960
 30
0.0
 10
42.681576
 20
763.784232
 30
0.0
 10
46.159688
 20
768.172264
 30
0.0
 10
50.873704
 20
771.191160
 30
0.0
 10
56.313384
 20
772.514944
 30
0.0
 10
377.920946
 20
772.514944
 30
0.0
 10
377.920946
 20
772.390216
 30
0.0
 10
379.324095
 20
772.506440
 30
0.0
 10
384.752442
 20
771.131632
 30
0.0
 10
389.440946
 20
768.067384
 30
0.0
 10
392.879371
 20
763.651008
 30
0.0
 10
394.696378
 20
758.355888
 30
0.0
 10
394.696378
 20
752.754624
 30
0.0
 10
392.879371
 20
747.459512
 30
0.0
 10
389.440946
 20
743.043128
 30
0.0
 10
384.752442
 20
739.978880
 30
0.0
 10
379.324095
 20
738.604072
 30
0.0
 10
377.920946
 20
738.720296
 30
0.0
 10
377.920946
 20
737.492896
 30
0.0
 10
70.208824
 20
737.492896
 30
0.0
 10
42.151496
 20
578.372896
 30
0.0
 10
35.260472
 20
539.291632
 30
0.0
 10
298.122832
 20
479.268016
 30
0.0
 10
390.245985
 20
463.025496
 30
0.0
 10
427.958111
 20
463.025496
 30
0.0
 10
520.081264
 20
479.268016
 30
0.0
 10
782.943624
 20
539.291632
 30
0.0
 10
776.052600
 20
578.372896
 30
0.0
 10
747.995272
 20
737.492896
 30
0.0
 10
440.283150
 20
737.492896
 30
0.0
 10
440.283150
 20
738.720296
 30
0.0
 10
438.880001
 20
738.604072
 30
0.0
 10
433.451654
 20
739.978880
 30
0.0
 10
428.763150
 20
743.043128
 30
0.0
 10
425.324725
 20
747.459512
 30
0.0
 10
423.507718
 20
752.754624
 30
0.0
 10
423.507718
 20
758.355888
 30
0.0
 10
425.324725
 20
763.651008
 30
0.0
 10
428.763150
 20
768.067384
 30
0.0
 10
433.451654
 20
771.131632
 30
0.0
 10
438.880001
 20
772.506440
 30
0.0
 10
440.283150
 20
772.390216
 30
0.0
 10
440.283150
 20
772.514944
 30
0.0
 10
761.890712
 20
772.514944
 30
0.0
 10
767.330392
 20
771.191160
 30
0.0
 10
772.044408
 20
768.172264
 30
0.0
 10
775.522520
 20
763.784232
 30
0.0
 10
777.390552
 20
758.508960
 30
0.0
 10
817.753072
 20
529.597144
 30
0.0
 10
817.804112
 20
523.998720
 30
0.0
 10
816.035272
 20
518.689432
 30
0.0
 10
812.636536
 20
514.239032
 30
0.0
 10
807.979216
 20
511.135096
 30
0.0
 10
802.565040
 20
509.706440
 30
0.0
 10
480.625827
 20
425.596832
 30
0.0
 10
337.578269
 20
425.596832
 30
0.0
 10
15.639056
 20
509.706440
 30
0.0
 10
10.224880
 20
511.135096
 30
0.0
 10
5.567560
 20
514.239032
 30
0.0
 10
2.168824
 20
518.689432
 30
0.0
 10
0.400000
 20
523.998720
 30
0.0
  0
LWPOLYLINE
  5
102
100
AcDbEntity
  8
0
 62
7
100
AcDbPolyline
 90
6
 70
0
 10
13.014176
 20
102.186400
 30
0.0
 10
16.608504
 20
105.658880
 30
0.0
 10
21.024880
 20
103.311760
 30
0.0
 10
20.154648
 20
98.388000
 30
0.0
 10
15.202520
 20
97.693520
 30
0.0
 10
13.014176
 20
102.186400
 30
0.0
  0
LWPOLYLINE
  5
103
100
AcDbEntity
  8
0
 62
7
100
AcDbPolyline
 90
6
 70
0
 10
13.014176
 20
527.383288
 30
0.0
 10
16.608504
 20
530.855728
 30
0.0
 10
21.024880
 20
528.508640
 30
0.0
 10
20.154648
 20
523.584864
 30
0.0
 10
15.202520
 20
522.890376
 30
0.0
 10
13.014176
 20
527.383288
 30
0.0
  0
LWPOLYLINE
  5
104
100
AcDbEntity
  8
0
 62
7
100
AcDbPolyline
 90
6
 70
0
 10
53.376696
 20
331.095416
 30
0.0
 10
56.971024
 20
334.570688
 30
0.0
 10
61.387400
 20
332.220768
 30
0.0
 10
60.517168
 20
327.296992
 30
0.0
 10
55.565040
 20
326.602504
 30
0.0
 10
53.376696
 20
331.095416
 30
0.0
  0
LWPOLYLINE
  5
105
100
AcDbEntity
  8
0
 62
7
100
AcDbPolyline
 90
6
 70
0
 10
53.376696
 20
756.292264
 30
0.0
 10
56.971024
 20
759.767536
 30
0.0
 10
61.387400
 20
757.417616
 30
0.0
 10
60.517168
 20
752.493840
 30
0.0
 10
55.565040
 20
751.799352
 30
0.0
 10
53.376696
 20
756.292264
 30
0.0
  0
LWPOLYLINE
  5
106
100
AcDbEntity
  8
0
 62
7
100
AcDbPolyline
 90
6
 70
0
 10
334.953386
 20
18.074000
 30
0.0
 10
338.547718
 20
21.549280
 30
0.0
 10
342.961261
 20
19.202160
 30
0.0
 10
342.093859
 20
14.275600
 30
0.0
 10
337.141733
 20
13.581120
 30
0.0
 10
334.953386
 20
18.074000
 30
0.0
  0
LWPOLYLINE
  5
107
100
AcDbEntity
  8
0
 62
7
100
AcDbPolyline
 90
6
 70
0
 10
334.953386
 20
443.270848
 30
0.0
 10
338.547718
 20
446.746120
 30
0.0
 10
342.961261
 20
444.399040
 30
0.0
 10
342.093859
 20
439.472424
 30
0.0
 10
337.141733
 20
438.777936
 30
0.0
 10
334.953386
 20
443.270848
 30
0.0
  0
LWPOLYLINE
  5
108
100
AcDbEntity
  8
0
 62
7
100
AcDbPolyline
 90
6
 70
0
 10
373.668977
 20
330.358408
 30
0.0
 10
376.605670
 20
334.403448
 30
0.0
 10
381.362206
 20
332.858560
 30
0.0
 10
381.362206
 20
327.858248
 30
0.0
 10
376.605670
 20
326.313368
 30
0.0
 10
373.668977
 20
330.358408
 30
0.0
  0
LWPOLYLINE
  5
109
100
AcDbEntity
  8
0
 62
7
100
AcDbPolyline
 90
6
 70
0
 10
373.668977
 20
755.555256
 30
0.0
 10
376.605670
 20
759.600296
 30
0.0
 10
381.362206
 20
758.055416
 30
0.0
 10
381.362206
 20
753.055096
 30
0.0
 10
376.605670
 20
751.510216
 30
0.0
 10
373.668977
 20
755.555256
 30
0.0
  0
LWPOLYLINE
  5
10a
100
AcDbEntity
  8
0
 62
1
100
AcDbPolyline
 90
5
 70
0
 10
394.928820
 20
648.674944
 30
0.0
 10
394.928820
 20
677.021400
 30
0.0
 10
423.275276
 20
677.021400
 30
0.0
 10
423.275276
 20
648.674944
 30
0.0
 10
394.928820
 20
648.674944
 30
0.0
  0
LWPOLYLINE
  5
10b
100
AcDbEntity
  8
0
 62
7
100
AcDbPolyline
 90
6
 70
0
 10
436.841890
 20
327.858248
 30
0.0
 10
436.841890
 20
332.858560
 30
0.0
 10
441.598426
 20
334.403448
 30
0.0
 10
444.535119
 20
330.358408
 30
0.0
 10
441.598426
 20
326.313368
 30
0.0
 10
436.841890
 20
327.858248
 30
0.0
  0
LWPOLYLINE
  5
10c
100
AcDbEntity
  8
0
 62
7
100
AcDbPolyline
 90
6
 70
0
 10
436.841890
 20
753.055096
 30
0.0
 10
436.841890
 20
758.055416
 30
0.0
 10
441.598426
 20
759.600296
 30
0.0
 10
444.535119
 20
755.555256
 30
0.0
 10
441.598426
 20
751.510216
 30
0.0
 10
436.841890
 20
753.055096
 30
0.0
  0
LWPOLYLINE
  5
10d
100
AcDbEntity
  8
0
 62
7
100
AcDbPolyline
 90
6
 70
0
 10
475.242835
 20
19.202160
 30
0.0
 10
479.656378
 20
21.549280
 30
0.0
 10
483.250710
 20
18.074000
 30
0.0
 10
481.062363
 20
13.581120
 30
0.0
 10
476.110237
 20
14.275600
 30
0.0
 10
475.242835
 20
19.202160
 30
0.0
  0
LWPOLYLINE
  5
10e
100
AcDbEntity
  8
0
 62
7
100
AcDbPolyline
 90
6
 70
0
 10
475.242835
 20
444.399040
 30
0.0
 10
479.656378
 20
446.746120
 30
0.0
 10
483.250710
 20
443.270848
 30
0.0
 10
481.062363
 20
438.777936
 30
0.0
 10
476.110237
 20
439.472424
 30
0.0
 10
475.242835
 20
444.399040
 30
0.0
  0
LWPOLYLINE
  5
10f
100
AcDbEntity
  8
0
 62
7
100
AcDbPolyline
 90
6
 70
0
 10
756.816696
 20
332.220768
 30
0.0
 10
761.233072
 20
334.570688
 30
0.0
 10
764.827400
 20
331.095416
 30
0.0
 10
762.639056
 20
326.602504
 30
0.0
 10
757.686928
 20
327.296992
 30
0.0
 10
756.816696
 20
332.220768
 30
0.0
  0
LWPOLYLINE
  5
110
100
AcDbEntity
  8
0
 62
7
100
AcDbPolyline
 90
6
 70
0
 10
756.816696
 20
757.417616
 30
0.0
 10
761.233072
 20
759.767536
 30
0.0
 10
764.827400
 20
756.292264
 30
0.0
 10
762.639056
 20
751.799352
 30
0.0
 10
757.686928
 20
752.493840
 30
0.0
 10
756.816696
 20
757.417616
 30
0.0
  0
LWPOLYLINE
  5
111
100
AcDbEntity
  8
0
 62
7
100
AcDbPolyline
 90
6
 70
0
 10
797.179216
 20
103.311760
 30
0.0
 10
801.595592
 20
105.658880
 30
0.0
 10
805.189920
 20
102.186400
 30
0.0
 10
803.001576
 20
97.693520
 30
0.0
 10
798.049448
 20
98.388000
 30
0.0
 10
797.179216
 20
103.311760
 30
0.0
  0
LWPOLYLINE
  5
112
100
AcDbEntity
  8
0
 62
7
100
AcDbPolyline
 90
6
 70
0
 10
797.179216
 20
528.508640
 30
0.0
 10
801.595592
 20
530.855728
 30
0.0
 10
805.189920
 20
527.383288
 30
0.0
 10
803.001576
 20
522.890376
 30
0.0
 10
798.049448
 20
523.584864
 30
0.0
 10
797.179216
 20
528.508640
 30
0.0
  0
LWPOLYLINE
  5
113
100
AcDbEntity
  8
0
 62
7
100
AcDbPolyline
 90
14
 70
0
 10
850.793704
 20
98.801840
 30
0.0
 10
850.844744
 20
104.400320
 30
0.0
 10
891.207248
 20
333.312104
 30
0.0
 10
893.075280
 20
338.587384
 30
0.0
 10
896.553384
 20
342.975416
 30
0.0
 10
901.267400
 20
345.994312
 30
0.0
 10
906.707088
 20
347.318088
 30
0.0
 10
1612.284448
 20
347.318088
 30
0.0
 10
1617.724128
 20
345.994312
 30
0.0
 10
1622.438128
 20
342.975416
 30
0.0
 10
1625.916208
 20
338.587384
 30
0.0
 10
1627.784288
 20
333.312104
 30
0.0
 10
1668.146768
 20
104.400320
 30
0.0
 10
1668.197968
 20
98.801840
 30
0.0
  0
LWPOLYLINE
  5
114
100
AcDbEntity
  8
0
 62
7
100
AcDbPolyline
 90
12
 70
0
 10
1668.197808
 20
98.801840
 30
0.0
 10
1666.429008
 20
93.492560
 30
0.0
 10
1663.030208
 20
89.042160
 30
0.0
 10
1658.372928
 20
85.938240
 30
0.0
 10
1652.958768
 20
84.509600
 30
0.0
 10
1331.019568
 20
0.400000
 30
0.0
 10
1187.971968
 20
0.400000
 30
0.0
 10
866.032760
 20
84.509600
 30
0.0
 10
860.618584
 20
85.938240
 30
0.0
 10
855.961264
 20
89.042160
 30
0.0
 10
852.562520
 20
93.492560
 30
0.0
 10
850.793704
 20
98.801840
 30
0.0
  0
LWPOLYLINE
  5
115
100
AcDbEntity
  8
0
 62
7
100
AcDbPolyline
 90
14
 70
0
 10
850.793704
 20
523.998720
 30
0.0
 10
850.844744
 20
529.597144
 30
0.0
 10
891.207248
 20
758.508960
 30
0.0
 10
893.075280
 20
763.784232
 30
0.0
 10
896.553384
 20
768.172264
 30
0.0
 10
901.267400
 20
771.191160
 30
0.0
 10
906.707088
 20
772.514944
 30
0.0
 10
1612.284448
 20
772.514944
 30
0.0
 10
1617.724128
 20
771.191160
 30
0.0
 10
1622.438128
 20
768.172264
 30
0.0
 10
1625.916208
 20
763.784232
 30
0.0
 10
1627.784288
 20
758.508960
 30
0.0
 10
1668.146768
 20
529.597144
 30
0.0
 10
1668.197968
 20
523.998720
 30
0.0
  0
LWPOLYLINE
  5
116
100
AcDbEntity
  8
0
 62
7
100
AcDbPolyline
 90
12
 70
0
 10
1668.197808
 20
523.998720
 30
0.0
 10
1666.429008
 20
518.689432
 30
0.0
 10
1663.030208
 20
514.239032
 30
0.0
 10
1658.372928
 20
511.135096
 30
0.0
 10
1652.958768
 20
509.706440
 30
0.0
 10
1331.019568
 20
425.596832
 30
0.0
 10
1187.971968
 20
425.596832
 30
0.0
 10
866.032760
 20
509.706440
 30
0.0
 10
860.618584
 20
511.135096
 30
0.0
 10
855.961264
 20
514.239032
 30
0.0
 10
852.562520
 20
518.689432
 30
0.0
 10
850.793704
 20
523.998720
 30
0.0
  0
LWPOLYLINE
  5
117
100
AcDbEntity
  8
0
 62
7
100
AcDbPolyline
 90
6
 70
0
 10
863.407872
 20
102.186400
 30
0.0
 10
867.002208
 20
105.658880
 30
0.0
 10
871.418584
 20
103.311760
 30
0.0
 10
870.548344
 20
98.388000
 30
0.0
 10
865.596224
 20
97.693520
 30
0.0
 10
863.407872
 20
102.186400
 30
0.0
  0
LWPOLYLINE
  5
118
100
AcDbEntity
  8
0
 62
7
100
AcDbPolyline
 90
6
 70
0
 10
863.407872
 20
527.383288
 30
0.0
 10
867.002208
 20
530.855728
 30
0.0
 10
871.418584
 20
528.508640
 30
0.0
 10
870.548344
 20
523.584864
 30
0.0
 10
865.596224
 20
522.890376
 30
0.0
 10
863.407872
 20
527.383288
 30
0.0
  0
LWPOLYLINE
  5
119
100
AcDbEntity
  8
0
 62
7
100
AcDbPolyline
 90
21
 70
0
 10
883.916536
 20
542.460768
 30
0.0
 10
885.640000
 20
552.234624
 30
0.0
 10
887.910552
 20
551.834944
 30
0.0
 10
890.376696
 20
565.815416
 30
0.0
 10
888.106144
 20
566.215096
 30
0.0
 10
889.829608
 20
575.988960
 30
0.0
 10
892.097320
 20
575.589272
 30
0.0
 10
892.582048
 20
578.324704
 30
0.0
 10
931.578272
 20
571.447856
 30
0.0
 10
931.096376
 20
568.712424
 30
0.0
 10
933.366928
 20
568.312736
 30
0.0
 10
931.643464
 20
558.538880
 30
0.0
 10
929.372912
 20
558.938560
 30
0.0
 10
926.909608
 20
544.958088
 30
0.0
 10
929.177320
 20
544.558408
 30
0.0
 10
927.453856
 20
534.784552
 30
0.0
 10
925.186144
 20
535.184232
 30
0.0
 10
924.704256
 20
532.448800
 30
0.0
 10
885.705200
 20
539.325648
 30
0.0
 10
886.187088
 20
542.061080
 30
0.0
 10
883.916536
 20
542.460768
 30
0.0
  0
LWPOLYLINE
  5
11a
100
AcDbEntity
  8
0
 62
7
100
AcDbPolyline
 90
11
 70
0
 10
885.654176
 20
114.094800
 30
0.0
 10
892.545200
 20
153.176048
 30
0.0
 10
920.602520
 20
312.296048
 30
0.0
 10
1598.389008
 20
312.296048
 30
0.0
 10
1626.446288
 20
153.176048
 30
0.0
 10
1633.337328
 20
114.094800
 30
0.0
 10
1370.474928
 20
54.071200
 30
0.0
 10
1278.351808
 20
37.828640
 30
0.0
 10
1240.639648
 20
37.828640
 30
0.0
 10
1148.516536
 20
54.071200
 30
0.0
 10
885.654176
 20
114.094800
 30
0.0
  0
LWPOLYLINE
  5
11b
100
AcDbEntity
  8
0
 62
7
100
AcDbPolyline
 90
21
 70
0
 10
893.270864
 20
595.502656
 30
0.0
 10
894.994328
 20
605.273680
 30
0.0
 10
897.262048
 20
604.874000
 30
0.0
 10
899.728192
 20
618.854472
 30
0.0
 10
897.457640
 20
619.254152
 30
0.0
 10
899.181104
 20
629.028016
 30
0.0
 10
901.451656
 20
628.628328
 30
0.0
 10
901.933544
 20
631.363760
 30
0.0
 10
940.932600
 20
624.486912
 30
0.0
 10
940.450712
 20
621.751480
 30
0.0
 10
942.718424
 20
621.351792
 30
0.0
 10
940.994960
 20
611.577936
 30
0.0
 10
938.727248
 20
611.977616
 30
0.0
 10
936.261104
 20
597.997144
 30
0.0
 10
938.531656
 20
597.597464
 30
0.0
 10
936.808192
 20
587.823600
 30
0.0
 10
934.537640
 20
588.226120
 30
0.0
 10
934.055752
 20
585.487856
 30
0.0
 10
895.056696
 20
592.364704
 30
0.0
 10
895.538584
 20
595.100136
 30
0.0
 10
893.270864
 20
595.502656
 30
0.0
  0
LWPOLYLINE
  5
11c
100
AcDbEntity
  8
0
 62
7
100
AcDbPolyline
 90
21
 70
0
 10
902.622360
 20
648.541712
 30
0.0
 10
904.345824
 20
658.315576
 30
0.0
 10
906.616376
 20
657.915888
 30
0.0
 10
909.079688
 20
671.893528
 30
0.0
 10
906.809136
 20
672.296048
 30
0.0
 10
908.532600
 20
682.067072
 30
0.0
 10
910.803152
 20
681.667384
 30
0.0
 10
911.285040
 20
684.402816
 30
0.0
 10
950.284096
 20
677.528800
 30
0.0
 10
949.802208
 20
674.790536
 30
0.0
 10
952.072760
 20
674.390848
 30
0.0
 10
950.349288
 20
664.616992
 30
0.0
 10
948.078744
 20
665.019512
 30
0.0
 10
945.612600
 20
651.039040
 30
0.0
 10
947.883152
 20
650.639352
 30
0.0
 10
946.159688
 20
640.865496
 30
0.0
 10
943.889136
 20
641.265176
 30
0.0
 10
943.407248
 20
638.529744
 30
0.0
 10
904.408192
 20
645.406592
 30
0.0
 10
904.892912
 20
648.142032
 30
0.0
 10
902.622360
 20
648.541712
 30
0.0
  0
LWPOLYLINE
  5
11d
100
AcDbEntity
  8
0
 62
7
100
AcDbPolyline
 90
6
 70
0
 10
903.770392
 20
331.095416
 30
0.0
 10
907.364728
 20
334.570688
 30
0.0
 10
911.781104
 20
332.220768
 30
0.0
 10
910.910864
 20
327.296992
 30
0.0
 10
905.958744
 20
326.602504
 30
0.0
 10
903.770392
 20
331.095416
 30
0.0
  0
LWPOLYLINE
  5
11e
100
AcDbEntity
  8
0
 62
7
100
AcDbPolyline
 90
6
 70
0
 10
903.770392
 20
756.292264
 30
0.0
 10
907.364728
 20
759.767536
 30
0.0
 10
911.781104
 20
757.417616
 30
0.0
 10
910.910864
 20
752.493840
 30
0.0
 10
905.958744
 20
751.799352
 30
0.0
 10
903.770392
 20
756.292264
 30
0.0
  0
LWPOLYLINE
  5
11f
100
AcDbEntity
  8
0
 62
7
100
AcDbPolyline
 90
21
 70
0
 10
911.973856
 20
701.580768
 30
0.0
 10
913.697320
 20
711.354624
 30
0.0
 10
915.967872
 20
710.954944
 30
0.0
 10
918.431184
 20
724.935416
 30
0.0
 10
916.163464
 20
725.335096
 30
0.0
 10
917.886928
 20
735.108960
 30
0.0
 10
920.154648
 20
734.709272
 30
0.0
 10
920.639368
 20
737.444704
 30
0.0
 10
959.635592
 20
730.567856
 30
0.0
 10
959.153704
 20
727.832424
 30
0.0
 10
961.424256
 20
727.432736
 30
0.0
 10
959.700784
 20
717.658880
 30
0.0
 10
957.430240
 20
718.058568
 30
0.0
 10
954.966928
 20
704.078088
 30
0.0
 10
957.234648
 20
703.678408
 30
0.0
 10
955.511184
 20
693.904552
 30
0.0
 10
953.243464
 20
694.304232
 30
0.0
 10
952.758744
 20
691.568800
 30
0.0
 10
913.762520
 20
698.445648
 30
0.0
 10
914.244408
 20
701.181080
 30
0.0
 10
911.973856
 20
701.580768
 30
0.0
  0
LWPOLYLINE
  5
120
100
AcDbEntity
  8
0
 62
7
100
AcDbPolyline
 90
21
 70
0
 10
936.958424
 20
533.109272
 30
0.0
 10
938.681888
 20
542.883128
 30
0.0
 10
940.949608
 20
542.483448
 30
0.0
 10
943.415752
 20
556.461080
 30
0.0
 10
941.145200
 20
556.863600
 30
0.0
 10
942.868664
 20
566.634624
 30
0.0
 10
945.139216
 20
566.234944
 30
0.0
 10
945.621104
 20
568.970376
 30
0.0
 10
984.620160
 20
562.096360
 30
0.0
 10
984.138272
 20
559.358088
 30
0.0
 10
986.405984
 20
558.958408
 30
0.0
 10
984.682520
 20
549.184552
 30
0.0
 10
982.414800
 20
549.587064
 30
0.0
 10
979.948664
 20
535.606592
 30
0.0
 10
982.219216
 20
535.204072
 30
0.0
 10
980.495752
 20
525.433048
 30
0.0
 10
978.225200
 20
525.832736
 30
0.0
 10
977.743304
 20
523.097304
 30
0.0
 10
938.744256
 20
529.974152
 30
0.0
 10
939.226144
 20
532.709584
 30
0.0
 10
936.958424
 20
533.109272
 30
0.0
  0
LWPOLYLINE
  5
121
100
AcDbEntity
  8
0
 62
7
100
AcDbPolyline
 90
21
 70
0
 10
946.309920
 20
586.148328
 30
0.0
 10
948.033384
 20
595.922184
 30
0.0
 10
950.303936
 20
595.522504
 30
0.0
 10
952.767248
 20
609.502976
 30
0.0
 10
950.499528
 20
609.902656
 30
0.0
 10
952.220160
 20
619.676520
 30
0.0
 10
954.490712
 20
619.276832
 30
0.0
 10
954.972600
 20
622.012264
 30
0.0
 10
993.971656
 20
615.135416
 30
0.0
 10
993.489768
 20
612.399984
 30
0.0
 10
995.760320
 20
612.000296
 30
0.0
 10
994.036848
 20
602.226440
 30
0.0
 10
991.766304
 20
602.626120
 30
0.0
 10
989.300160
 20
588.645648
 30
0.0
 10
991.570712
 20
588.245968
 30
0.0
 10
989.847248
 20
578.472104
 30
0.0
 10
987.576696
 20
578.871792
 30
0.0
 10
987.094800
 20
576.136360
 30
0.0
 10
948.095752
 20
583.013208
 30
0.0
 10
948.580472
 20
585.748640
 30
0.0
 10
946.309920
 20
586.148328
 30
0.0
  0
LWPOLYLINE
  5
122
100
AcDbEntity
  8
0
 62
7
100
AcDbPolyline
 90
21
 70
0
 10
955.661416
 20
639.190216
 30
0.0
 10
957.384880
 20
648.961240
 30
0.0
 10
959.655432
 20
648.561560
 30
0.0
 10
962.118744
 20
662.542032
 30
0.0
 10
959.851024
 20
662.941712
 30
0.0
 10
961.574488
 20
672.715576
 30
0.0
 10
963.842208
 20
672.315888
 30
0.0
 10
964.326928
 20
675.051320
 30
0.0
 10
1003.323152
 20
668.174472
 30
0.0
 10
1002.841264
 20
665.439040
 30
0.0
 10
1005.111808
 20
665.039352
 30
0.0
 10
1003.388344
 20
655.265496
 30
0.0
 10
1001.117792
 20
655.665176
 30
0.0
 10
998.654488
 20
641.684704
 30
0.0
 10
1000.922208
 20
641.285024
 30
0.0
 10
999.198744
 20
631.511160
 30
0.0
 10
996.931024
 20
631.913680
 30
0.0
 10
996.449136
 20
629.175416
 30
0.0
 10
957.450080
 20
636.052264
 30
0.0
 10
957.931968
 20
638.787696
 30
0.0
 10
955.661416
 20
639.190216
 30
0.0
  0
LWPOLYLINE
  5
123
100
AcDbEntity
  8
0
 62
7
100
AcDbPolyline
 90
21
 70
0
 10
965.015752
 20
692.229272
 30
0.0
 10
966.739216
 20
702.003128
 30
0.0
 10
969.006928
 20
701.603448
 30
0.0
 10
971.473072
 20
715.581080
 30
0.0
 10
969.202520
 20
715.983600
 30
0.0
 10
970.925984
 20
725.754624
 30
0.0
 10
973.196536
 20
725.354944
 30
0.0
 10
973.678424
 20
728.090376
 30
0.0
 10
1012.677480
 20
721.216360
 30
0.0
 10
1012.195592
 20
718.478088
 30
0.0
 10
1014.463312
 20
718.078408
 30
0.0
 10
1012.739840
 20
708.304552
 30
0.0
 10
1010.472128
 20
708.707072
 30
0.0
 10
1008.005984
 20
694.726592
 30
0.0
 10
1010.276536
 20
694.326912
 30
0.0
 10
1008.553072
 20
684.553056
 30
0.0
 10
1006.282520
 20
684.952736
 30
0.0
 10
1005.800632
 20
682.217304
 30
0.0
 10
966.801576
 20
689.094152
 30
0.0
 10
967.283464
 20
691.829584
 30
0.0
 10
965.015752
 20
692.229272
 30
0.0
  0
LWPOLYLINE
  5
124
100
AcDbEntity
  8
0
 62
7
100
AcDbPolyline
 90
21
 70
0
 10
989.997480
 20
523.757776
 30
0.0
 10
991.720944
 20
533.528800
 30
0.0
 10
993.991496
 20
533.129112
 30
0.0
 10
996.454808
 20
547.109584
 30
0.0
 10
994.187088
 20
547.509272
 30
0.0
 10
995.910552
 20
557.283128
 30
0.0
 10
998.178272
 20
556.883448
 30
0.0
 10
998.660160
 20
559.618880
 30
0.0
 10
1037.659216
 20
552.742032
 30
0.0
 10
1037.177320
 20
550.006592
 30
0.0
 10
1039.447872
 20
549.606912
 30
0.0
 10
1037.724408
 20
539.833048
 30
0.0
 10
1035.453856
 20
540.232736
 30
0.0
 10
1032.987720
 20
526.252264
 30
0.0
 10
1035.258272
 20
525.852576
 30
0.0
 10
1033.534800
 20
516.078720
 30
0.0
 10
1031.264256
 20
516.481240
 30
0.0
 10
1030.782360
 20
513.742976
 30
0.0
 10
991.783312
 20
520.619824
 30
0.0
 10
992.268032
 20
523.355256
 30
0.0
 10
989.997480
 20
523.757776
 30
0.0
  0
LWPOLYLINE
  5
125
100
AcDbEntity
  8
0
 62
7
100
AcDbPolyline
 90
21
 70
0
 10
999.348976
 20
576.796832
 30
0.0
 10
1001.072440
 20
586.570688
 30
0.0
 10
1003.342992
 20
586.171008
 30
0.0
 10
1005.809136
 20
600.148640
 30
0.0
 10
1003.538584
 20
600.551160
 30
0.0
 10
1005.262048
 20
610.322184
 30
0.0
 10
1007.529768
 20
609.922504
 30
0.0
 10
1008.014488
 20
612.657936
 30
0.0
 10
1047.010712
 20
605.783920
 30
0.0
 10
1046.528816
 20
603.045648
 30
0.0
 10
1048.799368
 20
602.645968
 30
0.0
 10
1047.075904
 20
592.872104
 30
0.0
 10
1044.805352
 20
593.274624
 30
0.0
 10
1042.342048
 20
579.294152
 30
0.0
 10
1044.609768
 20
578.894472
 30
0.0
 10
1042.886304
 20
569.120608
 30
0.0
 10
1040.618584
 20
569.520296
 30
0.0
 10
1040.136696
 20
566.784864
 30
0.0
 10
1001.137640
 20
573.661712
 30
0.0
 10
1001.619528
 20
576.397144
 30
0.0
 10
999.348976
 20
576.796832
 30
0.0
  0
LWPOLYLINE
  5
126
100
AcDbEntity
  8
0
 62
7
100
AcDbPolyline
 90
21
 70
0
 10
1008.703304
 20
629.835888
 30
0.0
 10
1010.426776
 20
639.609744
 30
0.0
 10
1012.694488
 20
639.210064
 30
0.0
 10
1015.160632
 20
653.190536
 30
0.0
 10
1012.890080
 20
653.590216
 30
0.0
 10
1014.613544
 20
663.364072
 30
0.0
 10
1016.884096
 20
662.964392
 30
0.0
 10
1017.365984
 20
665.699824
 30
0.0
 10
1056.365040
 20
658.822976
 30
0.0
 10
1055.883152
 20
656.087544
 30
0.0
 10
1058.150864
 20
655.687856
 30
0.0
 10
1056.427400
 20
645.914000
 30
0.0
 10
1054.159688
 20
646.313680
 30
0.0
 10
1051.693544
 20
632.333208
 30
0.0
 10
1053.964096
 20
631.933528
 30
0.0
 10
1052.240632
 20
622.159664
 30
0.0
 10
1049.970080
 20
622.559352
 30
0.0
 10
1049.488192
 20
619.823920
 30
0.0
 10
1010.489136
 20
626.700768
 30
0.0
 10
1010.971024
 20
629.436200
 30
0.0
 10
1008.703304
 20
629.835888
 30
0.0
  0
LWPOLYLINE
  5
127
100
AcDbEntity
  8
0
 62
7
100
AcDbPolyline
 90
21
 70
0
 10
1018.054808
 20
682.877776
 30
0.0
 10
1019.778272
 20
692.648800
 30
0.0
 10
1022.048816
 20
692.249112
 30
0.0
 10
1024.512128
 20
706.229584
 30
0.0
 10
1022.244408
 20
706.629272
 30
0.0
 10
1023.965040
 20
716.403128
 30
0.0
 10
1026.235592
 20
716.003448
 30
0.0
 10
1026.717480
 20
718.738880
 30
0.0
 10
1065.716536
 20
711.862032
 30
0.0
 10
1065.234648
 20
709.126592
 30
0.0
 10
1067.505200
 20
708.726912
 30
0.0
 10
1065.781736
 20
698.953056
 30
0.0
 10
1063.511184
 20
699.352736
 30
0.0
 10
1061.045040
 20
685.372264
 30
0.0
 10
1063.315592
 20
684.972576
 30
0.0
 10
1061.592128
 20
675.198720
 30
0.0
 10
1059.321576
 20
675.601240
 30
0.0
 10
1058.839688
 20
672.862976
 30
0.0
 10
1019.840632
 20
679.739824
 30
0.0
 10
1020.325352
 20
682.475256
 30
0.0
 10
1018.054808
 20
682.877776
 30
0.0
  0
LWPOLYLINE
  5
128
100
AcDbEntity
  8
0
 62
7
100
AcDbPolyline
 90
21
 70
0
 10
1043.036536
 20
514.403448
 30
0.0
 10
1044.760000
 20
524.177304
 30
0.0
 10
1047.030552
 20
523.777616
 30
0.0
 10
1049.496696
 20
537.758088
 30
0.0
 10
1047.226144
 20
538.157776
 30
0.0
 10
1048.949608
 20
547.931632
 30
0.0
 10
1051.220160
 20
547.531952
 30
0.0
 10
1051.702048
 20
550.267384
 30
0.0
 10
1090.698272
 20
543.390536
 30
0.0
 10
1090.216376
 20
540.655096
 30
0.0
 10
1092.486928
 20
540.255416
 30
0.0
 10
1090.763464
 20
530.481552
 30
0.0
 10
1088.492912
 20
530.881240
 30
0.0
 10
1086.029608
 20
516.900768
 30
0.0
 10
1088.297320
 20
516.501080
 30
0.0
 10
1086.573856
 20
506.727224
 30
0.0
 10
1084.306144
 20
507.126912
 30
0.0
 10
1083.824256
 20
504.391480
 30
0.0
 10
1044.825200
 20
511.268328
 30
0.0
 10
1045.307088
 20
514.003760
 30
0.0
 10
1043.036536
 20
514.403448
 30
0.0
  0
LWPOLYLINE
  5
129
100
AcDbEntity
  8
0
 62
7
100
AcDbPolyline
 90
21
 70
0
 10
1052.390864
 20
567.445336
 30
0.0
 10
1054.114328
 20
577.216360
 30
0.0
 10
1056.382048
 20
576.816672
 30
0.0
 10
1058.848192
 20
590.797144
 30
0.0
 10
1056.577640
 20
591.196832
 30
0.0
 10
1058.301104
 20
600.970688
 30
0.0
 10
1060.571656
 20
600.571008
 30
0.0
 10
1061.053544
 20
603.306440
 30
0.0
 10
1100.052600
 20
596.429584
 30
0.0
 10
1099.570712
 20
593.694152
 30
0.0
 10
1101.838424
 20
593.294472
 30
0.0
 10
1100.114960
 20
583.520608
 30
0.0
 10
1097.847248
 20
583.920296
 30
0.0
 10
1095.381104
 20
569.939824
 30
0.0
 10
1097.651656
 20
569.540136
 30
0.0
 10
1095.928192
 20
559.766280
 30
0.0
 10
1093.657640
 20
560.168800
 30
0.0
 10
1093.175752
 20
557.430536
 30
0.0
 10
1054.176696
 20
564.307384
 30
0.0
 10
1054.658584
 20
567.042816
 30
0.0
 10
1052.390864
 20
567.445336
 30
0.0
  0
LWPOLYLINE
  5
12a
100
AcDbEntity
  8
0
 62
7
100
AcDbPolyline
 90
21
 70
0
 10
1061.742360
 20
620.484392
 30
0.0
 10
1063.465824
 20
630.258248
 30
0.0
 10
1065.736376
 20
629.858568
 30
0.0
 10
1068.199688
 20
643.839040
 30
0.0
 10
1065.931968
 20
644.238720
 30
0.0
 10
1067.652600
 20
654.012576
 30
0.0
 10
1069.923152
 20
653.610064
 30
0.0
 10
1070.405040
 20
656.345496
 30
0.0
 10
1109.404096
 20
649.471480
 30
0.0
 10
1108.922208
 20
646.733208
 30
0.0
 10
1111.192760
 20
646.333528
 30
0.0
 10
1109.469296
 20
636.559664
 30
0.0
 10
1107.198744
 20
636.962184
 30
0.0
 10
1104.732600
 20
622.981712
 30
0.0
 10
1107.003152
 20
622.582032
 30
0.0
 10
1105.279688
 20
612.808168
 30
0.0
 10
1103.009136
 20
613.207856
 30
0.0
 10
1102.527248
 20
610.472424
 30
0.0
 10
1063.528192
 20
617.349272
 30
0.0
 10
1064.012912
 20
620.084704
 30
0.0
 10
1061.742360
 20
620.484392
 30
0.0
  0
LWPOLYLINE
  5
12b
100
AcDbEntity
  8
0
 62
7
100
AcDbPolyline
 90
21
 70
0
 10
1071.093856
 20
673.523448
 30
0.0
 10
1072.817320
 20
683.297304
 30
0.0
 10
1075.087872
 20
682.897616
 30
0.0
 10
1077.554016
 20
696.878088
 30
0.0
 10
1075.283464
 20
697.277776
 30
0.0
 10
1077.006928
 20
707.051632
 30
0.0
 10
1079.274648
 20
706.651952
 30
0.0
 10
1079.759368
 20
709.387384
 30
0.0
 10
1118.755592
 20
702.510536
 30
0.0
 10
1118.273704
 20
699.775096
 30
0.0
 10
1120.544256
 20
699.375416
 30
0.0
 10
1118.820784
 20
689.601560
 30
0.0
 10
1116.550240
 20
690.001240
 30
0.0
 10
1114.086928
 20
676.020768
 30
0.0
 10
1116.354648
 20
675.621080
 30
0.0
 10
1114.631184
 20
665.847224
 30
0.0
 10
1112.363464
 20
666.246912
 30
0.0
 10
1111.881576
 20
663.511480
 30
0.0
 10
1072.882520
 20
670.388328
 30
0.0
 10
1073.364408
 20
673.123760
 30
0.0
 10
1071.093856
 20
673.523448
 30
0.0
  0
LWPOLYLINE
  5
12c
100
AcDbEntity
  8
0
 62
7
100
AcDbPolyline
 90
21
 70
0
 10
1096.078424
 20
505.051952
 30
0.0
 10
1097.801888
 20
514.825808
 30
0.0
 10
1100.069608
 20
514.426120
 30
0.0
 10
1102.535752
 20
528.406592
 30
0.0
 10
1100.265200
 20
528.806280
 30
0.0
 10
1101.988664
 20
538.577304
 30
0.0
 10
1104.259216
 20
538.177616
 30
0.0
 10
1104.741104
 20
540.913056
 30
0.0
 10
1143.740160
 20
534.039040
 30
0.0
 10
1143.258272
 20
531.300768
 30
0.0
 10
1145.525984
 20
530.901080
 30
0.0
 10
1143.802520
 20
521.127224
 30
0.0
 10
1141.534800
 20
521.529744
 30
0.0
 10
1139.068664
 20
507.549272
 30
0.0
 10
1141.339216
 20
507.149584
 30
0.0
 10
1139.615752
 20
497.375728
 30
0.0
 10
1137.345200
 20
497.775416
 30
0.0
 10
1136.863312
 20
495.039984
 30
0.0
 10
1097.864256
 20
501.916832
 30
0.0
 10
1098.346144
 20
504.652264
 30
0.0
 10
1096.078424
 20
505.051952
 30
0.0
  0
LWPOLYLINE
  5
12d
100
AcDbEntity
  8
0
 62
7
100
AcDbPolyline
 90
21
 70
0
 10
1105.429920
 20
558.091008
 30
0.0
 10
1107.153384
 20
567.864864
 30
0.0
 10
1109.423936
 20
567.465176
 30
0.0
 10
1111.887248
 20
581.445648
 30
0.0
 10
1109.619528
 20
581.845336
 30
0.0
 10
1111.342992
 20
591.619192
 30
0.0
 10
1113.610712
 20
591.219512
 30
0.0
 10
1114.092600
 20
593.954944
 30
0.0
 10
1153.091656
 20
587.078088
 30
0.0
 10
1152.609768
 20
584.342656
 30
0.0
 10
1154.880320
 20
583.942976
 30
0.0
 10
1153.156848
 20
574.169112
 30
0.0
 10
1150.886304
 20
574.568800
 30
0.0
 10
1148.420160
 20
560.588328
 30
0.0
 10
1150.690712
 20
560.188640
 30
0.0
 10
1148.967248
 20
550.414784
 30
0.0
 10
1146.696696
 20
550.814472
 30
0.0
 10
1146.214800
 20
548.079040
 30
0.0
 10
1107.215752
 20
554.955888
 30
0.0
 10
1107.700472
 20
557.691320
 30
0.0
 10
1105.429920
 20
558.091008
 30
0.0
  0
LWPOLYLINE
  5
12e
100
AcDbEntity
  8
0
 62
7
100
AcDbPolyline
 90
21
 70
0
 10
1114.781416
 20
611.132896
 30
0.0
 10
1116.504880
 20
620.903920
 30
0.0
 10
1118.775432
 20
620.504232
 30
0.0
 10
1121.241576
 20
634.484704
 30
0.0
 10
1118.971024
 20
634.884392
 30
0.0
 10
1120.694488
 20
644.658248
 30
0.0
 10
1122.962208
 20
644.258568
 30
0.0
 10
1123.446928
 20
646.994000
 30
0.0
 10
1162.443152
 20
640.117144
 30
0.0
 10
1161.961264
 20
637.381712
 30
0.0
 10
1164.231808
 20
636.982032
 30
0.0
 10
1162.508344
 20
627.208168
 30
0.0
 10
1160.237792
 20
627.607856
 30
0.0
 10
1157.774488
 20
613.627384
 30
0.0
 10
1160.042208
 20
613.227696
 30
0.0
 10
1158.318744
 20
603.453840
 30
0.0
 10
1156.051024
 20
603.856360
 30
0.0
 10
1155.569136
 20
601.118088
 30
0.0
 10
1116.570080
 20
607.994944
 30
0.0
 10
1117.051968
 20
610.730376
 30
0.0
 10
1114.781416
 20
611.132896
 30
0.0
  0
LWPOLYLINE
  5
12f
100
AcDbEntity
  8
0
 62
7
100
AcDbPolyline
 90
21
 70
0
 10
1124.135752
 20
664.171952
 30
0.0
 10
1125.859216
 20
673.945808
 30
0.0
 10
1128.126928
 20
673.546120
 30
0.0
 10
1130.593072
 20
687.526592
 30
0.0
 10
1128.322520
 20
687.926280
 30
0.0
 10
1130.045984
 20
697.700136
 30
0.0
 10
1132.316536
 20
697.297616
 30
0.0
 10
1132.798424
 20
700.033048
 30
0.0
 10
1171.797480
 20
693.159040
 30
0.0
 10
1171.315592
 20
690.420768
 30
0.0
 10
1173.583312
 20
690.021080
 30
0.0
 10
1171.859840
 20
680.250064
 30
0.0
 10
1169.592128
 20
680.649744
 30
0.0
 10
1167.125984
 20
666.669272
 30
0.0
 10
1169.396536
 20
666.269584
 30
0.0
 10
1167.673072
 20
656.495728
 30
0.0
 10
1165.402520
 20
656.895416
 30
0.0
 10
1164.920632
 20
654.159984
 30
0.0
 10
1125.921576
 20
661.036832
 30
0.0
 10
1126.403464
 20
663.772264
 30
0.0
 10
1124.135752
 20
664.171952
 30
0.0
  0
LWPOLYLINE
  5
130
100
AcDbEntity
  8
0
 62
7
100
AcDbPolyline
 90
21
 70
0
 10
1146.778896
 20
482.439984
 30
0.0
 10
1148.502360
 20
492.213840
 30
0.0
 10
1150.772912
 20
491.811320
 30
0.0
 10
1153.236224
 20
505.791792
 30
0.0
 10
1150.968504
 20
506.194312
 30
0.0
 10
1152.691968
 20
515.965336
 30
0.0
 10
1154.959688
 20
515.565648
 30
0.0
 10
1155.444408
 20
518.301080
 30
0.0
 10
1194.440632
 20
511.424232
 30
0.0
 10
1193.958744
 20
508.688800
 30
0.0
 10
1196.229288
 20
508.289112
 30
0.0
 10
1194.505824
 20
498.515256
 30
0.0
 10
1192.235272
 20
498.914944
 30
0.0
 10
1189.771968
 20
484.937304
 30
0.0
 10
1192.039688
 20
484.534784
 30
0.0
 10
1190.316224
 20
474.763760
 30
0.0
 10
1188.048504
 20
475.163448
 30
0.0
 10
1187.563784
 20
472.428016
 30
0.0
 10
1148.567560
 20
479.304864
 30
0.0
 10
1149.049448
 20
482.040296
 30
0.0
 10
1146.778896
 20
482.439984
 30
0.0
  0
LWPOLYLINE
  5
131
100
AcDbEntity
  8
0
 62
7
100
AcDbPolyline
 90
21
 70
0
 10
1158.468976
 20
548.739512
 30
0.0
 10
1160.192440
 20
558.513368
 30
0.0
 10
1162.462992
 20
558.113680
 30
0.0
 10
1164.929136
 20
572.094152
 30
0.0
 10
1162.658584
 20
572.493840
 30
0.0
 10
1164.382048
 20
582.267696
 30
0.0
 10
1166.652600
 20
581.865176
 30
0.0
 10
1167.134488
 20
584.600608
 30
0.0
 10
1206.130712
 20
577.726592
 30
0.0
 10
1205.648816
 20
574.988328
 30
0.0
 10
1207.919368
 20
574.588640
 30
0.0
 10
1206.195904
 20
564.814784
 30
0.0
 10
1203.925352
 20
565.217304
 30
0.0
 10
1201.462048
 20
551.236832
 30
0.0
 10
1203.729768
 20
550.837144
 30
0.0
 10
1202.006296
 20
541.063288
 30
0.0
 10
1199.738584
 20
541.462976
 30
0.0
 10
1199.256696
 20
538.727536
 30
0.0
 10
1160.257640
 20
545.604392
 30
0.0
 10
1160.739528
 20
548.339824
 30
0.0
 10
1158.468976
 20
548.739512
 30
0.0
  0
LWPOLYLINE
  5
132
100
AcDbEntity
  8
0
 62
7
100
AcDbPolyline
 90
21
 70
0
 10
1167.823304
 20
601.778560
 30
0.0
 10
1169.546776
 20
611.552424
 30
0.0
 10
1171.814488
 20
611.152736
 30
0.0
 10
1174.280632
 20
625.133208
 30
0.0
 10
1172.010080
 20
625.532896
 30
0.0
 10
1173.733544
 20
635.306752
 30
0.0
 10
1176.004096
 20
634.907072
 30
0.0
 10
1176.485984
 20
637.642504
 30
0.0
 10
1215.485008
 20
630.765648
 30
0.0
 10
1215.003168
 20
628.030216
 30
0.0
 10
1217.270848
 20
627.630536
 30
0.0
 10
1215.547408
 20
617.856672
 30
0.0
 10
1213.279648
 20
618.256360
 30
0.0
 10
1210.813568
 20
604.275888
 30
0.0
 10
1213.084128
 20
603.876200
 30
0.0
 10
1211.360608
 20
594.102344
 30
0.0
 10
1209.090080
 20
594.502032
 30
0.0
 10
1208.608192
 20
591.766592
 30
0.0
 10
1169.609136
 20
598.643448
 30
0.0
 10
1170.091024
 20
601.378880
 30
0.0
 10
1167.823304
 20
601.778560
 30
0.0
  0
LWPOLYLINE
  5
133
100
AcDbEntity
  8
0
 62
7
100
AcDbPolyline
 90
21
 70
0
 10
1177.174808
 20
654.820456
 30
0.0
 10
1178.898272
 20
664.591480
 30
0.0
 10
1181.168824
 20
664.191792
 30
0.0
 10
1183.632128
 20
678.172264
 30
0.0
 10
1181.364408
 20
678.571952
 30
0.0
 10
1183.085040
 20
688.345808
 30
0.0
 10
1185.355592
 20
687.946120
 30
0.0
 10
1185.837480
 20
690.681552
 30
0.0
 10
1224.836528
 20
683.804704
 30
0.0
 10
1224.354608
 20
681.069272
 30
0.0
 10
1226.625168
 20
680.669584
 30
0.0
 10
1224.901728
 20
670.895728
 30
0.0
 10
1222.631168
 20
671.295416
 30
0.0
 10
1220.165008
 20
657.314944
 30
0.0
 10
1222.435568
 20
656.915256
 30
0.0
 10
1220.712128
 20
647.141400
 30
0.0
 10
1218.441568
 20
647.543920
 30
0.0
 10
1217.959648
 20
644.808488
 30
0.0
 10
1178.960632
 20
651.682504
 30
0.0
 10
1179.445352
 20
654.420768
 30
0.0
 10
1177.174808
 20
654.820456
 30
0.0
  0
LWPOLYLINE
  5
134
100
AcDbEntity
  8
0
 62
7
100
AcDbPolyline
 90
6
 70
0
 10
1185.347088
 20
18.074000
 30
0.0
 10
1188.941416
 20
21.549280
 30
0.0
 10
1193.354960
 20
19.202160
 30
0.0
 10
1192.487560
 20
14.275600
 30
0.0
 10
1187.535432
 20
13.581120
 30
0.0
 10
1185.347088
 20
18.074000
 30
0.0
  0
LWPOLYLINE
  5
135
100
AcDbEntity
  8
0
 62
7
100
AcDbPolyline
 90
6
 70
0
 10
1185.347088
 20
443.270848
 30
0.0
 10
1188.941416
 20
446.746120
 30
0.0
 10
1193.354960
 20
444.399040
 30
0.0
 10
1192.487560
 20
439.472424
 30
0.0
 10
1187.535432
 20
438.777936
 30
0.0
 10
1185.347088
 20
443.270848
 30
0.0
  0
LWPOLYLINE
  5
136
100
AcDbEntity
  8
0
 62
7
100
AcDbPolyline
 90
21
 70
0
 10
1199.820784
 20
473.085648
 30
0.0
 10
1201.541416
 20
482.859512
 30
0.0
 10
1203.811968
 20
482.459824
 30
0.0
 10
1206.278112
 20
496.440296
 30
0.0
 10
1204.007560
 20
496.839984
 30
0.0
 10
1205.731024
 20
506.613840
 30
0.0
 10
1208.001576
 20
506.214152
 30
0.0
 10
1208.483464
 20
508.949584
 30
0.0
 10
1247.482528
 20
502.072736
 30
0.0
 10
1246.997808
 20
499.337304
 30
0.0
 10
1249.268368
 20
498.937616
 30
0.0
 10
1247.544848
 20
489.163760
 30
0.0
 10
1245.277168
 20
489.563448
 30
0.0
 10
1242.811008
 20
475.582976
 30
0.0
 10
1245.081568
 20
475.183288
 30
0.0
 10
1243.358128
 20
465.409432
 30
0.0
 10
1241.087568
 20
465.809112
 30
0.0
 10
1240.605648
 20
463.073680
 30
0.0
 10
1201.606616
 20
469.950528
 30
0.0
 10
1202.088504
 20
472.685968
 30
0.0
 10
1199.820784
 20
473.085648
 30
0.0
  0
LWPOLYLINE
  5
137
100
AcDbEntity
  8
0
 62
7
100
AcDbPolyline
 90
6
 70
0
 10
1224.062688
 20
330.358408
 30
0.0
 10
1226.999408
 20
334.403448
 30
0.0
 10
1231.755888
 20
332.858560
 30
0.0
 10
1231.755888
 20
327.858248
 30
0.0
 10
1226.999408
 20
326.313368
 30
0.0
 10
1224.062688
 20
330.358408
 30
0.0
  0
LWPOLYLINE
  5
138
100
AcDbEntity
  8
0
 62
7
100
AcDbPolyline
 90
6
 70
0
 10
1224.062688
 20
755.555256
 30
0.0
 10
1226.999408
 20
759.600296
 30
0.0
 10
1231.755888
 20
758.055416
 30
0.0
 10
1231.755888
 20
753.055096
 30
0.0
 10
1226.999408
 20
751.510216
 30
0.0
 10
1224.062688
 20
755.555256
 30
0.0
  0
LWPOLYLINE
  5
139
100
AcDbEntity
  8
0
 62
7
100
AcDbPolyline
 90
21
 70
0
 10
1269.723168
 20
498.937616
 30
0.0
 10
1271.993728
 20
499.337304
 30
0.0
 10
1271.509008
 20
502.072736
 30
0.0
 10
1310.508048
 20
508.949584
 30
0.0
 10
1310.989888
 20
506.214152
 30
0.0
 10
1313.260448
 20
506.613840
 30
0.0
 10
1314.983968
 20
496.839984
 30
0.0
 10
1312.713408
 20
496.440296
 30
0.0
 10
1315.179568
 20
482.459824
 30
0.0
 10
1317.450048
 20
482.859512
 30
0.0
 10
1319.170688
 20
473.085648
 30
0.0
 10
1316.903008
 20
472.685968
 30
0.0
 10
1317.384848
 20
469.950528
 30
0.0
 10
1278.385808
 20
463.073680
 30
0.0
 10
1277.903968
 20
465.809112
 30
0.0
 10
1275.633408
 20
465.409432
 30
0.0
 10
1273.909888
 20
475.183288
 30
0.0
 10
1276.180448
 20
475.582976
 30
0.0
 10
1273.714368
 20
489.563448
 30
0.0
 10
1271.446608
 20
489.163760
 30
0.0
 10
1269.723168
 20
498.937616
 30
0.0
  0
LWPOLYLINE
  5
13a
100
AcDbEntity
  8
0
 62
7
100
AcDbPolyline
 90
6
 70
0
 10
1287.235568
 20
327.858248
 30
0.0
 10
1287.235568
 20
332.858560
 30
0.0
 10
1291.992128
 20
334.403448
 30
0.0
 10
1294.928848
 20
330.358408
 30
0.0
 10
1291.992128
 20
326.313368
 30
0.0
 10
1287.235568
 20
327.858248
 30
0.0
  0
LWPOLYLINE
  5
13b
100
AcDbEntity
  8
0
 62
7
100
AcDbPolyline
 90
6
 70
0
 10
1287.235568
 20
753.055096
 30
0.0
 10
1287.235568
 20
758.055416
 30
0.0
 10
1291.992128
 20
759.600296
 30
0.0
 10
1294.928848
 20
755.555256
 30
0.0
 10
1291.992128
 20
751.510216
 30
0.0
 10
1287.235568
 20
753.055096
 30
0.0
  0
LWPOLYLINE
  5
13c
100
AcDbEntity
  8
0
 62
7
100
AcDbPolyline
 90
21
 70
0
 10
1292.366288
 20
680.669584
 30
0.0
 10
1294.636848
 20
681.069272
 30
0.0
 10
1294.154928
 20
683.804704
 30
0.0
 10
1333.154048
 20
690.681552
 30
0.0
 10
1333.635888
 20
687.946120
 30
0.0
 10
1335.906448
 20
688.345808
 30
0.0
 10
1337.627088
 20
678.571952
 30
0.0
 10
1335.359408
 20
678.172264
 30
0.0
 10
1337.822688
 20
664.191792
 30
0.0
 10
1340.093248
 20
664.591480
 30
0.0
 10
1341.816688
 20
654.820456
 30
0.0
 10
1339.546128
 20
654.420768
 30
0.0
 10
1340.030848
 20
651.682504
 30
0.0
 10
1301.031808
 20
644.808488
 30
0.0
 10
1300.549888
 20
647.543920
 30
0.0
 10
1298.279408
 20
647.141400
 30
0.0
 10
1296.555888
 20
656.915256
 30
0.0
 10
1298.826448
 20
657.314944
 30
0.0
 10
1296.360288
 20
671.295416
 30
0.0
 10
1294.089728
 20
670.895728
 30
0.0
 10
1292.366288
 20
680.669584
 30
0.0
  0
LWPOLYLINE
  5
13d
100
AcDbEntity
  8
0
 62
7
100
AcDbPolyline
 90
21
 70
0
 10
1301.720608
 20
627.630536
 30
0.0
 10
1303.988368
 20
628.030216
 30
0.0
 10
1303.506448
 20
630.765648
 30
0.0
 10
1342.505488
 20
637.642504
 30
0.0
 10
1342.987408
 20
634.907072
 30
0.0
 10
1345.257968
 20
635.306752
 30
0.0
 10
1346.981408
 20
625.532896
 30
0.0
 10
1344.710848
 20
625.133208
 30
0.0
 10
1347.177008
 20
611.152736
 30
0.0
 10
1349.444688
 20
611.552424
 30
0.0
 10
1351.168208
 20
601.778560
 30
0.0
 10
1348.900448
 20
601.378880
 30
0.0
 10
1349.382368
 20
598.643448
 30
0.0
 10
1310.383328
 20
591.766592
 30
0.0
 10
1309.901408
 20
594.502032
 30
0.0
 10
1307.630848
 20
594.102344
 30
0.0
 10
1305.907408
 20
603.876200
 30
0.0
 10
1308.177968
 20
604.275888
 30
0.0
 10
1305.711808
 20
618.256360
 30
0.0
 10
1303.444128
 20
617.856672
 30
0.0
 10
1301.720608
 20
627.630536
 30
0.0
  0
LWPOLYLINE
  5
13e
100
AcDbEntity
  8
0
 62
7
100
AcDbPolyline
 90
21
 70
0
 10
1311.072128
 20
574.588640
 30
0.0
 10
1313.342688
 20
574.988328
 30
0.0
 10
1312.860768
 20
577.726592
 30
0.0
 10
1351.857008
 20
584.600608
 30
0.0
 10
1352.338928
 20
581.865176
 30
0.0
 10
1354.609488
 20
582.267696
 30
0.0
 10
1356.332928
 20
572.493840
 30
0.0
 10
1354.062368
 20
572.094152
 30
0.0
 10
1356.528528
 20
558.113680
 30
0.0
 10
1358.799088
 20
558.513368
 30
0.0
 10
1360.522528
 20
548.739512
 30
0.0
 10
1358.251968
 20
548.339824
 30
0.0
 10
1358.733888
 20
545.604392
 30
0.0
 10
1319.734768
 20
538.727536
 30
0.0
 10
1319.252928
 20
541.462976
 30
0.0
 10
1316.985168
 20
541.063288
 30
0.0
 10
1315.261728
 20
550.837144
 30
0.0
 10
1317.529488
 20
551.236832
 30
0.0
 10
1315.066128
 20
565.217304
 30
0.0
 10
1312.795568
 20
564.814784
 30
0.0
 10
1311.072128
 20
574.588640
 30
0.0
  0
LWPOLYLINE
  5
13f
100
AcDbEntity
  8
0
 62
7
100
AcDbPolyline
 90
21
 70
0
 10
1322.762208
 20
508.289112
 30
0.0
 10
1325.032768
 20
508.688800
 30
0.0
 10
1324.550848
 20
511.424232
 30
0.0
 10
1363.547088
 20
518.301080
 30
0.0
 10
1364.031808
 20
515.565648
 30
0.0
 10
1366.299568
 20
515.965336
 30
0.0
 10
1368.023008
 20
506.194312
 30
0.0
 10
1365.755248
 20
505.791792
 30
0.0
 10
1368.218608
 20
491.811320
 30
0.0
 10
1370.489168
 20
492.213840
 30
0.0
 10
1372.212608
 20
482.439984
 30
0.0
 10
1369.942048
 20
482.040296
 30
0.0
 10
1370.423968
 20
479.304864
 30
0.0
 10
1331.427728
 20
472.428016
 30
0.0
 10
1330.943008
 20
475.163448
 30
0.0
 10
1328.675248
 20
474.763760
 30
0.0
 10
1326.951808
 20
484.534784
 30
0.0
 10
1329.219568
 20
484.937304
 30
0.0
 10
1326.756208
 20
498.914944
 30
0.0
 10
1324.485648
 20
498.515256
 30
0.0
 10
1322.762208
 20
508.289112
 30
0.0
  0
LWPOLYLINE
  5
140
100
AcDbEntity
  8
0
 62
7
100
AcDbPolyline
 90
6
 70
0
 10
1325.636528
 20
19.202160
 30
0.0
 10
1330.050048
 20
21.549280
 30
0.0
 10
1333.644448
 20
18.074000
 30
0.0
 10
1331.456048
 20
13.581120
 30
0.0
 10
1326.503968
 20
14.275600
 30
0.0
 10
1325.636528
 20
19.202160
 30
0.0
  0
LWPOLYLINE
  5
141
100
AcDbEntity
  8
0
 62
7
100
AcDbPolyline
 90
6
 70
0
 10
1325.636528
 20
444.399040
 30
0.0
 10
1330.050048
 20
446.746120
 30
0.0
 10
1333.644448
 20
443.270848
 30
0.0
 10
1331.456048
 20
438.777936
 30
0.0
 10
1326.503968
 20
439.472424
 30
0.0
 10
1325.636528
 20
444.399040
 30
0.0
  0
LWPOLYLINE
  5
142
100
AcDbEntity
  8
0
 62
7
100
AcDbPolyline
 90
21
 70
0
 10
1345.408208
 20
690.021080
 30
0.0
 10
1347.675888
 20
690.420768
 30
0.0
 10
1347.194048
 20
693.159040
 30
0.0
 10
1386.193088
 20
700.033048
 30
0.0
 10
1386.674928
 20
697.297616
 30
0.0
 10
1388.945488
 20
697.700136
 30
0.0
 10
1390.669008
 20
687.926280
 30
0.0
 10
1388.398448
 20
687.526592
 30
0.0
 10
1390.864608
 20
673.546120
 30
0.0
 10
1393.132288
 20
673.945808
 30
0.0
 10
1394.855728
 20
664.171952
 30
0.0
 10
1392.588048
 20
663.772264
 30
0.0
 10
1393.069888
 20
661.036832
 30
0.0
 10
1354.070848
 20
654.159984
 30
0.0
 10
1353.589008
 20
656.895416
 30
0.0
 10
1351.318448
 20
656.495728
 30
0.0
 10
1349.594928
 20
666.269584
 30
0.0
 10
1351.865488
 20
666.669272
 30
0.0
 10
1349.399408
 20
680.649744
 30
0.0
 10
1347.131648
 20
680.250064
 30
0.0
 10
1345.408208
 20
690.021080
 30
0.0
  0
LWPOLYLINE
  5
143
100
AcDbEntity
  8
0
 62
7
100
AcDbPolyline
 90
21
 70
0
 10
1354.759648
 20
636.982032
 30
0.0
 10
1357.030208
 20
637.381712
 30
0.0
 10
1356.548368
 20
640.117144
 30
0.0
 10
1395.544608
 20
646.994000
 30
0.0
 10
1396.029328
 20
644.258568
 30
0.0
 10
1398.297008
 20
644.658248
 30
0.0
 10
1400.020448
 20
634.884392
 30
0.0
 10
1397.749888
 20
634.484704
 30
0.0
 10
1400.216048
 20
620.504232
 30
0.0
 10
1402.486608
 20
620.903920
 30
0.0
 10
1404.210048
 20
611.132896
 30
0.0
 10
1401.939568
 20
610.730376
 30
0.0
 10
1402.421408
 20
607.994944
 30
0.0
 10
1363.422368
 20
601.118088
 30
0.0
 10
1362.940448
 20
603.856360
 30
0.0
 10
1360.672768
 20
603.453840
 30
0.0
 10
1358.949328
 20
613.227696
 30
0.0
 10
1361.217008
 20
613.627384
 30
0.0
 10
1358.753728
 20
627.607856
 30
0.0
 10
1356.483168
 20
627.208168
 30
0.0
 10
1354.759648
 20
636.982032
 30
0.0
  0
LWPOLYLINE
  5
144
100
AcDbEntity
  8
0
 62
7
100
AcDbPolyline
 90
21
 70
0
 10
1364.111168
 20
583.942976
 30
0.0
 10
1366.381728
 20
584.342656
 30
0.0
 10
1365.899808
 20
587.078088
 30
0.0
 10
1404.898928
 20
593.954944
 30
0.0
 10
1405.380768
 20
591.219512
 30
0.0
 10
1407.648528
 20
591.619192
 30
0.0
 10
1409.371968
 20
581.845336
 30
0.0
 10
1407.104288
 20
581.445648
 30
0.0
 10
1409.567568
 20
567.465176
 30
0.0
 10
1411.838128
 20
567.864864
 30
0.0
 10
1413.561568
 20
558.091008
 30
0.0
 10
1411.291008
 20
557.691320
 30
0.0
 10
1411.775728
 20
554.955888
 30
0.0
 10
1372.776688
 20
548.079040
 30
0.0
 10
1372.294768
 20
550.814472
 30
0.0
 10
1370.024288
 20
550.414784
 30
0.0
 10
1368.300768
 20
560.188640
 30
0.0
 10
1370.571328
 20
560.588328
 30
0.0
 10
1368.105168
 20
574.568800
 30
0.0
 10
1365.834608
 20
574.169112
 30
0.0
 10
1364.111168
 20
583.942976
 30
0.0
  0
LWPOLYLINE
  5
145
100
AcDbEntity
  8
0
 62
7
100
AcDbPolyline
 90
21
 70
0
 10
1373.465488
 20
530.901080
 30
0.0
 10
1375.733248
 20
531.300768
 30
0.0
 10
1375.251328
 20
534.039040
 30
0.0
 10
1414.250368
 20
540.913056
 30
0.0
 10
1414.732288
 20
538.177616
 30
0.0
 10
1417.002848
 20
538.577304
 30
0.0
 10
1418.726288
 20
528.806280
 30
0.0
 10
1416.455728
 20
528.406592
 30
0.0
 10
1418.921888
 20
514.426120
 30
0.0
 10
1421.189568
 20
514.825808
 30
0.0
 10
1422.913088
 20
505.051952
 30
0.0
 10
1420.645328
 20
504.652264
 30
0.0
 10
1421.127248
 20
501.916832
 30
0.0
 10
1382.128208
 20
495.039984
 30
0.0
 10
1381.646288
 20
497.775416
 30
0.0
 10
1379.375728
 20
497.375728
 30
0.0
 10
1377.652288
 20
507.149584
 30
0.0
 10
1379.922848
 20
507.549272
 30
0.0
 10
1377.456688
 20
521.529744
 30
0.0
 10
1375.189008
 20
521.127224
 30
0.0
 10
1373.465488
 20
530.901080
 30
0.0
  0
LWPOLYLINE
  5
146
100
AcDbEntity
  8
0
 62
7
100
AcDbPolyline
 90
21
 70
0
 10
1398.447248
 20
699.375416
 30
0.0
 10
1400.717808
 20
699.775096
 30
0.0
 10
1400.235888
 20
702.510536
 30
0.0
 10
1439.232128
 20
709.387384
 30
0.0
 10
1439.716848
 20
706.651952
 30
0.0
 10
1441.984608
 20
707.051632
 30
0.0
 10
1443.708048
 20
697.277776
 30
0.0
 10
1441.437488
 20
696.878088
 30
0.0
 10
1443.903648
 20
682.897616
 30
0.0
 10
1446.174208
 20
683.297304
 30
0.0
 10
1447.897648
 20
673.523448
 30
0.0
 10
1445.627088
 20
673.123760
 30
0.0
 10
1446.109008
 20
670.388328
 30
0.0
 10
1407.109888
 20
663.511480
 30
0.0
 10
1406.628048
 20
666.246912
 30
0.0
 10
1404.360288
 20
665.847224
 30
0.0
 10
1402.636848
 20
675.621080
 30
0.0
 10
1404.904608
 20
676.020768
 30
0.0
 10
1402.441248
 20
690.001240
 30
0.0
 10
1400.170688
 20
689.601560
 30
0.0
 10
1398.447248
 20
699.375416
 30
0.0
  0
LWPOLYLINE
  5
147
100
AcDbEntity
  8
0
 62
7
100
AcDbPolyline
 90
21
 70
0
 10
1407.798768
 20
646.333528
 30
0.0
 10
1410.069328
 20
646.733208
 30
0.0
 10
1409.587408
 20
649.471480
 30
0.0
 10
1448.586448
 20
656.345496
 30
0.0
 10
1449.068368
 20
653.610064
 30
0.0
 10
1451.338928
 20
654.012576
 30
0.0
 10
1453.059568
 20
644.238720
 30
0.0
 10
1450.791808
 20
643.839040
 30
0.0
 10
1453.255088
 20
629.858568
 30
0.0
 10
1455.525648
 20
630.258248
 30
0.0
 10
1457.249168
 20
620.484392
 30
0.0
 10
1454.978608
 20
620.084704
 30
0.0
 10
1455.463328
 20
617.349272
 30
0.0
 10
1416.464288
 20
610.472424
 30
0.0
 10
1415.982368
 20
613.207856
 30
0.0
 10
1413.711808
 20
612.808168
 30
0.0
 10
1411.988368
 20
622.582032
 30
0.0
 10
1414.258928
 20
622.981712
 30
0.0
 10
1411.792768
 20
636.962184
 30
0.0
 10
1409.522208
 20
636.559664
 30
0.0
 10
1407.798768
 20
646.333528
 30
0.0
  0
LWPOLYLINE
  5
148
100
AcDbEntity
  8
0
 62
7
100
AcDbPolyline
 90
21
 70
0
 10
1417.153088
 20
593.294472
 30
0.0
 10
1419.420768
 20
593.694152
 30
0.0
 10
1418.938928
 20
596.429584
 30
0.0
 10
1457.937968
 20
603.306440
 30
0.0
 10
1458.419808
 20
600.571008
 30
0.0
 10
1460.690368
 20
600.970688
 30
0.0
 10
1462.413888
 20
591.196832
 30
0.0
 10
1460.143328
 20
590.797144
 30
0.0
 10
1462.609488
 20
576.816672
 30
0.0
 10
1464.877168
 20
577.216360
 30
0.0
 10
1466.600608
 20
567.445336
 30
0.0
 10
1464.332928
 20
567.042816
 30
0.0
 10
1464.814768
 20
564.307384
 30
0.0
 10
1425.815728
 20
557.430536
 30
0.0
 10
1425.333888
 20
560.168800
 30
0.0
 10
1423.063328
 20
559.766280
 30
0.0
 10
1421.339808
 20
569.540136
 30
0.0
 10
1423.610368
 20
569.939824
 30
0.0
 10
1421.144288
 20
583.920296
 30
0.0
 10
1418.876528
 20
583.520608
 30
0.0
 10
1417.153088
 20
593.294472
 30
0.0
  0
LWPOLYLINE
  5
149
100
AcDbEntity
  8
0
 62
7
100
AcDbPolyline
 90
21
 70
0
 10
1426.504608
 20
540.255416
 30
0.0
 10
1428.775088
 20
540.655096
 30
0.0
 10
1428.293248
 20
543.390536
 30
0.0
 10
1467.289488
 20
550.267384
 30
0.0
 10
1467.771328
 20
547.531952
 30
0.0
 10
1470.041888
 20
547.931632
 30
0.0
 10
1471.765328
 20
538.157776
 30
0.0
 10
1469.494768
 20
537.758088
 30
0.0
 10
1471.960928
 20
523.777616
 30
0.0
 10
1474.231488
 20
524.177304
 30
0.0
 10
1475.954928
 20
514.403448
 30
0.0
 10
1473.684448
 20
514.003760
 30
0.0
 10
1474.166288
 20
511.268328
 30
0.0
 10
1435.167248
 20
504.391480
 30
0.0
 10
1434.685328
 20
507.126912
 30
0.0
 10
1432.417648
 20
506.727224
 30
0.0
 10
1430.694208
 20
516.501080
 30
0.0
 10
1432.961888
 20
516.900768
 30
0.0
 10
1430.498608
 20
530.881240
 30
0.0
 10
1428.228048
 20
530.481552
 30
0.0
 10
1426.504608
 20
540.255416
 30
0.0
  0
LWPOLYLINE
  5
14a
100
AcDbEntity
  8
0
 62
7
100
AcDbPolyline
 90
21
 70
0
 10
1451.486288
 20
708.726912
 30
0.0
 10
1453.756848
 20
709.126592
 30
0.0
 10
1453.274928
 20
711.862032
 30
0.0
 10
1492.274048
 20
718.738880
 30
0.0
 10
1492.755888
 20
716.003448
 30
0.0
 10
1495.026448
 20
716.403128
 30
0.0
 10
1496.747088
 20
706.629272
 30
0.0
 10
1494.479408
 20
706.229584
 30
0.0
 10
1496.942688
 20
692.249112
 30
0.0
 10
1499.213248
 20
692.648800
 30
0.0
 10
1500.936688
 20
682.877776
 30
0.0
 10
1498.666128
 20
682.475256
 30
0.0
 10
1499.150848
 20
679.739824
 30
0.0
 10
1460.151808
 20
672.862976
 30
0.0
 10
1459.669888
 20
675.601240
 30
0.0
 10
1457.399408
 20
675.198720
 30
0.0
 10
1455.675888
 20
684.972576
 30
0.0
 10
1457.946448
 20
685.372264
 30
0.0
 10
1455.480288
 20
699.352736
 30
0.0
 10
1453.209728
 20
698.953056
 30
0.0
 10
1451.486288
 20
708.726912
 30
0.0
  0
LWPOLYLINE
  5
14b
100
AcDbEntity
  8
0
 62
7
100
AcDbPolyline
 90
21
 70
0
 10
1460.840608
 20
655.687856
 30
0.0
 10
1463.108368
 20
656.087544
 30
0.0
 10
1462.626448
 20
658.822976
 30
0.0
 10
1501.625488
 20
665.699824
 30
0.0
 10
1502.107408
 20
662.964392
 30
0.0
 10
1504.377968
 20
663.364072
 30
0.0
 10
1506.101408
 20
653.590216
 30
0.0
 10
1503.830848
 20
653.190536
 30
0.0
 10
1506.297008
 20
639.210064
 30
0.0
 10
1508.564688
 20
639.609744
 30
0.0
 10
1510.288208
 20
629.835888
 30
0.0
 10
1508.020448
 20
629.436200
 30
0.0
 10
1508.502368
 20
626.700768
 30
0.0
 10
1469.503328
 20
619.823920
 30
0.0
 10
1469.021408
 20
622.559352
 30
0.0
 10
1466.750848
 20
622.159664
 30
0.0
 10
1465.027408
 20
631.933528
 30
0.0
 10
1467.297968
 20
632.333208
 30
0.0
 10
1464.831808
 20
646.313680
 30
0.0
 10
1462.564128
 20
645.914000
 30
0.0
 10
1460.840608
 20
655.687856
 30
0.0
  0
LWPOLYLINE
  5
14c
100
AcDbEntity
  8
0
 62
7
100
AcDbPolyline
 90
21
 70
0
 10
1470.192128
 20
602.645968
 30
0.0
 10
1472.462688
 20
603.045648
 30
0.0
 10
1471.980768
 20
605.783920
 30
0.0
 10
1510.977008
 20
612.657936
 30
0.0
 10
1511.461728
 20
609.922504
 30
0.0
 10
1513.729488
 20
610.322184
 30
0.0
 10
1515.452928
 20
600.551160
 30
0.0
 10
1513.182368
 20
600.148640
 30
0.0
 10
1515.648528
 20
586.171008
 30
0.0
 10
1517.919088
 20
586.570688
 30
0.0
 10
1519.642528
 20
576.796832
 30
0.0
 10
1517.371968
 20
576.397144
 30
0.0
 10
1517.853888
 20
573.661712
 30
0.0
 10
1478.854768
 20
566.784864
 30
0.0
 10
1478.372928
 20
569.520296
 30
0.0
 10
1476.105168
 20
569.120608
 30
0.0
 10
1474.381728
 20
578.894472
 30
0.0
 10
1476.649488
 20
579.294152
 30
0.0
 10
1474.186128
 20
593.274624
 30
0.0
 10
1471.915568
 20
592.872104
 30
0.0
 10
1470.192128
 20
602.645968
 30
0.0
  0
LWPOLYLINE
  5
14d
100
AcDbEntity
  8
0
 62
7
100
AcDbPolyline
 90
21
 70
0
 10
1479.543648
 20
549.606912
 30
0.0
 10
1481.814208
 20
550.006592
 30
0.0
 10
1481.332288
 20
552.742032
 30
0.0
 10
1520.331328
 20
559.618880
 30
0.0
 10
1520.813248
 20
556.883448
 30
0.0
 10
1523.080928
 20
557.283128
 30
0.0
 10
1524.804448
 20
547.509272
 30
0.0
 10
1522.536688
 20
547.109584
 30
0.0
 10
1524.999968
 20
533.129112
 30
0.0
 10
1527.270528
 20
533.528800
 30
0.0
 10
1528.994048
 20
523.757776
 30
0.0
 10
1526.723488
 20
523.355256
 30
0.0
 10
1527.208208
 20
520.619824
 30
0.0
 10
1488.209168
 20
513.742976
 30
0.0
 10
1487.727248
 20
516.481240
 30
0.0
 10
1485.456688
 20
516.078720
 30
0.0
 10
1483.733248
 20
525.852576
 30
0.0
 10
1486.003808
 20
526.252264
 30
0.0
 10
1483.537648
 20
540.232736
 30
0.0
 10
1481.267088
 20
539.833048
 30
0.0
 10
1479.543648
 20
549.606912
 30
0.0
  0
LWPOLYLINE
  5
14e
100
AcDbEntity
  8
0
 62
7
100
AcDbPolyline
 90
21
 70
0
 10
1504.528208
 20
718.078408
 30
0.0
 10
1506.795888
 20
718.478088
 30
0.0
 10
1506.314048
 20
721.216360
 30
0.0
 10
1545.313088
 20
728.090376
 30
0.0
 10
1545.794928
 20
725.354944
 30
0.0
 10
1548.065488
 20
725.754624
 30
0.0
 10
1549.789008
 20
715.983600
 30
0.0
 10
1547.518448
 20
715.581080
 30
0.0
 10
1549.984608
 20
701.603448
 30
0.0
 10
1552.252288
 20
702.003128
 30
0.0
 10
1553.975728
 20
692.229272
 30
0.0
 10
1551.708048
 20
691.829584
 30
0.0
 10
1552.189888
 20
689.094152
 30
0.0
 10
1513.190848
 20
682.217304
 30
0.0
 10
1512.709008
 20
684.952736
 30
0.0
 10
1510.438448
 20
684.553056
 30
0.0
 10
1508.714928
 20
694.326912
 30
0.0
 10
1510.985488
 20
694.726592
 30
0.0
 10
1508.519408
 20
708.707072
 30
0.0
 10
1506.251648
 20
708.304552
 30
0.0
 10
1504.528208
 20
718.078408
 30
0.0
  0
LWPOLYLINE
  5
14f
100
AcDbEntity
  8
0
 62
7
100
AcDbPolyline
 90
21
 70
0
 10
1513.879648
 20
665.039352
 30
0.0
 10
1516.150208
 20
665.439040
 30
0.0
 10
1515.668368
 20
668.174472
 30
0.0
 10
1554.664608
 20
675.051320
 30
0.0
 10
1555.149328
 20
672.315888
 30
0.0
 10
1557.417008
 20
672.715576
 30
0.0
 10
1559.140448
 20
662.941712
 30
0.0
 10
1556.872768
 20
662.542032
 30
0.0
 10
1559.336048
 20
648.561560
 30
0.0
 10
1561.606608
 20
648.961240
 30
0.0
 10
1563.330048
 20
639.190216
 30
0.0
 10
1561.059568
 20
638.787696
 30
0.0
 10
1561.541408
 20
636.052264
 30
0.0
 10
1522.542368
 20
629.175416
 30
0.0
 10
1522.060448
 20
631.913680
 30
0.0
 10
1519.792768
 20
631.511160
 30
0.0
 10
1518.069328
 20
641.285024
 30
0.0
 10
1520.337008
 20
641.684704
 30
0.0
 10
1517.873728
 20
655.665176
 30
0.0
 10
1515.603168
 20
655.265496
 30
0.0
 10
1513.879648
 20
665.039352
 30
0.0
  0
LWPOLYLINE
  5
150
100
AcDbEntity
  8
0
 62
7
100
AcDbPolyline
 90
21
 70
0
 10
1523.231168
 20
612.000296
 30
0.0
 10
1525.501728
 20
612.399984
 30
0.0
 10
1525.019808
 20
615.135416
 30
0.0
 10
1564.018928
 20
622.012264
 30
0.0
 10
1564.500768
 20
619.276832
 30
0.0
 10
1566.771328
 20
619.676520
 30
0.0
 10
1568.491968
 20
609.902656
 30
0.0
 10
1566.224288
 20
609.502976
 30
0.0
 10
1568.687568
 20
595.522504
 30
0.0
 10
1570.958128
 20
595.922184
 30
0.0
 10
1572.681568
 20
586.148328
 30
0.0
 10
1570.411008
 20
585.748640
 30
0.0
 10
1570.895728
 20
583.013208
 30
0.0
 10
1531.896688
 20
576.136360
 30
0.0
 10
1531.414768
 20
578.871792
 30
0.0
 10
1529.144288
 20
578.472104
 30
0.0
 10
1527.420768
 20
588.245968
 30
0.0
 10
1529.691328
 20
588.645648
 30
0.0
 10
1527.225168
 20
602.626120
 30
0.0
 10
1524.954608
 20
602.226440
 30
0.0
 10
1523.231168
 20
612.000296
 30
0.0
  0
LWPOLYLINE
  5
151
100
AcDbEntity
  8
0
 62
7
100
AcDbPolyline
 90
21
 70
0
 10
1532.585488
 20
558.958408
 30
0.0
 10
1534.853248
 20
559.358088
 30
0.0
 10
1534.371328
 20
562.096360
 30
0.0
 10
1573.370368
 20
568.970376
 30
0.0
 10
1573.852288
 20
566.234944
 30
0.0
 10
1576.122848
 20
566.634624
 30
0.0
 10
1577.846288
 20
556.863600
 30
0.0
 10
1575.575728
 20
556.461080
 30
0.0
 10
1578.041888
 20
542.483448
 30
0.0
 10
1580.309568
 20
542.883128
 30
0.0
 10
1582.033088
 20
533.109272
 30
0.0
 10
1579.765328
 20
532.709584
 30
0.0
 10
1580.247248
 20
529.974152
 30
0.0
 10
1541.248208
 20
523.097304
 30
0.0
 10
1540.766288
 20
525.832736
 30
0.0
 10
1538.495728
 20
525.433048
 30
0.0
 10
1536.772288
 20
535.204072
 30
0.0
 10
1539.042848
 20
535.606592
 30
0.0
 10
1536.576688
 20
549.587064
 30
0.0
 10
1534.309008
 20
549.184552
 30
0.0
 10
1532.585488
 20
558.958408
 30
0.0
  0
LWPOLYLINE
  5
152
100
AcDbEntity
  8
0
 62
7
100
AcDbPolyline
 90
21
 70
0
 10
1557.567248
 20
727.432736
 30
0.0
 10
1559.837808
 20
727.832424
 30
0.0
 10
1559.355888
 20
730.567856
 30
0.0
 10
1598.352128
 20
737.444704
 30
0.0
 10
1598.836848
 20
734.709272
 30
0.0
 10
1601.104608
 20
735.108960
 30
0.0
 10
1602.828048
 20
725.335096
 30
0.0
 10
1600.560288
 20
724.935416
 30
0.0
 10
1603.023648
 20
710.954944
 30
0.0
 10
1605.294208
 20
711.354624
 30
0.0
 10
1607.017648
 20
701.580768
 30
0.0
 10
1604.747088
 20
701.181080
 30
0.0
 10
1605.229008
 20
698.445648
 30
0.0
 10
1566.232768
 20
691.568800
 30
0.0
 10
1565.748048
 20
694.304232
 30
0.0
 10
1563.480288
 20
693.904552
 30
0.0
 10
1561.756848
 20
703.678408
 30
0.0
 10
1564.024608
 20
704.078088
 30
0.0
 10
1561.561248
 20
718.058568
 30
0.0
 10
1559.290688
 20
717.658880
 30
0.0
 10
1557.567248
 20
727.432736
 30
0.0
  0
LWPOLYLINE
  5
153
100
AcDbEntity
  8
0
 62
7
100
AcDbPolyline
 90
21
 70
0
 10
1566.918768
 20
674.390848
 30
0.0
 10
1569.189328
 20
674.790536
 30
0.0
 10
1568.707408
 20
677.528800
 30
0.0
 10
1607.706448
 20
684.402816
 30
0.0
 10
1608.188368
 20
681.667384
 30
0.0
 10
1610.458928
 20
682.067072
 30
0.0
 10
1612.182368
 20
672.296048
 30
0.0
 10
1609.911808
 20
671.893528
 30
0.0
 10
1612.375088
 20
657.915888
 30
0.0
 10
1614.645648
 20
658.315576
 30
0.0
 10
1616.369168
 20
648.541712
 30
0.0
 10
1614.098608
 20
648.142032
 30
0.0
 10
1614.583328
 20
645.406592
 30
0.0
 10
1575.584288
 20
638.529744
 30
0.0
 10
1575.102368
 20
641.265176
 30
0.0
 10
1572.831808
 20
640.865496
 30
0.0
 10
1571.108368
 20
650.639352
 30
0.0
 10
1573.378928
 20
651.039040
 30
0.0
 10
1570.912768
 20
665.019512
 30
0.0
 10
1568.642208
 20
664.616992
 30
0.0
 10
1566.918768
 20
674.390848
 30
0.0
  0
LWPOLYLINE
  5
154
100
AcDbEntity
  8
0
 62
7
100
AcDbPolyline
 90
21
 70
0
 10
1576.273088
 20
621.351792
 30
0.0
 10
1578.540768
 20
621.751480
 30
0.0
 10
1578.058928
 20
624.486912
 30
0.0
 10
1617.057968
 20
631.363760
 30
0.0
 10
1617.539808
 20
628.628328
 30
0.0
 10
1619.810368
 20
629.028016
 30
0.0
 10
1621.533888
 20
619.254152
 30
0.0
 10
1619.263328
 20
618.854472
 30
0.0
 10
1621.729488
 20
604.874000
 30
0.0
 10
1623.997168
 20
605.273680
 30
0.0
 10
1625.720608
 20
595.502656
 30
0.0
 10
1623.452928
 20
595.100136
 30
0.0
 10
1623.934768
 20
592.364704
 30
0.0
 10
1584.935728
 20
585.487856
 30
0.0
 10
1584.453888
 20
588.226120
 30
0.0
 10
1582.183328
 20
587.823600
 30
0.0
 10
1580.459808
 20
597.597464
 30
0.0
 10
1582.730368
 20
597.997144
 30
0.0
 10
1580.264288
 20
611.977616
 30
0.0
 10
1577.996528
 20
611.577936
 30
0.0
 10
1576.273088
 20
621.351792
 30
0.0
  0
LWPOLYLINE
  5
155
100
AcDbEntity
  8
0
 62
7
100
AcDbPolyline
 90
21
 70
0
 10
1585.624608
 20
568.312736
 30
0.0
 10
1587.895088
 20
568.712424
 30
0.0
 10
1587.413248
 20
571.447856
 30
0.0
 10
1626.409488
 20
578.324704
 30
0.0
 10
1626.894208
 20
575.589272
 30
0.0
 10
1629.161888
 20
575.988960
 30
0.0
 10
1630.885328
 20
566.215096
 30
0.0
 10
1628.614768
 20
565.815416
 30
0.0
 10
1631.080928
 20
551.834944
 30
0.0
 10
1633.351488
 20
552.234624
 30
0.0
 10
1635.074928
 20
542.460768
 30
0.0
 10
1632.804448
 20
542.061080
 30
0.0
 10
1633.286288
 20
539.325648
 30
0.0
 10
1594.287248
 20
532.448800
 30
0.0
 10
1593.805328
 20
535.184232
 30
0.0
 10
1591.537648
 20
534.784552
 30
0.0
 10
1589.814208
 20
544.558408
 30
0.0
 10
1592.081888
 20
544.958088
 30
0.0
 10
1589.618608
 20
558.938560
 30
0.0
 10
1587.348048
 20
558.538880
 30
0.0
 10
1585.624608
 20
568.312736
 30
0.0
  0
LWPOLYLINE
  5
156
100
AcDbEntity
  8
0
 62
7
100
AcDbPolyline
 90
6
 70
0
 10
1607.210368
 20
332.220768
 30
0.0
 10
1611.626768
 20
334.570688
 30
0.0
 10
1615.221088
 20
331.095416
 30
0.0
 10
1613.032768
 20
326.602504
 30
0.0
 10
1608.080608
 20
327.296992
 30
0.0
 10
1607.210368
 20
332.220768
 30
0.0
  0
LWPOLYLINE
  5
157
100
AcDbEntity
  8
0
 62
7
100
AcDbPolyline
 90
6
 70
0
 10
1607.210368
 20
757.417616
 30
0.0
 10
1611.626768
 20
759.767536
 30
0.0
 10
1615.221088
 20
756.292264
 30
0.0
 10
1613.032768
 20
751.799352
 30
0.0
 10
1608.080608
 20
752.493840
 30
0.0
 10
1607.210368
 20
757.417616
 30
0.0
  0
LWPOLYLINE
  5
158
100
AcDbEntity
  8
0
 62
7
100
AcDbPolyline
 90
6
 70
0
 10
1647.572928
 20
103.311760
 30
0.0
 10
1651.989328
 20
105.658880
 30
0.0
 10
1655.583648
 20
102.186400
 30
0.0
 10
1653.395248
 20
97.693520
 30
0.0
 10
1648.443168
 20
98.388000
 30
0.0
 10
1647.572928
 20
103.311760
 30
0.0
  0
LWPOLYLINE
  5
159
100
AcDbEntity
  8
0
 62
7
100
AcDbPolyline
 90
6
 70
0
 10
1647.572928
 20
528.508640
 30
0.0
 10
1651.989328
 20
530.855728
 30
0.0
 10
1655.583648
 20
527.383288
 30
0.0
 10
1653.395248
 20
522.890376
 30
0.0
 10
1648.443168
 20
523.584864
 30
0.0
 10
1647.572928
 20
528.508640
 30
0.0
  0
ENDSEC
  0
SECTION
  2
OBJECTS
  0
DICTIONARY
  5
C
330
0
100
AcDbDictionary
  3
ACAD_GROUP
350
D
  3
ACAD_MLINESTYLE
350
17
  0
DICTIONARY
  5
D
330
C
100
AcDbDictionary
  0
DICTIONARY
  5
1A
330
C
100
AcDbDictionary
  0
DICTIONARY
  5
17
330
C
100
AcDbDictionary
  3
STANDARD
350
18
  0
DICTIONARY
  5
19
330
C
100
AcDbDictionary
  0
ENDSEC
  0
EOF
