  0
SECTION
  2
BLOCKS
  0
ENDSEC
  0
SECTION
  2
ENTITIES
  0
LINE
  8
0
 10
-42.7924
 20
-21.0628
 11
-38.0171
 21
6.01939
  0
LINE
  8
0
 10
-38.0171
 20
6.01939
 11
-20.2906
 21
2.89372
  0
LINE
  8
0
 10
-20.2906
 20
2.89372
 11
-25.0457
 21
-24.0741
  0
LINE
  8
0
 10
-25.0457
 20
-24.0741
 11
25.0457
 21
-24.0741
  0
LINE
  8
0
 10
25.0457
 20
-24.0741
 11
20.2906
 21
2.89372
  0
LINE
  8
0
 10
20.2906
 20
2.89372
 11
38.0171
 21
6.01939
  0
LINE
  8
0
 10
38.0171
 20
6.01939
 11
42.7924
 21
-21.0628
  0
LINE
  8
0
 10
42.7924
 20
-21.0628
 11
25.7148
 21
-24.0741
  0
LINE
  8
0
 10
25.7148
 20
-24.0741
 11
45.6501
 21
-24.0741
  0
LINE
  8
0
 10
45.6501
 20
-24.0741
 11
47.0578
 21
-24.0495
  0
LINE
  8
0
 10
47.0578
 20
-24.0495
 11
121.035
 21
-5.92818
  0
LINE
  8
0
 10
121.035
 20
-5.92818
 11
122.366
 21
-5.4698
  0
LINE
  8
0
 10
122.366
 20
-5.4698
 11
123.491
 21
-4.62251
  0
LINE
  8
0
 10
123.491
 20
-4.62251
 11
124.298
 21
-3.46921
  0
LINE
  8
0
 10
124.298
 20
-3.46921
 11
124.71
 21
-2.12282
  0
LINE
  8
0
 10
124.71
 20
-2.12282
 11
124.685
 21
-0.715118
  0
LINE
  8
0
 10
124.685
 20
-0.715118
 11
110.383
 21
80.3975
  0
LINE
  8
0
 10
110.383
 20
80.3975
 11
109.924
 21
81.7287
  0
LINE
  8
0
 10
109.924
 20
81.7287
 11
109.077
 21
82.8531
  0
LINE
  8
0
 10
109.077
 20
82.8531
 11
107.924
 21
83.6607
  0
LINE
  8
0
 10
107.924
 20
83.6607
 11
106.577
 21
84.0723
  0
LINE
  8
0
 10
106.577
 20
84.0723
 11
14.85
 21
84.1161
  0
LINE
  8
0
 10
14.85
 20
84.1161
 11
10.35
 21
84.1161
  0
LINE
  8
0
 10
10.35
 20
84.1161
 11
10.35
 21
73.9161
  0
LINE
  8
0
 10
10.35
 20
73.9161
 11
-10.35
 21
73.9161
  0
LINE
  8
0
 10
-10.35
 20
73.9161
 11
-10.35
 21
84.1161
  0
LINE
  8
0
 10
-10.35
 20
84.1161
 11
-14.85
 21
84.1161
  0
LINE
  8
0
 10
-14.85
 20
84.1161
 11
-106.577
 21
84.0723
  0
LINE
  8
0
 10
-106.577
 20
84.0723
 11
-107.924
 21
83.6607
  0
LINE
  8
0
 10
-107.924
 20
83.6607
 11
-109.077
 21
82.8531
  0
LINE
  8
0
 10
-109.077
 20
82.8531
 11
-109.924
 21
81.7287
  0
LINE
  8
0
 10
-109.924
 20
81.7287
 11
-110.383
 21
80.3975
  0
LINE
  8
0
 10
-110.383
 20
80.3975
 11
-124.685
 21
-0.715118
  0
LINE
  8
0
 10
-124.685
 20
-0.715118
 11
-124.71
 21
-2.12282
  0
LINE
  8
0
 10
-124.71
 20
-2.12282
 11
-124.298
 21
-3.46921
  0
LINE
  8
0
 10
-124.298
 20
-3.46921
 11
-123.491
 21
-4.62251
  0
LINE
  8
0
 10
-123.491
 20
-4.62251
 11
-122.366
 21
-5.4698
  0
LINE
  8
0
 10
-122.366
 20
-5.4698
 11
-121.035
 21
-5.92818
  0
LINE
  8
0
 10
-121.035
 20
-5.92818
 11
-47.0578
 21
-24.0495
  0
LINE
  8
0
 10
-47.0578
 20
-24.0495
 11
-45.6501
 21
-24.0741
  0
LINE
  8
0
 10
-45.6501
 20
-24.0741
 11
-25.7148
 21
-24.0741
  0
LINE
  8
0
 10
-25.7148
 20
-24.0741
 11
-42.7924
 21
-21.0628
  0
LINE
  8
0
 10
-15.3135
 20
78.1895
 11
-15.7317
 21
78.4026
  0
LINE
  8
0
 10
-15.7317
 20
78.4026
 11
-16.0635
 21
78.7344
  0
LINE
  8
0
 10
-16.0635
 20
78.7344
 11
-16.2766
 21
79.1526
  0
LINE
  8
0
 10
-16.2766
 20
79.1526
 11
-16.35
 21
79.6161
  0
LINE
  8
0
 10
-16.35
 20
79.6161
 11
-16.2766
 21
80.0796
  0
LINE
  8
0
 10
-16.2766
 20
80.0796
 11
-16.0635
 21
80.4978
  0
LINE
  8
0
 10
-16.0635
 20
80.4978
 11
-15.7317
 21
80.8296
  0
LINE
  8
0
 10
-15.7317
 20
80.8296
 11
-15.3135
 21
81.0427
  0
LINE
  8
0
 10
-15.3135
 20
81.0427
 11
-14.85
 21
81.1161
  0
LINE
  8
0
 10
-14.85
 20
81.1161
 11
-14.3865
 21
81.0427
  0
LINE
  8
0
 10
-14.3865
 20
81.0427
 11
-13.9683
 21
80.8296
  0
LINE
  8
0
 10
-13.9683
 20
80.8296
 11
-13.6365
 21
80.4978
  0
LINE
  8
0
 10
-13.6365
 20
80.4978
 11
-13.4234
 21
80.0796
  0
LINE
  8
0
 10
-13.4234
 20
80.0796
 11
-13.35
 21
79.6161
  0
LINE
  8
0
 10
-13.35
 20
79.6161
 11
-13.4234
 21
79.1526
  0
LINE
  8
0
 10
-13.4234
 20
79.1526
 11
-13.6365
 21
78.7344
  0
LINE
  8
0
 10
-13.6365
 20
78.7344
 11
-13.9683
 21
78.4026
  0
LINE
  8
0
 10
-13.9683
 20
78.4026
 11
-14.3865
 21
78.1895
  0
LINE
  8
0
 10
-14.3865
 20
78.1895
 11
-14.85
 21
78.1161
  0
LINE
  8
0
 10
-14.85
 20
78.1161
 11
-15.3135
 21
78.1895
  0
LINE
  8
0
 10
14.3865
 20
78.1895
 11
13.9683
 21
78.4026
  0
LINE
  8
0
 10
13.9683
 20
78.4026
 11
13.6365
 21
78.7344
  0
LINE
  8
0
 10
13.6365
 20
78.7344
 11
13.4234
 21
79.1526
  0
LINE
  8
0
 10
13.4234
 20
79.1526
 11
13.35
 21
79.6161
  0
LINE
  8
0
 10
13.35
 20
79.6161
 11
13.4234
 21
80.0796
  0
LINE
  8
0
 10
13.4234
 20
80.0796
 11
13.6365
 21
80.4978
  0
LINE
  8
0
 10
13.6365
 20
80.4978
 11
13.9683
 21
80.8296
  0
LINE
  8
0
 10
13.9683
 20
80.8296
 11
14.3865
 21
81.0427
  0
LINE
  8
0
 10
14.3865
 20
81.0427
 11
14.85
 21
81.1161
  0
LINE
  8
0
 10
14.85
 20
81.1161
 11
15.3135
 21
81.0427
  0
LINE
  8
0
 10
15.3135
 20
81.0427
 11
15.7317
 21
80.8296
  0
LINE
  8
0
 10
15.7317
 20
80.8296
 11
16.0635
 21
80.4978
  0
LINE
  8
0
 10
16.0635
 20
80.4978
 11
16.2766
 21
80.0796
  0
LINE
  8
0
 10
16.2766
 20
80.0796
 11
16.35
 21
79.6161
  0
LINE
  8
0
 10
16.35
 20
79.6161
 11
16.2766
 21
79.1526
  0
LINE
  8
0
 10
16.2766
 20
79.1526
 11
16.0635
 21
78.7344
  0
LINE
  8
0
 10
16.0635
 20
78.7344
 11
15.7317
 21
78.4026
  0
LINE
  8
0
 10
15.7317
 20
78.4026
 11
15.3135
 21
78.1895
  0
LINE
  8
0
 10
15.3135
 20
78.1895
 11
14.85
 21
78.1161
  0
LINE
  8
0
 10
14.85
 20
78.1161
 11
14.3865
 21
78.1895
  0
LINE
  8
0
 10
-106.212
 20
78.1389
 11
-106.655
 21
78.2917
  0
LINE
  8
0
 10
-106.655
 20
78.2917
 11
-107.03
 21
78.5741
  0
LINE
  8
0
 10
-107.03
 20
78.5741
 11
-107.299
 21
78.9585
  0
LINE
  8
0
 10
-107.299
 20
78.9585
 11
-107.437
 21
79.4073
  0
LINE
  8
0
 10
-107.437
 20
79.4073
 11
-107.428
 21
79.8766
  0
LINE
  8
0
 10
-107.428
 20
79.8766
 11
-107.276
 21
80.3203
  0
LINE
  8
0
 10
-107.276
 20
80.3203
 11
-106.993
 21
80.6951
  0
LINE
  8
0
 10
-106.993
 20
80.6951
 11
-106.609
 21
80.9643
  0
LINE
  8
0
 10
-106.609
 20
80.9643
 11
-106.16
 21
81.1015
  0
LINE
  8
0
 10
-106.16
 20
81.1015
 11
-105.691
 21
81.0933
  0
LINE
  8
0
 10
-105.691
 20
81.0933
 11
-105.247
 21
80.9405
  0
LINE
  8
0
 10
-105.247
 20
80.9405
 11
-104.872
 21
80.6581
  0
LINE
  8
0
 10
-104.872
 20
80.6581
 11
-104.603
 21
80.2737
  0
LINE
  8
0
 10
-104.603
 20
80.2737
 11
-104.466
 21
79.8249
  0
LINE
  8
0
 10
-104.466
 20
79.8249
 11
-104.474
 21
79.3556
  0
LINE
  8
0
 10
-104.474
 20
79.3556
 11
-104.627
 21
78.9119
  0
LINE
  8
0
 10
-104.627
 20
78.9119
 11
-104.909
 21
78.5371
  0
LINE
  8
0
 10
-104.909
 20
78.5371
 11
-105.294
 21
78.2679
  0
LINE
  8
0
 10
-105.294
 20
78.2679
 11
-105.742
 21
78.1307
  0
LINE
  8
0
 10
-105.742
 20
78.1307
 11
-106.212
 21
78.1389
  0
LINE
  8
0
 10
105.294
 20
78.2679
 11
104.909
 21
78.5371
  0
LINE
  8
0
 10
104.909
 20
78.5371
 11
104.627
 21
78.9119
  0
LINE
  8
0
 10
104.627
 20
78.9119
 11
104.474
 21
79.3556
  0
LINE
  8
0
 10
104.474
 20
79.3556
 11
104.466
 21
79.8249
  0
LINE
  8
0
 10
104.466
 20
79.8249
 11
104.603
 21
80.2737
  0
LINE
  8
0
 10
104.603
 20
80.2737
 11
104.872
 21
80.6581
  0
LINE
  8
0
 10
104.872
 20
80.6581
 11
105.247
 21
80.9405
  0
LINE
  8
0
 10
105.247
 20
80.9405
 11
105.691
 21
81.0933
  0
LINE
  8
0
 10
105.691
 20
81.0933
 11
106.16
 21
81.1015
  0
LINE
  8
0
 10
106.16
 20
81.1015
 11
106.609
 21
80.9643
  0
LINE
  8
0
 10
106.609
 20
80.9643
 11
106.993
 21
80.6951
  0
LINE
  8
0
 10
106.993
 20
80.6951
 11
107.276
 21
80.3203
  0
LINE
  8
0
 10
107.276
 20
80.3203
 11
107.428
 21
79.8766
  0
LINE
  8
0
 10
107.428
 20
79.8766
 11
107.437
 21
79.4073
  0
LINE
  8
0
 10
107.437
 20
79.4073
 11
107.299
 21
78.9585
  0
LINE
  8
0
 10
107.299
 20
78.9585
 11
107.03
 21
78.5741
  0
LINE
  8
0
 10
107.03
 20
78.5741
 11
106.655
 21
78.2917
  0
LINE
  8
0
 10
106.655
 20
78.2917
 11
106.212
 21
78.1389
  0
LINE
  8
0
 10
106.212
 20
78.1389
 11
105.742
 21
78.1307
  0
LINE
  8
0
 10
105.742
 20
78.1307
 11
105.294
 21
78.2679
  0
LINE
  8
0
 10
-66.7574
 20
61.8584
 11
-63.6317
 21
79.5849
  0
LINE
  8
0
 10
-63.6317
 20
79.5849
 11
-45.9052
 21
76.4593
  0
LINE
  8
0
 10
-45.9052
 20
76.4593
 11
-49.0309
 21
58.7327
  0
LINE
  8
0
 10
-49.0309
 20
58.7327
 11
-66.7574
 21
61.8584
  0
LINE
  8
0
 10
45.9052
 20
76.4593
 11
63.6317
 21
79.5849
  0
LINE
  8
0
 10
63.6317
 20
79.5849
 11
66.7574
 21
61.8584
  0
LINE
  8
0
 10
66.7574
 20
61.8584
 11
49.0309
 21
58.7327
  0
LINE
  8
0
 10
49.0309
 20
58.7327
 11
45.9052
 21
76.4593
  0
LINE
  8
0
 10
-86.337
 20
60.2337
 11
-83.2113
 21
77.9602
  0
LINE
  8
0
 10
-83.2113
 20
77.9602
 11
-65.4848
 21
74.8346
  0
LINE
  8
0
 10
-65.4848
 20
74.8346
 11
-68.6104
 21
57.108
  0
LINE
  8
0
 10
-68.6104
 20
57.108
 11
-86.337
 21
60.2337
  0
LINE
  8
0
 10
65.4848
 20
74.8346
 11
83.2113
 21
77.9602
  0
LINE
  8
0
 10
83.2113
 20
77.9602
 11
86.337
 21
60.2337
  0
LINE
  8
0
 10
86.337
 20
60.2337
 11
68.6104
 21
57.108
  0
LINE
  8
0
 10
68.6104
 20
57.108
 11
65.4848
 21
74.8346
  0
LINE
  8
0
 10
-106.09
 20
57.6242
 11
-102.965
 21
75.3507
  0
LINE
  8
0
 10
-102.965
 20
75.3507
 11
-85.238
 21
72.225
  0
LINE
  8
0
 10
-85.238
 20
72.225
 11
-88.3637
 21
54.4985
  0
LINE
  8
0
 10
-88.3637
 20
54.4985
 11
-106.09
 21
57.6242
  0
LINE
  8
0
 10
85.238
 20
72.225
 11
102.965
 21
75.3507
  0
LINE
  8
0
 10
102.965
 20
75.3507
 11
106.09
 21
57.6242
  0
LINE
  8
0
 10
106.09
 20
57.6242
 11
88.3637
 21
54.4985
  0
LINE
  8
0
 10
88.3637
 20
54.4985
 11
85.238
 21
72.225
  0
LINE
  8
0
 10
-49.0879
 20
52.6503
 11
-45.9623
 21
70.3768
  0
LINE
  8
0
 10
-45.9623
 20
70.3768
 11
-28.2357
 21
67.2511
  0
LINE
  8
0
 10
-28.2357
 20
67.2511
 11
-31.3614
 21
49.5246
  0
LINE
  8
0
 10
-31.3614
 20
49.5246
 11
-49.0879
 21
52.6503
  0
LINE
  8
0
 10
28.2357
 20
67.2511
 11
45.9623
 21
70.3768
  0
LINE
  8
0
 10
45.9623
 20
70.3768
 11
49.0879
 21
52.6503
  0
LINE
  8
0
 10
49.0879
 20
52.6503
 11
31.3614
 21
49.5246
  0
LINE
  8
0
 10
31.3614
 20
49.5246
 11
28.2357
 21
67.2511
  0
LINE
  8
0
 10
-31.2448
 20
44.4269
 11
-28.1192
 21
62.1534
  0
LINE
  8
0
 10
-28.1192
 20
62.1534
 11
-10.3926
 21
59.0278
  0
LINE
  8
0
 10
-10.3926
 20
59.0278
 11
-13.5183
 21
41.3012
  0
LINE
  8
0
 10
-13.5183
 20
41.3012
 11
-31.2448
 21
44.4269
  0
LINE
  8
0
 10
10.3926
 20
59.0278
 11
28.1192
 21
62.1534
  0
LINE
  8
0
 10
28.1192
 20
62.1534
 11
31.2448
 21
44.4269
  0
LINE
  8
0
 10
31.2448
 20
44.4269
 11
13.5183
 21
41.3012
  0
LINE
  8
0
 10
13.5183
 20
41.3012
 11
10.3926
 21
59.0278
  0
LINE
  8
0
 10
-70.0567
 20
43.1471
 11
-66.931
 21
60.8736
  0
LINE
  8
0
 10
-66.931
 20
60.8736
 11
-49.2045
 21
57.7479
  0
LINE
  8
0
 10
-49.2045
 20
57.7479
 11
-52.3302
 21
40.0214
  0
LINE
  8
0
 10
-52.3302
 20
40.0214
 11
-70.0567
 21
43.1471
  0
LINE
  8
0
 10
49.2045
 20
57.7479
 11
66.931
 21
60.8736
  0
LINE
  8
0
 10
66.931
 20
60.8736
 11
70.0567
 21
43.1471
  0
LINE
  8
0
 10
70.0567
 20
43.1471
 11
52.3302
 21
40.0214
  0
LINE
  8
0
 10
52.3302
 20
40.0214
 11
49.2045
 21
57.7479
  0
LINE
  8
0
 10
-89.6363
 20
41.5223
 11
-86.5106
 21
59.2489
  0
LINE
  8
0
 10
-86.5106
 20
59.2489
 11
-68.7841
 21
56.1232
  0
LINE
  8
0
 10
-68.7841
 20
56.1232
 11
-71.9098
 21
38.3967
  0
LINE
  8
0
 10
-71.9098
 20
38.3967
 11
-89.6363
 21
41.5223
  0
LINE
  8
0
 10
68.7841
 20
56.1232
 11
86.5106
 21
59.2489
  0
LINE
  8
0
 10
86.5106
 20
59.2489
 11
89.6363
 21
41.5223
  0
LINE
  8
0
 10
89.6363
 20
41.5223
 11
71.9098
 21
38.3967
  0
LINE
  8
0
 10
71.9098
 20
38.3967
 11
68.7841
 21
56.1232
  0
LINE
  8
0
 10
-109.39
 20
38.9128
 11
-106.264
 21
56.6394
  0
LINE
  8
0
 10
-106.264
 20
56.6394
 11
-88.5373
 21
53.5137
  0
LINE
  8
0
 10
-88.5373
 20
53.5137
 11
-91.663
 21
35.7871
  0
LINE
  8
0
 10
-91.663
 20
35.7871
 11
-109.39
 21
38.9128
  0
LINE
  8
0
 10
88.5373
 20
53.5137
 11
106.264
 21
56.6394
  0
LINE
  8
0
 10
106.264
 20
56.6394
 11
109.39
 21
38.9128
  0
LINE
  8
0
 10
109.39
 20
38.9128
 11
91.663
 21
35.7871
  0
LINE
  8
0
 10
91.663
 20
35.7871
 11
88.5373
 21
53.5137
  0
LINE
  8
0
 10
-52.3873
 20
33.9389
 11
-49.2616
 21
51.6655
  0
LINE
  8
0
 10
-49.2616
 20
51.6655
 11
-31.535
 21
48.5398
  0
LINE
  8
0
 10
-31.535
 20
48.5398
 11
-34.6607
 21
30.8132
  0
LINE
  8
0
 10
-34.6607
 20
30.8132
 11
-52.3873
 21
33.9389
  0
LINE
  8
0
 10
31.535
 20
48.5398
 11
49.2616
 21
51.6655
  0
LINE
  8
0
 10
49.2616
 20
51.6655
 11
52.3873
 21
33.9389
  0
LINE
  8
0
 10
52.3873
 20
33.9389
 11
34.6607
 21
30.8132
  0
LINE
  8
0
 10
34.6607
 20
30.8132
 11
31.535
 21
48.5398
  0
LINE
  8
0
 10
-34.5441
 20
25.7155
 11
-31.4185
 21
43.4421
  0
LINE
  8
0
 10
-31.4185
 20
43.4421
 11
-13.6919
 21
40.3164
  0
LINE
  8
0
 10
-13.6919
 20
40.3164
 11
-16.8176
 21
22.5899
  0
LINE
  8
0
 10
-16.8176
 20
22.5899
 11
-34.5441
 21
25.7155
  0
LINE
  8
0
 10
13.6919
 20
40.3164
 11
31.4185
 21
43.4421
  0
LINE
  8
0
 10
31.4185
 20
43.4421
 11
34.5441
 21
25.7155
  0
LINE
  8
0
 10
34.5441
 20
25.7155
 11
16.8176
 21
22.5899
  0
LINE
  8
0
 10
16.8176
 20
22.5899
 11
13.6919
 21
40.3164
  0
LINE
  8
0
 10
-73.356
 20
24.4357
 11
-70.2304
 21
42.1623
  0
LINE
  8
0
 10
-70.2304
 20
42.1623
 11
-52.5038
 21
39.0366
  0
LINE
  8
0
 10
-52.5038
 20
39.0366
 11
-55.6295
 21
21.3101
  0
LINE
  8
0
 10
-55.6295
 20
21.3101
 11
-73.356
 21
24.4357
  0
LINE
  8
0
 10
52.5038
 20
39.0366
 11
70.2304
 21
42.1623
  0
LINE
  8
0
 10
70.2304
 20
42.1623
 11
73.356
 21
24.4357
  0
LINE
  8
0
 10
73.356
 20
24.4357
 11
55.6295
 21
21.3101
  0
LINE
  8
0
 10
55.6295
 20
21.3101
 11
52.5038
 21
39.0366
  0
LINE
  8
0
 10
-92.9356
 20
22.811
 11
-89.81
 21
40.5375
  0
LINE
  8
0
 10
-89.81
 20
40.5375
 11
-72.0834
 21
37.4119
  0
LINE
  8
0
 10
-72.0834
 20
37.4119
 11
-75.2091
 21
19.6853
  0
LINE
  8
0
 10
-75.2091
 20
19.6853
 11
-92.9356
 21
22.811
  0
LINE
  8
0
 10
72.0834
 20
37.4119
 11
89.81
 21
40.5375
  0
LINE
  8
0
 10
89.81
 20
40.5375
 11
92.9356
 21
22.811
  0
LINE
  8
0
 10
92.9356
 20
22.811
 11
75.2091
 21
19.6853
  0
LINE
  8
0
 10
75.2091
 20
19.6853
 11
72.0834
 21
37.4119
  0
LINE
  8
0
 10
-9
 20
10
 11
-9
 21
40.5
  0
LINE
  8
0
 10
-9
 20
40.5
 11
9
 21
40.5
  0
LINE
  8
0
 10
9
 20
40.5
 11
9
 21
10
  0
LINE
  8
0
 10
9
 20
10
 11
-9
 21
10
  0
LINE
  8
0
 10
-112.689
 20
20.2015
 11
-109.563
 21
37.928
  0
LINE
  8
0
 10
-109.563
 20
37.928
 11
-91.8366
 21
34.8023
  0
LINE
  8
0
 10
-91.8366
 20
34.8023
 11
-94.9623
 21
17.0758
  0
LINE
  8
0
 10
-94.9623
 20
17.0758
 11
-112.689
 21
20.2015
  0
LINE
  8
0
 10
91.8366
 20
34.8023
 11
109.563
 21
37.928
  0
LINE
  8
0
 10
109.563
 20
37.928
 11
112.689
 21
20.2015
  0
LINE
  8
0
 10
112.689
 20
20.2015
 11
94.9623
 21
17.0758
  0
LINE
  8
0
 10
94.9623
 20
17.0758
 11
91.8366
 21
34.8023
  0
LINE
  8
0
 10
-55.6866
 20
15.2276
 11
-52.5609
 21
32.9541
  0
LINE
  8
0
 10
-52.5609
 20
32.9541
 11
-34.8344
 21
29.8284
  0
LINE
  8
0
 10
-34.8344
 20
29.8284
 11
-37.96
 21
12.1019
  0
LINE
  8
0
 10
-37.96
 20
12.1019
 11
-55.6866
 21
15.2276
  0
LINE
  8
0
 10
34.8344
 20
29.8284
 11
52.5609
 21
32.9541
  0
LINE
  8
0
 10
52.5609
 20
32.9541
 11
55.6866
 21
15.2276
  0
LINE
  8
0
 10
55.6866
 20
15.2276
 11
37.96
 21
12.1019
  0
LINE
  8
0
 10
37.96
 20
12.1019
 11
34.8344
 21
29.8284
  0
LINE
  8
0
 10
-37.8435
 20
7.0042
 11
-34.7178
 21
24.7307
  0
LINE
  8
0
 10
-34.7178
 20
24.7307
 11
-16.9913
 21
21.6051
  0
LINE
  8
0
 10
-16.9913
 20
21.6051
 11
-20.1169
 21
3.87854
  0
LINE
  8
0
 10
-20.1169
 20
3.87854
 11
-37.8435
 21
7.0042
  0
LINE
  8
0
 10
16.9913
 20
21.6051
 11
34.7178
 21
24.7307
  0
LINE
  8
0
 10
34.7178
 20
24.7307
 11
37.8435
 21
7.0042
  0
LINE
  8
0
 10
37.8435
 20
7.0042
 11
20.1169
 21
3.87854
  0
LINE
  8
0
 10
20.1169
 20
3.87854
 11
16.9913
 21
21.6051
  0
LINE
  8
0
 10
-76.6553
 20
5.72437
 11
-73.5297
 21
23.4509
  0
LINE
  8
0
 10
-73.5297
 20
23.4509
 11
-55.8031
 21
20.3252
  0
LINE
  8
0
 10
-55.8031
 20
20.3252
 11
-58.9288
 21
2.59871
  0
LINE
  8
0
 10
-58.9288
 20
2.59871
 11
-76.6553
 21
5.72437
  0
LINE
  8
0
 10
55.8031
 20
20.3252
 11
73.5297
 21
23.4509
  0
LINE
  8
0
 10
73.5297
 20
23.4509
 11
76.6553
 21
5.72437
  0
LINE
  8
0
 10
76.6553
 20
5.72437
 11
58.9288
 21
2.59871
  0
LINE
  8
0
 10
58.9288
 20
2.59871
 11
55.8031
 21
20.3252
  0
LINE
  8
0
 10
-96.2349
 20
4.09966
 11
-93.1093
 21
21.8262
  0
LINE
  8
0
 10
-93.1093
 20
21.8262
 11
-75.3827
 21
18.7005
  0
LINE
  8
0
 10
-75.3827
 20
18.7005
 11
-78.5084
 21
0.973984
  0
LINE
  8
0
 10
-78.5084
 20
0.973984
 11
-96.2349
 21
4.09966
  0
LINE
  8
0
 10
75.3827
 20
18.7005
 11
93.1093
 21
21.8262
  0
LINE
  8
0
 10
93.1093
 20
21.8262
 11
96.2349
 21
4.09966
  0
LINE
  8
0
 10
96.2349
 20
4.09966
 11
78.5084
 21
0.973984
  0
LINE
  8
0
 10
78.5084
 20
0.973984
 11
75.3827
 21
18.7005
  0
LINE
  8
0
 10
-115.988
 20
1.49011
 11
-112.863
 21
19.2167
  0
LINE
  8
0
 10
-112.863
 20
19.2167
 11
-95.136
 21
16.091
  0
LINE
  8
0
 10
-95.136
 20
16.091
 11
-98.2616
 21
-1.63553
  0
LINE
  8
0
 10
-98.2616
 20
-1.63553
 11
-115.988
 21
1.49011
  0
LINE
  8
0
 10
95.136
 20
16.091
 11
112.863
 21
19.2167
  0
LINE
  8
0
 10
112.863
 20
19.2167
 11
115.988
 21
1.49011
  0
LINE
  8
0
 10
115.988
 20
1.49011
 11
98.2616
 21
-1.63553
  0
LINE
  8
0
 10
98.2616
 20
-1.63553
 11
95.136
 21
16.091
  0
LINE
  8
0
 10
-58.9859
 20
-3.48378
 11
-55.8602
 21
14.2428
  0
LINE
  8
0
 10
-55.8602
 20
14.2428
 11
-38.1337
 21
11.1171
  0
LINE
  8
0
 10
-38.1337
 20
11.1171
 11
-41.2593
 21
-6.60944
  0
LINE
  8
0
 10
-41.2593
 20
-6.60944
 11
-58.9859
 21
-3.48378
  0
LINE
  8
0
 10
38.1337
 20
11.1171
 11
55.8602
 21
14.2428
  0
LINE
  8
0
 10
55.8602
 20
14.2428
 11
58.9859
 21
-3.48378
  0
LINE
  8
0
 10
58.9859
 20
-3.48378
 11
41.2593
 21
-6.60944
  0
LINE
  8
0
 10
41.2593
 20
-6.60944
 11
38.1337
 21
11.1171
  0
LINE
  8
0
 10
-23.2563
 20
-19.6843
 11
-18.4809
 21
7.39792
  0
LINE
  8
0
 10
-18.4809
 20
7.39792
 11
-0.75441
 21
4.27225
  0
LINE
  8
0
 10
-0.75441
 20
4.27225
 11
-5.52971
 21
-22.81
  0
LINE
  8
0
 10
-5.52971
 20
-22.81
 11
-23.2563
 21
-19.6843
  0
LINE
  8
0
 10
0.75441
 20
4.27225
 11
18.4809
 21
7.39792
  0
LINE
  8
0
 10
18.4809
 20
7.39792
 11
23.2563
 21
-19.6843
  0
LINE
  8
0
 10
23.2563
 20
-19.6843
 11
5.52971
 21
-22.81
  0
LINE
  8
0
 10
5.52971
 20
-22.81
 11
0.75441
 21
4.27225
  0
LINE
  8
0
 10
-120.514
 20
-2.97375
 11
-120.958
 21
-2.82095
  0
LINE
  8
0
 10
-120.958
 20
-2.82095
 11
-121.333
 21
-2.53851
  0
LINE
  8
0
 10
-121.333
 20
-2.53851
 11
-121.602
 21
-2.15408
  0
LINE
  8
0
 10
-121.602
 20
-2.15408
 11
-121.739
 21
-1.70529
  0
LINE
  8
0
 10
-121.739
 20
-1.70529
 11
-121.731
 21
-1.23607
  0
LINE
  8
0
 10
-121.731
 20
-1.23607
 11
-121.578
 21
-0.792328
  0
LINE
  8
0
 10
-121.578
 20
-0.792328
 11
-121.296
 21
-0.417526
  0
LINE
  8
0
 10
-121.296
 20
-0.417526
 11
-120.911
 21
-0.148346
  0
LINE
  8
0
 10
-120.911
 20
-0.148346
 11
-120.462
 21
-0.0111389
  0
LINE
  8
0
 10
-120.462
 20
-0.0111389
 11
-119.993
 21
-0.0193329
  0
LINE
  8
0
 10
-119.993
 20
-0.0193329
 11
-119.549
 21
-0.172104
  0
LINE
  8
0
 10
-119.549
 20
-0.172104
 11
-119.175
 21
-0.454544
  0
LINE
  8
0
 10
-119.175
 20
-0.454544
 11
-118.905
 21
-0.838974
  0
LINE
  8
0
 10
-118.905
 20
-0.838974
 11
-118.768
 21
-1.28777
  0
LINE
  8
0
 10
-118.768
 20
-1.28777
 11
-118.776
 21
-1.757
  0
LINE
  8
0
 10
-118.776
 20
-1.757
 11
-118.929
 21
-2.20073
  0
LINE
  8
0
 10
-118.929
 20
-2.20073
 11
-119.212
 21
-2.57553
  0
LINE
  8
0
 10
-119.212
 20
-2.57553
 11
-119.596
 21
-2.84471
  0
LINE
  8
0
 10
-119.596
 20
-2.84471
 11
-120.045
 21
-2.98193
  0
LINE
  8
0
 10
-120.045
 20
-2.98193
 11
-120.514
 21
-2.97375
  0
LINE
  8
0
 10
119.596
 20
-2.84471
 11
119.212
 21
-2.57553
  0
LINE
  8
0
 10
119.212
 20
-2.57553
 11
118.929
 21
-2.20073
  0
LINE
  8
0
 10
118.929
 20
-2.20073
 11
118.776
 21
-1.757
  0
LINE
  8
0
 10
118.776
 20
-1.757
 11
118.768
 21
-1.28777
  0
LINE
  8
0
 10
118.768
 20
-1.28777
 11
118.905
 21
-0.838974
  0
LINE
  8
0
 10
118.905
 20
-0.838974
 11
119.175
 21
-0.454544
  0
LINE
  8
0
 10
119.175
 20
-0.454544
 11
119.549
 21
-0.172104
  0
LINE
  8
0
 10
119.549
 20
-0.172104
 11
119.993
 21
-0.0193329
  0
LINE
  8
0
 10
119.993
 20
-0.0193329
 11
120.462
 21
-0.0111389
  0
LINE
  8
0
 10
120.462
 20
-0.0111389
 11
120.911
 21
-0.148346
  0
LINE
  8
0
 10
120.911
 20
-0.148346
 11
121.296
 21
-0.417526
  0
LINE
  8
0
 10
121.296
 20
-0.417526
 11
121.578
 21
-0.792328
  0
LINE
  8
0
 10
121.578
 20
-0.792328
 11
121.731
 21
-1.23607
  0
LINE
  8
0
 10
121.731
 20
-1.23607
 11
121.739
 21
-1.70529
  0
LINE
  8
0
 10
121.739
 20
-1.70529
 11
121.602
 21
-2.15408
  0
LINE
  8
0
 10
121.602
 20
-2.15408
 11
121.333
 21
-2.53851
  0
LINE
  8
0
 10
121.333
 20
-2.53851
 11
120.958
 21
-2.82095
  0
LINE
  8
0
 10
120.958
 20
-2.82095
 11
120.514
 21
-2.97375
  0
LINE
  8
0
 10
120.514
 20
-2.97375
 11
120.045
 21
-2.98193
  0
LINE
  8
0
 10
120.045
 20
-2.98193
 11
119.596
 21
-2.84471
  0
LINE
  8
0
 10
-46.5369
 20
-21.095
 11
-46.9806
 21
-20.9422
  0
LINE
  8
0
 10
-46.9806
 20
-20.9422
 11
-47.3554
 21
-20.6598
  0
LINE
  8
0
 10
-47.3554
 20
-20.6598
 11
-47.6246
 21
-20.2754
  0
LINE
  8
0
 10
-47.6246
 20
-20.2754
 11
-47.7618
 21
-19.8266
  0
LINE
  8
0
 10
-47.7618
 20
-19.8266
 11
-47.7536
 21
-19.3574
  0
LINE
  8
0
 10
-47.7536
 20
-19.3574
 11
-47.6008
 21
-18.9136
  0
LINE
  8
0
 10
-47.6008
 20
-18.9136
 11
-47.3184
 21
-18.5388
  0
LINE
  8
0
 10
-47.3184
 20
-18.5388
 11
-46.934
 21
-18.2696
  0
LINE
  8
0
 10
-46.934
 20
-18.2696
 11
-46.4852
 21
-18.1324
  0
LINE
  8
0
 10
-46.4852
 20
-18.1324
 11
-46.0159
 21
-18.1406
  0
LINE
  8
0
 10
-46.0159
 20
-18.1406
 11
-45.5722
 21
-18.2934
  0
LINE
  8
0
 10
-45.5722
 20
-18.2934
 11
-45.1974
 21
-18.5759
  0
LINE
  8
0
 10
-45.1974
 20
-18.5759
 11
-44.9282
 21
-18.9603
  0
LINE
  8
0
 10
-44.9282
 20
-18.9603
 11
-44.791
 21
-19.4091
  0
LINE
  8
0
 10
-44.791
 20
-19.4091
 11
-44.7992
 21
-19.8783
  0
LINE
  8
0
 10
-44.7992
 20
-19.8783
 11
-44.952
 21
-20.322
  0
LINE
  8
0
 10
-44.952
 20
-20.322
 11
-45.2344
 21
-20.6968
  0
LINE
  8
0
 10
-45.2344
 20
-20.6968
 11
-45.6189
 21
-20.966
  0
LINE
  8
0
 10
-45.6189
 20
-20.966
 11
-46.0677
 21
-21.1032
  0
LINE
  8
0
 10
-46.0677
 20
-21.1032
 11
-46.5369
 21
-21.095
  0
LINE
  8
0
 10
45.6189
 20
-20.966
 11
45.2344
 21
-20.6968
  0
LINE
  8
0
 10
45.2344
 20
-20.6968
 11
44.952
 21
-20.322
  0
LINE
  8
0
 10
44.952
 20
-20.322
 11
44.7992
 21
-19.8783
  0
LINE
  8
0
 10
44.7992
 20
-19.8783
 11
44.791
 21
-19.4091
  0
LINE
  8
0
 10
44.791
 20
-19.4091
 11
44.9282
 21
-18.9603
  0
LINE
  8
0
 10
44.9282
 20
-18.9603
 11
45.1974
 21
-18.5759
  0
LINE
  8
0
 10
45.1974
 20
-18.5759
 11
45.5722
 21
-18.2934
  0
LINE
  8
0
 10
45.5722
 20
-18.2934
 11
46.0159
 21
-18.1406
  0
LINE
  8
0
 10
46.0159
 20
-18.1406
 11
46.4852
 21
-18.1324
  0
LINE
  8
0
 10
46.4852
 20
-18.1324
 11
46.934
 21
-18.2696
  0
LINE
  8
0
 10
46.934
 20
-18.2696
 11
47.3184
 21
-18.5388
  0
LINE
  8
0
 10
47.3184
 20
-18.5388
 11
47.6008
 21
-18.9136
  0
LINE
  8
0
 10
47.6008
 20
-18.9136
 11
47.7536
 21
-19.3574
  0
LINE
  8
0
 10
47.7536
 20
-19.3574
 11
47.7618
 21
-19.8266
  0
LINE
  8
0
 10
47.7618
 20
-19.8266
 11
47.6246
 21
-20.2754
  0
LINE
  8
0
 10
47.6246
 20
-20.2754
 11
47.3554
 21
-20.6598
  0
LINE
  8
0
 10
47.3554
 20
-20.6598
 11
46.9806
 21
-20.9422
  0
LINE
  8
0
 10
46.9806
 20
-20.9422
 11
46.5369
 21
-21.095
  0
LINE
  8
0
 10
46.5369
 20
-21.095
 11
46.0677
 21
-21.1032
  0
LINE
  8
0
 10
46.0677
 20
-21.1032
 11
45.6189
 21
-20.966
  0
LINE
  8
0
 10
5
 20
-45
 11
-5
 21
-45
  0
LINE
  8
0
 10
-5
 20
-45
 11
-5
 21
-55
  0
LINE
  8
0
 10
-5
 20
-55
 11
5
 21
-55
  0
LINE
  8
0
 10
5
 20
-55
 11
5
 21
-45
  0
ENDSEC
  0
SECTION
  2
OBJECTS
  0
DICTIONARY
  0
ENDSEC
  0
EOF
