  0
SECTION
  2
HEADER
  9
$ACADVER
  1
AC1014
  9
$HANDSEED
  5
FFFF
  9
$MEASUREMENT
 70
     1
  0
ENDSEC
  0
SECTION
  2
TABLES
  0
TABLE
  2
VPORT
  5
8
330
0
100
AcDbSymbolTable
 70
     4
  0
VPORT
  5
2E
330
8
100
AcDbSymbolTableRecord
100
AcDbViewportTableRecord
  2
*ACTIVE
 70
     0
 10
0.0
 20
0.0
 11
1.0
 21
1.0
 12
210.0
 22
148.5
 13
0.0
 23
0.0
 14
10.0
 24
10.0
 15
10.0
 25
10.0
 16
0.0
 26
0.0
 36
1.0
 17
0.0
 27
0.0
 37
0.0
 40
341.0
 41
1.24
 42
50.0
 43
0.0
 44
0.0
 50
0.0
 51
0.0
 71
     0
 72
   100
 73
     1
 74
     3
 75
     0
 76
     0
 77
     0
 78
     0
  0
ENDTAB
  0
TABLE
  2
LTYPE
  5
5
330
0
100
AcDbSymbolTable
 70
     1
  0
LTYPE
  5
14
330
5
100
AcDbSymbolTableRecord
100
AcDbLinetypeTableRecord
  2
BYBLOCK
 70
     0
  3

 72
    65
 73
     0
 40
0.0
  0
LTYPE
  5
15
330
5
100
AcDbSymbolTableRecord
100
AcDbLinetypeTableRecord
  2
BYLAYER
 70
     0
  3

 72
    65
 73
     0
 40
0.0
  0
LTYPE
  5
16
330
5
100
AcDbSymbolTableRecord
100
AcDbLinetypeTableRecord
  2
CONTINUOUS
 70
     0
  3
Solid line
 72
    65
 73
     0
 40
0.0
  0
ENDTAB
  0
TABLE
  2
LAYER
  5
2
100
AcDbSymbolTable
 70
1
  0
LAYER
  5
50
100
AcDbSymbolTableRecord
100
AcDbLayerTableRecord
  2
0
 70
0
  6
CONTINUOUS
  0
ENDTAB
  0
TABLE
  2
STYLE
  5
3
330
0
100
AcDbSymbolTable
 70
     1
  0
STYLE
  5
11
330
3
100
AcDbSymbolTableRecord
100
AcDbTextStyleTableRecord
  2
STANDARD
 70
     0
 40
0.0
 41
1.0
 50
0.0
 71
     0
 42
2.5
  3
txt
  4

  0
ENDTAB
  0
TABLE
  2
VIEW
  5
6
330
0
100
AcDbSymbolTable
 70
     0
  0
ENDTAB
  0
TABLE
  2
UCS
  5
7
330
0
100
AcDbSymbolTable
 70
     0
  0
ENDTAB
  0
TABLE
  2
APPID
  5
9
330
0
100
AcDbSymbolTable
 70
     2
  0
APPID
  5
12
330
9
100
AcDbSymbolTableRecord
100
AcDbRegAppTableRecord
  2
ACAD
 70
     0
  0
ENDTAB
  0
TABLE
  2
DIMSTYLE
  5
A
330
0
100
AcDbSymbolTable
 70
     1
  0
DIMSTYLE
105
27
330
A
100
AcDbSymbolTableRecord
100
AcDbDimStyleTableRecord
  2
ISO-25
 70
     0
  3

  4

  5

  6

  7

 40
1.0
 41
2.5
 42
0.625
 43
3.75
 44
1.25
 45
0.0
 46
0.0
 47
0.0
 48
0.0
140
2.5
141
2.5
142
0.0
143
0.03937007874016
144
1.0
145
0.0
146
1.0
147
0.625
 71
     0
 72
     0
 73
     0
 74
     0
 75
     0
 76
     0
 77
     1
 78
     8
170
     0
171
     3
172
     1
173
     0
174
     0
175
     0
176
     0
177
     0
178
     0
270
     2
271
     2
272
     2
273
     2
274
     3
340
11
275
     0
280
     0
281
     0
282
     0
283
     0
284
     8
285
     0
286
     0
287
     3
288
     0
  0
ENDTAB
  0
TABLE
  2
BLOCK_RECORD
  5
1
330
0
100
AcDbSymbolTable
 70
     1
  0
BLOCK_RECORD
  5
1F
330
1
100
AcDbSymbolTableRecord
100
AcDbBlockTableRecord
  2
*MODEL_SPACE
  0
BLOCK_RECORD
  5
1B
330
1
100
AcDbSymbolTableRecord
100
AcDbBlockTableRecord
  2
*PAPER_SPACE
  0
ENDTAB
  0
ENDSEC
  0
SECTION
  2
BLOCKS
  0
BLOCK
  5
20
330
1F
100
AcDbEntity
  8
0
100
AcDbBlockBegin
  2
*MODEL_SPACE
 70
     0
 10
0.0
 20
0.0
 30
0.0
  3
*MODEL_SPACE
  1

  0
ENDBLK
  5
21
330
1F
100
AcDbEntity
  8
0
100
AcDbBlockEnd
  0
BLOCK
  5
1C
330
1B
100
AcDbEntity
 67
     1
  8
0
100
AcDbBlockBegin
  2
*PAPER_SPACE
  1

  0
ENDBLK
  5
1D
330
1B
100
AcDbEntity
 67
     1
  8
0
100
AcDbBlockEnd
  0
ENDSEC
  0
SECTION
  2
ENTITIES
  0
LWPOLYLINE
  5
100
100
AcDbEntity
  8
0
 62
7
100
AcDbPolyline
 90
25
 70
0
 10
0.400000
 20
48.450464
 30
0.0
 10
0.400000
 20
707.338272
 30
0.0
 10
3.011457
 20
722.990864
 30
0.0
 10
10.564563
 20
736.948048
 30
0.0
 10
22.239720
 20
747.699152
 30
0.0
 10
36.775443
 20
754.071072
 30
0.0
 10
52.588730
 20
755.388872
 30
0.0
 10
2230.212622
 20
755.388872
 30
0.0
 10
2246.025902
 20
754.071072
 30
0.0
 10
2260.561662
 20
747.699152
 30
0.0
 10
2272.236782
 20
736.948048
 30
0.0
 10
2279.789902
 20
722.990864
 30
0.0
 10
2282.401342
 20
707.338272
 30
0.0
 10
2282.401342
 20
48.450464
 30
0.0
 10
2279.789902
 20
32.797984
 30
0.0
 10
2272.236782
 20
18.840864
 30
0.0
 10
2260.561662
 20
8.089664
 30
0.0
 10
2246.025902
 20
1.717824
 30
0.0
 10
2230.212622
 20
0.400064
 30
0.0
 10
52.588730
 20
0.400064
 30
0.0
 10
36.775443
 20
1.717824
 30
0.0
 10
22.239720
 20
8.089664
 30
0.0
 10
10.564563
 20
18.840864
 30
0.0
 10
3.011457
 20
32.797984
 30
0.0
 10
0.400000
 20
48.450464
 30
0.0
  0
LWPOLYLINE
  5
101
100
AcDbEntity
  8
0
 62
7
100
AcDbPolyline
 90
57
 70
0
 10
0.400000
 20
851.972163
 30
0.0
 10
0.400000
 20
1510.859880
 30
0.0
 10
3.011457
 20
1526.512472
 30
0.0
 10
10.564563
 20
1540.469656
 30
0.0
 10
22.239720
 20
1551.220768
 30
0.0
 10
36.775443
 20
1557.592688
 30
0.0
 10
52.588730
 20
1558.910480
 30
0.0
 10
1056.990782
 20
1558.910480
 30
0.0
 10
1072.378222
 20
1555.013384
 30
0.0
 10
1085.668462
 20
1546.327328
 30
0.0
 10
1095.415182
 20
1533.808448
 30
0.0
 10
1100.565742
 20
1518.798680
 30
0.0
 10
1100.565742
 20
1502.921080
 30
0.0
 10
1095.415182
 20
1487.911288
 30
0.0
 10
1085.668462
 20
1475.392432
 30
0.0
 10
1072.378222
 20
1466.706368
 30
0.0
 10
1056.990782
 20
1462.809280
 30
0.0
 10
1041.177422
 20
1464.127048
 30
0.0
 10
1035.384062
 20
1466.666184
 30
0.0
 10
92.805006
 20
1466.666184
 30
0.0
 10
92.805006
 20
896.165854
 30
0.0
 10
856.150542
 20
896.165854
 30
0.0
 10
856.150542
 20
857.998575
 30
0.0
 10
1426.650862
 20
857.998575
 30
0.0
 10
1426.650862
 20
896.165854
 30
0.0
 10
2189.996382
 20
896.165854
 30
0.0
 10
2189.996382
 20
1466.666184
 30
0.0
 10
1247.417342
 20
1466.666184
 30
0.0
 10
1241.623902
 20
1464.127048
 30
0.0
 10
1225.810622
 20
1462.809280
 30
0.0
 10
1210.423182
 20
1466.706368
 30
0.0
 10
1197.132942
 20
1475.392432
 30
0.0
 10
1187.386222
 20
1487.911288
 30
0.0
 10
1182.235662
 20
1502.921080
 30
0.0
 10
1182.235662
 20
1518.798680
 30
0.0
 10
1187.386222
 20
1533.808448
 30
0.0
 10
1197.132942
 20
1546.327328
 30
0.0
 10
1210.423182
 20
1555.013384
 30
0.0
 10
1225.810622
 20
1558.910480
 30
0.0
 10
2230.212622
 20
1558.910480
 30
0.0
 10
2246.025902
 20
1557.592688
 30
0.0
 10
2260.561662
 20
1551.220768
 30
0.0
 10
2272.236782
 20
1540.469656
 30
0.0
 10
2279.789902
 20
1526.512472
 30
0.0
 10
2282.401342
 20
1510.859880
 30
0.0
 10
2282.401342
 20
851.972163
 30
0.0
 10
2279.789902
 20
836.319568
 30
0.0
 10
2272.236782
 20
822.362385
 30
0.0
 10
2260.561662
 20
811.611277
 30
0.0
 10
2246.025902
 20
805.239334
 30
0.0
 10
2230.212622
 20
803.921563
 30
0.0
 10
52.588730
 20
803.921563
 30
0.0
 10
36.775443
 20
805.239334
 30
0.0
 10
22.239720
 20
811.611277
 30
0.0
 10
10.564563
 20
822.362385
 30
0.0
 10
3.011457
 20
836.319568
 30
0.0
 10
0.400000
 20
851.972163
 30
0.0
  0
LWPOLYLINE
  5
102
100
AcDbEntity
  8
0
 62
7
100
AcDbPolyline
 90
6
 70
0
 10
36.558490
 20
48.450464
 30
0.0
 10
44.882961
 20
59.916720
 30
0.0
 10
58.366054
 20
55.537528
 30
0.0
 10
58.366054
 20
41.363392
 30
0.0
 10
44.882961
 20
36.984224
 30
0.0
 10
36.558490
 20
48.450464
 30
0.0
  0
LWPOLYLINE
  5
103
100
AcDbEntity
  8
0
 62
7
100
AcDbPolyline
 90
6
 70
0
 10
36.558490
 20
707.338272
 30
0.0
 10
44.882961
 20
718.804528
 30
0.0
 10
58.366054
 20
714.425336
 30
0.0
 10
58.366054
 20
700.251200
 30
0.0
 10
44.882961
 20
695.872016
 30
0.0
 10
36.558490
 20
707.338272
 30
0.0
  0
LWPOLYLINE
  5
104
100
AcDbEntity
  8
0
 62
7
100
AcDbPolyline
 90
6
 70
0
 10
36.558490
 20
851.972163
 30
0.0
 10
44.882961
 20
863.438418
 30
0.0
 10
58.366054
 20
859.059231
 30
0.0
 10
58.366054
 20
844.885096
 30
0.0
 10
44.882961
 20
840.505909
 30
0.0
 10
36.558490
 20
851.972163
 30
0.0
  0
LWPOLYLINE
  5
105
100
AcDbEntity
  8
0
 62
7
100
AcDbPolyline
 90
6
 70
0
 10
36.558490
 20
1510.859880
 30
0.0
 10
44.882961
 20
1522.326136
 30
0.0
 10
58.366054
 20
1517.946944
 30
0.0
 10
58.366054
 20
1503.772808
 30
0.0
 10
44.882961
 20
1499.393624
 30
0.0
 10
36.558490
 20
1510.859880
 30
0.0
  0
LWPOLYLINE
  5
106
100
AcDbEntity
  8
0
 62
7
100
AcDbPolyline
 90
6
 70
0
 10
799.903982
 20
48.450464
 30
0.0
 10
808.228542
 20
59.916720
 30
0.0
 10
821.711582
 20
55.537528
 30
0.0
 10
821.711582
 20
41.363392
 30
0.0
 10
808.228542
 20
36.984224
 30
0.0
 10
799.903982
 20
48.450464
 30
0.0
  0
LWPOLYLINE
  5
107
100
AcDbEntity
  8
0
 62
7
100
AcDbPolyline
 90
6
 70
0
 10
799.903982
 20
851.972163
 30
0.0
 10
808.228542
 20
863.438418
 30
0.0
 10
821.711582
 20
859.059231
 30
0.0
 10
821.711582
 20
844.885096
 30
0.0
 10
808.228542
 20
840.505909
 30
0.0
 10
799.903982
 20
851.972163
 30
0.0
  0
LWPOLYLINE
  5
108
100
AcDbEntity
  8
0
 62
7
100
AcDbPolyline
 90
6
 70
0
 10
1040.960462
 20
707.338272
 30
0.0
 10
1049.284942
 20
718.804528
 30
0.0
 10
1062.768062
 20
714.425336
 30
0.0
 10
1062.768062
 20
700.251200
 30
0.0
 10
1049.284942
 20
695.872016
 30
0.0
 10
1040.960462
 20
707.338272
 30
0.0
  0
LWPOLYLINE
  5
109
100
AcDbEntity
  8
0
 62
7
100
AcDbPolyline
 90
6
 70
0
 10
1040.960462
 20
1510.859880
 30
0.0
 10
1049.284942
 20
1522.326136
 30
0.0
 10
1062.768062
 20
1517.946944
 30
0.0
 10
1062.768062
 20
1503.772808
 30
0.0
 10
1049.284942
 20
1499.393624
 30
0.0
 10
1040.960462
 20
1510.859880
 30
0.0
  0
LWPOLYLINE
  5
10a
100
AcDbEntity
  8
0
 62
1
100
AcDbPolyline
 90
5
 70
0
 10
1101.224622
 20
988.570832
 30
0.0
 10
1101.224622
 20
1068.922992
 30
0.0
 10
1181.576782
 20
1068.922992
 30
0.0
 10
1181.576782
 20
988.570832
 30
0.0
 10
1101.224622
 20
988.570832
 30
0.0
  0
LWPOLYLINE
  5
10b
100
AcDbEntity
  8
0
 62
7
100
AcDbPolyline
 90
6
 70
0
 10
1220.033342
 20
700.251200
 30
0.0
 10
1220.033342
 20
714.425336
 30
0.0
 10
1233.516382
 20
718.804528
 30
0.0
 10
1241.840862
 20
707.338272
 30
0.0
 10
1233.516382
 20
695.872016
 30
0.0
 10
1220.033342
 20
700.251200
 30
0.0
  0
LWPOLYLINE
  5
10c
100
AcDbEntity
  8
0
 62
7
100
AcDbPolyline
 90
6
 70
0
 10
1220.033342
 20
1503.772808
 30
0.0
 10
1220.033342
 20
1517.946944
 30
0.0
 10
1233.516382
 20
1522.326136
 30
0.0
 10
1241.840862
 20
1510.859880
 30
0.0
 10
1233.516382
 20
1499.393624
 30
0.0
 10
1220.033342
 20
1503.772808
 30
0.0
  0
LWPOLYLINE
  5
10d
100
AcDbEntity
  8
0
 62
7
100
AcDbPolyline
 90
6
 70
0
 10
1461.089822
 20
41.363392
 30
0.0
 10
1461.089822
 20
55.537528
 30
0.0
 10
1474.572862
 20
59.916720
 30
0.0
 10
1482.897342
 20
48.450464
 30
0.0
 10
1474.572862
 20
36.984224
 30
0.0
 10
1461.089822
 20
41.363392
 30
0.0
  0
LWPOLYLINE
  5
10e
100
AcDbEntity
  8
0
 62
7
100
AcDbPolyline
 90
6
 70
0
 10
1461.089822
 20
844.885096
 30
0.0
 10
1461.089822
 20
859.059231
 30
0.0
 10
1474.572862
 20
863.438418
 30
0.0
 10
1482.897342
 20
851.972163
 30
0.0
 10
1474.572862
 20
840.505909
 30
0.0
 10
1461.089822
 20
844.885096
 30
0.0
  0
LWPOLYLINE
  5
10f
100
AcDbEntity
  8
0
 62
7
100
AcDbPolyline
 90
6
 70
0
 10
2224.435342
 20
41.363392
 30
0.0
 10
2224.435342
 20
55.537528
 30
0.0
 10
2237.918382
 20
59.916720
 30
0.0
 10
2246.242862
 20
48.450464
 30
0.0
 10
2237.918382
 20
36.984224
 30
0.0
 10
2224.435342
 20
41.363392
 30
0.0
  0
LWPOLYLINE
  5
110
100
AcDbEntity
  8
0
 62
7
100
AcDbPolyline
 90
6
 70
0
 10
2224.435342
 20
700.251200
 30
0.0
 10
2224.435342
 20
714.425336
 30
0.0
 10
2237.918382
 20
718.804528
 30
0.0
 10
2246.242862
 20
707.338272
 30
0.0
 10
2237.918382
 20
695.872016
 30
0.0
 10
2224.435342
 20
700.251200
 30
0.0
  0
LWPOLYLINE
  5
111
100
AcDbEntity
  8
0
 62
7
100
AcDbPolyline
 90
6
 70
0
 10
2224.435342
 20
844.885096
 30
0.0
 10
2224.435342
 20
859.059231
 30
0.0
 10
2237.918382
 20
863.438418
 30
0.0
 10
2246.242862
 20
851.972163
 30
0.0
 10
2237.918382
 20
840.505909
 30
0.0
 10
2224.435342
 20
844.885096
 30
0.0
  0
LWPOLYLINE
  5
112
100
AcDbEntity
  8
0
 62
7
100
AcDbPolyline
 90
6
 70
0
 10
2224.435342
 20
1503.772808
 30
0.0
 10
2224.435342
 20
1517.946944
 30
0.0
 10
2237.918382
 20
1522.326136
 30
0.0
 10
2246.242862
 20
1510.859880
 30
0.0
 10
2237.918382
 20
1499.393624
 30
0.0
 10
2224.435342
 20
1503.772808
 30
0.0
  0
LWPOLYLINE
  5
113
100
AcDbEntity
  8
0
 62
7
100
AcDbPolyline
 90
25
 70
0
 10
2410.964862
 20
48.450464
 30
0.0
 10
2410.964862
 20
707.338272
 30
0.0
 10
2413.576302
 20
722.990864
 30
0.0
 10
2421.129342
 20
736.948048
 30
0.0
 10
2432.804542
 20
747.699152
 30
0.0
 10
2447.340222
 20
754.071072
 30
0.0
 10
2463.153582
 20
755.388872
 30
0.0
 10
4640.777582
 20
755.388872
 30
0.0
 10
4656.590782
 20
754.071072
 30
0.0
 10
4671.126462
 20
747.699152
 30
0.0
 10
4682.801502
 20
736.948048
 30
0.0
 10
4690.354862
 20
722.990864
 30
0.0
 10
4692.966142
 20
707.338272
 30
0.0
 10
4692.966142
 20
48.450464
 30
0.0
 10
4690.354862
 20
32.797984
 30
0.0
 10
4682.801502
 20
18.840864
 30
0.0
 10
4671.126462
 20
8.089664
 30
0.0
 10
4656.590782
 20
1.717824
 30
0.0
 10
4640.777582
 20
0.400064
 30
0.0
 10
2463.153582
 20
0.400064
 30
0.0
 10
2447.340222
 20
1.717824
 30
0.0
 10
2432.804542
 20
8.089664
 30
0.0
 10
2421.129342
 20
18.840864
 30
0.0
 10
2413.576302
 20
32.797984
 30
0.0
 10
2410.964862
 20
48.450464
 30
0.0
  0
LWPOLYLINE
  5
114
100
AcDbEntity
  8
0
 62
7
100
AcDbPolyline
 90
25
 70
0
 10
2410.964862
 20
851.972163
 30
0.0
 10
2410.964862
 20
1510.859880
 30
0.0
 10
2413.576302
 20
1526.512472
 30
0.0
 10
2421.129342
 20
1540.469656
 30
0.0
 10
2432.804542
 20
1551.220768
 30
0.0
 10
2447.340222
 20
1557.592688
 30
0.0
 10
2463.153582
 20
1558.910480
 30
0.0
 10
4640.777582
 20
1558.910480
 30
0.0
 10
4656.590782
 20
1557.592688
 30
0.0
 10
4671.126462
 20
1551.220768
 30
0.0
 10
4682.801502
 20
1540.469656
 30
0.0
 10
4690.354862
 20
1526.512472
 30
0.0
 10
4692.966142
 20
1510.859880
 30
0.0
 10
4692.966142
 20
851.972163
 30
0.0
 10
4690.354862
 20
836.319568
 30
0.0
 10
4682.801502
 20
822.362385
 30
0.0
 10
4671.126462
 20
811.611277
 30
0.0
 10
4656.590782
 20
805.239334
 30
0.0
 10
4640.777582
 20
803.921563
 30
0.0
 10
2463.153582
 20
803.921563
 30
0.0
 10
2447.340222
 20
805.239334
 30
0.0
 10
2432.804542
 20
811.611277
 30
0.0
 10
2421.129342
 20
822.362385
 30
0.0
 10
2413.576302
 20
836.319568
 30
0.0
 10
2410.964862
 20
851.972163
 30
0.0
  0
LWPOLYLINE
  5
115
100
AcDbEntity
  8
0
 62
7
100
AcDbPolyline
 90
6
 70
0
 10
2447.123262
 20
48.450464
 30
0.0
 10
2455.447822
 20
59.916720
 30
0.0
 10
2468.930862
 20
55.537528
 30
0.0
 10
2468.930862
 20
41.363392
 30
0.0
 10
2455.447822
 20
36.984224
 30
0.0
 10
2447.123262
 20
48.450464
 30
0.0
  0
LWPOLYLINE
  5
116
100
AcDbEntity
  8
0
 62
7
100
AcDbPolyline
 90
6
 70
0
 10
2447.123262
 20
707.338272
 30
0.0
 10
2455.447822
 20
718.804528
 30
0.0
 10
2468.930862
 20
714.425336
 30
0.0
 10
2468.930862
 20
700.251200
 30
0.0
 10
2455.447822
 20
695.872016
 30
0.0
 10
2447.123262
 20
707.338272
 30
0.0
  0
LWPOLYLINE
  5
117
100
AcDbEntity
  8
0
 62
7
100
AcDbPolyline
 90
6
 70
0
 10
2447.123262
 20
851.972163
 30
0.0
 10
2455.447822
 20
863.438418
 30
0.0
 10
2468.930862
 20
859.059231
 30
0.0
 10
2468.930862
 20
844.885096
 30
0.0
 10
2455.447822
 20
840.505909
 30
0.0
 10
2447.123262
 20
851.972163
 30
0.0
  0
LWPOLYLINE
  5
118
100
AcDbEntity
  8
0
 62
7
100
AcDbPolyline
 90
6
 70
0
 10
2447.123262
 20
1510.859880
 30
0.0
 10
2455.447822
 20
1522.326136
 30
0.0
 10
2468.930862
 20
1517.946944
 30
0.0
 10
2468.930862
 20
1503.772808
 30
0.0
 10
2455.447822
 20
1499.393624
 30
0.0
 10
2447.123262
 20
1510.859880
 30
0.0
  0
LWPOLYLINE
  5
119
100
AcDbEntity
  8
0
 62
7
100
AcDbPolyline
 90
21
 70
0
 10
2496.957742
 20
904.160893
 30
0.0
 10
2496.957742
 20
932.292192
 30
0.0
 10
2503.490302
 20
932.292192
 30
0.0
 10
2503.490302
 20
972.532544
 30
0.0
 10
2496.957742
 20
972.532544
 30
0.0
 10
2496.957742
 20
1000.663840
 30
0.0
 10
2503.490302
 20
1000.663840
 30
0.0
 10
2503.490302
 20
1008.538352
 30
0.0
 10
2615.742302
 20
1008.538352
 30
0.0
 10
2615.742302
 20
1000.663840
 30
0.0
 10
2622.274942
 20
1000.663840
 30
0.0
 10
2622.274942
 20
972.532544
 30
0.0
 10
2615.742302
 20
972.532544
 30
0.0
 10
2615.742302
 20
932.292192
 30
0.0
 10
2622.274942
 20
932.292192
 30
0.0
 10
2622.274942
 20
904.160893
 30
0.0
 10
2615.742302
 20
904.160893
 30
0.0
 10
2615.742302
 20
896.286383
 30
0.0
 10
2503.490302
 20
896.286383
 30
0.0
 10
2503.490302
 20
904.160893
 30
0.0
 10
2496.957742
 20
904.160893
 30
0.0
  0
LWPOLYLINE
  5
11a
100
AcDbEntity
  8
0
 62
7
100
AcDbPolyline
 90
21
 70
0
 10
2496.957742
 20
1056.829984
 30
0.0
 10
2496.957742
 20
1084.961280
 30
0.0
 10
2503.490302
 20
1084.961280
 30
0.0
 10
2503.490302
 20
1125.201640
 30
0.0
 10
2496.957742
 20
1125.201640
 30
0.0
 10
2496.957742
 20
1153.332936
 30
0.0
 10
2503.490302
 20
1153.332936
 30
0.0
 10
2503.490302
 20
1161.207448
 30
0.0
 10
2615.742302
 20
1161.207448
 30
0.0
 10
2615.742302
 20
1153.332936
 30
0.0
 10
2622.274942
 20
1153.332936
 30
0.0
 10
2622.274942
 20
1125.201640
 30
0.0
 10
2615.742302
 20
1125.201640
 30
0.0
 10
2615.742302
 20
1084.961280
 30
0.0
 10
2622.274942
 20
1084.961280
 30
0.0
 10
2622.274942
 20
1056.829984
 30
0.0
 10
2615.742302
 20
1056.829984
 30
0.0
 10
2615.742302
 20
1048.955480
 30
0.0
 10
2503.490302
 20
1048.955480
 30
0.0
 10
2503.490302
 20
1056.829984
 30
0.0
 10
2496.957742
 20
1056.829984
 30
0.0
  0
LWPOLYLINE
  5
11b
100
AcDbEntity
  8
0
 62
7
100
AcDbPolyline
 90
21
 70
0
 10
2496.957742
 20
1209.499104
 30
0.0
 10
2496.957742
 20
1237.630400
 30
0.0
 10
2503.490302
 20
1237.630400
 30
0.0
 10
2503.490302
 20
1277.870760
 30
0.0
 10
2496.957742
 20
1277.870760
 30
0.0
 10
2496.957742
 20
1306.002056
 30
0.0
 10
2503.490302
 20
1306.002056
 30
0.0
 10
2503.490302
 20
1313.876568
 30
0.0
 10
2615.742302
 20
1313.876568
 30
0.0
 10
2615.742302
 20
1306.002056
 30
0.0
 10
2622.274942
 20
1306.002056
 30
0.0
 10
2622.274942
 20
1277.870760
 30
0.0
 10
2615.742302
 20
1277.870760
 30
0.0
 10
2615.742302
 20
1237.630400
 30
0.0
 10
2622.274942
 20
1237.630400
 30
0.0
 10
2622.274942
 20
1209.499104
 30
0.0
 10
2615.742302
 20
1209.499104
 30
0.0
 10
2615.742302
 20
1201.624592
 30
0.0
 10
2503.490302
 20
1201.624592
 30
0.0
 10
2503.490302
 20
1209.499104
 30
0.0
 10
2496.957742
 20
1209.499104
 30
0.0
  0
LWPOLYLINE
  5
11c
100
AcDbEntity
  8
0
 62
7
100
AcDbPolyline
 90
21
 70
0
 10
2496.957742
 20
1362.168200
 30
0.0
 10
2496.957742
 20
1390.299496
 30
0.0
 10
2503.490302
 20
1390.299496
 30
0.0
 10
2503.490302
 20
1430.539856
 30
0.0
 10
2496.957742
 20
1430.539856
 30
0.0
 10
2496.957742
 20
1458.671152
 30
0.0
 10
2503.490302
 20
1458.671152
 30
0.0
 10
2503.490302
 20
1466.545656
 30
0.0
 10
2615.742302
 20
1466.545656
 30
0.0
 10
2615.742302
 20
1458.671152
 30
0.0
 10
2622.274942
 20
1458.671152
 30
0.0
 10
2622.274942
 20
1430.539856
 30
0.0
 10
2615.742302
 20
1430.539856
 30
0.0
 10
2615.742302
 20
1390.299496
 30
0.0
 10
2622.274942
 20
1390.299496
 30
0.0
 10
2622.274942
 20
1362.168200
 30
0.0
 10
2615.742302
 20
1362.168200
 30
0.0
 10
2615.742302
 20
1354.293688
 30
0.0
 10
2503.490302
 20
1354.293688
 30
0.0
 10
2503.490302
 20
1362.168200
 30
0.0
 10
2496.957742
 20
1362.168200
 30
0.0
  0
LWPOLYLINE
  5
11d
100
AcDbEntity
  8
0
 62
7
100
AcDbPolyline
 90
9
 70
0
 10
2503.369822
 20
92.644176
 30
0.0
 10
2503.369822
 20
663.144576
 30
0.0
 10
4600.561182
 20
663.144576
 30
0.0
 10
4600.561182
 20
92.644176
 30
0.0
 10
3837.215582
 20
92.644176
 30
0.0
 10
3837.215582
 20
54.476920
 30
0.0
 10
3266.715342
 20
54.476920
 30
0.0
 10
3266.715342
 20
92.644176
 30
0.0
 10
2503.369822
 20
92.644176
 30
0.0
  0
LWPOLYLINE
  5
11e
100
AcDbEntity
  8
0
 62
7
100
AcDbPolyline
 90
21
 70
0
 10
2649.626862
 20
904.160893
 30
0.0
 10
2649.626862
 20
932.292192
 30
0.0
 10
2656.159422
 20
932.292192
 30
0.0
 10
2656.159422
 20
972.532544
 30
0.0
 10
2649.626862
 20
972.532544
 30
0.0
 10
2649.626862
 20
1000.663840
 30
0.0
 10
2656.159422
 20
1000.663840
 30
0.0
 10
2656.159422
 20
1008.538352
 30
0.0
 10
2768.411422
 20
1008.538352
 30
0.0
 10
2768.411422
 20
1000.663840
 30
0.0
 10
2774.944062
 20
1000.663840
 30
0.0
 10
2774.944062
 20
972.532544
 30
0.0
 10
2768.411422
 20
972.532544
 30
0.0
 10
2768.411422
 20
932.292192
 30
0.0
 10
2774.944062
 20
932.292192
 30
0.0
 10
2774.944062
 20
904.160893
 30
0.0
 10
2768.411422
 20
904.160893
 30
0.0
 10
2768.411422
 20
896.286383
 30
0.0
 10
2656.159422
 20
896.286383
 30
0.0
 10
2656.159422
 20
904.160893
 30
0.0
 10
2649.626862
 20
904.160893
 30
0.0
  0
LWPOLYLINE
  5
11f
100
AcDbEntity
  8
0
 62
7
100
AcDbPolyline
 90
21
 70
0
 10
2649.626862
 20
1056.829984
 30
0.0
 10
2649.626862
 20
1084.961280
 30
0.0
 10
2656.159422
 20
1084.961280
 30
0.0
 10
2656.159422
 20
1125.201640
 30
0.0
 10
2649.626862
 20
1125.201640
 30
0.0
 10
2649.626862
 20
1153.332936
 30
0.0
 10
2656.159422
 20
1153.332936
 30
0.0
 10
2656.159422
 20
1161.207448
 30
0.0
 10
2768.411422
 20
1161.207448
 30
0.0
 10
2768.411422
 20
1153.332936
 30
0.0
 10
2774.944062
 20
1153.332936
 30
0.0
 10
2774.944062
 20
1125.201640
 30
0.0
 10
2768.411422
 20
1125.201640
 30
0.0
 10
2768.411422
 20
1084.961280
 30
0.0
 10
2774.944062
 20
1084.961280
 30
0.0
 10
2774.944062
 20
1056.829984
 30
0.0
 10
2768.411422
 20
1056.829984
 30
0.0
 10
2768.411422
 20
1048.955480
 30
0.0
 10
2656.159422
 20
1048.955480
 30
0.0
 10
2656.159422
 20
1056.829984
 30
0.0
 10
2649.626862
 20
1056.829984
 30
0.0
  0
LWPOLYLINE
  5
120
100
AcDbEntity
  8
0
 62
7
100
AcDbPolyline
 90
21
 70
0
 10
2649.626862
 20
1209.499104
 30
0.0
 10
2649.626862
 20
1237.630400
 30
0.0
 10
2656.159422
 20
1237.630400
 30
0.0
 10
2656.159422
 20
1277.870760
 30
0.0
 10
2649.626862
 20
1277.870760
 30
0.0
 10
2649.626862
 20
1306.002056
 30
0.0
 10
2656.159422
 20
1306.002056
 30
0.0
 10
2656.159422
 20
1313.876568
 30
0.0
 10
2768.411422
 20
1313.876568
 30
0.0
 10
2768.411422
 20
1306.002056
 30
0.0
 10
2774.944062
 20
1306.002056
 30
0.0
 10
2774.944062
 20
1277.870760
 30
0.0
 10
2768.411422
 20
1277.870760
 30
0.0
 10
2768.411422
 20
1237.630400
 30
0.0
 10
2774.944062
 20
1237.630400
 30
0.0
 10
2774.944062
 20
1209.499104
 30
0.0
 10
2768.411422
 20
1209.499104
 30
0.0
 10
2768.411422
 20
1201.624592
 30
0.0
 10
2656.159422
 20
1201.624592
 30
0.0
 10
2656.159422
 20
1209.499104
 30
0.0
 10
2649.626862
 20
1209.499104
 30
0.0
  0
LWPOLYLINE
  5
121
100
AcDbEntity
  8
0
 62
7
100
AcDbPolyline
 90
21
 70
0
 10
2649.626862
 20
1362.168200
 30
0.0
 10
2649.626862
 20
1390.299496
 30
0.0
 10
2656.159422
 20
1390.299496
 30
0.0
 10
2656.159422
 20
1430.539856
 30
0.0
 10
2649.626862
 20
1430.539856
 30
0.0
 10
2649.626862
 20
1458.671152
 30
0.0
 10
2656.159422
 20
1458.671152
 30
0.0
 10
2656.159422
 20
1466.545656
 30
0.0
 10
2768.411422
 20
1466.545656
 30
0.0
 10
2768.411422
 20
1458.671152
 30
0.0
 10
2774.944062
 20
1458.671152
 30
0.0
 10
2774.944062
 20
1430.539856
 30
0.0
 10
2768.411422
 20
1430.539856
 30
0.0
 10
2768.411422
 20
1390.299496
 30
0.0
 10
2774.944062
 20
1390.299496
 30
0.0
 10
2774.944062
 20
1362.168200
 30
0.0
 10
2768.411422
 20
1362.168200
 30
0.0
 10
2768.411422
 20
1354.293688
 30
0.0
 10
2656.159422
 20
1354.293688
 30
0.0
 10
2656.159422
 20
1362.168200
 30
0.0
 10
2649.626862
 20
1362.168200
 30
0.0
  0
LWPOLYLINE
  5
122
100
AcDbEntity
  8
0
 62
7
100
AcDbPolyline
 90
21
 70
0
 10
2802.295902
 20
904.160893
 30
0.0
 10
2802.295902
 20
932.292192
 30
0.0
 10
2808.828542
 20
932.292192
 30
0.0
 10
2808.828542
 20
972.532544
 30
0.0
 10
2802.295902
 20
972.532544
 30
0.0
 10
2802.295902
 20
1000.663840
 30
0.0
 10
2808.828542
 20
1000.663840
 30
0.0
 10
2808.828542
 20
1008.538352
 30
0.0
 10
2921.080542
 20
1008.538352
 30
0.0
 10
2921.080542
 20
1000.663840
 30
0.0
 10
2927.613182
 20
1000.663840
 30
0.0
 10
2927.613182
 20
972.532544
 30
0.0
 10
2921.080542
 20
972.532544
 30
0.0
 10
2921.080542
 20
932.292192
 30
0.0
 10
2927.613182
 20
932.292192
 30
0.0
 10
2927.613182
 20
904.160893
 30
0.0
 10
2921.080542
 20
904.160893
 30
0.0
 10
2921.080542
 20
896.286383
 30
0.0
 10
2808.828542
 20
896.286383
 30
0.0
 10
2808.828542
 20
904.160893
 30
0.0
 10
2802.295902
 20
904.160893
 30
0.0
  0
LWPOLYLINE
  5
123
100
AcDbEntity
  8
0
 62
7
100
AcDbPolyline
 90
21
 70
0
 10
2802.295902
 20
1056.829984
 30
0.0
 10
2802.295902
 20
1084.961280
 30
0.0
 10
2808.828542
 20
1084.961280
 30
0.0
 10
2808.828542
 20
1125.201640
 30
0.0
 10
2802.295902
 20
1125.201640
 30
0.0
 10
2802.295902
 20
1153.332936
 30
0.0
 10
2808.828542
 20
1153.332936
 30
0.0
 10
2808.828542
 20
1161.207448
 30
0.0
 10
2921.080542
 20
1161.207448
 30
0.0
 10
2921.080542
 20
1153.332936
 30
0.0
 10
2927.613182
 20
1153.332936
 30
0.0
 10
2927.613182
 20
1125.201640
 30
0.0
 10
2921.080542
 20
1125.201640
 30
0.0
 10
2921.080542
 20
1084.961280
 30
0.0
 10
2927.613182
 20
1084.961280
 30
0.0
 10
2927.613182
 20
1056.829984
 30
0.0
 10
2921.080542
 20
1056.829984
 30
0.0
 10
2921.080542
 20
1048.955480
 30
0.0
 10
2808.828542
 20
1048.955480
 30
0.0
 10
2808.828542
 20
1056.829984
 30
0.0
 10
2802.295902
 20
1056.829984
 30
0.0
  0
LWPOLYLINE
  5
124
100
AcDbEntity
  8
0
 62
7
100
AcDbPolyline
 90
21
 70
0
 10
2802.295902
 20
1209.499104
 30
0.0
 10
2802.295902
 20
1237.630400
 30
0.0
 10
2808.828542
 20
1237.630400
 30
0.0
 10
2808.828542
 20
1277.870760
 30
0.0
 10
2802.295902
 20
1277.870760
 30
0.0
 10
2802.295902
 20
1306.002056
 30
0.0
 10
2808.828542
 20
1306.002056
 30
0.0
 10
2808.828542
 20
1313.876568
 30
0.0
 10
2921.080542
 20
1313.876568
 30
0.0
 10
2921.080542
 20
1306.002056
 30
0.0
 10
2927.613182
 20
1306.002056
 30
0.0
 10
2927.613182
 20
1277.870760
 30
0.0
 10
2921.080542
 20
1277.870760
 30
0.0
 10
2921.080542
 20
1237.630400
 30
0.0
 10
2927.613182
 20
1237.630400
 30
0.0
 10
2927.613182
 20
1209.499104
 30
0.0
 10
2921.080542
 20
1209.499104
 30
0.0
 10
2921.080542
 20
1201.624592
 30
0.0
 10
2808.828542
 20
1201.624592
 30
0.0
 10
2808.828542
 20
1209.499104
 30
0.0
 10
2802.295902
 20
1209.499104
 30
0.0
  0
LWPOLYLINE
  5
125
100
AcDbEntity
  8
0
 62
7
100
AcDbPolyline
 90
21
 70
0
 10
2802.295902
 20
1362.168200
 30
0.0
 10
2802.295902
 20
1390.299496
 30
0.0
 10
2808.828542
 20
1390.299496
 30
0.0
 10
2808.828542
 20
1430.539856
 30
0.0
 10
2802.295902
 20
1430.539856
 30
0.0
 10
2802.295902
 20
1458.671152
 30
0.0
 10
2808.828542
 20
1458.671152
 30
0.0
 10
2808.828542
 20
1466.545656
 30
0.0
 10
2921.080542
 20
1466.545656
 30
0.0
 10
2921.080542
 20
1458.671152
 30
0.0
 10
2927.613182
 20
1458.671152
 30
0.0
 10
2927.613182
 20
1430.539856
 30
0.0
 10
2921.080542
 20
1430.539856
 30
0.0
 10
2921.080542
 20
1390.299496
 30
0.0
 10
2927.613182
 20
1390.299496
 30
0.0
 10
2927.613182
 20
1362.168200
 30
0.0
 10
2921.080542
 20
1362.168200
 30
0.0
 10
2921.080542
 20
1354.293688
 30
0.0
 10
2808.828542
 20
1354.293688
 30
0.0
 10
2808.828542
 20
1362.168200
 30
0.0
 10
2802.295902
 20
1362.168200
 30
0.0
  0
LWPOLYLINE
  5
126
100
AcDbEntity
  8
0
 62
7
100
AcDbPolyline
 90
21
 70
0
 10
2954.965022
 20
904.160893
 30
0.0
 10
2954.965022
 20
932.292192
 30
0.0
 10
2961.497662
 20
932.292192
 30
0.0
 10
2961.497662
 20
972.532544
 30
0.0
 10
2954.965022
 20
972.532544
 30
0.0
 10
2954.965022
 20
1000.663840
 30
0.0
 10
2961.497662
 20
1000.663840
 30
0.0
 10
2961.497662
 20
1008.538352
 30
0.0
 10
3073.749662
 20
1008.538352
 30
0.0
 10
3073.749662
 20
1000.663840
 30
0.0
 10
3080.282222
 20
1000.663840
 30
0.0
 10
3080.282222
 20
972.532544
 30
0.0
 10
3073.749662
 20
972.532544
 30
0.0
 10
3073.749662
 20
932.292192
 30
0.0
 10
3080.282222
 20
932.292192
 30
0.0
 10
3080.282222
 20
904.160893
 30
0.0
 10
3073.749662
 20
904.160893
 30
0.0
 10
3073.749662
 20
896.286383
 30
0.0
 10
2961.497662
 20
896.286383
 30
0.0
 10
2961.497662
 20
904.160893
 30
0.0
 10
2954.965022
 20
904.160893
 30
0.0
  0
LWPOLYLINE
  5
127
100
AcDbEntity
  8
0
 62
7
100
AcDbPolyline
 90
21
 70
0
 10
2954.965022
 20
1056.829984
 30
0.0
 10
2954.965022
 20
1084.961280
 30
0.0
 10
2961.497662
 20
1084.961280
 30
0.0
 10
2961.497662
 20
1125.201640
 30
0.0
 10
2954.965022
 20
1125.201640
 30
0.0
 10
2954.965022
 20
1153.332936
 30
0.0
 10
2961.497662
 20
1153.332936
 30
0.0
 10
2961.497662
 20
1161.207448
 30
0.0
 10
3073.749662
 20
1161.207448
 30
0.0
 10
3073.749662
 20
1153.332936
 30
0.0
 10
3080.282222
 20
1153.332936
 30
0.0
 10
3080.282222
 20
1125.201640
 30
0.0
 10
3073.749662
 20
1125.201640
 30
0.0
 10
3073.749662
 20
1084.961280
 30
0.0
 10
3080.282222
 20
1084.961280
 30
0.0
 10
3080.282222
 20
1056.829984
 30
0.0
 10
3073.749662
 20
1056.829984
 30
0.0
 10
3073.749662
 20
1048.955480
 30
0.0
 10
2961.497662
 20
1048.955480
 30
0.0
 10
2961.497662
 20
1056.829984
 30
0.0
 10
2954.965022
 20
1056.829984
 30
0.0
  0
LWPOLYLINE
  5
128
100
AcDbEntity
  8
0
 62
7
100
AcDbPolyline
 90
21
 70
0
 10
2954.965022
 20
1209.499104
 30
0.0
 10
2954.965022
 20
1237.630400
 30
0.0
 10
2961.497662
 20
1237.630400
 30
0.0
 10
2961.497662
 20
1277.870760
 30
0.0
 10
2954.965022
 20
1277.870760
 30
0.0
 10
2954.965022
 20
1306.002056
 30
0.0
 10
2961.497662
 20
1306.002056
 30
0.0
 10
2961.497662
 20
1313.876568
 30
0.0
 10
3073.749662
 20
1313.876568
 30
0.0
 10
3073.749662
 20
1306.002056
 30
0.0
 10
3080.282222
 20
1306.002056
 30
0.0
 10
3080.282222
 20
1277.870760
 30
0.0
 10
3073.749662
 20
1277.870760
 30
0.0
 10
3073.749662
 20
1237.630400
 30
0.0
 10
3080.282222
 20
1237.630400
 30
0.0
 10
3080.282222
 20
1209.499104
 30
0.0
 10
3073.749662
 20
1209.499104
 30
0.0
 10
3073.749662
 20
1201.624592
 30
0.0
 10
2961.497662
 20
1201.624592
 30
0.0
 10
2961.497662
 20
1209.499104
 30
0.0
 10
2954.965022
 20
1209.499104
 30
0.0
  0
LWPOLYLINE
  5
129
100
AcDbEntity
  8
0
 62
7
100
AcDbPolyline
 90
21
 70
0
 10
2954.965022
 20
1362.168200
 30
0.0
 10
2954.965022
 20
1390.299496
 30
0.0
 10
2961.497662
 20
1390.299496
 30
0.0
 10
2961.497662
 20
1430.539856
 30
0.0
 10
2954.965022
 20
1430.539856
 30
0.0
 10
2954.965022
 20
1458.671152
 30
0.0
 10
2961.497662
 20
1458.671152
 30
0.0
 10
2961.497662
 20
1466.545656
 30
0.0
 10
3073.749662
 20
1466.545656
 30
0.0
 10
3073.749662
 20
1458.671152
 30
0.0
 10
3080.282222
 20
1458.671152
 30
0.0
 10
3080.282222
 20
1430.539856
 30
0.0
 10
3073.749662
 20
1430.539856
 30
0.0
 10
3073.749662
 20
1390.299496
 30
0.0
 10
3080.282222
 20
1390.299496
 30
0.0
 10
3080.282222
 20
1362.168200
 30
0.0
 10
3073.749662
 20
1362.168200
 30
0.0
 10
3073.749662
 20
1354.293688
 30
0.0
 10
2961.497662
 20
1354.293688
 30
0.0
 10
2961.497662
 20
1362.168200
 30
0.0
 10
2954.965022
 20
1362.168200
 30
0.0
  0
LWPOLYLINE
  5
12a
100
AcDbEntity
  8
0
 62
7
100
AcDbPolyline
 90
21
 70
0
 10
3107.634142
 20
904.160893
 30
0.0
 10
3107.634142
 20
932.292192
 30
0.0
 10
3114.166782
 20
932.292192
 30
0.0
 10
3114.166782
 20
972.532544
 30
0.0
 10
3107.634142
 20
972.532544
 30
0.0
 10
3107.634142
 20
1000.663840
 30
0.0
 10
3114.166782
 20
1000.663840
 30
0.0
 10
3114.166782
 20
1008.538352
 30
0.0
 10
3226.418702
 20
1008.538352
 30
0.0
 10
3226.418702
 20
1000.663840
 30
0.0
 10
3232.951342
 20
1000.663840
 30
0.0
 10
3232.951342
 20
972.532544
 30
0.0
 10
3226.418702
 20
972.532544
 30
0.0
 10
3226.418702
 20
932.292192
 30
0.0
 10
3232.951342
 20
932.292192
 30
0.0
 10
3232.951342
 20
904.160893
 30
0.0
 10
3226.418702
 20
904.160893
 30
0.0
 10
3226.418702
 20
896.286383
 30
0.0
 10
3114.166782
 20
896.286383
 30
0.0
 10
3114.166782
 20
904.160893
 30
0.0
 10
3107.634142
 20
904.160893
 30
0.0
  0
LWPOLYLINE
  5
12b
100
AcDbEntity
  8
0
 62
7
100
AcDbPolyline
 90
21
 70
0
 10
3107.634142
 20
1056.829984
 30
0.0
 10
3107.634142
 20
1084.961280
 30
0.0
 10
3114.166782
 20
1084.961280
 30
0.0
 10
3114.166782
 20
1125.201640
 30
0.0
 10
3107.634142
 20
1125.201640
 30
0.0
 10
3107.634142
 20
1153.332936
 30
0.0
 10
3114.166782
 20
1153.332936
 30
0.0
 10
3114.166782
 20
1161.207448
 30
0.0
 10
3226.418702
 20
1161.207448
 30
0.0
 10
3226.418702
 20
1153.332936
 30
0.0
 10
3232.951342
 20
1153.332936
 30
0.0
 10
3232.951342
 20
1125.201640
 30
0.0
 10
3226.418702
 20
1125.201640
 30
0.0
 10
3226.418702
 20
1084.961280
 30
0.0
 10
3232.951342
 20
1084.961280
 30
0.0
 10
3232.951342
 20
1056.829984
 30
0.0
 10
3226.418702
 20
1056.829984
 30
0.0
 10
3226.418702
 20
1048.955480
 30
0.0
 10
3114.166782
 20
1048.955480
 30
0.0
 10
3114.166782
 20
1056.829984
 30
0.0
 10
3107.634142
 20
1056.829984
 30
0.0
  0
LWPOLYLINE
  5
12c
100
AcDbEntity
  8
0
 62
7
100
AcDbPolyline
 90
21
 70
0
 10
3107.634142
 20
1209.499104
 30
0.0
 10
3107.634142
 20
1237.630400
 30
0.0
 10
3114.166782
 20
1237.630400
 30
0.0
 10
3114.166782
 20
1277.870760
 30
0.0
 10
3107.634142
 20
1277.870760
 30
0.0
 10
3107.634142
 20
1306.002056
 30
0.0
 10
3114.166782
 20
1306.002056
 30
0.0
 10
3114.166782
 20
1313.876568
 30
0.0
 10
3226.418702
 20
1313.876568
 30
0.0
 10
3226.418702
 20
1306.002056
 30
0.0
 10
3232.951342
 20
1306.002056
 30
0.0
 10
3232.951342
 20
1277.870760
 30
0.0
 10
3226.418702
 20
1277.870760
 30
0.0
 10
3226.418702
 20
1237.630400
 30
0.0
 10
3232.951342
 20
1237.630400
 30
0.0
 10
3232.951342
 20
1209.499104
 30
0.0
 10
3226.418702
 20
1209.499104
 30
0.0
 10
3226.418702
 20
1201.624592
 30
0.0
 10
3114.166782
 20
1201.624592
 30
0.0
 10
3114.166782
 20
1209.499104
 30
0.0
 10
3107.634142
 20
1209.499104
 30
0.0
  0
LWPOLYLINE
  5
12d
100
AcDbEntity
  8
0
 62
7
100
AcDbPolyline
 90
21
 70
0
 10
3107.634142
 20
1362.168200
 30
0.0
 10
3107.634142
 20
1390.299496
 30
0.0
 10
3114.166782
 20
1390.299496
 30
0.0
 10
3114.166782
 20
1430.539856
 30
0.0
 10
3107.634142
 20
1430.539856
 30
0.0
 10
3107.634142
 20
1458.671152
 30
0.0
 10
3114.166782
 20
1458.671152
 30
0.0
 10
3114.166782
 20
1466.545656
 30
0.0
 10
3226.418702
 20
1466.545656
 30
0.0
 10
3226.418702
 20
1458.671152
 30
0.0
 10
3232.951342
 20
1458.671152
 30
0.0
 10
3232.951342
 20
1430.539856
 30
0.0
 10
3226.418702
 20
1430.539856
 30
0.0
 10
3226.418702
 20
1390.299496
 30
0.0
 10
3232.951342
 20
1390.299496
 30
0.0
 10
3232.951342
 20
1362.168200
 30
0.0
 10
3226.418702
 20
1362.168200
 30
0.0
 10
3226.418702
 20
1354.293688
 30
0.0
 10
3114.166782
 20
1354.293688
 30
0.0
 10
3114.166782
 20
1362.168200
 30
0.0
 10
3107.634142
 20
1362.168200
 30
0.0
  0
LWPOLYLINE
  5
12e
100
AcDbEntity
  8
0
 62
7
100
AcDbPolyline
 90
6
 70
0
 10
3210.468782
 20
48.450464
 30
0.0
 10
3218.793342
 20
59.916720
 30
0.0
 10
3232.276382
 20
55.537528
 30
0.0
 10
3232.276382
 20
41.363392
 30
0.0
 10
3218.793342
 20
36.984224
 30
0.0
 10
3210.468782
 20
48.450464
 30
0.0
  0
LWPOLYLINE
  5
12f
100
AcDbEntity
  8
0
 62
7
100
AcDbPolyline
 90
6
 70
0
 10
3210.468782
 20
851.972163
 30
0.0
 10
3218.793342
 20
863.438418
 30
0.0
 10
3232.276382
 20
859.059231
 30
0.0
 10
3232.276382
 20
844.885096
 30
0.0
 10
3218.793342
 20
840.505909
 30
0.0
 10
3210.468782
 20
851.972163
 30
0.0
  0
LWPOLYLINE
  5
130
100
AcDbEntity
  8
0
 62
7
100
AcDbPolyline
 90
21
 70
0
 10
3260.303262
 20
865.993614
 30
0.0
 10
3260.303262
 20
894.124910
 30
0.0
 10
3266.835822
 20
894.124910
 30
0.0
 10
3266.835822
 20
934.365264
 30
0.0
 10
3260.303262
 20
934.365264
 30
0.0
 10
3260.303262
 20
962.496560
 30
0.0
 10
3266.835822
 20
962.496560
 30
0.0
 10
3266.835822
 20
970.371072
 30
0.0
 10
3379.087822
 20
970.371072
 30
0.0
 10
3379.087822
 20
962.496560
 30
0.0
 10
3385.620462
 20
962.496560
 30
0.0
 10
3385.620462
 20
934.365264
 30
0.0
 10
3379.087822
 20
934.365264
 30
0.0
 10
3379.087822
 20
894.124910
 30
0.0
 10
3385.620462
 20
894.124910
 30
0.0
 10
3385.620462
 20
865.993614
 30
0.0
 10
3379.087822
 20
865.993614
 30
0.0
 10
3379.087822
 20
858.119104
 30
0.0
 10
3266.835822
 20
858.119104
 30
0.0
 10
3266.835822
 20
865.993614
 30
0.0
 10
3260.303262
 20
865.993614
 30
0.0
  0
LWPOLYLINE
  5
131
100
AcDbEntity
  8
0
 62
7
100
AcDbPolyline
 90
21
 70
0
 10
3260.303262
 20
1056.829984
 30
0.0
 10
3260.303262
 20
1084.961280
 30
0.0
 10
3266.835822
 20
1084.961280
 30
0.0
 10
3266.835822
 20
1125.201640
 30
0.0
 10
3260.303262
 20
1125.201640
 30
0.0
 10
3260.303262
 20
1153.332936
 30
0.0
 10
3266.835822
 20
1153.332936
 30
0.0
 10
3266.835822
 20
1161.207448
 30
0.0
 10
3379.087822
 20
1161.207448
 30
0.0
 10
3379.087822
 20
1153.332936
 30
0.0
 10
3385.620462
 20
1153.332936
 30
0.0
 10
3385.620462
 20
1125.201640
 30
0.0
 10
3379.087822
 20
1125.201640
 30
0.0
 10
3379.087822
 20
1084.961280
 30
0.0
 10
3385.620462
 20
1084.961280
 30
0.0
 10
3385.620462
 20
1056.829984
 30
0.0
 10
3379.087822
 20
1056.829984
 30
0.0
 10
3379.087822
 20
1048.955480
 30
0.0
 10
3266.835822
 20
1048.955480
 30
0.0
 10
3266.835822
 20
1056.829984
 30
0.0
 10
3260.303262
 20
1056.829984
 30
0.0
  0
LWPOLYLINE
  5
132
100
AcDbEntity
  8
0
 62
7
100
AcDbPolyline
 90
21
 70
0
 10
3260.303262
 20
1209.499104
 30
0.0
 10
3260.303262
 20
1237.630400
 30
0.0
 10
3266.835822
 20
1237.630400
 30
0.0
 10
3266.835822
 20
1277.870760
 30
0.0
 10
3260.303262
 20
1277.870760
 30
0.0
 10
3260.303262
 20
1306.002056
 30
0.0
 10
3266.835822
 20
1306.002056
 30
0.0
 10
3266.835822
 20
1313.876568
 30
0.0
 10
3379.087822
 20
1313.876568
 30
0.0
 10
3379.087822
 20
1306.002056
 30
0.0
 10
3385.620462
 20
1306.002056
 30
0.0
 10
3385.620462
 20
1277.870760
 30
0.0
 10
3379.087822
 20
1277.870760
 30
0.0
 10
3379.087822
 20
1237.630400
 30
0.0
 10
3385.620462
 20
1237.630400
 30
0.0
 10
3385.620462
 20
1209.499104
 30
0.0
 10
3379.087822
 20
1209.499104
 30
0.0
 10
3379.087822
 20
1201.624592
 30
0.0
 10
3266.835822
 20
1201.624592
 30
0.0
 10
3266.835822
 20
1209.499104
 30
0.0
 10
3260.303262
 20
1209.499104
 30
0.0
  0
LWPOLYLINE
  5
133
100
AcDbEntity
  8
0
 62
7
100
AcDbPolyline
 90
21
 70
0
 10
3260.303262
 20
1362.168200
 30
0.0
 10
3260.303262
 20
1390.299496
 30
0.0
 10
3266.835822
 20
1390.299496
 30
0.0
 10
3266.835822
 20
1430.539856
 30
0.0
 10
3260.303262
 20
1430.539856
 30
0.0
 10
3260.303262
 20
1458.671152
 30
0.0
 10
3266.835822
 20
1458.671152
 30
0.0
 10
3266.835822
 20
1466.545656
 30
0.0
 10
3379.087822
 20
1466.545656
 30
0.0
 10
3379.087822
 20
1458.671152
 30
0.0
 10
3385.620462
 20
1458.671152
 30
0.0
 10
3385.620462
 20
1430.539856
 30
0.0
 10
3379.087822
 20
1430.539856
 30
0.0
 10
3379.087822
 20
1390.299496
 30
0.0
 10
3385.620462
 20
1390.299496
 30
0.0
 10
3385.620462
 20
1362.168200
 30
0.0
 10
3379.087822
 20
1362.168200
 30
0.0
 10
3379.087822
 20
1354.293688
 30
0.0
 10
3266.835822
 20
1354.293688
 30
0.0
 10
3266.835822
 20
1362.168200
 30
0.0
 10
3260.303262
 20
1362.168200
 30
0.0
  0
LWPOLYLINE
  5
134
100
AcDbEntity
  8
0
 62
7
100
AcDbPolyline
 90
21
 70
0
 10
3412.972382
 20
865.993614
 30
0.0
 10
3412.972382
 20
894.124910
 30
0.0
 10
3419.504942
 20
894.124910
 30
0.0
 10
3419.504942
 20
934.365264
 30
0.0
 10
3412.972382
 20
934.365264
 30
0.0
 10
3412.972382
 20
962.496560
 30
0.0
 10
3419.504942
 20
962.496560
 30
0.0
 10
3419.504942
 20
970.371072
 30
0.0
 10
3531.756942
 20
970.371072
 30
0.0
 10
3531.756942
 20
962.496560
 30
0.0
 10
3538.289502
 20
962.496560
 30
0.0
 10
3538.289502
 20
934.365264
 30
0.0
 10
3531.756942
 20
934.365264
 30
0.0
 10
3531.756942
 20
894.124910
 30
0.0
 10
3538.289502
 20
894.124910
 30
0.0
 10
3538.289502
 20
865.993614
 30
0.0
 10
3531.756942
 20
865.993614
 30
0.0
 10
3531.756942
 20
858.119104
 30
0.0
 10
3419.504942
 20
858.119104
 30
0.0
 10
3419.504942
 20
865.993614
 30
0.0
 10
3412.972382
 20
865.993614
 30
0.0
  0
LWPOLYLINE
  5
135
100
AcDbEntity
  8
0
 62
7
100
AcDbPolyline
 90
6
 70
0
 10
3451.525342
 20
707.338272
 30
0.0
 10
3459.849902
 20
718.804528
 30
0.0
 10
3473.332862
 20
714.425336
 30
0.0
 10
3473.332862
 20
700.251200
 30
0.0
 10
3459.849902
 20
695.872016
 30
0.0
 10
3451.525342
 20
707.338272
 30
0.0
  0
LWPOLYLINE
  5
136
100
AcDbEntity
  8
0
 62
7
100
AcDbPolyline
 90
6
 70
0
 10
3451.525342
 20
1510.859880
 30
0.0
 10
3459.849902
 20
1522.326136
 30
0.0
 10
3473.332862
 20
1517.946944
 30
0.0
 10
3473.332862
 20
1503.772808
 30
0.0
 10
3459.849902
 20
1499.393624
 30
0.0
 10
3451.525342
 20
1510.859880
 30
0.0
  0
LWPOLYLINE
  5
137
100
AcDbEntity
  8
0
 62
7
100
AcDbPolyline
 90
21
 70
0
 10
3565.641342
 20
865.993614
 30
0.0
 10
3565.641342
 20
894.124910
 30
0.0
 10
3572.173982
 20
894.124910
 30
0.0
 10
3572.173982
 20
934.365264
 30
0.0
 10
3565.641342
 20
934.365264
 30
0.0
 10
3565.641342
 20
962.496560
 30
0.0
 10
3572.173982
 20
962.496560
 30
0.0
 10
3572.173982
 20
970.371072
 30
0.0
 10
3684.425982
 20
970.371072
 30
0.0
 10
3684.425982
 20
962.496560
 30
0.0
 10
3690.958782
 20
962.496560
 30
0.0
 10
3690.958782
 20
934.365264
 30
0.0
 10
3684.425982
 20
934.365264
 30
0.0
 10
3684.425982
 20
894.124910
 30
0.0
 10
3690.958782
 20
894.124910
 30
0.0
 10
3690.958782
 20
865.993614
 30
0.0
 10
3684.425982
 20
865.993614
 30
0.0
 10
3684.425982
 20
858.119104
 30
0.0
 10
3572.173982
 20
858.119104
 30
0.0
 10
3572.173982
 20
865.993614
 30
0.0
 10
3565.641342
 20
865.993614
 30
0.0
  0
LWPOLYLINE
  5
138
100
AcDbEntity
  8
0
 62
7
100
AcDbPolyline
 90
6
 70
0
 10
3630.598062
 20
700.251200
 30
0.0
 10
3630.598062
 20
714.425336
 30
0.0
 10
3644.081262
 20
718.804528
 30
0.0
 10
3652.405822
 20
707.338272
 30
0.0
 10
3644.081262
 20
695.872016
 30
0.0
 10
3630.598062
 20
700.251200
 30
0.0
  0
LWPOLYLINE
  5
139
100
AcDbEntity
  8
0
 62
7
100
AcDbPolyline
 90
6
 70
0
 10
3630.598062
 20
1503.772808
 30
0.0
 10
3630.598062
 20
1517.946944
 30
0.0
 10
3644.081262
 20
1522.326136
 30
0.0
 10
3652.405822
 20
1510.859880
 30
0.0
 10
3644.081262
 20
1499.393624
 30
0.0
 10
3630.598062
 20
1503.772808
 30
0.0
  0
LWPOLYLINE
  5
13a
100
AcDbEntity
  8
0
 62
7
100
AcDbPolyline
 90
21
 70
0
 10
3718.310622
 20
865.993614
 30
0.0
 10
3718.310622
 20
894.124910
 30
0.0
 10
3724.843262
 20
894.124910
 30
0.0
 10
3724.843262
 20
934.365264
 30
0.0
 10
3718.310622
 20
934.365264
 30
0.0
 10
3718.310622
 20
962.496560
 30
0.0
 10
3724.843262
 20
962.496560
 30
0.0
 10
3724.843262
 20
970.371072
 30
0.0
 10
3837.095182
 20
970.371072
 30
0.0
 10
3837.095182
 20
962.496560
 30
0.0
 10
3843.627822
 20
962.496560
 30
0.0
 10
3843.627822
 20
934.365264
 30
0.0
 10
3837.095182
 20
934.365264
 30
0.0
 10
3837.095182
 20
894.124910
 30
0.0
 10
3843.627822
 20
894.124910
 30
0.0
 10
3843.627822
 20
865.993614
 30
0.0
 10
3837.095182
 20
865.993614
 30
0.0
 10
3837.095182
 20
858.119104
 30
0.0
 10
3724.843262
 20
858.119104
 30
0.0
 10
3724.843262
 20
865.993614
 30
0.0
 10
3718.310622
 20
865.993614
 30
0.0
  0
LWPOLYLINE
  5
13b
100
AcDbEntity
  8
0
 62
7
100
AcDbPolyline
 90
21
 70
0
 10
3718.310622
 20
1056.829984
 30
0.0
 10
3718.310622
 20
1084.961280
 30
0.0
 10
3724.843262
 20
1084.961280
 30
0.0
 10
3724.843262
 20
1125.201640
 30
0.0
 10
3718.310622
 20
1125.201640
 30
0.0
 10
3718.310622
 20
1153.332936
 30
0.0
 10
3724.843262
 20
1153.332936
 30
0.0
 10
3724.843262
 20
1161.207448
 30
0.0
 10
3837.095182
 20
1161.207448
 30
0.0
 10
3837.095182
 20
1153.332936
 30
0.0
 10
3843.627822
 20
1153.332936
 30
0.0
 10
3843.627822
 20
1125.201640
 30
0.0
 10
3837.095182
 20
1125.201640
 30
0.0
 10
3837.095182
 20
1084.961280
 30
0.0
 10
3843.627822
 20
1084.961280
 30
0.0
 10
3843.627822
 20
1056.829984
 30
0.0
 10
3837.095182
 20
1056.829984
 30
0.0
 10
3837.095182
 20
1048.955480
 30
0.0
 10
3724.843262
 20
1048.955480
 30
0.0
 10
3724.843262
 20
1056.829984
 30
0.0
 10
3718.310622
 20
1056.829984
 30
0.0
  0
LWPOLYLINE
  5
13c
100
AcDbEntity
  8
0
 62
7
100
AcDbPolyline
 90
21
 70
0
 10
3718.310622
 20
1209.499104
 30
0.0
 10
3718.310622
 20
1237.630400
 30
0.0
 10
3724.843262
 20
1237.630400
 30
0.0
 10
3724.843262
 20
1277.870760
 30
0.0
 10
3718.310622
 20
1277.870760
 30
0.0
 10
3718.310622
 20
1306.002056
 30
0.0
 10
3724.843262
 20
1306.002056
 30
0.0
 10
3724.843262
 20
1313.876568
 30
0.0
 10
3837.095182
 20
1313.876568
 30
0.0
 10
3837.095182
 20
1306.002056
 30
0.0
 10
3843.627822
 20
1306.002056
 30
0.0
 10
3843.627822
 20
1277.870760
 30
0.0
 10
3837.095182
 20
1277.870760
 30
0.0
 10
3837.095182
 20
1237.630400
 30
0.0
 10
3843.627822
 20
1237.630400
 30
0.0
 10
3843.627822
 20
1209.499104
 30
0.0
 10
3837.095182
 20
1209.499104
 30
0.0
 10
3837.095182
 20
1201.624592
 30
0.0
 10
3724.843262
 20
1201.624592
 30
0.0
 10
3724.843262
 20
1209.499104
 30
0.0
 10
3718.310622
 20
1209.499104
 30
0.0
  0
LWPOLYLINE
  5
13d
100
AcDbEntity
  8
0
 62
7
100
AcDbPolyline
 90
21
 70
0
 10
3718.310622
 20
1362.168200
 30
0.0
 10
3718.310622
 20
1390.299496
 30
0.0
 10
3724.843262
 20
1390.299496
 30
0.0
 10
3724.843262
 20
1430.539856
 30
0.0
 10
3718.310622
 20
1430.539856
 30
0.0
 10
3718.310622
 20
1458.671152
 30
0.0
 10
3724.843262
 20
1458.671152
 30
0.0
 10
3724.843262
 20
1466.545656
 30
0.0
 10
3837.095182
 20
1466.545656
 30
0.0
 10
3837.095182
 20
1458.671152
 30
0.0
 10
3843.627822
 20
1458.671152
 30
0.0
 10
3843.627822
 20
1430.539856
 30
0.0
 10
3837.095182
 20
1430.539856
 30
0.0
 10
3837.095182
 20
1390.299496
 30
0.0
 10
3843.627822
 20
1390.299496
 30
0.0
 10
3843.627822
 20
1362.168200
 30
0.0
 10
3837.095182
 20
1362.168200
 30
0.0
 10
3837.095182
 20
1354.293688
 30
0.0
 10
3724.843262
 20
1354.293688
 30
0.0
 10
3724.843262
 20
1362.168200
 30
0.0
 10
3718.310622
 20
1362.168200
 30
0.0
  0
LWPOLYLINE
  5
13e
100
AcDbEntity
  8
0
 62
7
100
AcDbPolyline
 90
21
 70
0
 10
3870.979662
 20
904.160893
 30
0.0
 10
3870.979662
 20
932.292192
 30
0.0
 10
3877.512222
 20
932.292192
 30
0.0
 10
3877.512222
 20
972.532544
 30
0.0
 10
3870.979662
 20
972.532544
 30
0.0
 10
3870.979662
 20
1000.663840
 30
0.0
 10
3877.512222
 20
1000.663840
 30
0.0
 10
3877.512222
 20
1008.538352
 30
0.0
 10
3989.764222
 20
1008.538352
 30
0.0
 10
3989.764222
 20
1000.663840
 30
0.0
 10
3996.296862
 20
1000.663840
 30
0.0
 10
3996.296862
 20
972.532544
 30
0.0
 10
3989.764222
 20
972.532544
 30
0.0
 10
3989.764222
 20
932.292192
 30
0.0
 10
3996.296862
 20
932.292192
 30
0.0
 10
3996.296862
 20
904.160893
 30
0.0
 10
3989.764222
 20
904.160893
 30
0.0
 10
3989.764222
 20
896.286383
 30
0.0
 10
3877.512222
 20
896.286383
 30
0.0
 10
3877.512222
 20
904.160893
 30
0.0
 10
3870.979662
 20
904.160893
 30
0.0
  0
LWPOLYLINE
  5
13f
100
AcDbEntity
  8
0
 62
7
100
AcDbPolyline
 90
21
 70
0
 10
3870.979662
 20
1056.829984
 30
0.0
 10
3870.979662
 20
1084.961280
 30
0.0
 10
3877.512222
 20
1084.961280
 30
0.0
 10
3877.512222
 20
1125.201640
 30
0.0
 10
3870.979662
 20
1125.201640
 30
0.0
 10
3870.979662
 20
1153.332936
 30
0.0
 10
3877.512222
 20
1153.332936
 30
0.0
 10
3877.512222
 20
1161.207448
 30
0.0
 10
3989.764222
 20
1161.207448
 30
0.0
 10
3989.764222
 20
1153.332936
 30
0.0
 10
3996.296862
 20
1153.332936
 30
0.0
 10
3996.296862
 20
1125.201640
 30
0.0
 10
3989.764222
 20
1125.201640
 30
0.0
 10
3989.764222
 20
1084.961280
 30
0.0
 10
3996.296862
 20
1084.961280
 30
0.0
 10
3996.296862
 20
1056.829984
 30
0.0
 10
3989.764222
 20
1056.829984
 30
0.0
 10
3989.764222
 20
1048.955480
 30
0.0
 10
3877.512222
 20
1048.955480
 30
0.0
 10
3877.512222
 20
1056.829984
 30
0.0
 10
3870.979662
 20
1056.829984
 30
0.0
  0
LWPOLYLINE
  5
140
100
AcDbEntity
  8
0
 62
7
100
AcDbPolyline
 90
21
 70
0
 10
3870.979662
 20
1209.499104
 30
0.0
 10
3870.979662
 20
1237.630400
 30
0.0
 10
3877.512222
 20
1237.630400
 30
0.0
 10
3877.512222
 20
1277.870760
 30
0.0
 10
3870.979662
 20
1277.870760
 30
0.0
 10
3870.979662
 20
1306.002056
 30
0.0
 10
3877.512222
 20
1306.002056
 30
0.0
 10
3877.512222
 20
1313.876568
 30
0.0
 10
3989.764222
 20
1313.876568
 30
0.0
 10
3989.764222
 20
1306.002056
 30
0.0
 10
3996.296862
 20
1306.002056
 30
0.0
 10
3996.296862
 20
1277.870760
 30
0.0
 10
3989.764222
 20
1277.870760
 30
0.0
 10
3989.764222
 20
1237.630400
 30
0.0
 10
3996.296862
 20
1237.630400
 30
0.0
 10
3996.296862
 20
1209.499104
 30
0.0
 10
3989.764222
 20
1209.499104
 30
0.0
 10
3989.764222
 20
1201.624592
 30
0.0
 10
3877.512222
 20
1201.624592
 30
0.0
 10
3877.512222
 20
1209.499104
 30
0.0
 10
3870.979662
 20
1209.499104
 30
0.0
  0
LWPOLYLINE
  5
141
100
AcDbEntity
  8
0
 62
7
100
AcDbPolyline
 90
21
 70
0
 10
3870.979662
 20
1362.168200
 30
0.0
 10
3870.979662
 20
1390.299496
 30
0.0
 10
3877.512222
 20
1390.299496
 30
0.0
 10
3877.512222
 20
1430.539856
 30
0.0
 10
3870.979662
 20
1430.539856
 30
0.0
 10
3870.979662
 20
1458.671152
 30
0.0
 10
3877.512222
 20
1458.671152
 30
0.0
 10
3877.512222
 20
1466.545656
 30
0.0
 10
3989.764222
 20
1466.545656
 30
0.0
 10
3989.764222
 20
1458.671152
 30
0.0
 10
3996.296862
 20
1458.671152
 30
0.0
 10
3996.296862
 20
1430.539856
 30
0.0
 10
3989.764222
 20
1430.539856
 30
0.0
 10
3989.764222
 20
1390.299496
 30
0.0
 10
3996.296862
 20
1390.299496
 30
0.0
 10
3996.296862
 20
1362.168200
 30
0.0
 10
3989.764222
 20
1362.168200
 30
0.0
 10
3989.764222
 20
1354.293688
 30
0.0
 10
3877.512222
 20
1354.293688
 30
0.0
 10
3877.512222
 20
1362.168200
 30
0.0
 10
3870.979662
 20
1362.168200
 30
0.0
  0
LWPOLYLINE
  5
142
100
AcDbEntity
  8
0
 62
7
100
AcDbPolyline
 90
6
 70
0
 10
3871.654542
 20
41.363392
 30
0.0
 10
3871.654542
 20
55.537528
 30
0.0
 10
3885.137662
 20
59.916720
 30
0.0
 10
3893.462222
 20
48.450464
 30
0.0
 10
3885.137662
 20
36.984224
 30
0.0
 10
3871.654542
 20
41.363392
 30
0.0
  0
LWPOLYLINE
  5
143
100
AcDbEntity
  8
0
 62
7
100
AcDbPolyline
 90
6
 70
0
 10
3871.654542
 20
844.885096
 30
0.0
 10
3871.654542
 20
859.059231
 30
0.0
 10
3885.137662
 20
863.438418
 30
0.0
 10
3893.462222
 20
851.972163
 30
0.0
 10
3885.137662
 20
840.505909
 30
0.0
 10
3871.654542
 20
844.885096
 30
0.0
  0
LWPOLYLINE
  5
144
100
AcDbEntity
  8
0
 62
7
100
AcDbPolyline
 90
21
 70
0
 10
4023.648702
 20
904.160893
 30
0.0
 10
4023.648702
 20
932.292192
 30
0.0
 10
4030.181262
 20
932.292192
 30
0.0
 10
4030.181262
 20
972.532544
 30
0.0
 10
4023.648702
 20
972.532544
 30
0.0
 10
4023.648702
 20
1000.663840
 30
0.0
 10
4030.181262
 20
1000.663840
 30
0.0
 10
4030.181262
 20
1008.538352
 30
0.0
 10
4142.433262
 20
1008.538352
 30
0.0
 10
4142.433262
 20
1000.663840
 30
0.0
 10
4148.966062
 20
1000.663840
 30
0.0
 10
4148.966062
 20
972.532544
 30
0.0
 10
4142.433262
 20
972.532544
 30
0.0
 10
4142.433262
 20
932.292192
 30
0.0
 10
4148.966062
 20
932.292192
 30
0.0
 10
4148.966062
 20
904.160893
 30
0.0
 10
4142.433262
 20
904.160893
 30
0.0
 10
4142.433262
 20
896.286383
 30
0.0
 10
4030.181262
 20
896.286383
 30
0.0
 10
4030.181262
 20
904.160893
 30
0.0
 10
4023.648702
 20
904.160893
 30
0.0
  0
LWPOLYLINE
  5
145
100
AcDbEntity
  8
0
 62
7
100
AcDbPolyline
 90
21
 70
0
 10
4023.648702
 20
1056.829984
 30
0.0
 10
4023.648702
 20
1084.961280
 30
0.0
 10
4030.181262
 20
1084.961280
 30
0.0
 10
4030.181262
 20
1125.201640
 30
0.0
 10
4023.648702
 20
1125.201640
 30
0.0
 10
4023.648702
 20
1153.332936
 30
0.0
 10
4030.181262
 20
1153.332936
 30
0.0
 10
4030.181262
 20
1161.207448
 30
0.0
 10
4142.433262
 20
1161.207448
 30
0.0
 10
4142.433262
 20
1153.332936
 30
0.0
 10
4148.966062
 20
1153.332936
 30
0.0
 10
4148.966062
 20
1125.201640
 30
0.0
 10
4142.433262
 20
1125.201640
 30
0.0
 10
4142.433262
 20
1084.961280
 30
0.0
 10
4148.966062
 20
1084.961280
 30
0.0
 10
4148.966062
 20
1056.829984
 30
0.0
 10
4142.433262
 20
1056.829984
 30
0.0
 10
4142.433262
 20
1048.955480
 30
0.0
 10
4030.181262
 20
1048.955480
 30
0.0
 10
4030.181262
 20
1056.829984
 30
0.0
 10
4023.648702
 20
1056.829984
 30
0.0
  0
LWPOLYLINE
  5
146
100
AcDbEntity
  8
0
 62
7
100
AcDbPolyline
 90
21
 70
0
 10
4023.648702
 20
1209.499104
 30
0.0
 10
4023.648702
 20
1237.630400
 30
0.0
 10
4030.181262
 20
1237.630400
 30
0.0
 10
4030.181262
 20
1277.870760
 30
0.0
 10
4023.648702
 20
1277.870760
 30
0.0
 10
4023.648702
 20
1306.002056
 30
0.0
 10
4030.181262
 20
1306.002056
 30
0.0
 10
4030.181262
 20
1313.876568
 30
0.0
 10
4142.433262
 20
1313.876568
 30
0.0
 10
4142.433262
 20
1306.002056
 30
0.0
 10
4148.966062
 20
1306.002056
 30
0.0
 10
4148.966062
 20
1277.870760
 30
0.0
 10
4142.433262
 20
1277.870760
 30
0.0
 10
4142.433262
 20
1237.630400
 30
0.0
 10
4148.966062
 20
1237.630400
 30
0.0
 10
4148.966062
 20
1209.499104
 30
0.0
 10
4142.433262
 20
1209.499104
 30
0.0
 10
4142.433262
 20
1201.624592
 30
0.0
 10
4030.181262
 20
1201.624592
 30
0.0
 10
4030.181262
 20
1209.499104
 30
0.0
 10
4023.648702
 20
1209.499104
 30
0.0
  0
LWPOLYLINE
  5
147
100
AcDbEntity
  8
0
 62
7
100
AcDbPolyline
 90
21
 70
0
 10
4023.648702
 20
1362.168200
 30
0.0
 10
4023.648702
 20
1390.299496
 30
0.0
 10
4030.181262
 20
1390.299496
 30
0.0
 10
4030.181262
 20
1430.539856
 30
0.0
 10
4023.648702
 20
1430.539856
 30
0.0
 10
4023.648702
 20
1458.671152
 30
0.0
 10
4030.181262
 20
1458.671152
 30
0.0
 10
4030.181262
 20
1466.545656
 30
0.0
 10
4142.433262
 20
1466.545656
 30
0.0
 10
4142.433262
 20
1458.671152
 30
0.0
 10
4148.966062
 20
1458.671152
 30
0.0
 10
4148.966062
 20
1430.539856
 30
0.0
 10
4142.433262
 20
1430.539856
 30
0.0
 10
4142.433262
 20
1390.299496
 30
0.0
 10
4148.966062
 20
1390.299496
 30
0.0
 10
4148.966062
 20
1362.168200
 30
0.0
 10
4142.433262
 20
1362.168200
 30
0.0
 10
4142.433262
 20
1354.293688
 30
0.0
 10
4030.181262
 20
1354.293688
 30
0.0
 10
4030.181262
 20
1362.168200
 30
0.0
 10
4023.648702
 20
1362.168200
 30
0.0
  0
LWPOLYLINE
  5
148
100
AcDbEntity
  8
0
 62
7
100
AcDbPolyline
 90
21
 70
0
 10
4176.317902
 20
904.160893
 30
0.0
 10
4176.317902
 20
932.292192
 30
0.0
 10
4182.850542
 20
932.292192
 30
0.0
 10
4182.850542
 20
972.532544
 30
0.0
 10
4176.317902
 20
972.532544
 30
0.0
 10
4176.317902
 20
1000.663840
 30
0.0
 10
4182.850542
 20
1000.663840
 30
0.0
 10
4182.850542
 20
1008.538352
 30
0.0
 10
4295.102542
 20
1008.538352
 30
0.0
 10
4295.102542
 20
1000.663840
 30
0.0
 10
4301.635102
 20
1000.663840
 30
0.0
 10
4301.635102
 20
972.532544
 30
0.0
 10
4295.102542
 20
972.532544
 30
0.0
 10
4295.102542
 20
932.292192
 30
0.0
 10
4301.635102
 20
932.292192
 30
0.0
 10
4301.635102
 20
904.160893
 30
0.0
 10
4295.102542
 20
904.160893
 30
0.0
 10
4295.102542
 20
896.286383
 30
0.0
 10
4182.850542
 20
896.286383
 30
0.0
 10
4182.850542
 20
904.160893
 30
0.0
 10
4176.317902
 20
904.160893
 30
0.0
  0
LWPOLYLINE
  5
149
100
AcDbEntity
  8
0
 62
7
100
AcDbPolyline
 90
21
 70
0
 10
4176.317902
 20
1056.829984
 30
0.0
 10
4176.317902
 20
1084.961280
 30
0.0
 10
4182.850542
 20
1084.961280
 30
0.0
 10
4182.850542
 20
1125.201640
 30
0.0
 10
4176.317902
 20
1125.201640
 30
0.0
 10
4176.317902
 20
1153.332936
 30
0.0
 10
4182.850542
 20
1153.332936
 30
0.0
 10
4182.850542
 20
1161.207448
 30
0.0
 10
4295.102542
 20
1161.207448
 30
0.0
 10
4295.102542
 20
1153.332936
 30
0.0
 10
4301.635102
 20
1153.332936
 30
0.0
 10
4301.635102
 20
1125.201640
 30
0.0
 10
4295.102542
 20
1125.201640
 30
0.0
 10
4295.102542
 20
1084.961280
 30
0.0
 10
4301.635102
 20
1084.961280
 30
0.0
 10
4301.635102
 20
1056.829984
 30
0.0
 10
4295.102542
 20
1056.829984
 30
0.0
 10
4295.102542
 20
1048.955480
 30
0.0
 10
4182.850542
 20
1048.955480
 30
0.0
 10
4182.850542
 20
1056.829984
 30
0.0
 10
4176.317902
 20
1056.829984
 30
0.0
  0
LWPOLYLINE
  5
14a
100
AcDbEntity
  8
0
 62
7
100
AcDbPolyline
 90
21
 70
0
 10
4176.317902
 20
1209.499104
 30
0.0
 10
4176.317902
 20
1237.630400
 30
0.0
 10
4182.850542
 20
1237.630400
 30
0.0
 10
4182.850542
 20
1277.870760
 30
0.0
 10
4176.317902
 20
1277.870760
 30
0.0
 10
4176.317902
 20
1306.002056
 30
0.0
 10
4182.850542
 20
1306.002056
 30
0.0
 10
4182.850542
 20
1313.876568
 30
0.0
 10
4295.102542
 20
1313.876568
 30
0.0
 10
4295.102542
 20
1306.002056
 30
0.0
 10
4301.635102
 20
1306.002056
 30
0.0
 10
4301.635102
 20
1277.870760
 30
0.0
 10
4295.102542
 20
1277.870760
 30
0.0
 10
4295.102542
 20
1237.630400
 30
0.0
 10
4301.635102
 20
1237.630400
 30
0.0
 10
4301.635102
 20
1209.499104
 30
0.0
 10
4295.102542
 20
1209.499104
 30
0.0
 10
4295.102542
 20
1201.624592
 30
0.0
 10
4182.850542
 20
1201.624592
 30
0.0
 10
4182.850542
 20
1209.499104
 30
0.0
 10
4176.317902
 20
1209.499104
 30
0.0
  0
LWPOLYLINE
  5
14b
100
AcDbEntity
  8
0
 62
7
100
AcDbPolyline
 90
21
 70
0
 10
4176.317902
 20
1362.168200
 30
0.0
 10
4176.317902
 20
1390.299496
 30
0.0
 10
4182.850542
 20
1390.299496
 30
0.0
 10
4182.850542
 20
1430.539856
 30
0.0
 10
4176.317902
 20
1430.539856
 30
0.0
 10
4176.317902
 20
1458.671152
 30
0.0
 10
4182.850542
 20
1458.671152
 30
0.0
 10
4182.850542
 20
1466.545656
 30
0.0
 10
4295.102542
 20
1466.545656
 30
0.0
 10
4295.102542
 20
1458.671152
 30
0.0
 10
4301.635102
 20
1458.671152
 30
0.0
 10
4301.635102
 20
1430.539856
 30
0.0
 10
4295.102542
 20
1430.539856
 30
0.0
 10
4295.102542
 20
1390.299496
 30
0.0
 10
4301.635102
 20
1390.299496
 30
0.0
 10
4301.635102
 20
1362.168200
 30
0.0
 10
4295.102542
 20
1362.168200
 30
0.0
 10
4295.102542
 20
1354.293688
 30
0.0
 10
4182.850542
 20
1354.293688
 30
0.0
 10
4182.850542
 20
1362.168200
 30
0.0
 10
4176.317902
 20
1362.168200
 30
0.0
  0
LWPOLYLINE
  5
14c
100
AcDbEntity
  8
0
 62
7
100
AcDbPolyline
 90
21
 70
0
 10
4328.986942
 20
904.160893
 30
0.0
 10
4328.986942
 20
932.292192
 30
0.0
 10
4335.519582
 20
932.292192
 30
0.0
 10
4335.519582
 20
972.532544
 30
0.0
 10
4328.986942
 20
972.532544
 30
0.0
 10
4328.986942
 20
1000.663840
 30
0.0
 10
4335.519582
 20
1000.663840
 30
0.0
 10
4335.519582
 20
1008.538352
 30
0.0
 10
4447.771502
 20
1008.538352
 30
0.0
 10
4447.771502
 20
1000.663840
 30
0.0
 10
4454.304142
 20
1000.663840
 30
0.0
 10
4454.304142
 20
972.532544
 30
0.0
 10
4447.771502
 20
972.532544
 30
0.0
 10
4447.771502
 20
932.292192
 30
0.0
 10
4454.304142
 20
932.292192
 30
0.0
 10
4454.304142
 20
904.160893
 30
0.0
 10
4447.771502
 20
904.160893
 30
0.0
 10
4447.771502
 20
896.286383
 30
0.0
 10
4335.519582
 20
896.286383
 30
0.0
 10
4335.519582
 20
904.160893
 30
0.0
 10
4328.986942
 20
904.160893
 30
0.0
  0
LWPOLYLINE
  5
14d
100
AcDbEntity
  8
0
 62
7
100
AcDbPolyline
 90
21
 70
0
 10
4328.986942
 20
1056.829984
 30
0.0
 10
4328.986942
 20
1084.961280
 30
0.0
 10
4335.519582
 20
1084.961280
 30
0.0
 10
4335.519582
 20
1125.201640
 30
0.0
 10
4328.986942
 20
1125.201640
 30
0.0
 10
4328.986942
 20
1153.332936
 30
0.0
 10
4335.519582
 20
1153.332936
 30
0.0
 10
4335.519582
 20
1161.207448
 30
0.0
 10
4447.771502
 20
1161.207448
 30
0.0
 10
4447.771502
 20
1153.332936
 30
0.0
 10
4454.304142
 20
1153.332936
 30
0.0
 10
4454.304142
 20
1125.201640
 30
0.0
 10
4447.771502
 20
1125.201640
 30
0.0
 10
4447.771502
 20
1084.961280
 30
0.0
 10
4454.304142
 20
1084.961280
 30
0.0
 10
4454.304142
 20
1056.829984
 30
0.0
 10
4447.771502
 20
1056.829984
 30
0.0
 10
4447.771502
 20
1048.955480
 30
0.0
 10
4335.519582
 20
1048.955480
 30
0.0
 10
4335.519582
 20
1056.829984
 30
0.0
 10
4328.986942
 20
1056.829984
 30
0.0
  0
LWPOLYLINE
  5
14e
100
AcDbEntity
  8
0
 62
7
100
AcDbPolyline
 90
21
 70
0
 10
4328.986942
 20
1209.499104
 30
0.0
 10
4328.986942
 20
1237.630400
 30
0.0
 10
4335.519582
 20
1237.630400
 30
0.0
 10
4335.519582
 20
1277.870760
 30
0.0
 10
4328.986942
 20
1277.870760
 30
0.0
 10
4328.986942
 20
1306.002056
 30
0.0
 10
4335.519582
 20
1306.002056
 30
0.0
 10
4335.519582
 20
1313.876568
 30
0.0
 10
4447.771502
 20
1313.876568
 30
0.0
 10
4447.771502
 20
1306.002056
 30
0.0
 10
4454.304142
 20
1306.002056
 30
0.0
 10
4454.304142
 20
1277.870760
 30
0.0
 10
4447.771502
 20
1277.870760
 30
0.0
 10
4447.771502
 20
1237.630400
 30
0.0
 10
4454.304142
 20
1237.630400
 30
0.0
 10
4454.304142
 20
1209.499104
 30
0.0
 10
4447.771502
 20
1209.499104
 30
0.0
 10
4447.771502
 20
1201.624592
 30
0.0
 10
4335.519582
 20
1201.624592
 30
0.0
 10
4335.519582
 20
1209.499104
 30
0.0
 10
4328.986942
 20
1209.499104
 30
0.0
  0
LWPOLYLINE
  5
14f
100
AcDbEntity
  8
0
 62
7
100
AcDbPolyline
 90
21
 70
0
 10
4328.986942
 20
1362.168200
 30
0.0
 10
4328.986942
 20
1390.299496
 30
0.0
 10
4335.519582
 20
1390.299496
 30
0.0
 10
4335.519582
 20
1430.539856
 30
0.0
 10
4328.986942
 20
1430.539856
 30
0.0
 10
4328.986942
 20
1458.671152
 30
0.0
 10
4335.519582
 20
1458.671152
 30
0.0
 10
4335.519582
 20
1466.545656
 30
0.0
 10
4447.771502
 20
1466.545656
 30
0.0
 10
4447.771502
 20
1458.671152
 30
0.0
 10
4454.304142
 20
1458.671152
 30
0.0
 10
4454.304142
 20
1430.539856
 30
0.0
 10
4447.771502
 20
1430.539856
 30
0.0
 10
4447.771502
 20
1390.299496
 30
0.0
 10
4454.304142
 20
1390.299496
 30
0.0
 10
4454.304142
 20
1362.168200
 30
0.0
 10
4447.771502
 20
1362.168200
 30
0.0
 10
4447.771502
 20
1354.293688
 30
0.0
 10
4335.519582
 20
1354.293688
 30
0.0
 10
4335.519582
 20
1362.168200
 30
0.0
 10
4328.986942
 20
1362.168200
 30
0.0
  0
LWPOLYLINE
  5
150
100
AcDbEntity
  8
0
 62
7
100
AcDbPolyline
 90
21
 70
0
 10
4481.655982
 20
904.160893
 30
0.0
 10
4481.655982
 20
932.292192
 30
0.0
 10
4488.188862
 20
932.292192
 30
0.0
 10
4488.188862
 20
972.532544
 30
0.0
 10
4481.655982
 20
972.532544
 30
0.0
 10
4481.655982
 20
1000.663840
 30
0.0
 10
4488.188862
 20
1000.663840
 30
0.0
 10
4488.188862
 20
1008.538352
 30
0.0
 10
4600.440782
 20
1008.538352
 30
0.0
 10
4600.440782
 20
1000.663840
 30
0.0
 10
4606.973422
 20
1000.663840
 30
0.0
 10
4606.973422
 20
972.532544
 30
0.0
 10
4600.440782
 20
972.532544
 30
0.0
 10
4600.440782
 20
932.292192
 30
0.0
 10
4606.973422
 20
932.292192
 30
0.0
 10
4606.973422
 20
904.160893
 30
0.0
 10
4600.440782
 20
904.160893
 30
0.0
 10
4600.440782
 20
896.286383
 30
0.0
 10
4488.188862
 20
896.286383
 30
0.0
 10
4488.188862
 20
904.160893
 30
0.0
 10
4481.655982
 20
904.160893
 30
0.0
  0
LWPOLYLINE
  5
151
100
AcDbEntity
  8
0
 62
7
100
AcDbPolyline
 90
21
 70
0
 10
4481.655982
 20
1056.829984
 30
0.0
 10
4481.655982
 20
1084.961280
 30
0.0
 10
4488.188862
 20
1084.961280
 30
0.0
 10
4488.188862
 20
1125.201640
 30
0.0
 10
4481.655982
 20
1125.201640
 30
0.0
 10
4481.655982
 20
1153.332936
 30
0.0
 10
4488.188862
 20
1153.332936
 30
0.0
 10
4488.188862
 20
1161.207448
 30
0.0
 10
4600.440782
 20
1161.207448
 30
0.0
 10
4600.440782
 20
1153.332936
 30
0.0
 10
4606.973422
 20
1153.332936
 30
0.0
 10
4606.973422
 20
1125.201640
 30
0.0
 10
4600.440782
 20
1125.201640
 30
0.0
 10
4600.440782
 20
1084.961280
 30
0.0
 10
4606.973422
 20
1084.961280
 30
0.0
 10
4606.973422
 20
1056.829984
 30
0.0
 10
4600.440782
 20
1056.829984
 30
0.0
 10
4600.440782
 20
1048.955480
 30
0.0
 10
4488.188862
 20
1048.955480
 30
0.0
 10
4488.188862
 20
1056.829984
 30
0.0
 10
4481.655982
 20
1056.829984
 30
0.0
  0
LWPOLYLINE
  5
152
100
AcDbEntity
  8
0
 62
7
100
AcDbPolyline
 90
21
 70
0
 10
4481.655982
 20
1209.499104
 30
0.0
 10
4481.655982
 20
1237.630400
 30
0.0
 10
4488.188862
 20
1237.630400
 30
0.0
 10
4488.188862
 20
1277.870760
 30
0.0
 10
4481.655982
 20
1277.870760
 30
0.0
 10
4481.655982
 20
1306.002056
 30
0.0
 10
4488.188862
 20
1306.002056
 30
0.0
 10
4488.188862
 20
1313.876568
 30
0.0
 10
4600.440782
 20
1313.876568
 30
0.0
 10
4600.440782
 20
1306.002056
 30
0.0
 10
4606.973422
 20
1306.002056
 30
0.0
 10
4606.973422
 20
1277.870760
 30
0.0
 10
4600.440782
 20
1277.870760
 30
0.0
 10
4600.440782
 20
1237.630400
 30
0.0
 10
4606.973422
 20
1237.630400
 30
0.0
 10
4606.973422
 20
1209.499104
 30
0.0
 10
4600.440782
 20
1209.499104
 30
0.0
 10
4600.440782
 20
1201.624592
 30
0.0
 10
4488.188862
 20
1201.624592
 30
0.0
 10
4488.188862
 20
1209.499104
 30
0.0
 10
4481.655982
 20
1209.499104
 30
0.0
  0
LWPOLYLINE
  5
153
100
AcDbEntity
  8
0
 62
7
100
AcDbPolyline
 90
21
 70
0
 10
4481.655982
 20
1362.168200
 30
0.0
 10
4481.655982
 20
1390.299496
 30
0.0
 10
4488.188862
 20
1390.299496
 30
0.0
 10
4488.188862
 20
1430.539856
 30
0.0
 10
4481.655982
 20
1430.539856
 30
0.0
 10
4481.655982
 20
1458.671152
 30
0.0
 10
4488.188862
 20
1458.671152
 30
0.0
 10
4488.188862
 20
1466.545656
 30
0.0
 10
4600.440782
 20
1466.545656
 30
0.0
 10
4600.440782
 20
1458.671152
 30
0.0
 10
4606.973422
 20
1458.671152
 30
0.0
 10
4606.973422
 20
1430.539856
 30
0.0
 10
4600.440782
 20
1430.539856
 30
0.0
 10
4600.440782
 20
1390.299496
 30
0.0
 10
4606.973422
 20
1390.299496
 30
0.0
 10
4606.973422
 20
1362.168200
 30
0.0
 10
4600.440782
 20
1362.168200
 30
0.0
 10
4600.440782
 20
1354.293688
 30
0.0
 10
4488.188862
 20
1354.293688
 30
0.0
 10
4488.188862
 20
1362.168200
 30
0.0
 10
4481.655982
 20
1362.168200
 30
0.0
  0
LWPOLYLINE
  5
154
100
AcDbEntity
  8
0
 62
7
100
AcDbPolyline
 90
6
 70
0
 10
4635.000142
 20
41.363392
 30
0.0
 10
4635.000142
 20
55.537528
 30
0.0
 10
4648.483262
 20
59.916720
 30
0.0
 10
4656.807822
 20
48.450464
 30
0.0
 10
4648.483262
 20
36.984224
 30
0.0
 10
4635.000142
 20
41.363392
 30
0.0
  0
LWPOLYLINE
  5
155
100
AcDbEntity
  8
0
 62
7
100
AcDbPolyline
 90
6
 70
0
 10
4635.000142
 20
700.251200
 30
0.0
 10
4635.000142
 20
714.425336
 30
0.0
 10
4648.483262
 20
718.804528
 30
0.0
 10
4656.807822
 20
707.338272
 30
0.0
 10
4648.483262
 20
695.872016
 30
0.0
 10
4635.000142
 20
700.251200
 30
0.0
  0
LWPOLYLINE
  5
156
100
AcDbEntity
  8
0
 62
7
100
AcDbPolyline
 90
6
 70
0
 10
4635.000142
 20
844.885096
 30
0.0
 10
4635.000142
 20
859.059231
 30
0.0
 10
4648.483262
 20
863.438418
 30
0.0
 10
4656.807822
 20
851.972163
 30
0.0
 10
4648.483262
 20
840.505909
 30
0.0
 10
4635.000142
 20
844.885096
 30
0.0
  0
LWPOLYLINE
  5
157
100
AcDbEntity
  8
0
 62
7
100
AcDbPolyline
 90
6
 70
0
 10
4635.000142
 20
1503.772808
 30
0.0
 10
4635.000142
 20
1517.946944
 30
0.0
 10
4648.483262
 20
1522.326136
 30
0.0
 10
4656.807822
 20
1510.859880
 30
0.0
 10
4648.483262
 20
1499.393624
 30
0.0
 10
4635.000142
 20
1503.772808
 30
0.0
  0
ENDSEC
  0
SECTION
  2
OBJECTS
  0
DICTIONARY
  5
C
330
0
100
AcDbDictionary
  3
ACAD_GROUP
350
D
  3
ACAD_MLINESTYLE
350
17
  0
DICTIONARY
  5
D
330
C
100
AcDbDictionary
  0
DICTIONARY
  5
1A
330
C
100
AcDbDictionary
  0
DICTIONARY
  5
17
330
C
100
AcDbDictionary
  3
STANDARD
350
18
  0
DICTIONARY
  5
19
330
C
100
AcDbDictionary
  0
ENDSEC
  0
EOF
