  0
SECTION
  2
HEADER
  9
$ACADVER
  1
AC1014
  9
$HANDSEED
  5
FFFF
  9
$MEASUREMENT
 70
     1
  0
ENDSEC
  0
SECTION
  2
TABLES
  0
TABLE
  2
VPORT
  5
8
330
0
100
AcDbSymbolTable
 70
     4
  0
VPORT
  5
2E
330
8
100
AcDbSymbolTableRecord
100
AcDbViewportTableRecord
  2
*ACTIVE
 70
     0
 10
0.0
 20
0.0
 11
1.0
 21
1.0
 12
210.0
 22
148.5
 13
0.0
 23
0.0
 14
10.0
 24
10.0
 15
10.0
 25
10.0
 16
0.0
 26
0.0
 36
1.0
 17
0.0
 27
0.0
 37
0.0
 40
341.0
 41
1.24
 42
50.0
 43
0.0
 44
0.0
 50
0.0
 51
0.0
 71
     0
 72
   100
 73
     1
 74
     3
 75
     0
 76
     0
 77
     0
 78
     0
  0
ENDTAB
  0
TABLE
  2
LTYPE
  5
5
330
0
100
AcDbSymbolTable
 70
     1
  0
LTYPE
  5
14
330
5
100
AcDbSymbolTableRecord
100
AcDbLinetypeTableRecord
  2
BYBLOCK
 70
     0
  3

 72
    65
 73
     0
 40
0.0
  0
LTYPE
  5
15
330
5
100
AcDbSymbolTableRecord
100
AcDbLinetypeTableRecord
  2
BYLAYER
 70
     0
  3

 72
    65
 73
     0
 40
0.0
  0
LTYPE
  5
16
330
5
100
AcDbSymbolTableRecord
100
AcDbLinetypeTableRecord
  2
CONTINUOUS
 70
     0
  3
Solid line
 72
    65
 73
     0
 40
0.0
  0
ENDTAB
  0
TABLE
  2
LAYER
  5
2
100
AcDbSymbolTable
 70
1
  0
LAYER
  5
50
100
AcDbSymbolTableRecord
100
AcDbLayerTableRecord
  2
0
 70
0
  6
CONTINUOUS
  0
ENDTAB
  0
TABLE
  2
STYLE
  5
3
330
0
100
AcDbSymbolTable
 70
     1
  0
STYLE
  5
11
330
3
100
AcDbSymbolTableRecord
100
AcDbTextStyleTableRecord
  2
STANDARD
 70
     0
 40
0.0
 41
1.0
 50
0.0
 71
     0
 42
2.5
  3
txt
  4

  0
ENDTAB
  0
TABLE
  2
VIEW
  5
6
330
0
100
AcDbSymbolTable
 70
     0
  0
ENDTAB
  0
TABLE
  2
UCS
  5
7
330
0
100
AcDbSymbolTable
 70
     0
  0
ENDTAB
  0
TABLE
  2
APPID
  5
9
330
0
100
AcDbSymbolTable
 70
     2
  0
APPID
  5
12
330
9
100
AcDbSymbolTableRecord
100
AcDbRegAppTableRecord
  2
ACAD
 70
     0
  0
ENDTAB
  0
TABLE
  2
DIMSTYLE
  5
A
330
0
100
AcDbSymbolTable
 70
     1
  0
DIMSTYLE
105
27
330
A
100
AcDbSymbolTableRecord
100
AcDbDimStyleTableRecord
  2
ISO-25
 70
     0
  3

  4

  5

  6

  7

 40
1.0
 41
2.5
 42
0.625
 43
3.75
 44
1.25
 45
0.0
 46
0.0
 47
0.0
 48
0.0
140
2.5
141
2.5
142
0.0
143
0.03937007874016
144
1.0
145
0.0
146
1.0
147
0.625
 71
     0
 72
     0
 73
     0
 74
     0
 75
     0
 76
     0
 77
     1
 78
     8
170
     0
171
     3
172
     1
173
     0
174
     0
175
     0
176
     0
177
     0
178
     0
270
     2
271
     2
272
     2
273
     2
274
     3
340
11
275
     0
280
     0
281
     0
282
     0
283
     0
284
     8
285
     0
286
     0
287
     3
288
     0
  0
ENDTAB
  0
TABLE
  2
BLOCK_RECORD
  5
1
330
0
100
AcDbSymbolTable
 70
     1
  0
BLOCK_RECORD
  5
1F
330
1
100
AcDbSymbolTableRecord
100
AcDbBlockTableRecord
  2
*MODEL_SPACE
  0
BLOCK_RECORD
  5
1B
330
1
100
AcDbSymbolTableRecord
100
AcDbBlockTableRecord
  2
*PAPER_SPACE
  0
ENDTAB
  0
ENDSEC
  0
SECTION
  2
BLOCKS
  0
BLOCK
  5
20
330
1F
100
AcDbEntity
  8
0
100
AcDbBlockBegin
  2
*MODEL_SPACE
 70
     0
 10
0.0
 20
0.0
 30
0.0
  3
*MODEL_SPACE
  1

  0
ENDBLK
  5
21
330
1F
100
AcDbEntity
  8
0
100
AcDbBlockEnd
  0
BLOCK
  5
1C
330
1B
100
AcDbEntity
 67
     1
  8
0
100
AcDbBlockBegin
  2
*PAPER_SPACE
  1

  0
ENDBLK
  5
1D
330
1B
100
AcDbEntity
 67
     1
  8
0
100
AcDbBlockEnd
  0
ENDSEC
  0
SECTION
  2
ENTITIES
  0
LWPOLYLINE
  5
100
100
AcDbEntity
  8
0
 62
7
100
AcDbPolyline
 90
25
 70
0
 10
0.400000
 20
17.351136
 30
0.0
 10
0.400000
 20
249.792112
 30
0.0
 10
1.321264
 20
255.314000
 30
0.0
 10
3.985832
 20
260.237784
 30
0.0
 10
8.104568
 20
264.030536
 30
0.0
 10
13.232448
 20
266.278408
 30
0.0
 10
18.811024
 20
266.743296
 30
0.0
 10
787.028352
 20
266.743296
 30
0.0
 10
792.606928
 20
266.278408
 30
0.0
 10
797.734808
 20
264.030536
 30
0.0
 10
801.853544
 20
260.237784
 30
0.0
 10
804.518112
 20
255.314000
 30
0.0
 10
805.439376
 20
249.792112
 30
0.0
 10
805.439376
 20
17.351136
 30
0.0
 10
804.518112
 20
11.829296
 30
0.0
 10
801.853544
 20
6.905536
 30
0.0
 10
797.734808
 20
3.112736
 30
0.0
 10
792.606928
 20
0.864896
 30
0.0
 10
787.028352
 20
0.400016
 30
0.0
 10
18.811024
 20
0.400016
 30
0.0
 10
13.232448
 20
0.864896
 30
0.0
 10
8.104568
 20
3.112736
 30
0.0
 10
3.985832
 20
6.905536
 30
0.0
 10
1.321264
 20
11.829296
 30
0.0
 10
0.400000
 20
17.351136
 30
0.0
  0
LWPOLYLINE
  5
101
100
AcDbEntity
  8
0
 62
7
100
AcDbPolyline
 90
57
 70
0
 10
0.400000
 20
300.815736
 30
0.0
 10
0.400000
 20
533.256680
 30
0.0
 10
1.321264
 20
538.778568
 30
0.0
 10
3.985832
 20
543.702352
 30
0.0
 10
8.104568
 20
547.495104
 30
0.0
 10
13.232448
 20
549.742976
 30
0.0
 10
18.811024
 20
550.207864
 30
0.0
 10
373.141735
 20
550.207864
 30
0.0
 10
378.570082
 20
548.833056
 30
0.0
 10
383.258586
 20
545.768808
 30
0.0
 10
386.697011
 20
541.352424
 30
0.0
 10
388.514018
 20
536.057312
 30
0.0
 10
388.514018
 20
530.456048
 30
0.0
 10
386.697011
 20
525.160928
 30
0.0
 10
383.258586
 20
520.744552
 30
0.0
 10
378.570082
 20
517.680304
 30
0.0
 10
373.141735
 20
516.305496
 30
0.0
 10
367.563153
 20
516.770376
 30
0.0
 10
365.519373
 20
517.666128
 30
0.0
 10
32.998432
 20
517.666128
 30
0.0
 10
32.998432
 20
316.406288
 30
0.0
 10
302.289768
 20
316.406288
 30
0.0
 10
302.289768
 20
302.941720
 30
0.0
 10
503.549608
 20
302.941720
 30
0.0
 10
503.549608
 20
316.406288
 30
0.0
 10
772.840944
 20
316.406288
 30
0.0
 10
772.840944
 20
517.666128
 30
0.0
 10
440.320003
 20
517.666128
 30
0.0
 10
438.276223
 20
516.770376
 30
0.0
 10
432.697641
 20
516.305496
 30
0.0
 10
427.269294
 20
517.680304
 30
0.0
 10
422.580790
 20
520.744552
 30
0.0
 10
419.142365
 20
525.160928
 30
0.0
 10
417.325358
 20
530.456048
 30
0.0
 10
417.325358
 20
536.057312
 30
0.0
 10
419.142365
 20
541.352424
 30
0.0
 10
422.580790
 20
545.768808
 30
0.0
 10
427.269294
 20
548.833056
 30
0.0
 10
432.697641
 20
550.207864
 30
0.0
 10
787.028352
 20
550.207864
 30
0.0
 10
792.606928
 20
549.742976
 30
0.0
 10
797.734808
 20
547.495104
 30
0.0
 10
801.853544
 20
543.702352
 30
0.0
 10
804.518112
 20
538.778568
 30
0.0
 10
805.439376
 20
533.256680
 30
0.0
 10
805.439376
 20
300.815736
 30
0.0
 10
804.518112
 20
295.293848
 30
0.0
 10
801.853544
 20
290.370064
 30
0.0
 10
797.734808
 20
286.577312
 30
0.0
 10
792.606928
 20
284.329432
 30
0.0
 10
787.028352
 20
283.864552
 30
0.0
 10
18.811024
 20
283.864552
 30
0.0
 10
13.232448
 20
284.329432
 30
0.0
 10
8.104568
 20
286.577312
 30
0.0
 10
3.985832
 20
290.370064
 30
0.0
 10
1.321264
 20
295.293848
 30
0.0
 10
0.400000
 20
300.815736
 30
0.0
  0
LWPOLYLINE
  5
102
100
AcDbEntity
  8
0
 62
7
100
AcDbPolyline
 90
6
 70
0
 10
13.155912
 20
17.351136
 30
0.0
 10
16.092600
 20
21.396176
 30
0.0
 10
20.849136
 20
19.851296
 30
0.0
 10
20.849136
 20
14.850976
 30
0.0
 10
16.092600
 20
13.306096
 30
0.0
 10
13.155912
 20
17.351136
 30
0.0
  0
LWPOLYLINE
  5
103
100
AcDbEntity
  8
0
 62
7
100
AcDbPolyline
 90
6
 70
0
 10
13.155912
 20
249.792112
 30
0.0
 10
16.092600
 20
253.837152
 30
0.0
 10
20.849136
 20
252.292272
 30
0.0
 10
20.849136
 20
247.291952
 30
0.0
 10
16.092600
 20
245.747072
 30
0.0
 10
13.155912
 20
249.792112
 30
0.0
  0
LWPOLYLINE
  5
104
100
AcDbEntity
  8
0
 62
7
100
AcDbPolyline
 90
6
 70
0
 10
13.155912
 20
300.815736
 30
0.0
 10
16.092600
 20
304.860776
 30
0.0
 10
20.849136
 20
303.315896
 30
0.0
 10
20.849136
 20
298.315576
 30
0.0
 10
16.092600
 20
296.770696
 30
0.0
 10
13.155912
 20
300.815736
 30
0.0
  0
LWPOLYLINE
  5
105
100
AcDbEntity
  8
0
 62
7
100
AcDbPolyline
 90
6
 70
0
 10
13.155912
 20
533.256680
 30
0.0
 10
16.092600
 20
537.301720
 30
0.0
 10
20.849136
 20
535.756840
 30
0.0
 10
20.849136
 20
530.756520
 30
0.0
 10
16.092600
 20
529.211640
 30
0.0
 10
13.155912
 20
533.256680
 30
0.0
  0
LWPOLYLINE
  5
106
100
AcDbEntity
  8
0
 62
7
100
AcDbPolyline
 90
6
 70
0
 10
282.447248
 20
17.351136
 30
0.0
 10
285.383944
 20
21.396176
 30
0.0
 10
290.140472
 20
19.851296
 30
0.0
 10
290.140472
 20
14.850976
 30
0.0
 10
285.383944
 20
13.306096
 30
0.0
 10
282.447248
 20
17.351136
 30
0.0
  0
LWPOLYLINE
  5
107
100
AcDbEntity
  8
0
 62
7
100
AcDbPolyline
 90
6
 70
0
 10
282.447248
 20
300.815736
 30
0.0
 10
285.383944
 20
304.860776
 30
0.0
 10
290.140472
 20
303.315896
 30
0.0
 10
290.140472
 20
298.315576
 30
0.0
 10
285.383944
 20
296.770696
 30
0.0
 10
282.447248
 20
300.815736
 30
0.0
  0
LWPOLYLINE
  5
108
100
AcDbEntity
  8
0
 62
7
100
AcDbPolyline
 90
6
 70
0
 10
367.486617
 20
249.792112
 30
0.0
 10
370.423310
 20
253.837152
 30
0.0
 10
375.179846
 20
252.292272
 30
0.0
 10
375.179846
 20
247.291952
 30
0.0
 10
370.423310
 20
245.747072
 30
0.0
 10
367.486617
 20
249.792112
 30
0.0
  0
LWPOLYLINE
  5
109
100
AcDbEntity
  8
0
 62
7
100
AcDbPolyline
 90
6
 70
0
 10
367.486617
 20
533.256680
 30
0.0
 10
370.423310
 20
537.301720
 30
0.0
 10
375.179846
 20
535.756840
 30
0.0
 10
375.179846
 20
530.756520
 30
0.0
 10
370.423310
 20
529.211640
 30
0.0
 10
367.486617
 20
533.256680
 30
0.0
  0
LWPOLYLINE
  5
10a
100
AcDbEntity
  8
0
 62
7
100
AcDbPolyline
 90
5
 70
0
 10
388.746460
 20
349.004712
 30
0.0
 10
388.746460
 20
377.351168
 30
0.0
 10
417.092916
 20
377.351168
 30
0.0
 10
417.092916
 20
349.004712
 30
0.0
 10
388.746460
 20
349.004712
 30
0.0
  0
LWPOLYLINE
  5
10b
100
AcDbEntity
  8
0
 62
7
100
AcDbPolyline
 90
6
 70
0
 10
430.659530
 20
247.291952
 30
0.0
 10
430.659530
 20
252.292272
 30
0.0
 10
435.416066
 20
253.837152
 30
0.0
 10
438.352759
 20
249.792112
 30
0.0
 10
435.416066
 20
245.747072
 30
0.0
 10
430.659530
 20
247.291952
 30
0.0
  0
LWPOLYLINE
  5
10c
100
AcDbEntity
  8
0
 62
7
100
AcDbPolyline
 90
6
 70
0
 10
430.659530
 20
530.756520
 30
0.0
 10
430.659530
 20
535.756840
 30
0.0
 10
435.416066
 20
537.301720
 30
0.0
 10
438.352759
 20
533.256680
 30
0.0
 10
435.416066
 20
529.211640
 30
0.0
 10
430.659530
 20
530.756520
 30
0.0
  0
LWPOLYLINE
  5
10d
100
AcDbEntity
  8
0
 62
7
100
AcDbPolyline
 90
6
 70
0
 10
515.698904
 20
14.850976
 30
0.0
 10
515.698904
 20
19.851296
 30
0.0
 10
520.455432
 20
21.396176
 30
0.0
 10
523.392128
 20
17.351136
 30
0.0
 10
520.455432
 20
13.306096
 30
0.0
 10
515.698904
 20
14.850976
 30
0.0
  0
LWPOLYLINE
  5
10e
100
AcDbEntity
  8
0
 62
7
100
AcDbPolyline
 90
6
 70
0
 10
515.698904
 20
298.315576
 30
0.0
 10
515.698904
 20
303.315896
 30
0.0
 10
520.455432
 20
304.860776
 30
0.0
 10
523.392128
 20
300.815736
 30
0.0
 10
520.455432
 20
296.770696
 30
0.0
 10
515.698904
 20
298.315576
 30
0.0
  0
LWPOLYLINE
  5
10f
100
AcDbEntity
  8
0
 62
7
100
AcDbPolyline
 90
6
 70
0
 10
784.990240
 20
14.850976
 30
0.0
 10
784.990240
 20
19.851296
 30
0.0
 10
789.746776
 20
21.396176
 30
0.0
 10
792.683464
 20
17.351136
 30
0.0
 10
789.746776
 20
13.306096
 30
0.0
 10
784.990240
 20
14.850976
 30
0.0
  0
LWPOLYLINE
  5
110
100
AcDbEntity
  8
0
 62
7
100
AcDbPolyline
 90
6
 70
0
 10
784.990240
 20
247.291952
 30
0.0
 10
784.990240
 20
252.292272
 30
0.0
 10
789.746776
 20
253.837152
 30
0.0
 10
792.683464
 20
249.792112
 30
0.0
 10
789.746776
 20
245.747072
 30
0.0
 10
784.990240
 20
247.291952
 30
0.0
  0
LWPOLYLINE
  5
111
100
AcDbEntity
  8
0
 62
7
100
AcDbPolyline
 90
6
 70
0
 10
784.990240
 20
298.315576
 30
0.0
 10
784.990240
 20
303.315896
 30
0.0
 10
789.746776
 20
304.860776
 30
0.0
 10
792.683464
 20
300.815736
 30
0.0
 10
789.746776
 20
296.770696
 30
0.0
 10
784.990240
 20
298.315576
 30
0.0
  0
LWPOLYLINE
  5
112
100
AcDbEntity
  8
0
 62
7
100
AcDbPolyline
 90
6
 70
0
 10
784.990240
 20
530.756520
 30
0.0
 10
784.990240
 20
535.756840
 30
0.0
 10
789.746776
 20
537.301720
 30
0.0
 10
792.683464
 20
533.256680
 30
0.0
 10
789.746776
 20
529.211640
 30
0.0
 10
784.990240
 20
530.756520
 30
0.0
  0
LWPOLYLINE
  5
113
100
AcDbEntity
  8
0
 62
7
100
AcDbPolyline
 90
25
 70
0
 10
850.793704
 20
17.351136
 30
0.0
 10
850.793704
 20
249.792112
 30
0.0
 10
851.714960
 20
255.314000
 30
0.0
 10
854.379528
 20
260.237784
 30
0.0
 10
858.498272
 20
264.030536
 30
0.0
 10
863.626144
 20
266.278408
 30
0.0
 10
869.204728
 20
266.743296
 30
0.0
 10
1637.422088
 20
266.743296
 30
0.0
 10
1643.000648
 20
266.278408
 30
0.0
 10
1648.128488
 20
264.030536
 30
0.0
 10
1652.247208
 20
260.237784
 30
0.0
 10
1654.911848
 20
255.314000
 30
0.0
 10
1655.833048
 20
249.792112
 30
0.0
 10
1655.833048
 20
17.351136
 30
0.0
 10
1654.911848
 20
11.829296
 30
0.0
 10
1652.247208
 20
6.905536
 30
0.0
 10
1648.128488
 20
3.112736
 30
0.0
 10
1643.000648
 20
0.864896
 30
0.0
 10
1637.422088
 20
0.400016
 30
0.0
 10
869.204728
 20
0.400016
 30
0.0
 10
863.626144
 20
0.864896
 30
0.0
 10
858.498272
 20
3.112736
 30
0.0
 10
854.379528
 20
6.905536
 30
0.0
 10
851.714960
 20
11.829296
 30
0.0
 10
850.793704
 20
17.351136
 30
0.0
  0
LWPOLYLINE
  5
114
100
AcDbEntity
  8
0
 62
7
100
AcDbPolyline
 90
25
 70
0
 10
850.793704
 20
300.815736
 30
0.0
 10
850.793704
 20
533.256680
 30
0.0
 10
851.714960
 20
538.778568
 30
0.0
 10
854.379528
 20
543.702352
 30
0.0
 10
858.498272
 20
547.495104
 30
0.0
 10
863.626144
 20
549.742976
 30
0.0
 10
869.204728
 20
550.207864
 30
0.0
 10
1637.422088
 20
550.207864
 30
0.0
 10
1643.000648
 20
549.742976
 30
0.0
 10
1648.128488
 20
547.495104
 30
0.0
 10
1652.247208
 20
543.702352
 30
0.0
 10
1654.911848
 20
538.778568
 30
0.0
 10
1655.833048
 20
533.256680
 30
0.0
 10
1655.833048
 20
300.815736
 30
0.0
 10
1654.911848
 20
295.293848
 30
0.0
 10
1652.247208
 20
290.370064
 30
0.0
 10
1648.128488
 20
286.577312
 30
0.0
 10
1643.000648
 20
284.329432
 30
0.0
 10
1637.422088
 20
283.864552
 30
0.0
 10
869.204728
 20
283.864552
 30
0.0
 10
863.626144
 20
284.329432
 30
0.0
 10
858.498272
 20
286.577312
 30
0.0
 10
854.379528
 20
290.370064
 30
0.0
 10
851.714960
 20
295.293848
 30
0.0
 10
850.793704
 20
300.815736
 30
0.0
  0
LWPOLYLINE
  5
115
100
AcDbEntity
  8
0
 62
7
100
AcDbPolyline
 90
6
 70
0
 10
863.549608
 20
17.351136
 30
0.0
 10
866.486304
 20
21.396176
 30
0.0
 10
871.242840
 20
19.851296
 30
0.0
 10
871.242840
 20
14.850976
 30
0.0
 10
866.486304
 20
13.306096
 30
0.0
 10
863.549608
 20
17.351136
 30
0.0
  0
LWPOLYLINE
  5
116
100
AcDbEntity
  8
0
 62
7
100
AcDbPolyline
 90
6
 70
0
 10
863.549608
 20
249.792112
 30
0.0
 10
866.486304
 20
253.837152
 30
0.0
 10
871.242840
 20
252.292272
 30
0.0
 10
871.242840
 20
247.291952
 30
0.0
 10
866.486304
 20
245.747072
 30
0.0
 10
863.549608
 20
249.792112
 30
0.0
  0
LWPOLYLINE
  5
117
100
AcDbEntity
  8
0
 62
7
100
AcDbPolyline
 90
6
 70
0
 10
863.549608
 20
300.815736
 30
0.0
 10
866.486304
 20
304.860776
 30
0.0
 10
871.242840
 20
303.315896
 30
0.0
 10
871.242840
 20
298.315576
 30
0.0
 10
866.486304
 20
296.770696
 30
0.0
 10
863.549608
 20
300.815736
 30
0.0
  0
LWPOLYLINE
  5
118
100
AcDbEntity
  8
0
 62
7
100
AcDbPolyline
 90
6
 70
0
 10
863.549608
 20
533.256680
 30
0.0
 10
866.486304
 20
537.301720
 30
0.0
 10
871.242840
 20
535.756840
 30
0.0
 10
871.242840
 20
530.756520
 30
0.0
 10
866.486304
 20
529.211640
 30
0.0
 10
863.549608
 20
533.256680
 30
0.0
  0
LWPOLYLINE
  5
119
100
AcDbEntity
  8
0
 62
7
100
AcDbPolyline
 90
21
 70
0
 10
881.130080
 20
319.226760
 30
0.0
 10
881.130080
 20
329.150856
 30
0.0
 10
883.434648
 20
329.150856
 30
0.0
 10
883.434648
 20
343.346760
 30
0.0
 10
881.130080
 20
343.346760
 30
0.0
 10
881.130080
 20
353.270856
 30
0.0
 10
883.434648
 20
353.270856
 30
0.0
 10
883.434648
 20
356.048808
 30
0.0
 10
923.034648
 20
356.048808
 30
0.0
 10
923.034648
 20
353.270856
 30
0.0
 10
925.339216
 20
353.270856
 30
0.0
 10
925.339216
 20
343.346760
 30
0.0
 10
923.034648
 20
343.346760
 30
0.0
 10
923.034648
 20
329.150856
 30
0.0
 10
925.339216
 20
329.150856
 30
0.0
 10
925.339216
 20
319.226760
 30
0.0
 10
923.034648
 20
319.226760
 30
0.0
 10
923.034648
 20
316.448808
 30
0.0
 10
883.434648
 20
316.448808
 30
0.0
 10
883.434648
 20
319.226760
 30
0.0
 10
881.130080
 20
319.226760
 30
0.0
  0
LWPOLYLINE
  5
11a
100
AcDbEntity
  8
0
 62
7
100
AcDbPolyline
 90
21
 70
0
 10
881.130080
 20
373.085024
 30
0.0
 10
881.130080
 20
383.009120
 30
0.0
 10
883.434648
 20
383.009120
 30
0.0
 10
883.434648
 20
397.205024
 30
0.0
 10
881.130080
 20
397.205024
 30
0.0
 10
881.130080
 20
407.129120
 30
0.0
 10
883.434648
 20
407.129120
 30
0.0
 10
883.434648
 20
409.907072
 30
0.0
 10
923.034648
 20
409.907072
 30
0.0
 10
923.034648
 20
407.129120
 30
0.0
 10
925.339216
 20
407.129120
 30
0.0
 10
925.339216
 20
397.205024
 30
0.0
 10
923.034648
 20
397.205024
 30
0.0
 10
923.034648
 20
383.009120
 30
0.0
 10
925.339216
 20
383.009120
 30
0.0
 10
925.339216
 20
373.085024
 30
0.0
 10
923.034648
 20
373.085024
 30
0.0
 10
923.034648
 20
370.307072
 30
0.0
 10
883.434648
 20
370.307072
 30
0.0
 10
883.434648
 20
373.085024
 30
0.0
 10
881.130080
 20
373.085024
 30
0.0
  0
LWPOLYLINE
  5
11b
100
AcDbEntity
  8
0
 62
7
100
AcDbPolyline
 90
21
 70
0
 10
881.130080
 20
426.943296
 30
0.0
 10
881.130080
 20
436.867392
 30
0.0
 10
883.434648
 20
436.867392
 30
0.0
 10
883.434648
 20
451.063296
 30
0.0
 10
881.130080
 20
451.063296
 30
0.0
 10
881.130080
 20
460.987392
 30
0.0
 10
883.434648
 20
460.987392
 30
0.0
 10
883.434648
 20
463.765344
 30
0.0
 10
923.034648
 20
463.765344
 30
0.0
 10
923.034648
 20
460.987392
 30
0.0
 10
925.339216
 20
460.987392
 30
0.0
 10
925.339216
 20
451.063296
 30
0.0
 10
923.034648
 20
451.063296
 30
0.0
 10
923.034648
 20
436.867392
 30
0.0
 10
925.339216
 20
436.867392
 30
0.0
 10
925.339216
 20
426.943296
 30
0.0
 10
923.034648
 20
426.943296
 30
0.0
 10
923.034648
 20
424.165344
 30
0.0
 10
883.434648
 20
424.165344
 30
0.0
 10
883.434648
 20
426.943296
 30
0.0
 10
881.130080
 20
426.943296
 30
0.0
  0
LWPOLYLINE
  5
11c
100
AcDbEntity
  8
0
 62
7
100
AcDbPolyline
 90
21
 70
0
 10
881.130080
 20
480.801560
 30
0.0
 10
881.130080
 20
490.725656
 30
0.0
 10
883.434648
 20
490.725656
 30
0.0
 10
883.434648
 20
504.921560
 30
0.0
 10
881.130080
 20
504.921560
 30
0.0
 10
881.130080
 20
514.845656
 30
0.0
 10
883.434648
 20
514.845656
 30
0.0
 10
883.434648
 20
517.623608
 30
0.0
 10
923.034648
 20
517.623608
 30
0.0
 10
923.034648
 20
514.845656
 30
0.0
 10
925.339216
 20
514.845656
 30
0.0
 10
925.339216
 20
504.921560
 30
0.0
 10
923.034648
 20
504.921560
 30
0.0
 10
923.034648
 20
490.725656
 30
0.0
 10
925.339216
 20
490.725656
 30
0.0
 10
925.339216
 20
480.801560
 30
0.0
 10
923.034648
 20
480.801560
 30
0.0
 10
923.034648
 20
478.023608
 30
0.0
 10
883.434648
 20
478.023608
 30
0.0
 10
883.434648
 20
480.801560
 30
0.0
 10
881.130080
 20
480.801560
 30
0.0
  0
LWPOLYLINE
  5
11d
100
AcDbEntity
  8
0
 62
7
100
AcDbPolyline
 90
9
 70
0
 10
883.392128
 20
32.941696
 30
0.0
 10
883.392128
 20
234.201560
 30
0.0
 10
1623.234648
 20
234.201560
 30
0.0
 10
1623.234648
 20
32.941696
 30
0.0
 10
1353.943288
 20
32.941696
 30
0.0
 10
1353.943288
 20
19.477136
 30
0.0
 10
1152.683464
 20
19.477136
 30
0.0
 10
1152.683464
 20
32.941696
 30
0.0
 10
883.392128
 20
32.941696
 30
0.0
  0
LWPOLYLINE
  5
11e
100
AcDbEntity
  8
0
 62
7
100
AcDbPolyline
 90
21
 70
0
 10
934.988352
 20
319.226760
 30
0.0
 10
934.988352
 20
329.150856
 30
0.0
 10
937.292920
 20
329.150856
 30
0.0
 10
937.292920
 20
343.346760
 30
0.0
 10
934.988352
 20
343.346760
 30
0.0
 10
934.988352
 20
353.270856
 30
0.0
 10
937.292920
 20
353.270856
 30
0.0
 10
937.292920
 20
356.048808
 30
0.0
 10
976.892920
 20
356.048808
 30
0.0
 10
976.892920
 20
353.270856
 30
0.0
 10
979.197480
 20
353.270856
 30
0.0
 10
979.197480
 20
343.346760
 30
0.0
 10
976.892920
 20
343.346760
 30
0.0
 10
976.892920
 20
329.150856
 30
0.0
 10
979.197480
 20
329.150856
 30
0.0
 10
979.197480
 20
319.226760
 30
0.0
 10
976.892920
 20
319.226760
 30
0.0
 10
976.892920
 20
316.448808
 30
0.0
 10
937.292920
 20
316.448808
 30
0.0
 10
937.292920
 20
319.226760
 30
0.0
 10
934.988352
 20
319.226760
 30
0.0
  0
LWPOLYLINE
  5
11f
100
AcDbEntity
  8
0
 62
7
100
AcDbPolyline
 90
21
 70
0
 10
934.988352
 20
373.085024
 30
0.0
 10
934.988352
 20
383.009120
 30
0.0
 10
937.292920
 20
383.009120
 30
0.0
 10
937.292920
 20
397.205024
 30
0.0
 10
934.988352
 20
397.205024
 30
0.0
 10
934.988352
 20
407.129120
 30
0.0
 10
937.292920
 20
407.129120
 30
0.0
 10
937.292920
 20
409.907072
 30
0.0
 10
976.892920
 20
409.907072
 30
0.0
 10
976.892920
 20
407.129120
 30
0.0
 10
979.197480
 20
407.129120
 30
0.0
 10
979.197480
 20
397.205024
 30
0.0
 10
976.892920
 20
397.205024
 30
0.0
 10
976.892920
 20
383.009120
 30
0.0
 10
979.197480
 20
383.009120
 30
0.0
 10
979.197480
 20
373.085024
 30
0.0
 10
976.892920
 20
373.085024
 30
0.0
 10
976.892920
 20
370.307072
 30
0.0
 10
937.292920
 20
370.307072
 30
0.0
 10
937.292920
 20
373.085024
 30
0.0
 10
934.988352
 20
373.085024
 30
0.0
  0
LWPOLYLINE
  5
120
100
AcDbEntity
  8
0
 62
7
100
AcDbPolyline
 90
21
 70
0
 10
934.988352
 20
426.943296
 30
0.0
 10
934.988352
 20
436.867392
 30
0.0
 10
937.292920
 20
436.867392
 30
0.0
 10
937.292920
 20
451.063296
 30
0.0
 10
934.988352
 20
451.063296
 30
0.0
 10
934.988352
 20
460.987392
 30
0.0
 10
937.292920
 20
460.987392
 30
0.0
 10
937.292920
 20
463.765344
 30
0.0
 10
976.892920
 20
463.765344
 30
0.0
 10
976.892920
 20
460.987392
 30
0.0
 10
979.197480
 20
460.987392
 30
0.0
 10
979.197480
 20
451.063296
 30
0.0
 10
976.892920
 20
451.063296
 30
0.0
 10
976.892920
 20
436.867392
 30
0.0
 10
979.197480
 20
436.867392
 30
0.0
 10
979.197480
 20
426.943296
 30
0.0
 10
976.892920
 20
426.943296
 30
0.0
 10
976.892920
 20
424.165344
 30
0.0
 10
937.292920
 20
424.165344
 30
0.0
 10
937.292920
 20
426.943296
 30
0.0
 10
934.988352
 20
426.943296
 30
0.0
  0
LWPOLYLINE
  5
121
100
AcDbEntity
  8
0
 62
7
100
AcDbPolyline
 90
21
 70
0
 10
934.988352
 20
480.801560
 30
0.0
 10
934.988352
 20
490.725656
 30
0.0
 10
937.292920
 20
490.725656
 30
0.0
 10
937.292920
 20
504.921560
 30
0.0
 10
934.988352
 20
504.921560
 30
0.0
 10
934.988352
 20
514.845656
 30
0.0
 10
937.292920
 20
514.845656
 30
0.0
 10
937.292920
 20
517.623608
 30
0.0
 10
976.892920
 20
517.623608
 30
0.0
 10
976.892920
 20
514.845656
 30
0.0
 10
979.197480
 20
514.845656
 30
0.0
 10
979.197480
 20
504.921560
 30
0.0
 10
976.892920
 20
504.921560
 30
0.0
 10
976.892920
 20
490.725656
 30
0.0
 10
979.197480
 20
490.725656
 30
0.0
 10
979.197480
 20
480.801560
 30
0.0
 10
976.892920
 20
480.801560
 30
0.0
 10
976.892920
 20
478.023608
 30
0.0
 10
937.292920
 20
478.023608
 30
0.0
 10
937.292920
 20
480.801560
 30
0.0
 10
934.988352
 20
480.801560
 30
0.0
  0
LWPOLYLINE
  5
122
100
AcDbEntity
  8
0
 62
7
100
AcDbPolyline
 90
21
 70
0
 10
988.846616
 20
319.226760
 30
0.0
 10
988.846616
 20
329.150856
 30
0.0
 10
991.151184
 20
329.150856
 30
0.0
 10
991.151184
 20
343.346760
 30
0.0
 10
988.846616
 20
343.346760
 30
0.0
 10
988.846616
 20
353.270856
 30
0.0
 10
991.151184
 20
353.270856
 30
0.0
 10
991.151184
 20
356.048808
 30
0.0
 10
1030.751184
 20
356.048808
 30
0.0
 10
1030.751184
 20
353.270856
 30
0.0
 10
1033.055752
 20
353.270856
 30
0.0
 10
1033.055752
 20
343.346760
 30
0.0
 10
1030.751184
 20
343.346760
 30
0.0
 10
1030.751184
 20
329.150856
 30
0.0
 10
1033.055752
 20
329.150856
 30
0.0
 10
1033.055752
 20
319.226760
 30
0.0
 10
1030.751184
 20
319.226760
 30
0.0
 10
1030.751184
 20
316.448808
 30
0.0
 10
991.151184
 20
316.448808
 30
0.0
 10
991.151184
 20
319.226760
 30
0.0
 10
988.846616
 20
319.226760
 30
0.0
  0
LWPOLYLINE
  5
123
100
AcDbEntity
  8
0
 62
7
100
AcDbPolyline
 90
21
 70
0
 10
988.846616
 20
373.085024
 30
0.0
 10
988.846616
 20
383.009120
 30
0.0
 10
991.151184
 20
383.009120
 30
0.0
 10
991.151184
 20
397.205024
 30
0.0
 10
988.846616
 20
397.205024
 30
0.0
 10
988.846616
 20
407.129120
 30
0.0
 10
991.151184
 20
407.129120
 30
0.0
 10
991.151184
 20
409.907072
 30
0.0
 10
1030.751184
 20
409.907072
 30
0.0
 10
1030.751184
 20
407.129120
 30
0.0
 10
1033.055752
 20
407.129120
 30
0.0
 10
1033.055752
 20
397.205024
 30
0.0
 10
1030.751184
 20
397.205024
 30
0.0
 10
1030.751184
 20
383.009120
 30
0.0
 10
1033.055752
 20
383.009120
 30
0.0
 10
1033.055752
 20
373.085024
 30
0.0
 10
1030.751184
 20
373.085024
 30
0.0
 10
1030.751184
 20
370.307072
 30
0.0
 10
991.151184
 20
370.307072
 30
0.0
 10
991.151184
 20
373.085024
 30
0.0
 10
988.846616
 20
373.085024
 30
0.0
  0
LWPOLYLINE
  5
124
100
AcDbEntity
  8
0
 62
7
100
AcDbPolyline
 90
21
 70
0
 10
988.846616
 20
426.943296
 30
0.0
 10
988.846616
 20
436.867392
 30
0.0
 10
991.151184
 20
436.867392
 30
0.0
 10
991.151184
 20
451.063296
 30
0.0
 10
988.846616
 20
451.063296
 30
0.0
 10
988.846616
 20
460.987392
 30
0.0
 10
991.151184
 20
460.987392
 30
0.0
 10
991.151184
 20
463.765344
 30
0.0
 10
1030.751184
 20
463.765344
 30
0.0
 10
1030.751184
 20
460.987392
 30
0.0
 10
1033.055752
 20
460.987392
 30
0.0
 10
1033.055752
 20
451.063296
 30
0.0
 10
1030.751184
 20
451.063296
 30
0.0
 10
1030.751184
 20
436.867392
 30
0.0
 10
1033.055752
 20
436.867392
 30
0.0
 10
1033.055752
 20
426.943296
 30
0.0
 10
1030.751184
 20
426.943296
 30
0.0
 10
1030.751184
 20
424.165344
 30
0.0
 10
991.151184
 20
424.165344
 30
0.0
 10
991.151184
 20
426.943296
 30
0.0
 10
988.846616
 20
426.943296
 30
0.0
  0
LWPOLYLINE
  5
125
100
AcDbEntity
  8
0
 62
7
100
AcDbPolyline
 90
21
 70
0
 10
988.846616
 20
480.801560
 30
0.0
 10
988.846616
 20
490.725656
 30
0.0
 10
991.151184
 20
490.725656
 30
0.0
 10
991.151184
 20
504.921560
 30
0.0
 10
988.846616
 20
504.921560
 30
0.0
 10
988.846616
 20
514.845656
 30
0.0
 10
991.151184
 20
514.845656
 30
0.0
 10
991.151184
 20
517.623608
 30
0.0
 10
1030.751184
 20
517.623608
 30
0.0
 10
1030.751184
 20
514.845656
 30
0.0
 10
1033.055752
 20
514.845656
 30
0.0
 10
1033.055752
 20
504.921560
 30
0.0
 10
1030.751184
 20
504.921560
 30
0.0
 10
1030.751184
 20
490.725656
 30
0.0
 10
1033.055752
 20
490.725656
 30
0.0
 10
1033.055752
 20
480.801560
 30
0.0
 10
1030.751184
 20
480.801560
 30
0.0
 10
1030.751184
 20
478.023608
 30
0.0
 10
991.151184
 20
478.023608
 30
0.0
 10
991.151184
 20
480.801560
 30
0.0
 10
988.846616
 20
480.801560
 30
0.0
  0
LWPOLYLINE
  5
126
100
AcDbEntity
  8
0
 62
7
100
AcDbPolyline
 90
21
 70
0
 10
1042.704888
 20
319.226760
 30
0.0
 10
1042.704888
 20
329.150856
 30
0.0
 10
1045.009456
 20
329.150856
 30
0.0
 10
1045.009456
 20
343.346760
 30
0.0
 10
1042.704888
 20
343.346760
 30
0.0
 10
1042.704888
 20
353.270856
 30
0.0
 10
1045.009456
 20
353.270856
 30
0.0
 10
1045.009456
 20
356.048808
 30
0.0
 10
1084.609456
 20
356.048808
 30
0.0
 10
1084.609456
 20
353.270856
 30
0.0
 10
1086.914016
 20
353.270856
 30
0.0
 10
1086.914016
 20
343.346760
 30
0.0
 10
1084.609456
 20
343.346760
 30
0.0
 10
1084.609456
 20
329.150856
 30
0.0
 10
1086.914016
 20
329.150856
 30
0.0
 10
1086.914016
 20
319.226760
 30
0.0
 10
1084.609456
 20
319.226760
 30
0.0
 10
1084.609456
 20
316.448808
 30
0.0
 10
1045.009456
 20
316.448808
 30
0.0
 10
1045.009456
 20
319.226760
 30
0.0
 10
1042.704888
 20
319.226760
 30
0.0
  0
LWPOLYLINE
  5
127
100
AcDbEntity
  8
0
 62
7
100
AcDbPolyline
 90
21
 70
0
 10
1042.704888
 20
373.085024
 30
0.0
 10
1042.704888
 20
383.009120
 30
0.0
 10
1045.009456
 20
383.009120
 30
0.0
 10
1045.009456
 20
397.205024
 30
0.0
 10
1042.704888
 20
397.205024
 30
0.0
 10
1042.704888
 20
407.129120
 30
0.0
 10
1045.009456
 20
407.129120
 30
0.0
 10
1045.009456
 20
409.907072
 30
0.0
 10
1084.609456
 20
409.907072
 30
0.0
 10
1084.609456
 20
407.129120
 30
0.0
 10
1086.914016
 20
407.129120
 30
0.0
 10
1086.914016
 20
397.205024
 30
0.0
 10
1084.609456
 20
397.205024
 30
0.0
 10
1084.609456
 20
383.009120
 30
0.0
 10
1086.914016
 20
383.009120
 30
0.0
 10
1086.914016
 20
373.085024
 30
0.0
 10
1084.609456
 20
373.085024
 30
0.0
 10
1084.609456
 20
370.307072
 30
0.0
 10
1045.009456
 20
370.307072
 30
0.0
 10
1045.009456
 20
373.085024
 30
0.0
 10
1042.704888
 20
373.085024
 30
0.0
  0
LWPOLYLINE
  5
128
100
AcDbEntity
  8
0
 62
7
100
AcDbPolyline
 90
21
 70
0
 10
1042.704888
 20
426.943296
 30
0.0
 10
1042.704888
 20
436.867392
 30
0.0
 10
1045.009456
 20
436.867392
 30
0.0
 10
1045.009456
 20
451.063296
 30
0.0
 10
1042.704888
 20
451.063296
 30
0.0
 10
1042.704888
 20
460.987392
 30
0.0
 10
1045.009456
 20
460.987392
 30
0.0
 10
1045.009456
 20
463.765344
 30
0.0
 10
1084.609456
 20
463.765344
 30
0.0
 10
1084.609456
 20
460.987392
 30
0.0
 10
1086.914016
 20
460.987392
 30
0.0
 10
1086.914016
 20
451.063296
 30
0.0
 10
1084.609456
 20
451.063296
 30
0.0
 10
1084.609456
 20
436.867392
 30
0.0
 10
1086.914016
 20
436.867392
 30
0.0
 10
1086.914016
 20
426.943296
 30
0.0
 10
1084.609456
 20
426.943296
 30
0.0
 10
1084.609456
 20
424.165344
 30
0.0
 10
1045.009456
 20
424.165344
 30
0.0
 10
1045.009456
 20
426.943296
 30
0.0
 10
1042.704888
 20
426.943296
 30
0.0
  0
LWPOLYLINE
  5
129
100
AcDbEntity
  8
0
 62
7
100
AcDbPolyline
 90
21
 70
0
 10
1042.704888
 20
480.801560
 30
0.0
 10
1042.704888
 20
490.725656
 30
0.0
 10
1045.009456
 20
490.725656
 30
0.0
 10
1045.009456
 20
504.921560
 30
0.0
 10
1042.704888
 20
504.921560
 30
0.0
 10
1042.704888
 20
514.845656
 30
0.0
 10
1045.009456
 20
514.845656
 30
0.0
 10
1045.009456
 20
517.623608
 30
0.0
 10
1084.609456
 20
517.623608
 30
0.0
 10
1084.609456
 20
514.845656
 30
0.0
 10
1086.914016
 20
514.845656
 30
0.0
 10
1086.914016
 20
504.921560
 30
0.0
 10
1084.609456
 20
504.921560
 30
0.0
 10
1084.609456
 20
490.725656
 30
0.0
 10
1086.914016
 20
490.725656
 30
0.0
 10
1086.914016
 20
480.801560
 30
0.0
 10
1084.609456
 20
480.801560
 30
0.0
 10
1084.609456
 20
478.023608
 30
0.0
 10
1045.009456
 20
478.023608
 30
0.0
 10
1045.009456
 20
480.801560
 30
0.0
 10
1042.704888
 20
480.801560
 30
0.0
  0
LWPOLYLINE
  5
12a
100
AcDbEntity
  8
0
 62
7
100
AcDbPolyline
 90
21
 70
0
 10
1096.563152
 20
319.226760
 30
0.0
 10
1096.563152
 20
329.150856
 30
0.0
 10
1098.867720
 20
329.150856
 30
0.0
 10
1098.867720
 20
343.346760
 30
0.0
 10
1096.563152
 20
343.346760
 30
0.0
 10
1096.563152
 20
353.270856
 30
0.0
 10
1098.867720
 20
353.270856
 30
0.0
 10
1098.867720
 20
356.048808
 30
0.0
 10
1138.467720
 20
356.048808
 30
0.0
 10
1138.467720
 20
353.270856
 30
0.0
 10
1140.772288
 20
353.270856
 30
0.0
 10
1140.772288
 20
343.346760
 30
0.0
 10
1138.467720
 20
343.346760
 30
0.0
 10
1138.467720
 20
329.150856
 30
0.0
 10
1140.772288
 20
329.150856
 30
0.0
 10
1140.772288
 20
319.226760
 30
0.0
 10
1138.467720
 20
319.226760
 30
0.0
 10
1138.467720
 20
316.448808
 30
0.0
 10
1098.867720
 20
316.448808
 30
0.0
 10
1098.867720
 20
319.226760
 30
0.0
 10
1096.563152
 20
319.226760
 30
0.0
  0
LWPOLYLINE
  5
12b
100
AcDbEntity
  8
0
 62
7
100
AcDbPolyline
 90
21
 70
0
 10
1096.563152
 20
373.085024
 30
0.0
 10
1096.563152
 20
383.009120
 30
0.0
 10
1098.867720
 20
383.009120
 30
0.0
 10
1098.867720
 20
397.205024
 30
0.0
 10
1096.563152
 20
397.205024
 30
0.0
 10
1096.563152
 20
407.129120
 30
0.0
 10
1098.867720
 20
407.129120
 30
0.0
 10
1098.867720
 20
409.907072
 30
0.0
 10
1138.467720
 20
409.907072
 30
0.0
 10
1138.467720
 20
407.129120
 30
0.0
 10
1140.772288
 20
407.129120
 30
0.0
 10
1140.772288
 20
397.205024
 30
0.0
 10
1138.467720
 20
397.205024
 30
0.0
 10
1138.467720
 20
383.009120
 30
0.0
 10
1140.772288
 20
383.009120
 30
0.0
 10
1140.772288
 20
373.085024
 30
0.0
 10
1138.467720
 20
373.085024
 30
0.0
 10
1138.467720
 20
370.307072
 30
0.0
 10
1098.867720
 20
370.307072
 30
0.0
 10
1098.867720
 20
373.085024
 30
0.0
 10
1096.563152
 20
373.085024
 30
0.0
  0
LWPOLYLINE
  5
12c
100
AcDbEntity
  8
0
 62
7
100
AcDbPolyline
 90
21
 70
0
 10
1096.563152
 20
426.943296
 30
0.0
 10
1096.563152
 20
436.867392
 30
0.0
 10
1098.867720
 20
436.867392
 30
0.0
 10
1098.867720
 20
451.063296
 30
0.0
 10
1096.563152
 20
451.063296
 30
0.0
 10
1096.563152
 20
460.987392
 30
0.0
 10
1098.867720
 20
460.987392
 30
0.0
 10
1098.867720
 20
463.765344
 30
0.0
 10
1138.467720
 20
463.765344
 30
0.0
 10
1138.467720
 20
460.987392
 30
0.0
 10
1140.772288
 20
460.987392
 30
0.0
 10
1140.772288
 20
451.063296
 30
0.0
 10
1138.467720
 20
451.063296
 30
0.0
 10
1138.467720
 20
436.867392
 30
0.0
 10
1140.772288
 20
436.867392
 30
0.0
 10
1140.772288
 20
426.943296
 30
0.0
 10
1138.467720
 20
426.943296
 30
0.0
 10
1138.467720
 20
424.165344
 30
0.0
 10
1098.867720
 20
424.165344
 30
0.0
 10
1098.867720
 20
426.943296
 30
0.0
 10
1096.563152
 20
426.943296
 30
0.0
  0
LWPOLYLINE
  5
12d
100
AcDbEntity
  8
0
 62
7
100
AcDbPolyline
 90
21
 70
0
 10
1096.563152
 20
480.801560
 30
0.0
 10
1096.563152
 20
490.725656
 30
0.0
 10
1098.867720
 20
490.725656
 30
0.0
 10
1098.867720
 20
504.921560
 30
0.0
 10
1096.563152
 20
504.921560
 30
0.0
 10
1096.563152
 20
514.845656
 30
0.0
 10
1098.867720
 20
514.845656
 30
0.0
 10
1098.867720
 20
517.623608
 30
0.0
 10
1138.467720
 20
517.623608
 30
0.0
 10
1138.467720
 20
514.845656
 30
0.0
 10
1140.772288
 20
514.845656
 30
0.0
 10
1140.772288
 20
504.921560
 30
0.0
 10
1138.467720
 20
504.921560
 30
0.0
 10
1138.467720
 20
490.725656
 30
0.0
 10
1140.772288
 20
490.725656
 30
0.0
 10
1140.772288
 20
480.801560
 30
0.0
 10
1138.467720
 20
480.801560
 30
0.0
 10
1138.467720
 20
478.023608
 30
0.0
 10
1098.867720
 20
478.023608
 30
0.0
 10
1098.867720
 20
480.801560
 30
0.0
 10
1096.563152
 20
480.801560
 30
0.0
  0
LWPOLYLINE
  5
12e
100
AcDbEntity
  8
0
 62
7
100
AcDbPolyline
 90
6
 70
0
 10
1132.840944
 20
17.351136
 30
0.0
 10
1135.777640
 20
21.396176
 30
0.0
 10
1140.534176
 20
19.851296
 30
0.0
 10
1140.534176
 20
14.850976
 30
0.0
 10
1135.777640
 20
13.306096
 30
0.0
 10
1132.840944
 20
17.351136
 30
0.0
  0
LWPOLYLINE
  5
12f
100
AcDbEntity
  8
0
 62
7
100
AcDbPolyline
 90
6
 70
0
 10
1132.840944
 20
300.815736
 30
0.0
 10
1135.777640
 20
304.860776
 30
0.0
 10
1140.534176
 20
303.315896
 30
0.0
 10
1140.534176
 20
298.315576
 30
0.0
 10
1135.777640
 20
296.770696
 30
0.0
 10
1132.840944
 20
300.815736
 30
0.0
  0
LWPOLYLINE
  5
130
100
AcDbEntity
  8
0
 62
7
100
AcDbPolyline
 90
21
 70
0
 10
1150.421416
 20
305.762192
 30
0.0
 10
1150.421416
 20
315.686288
 30
0.0
 10
1152.725984
 20
315.686288
 30
0.0
 10
1152.725984
 20
329.882192
 30
0.0
 10
1150.421416
 20
329.882192
 30
0.0
 10
1150.421416
 20
339.806288
 30
0.0
 10
1152.725984
 20
339.806288
 30
0.0
 10
1152.725984
 20
342.584240
 30
0.0
 10
1192.325984
 20
342.584240
 30
0.0
 10
1192.325984
 20
339.806288
 30
0.0
 10
1194.630552
 20
339.806288
 30
0.0
 10
1194.630552
 20
329.882192
 30
0.0
 10
1192.325984
 20
329.882192
 30
0.0
 10
1192.325984
 20
315.686288
 30
0.0
 10
1194.630552
 20
315.686288
 30
0.0
 10
1194.630552
 20
305.762192
 30
0.0
 10
1192.325984
 20
305.762192
 30
0.0
 10
1192.325984
 20
302.984240
 30
0.0
 10
1152.725984
 20
302.984240
 30
0.0
 10
1152.725984
 20
305.762192
 30
0.0
 10
1150.421416
 20
305.762192
 30
0.0
  0
LWPOLYLINE
  5
131
100
AcDbEntity
  8
0
 62
7
100
AcDbPolyline
 90
21
 70
0
 10
1150.421416
 20
373.085024
 30
0.0
 10
1150.421416
 20
383.009120
 30
0.0
 10
1152.725984
 20
383.009120
 30
0.0
 10
1152.725984
 20
397.205024
 30
0.0
 10
1150.421416
 20
397.205024
 30
0.0
 10
1150.421416
 20
407.129120
 30
0.0
 10
1152.725984
 20
407.129120
 30
0.0
 10
1152.725984
 20
409.907072
 30
0.0
 10
1192.325984
 20
409.907072
 30
0.0
 10
1192.325984
 20
407.129120
 30
0.0
 10
1194.630552
 20
407.129120
 30
0.0
 10
1194.630552
 20
397.205024
 30
0.0
 10
1192.325984
 20
397.205024
 30
0.0
 10
1192.325984
 20
383.009120
 30
0.0
 10
1194.630552
 20
383.009120
 30
0.0
 10
1194.630552
 20
373.085024
 30
0.0
 10
1192.325984
 20
373.085024
 30
0.0
 10
1192.325984
 20
370.307072
 30
0.0
 10
1152.725984
 20
370.307072
 30
0.0
 10
1152.725984
 20
373.085024
 30
0.0
 10
1150.421416
 20
373.085024
 30
0.0
  0
LWPOLYLINE
  5
132
100
AcDbEntity
  8
0
 62
7
100
AcDbPolyline
 90
21
 70
0
 10
1150.421416
 20
426.943296
 30
0.0
 10
1150.421416
 20
436.867392
 30
0.0
 10
1152.725984
 20
436.867392
 30
0.0
 10
1152.725984
 20
451.063296
 30
0.0
 10
1150.421416
 20
451.063296
 30
0.0
 10
1150.421416
 20
460.987392
 30
0.0
 10
1152.725984
 20
460.987392
 30
0.0
 10
1152.725984
 20
463.765344
 30
0.0
 10
1192.325984
 20
463.765344
 30
0.0
 10
1192.325984
 20
460.987392
 30
0.0
 10
1194.630552
 20
460.987392
 30
0.0
 10
1194.630552
 20
451.063296
 30
0.0
 10
1192.325984
 20
451.063296
 30
0.0
 10
1192.325984
 20
436.867392
 30
0.0
 10
1194.630552
 20
436.867392
 30
0.0
 10
1194.630552
 20
426.943296
 30
0.0
 10
1192.325984
 20
426.943296
 30
0.0
 10
1192.325984
 20
424.165344
 30
0.0
 10
1152.725984
 20
424.165344
 30
0.0
 10
1152.725984
 20
426.943296
 30
0.0
 10
1150.421416
 20
426.943296
 30
0.0
  0
LWPOLYLINE
  5
133
100
AcDbEntity
  8
0
 62
7
100
AcDbPolyline
 90
21
 70
0
 10
1150.421416
 20
480.801560
 30
0.0
 10
1150.421416
 20
490.725656
 30
0.0
 10
1152.725984
 20
490.725656
 30
0.0
 10
1152.725984
 20
504.921560
 30
0.0
 10
1150.421416
 20
504.921560
 30
0.0
 10
1150.421416
 20
514.845656
 30
0.0
 10
1152.725984
 20
514.845656
 30
0.0
 10
1152.725984
 20
517.623608
 30
0.0
 10
1192.325984
 20
517.623608
 30
0.0
 10
1192.325984
 20
514.845656
 30
0.0
 10
1194.630552
 20
514.845656
 30
0.0
 10
1194.630552
 20
504.921560
 30
0.0
 10
1192.325984
 20
504.921560
 30
0.0
 10
1192.325984
 20
490.725656
 30
0.0
 10
1194.630552
 20
490.725656
 30
0.0
 10
1194.630552
 20
480.801560
 30
0.0
 10
1192.325984
 20
480.801560
 30
0.0
 10
1192.325984
 20
478.023608
 30
0.0
 10
1152.725984
 20
478.023608
 30
0.0
 10
1152.725984
 20
480.801560
 30
0.0
 10
1150.421416
 20
480.801560
 30
0.0
  0
LWPOLYLINE
  5
134
100
AcDbEntity
  8
0
 62
7
100
AcDbPolyline
 90
21
 70
0
 10
1204.279688
 20
305.762192
 30
0.0
 10
1204.279688
 20
315.686288
 30
0.0
 10
1206.584248
 20
315.686288
 30
0.0
 10
1206.584248
 20
329.882192
 30
0.0
 10
1204.279688
 20
329.882192
 30
0.0
 10
1204.279688
 20
339.806288
 30
0.0
 10
1206.584248
 20
339.806288
 30
0.0
 10
1206.584248
 20
342.584240
 30
0.0
 10
1246.184248
 20
342.584240
 30
0.0
 10
1246.184248
 20
339.806288
 30
0.0
 10
1248.488808
 20
339.806288
 30
0.0
 10
1248.488808
 20
329.882192
 30
0.0
 10
1246.184248
 20
329.882192
 30
0.0
 10
1246.184248
 20
315.686288
 30
0.0
 10
1248.488808
 20
315.686288
 30
0.0
 10
1248.488808
 20
305.762192
 30
0.0
 10
1246.184248
 20
305.762192
 30
0.0
 10
1246.184248
 20
302.984240
 30
0.0
 10
1206.584248
 20
302.984240
 30
0.0
 10
1206.584248
 20
305.762192
 30
0.0
 10
1204.279688
 20
305.762192
 30
0.0
  0
LWPOLYLINE
  5
135
100
AcDbEntity
  8
0
 62
7
100
AcDbPolyline
 90
6
 70
0
 10
1217.880328
 20
249.792112
 30
0.0
 10
1220.817048
 20
253.837152
 30
0.0
 10
1225.573528
 20
252.292272
 30
0.0
 10
1225.573528
 20
247.291952
 30
0.0
 10
1220.817048
 20
245.747072
 30
0.0
 10
1217.880328
 20
249.792112
 30
0.0
  0
LWPOLYLINE
  5
136
100
AcDbEntity
  8
0
 62
7
100
AcDbPolyline
 90
6
 70
0
 10
1217.880328
 20
533.256680
 30
0.0
 10
1220.817048
 20
537.301720
 30
0.0
 10
1225.573528
 20
535.756840
 30
0.0
 10
1225.573528
 20
530.756520
 30
0.0
 10
1220.817048
 20
529.211640
 30
0.0
 10
1217.880328
 20
533.256680
 30
0.0
  0
LWPOLYLINE
  5
137
100
AcDbEntity
  8
0
 62
7
100
AcDbPolyline
 90
21
 70
0
 10
1258.137928
 20
305.762192
 30
0.0
 10
1258.137928
 20
315.686288
 30
0.0
 10
1260.442488
 20
315.686288
 30
0.0
 10
1260.442488
 20
329.882192
 30
0.0
 10
1258.137928
 20
329.882192
 30
0.0
 10
1258.137928
 20
339.806288
 30
0.0
 10
1260.442488
 20
339.806288
 30
0.0
 10
1260.442488
 20
342.584240
 30
0.0
 10
1300.042488
 20
342.584240
 30
0.0
 10
1300.042488
 20
339.806288
 30
0.0
 10
1302.347128
 20
339.806288
 30
0.0
 10
1302.347128
 20
329.882192
 30
0.0
 10
1300.042488
 20
329.882192
 30
0.0
 10
1300.042488
 20
315.686288
 30
0.0
 10
1302.347128
 20
315.686288
 30
0.0
 10
1302.347128
 20
305.762192
 30
0.0
 10
1300.042488
 20
305.762192
 30
0.0
 10
1300.042488
 20
302.984240
 30
0.0
 10
1260.442488
 20
302.984240
 30
0.0
 10
1260.442488
 20
305.762192
 30
0.0
 10
1258.137928
 20
305.762192
 30
0.0
  0
LWPOLYLINE
  5
138
100
AcDbEntity
  8
0
 62
7
100
AcDbPolyline
 90
6
 70
0
 10
1281.053208
 20
247.291952
 30
0.0
 10
1281.053208
 20
252.292272
 30
0.0
 10
1285.809768
 20
253.837152
 30
0.0
 10
1288.746488
 20
249.792112
 30
0.0
 10
1285.809768
 20
245.747072
 30
0.0
 10
1281.053208
 20
247.291952
 30
0.0
  0
LWPOLYLINE
  5
139
100
AcDbEntity
  8
0
 62
7
100
AcDbPolyline
 90
6
 70
0
 10
1281.053208
 20
530.756520
 30
0.0
 10
1281.053208
 20
535.756840
 30
0.0
 10
1285.809768
 20
537.301720
 30
0.0
 10
1288.746488
 20
533.256680
 30
0.0
 10
1285.809768
 20
529.211640
 30
0.0
 10
1281.053208
 20
530.756520
 30
0.0
  0
LWPOLYLINE
  5
13a
100
AcDbEntity
  8
0
 62
7
100
AcDbPolyline
 90
21
 70
0
 10
1311.996248
 20
305.762192
 30
0.0
 10
1311.996248
 20
315.686288
 30
0.0
 10
1314.300808
 20
315.686288
 30
0.0
 10
1314.300808
 20
329.882192
 30
0.0
 10
1311.996248
 20
329.882192
 30
0.0
 10
1311.996248
 20
339.806288
 30
0.0
 10
1314.300808
 20
339.806288
 30
0.0
 10
1314.300808
 20
342.584240
 30
0.0
 10
1353.900808
 20
342.584240
 30
0.0
 10
1353.900808
 20
339.806288
 30
0.0
 10
1356.205368
 20
339.806288
 30
0.0
 10
1356.205368
 20
329.882192
 30
0.0
 10
1353.900808
 20
329.882192
 30
0.0
 10
1353.900808
 20
315.686288
 30
0.0
 10
1356.205368
 20
315.686288
 30
0.0
 10
1356.205368
 20
305.762192
 30
0.0
 10
1353.900808
 20
305.762192
 30
0.0
 10
1353.900808
 20
302.984240
 30
0.0
 10
1314.300808
 20
302.984240
 30
0.0
 10
1314.300808
 20
305.762192
 30
0.0
 10
1311.996248
 20
305.762192
 30
0.0
  0
LWPOLYLINE
  5
13b
100
AcDbEntity
  8
0
 62
7
100
AcDbPolyline
 90
21
 70
0
 10
1311.996248
 20
373.085024
 30
0.0
 10
1311.996248
 20
383.009120
 30
0.0
 10
1314.300808
 20
383.009120
 30
0.0
 10
1314.300808
 20
397.205024
 30
0.0
 10
1311.996248
 20
397.205024
 30
0.0
 10
1311.996248
 20
407.129120
 30
0.0
 10
1314.300808
 20
407.129120
 30
0.0
 10
1314.300808
 20
409.907072
 30
0.0
 10
1353.900808
 20
409.907072
 30
0.0
 10
1353.900808
 20
407.129120
 30
0.0
 10
1356.205368
 20
407.129120
 30
0.0
 10
1356.205368
 20
397.205024
 30
0.0
 10
1353.900808
 20
397.205024
 30
0.0
 10
1353.900808
 20
383.009120
 30
0.0
 10
1356.205368
 20
383.009120
 30
0.0
 10
1356.205368
 20
373.085024
 30
0.0
 10
1353.900808
 20
373.085024
 30
0.0
 10
1353.900808
 20
370.307072
 30
0.0
 10
1314.300808
 20
370.307072
 30
0.0
 10
1314.300808
 20
373.085024
 30
0.0
 10
1311.996248
 20
373.085024
 30
0.0
  0
LWPOLYLINE
  5
13c
100
AcDbEntity
  8
0
 62
7
100
AcDbPolyline
 90
21
 70
0
 10
1311.996248
 20
426.943296
 30
0.0
 10
1311.996248
 20
436.867392
 30
0.0
 10
1314.300808
 20
436.867392
 30
0.0
 10
1314.300808
 20
451.063296
 30
0.0
 10
1311.996248
 20
451.063296
 30
0.0
 10
1311.996248
 20
460.987392
 30
0.0
 10
1314.300808
 20
460.987392
 30
0.0
 10
1314.300808
 20
463.765344
 30
0.0
 10
1353.900808
 20
463.765344
 30
0.0
 10
1353.900808
 20
460.987392
 30
0.0
 10
1356.205368
 20
460.987392
 30
0.0
 10
1356.205368
 20
451.063296
 30
0.0
 10
1353.900808
 20
451.063296
 30
0.0
 10
1353.900808
 20
436.867392
 30
0.0
 10
1356.205368
 20
436.867392
 30
0.0
 10
1356.205368
 20
426.943296
 30
0.0
 10
1353.900808
 20
426.943296
 30
0.0
 10
1353.900808
 20
424.165344
 30
0.0
 10
1314.300808
 20
424.165344
 30
0.0
 10
1314.300808
 20
426.943296
 30
0.0
 10
1311.996248
 20
426.943296
 30
0.0
  0
LWPOLYLINE
  5
13d
100
AcDbEntity
  8
0
 62
7
100
AcDbPolyline
 90
21
 70
0
 10
1311.996248
 20
480.801560
 30
0.0
 10
1311.996248
 20
490.725656
 30
0.0
 10
1314.300808
 20
490.725656
 30
0.0
 10
1314.300808
 20
504.921560
 30
0.0
 10
1311.996248
 20
504.921560
 30
0.0
 10
1311.996248
 20
514.845656
 30
0.0
 10
1314.300808
 20
514.845656
 30
0.0
 10
1314.300808
 20
517.623608
 30
0.0
 10
1353.900808
 20
517.623608
 30
0.0
 10
1353.900808
 20
514.845656
 30
0.0
 10
1356.205368
 20
514.845656
 30
0.0
 10
1356.205368
 20
504.921560
 30
0.0
 10
1353.900808
 20
504.921560
 30
0.0
 10
1353.900808
 20
490.725656
 30
0.0
 10
1356.205368
 20
490.725656
 30
0.0
 10
1356.205368
 20
480.801560
 30
0.0
 10
1353.900808
 20
480.801560
 30
0.0
 10
1353.900808
 20
478.023608
 30
0.0
 10
1314.300808
 20
478.023608
 30
0.0
 10
1314.300808
 20
480.801560
 30
0.0
 10
1311.996248
 20
480.801560
 30
0.0
  0
LWPOLYLINE
  5
13e
100
AcDbEntity
  8
0
 62
7
100
AcDbPolyline
 90
21
 70
0
 10
1365.854488
 20
319.226760
 30
0.0
 10
1365.854488
 20
329.150856
 30
0.0
 10
1368.159048
 20
329.150856
 30
0.0
 10
1368.159048
 20
343.346760
 30
0.0
 10
1365.854488
 20
343.346760
 30
0.0
 10
1365.854488
 20
353.270856
 30
0.0
 10
1368.159048
 20
353.270856
 30
0.0
 10
1368.159048
 20
356.048808
 30
0.0
 10
1407.759048
 20
356.048808
 30
0.0
 10
1407.759048
 20
353.270856
 30
0.0
 10
1410.063608
 20
353.270856
 30
0.0
 10
1410.063608
 20
343.346760
 30
0.0
 10
1407.759048
 20
343.346760
 30
0.0
 10
1407.759048
 20
329.150856
 30
0.0
 10
1410.063608
 20
329.150856
 30
0.0
 10
1410.063608
 20
319.226760
 30
0.0
 10
1407.759048
 20
319.226760
 30
0.0
 10
1407.759048
 20
316.448808
 30
0.0
 10
1368.159048
 20
316.448808
 30
0.0
 10
1368.159048
 20
319.226760
 30
0.0
 10
1365.854488
 20
319.226760
 30
0.0
  0
LWPOLYLINE
  5
13f
100
AcDbEntity
  8
0
 62
7
100
AcDbPolyline
 90
21
 70
0
 10
1365.854488
 20
373.085024
 30
0.0
 10
1365.854488
 20
383.009120
 30
0.0
 10
1368.159048
 20
383.009120
 30
0.0
 10
1368.159048
 20
397.205024
 30
0.0
 10
1365.854488
 20
397.205024
 30
0.0
 10
1365.854488
 20
407.129120
 30
0.0
 10
1368.159048
 20
407.129120
 30
0.0
 10
1368.159048
 20
409.907072
 30
0.0
 10
1407.759048
 20
409.907072
 30
0.0
 10
1407.759048
 20
407.129120
 30
0.0
 10
1410.063608
 20
407.129120
 30
0.0
 10
1410.063608
 20
397.205024
 30
0.0
 10
1407.759048
 20
397.205024
 30
0.0
 10
1407.759048
 20
383.009120
 30
0.0
 10
1410.063608
 20
383.009120
 30
0.0
 10
1410.063608
 20
373.085024
 30
0.0
 10
1407.759048
 20
373.085024
 30
0.0
 10
1407.759048
 20
370.307072
 30
0.0
 10
1368.159048
 20
370.307072
 30
0.0
 10
1368.159048
 20
373.085024
 30
0.0
 10
1365.854488
 20
373.085024
 30
0.0
  0
LWPOLYLINE
  5
140
100
AcDbEntity
  8
0
 62
7
100
AcDbPolyline
 90
21
 70
0
 10
1365.854488
 20
426.943296
 30
0.0
 10
1365.854488
 20
436.867392
 30
0.0
 10
1368.159048
 20
436.867392
 30
0.0
 10
1368.159048
 20
451.063296
 30
0.0
 10
1365.854488
 20
451.063296
 30
0.0
 10
1365.854488
 20
460.987392
 30
0.0
 10
1368.159048
 20
460.987392
 30
0.0
 10
1368.159048
 20
463.765344
 30
0.0
 10
1407.759048
 20
463.765344
 30
0.0
 10
1407.759048
 20
460.987392
 30
0.0
 10
1410.063608
 20
460.987392
 30
0.0
 10
1410.063608
 20
451.063296
 30
0.0
 10
1407.759048
 20
451.063296
 30
0.0
 10
1407.759048
 20
436.867392
 30
0.0
 10
1410.063608
 20
436.867392
 30
0.0
 10
1410.063608
 20
426.943296
 30
0.0
 10
1407.759048
 20
426.943296
 30
0.0
 10
1407.759048
 20
424.165344
 30
0.0
 10
1368.159048
 20
424.165344
 30
0.0
 10
1368.159048
 20
426.943296
 30
0.0
 10
1365.854488
 20
426.943296
 30
0.0
  0
LWPOLYLINE
  5
141
100
AcDbEntity
  8
0
 62
7
100
AcDbPolyline
 90
21
 70
0
 10
1365.854488
 20
480.801560
 30
0.0
 10
1365.854488
 20
490.725656
 30
0.0
 10
1368.159048
 20
490.725656
 30
0.0
 10
1368.159048
 20
504.921560
 30
0.0
 10
1365.854488
 20
504.921560
 30
0.0
 10
1365.854488
 20
514.845656
 30
0.0
 10
1368.159048
 20
514.845656
 30
0.0
 10
1368.159048
 20
517.623608
 30
0.0
 10
1407.759048
 20
517.623608
 30
0.0
 10
1407.759048
 20
514.845656
 30
0.0
 10
1410.063608
 20
514.845656
 30
0.0
 10
1410.063608
 20
504.921560
 30
0.0
 10
1407.759048
 20
504.921560
 30
0.0
 10
1407.759048
 20
490.725656
 30
0.0
 10
1410.063608
 20
490.725656
 30
0.0
 10
1410.063608
 20
480.801560
 30
0.0
 10
1407.759048
 20
480.801560
 30
0.0
 10
1407.759048
 20
478.023608
 30
0.0
 10
1368.159048
 20
478.023608
 30
0.0
 10
1368.159048
 20
480.801560
 30
0.0
 10
1365.854488
 20
480.801560
 30
0.0
  0
LWPOLYLINE
  5
142
100
AcDbEntity
  8
0
 62
7
100
AcDbPolyline
 90
6
 70
0
 10
1366.092568
 20
14.850976
 30
0.0
 10
1366.092568
 20
19.851296
 30
0.0
 10
1370.849128
 20
21.396176
 30
0.0
 10
1373.785848
 20
17.351136
 30
0.0
 10
1370.849128
 20
13.306096
 30
0.0
 10
1366.092568
 20
14.850976
 30
0.0
  0
LWPOLYLINE
  5
143
100
AcDbEntity
  8
0
 62
7
100
AcDbPolyline
 90
6
 70
0
 10
1366.092568
 20
298.315576
 30
0.0
 10
1366.092568
 20
303.315896
 30
0.0
 10
1370.849128
 20
304.860776
 30
0.0
 10
1373.785848
 20
300.815736
 30
0.0
 10
1370.849128
 20
296.770696
 30
0.0
 10
1366.092568
 20
298.315576
 30
0.0
  0
LWPOLYLINE
  5
144
100
AcDbEntity
  8
0
 62
7
100
AcDbPolyline
 90
21
 70
0
 10
1419.712728
 20
319.226760
 30
0.0
 10
1419.712728
 20
329.150856
 30
0.0
 10
1422.017288
 20
329.150856
 30
0.0
 10
1422.017288
 20
343.346760
 30
0.0
 10
1419.712728
 20
343.346760
 30
0.0
 10
1419.712728
 20
353.270856
 30
0.0
 10
1422.017288
 20
353.270856
 30
0.0
 10
1422.017288
 20
356.048808
 30
0.0
 10
1461.617288
 20
356.048808
 30
0.0
 10
1461.617288
 20
353.270856
 30
0.0
 10
1463.921928
 20
353.270856
 30
0.0
 10
1463.921928
 20
343.346760
 30
0.0
 10
1461.617288
 20
343.346760
 30
0.0
 10
1461.617288
 20
329.150856
 30
0.0
 10
1463.921928
 20
329.150856
 30
0.0
 10
1463.921928
 20
319.226760
 30
0.0
 10
1461.617288
 20
319.226760
 30
0.0
 10
1461.617288
 20
316.448808
 30
0.0
 10
1422.017288
 20
316.448808
 30
0.0
 10
1422.017288
 20
319.226760
 30
0.0
 10
1419.712728
 20
319.226760
 30
0.0
  0
LWPOLYLINE
  5
145
100
AcDbEntity
  8
0
 62
7
100
AcDbPolyline
 90
21
 70
0
 10
1419.712728
 20
373.085024
 30
0.0
 10
1419.712728
 20
383.009120
 30
0.0
 10
1422.017288
 20
383.009120
 30
0.0
 10
1422.017288
 20
397.205024
 30
0.0
 10
1419.712728
 20
397.205024
 30
0.0
 10
1419.712728
 20
407.129120
 30
0.0
 10
1422.017288
 20
407.129120
 30
0.0
 10
1422.017288
 20
409.907072
 30
0.0
 10
1461.617288
 20
409.907072
 30
0.0
 10
1461.617288
 20
407.129120
 30
0.0
 10
1463.921928
 20
407.129120
 30
0.0
 10
1463.921928
 20
397.205024
 30
0.0
 10
1461.617288
 20
397.205024
 30
0.0
 10
1461.617288
 20
383.009120
 30
0.0
 10
1463.921928
 20
383.009120
 30
0.0
 10
1463.921928
 20
373.085024
 30
0.0
 10
1461.617288
 20
373.085024
 30
0.0
 10
1461.617288
 20
370.307072
 30
0.0
 10
1422.017288
 20
370.307072
 30
0.0
 10
1422.017288
 20
373.085024
 30
0.0
 10
1419.712728
 20
373.085024
 30
0.0
  0
LWPOLYLINE
  5
146
100
AcDbEntity
  8
0
 62
7
100
AcDbPolyline
 90
21
 70
0
 10
1419.712728
 20
426.943296
 30
0.0
 10
1419.712728
 20
436.867392
 30
0.0
 10
1422.017288
 20
436.867392
 30
0.0
 10
1422.017288
 20
451.063296
 30
0.0
 10
1419.712728
 20
451.063296
 30
0.0
 10
1419.712728
 20
460.987392
 30
0.0
 10
1422.017288
 20
460.987392
 30
0.0
 10
1422.017288
 20
463.765344
 30
0.0
 10
1461.617288
 20
463.765344
 30
0.0
 10
1461.617288
 20
460.987392
 30
0.0
 10
1463.921928
 20
460.987392
 30
0.0
 10
1463.921928
 20
451.063296
 30
0.0
 10
1461.617288
 20
451.063296
 30
0.0
 10
1461.617288
 20
436.867392
 30
0.0
 10
1463.921928
 20
436.867392
 30
0.0
 10
1463.921928
 20
426.943296
 30
0.0
 10
1461.617288
 20
426.943296
 30
0.0
 10
1461.617288
 20
424.165344
 30
0.0
 10
1422.017288
 20
424.165344
 30
0.0
 10
1422.017288
 20
426.943296
 30
0.0
 10
1419.712728
 20
426.943296
 30
0.0
  0
LWPOLYLINE
  5
147
100
AcDbEntity
  8
0
 62
7
100
AcDbPolyline
 90
21
 70
0
 10
1419.712728
 20
480.801560
 30
0.0
 10
1419.712728
 20
490.725656
 30
0.0
 10
1422.017288
 20
490.725656
 30
0.0
 10
1422.017288
 20
504.921560
 30
0.0
 10
1419.712728
 20
504.921560
 30
0.0
 10
1419.712728
 20
514.845656
 30
0.0
 10
1422.017288
 20
514.845656
 30
0.0
 10
1422.017288
 20
517.623608
 30
0.0
 10
1461.617288
 20
517.623608
 30
0.0
 10
1461.617288
 20
514.845656
 30
0.0
 10
1463.921928
 20
514.845656
 30
0.0
 10
1463.921928
 20
504.921560
 30
0.0
 10
1461.617288
 20
504.921560
 30
0.0
 10
1461.617288
 20
490.725656
 30
0.0
 10
1463.921928
 20
490.725656
 30
0.0
 10
1463.921928
 20
480.801560
 30
0.0
 10
1461.617288
 20
480.801560
 30
0.0
 10
1461.617288
 20
478.023608
 30
0.0
 10
1422.017288
 20
478.023608
 30
0.0
 10
1422.017288
 20
480.801560
 30
0.0
 10
1419.712728
 20
480.801560
 30
0.0
  0
LWPOLYLINE
  5
148
100
AcDbEntity
  8
0
 62
7
100
AcDbPolyline
 90
21
 70
0
 10
1473.571048
 20
319.226760
 30
0.0
 10
1473.571048
 20
329.150856
 30
0.0
 10
1475.875608
 20
329.150856
 30
0.0
 10
1475.875608
 20
343.346760
 30
0.0
 10
1473.571048
 20
343.346760
 30
0.0
 10
1473.571048
 20
353.270856
 30
0.0
 10
1475.875608
 20
353.270856
 30
0.0
 10
1475.875608
 20
356.048808
 30
0.0
 10
1515.475608
 20
356.048808
 30
0.0
 10
1515.475608
 20
353.270856
 30
0.0
 10
1517.780168
 20
353.270856
 30
0.0
 10
1517.780168
 20
343.346760
 30
0.0
 10
1515.475608
 20
343.346760
 30
0.0
 10
1515.475608
 20
329.150856
 30
0.0
 10
1517.780168
 20
329.150856
 30
0.0
 10
1517.780168
 20
319.226760
 30
0.0
 10
1515.475608
 20
319.226760
 30
0.0
 10
1515.475608
 20
316.448808
 30
0.0
 10
1475.875608
 20
316.448808
 30
0.0
 10
1475.875608
 20
319.226760
 30
0.0
 10
1473.571048
 20
319.226760
 30
0.0
  0
LWPOLYLINE
  5
149
100
AcDbEntity
  8
0
 62
7
100
AcDbPolyline
 90
21
 70
0
 10
1473.571048
 20
373.085024
 30
0.0
 10
1473.571048
 20
383.009120
 30
0.0
 10
1475.875608
 20
383.009120
 30
0.0
 10
1475.875608
 20
397.205024
 30
0.0
 10
1473.571048
 20
397.205024
 30
0.0
 10
1473.571048
 20
407.129120
 30
0.0
 10
1475.875608
 20
407.129120
 30
0.0
 10
1475.875608
 20
409.907072
 30
0.0
 10
1515.475608
 20
409.907072
 30
0.0
 10
1515.475608
 20
407.129120
 30
0.0
 10
1517.780168
 20
407.129120
 30
0.0
 10
1517.780168
 20
397.205024
 30
0.0
 10
1515.475608
 20
397.205024
 30
0.0
 10
1515.475608
 20
383.009120
 30
0.0
 10
1517.780168
 20
383.009120
 30
0.0
 10
1517.780168
 20
373.085024
 30
0.0
 10
1515.475608
 20
373.085024
 30
0.0
 10
1515.475608
 20
370.307072
 30
0.0
 10
1475.875608
 20
370.307072
 30
0.0
 10
1475.875608
 20
373.085024
 30
0.0
 10
1473.571048
 20
373.085024
 30
0.0
  0
LWPOLYLINE
  5
14a
100
AcDbEntity
  8
0
 62
7
100
AcDbPolyline
 90
21
 70
0
 10
1473.571048
 20
426.943296
 30
0.0
 10
1473.571048
 20
436.867392
 30
0.0
 10
1475.875608
 20
436.867392
 30
0.0
 10
1475.875608
 20
451.063296
 30
0.0
 10
1473.571048
 20
451.063296
 30
0.0
 10
1473.571048
 20
460.987392
 30
0.0
 10
1475.875608
 20
460.987392
 30
0.0
 10
1475.875608
 20
463.765344
 30
0.0
 10
1515.475608
 20
463.765344
 30
0.0
 10
1515.475608
 20
460.987392
 30
0.0
 10
1517.780168
 20
460.987392
 30
0.0
 10
1517.780168
 20
451.063296
 30
0.0
 10
1515.475608
 20
451.063296
 30
0.0
 10
1515.475608
 20
436.867392
 30
0.0
 10
1517.780168
 20
436.867392
 30
0.0
 10
1517.780168
 20
426.943296
 30
0.0
 10
1515.475608
 20
426.943296
 30
0.0
 10
1515.475608
 20
424.165344
 30
0.0
 10
1475.875608
 20
424.165344
 30
0.0
 10
1475.875608
 20
426.943296
 30
0.0
 10
1473.571048
 20
426.943296
 30
0.0
  0
LWPOLYLINE
  5
14b
100
AcDbEntity
  8
0
 62
7
100
AcDbPolyline
 90
21
 70
0
 10
1473.571048
 20
480.801560
 30
0.0
 10
1473.571048
 20
490.725656
 30
0.0
 10
1475.875608
 20
490.725656
 30
0.0
 10
1475.875608
 20
504.921560
 30
0.0
 10
1473.571048
 20
504.921560
 30
0.0
 10
1473.571048
 20
514.845656
 30
0.0
 10
1475.875608
 20
514.845656
 30
0.0
 10
1475.875608
 20
517.623608
 30
0.0
 10
1515.475608
 20
517.623608
 30
0.0
 10
1515.475608
 20
514.845656
 30
0.0
 10
1517.780168
 20
514.845656
 30
0.0
 10
1517.780168
 20
504.921560
 30
0.0
 10
1515.475608
 20
504.921560
 30
0.0
 10
1515.475608
 20
490.725656
 30
0.0
 10
1517.780168
 20
490.725656
 30
0.0
 10
1517.780168
 20
480.801560
 30
0.0
 10
1515.475608
 20
480.801560
 30
0.0
 10
1515.475608
 20
478.023608
 30
0.0
 10
1475.875608
 20
478.023608
 30
0.0
 10
1475.875608
 20
480.801560
 30
0.0
 10
1473.571048
 20
480.801560
 30
0.0
  0
LWPOLYLINE
  5
14c
100
AcDbEntity
  8
0
 62
7
100
AcDbPolyline
 90
21
 70
0
 10
1527.429288
 20
319.226760
 30
0.0
 10
1527.429288
 20
329.150856
 30
0.0
 10
1529.733848
 20
329.150856
 30
0.0
 10
1529.733848
 20
343.346760
 30
0.0
 10
1527.429288
 20
343.346760
 30
0.0
 10
1527.429288
 20
353.270856
 30
0.0
 10
1529.733848
 20
353.270856
 30
0.0
 10
1529.733848
 20
356.048808
 30
0.0
 10
1569.333848
 20
356.048808
 30
0.0
 10
1569.333848
 20
353.270856
 30
0.0
 10
1571.638408
 20
353.270856
 30
0.0
 10
1571.638408
 20
343.346760
 30
0.0
 10
1569.333848
 20
343.346760
 30
0.0
 10
1569.333848
 20
329.150856
 30
0.0
 10
1571.638408
 20
329.150856
 30
0.0
 10
1571.638408
 20
319.226760
 30
0.0
 10
1569.333848
 20
319.226760
 30
0.0
 10
1569.333848
 20
316.448808
 30
0.0
 10
1529.733848
 20
316.448808
 30
0.0
 10
1529.733848
 20
319.226760
 30
0.0
 10
1527.429288
 20
319.226760
 30
0.0
  0
LWPOLYLINE
  5
14d
100
AcDbEntity
  8
0
 62
7
100
AcDbPolyline
 90
21
 70
0
 10
1527.429288
 20
373.085024
 30
0.0
 10
1527.429288
 20
383.009120
 30
0.0
 10
1529.733848
 20
383.009120
 30
0.0
 10
1529.733848
 20
397.205024
 30
0.0
 10
1527.429288
 20
397.205024
 30
0.0
 10
1527.429288
 20
407.129120
 30
0.0
 10
1529.733848
 20
407.129120
 30
0.0
 10
1529.733848
 20
409.907072
 30
0.0
 10
1569.333848
 20
409.907072
 30
0.0
 10
1569.333848
 20
407.129120
 30
0.0
 10
1571.638408
 20
407.129120
 30
0.0
 10
1571.638408
 20
397.205024
 30
0.0
 10
1569.333848
 20
397.205024
 30
0.0
 10
1569.333848
 20
383.009120
 30
0.0
 10
1571.638408
 20
383.009120
 30
0.0
 10
1571.638408
 20
373.085024
 30
0.0
 10
1569.333848
 20
373.085024
 30
0.0
 10
1569.333848
 20
370.307072
 30
0.0
 10
1529.733848
 20
370.307072
 30
0.0
 10
1529.733848
 20
373.085024
 30
0.0
 10
1527.429288
 20
373.085024
 30
0.0
  0
LWPOLYLINE
  5
14e
100
AcDbEntity
  8
0
 62
7
100
AcDbPolyline
 90
21
 70
0
 10
1527.429288
 20
426.943296
 30
0.0
 10
1527.429288
 20
436.867392
 30
0.0
 10
1529.733848
 20
436.867392
 30
0.0
 10
1529.733848
 20
451.063296
 30
0.0
 10
1527.429288
 20
451.063296
 30
0.0
 10
1527.429288
 20
460.987392
 30
0.0
 10
1529.733848
 20
460.987392
 30
0.0
 10
1529.733848
 20
463.765344
 30
0.0
 10
1569.333848
 20
463.765344
 30
0.0
 10
1569.333848
 20
460.987392
 30
0.0
 10
1571.638408
 20
460.987392
 30
0.0
 10
1571.638408
 20
451.063296
 30
0.0
 10
1569.333848
 20
451.063296
 30
0.0
 10
1569.333848
 20
436.867392
 30
0.0
 10
1571.638408
 20
436.867392
 30
0.0
 10
1571.638408
 20
426.943296
 30
0.0
 10
1569.333848
 20
426.943296
 30
0.0
 10
1569.333848
 20
424.165344
 30
0.0
 10
1529.733848
 20
424.165344
 30
0.0
 10
1529.733848
 20
426.943296
 30
0.0
 10
1527.429288
 20
426.943296
 30
0.0
  0
LWPOLYLINE
  5
14f
100
AcDbEntity
  8
0
 62
7
100
AcDbPolyline
 90
21
 70
0
 10
1527.429288
 20
480.801560
 30
0.0
 10
1527.429288
 20
490.725656
 30
0.0
 10
1529.733848
 20
490.725656
 30
0.0
 10
1529.733848
 20
504.921560
 30
0.0
 10
1527.429288
 20
504.921560
 30
0.0
 10
1527.429288
 20
514.845656
 30
0.0
 10
1529.733848
 20
514.845656
 30
0.0
 10
1529.733848
 20
517.623608
 30
0.0
 10
1569.333848
 20
517.623608
 30
0.0
 10
1569.333848
 20
514.845656
 30
0.0
 10
1571.638408
 20
514.845656
 30
0.0
 10
1571.638408
 20
504.921560
 30
0.0
 10
1569.333848
 20
504.921560
 30
0.0
 10
1569.333848
 20
490.725656
 30
0.0
 10
1571.638408
 20
490.725656
 30
0.0
 10
1571.638408
 20
480.801560
 30
0.0
 10
1569.333848
 20
480.801560
 30
0.0
 10
1569.333848
 20
478.023608
 30
0.0
 10
1529.733848
 20
478.023608
 30
0.0
 10
1529.733848
 20
480.801560
 30
0.0
 10
1527.429288
 20
480.801560
 30
0.0
  0
LWPOLYLINE
  5
150
100
AcDbEntity
  8
0
 62
7
100
AcDbPolyline
 90
21
 70
0
 10
1581.287528
 20
319.226760
 30
0.0
 10
1581.287528
 20
329.150856
 30
0.0
 10
1583.592168
 20
329.150856
 30
0.0
 10
1583.592168
 20
343.346760
 30
0.0
 10
1581.287528
 20
343.346760
 30
0.0
 10
1581.287528
 20
353.270856
 30
0.0
 10
1583.592168
 20
353.270856
 30
0.0
 10
1583.592168
 20
356.048808
 30
0.0
 10
1623.192168
 20
356.048808
 30
0.0
 10
1623.192168
 20
353.270856
 30
0.0
 10
1625.496728
 20
353.270856
 30
0.0
 10
1625.496728
 20
343.346760
 30
0.0
 10
1623.192168
 20
343.346760
 30
0.0
 10
1623.192168
 20
329.150856
 30
0.0
 10
1625.496728
 20
329.150856
 30
0.0
 10
1625.496728
 20
319.226760
 30
0.0
 10
1623.192168
 20
319.226760
 30
0.0
 10
1623.192168
 20
316.448808
 30
0.0
 10
1583.592168
 20
316.448808
 30
0.0
 10
1583.592168
 20
319.226760
 30
0.0
 10
1581.287528
 20
319.226760
 30
0.0
  0
LWPOLYLINE
  5
151
100
AcDbEntity
  8
0
 62
7
100
AcDbPolyline
 90
21
 70
0
 10
1581.287528
 20
373.085024
 30
0.0
 10
1581.287528
 20
383.009120
 30
0.0
 10
1583.592168
 20
383.009120
 30
0.0
 10
1583.592168
 20
397.205024
 30
0.0
 10
1581.287528
 20
397.205024
 30
0.0
 10
1581.287528
 20
407.129120
 30
0.0
 10
1583.592168
 20
407.129120
 30
0.0
 10
1583.592168
 20
409.907072
 30
0.0
 10
1623.192168
 20
409.907072
 30
0.0
 10
1623.192168
 20
407.129120
 30
0.0
 10
1625.496728
 20
407.129120
 30
0.0
 10
1625.496728
 20
397.205024
 30
0.0
 10
1623.192168
 20
397.205024
 30
0.0
 10
1623.192168
 20
383.009120
 30
0.0
 10
1625.496728
 20
383.009120
 30
0.0
 10
1625.496728
 20
373.085024
 30
0.0
 10
1623.192168
 20
373.085024
 30
0.0
 10
1623.192168
 20
370.307072
 30
0.0
 10
1583.592168
 20
370.307072
 30
0.0
 10
1583.592168
 20
373.085024
 30
0.0
 10
1581.287528
 20
373.085024
 30
0.0
  0
LWPOLYLINE
  5
152
100
AcDbEntity
  8
0
 62
7
100
AcDbPolyline
 90
21
 70
0
 10
1581.287528
 20
426.943296
 30
0.0
 10
1581.287528
 20
436.867392
 30
0.0
 10
1583.592168
 20
436.867392
 30
0.0
 10
1583.592168
 20
451.063296
 30
0.0
 10
1581.287528
 20
451.063296
 30
0.0
 10
1581.287528
 20
460.987392
 30
0.0
 10
1583.592168
 20
460.987392
 30
0.0
 10
1583.592168
 20
463.765344
 30
0.0
 10
1623.192168
 20
463.765344
 30
0.0
 10
1623.192168
 20
460.987392
 30
0.0
 10
1625.496728
 20
460.987392
 30
0.0
 10
1625.496728
 20
451.063296
 30
0.0
 10
1623.192168
 20
451.063296
 30
0.0
 10
1623.192168
 20
436.867392
 30
0.0
 10
1625.496728
 20
436.867392
 30
0.0
 10
1625.496728
 20
426.943296
 30
0.0
 10
1623.192168
 20
426.943296
 30
0.0
 10
1623.192168
 20
424.165344
 30
0.0
 10
1583.592168
 20
424.165344
 30
0.0
 10
1583.592168
 20
426.943296
 30
0.0
 10
1581.287528
 20
426.943296
 30
0.0
  0
LWPOLYLINE
  5
153
100
AcDbEntity
  8
0
 62
7
100
AcDbPolyline
 90
21
 70
0
 10
1581.287528
 20
480.801560
 30
0.0
 10
1581.287528
 20
490.725656
 30
0.0
 10
1583.592168
 20
490.725656
 30
0.0
 10
1583.592168
 20
504.921560
 30
0.0
 10
1581.287528
 20
504.921560
 30
0.0
 10
1581.287528
 20
514.845656
 30
0.0
 10
1583.592168
 20
514.845656
 30
0.0
 10
1583.592168
 20
517.623608
 30
0.0
 10
1623.192168
 20
517.623608
 30
0.0
 10
1623.192168
 20
514.845656
 30
0.0
 10
1625.496728
 20
514.845656
 30
0.0
 10
1625.496728
 20
504.921560
 30
0.0
 10
1623.192168
 20
504.921560
 30
0.0
 10
1623.192168
 20
490.725656
 30
0.0
 10
1625.496728
 20
490.725656
 30
0.0
 10
1625.496728
 20
480.801560
 30
0.0
 10
1623.192168
 20
480.801560
 30
0.0
 10
1623.192168
 20
478.023608
 30
0.0
 10
1583.592168
 20
478.023608
 30
0.0
 10
1583.592168
 20
480.801560
 30
0.0
 10
1581.287528
 20
480.801560
 30
0.0
  0
LWPOLYLINE
  5
154
100
AcDbEntity
  8
0
 62
7
100
AcDbPolyline
 90
6
 70
0
 10
1635.383928
 20
14.850976
 30
0.0
 10
1635.383928
 20
19.851296
 30
0.0
 10
1640.140488
 20
21.396176
 30
0.0
 10
1643.077208
 20
17.351136
 30
0.0
 10
1640.140488
 20
13.306096
 30
0.0
 10
1635.383928
 20
14.850976
 30
0.0
  0
LWPOLYLINE
  5
155
100
AcDbEntity
  8
0
 62
7
100
AcDbPolyline
 90
6
 70
0
 10
1635.383928
 20
247.291952
 30
0.0
 10
1635.383928
 20
252.292272
 30
0.0
 10
1640.140488
 20
253.837152
 30
0.0
 10
1643.077208
 20
249.792112
 30
0.0
 10
1640.140488
 20
245.747072
 30
0.0
 10
1635.383928
 20
247.291952
 30
0.0
  0
LWPOLYLINE
  5
156
100
AcDbEntity
  8
0
 62
7
100
AcDbPolyline
 90
6
 70
0
 10
1635.383928
 20
298.315576
 30
0.0
 10
1635.383928
 20
303.315896
 30
0.0
 10
1640.140488
 20
304.860776
 30
0.0
 10
1643.077208
 20
300.815736
 30
0.0
 10
1640.140488
 20
296.770696
 30
0.0
 10
1635.383928
 20
298.315576
 30
0.0
  0
LWPOLYLINE
  5
157
100
AcDbEntity
  8
0
 62
7
100
AcDbPolyline
 90
6
 70
0
 10
1635.383928
 20
530.756520
 30
0.0
 10
1635.383928
 20
535.756840
 30
0.0
 10
1640.140488
 20
537.301720
 30
0.0
 10
1643.077208
 20
533.256680
 30
0.0
 10
1640.140488
 20
529.211640
 30
0.0
 10
1635.383928
 20
530.756520
 30
0.0
  0
ENDSEC
  0
SECTION
  2
OBJECTS
  0
DICTIONARY
  5
C
330
0
100
AcDbDictionary
  3
ACAD_GROUP
350
D
  3
ACAD_MLINESTYLE
350
17
  0
DICTIONARY
  5
D
330
C
100
AcDbDictionary
  0
DICTIONARY
  5
1A
330
C
100
AcDbDictionary
  0
DICTIONARY
  5
17
330
C
100
AcDbDictionary
  3
STANDARD
350
18
  0
DICTIONARY
  5
19
330
C
100
AcDbDictionary
  0
ENDSEC
  0
EOF
