  0
SECTION
  2
BLOCKS
  0
ENDSEC
  0
SECTION
  2
ENTITIES
  0
LINE
  8
0
 10
1
 11
1
 20
1
 21
25
  0
LINE
  8
0
 10
1
 11
82
 20
25
 21
25
  0
LINE
  8
0
 10
82
 11
82
 20
25
 21
1
  0
LINE
  8
0
 10
82
 11
1
 20
1
 21
1
  0
LINE
  8
0
 10
5.202
 11
5.202
 20
6.995
 21
10.496
  0
LINE
  8
0
 10
5.202
 11
5.99
 20
10.496
 21
10.496
  0
LINE
  8
0
 10
5.99
 11
5.99
 20
10.496
 21
15.504
  0
LINE
  8
0
 10
5.99
 11
5.202
 20
15.504
 21
15.504
  0
LINE
  8
0
 10
5.202
 11
5.202
 20
15.504
 21
19.005
  0
LINE
  8
0
 10
5.202
 11
5.99
 20
19.005
 21
19.005
  0
LINE
  8
0
 10
5.99
 11
5.99
 20
19.005
 21
20.01
  0
LINE
  8
0
 10
5.99
 11
20.01
 20
20.01
 21
20.01
  0
LINE
  8
0
 10
20.01
 11
20.01
 20
20.01
 21
19.005
  0
LINE
  8
0
 10
20.01
 11
20.798
 20
19.005
 21
19.005
  0
LINE
  8
0
 10
20.798
 11
20.798
 20
19.005
 21
15.504
  0
LINE
  8
0
 10
20.798
 11
20.01
 20
15.504
 21
15.504
  0
LINE
  8
0
 10
20.01
 11
20.01
 20
15.504
 21
10.496
  0
LINE
  8
0
 10
20.01
 11
20.798
 20
10.496
 21
10.496
  0
LINE
  8
0
 10
20.798
 11
20.798
 20
10.496
 21
6.995
  0
LINE
  8
0
 10
20.798
 11
20.01
 20
6.995
 21
6.995
  0
LINE
  8
0
 10
20.01
 11
20.01
 20
6.995
 21
5.99
  0
LINE
  8
0
 10
20.01
 11
5.99
 20
5.99
 21
5.99
  0
LINE
  8
0
 10
5.99
 11
5.99
 20
5.99
 21
6.995
  0
LINE
  8
0
 10
5.99
 11
5.202
 20
6.995
 21
6.995
  0
LINE
  8
0
 10
24.202
 11
24.202
 20
6.995
 21
10.496
  0
LINE
  8
0
 10
24.202
 11
25.015
 20
10.496
 21
10.496
  0
LINE
  8
0
 10
25.015
 11
25.015
 20
10.496
 21
15.504
  0
LINE
  8
0
 10
25.015
 11
24.202
 20
15.504
 21
15.504
  0
LINE
  8
0
 10
24.202
 11
24.202
 20
15.504
 21
19.005
  0
LINE
  8
0
 10
24.202
 11
25.015
 20
19.005
 21
19.005
  0
LINE
  8
0
 10
25.015
 11
25.015
 20
19.005
 21
19.985
  0
LINE
  8
0
 10
25.015
 11
38.985
 20
19.985
 21
19.985
  0
LINE
  8
0
 10
38.985
 11
38.985
 20
19.985
 21
19.005
  0
LINE
  8
0
 10
38.985
 11
39.798
 20
19.005
 21
19.005
  0
LINE
  8
0
 10
39.798
 11
39.798
 20
19.005
 21
15.504
  0
LINE
  8
0
 10
39.798
 11
38.985
 20
15.504
 21
15.504
  0
LINE
  8
0
 10
38.985
 11
38.985
 20
15.504
 21
10.496
  0
LINE
  8
0
 10
38.985
 11
39.798
 20
10.496
 21
10.496
  0
LINE
  8
0
 10
39.798
 11
39.798
 20
10.496
 21
6.995
  0
LINE
  8
0
 10
39.798
 11
38.985
 20
6.995
 21
6.995
  0
LINE
  8
0
 10
38.985
 11
38.985
 20
6.995
 21
6.015
  0
LINE
  8
0
 10
38.985
 11
25.015
 20
6.015
 21
6.015
  0
LINE
  8
0
 10
25.015
 11
25.015
 20
6.015
 21
6.995
  0
LINE
  8
0
 10
25.015
 11
24.202
 20
6.995
 21
6.995
  0
LINE
  8
0
 10
43.202
 11
43.202
 20
6.995
 21
10.496
  0
LINE
  8
0
 10
43.202
 11
44.04
 20
10.496
 21
10.496
  0
LINE
  8
0
 10
44.04
 11
44.04
 20
10.496
 21
15.504
  0
LINE
  8
0
 10
44.04
 11
43.202
 20
15.504
 21
15.504
  0
LINE
  8
0
 10
43.202
 11
43.202
 20
15.504
 21
19.005
  0
LINE
  8
0
 10
43.202
 11
44.04
 20
19.005
 21
19.005
  0
LINE
  8
0
 10
44.04
 11
44.04
 20
19.005
 21
19.96
  0
LINE
  8
0
 10
44.04
 11
57.96
 20
19.96
 21
19.96
  0
LINE
  8
0
 10
57.96
 11
57.96
 20
19.96
 21
19.005
  0
LINE
  8
0
 10
57.96
 11
58.798
 20
19.005
 21
19.005
  0
LINE
  8
0
 10
58.798
 11
58.798
 20
19.005
 21
15.504
  0
LINE
  8
0
 10
58.798
 11
57.96
 20
15.504
 21
15.504
  0
LINE
  8
0
 10
57.96
 11
57.96
 20
15.504
 21
10.496
  0
LINE
  8
0
 10
57.96
 11
58.798
 20
10.496
 21
10.496
  0
LINE
  8
0
 10
58.798
 11
58.798
 20
10.496
 21
6.995
  0
LINE
  8
0
 10
58.798
 11
57.96
 20
6.995
 21
6.995
  0
LINE
  8
0
 10
57.96
 11
57.96
 20
6.995
 21
6.04
  0
LINE
  8
0
 10
57.96
 11
44.04
 20
6.04
 21
6.04
  0
LINE
  8
0
 10
44.04
 11
44.04
 20
6.04
 21
6.995
  0
LINE
  8
0
 10
44.04
 11
43.202
 20
6.995
 21
6.995
  0
LINE
  8
0
 10
62.202
 11
62.202
 20
6.995
 21
10.496
  0
LINE
  8
0
 10
62.202
 11
63.065
 20
10.496
 21
10.496
  0
LINE
  8
0
 10
63.065
 11
63.065
 20
10.496
 21
15.504
  0
LINE
  8
0
 10
63.065
 11
62.202
 20
15.504
 21
15.504
  0
LINE
  8
0
 10
62.202
 11
62.202
 20
15.504
 21
19.005
  0
LINE
  8
0
 10
62.202
 11
63.065
 20
19.005
 21
19.005
  0
LINE
  8
0
 10
63.065
 11
63.065
 20
19.005
 21
19.935
  0
LINE
  8
0
 10
63.065
 11
76.935
 20
19.935
 21
19.935
  0
LINE
  8
0
 10
76.935
 11
76.935
 20
19.935
 21
19.005
  0
LINE
  8
0
 10
76.935
 11
77.798
 20
19.005
 21
19.005
  0
LINE
  8
0
 10
77.798
 11
77.798
 20
19.005
 21
15.504
  0
LINE
  8
0
 10
77.798
 11
76.935
 20
15.504
 21
15.504
  0
LINE
  8
0
 10
76.935
 11
76.935
 20
15.504
 21
10.496
  0
LINE
  8
0
 10
76.935
 11
77.798
 20
10.496
 21
10.496
  0
LINE
  8
0
 10
77.798
 11
77.798
 20
10.496
 21
6.995
  0
LINE
  8
0
 10
77.798
 11
76.935
 20
6.995
 21
6.995
  0
LINE
  8
0
 10
76.935
 11
76.935
 20
6.995
 21
6.065
  0
LINE
  8
0
 10
76.935
 11
63.065
 20
6.065
 21
6.065
  0
LINE
  8
0
 10
63.065
 11
63.065
 20
6.065
 21
6.995
  0
LINE
  8
0
 10
63.065
 11
62.202
 20
6.995
 21
6.995
  0
ENDSEC
  0
SECTION
  2
OBJECTS
  0
DICTIONARY
  0
ENDSEC
  0
EOF
