  0
SECTION
  2
BLOCKS
  0
ENDSEC
  0
SECTION
  2
ENTITIES
  0
LINE
  8
0
 10
-12
 11
-12
 20
-12
 21
12
  0
LINE
  8
0
 10
-12
 11
50
 20
12
 21
12
  0
LINE
  8
0
 10
50
 11
50
 20
12
 21
-12
  0
LINE
  8
0
 10
50
 11
-12
 20
-12
 21
-12
  0
LINE
  8
0
 10
-7.798
 11
-7.798
 20
-6.005
 21
-2.504
  0
LINE
  8
0
 10
-7.798
 11
-6.985
 20
-2.504
 21
-2.504
  0
LINE
  8
0
 10
-6.985
 11
-6.985
 20
-2.504
 21
2.504
  0
LINE
  8
0
 10
-6.985
 11
-7.798
 20
2.504
 21
2.504
  0
LINE
  8
0
 10
-7.798
 11
-7.798
 20
2.504
 21
6.005
  0
LINE
  8
0
 10
-7.798
 11
-6.985
 20
6.005
 21
6.005
  0
LINE
  8
0
 10
-6.985
 11
-6.985
 20
6.005
 21
6.985
  0
LINE
  8
0
 10
-6.985
 11
6.985
 20
6.985
 21
6.985
  0
LINE
  8
0
 10
6.985
 11
6.985
 20
6.985
 21
6.005
  0
LINE
  8
0
 10
6.985
 11
7.798
 20
6.005
 21
6.005
  0
LINE
  8
0
 10
7.798
 11
7.798
 20
6.005
 21
2.504
  0
LINE
  8
0
 10
7.798
 11
6.985
 20
2.504
 21
2.504
  0
LINE
  8
0
 10
6.985
 11
6.985
 20
2.504
 21
-2.504
  0
LINE
  8
0
 10
6.985
 11
7.798
 20
-2.504
 21
-2.504
  0
LINE
  8
0
 10
7.798
 11
7.798
 20
-2.504
 21
-6.005
  0
LINE
  8
0
 10
7.798
 11
6.985
 20
-6.005
 21
-6.005
  0
LINE
  8
0
 10
6.985
 11
6.985
 20
-6.005
 21
-6.985
  0
LINE
  8
0
 10
6.985
 11
-6.985
 20
-6.985
 21
-6.985
  0
LINE
  8
0
 10
-6.985
 11
-6.985
 20
-6.985
 21
-6.005
  0
LINE
  8
0
 10
-6.985
 11
-7.798
 20
-6.005
 21
-6.005
  0
LINE
  8
0
 10
11.202
 11
11.202
 20
-6.005
 21
-2.504
  0
LINE
  8
0
 10
11.202
 11
12.04
 20
-2.504
 21
-2.504
  0
LINE
  8
0
 10
12.04
 11
12.04
 20
-2.504
 21
2.504
  0
LINE
  8
0
 10
12.04
 11
11.202
 20
2.504
 21
2.504
  0
LINE
  8
0
 10
11.202
 11
11.202
 20
2.504
 21
6.005
  0
LINE
  8
0
 10
11.202
 11
12.04
 20
6.005
 21
6.005
  0
LINE
  8
0
 10
12.04
 11
12.04
 20
6.005
 21
6.96
  0
LINE
  8
0
 10
12.04
 11
25.96
 20
6.96
 21
6.96
  0
LINE
  8
0
 10
25.96
 11
25.96
 20
6.96
 21
6.005
  0
LINE
  8
0
 10
25.96
 11
26.798
 20
6.005
 21
6.005
  0
LINE
  8
0
 10
26.798
 11
26.798
 20
6.005
 21
2.504
  0
LINE
  8
0
 10
26.798
 11
25.96
 20
2.504
 21
2.504
  0
LINE
  8
0
 10
25.96
 11
25.96
 20
2.504
 21
-2.504
  0
LINE
  8
0
 10
25.96
 11
26.798
 20
-2.504
 21
-2.504
  0
LINE
  8
0
 10
26.798
 11
26.798
 20
-2.504
 21
-6.005
  0
LINE
  8
0
 10
26.798
 11
25.96
 20
-6.005
 21
-6.005
  0
LINE
  8
0
 10
25.96
 11
25.96
 20
-6.005
 21
-6.96
  0
LINE
  8
0
 10
25.96
 11
12.04
 20
-6.96
 21
-6.96
  0
LINE
  8
0
 10
12.04
 11
12.04
 20
-6.96
 21
-6.005
  0
LINE
  8
0
 10
12.04
 11
11.202
 20
-6.005
 21
-6.005
  0
LINE
  8
0
 10
30.202
 11
30.202
 20
-6.005
 21
-2.504
  0
LINE
  8
0
 10
30.202
 11
31.065
 20
-2.504
 21
-2.504
  0
LINE
  8
0
 10
31.065
 11
31.065
 20
-2.504
 21
2.504
  0
LINE
  8
0
 10
31.065
 11
30.202
 20
2.504
 21
2.504
  0
LINE
  8
0
 10
30.202
 11
30.202
 20
2.504
 21
6.005
  0
LINE
  8
0
 10
30.202
 11
31.065
 20
6.005
 21
6.005
  0
LINE
  8
0
 10
31.065
 11
31.065
 20
6.005
 21
6.935
  0
LINE
  8
0
 10
31.065
 11
44.935
 20
6.935
 21
6.935
  0
LINE
  8
0
 10
44.935
 11
44.935
 20
6.935
 21
6.005
  0
LINE
  8
0
 10
44.935
 11
45.798
 20
6.005
 21
6.005
  0
LINE
  8
0
 10
45.798
 11
45.798
 20
6.005
 21
2.504
  0
LINE
  8
0
 10
45.798
 11
44.935
 20
2.504
 21
2.504
  0
LINE
  8
0
 10
44.935
 11
44.935
 20
2.504
 21
-2.504
  0
LINE
  8
0
 10
44.935
 11
45.798
 20
-2.504
 21
-2.504
  0
LINE
  8
0
 10
45.798
 11
45.798
 20
-2.504
 21
-6.005
  0
LINE
  8
0
 10
45.798
 11
44.935
 20
-6.005
 21
-6.005
  0
LINE
  8
0
 10
44.935
 11
44.935
 20
-6.005
 21
-6.935
  0
LINE
  8
0
 10
44.935
 11
31.065
 20
-6.935
 21
-6.935
  0
LINE
  8
0
 10
31.065
 11
31.065
 20
-6.935
 21
-6.005
  0
LINE
  8
0
 10
31.065
 11
30.202
 20
-6.005
 21
-6.005
  0
ENDSEC
  0
SECTION
  2
OBJECTS
  0
DICTIONARY
  0
ENDSEC
  0
EOF
