  0
SECTION
  2
HEADER
  9
$ACADVER
  1
AC1014
  9
$HANDSEED
  5
FFFF
  9
$MEASUREMENT
 70
     1
  0
ENDSEC
  0
SECTION
  2
TABLES
  0
TABLE
  2
VPORT
  5
8
330
0
100
AcDbSymbolTable
 70
     4
  0
VPORT
  5
2E
330
8
100
AcDbSymbolTableRecord
100
AcDbViewportTableRecord
  2
*ACTIVE
 70
     0
 10
0.0
 20
0.0
 11
1.0
 21
1.0
 12
210.0
 22
148.5
 13
0.0
 23
0.0
 14
10.0
 24
10.0
 15
10.0
 25
10.0
 16
0.0
 26
0.0
 36
1.0
 17
0.0
 27
0.0
 37
0.0
 40
341.0
 41
1.24
 42
50.0
 43
0.0
 44
0.0
 50
0.0
 51
0.0
 71
     0
 72
   100
 73
     1
 74
     3
 75
     0
 76
     0
 77
     0
 78
     0
  0
ENDTAB
  0
TABLE
  2
LTYPE
  5
5
330
0
100
AcDbSymbolTable
 70
     1
  0
LTYPE
  5
14
330
5
100
AcDbSymbolTableRecord
100
AcDbLinetypeTableRecord
  2
BYBLOCK
 70
     0
  3

 72
    65
 73
     0
 40
0.0
  0
LTYPE
  5
15
330
5
100
AcDbSymbolTableRecord
100
AcDbLinetypeTableRecord
  2
BYLAYER
 70
     0
  3

 72
    65
 73
     0
 40
0.0
  0
LTYPE
  5
16
330
5
100
AcDbSymbolTableRecord
100
AcDbLinetypeTableRecord
  2
CONTINUOUS
 70
     0
  3
Solid line
 72
    65
 73
     0
 40
0.0
  0
ENDTAB
  0
TABLE
  2
LAYER
  5
2
100
AcDbSymbolTable
 70
1
  0
LAYER
  5
50
100
AcDbSymbolTableRecord
100
AcDbLayerTableRecord
  2
0
 70
0
  6
CONTINUOUS
  0
ENDTAB
  0
TABLE
  2
STYLE
  5
3
330
0
100
AcDbSymbolTable
 70
     1
  0
STYLE
  5
11
330
3
100
AcDbSymbolTableRecord
100
AcDbTextStyleTableRecord
  2
STANDARD
 70
     0
 40
0.0
 41
1.0
 50
0.0
 71
     0
 42
2.5
  3
txt
  4

  0
ENDTAB
  0
TABLE
  2
VIEW
  5
6
330
0
100
AcDbSymbolTable
 70
     0
  0
ENDTAB
  0
TABLE
  2
UCS
  5
7
330
0
100
AcDbSymbolTable
 70
     0
  0
ENDTAB
  0
TABLE
  2
APPID
  5
9
330
0
100
AcDbSymbolTable
 70
     2
  0
APPID
  5
12
330
9
100
AcDbSymbolTableRecord
100
AcDbRegAppTableRecord
  2
ACAD
 70
     0
  0
ENDTAB
  0
TABLE
  2
DIMSTYLE
  5
A
330
0
100
AcDbSymbolTable
 70
     1
  0
DIMSTYLE
105
27
330
A
100
AcDbSymbolTableRecord
100
AcDbDimStyleTableRecord
  2
ISO-25
 70
     0
  3

  4

  5

  6

  7

 40
1.0
 41
2.5
 42
0.625
 43
3.75
 44
1.25
 45
0.0
 46
0.0
 47
0.0
 48
0.0
140
2.5
141
2.5
142
0.0
143
0.03937007874016
144
1.0
145
0.0
146
1.0
147
0.625
 71
     0
 72
     0
 73
     0
 74
     0
 75
     0
 76
     0
 77
     1
 78
     8
170
     0
171
     3
172
     1
173
     0
174
     0
175
     0
176
     0
177
     0
178
     0
270
     2
271
     2
272
     2
273
     2
274
     3
340
11
275
     0
280
     0
281
     0
282
     0
283
     0
284
     8
285
     0
286
     0
287
     3
288
     0
  0
ENDTAB
  0
TABLE
  2
BLOCK_RECORD
  5
1
330
0
100
AcDbSymbolTable
 70
     1
  0
BLOCK_RECORD
  5
1F
330
1
100
AcDbSymbolTableRecord
100
AcDbBlockTableRecord
  2
*MODEL_SPACE
  0
BLOCK_RECORD
  5
1B
330
1
100
AcDbSymbolTableRecord
100
AcDbBlockTableRecord
  2
*PAPER_SPACE
  0
ENDTAB
  0
ENDSEC
  0
SECTION
  2
BLOCKS
  0
BLOCK
  5
20
330
1F
100
AcDbEntity
  8
0
100
AcDbBlockBegin
  2
*MODEL_SPACE
 70
     0
 10
0.0
 20
0.0
 30
0.0
  3
*MODEL_SPACE
  1

  0
ENDBLK
  5
21
330
1F
100
AcDbEntity
  8
0
100
AcDbBlockEnd
  0
BLOCK
  5
1C
330
1B
100
AcDbEntity
 67
     1
  8
0
100
AcDbBlockBegin
  2
*PAPER_SPACE
  1

  0
ENDBLK
  5
1D
330
1B
100
AcDbEntity
 67
     1
  8
0
100
AcDbBlockEnd
  0
ENDSEC
  0
SECTION
  2
ENTITIES
  0
LWPOLYLINE
  5
100
100
AcDbEntity
  8
0
 62
7
100
AcDbPolyline
 90
23
 70
0
 10
0.400000
 20
14.550568
 30
0.0
 10
0.400000
 20
91.017928
 30
0.0
 10
2.217008
 20
96.313064
 30
0.0
 10
5.655433
 20
100.729440
 30
0.0
 10
10.343937
 20
103.793696
 30
0.0
 10
15.772283
 20
105.168496
 30
0.0
 10
86.638426
 20
105.168496
 30
0.0
 10
92.217008
 20
104.703616
 30
0.0
 10
97.344882
 20
102.455744
 30
0.0
 10
101.463622
 20
98.662984
 30
0.0
 10
104.128189
 20
93.739208
 30
0.0
 10
105.049449
 20
88.217288
 30
0.0
 10
105.049449
 20
17.351208
 30
0.0
 10
104.128189
 20
11.829288
 30
0.0
 10
101.463622
 20
6.905528
 30
0.0
 10
97.344882
 20
3.112728
 30
0.0
 10
92.217008
 20
0.864888
 30
0.0
 10
86.638426
 20
0.400008
 30
0.0
 10
15.772283
 20
0.400008
 30
0.0
 10
10.343937
 20
1.774808
 30
0.0
 10
5.655433
 20
4.839048
 30
0.0
 10
2.217008
 20
9.255448
 30
0.0
 10
0.400000
 20
14.550568
 30
0.0
  0
LWPOLYLINE
  5
101
100
AcDbEntity
  8
0
 62
7
100
AcDbPolyline
 90
27
 70
0
 10
0.400000
 20
127.936368
 30
0.0
 10
0.400000
 20
204.403768
 30
0.0
 10
2.217008
 20
209.698888
 30
0.0
 10
5.655433
 20
214.115264
 30
0.0
 10
10.343937
 20
217.179520
 30
0.0
 10
15.772283
 20
218.554320
 30
0.0
 10
32.765984
 20
218.554320
 30
0.0
 10
32.765984
 20
146.327552
 30
0.0
 10
72.451024
 20
146.327552
 30
0.0
 10
72.451024
 20
218.554320
 30
0.0
 10
86.638426
 20
218.554320
 30
0.0
 10
92.217008
 20
218.089440
 30
0.0
 10
97.344882
 20
215.841568
 30
0.0
 10
101.463622
 20
212.048808
 30
0.0
 10
104.128189
 20
207.125032
 30
0.0
 10
105.049449
 20
201.603144
 30
0.0
 10
105.049449
 20
130.737000
 30
0.0
 10
104.128189
 20
125.215112
 30
0.0
 10
101.463622
 20
120.291328
 30
0.0
 10
97.344882
 20
116.498576
 30
0.0
 10
92.217008
 20
114.250704
 30
0.0
 10
86.638426
 20
113.785816
 30
0.0
 10
15.772283
 20
113.785816
 30
0.0
 10
10.343937
 20
115.160624
 30
0.0
 10
5.655433
 20
118.224872
 30
0.0
 10
2.217008
 20
122.641256
 30
0.0
 10
0.400000
 20
127.936368
 30
0.0
  0
LWPOLYLINE
  5
102
100
AcDbEntity
  8
0
 62
7
100
AcDbPolyline
 90
6
 70
0
 10
13.734174
 20
14.851048
 30
0.0
 10
13.734174
 20
19.851368
 30
0.0
 10
18.490709
 20
21.396248
 30
0.0
 10
21.427402
 20
17.351208
 30
0.0
 10
18.490709
 20
13.306168
 30
0.0
 10
13.734174
 20
14.851048
 30
0.0
  0
LWPOLYLINE
  5
103
100
AcDbEntity
  8
0
 62
7
100
AcDbPolyline
 90
6
 70
0
 10
13.734174
 20
85.717128
 30
0.0
 10
13.734174
 20
90.717448
 30
0.0
 10
18.490709
 20
92.262328
 30
0.0
 10
21.427402
 20
88.217288
 30
0.0
 10
18.490709
 20
84.172248
 30
0.0
 10
13.734174
 20
85.717128
 30
0.0
  0
LWPOLYLINE
  5
104
100
AcDbEntity
  8
0
 62
7
100
AcDbPolyline
 90
6
 70
0
 10
13.734174
 20
128.236840
 30
0.0
 10
13.734174
 20
133.237160
 30
0.0
 10
18.490709
 20
134.782040
 30
0.0
 10
21.427402
 20
130.737000
 30
0.0
 10
18.490709
 20
126.691960
 30
0.0
 10
13.734174
 20
128.236840
 30
0.0
  0
LWPOLYLINE
  5
105
100
AcDbEntity
  8
0
 62
7
100
AcDbPolyline
 90
6
 70
0
 10
13.734174
 20
199.102984
 30
0.0
 10
13.734174
 20
204.103296
 30
0.0
 10
18.490709
 20
205.648184
 30
0.0
 10
21.427402
 20
201.603144
 30
0.0
 10
18.490709
 20
197.558104
 30
0.0
 10
13.734174
 20
199.102984
 30
0.0
  0
LWPOLYLINE
  5
106
100
AcDbEntity
  8
0
 62
1
100
AcDbPolyline
 90
5
 70
0
 10
38.435276
 20
151.996840
 30
0.0
 10
38.435276
 20
180.343296
 30
0.0
 10
66.781732
 20
180.343296
 30
0.0
 10
66.781732
 20
151.996840
 30
0.0
 10
38.435276
 20
151.996840
 30
0.0
  0
LWPOLYLINE
  5
107
100
AcDbEntity
  8
0
 62
7
100
AcDbPolyline
 90
6
 70
0
 10
84.600315
 20
14.851048
 30
0.0
 10
84.600315
 20
19.851368
 30
0.0
 10
89.356850
 20
21.396248
 30
0.0
 10
92.293543
 20
17.351208
 30
0.0
 10
89.356850
 20
13.306168
 30
0.0
 10
84.600315
 20
14.851048
 30
0.0
  0
LWPOLYLINE
  5
108
100
AcDbEntity
  8
0
 62
7
100
AcDbPolyline
 90
6
 70
0
 10
84.600315
 20
85.717128
 30
0.0
 10
84.600315
 20
90.717448
 30
0.0
 10
89.356850
 20
92.262328
 30
0.0
 10
92.293543
 20
88.217288
 30
0.0
 10
89.356850
 20
84.172248
 30
0.0
 10
84.600315
 20
85.717128
 30
0.0
  0
LWPOLYLINE
  5
109
100
AcDbEntity
  8
0
 62
7
100
AcDbPolyline
 90
6
 70
0
 10
84.600315
 20
128.236840
 30
0.0
 10
84.600315
 20
133.237160
 30
0.0
 10
89.356850
 20
134.782040
 30
0.0
 10
92.293543
 20
130.737000
 30
0.0
 10
89.356850
 20
126.691960
 30
0.0
 10
84.600315
 20
128.236840
 30
0.0
  0
LWPOLYLINE
  5
10a
100
AcDbEntity
  8
0
 62
7
100
AcDbPolyline
 90
6
 70
0
 10
84.600315
 20
199.102984
 30
0.0
 10
84.600315
 20
204.103296
 30
0.0
 10
89.356850
 20
205.648184
 30
0.0
 10
92.293543
 20
201.603144
 30
0.0
 10
89.356850
 20
197.558104
 30
0.0
 10
84.600315
 20
199.102984
 30
0.0
  0
LWPOLYLINE
  5
10b
100
AcDbEntity
  8
0
 62
7
100
AcDbPolyline
 90
23
 70
0
 10
113.785827
 20
14.550568
 30
0.0
 10
113.785827
 20
91.017928
 30
0.0
 10
115.602834
 20
96.313064
 30
0.0
 10
119.041260
 20
100.729440
 30
0.0
 10
123.729764
 20
103.793696
 30
0.0
 10
129.158110
 20
105.168496
 30
0.0
 10
200.024248
 20
105.168496
 30
0.0
 10
205.602832
 20
104.703616
 30
0.0
 10
210.730712
 20
102.455744
 30
0.0
 10
214.849448
 20
98.662984
 30
0.0
 10
217.514016
 20
93.739208
 30
0.0
 10
218.435272
 20
88.217288
 30
0.0
 10
218.435272
 20
17.351208
 30
0.0
 10
217.514016
 20
11.829288
 30
0.0
 10
214.849448
 20
6.905528
 30
0.0
 10
210.730712
 20
3.112728
 30
0.0
 10
205.602832
 20
0.864888
 30
0.0
 10
200.024248
 20
0.400008
 30
0.0
 10
129.158110
 20
0.400008
 30
0.0
 10
123.729764
 20
1.774808
 30
0.0
 10
119.041260
 20
4.839048
 30
0.0
 10
115.602834
 20
9.255448
 30
0.0
 10
113.785827
 20
14.550568
 30
0.0
  0
LWPOLYLINE
  5
10c
100
AcDbEntity
  8
0
 62
7
100
AcDbPolyline
 90
23
 70
0
 10
113.785827
 20
127.936368
 30
0.0
 10
113.785827
 20
204.403768
 30
0.0
 10
115.602834
 20
209.698888
 30
0.0
 10
119.041260
 20
214.115264
 30
0.0
 10
123.729764
 20
217.179520
 30
0.0
 10
129.158110
 20
218.554320
 30
0.0
 10
200.024248
 20
218.554320
 30
0.0
 10
205.602832
 20
218.089440
 30
0.0
 10
210.730712
 20
215.841568
 30
0.0
 10
214.849448
 20
212.048808
 30
0.0
 10
217.514016
 20
207.125032
 30
0.0
 10
218.435272
 20
201.603144
 30
0.0
 10
218.435272
 20
130.737000
 30
0.0
 10
217.514016
 20
125.215112
 30
0.0
 10
214.849448
 20
120.291328
 30
0.0
 10
210.730712
 20
116.498576
 30
0.0
 10
205.602832
 20
114.250704
 30
0.0
 10
200.024248
 20
113.785816
 30
0.0
 10
129.158110
 20
113.785816
 30
0.0
 10
123.729764
 20
115.160624
 30
0.0
 10
119.041260
 20
118.224872
 30
0.0
 10
115.602834
 20
122.641256
 30
0.0
 10
113.785827
 20
127.936368
 30
0.0
  0
LWPOLYLINE
  5
10d
100
AcDbEntity
  8
0
 62
7
100
AcDbPolyline
 90
6
 70
0
 10
127.120000
 20
14.851048
 30
0.0
 10
127.120000
 20
19.851368
 30
0.0
 10
131.876535
 20
21.396248
 30
0.0
 10
134.813232
 20
17.351208
 30
0.0
 10
131.876535
 20
13.306168
 30
0.0
 10
127.120000
 20
14.851048
 30
0.0
  0
LWPOLYLINE
  5
10e
100
AcDbEntity
  8
0
 62
7
100
AcDbPolyline
 90
6
 70
0
 10
127.120000
 20
85.717128
 30
0.0
 10
127.120000
 20
90.717448
 30
0.0
 10
131.876535
 20
92.262328
 30
0.0
 10
134.813232
 20
88.217288
 30
0.0
 10
131.876535
 20
84.172248
 30
0.0
 10
127.120000
 20
85.717128
 30
0.0
  0
LWPOLYLINE
  5
10f
100
AcDbEntity
  8
0
 62
7
100
AcDbPolyline
 90
6
 70
0
 10
127.120000
 20
128.236840
 30
0.0
 10
127.120000
 20
133.237160
 30
0.0
 10
131.876535
 20
134.782040
 30
0.0
 10
134.813232
 20
130.737000
 30
0.0
 10
131.876535
 20
126.691960
 30
0.0
 10
127.120000
 20
128.236840
 30
0.0
  0
LWPOLYLINE
  5
110
100
AcDbEntity
  8
0
 62
7
100
AcDbPolyline
 90
6
 70
0
 10
127.120000
 20
199.102984
 30
0.0
 10
127.120000
 20
204.103296
 30
0.0
 10
131.876535
 20
205.648184
 30
0.0
 10
134.813232
 20
201.603144
 30
0.0
 10
131.876535
 20
197.558104
 30
0.0
 10
127.120000
 20
199.102984
 30
0.0
  0
LWPOLYLINE
  5
111
100
AcDbEntity
  8
0
 62
7
100
AcDbPolyline
 90
21
 70
0
 10
143.889760
 20
149.148024
 30
0.0
 10
143.889760
 20
159.072120
 30
0.0
 10
146.194328
 20
159.072120
 30
0.0
 10
146.194328
 20
173.268024
 30
0.0
 10
143.889760
 20
173.268024
 30
0.0
 10
143.889760
 20
183.192120
 30
0.0
 10
146.194328
 20
183.192120
 30
0.0
 10
146.194328
 20
185.970072
 30
0.0
 10
185.794328
 20
185.970072
 30
0.0
 10
185.794328
 20
183.192120
 30
0.0
 10
188.098896
 20
183.192120
 30
0.0
 10
188.098896
 20
173.268024
 30
0.0
 10
185.794328
 20
173.268024
 30
0.0
 10
185.794328
 20
159.072120
 30
0.0
 10
188.098896
 20
159.072120
 30
0.0
 10
188.098896
 20
149.148024
 30
0.0
 10
185.794328
 20
149.148024
 30
0.0
 10
185.794328
 20
146.370072
 30
0.0
 10
146.194328
 20
146.370072
 30
0.0
 10
146.194328
 20
149.148024
 30
0.0
 10
143.889760
 20
149.148024
 30
0.0
  0
LWPOLYLINE
  5
112
100
AcDbEntity
  8
0
 62
7
100
AcDbPolyline
 90
5
 70
0
 10
146.151808
 20
32.941688
 30
0.0
 10
146.151808
 20
72.626728
 30
0.0
 10
185.836848
 20
72.626728
 30
0.0
 10
185.836848
 20
32.941688
 30
0.0
 10
146.151808
 20
32.941688
 30
0.0
  0
LWPOLYLINE
  5
113
100
AcDbEntity
  8
0
 62
7
100
AcDbPolyline
 90
6
 70
0
 10
197.986144
 20
14.851048
 30
0.0
 10
197.986144
 20
19.851368
 30
0.0
 10
202.742680
 20
21.396248
 30
0.0
 10
205.679368
 20
17.351208
 30
0.0
 10
202.742680
 20
13.306168
 30
0.0
 10
197.986144
 20
14.851048
 30
0.0
  0
LWPOLYLINE
  5
114
100
AcDbEntity
  8
0
 62
7
100
AcDbPolyline
 90
6
 70
0
 10
197.986144
 20
85.717128
 30
0.0
 10
197.986144
 20
90.717448
 30
0.0
 10
202.742680
 20
92.262328
 30
0.0
 10
205.679368
 20
88.217288
 30
0.0
 10
202.742680
 20
84.172248
 30
0.0
 10
197.986144
 20
85.717128
 30
0.0
  0
LWPOLYLINE
  5
115
100
AcDbEntity
  8
0
 62
7
100
AcDbPolyline
 90
6
 70
0
 10
197.986144
 20
128.236840
 30
0.0
 10
197.986144
 20
133.237160
 30
0.0
 10
202.742680
 20
134.782040
 30
0.0
 10
205.679368
 20
130.737000
 30
0.0
 10
202.742680
 20
126.691960
 30
0.0
 10
197.986144
 20
128.236840
 30
0.0
  0
LWPOLYLINE
  5
116
100
AcDbEntity
  8
0
 62
7
100
AcDbPolyline
 90
6
 70
0
 10
197.986144
 20
199.102984
 30
0.0
 10
197.986144
 20
204.103296
 30
0.0
 10
202.742680
 20
205.648184
 30
0.0
 10
205.679368
 20
201.603144
 30
0.0
 10
202.742680
 20
197.558104
 30
0.0
 10
197.986144
 20
199.102984
 30
0.0
  0
ENDSEC
  0
SECTION
  2
OBJECTS
  0
DICTIONARY
  5
C
330
0
100
AcDbDictionary
  3
ACAD_GROUP
350
D
  3
ACAD_MLINESTYLE
350
17
  0
DICTIONARY
  5
D
330
C
100
AcDbDictionary
  0
DICTIONARY
  5
1A
330
C
100
AcDbDictionary
  0
DICTIONARY
  5
17
330
C
100
AcDbDictionary
  3
STANDARD
350
18
  0
DICTIONARY
  5
19
330
C
100
AcDbDictionary
  0
ENDSEC
  0
EOF
