  0
SECTION
  2
BLOCKS
  0
ENDSEC
  0
SECTION
  2
ENTITIES
  0
LINE
  8
0
 10
-15
 11
-15
 20
-15
 21
-5
  0
LINE
  8
0
 10
-15
 11
-5
 20
-5
 21
-5
  0
LINE
  8
0
 10
-5
 11
-5
 20
-5
 21
-15
  0
LINE
  8
0
 10
-5
 11
-15
 20
-15
 21
-15
  0
LINE
  8
0
 10
2.616
 11
2.616
 20
5.543
 21
32.457
  0
LINE
  8
0
 10
2.616
 11
3.506
 20
32.457
 21
34.152
  0
LINE
  8
0
 10
3.506
 11
5.082
 20
34.152
 21
35.24
  0
LINE
  8
0
 10
5.082
 11
6.982
 20
35.24
 21
35.471
  0
LINE
  8
0
 10
6.982
 11
31.982
 20
35.471
 21
35.471
  0
LINE
  8
0
 10
31.982
 11
33.772
 20
35.471
 21
34.792
  0
LINE
  8
0
 10
33.772
 11
35.042
 20
34.792
 21
33.359
  0
LINE
  8
0
 10
35.042
 11
35.5
 20
33.359
 21
31.5
  0
LINE
  8
0
 10
35.5
 11
35.5
 20
31.5
 21
6.5
  0
LINE
  8
0
 10
35.5
 11
35.042
 20
6.5
 21
4.641
  0
LINE
  8
0
 10
35.042
 11
33.772
 20
4.641
 21
3.208
  0
LINE
  8
0
 10
33.772
 11
31.982
 20
3.208
 21
2.529
  0
LINE
  8
0
 10
31.982
 11
6.982
 20
2.529
 21
2.529
  0
LINE
  8
0
 10
6.982
 11
5.082
 20
2.529
 21
2.76
  0
LINE
  8
0
 10
5.082
 11
3.506
 20
2.76
 21
3.848
  0
LINE
  8
0
 10
3.506
 11
2.616
 20
3.848
 21
5.543
  0
LINE
  8
0
 10
2.616
 11
2.616
 20
45.543
 21
72.457
  0
LINE
  8
0
 10
2.616
 11
3.506
 20
72.457
 21
74.152
  0
LINE
  8
0
 10
3.506
 11
5.082
 20
74.152
 21
75.24
  0
LINE
  8
0
 10
5.082
 11
6.982
 20
75.24
 21
75.471
  0
LINE
  8
0
 10
6.982
 11
126.982
 20
75.471
 21
75.471
  0
LINE
  8
0
 10
126.982
 11
128.772
 20
75.471
 21
74.792
  0
LINE
  8
0
 10
128.772
 11
130.042
 20
74.792
 21
73.359
  0
LINE
  8
0
 10
130.042
 11
130.5
 20
73.359
 21
71.5
  0
LINE
  8
0
 10
130.5
 11
130.5
 20
71.5
 21
46.5
  0
LINE
  8
0
 10
130.5
 11
130.042
 20
46.5
 21
44.641
  0
LINE
  8
0
 10
130.042
 11
128.772
 20
44.641
 21
43.208
  0
LINE
  8
0
 10
128.772
 11
126.982
 20
43.208
 21
42.529
  0
LINE
  8
0
 10
126.982
 11
6.982
 20
42.529
 21
42.529
  0
LINE
  8
0
 10
6.982
 11
5.082
 20
42.529
 21
42.76
  0
LINE
  8
0
 10
5.082
 11
3.506
 20
42.76
 21
43.848
  0
LINE
  8
0
 10
3.506
 11
2.616
 20
43.848
 21
45.543
  0
LINE
  8
0
 10
5.286
 11
5.286
 20
5.618
 21
7.382
  0
LINE
  8
0
 10
5.286
 11
6.964
 20
7.382
 21
7.927
  0
LINE
  8
0
 10
6.964
 11
8
 20
7.927
 21
6.5
  0
LINE
  8
0
 10
8
 11
6.964
 20
6.5
 21
5.073
  0
LINE
  8
0
 10
6.964
 11
5.286
 20
5.073
 21
5.618
  0
LINE
  8
0
 10
5.286
 11
5.286
 20
30.618
 21
32.382
  0
LINE
  8
0
 10
5.286
 11
6.964
 20
32.382
 21
32.927
  0
LINE
  8
0
 10
6.964
 11
8
 20
32.927
 21
31.5
  0
LINE
  8
0
 10
8
 11
6.964
 20
31.5
 21
30.073
  0
LINE
  8
0
 10
6.964
 11
5.286
 20
30.073
 21
30.618
  0
LINE
  8
0
 10
5.691
 11
5.691
 20
58.412
 21
59.588
  0
LINE
  8
0
 10
5.691
 11
6.809
 20
59.588
 21
59.951
  0
LINE
  8
0
 10
6.809
 11
7.5
 20
59.951
 21
59
  0
LINE
  8
0
 10
7.5
 11
6.809
 20
59
 21
58.049
  0
LINE
  8
0
 10
6.809
 11
5.691
 20
58.049
 21
58.412
  0
LINE
  8
0
 10
11.202
 11
11.202
 20
52.995
 21
56.496
  0
LINE
  8
0
 10
11.202
 11
12.015
 20
56.496
 21
56.496
  0
LINE
  8
0
 10
12.015
 11
12.015
 20
56.496
 21
61.504
  0
LINE
  8
0
 10
12.015
 11
11.202
 20
61.504
 21
61.504
  0
LINE
  8
0
 10
11.202
 11
11.202
 20
61.504
 21
65.005
  0
LINE
  8
0
 10
11.202
 11
12.015
 20
65.005
 21
65.005
  0
LINE
  8
0
 10
12.015
 11
12.015
 20
65.005
 21
65.985
  0
LINE
  8
0
 10
12.015
 11
25.985
 20
65.985
 21
65.985
  0
LINE
  8
0
 10
25.985
 11
25.985
 20
65.985
 21
65.005
  0
LINE
  8
0
 10
25.985
 11
26.798
 20
65.005
 21
65.005
  0
LINE
  8
0
 10
26.798
 11
26.798
 20
65.005
 21
61.504
  0
LINE
  8
0
 10
26.798
 11
25.985
 20
61.504
 21
61.504
  0
LINE
  8
0
 10
25.985
 11
25.985
 20
61.504
 21
56.496
  0
LINE
  8
0
 10
25.985
 11
26.798
 20
56.496
 21
56.496
  0
LINE
  8
0
 10
26.798
 11
26.798
 20
56.496
 21
52.995
  0
LINE
  8
0
 10
26.798
 11
25.985
 20
52.995
 21
52.995
  0
LINE
  8
0
 10
25.985
 11
25.985
 20
52.995
 21
52.015
  0
LINE
  8
0
 10
25.985
 11
12.015
 20
52.015
 21
52.015
  0
LINE
  8
0
 10
12.015
 11
12.015
 20
52.015
 21
52.995
  0
LINE
  8
0
 10
12.015
 11
11.202
 20
52.995
 21
52.995
  0
LINE
  8
0
 10
30.202
 11
30.202
 20
52.995
 21
56.496
  0
LINE
  8
0
 10
30.202
 11
31.04
 20
56.496
 21
56.496
  0
LINE
  8
0
 10
31.04
 11
31.04
 20
56.496
 21
61.504
  0
LINE
  8
0
 10
31.04
 11
30.202
 20
61.504
 21
61.504
  0
LINE
  8
0
 10
30.202
 11
30.202
 20
61.504
 21
65.005
  0
LINE
  8
0
 10
30.202
 11
31.04
 20
65.005
 21
65.005
  0
LINE
  8
0
 10
31.04
 11
31.04
 20
65.005
 21
65.96
  0
LINE
  8
0
 10
31.04
 11
44.96
 20
65.96
 21
65.96
  0
LINE
  8
0
 10
44.96
 11
44.96
 20
65.96
 21
65.005
  0
LINE
  8
0
 10
44.96
 11
45.798
 20
65.005
 21
65.005
  0
LINE
  8
0
 10
45.798
 11
45.798
 20
65.005
 21
61.504
  0
LINE
  8
0
 10
45.798
 11
44.96
 20
61.504
 21
61.504
  0
LINE
  8
0
 10
44.96
 11
44.96
 20
61.504
 21
56.496
  0
LINE
  8
0
 10
44.96
 11
45.798
 20
56.496
 21
56.496
  0
LINE
  8
0
 10
45.798
 11
45.798
 20
56.496
 21
52.995
  0
LINE
  8
0
 10
45.798
 11
44.96
 20
52.995
 21
52.995
  0
LINE
  8
0
 10
44.96
 11
44.96
 20
52.995
 21
52.04
  0
LINE
  8
0
 10
44.96
 11
31.04
 20
52.04
 21
52.04
  0
LINE
  8
0
 10
31.04
 11
31.04
 20
52.04
 21
52.995
  0
LINE
  8
0
 10
31.04
 11
30.202
 20
52.995
 21
52.995
  0
LINE
  8
0
 10
30.286
 11
30.286
 20
5.618
 21
7.382
  0
LINE
  8
0
 10
30.286
 11
31.964
 20
7.382
 21
7.927
  0
LINE
  8
0
 10
31.964
 11
33
 20
7.927
 21
6.5
  0
LINE
  8
0
 10
33
 11
31.964
 20
6.5
 21
5.073
  0
LINE
  8
0
 10
31.964
 11
30.286
 20
5.073
 21
5.618
  0
LINE
  8
0
 10
30.286
 11
30.286
 20
30.618
 21
32.382
  0
LINE
  8
0
 10
30.286
 11
31.964
 20
32.382
 21
32.927
  0
LINE
  8
0
 10
31.964
 11
33
 20
32.927
 21
31.5
  0
LINE
  8
0
 10
33
 11
31.964
 20
31.5
 21
30.073
  0
LINE
  8
0
 10
31.964
 11
30.286
 20
30.073
 21
30.618
  0
LINE
  8
0
 10
42.616
 11
42.616
 20
5.543
 21
32.457
  0
LINE
  8
0
 10
42.616
 11
43.506
 20
32.457
 21
34.152
  0
LINE
  8
0
 10
43.506
 11
45.082
 20
34.152
 21
35.24
  0
LINE
  8
0
 10
45.082
 11
46.982
 20
35.24
 21
35.471
  0
LINE
  8
0
 10
46.982
 11
53
 20
35.471
 21
35.471
  0
LINE
  8
0
 10
53
 11
53
 20
35.471
 21
35.412
  0
LINE
  8
0
 10
53
 11
53.482
 20
35.412
 21
35.471
  0
LINE
  8
0
 10
53.482
 11
55.272
 20
35.471
 21
34.792
  0
LINE
  8
0
 10
55.272
 11
56.542
 20
34.792
 21
33.359
  0
LINE
  8
0
 10
56.542
 11
57
 20
33.359
 21
31.5
  0
LINE
  8
0
 10
57
 11
56.542
 20
31.5
 21
29.641
  0
LINE
  8
0
 10
56.542
 11
55.272
 20
29.641
 21
28.208
  0
LINE
  8
0
 10
55.272
 11
53.482
 20
28.208
 21
27.529
  0
LINE
  8
0
 10
53.482
 11
53
 20
27.529
 21
27.588
  0
LINE
  8
0
 10
53
 11
53
 20
27.588
 21
27.5
  0
LINE
  8
0
 10
53
 11
50.5
 20
27.5
 21
27.5
  0
LINE
  8
0
 10
50.5
 11
50.5
 20
27.5
 21
10.5
  0
LINE
  8
0
 10
50.5
 11
67.5
 20
10.5
 21
10.5
  0
LINE
  8
0
 10
67.5
 11
67.5
 20
10.5
 21
27.5
  0
LINE
  8
0
 10
67.5
 11
65
 20
27.5
 21
27.5
  0
LINE
  8
0
 10
65
 11
65
 20
27.5
 21
27.588
  0
LINE
  8
0
 10
65
 11
63.582
 20
27.588
 21
27.76
  0
LINE
  8
0
 10
63.582
 11
62.006
 20
27.76
 21
28.848
  0
LINE
  8
0
 10
62.006
 11
61.116
 20
28.848
 21
30.543
  0
LINE
  8
0
 10
61.116
 11
61.116
 20
30.543
 21
32.457
  0
LINE
  8
0
 10
61.116
 11
62.006
 20
32.457
 21
34.152
  0
LINE
  8
0
 10
62.006
 11
63.582
 20
34.152
 21
35.24
  0
LINE
  8
0
 10
63.582
 11
65
 20
35.24
 21
35.412
  0
LINE
  8
0
 10
65
 11
65
 20
35.412
 21
35.471
  0
LINE
  8
0
 10
65
 11
71.982
 20
35.471
 21
35.471
  0
LINE
  8
0
 10
71.982
 11
73.772
 20
35.471
 21
34.792
  0
LINE
  8
0
 10
73.772
 11
75.042
 20
34.792
 21
33.359
  0
LINE
  8
0
 10
75.042
 11
75.5
 20
33.359
 21
31.5
  0
LINE
  8
0
 10
75.5
 11
75.5
 20
31.5
 21
6.5
  0
LINE
  8
0
 10
75.5
 11
75.042
 20
6.5
 21
4.641
  0
LINE
  8
0
 10
75.042
 11
73.772
 20
4.641
 21
3.208
  0
LINE
  8
0
 10
73.772
 11
71.982
 20
3.208
 21
2.529
  0
LINE
  8
0
 10
71.982
 11
46.982
 20
2.529
 21
2.529
  0
LINE
  8
0
 10
46.982
 11
45.082
 20
2.529
 21
2.76
  0
LINE
  8
0
 10
45.082
 11
43.506
 20
2.76
 21
3.848
  0
LINE
  8
0
 10
43.506
 11
42.616
 20
3.848
 21
5.543
  0
LINE
  8
0
 10
45.286
 11
45.286
 20
5.618
 21
7.382
  0
LINE
  8
0
 10
45.286
 11
46.964
 20
7.382
 21
7.927
  0
LINE
  8
0
 10
46.964
 11
48
 20
7.927
 21
6.5
  0
LINE
  8
0
 10
48
 11
46.964
 20
6.5
 21
5.073
  0
LINE
  8
0
 10
46.964
 11
45.286
 20
5.073
 21
5.618
  0
LINE
  8
0
 10
45.286
 11
45.286
 20
30.618
 21
32.382
  0
LINE
  8
0
 10
45.286
 11
46.964
 20
32.382
 21
32.927
  0
LINE
  8
0
 10
46.964
 11
48
 20
32.927
 21
31.5
  0
LINE
  8
0
 10
48
 11
46.964
 20
31.5
 21
30.073
  0
LINE
  8
0
 10
46.964
 11
45.286
 20
30.073
 21
30.618
  0
LINE
  8
0
 10
49.202
 11
49.202
 20
52.995
 21
56.496
  0
LINE
  8
0
 10
49.202
 11
50.065
 20
56.496
 21
56.496
  0
LINE
  8
0
 10
50.065
 11
50.065
 20
56.496
 21
61.504
  0
LINE
  8
0
 10
50.065
 11
49.202
 20
61.504
 21
61.504
  0
LINE
  8
0
 10
49.202
 11
49.202
 20
61.504
 21
65.005
  0
LINE
  8
0
 10
49.202
 11
50.065
 20
65.005
 21
65.005
  0
LINE
  8
0
 10
50.065
 11
50.065
 20
65.005
 21
65.935
  0
LINE
  8
0
 10
50.065
 11
63.935
 20
65.935
 21
65.935
  0
LINE
  8
0
 10
63.935
 11
63.935
 20
65.935
 21
65.005
  0
LINE
  8
0
 10
63.935
 11
64.798
 20
65.005
 21
65.005
  0
LINE
  8
0
 10
64.798
 11
64.798
 20
65.005
 21
61.504
  0
LINE
  8
0
 10
64.798
 11
63.935
 20
61.504
 21
61.504
  0
LINE
  8
0
 10
63.935
 11
63.935
 20
61.504
 21
56.496
  0
LINE
  8
0
 10
63.935
 11
64.798
 20
56.496
 21
56.496
  0
LINE
  8
0
 10
64.798
 11
64.798
 20
56.496
 21
52.995
  0
LINE
  8
0
 10
64.798
 11
63.935
 20
52.995
 21
52.995
  0
LINE
  8
0
 10
63.935
 11
63.935
 20
52.995
 21
52.065
  0
LINE
  8
0
 10
63.935
 11
50.065
 20
52.065
 21
52.065
  0
LINE
  8
0
 10
50.065
 11
50.065
 20
52.065
 21
52.995
  0
LINE
  8
0
 10
50.065
 11
49.202
 20
52.995
 21
52.995
  0
LINE
  8
0
 10
68.202
 11
68.202
 20
52.995
 21
56.496
  0
LINE
  8
0
 10
68.202
 11
69.09
 20
56.496
 21
56.496
  0
LINE
  8
0
 10
69.09
 11
69.09
 20
56.496
 21
61.504
  0
LINE
  8
0
 10
69.09
 11
68.202
 20
61.504
 21
61.504
  0
LINE
  8
0
 10
68.202
 11
68.202
 20
61.504
 21
65.005
  0
LINE
  8
0
 10
68.202
 11
69.09
 20
65.005
 21
65.005
  0
LINE
  8
0
 10
69.09
 11
69.09
 20
65.005
 21
65.91
  0
LINE
  8
0
 10
69.09
 11
82.91
 20
65.91
 21
65.91
  0
LINE
  8
0
 10
82.91
 11
82.91
 20
65.91
 21
65.005
  0
LINE
  8
0
 10
82.91
 11
83.798
 20
65.005
 21
65.005
  0
LINE
  8
0
 10
83.798
 11
83.798
 20
65.005
 21
61.504
  0
LINE
  8
0
 10
83.798
 11
82.91
 20
61.504
 21
61.504
  0
LINE
  8
0
 10
82.91
 11
82.91
 20
61.504
 21
56.496
  0
LINE
  8
0
 10
82.91
 11
83.798
 20
56.496
 21
56.496
  0
LINE
  8
0
 10
83.798
 11
83.798
 20
56.496
 21
52.995
  0
LINE
  8
0
 10
83.798
 11
82.91
 20
52.995
 21
52.995
  0
LINE
  8
0
 10
82.91
 11
82.91
 20
52.995
 21
52.09
  0
LINE
  8
0
 10
82.91
 11
69.09
 20
52.09
 21
52.09
  0
LINE
  8
0
 10
69.09
 11
69.09
 20
52.09
 21
52.995
  0
LINE
  8
0
 10
69.09
 11
68.202
 20
52.995
 21
52.995
  0
LINE
  8
0
 10
70.286
 11
70.286
 20
5.618
 21
7.382
  0
LINE
  8
0
 10
70.286
 11
71.964
 20
7.382
 21
7.927
  0
LINE
  8
0
 10
71.964
 11
73
 20
7.927
 21
6.5
  0
LINE
  8
0
 10
73
 11
71.964
 20
6.5
 21
5.073
  0
LINE
  8
0
 10
71.964
 11
70.286
 20
5.073
 21
5.618
  0
LINE
  8
0
 10
70.286
 11
70.286
 20
30.618
 21
32.382
  0
LINE
  8
0
 10
70.286
 11
71.964
 20
32.382
 21
32.927
  0
LINE
  8
0
 10
71.964
 11
73
 20
32.927
 21
31.5
  0
LINE
  8
0
 10
73
 11
71.964
 20
31.5
 21
30.073
  0
LINE
  8
0
 10
71.964
 11
70.286
 20
30.073
 21
30.618
  0
LINE
  8
0
 10
82.616
 11
82.616
 20
5.543
 21
32.457
  0
LINE
  8
0
 10
82.616
 11
83.506
 20
32.457
 21
34.152
  0
LINE
  8
0
 10
83.506
 11
85.082
 20
34.152
 21
35.24
  0
LINE
  8
0
 10
85.082
 11
86.982
 20
35.24
 21
35.471
  0
LINE
  8
0
 10
86.982
 11
111.982
 20
35.471
 21
35.471
  0
LINE
  8
0
 10
111.982
 11
113.772
 20
35.471
 21
34.792
  0
LINE
  8
0
 10
113.772
 11
115.042
 20
34.792
 21
33.359
  0
LINE
  8
0
 10
115.042
 11
115.5
 20
33.359
 21
31.5
  0
LINE
  8
0
 10
115.5
 11
115.5
 20
31.5
 21
6.5
  0
LINE
  8
0
 10
115.5
 11
115.042
 20
6.5
 21
4.641
  0
LINE
  8
0
 10
115.042
 11
113.772
 20
4.641
 21
3.208
  0
LINE
  8
0
 10
113.772
 11
111.982
 20
3.208
 21
2.529
  0
LINE
  8
0
 10
111.982
 11
86.982
 20
2.529
 21
2.529
  0
LINE
  8
0
 10
86.982
 11
85.082
 20
2.529
 21
2.76
  0
LINE
  8
0
 10
85.082
 11
83.506
 20
2.76
 21
3.848
  0
LINE
  8
0
 10
83.506
 11
82.616
 20
3.848
 21
5.543
  0
LINE
  8
0
 10
85.286
 11
85.286
 20
5.618
 21
7.382
  0
LINE
  8
0
 10
85.286
 11
86.964
 20
7.382
 21
7.927
  0
LINE
  8
0
 10
86.964
 11
88
 20
7.927
 21
6.5
  0
LINE
  8
0
 10
88
 11
86.964
 20
6.5
 21
5.073
  0
LINE
  8
0
 10
86.964
 11
85.286
 20
5.073
 21
5.618
  0
LINE
  8
0
 10
85.286
 11
85.286
 20
30.618
 21
32.382
  0
LINE
  8
0
 10
85.286
 11
86.964
 20
32.382
 21
32.927
  0
LINE
  8
0
 10
86.964
 11
88
 20
32.927
 21
31.5
  0
LINE
  8
0
 10
88
 11
86.964
 20
31.5
 21
30.073
  0
LINE
  8
0
 10
86.964
 11
85.286
 20
30.073
 21
30.618
  0
LINE
  8
0
 10
87.202
 11
87.202
 20
52.995
 21
56.496
  0
LINE
  8
0
 10
87.202
 11
88.115
 20
56.496
 21
56.496
  0
LINE
  8
0
 10
88.115
 11
88.115
 20
56.496
 21
61.504
  0
LINE
  8
0
 10
88.115
 11
87.202
 20
61.504
 21
61.504
  0
LINE
  8
0
 10
87.202
 11
87.202
 20
61.504
 21
65.005
  0
LINE
  8
0
 10
87.202
 11
88.115
 20
65.005
 21
65.005
  0
LINE
  8
0
 10
88.115
 11
88.115
 20
65.005
 21
65.885
  0
LINE
  8
0
 10
88.115
 11
101.885
 20
65.885
 21
65.885
  0
LINE
  8
0
 10
101.885
 11
101.885
 20
65.885
 21
65.005
  0
LINE
  8
0
 10
101.885
 11
102.798
 20
65.005
 21
65.005
  0
LINE
  8
0
 10
102.798
 11
102.798
 20
65.005
 21
61.504
  0
LINE
  8
0
 10
102.798
 11
101.885
 20
61.504
 21
61.504
  0
LINE
  8
0
 10
101.885
 11
101.885
 20
61.504
 21
56.496
  0
LINE
  8
0
 10
101.885
 11
102.798
 20
56.496
 21
56.496
  0
LINE
  8
0
 10
102.798
 11
102.798
 20
56.496
 21
52.995
  0
LINE
  8
0
 10
102.798
 11
101.885
 20
52.995
 21
52.995
  0
LINE
  8
0
 10
101.885
 11
101.885
 20
52.995
 21
52.115
  0
LINE
  8
0
 10
101.885
 11
88.115
 20
52.115
 21
52.115
  0
LINE
  8
0
 10
88.115
 11
88.115
 20
52.115
 21
52.995
  0
LINE
  8
0
 10
88.115
 11
87.202
 20
52.995
 21
52.995
  0
LINE
  8
0
 10
90.5
 11
90.5
 20
10.5
 21
27.5
  0
LINE
  8
0
 10
90.5
 11
107.5
 20
27.5
 21
27.5
  0
LINE
  8
0
 10
107.5
 11
107.5
 20
27.5
 21
10.5
  0
LINE
  8
0
 10
107.5
 11
90.5
 20
10.5
 21
10.5
  0
LINE
  8
0
 10
106.202
 11
106.202
 20
52.995
 21
56.496
  0
LINE
  8
0
 10
106.202
 11
107.14
 20
56.496
 21
56.496
  0
LINE
  8
0
 10
107.14
 11
107.14
 20
56.496
 21
61.504
  0
LINE
  8
0
 10
107.14
 11
106.202
 20
61.504
 21
61.504
  0
LINE
  8
0
 10
106.202
 11
106.202
 20
61.504
 21
65.005
  0
LINE
  8
0
 10
106.202
 11
107.14
 20
65.005
 21
65.005
  0
LINE
  8
0
 10
107.14
 11
107.14
 20
65.005
 21
65.86
  0
LINE
  8
0
 10
107.14
 11
120.86
 20
65.86
 21
65.86
  0
LINE
  8
0
 10
120.86
 11
120.86
 20
65.86
 21
65.005
  0
LINE
  8
0
 10
120.86
 11
121.798
 20
65.005
 21
65.005
  0
LINE
  8
0
 10
121.798
 11
121.798
 20
65.005
 21
61.504
  0
LINE
  8
0
 10
121.798
 11
120.86
 20
61.504
 21
61.504
  0
LINE
  8
0
 10
120.86
 11
120.86
 20
61.504
 21
56.496
  0
LINE
  8
0
 10
120.86
 11
121.798
 20
56.496
 21
56.496
  0
LINE
  8
0
 10
121.798
 11
121.798
 20
56.496
 21
52.995
  0
LINE
  8
0
 10
121.798
 11
120.86
 20
52.995
 21
52.995
  0
LINE
  8
0
 10
120.86
 11
120.86
 20
52.995
 21
52.14
  0
LINE
  8
0
 10
120.86
 11
107.14
 20
52.14
 21
52.14
  0
LINE
  8
0
 10
107.14
 11
107.14
 20
52.14
 21
52.995
  0
LINE
  8
0
 10
107.14
 11
106.202
 20
52.995
 21
52.995
  0
LINE
  8
0
 10
110.286
 11
110.286
 20
5.618
 21
7.382
  0
LINE
  8
0
 10
110.286
 11
111.964
 20
7.382
 21
7.927
  0
LINE
  8
0
 10
111.964
 11
113
 20
7.927
 21
6.5
  0
LINE
  8
0
 10
113
 11
111.964
 20
6.5
 21
5.073
  0
LINE
  8
0
 10
111.964
 11
110.286
 20
5.073
 21
5.618
  0
LINE
  8
0
 10
110.286
 11
110.286
 20
30.618
 21
32.382
  0
LINE
  8
0
 10
110.286
 11
111.964
 20
32.382
 21
32.927
  0
LINE
  8
0
 10
111.964
 11
113
 20
32.927
 21
31.5
  0
LINE
  8
0
 10
113
 11
111.964
 20
31.5
 21
30.073
  0
LINE
  8
0
 10
111.964
 11
110.286
 20
30.073
 21
30.618
  0
LINE
  8
0
 10
122.616
 11
122.616
 20
5.543
 21
32.457
  0
LINE
  8
0
 10
122.616
 11
123.506
 20
32.457
 21
34.152
  0
LINE
  8
0
 10
123.506
 11
125.082
 20
34.152
 21
35.24
  0
LINE
  8
0
 10
125.082
 11
126.982
 20
35.24
 21
35.471
  0
LINE
  8
0
 10
126.982
 11
151.982
 20
35.471
 21
35.471
  0
LINE
  8
0
 10
151.982
 11
153.772
 20
35.471
 21
34.792
  0
LINE
  8
0
 10
153.772
 11
155.042
 20
34.792
 21
33.359
  0
LINE
  8
0
 10
155.042
 11
155.5
 20
33.359
 21
31.5
  0
LINE
  8
0
 10
155.5
 11
155.5
 20
31.5
 21
6.5
  0
LINE
  8
0
 10
155.5
 11
155.042
 20
6.5
 21
4.641
  0
LINE
  8
0
 10
155.042
 11
153.772
 20
4.641
 21
3.208
  0
LINE
  8
0
 10
153.772
 11
151.982
 20
3.208
 21
2.529
  0
LINE
  8
0
 10
151.982
 11
126.982
 20
2.529
 21
2.529
  0
LINE
  8
0
 10
126.982
 11
125.082
 20
2.529
 21
2.76
  0
LINE
  8
0
 10
125.082
 11
123.506
 20
2.76
 21
3.848
  0
LINE
  8
0
 10
123.506
 11
122.616
 20
3.848
 21
5.543
  0
LINE
  8
0
 10
125.286
 11
125.286
 20
5.618
 21
7.382
  0
LINE
  8
0
 10
125.286
 11
126.964
 20
7.382
 21
7.927
  0
LINE
  8
0
 10
126.964
 11
128
 20
7.927
 21
6.5
  0
LINE
  8
0
 10
128
 11
126.964
 20
6.5
 21
5.073
  0
LINE
  8
0
 10
126.964
 11
125.286
 20
5.073
 21
5.618
  0
LINE
  8
0
 10
125.286
 11
125.286
 20
30.618
 21
32.382
  0
LINE
  8
0
 10
125.286
 11
126.964
 20
32.382
 21
32.927
  0
LINE
  8
0
 10
126.964
 11
128
 20
32.927
 21
31.5
  0
LINE
  8
0
 10
128
 11
126.964
 20
31.5
 21
30.073
  0
LINE
  8
0
 10
126.964
 11
125.286
 20
30.073
 21
30.618
  0
LINE
  8
0
 10
131.202
 11
131.202
 20
12.995
 21
16.496
  0
LINE
  8
0
 10
131.202
 11
132.015
 20
16.496
 21
16.496
  0
LINE
  8
0
 10
132.015
 11
132.015
 20
16.496
 21
21.504
  0
LINE
  8
0
 10
132.015
 11
131.202
 20
21.504
 21
21.504
  0
LINE
  8
0
 10
131.202
 11
131.202
 20
21.504
 21
25.005
  0
LINE
  8
0
 10
131.202
 11
132.015
 20
25.005
 21
25.005
  0
LINE
  8
0
 10
132.015
 11
132.015
 20
25.005
 21
25.985
  0
LINE
  8
0
 10
132.015
 11
145.985
 20
25.985
 21
25.985
  0
LINE
  8
0
 10
145.985
 11
145.985
 20
25.985
 21
25.005
  0
LINE
  8
0
 10
145.985
 11
146.798
 20
25.005
 21
25.005
  0
LINE
  8
0
 10
146.798
 11
146.798
 20
25.005
 21
21.504
  0
LINE
  8
0
 10
146.798
 11
145.985
 20
21.504
 21
21.504
  0
LINE
  8
0
 10
145.985
 11
145.985
 20
21.504
 21
16.496
  0
LINE
  8
0
 10
145.985
 11
146.798
 20
16.496
 21
16.496
  0
LINE
  8
0
 10
146.798
 11
146.798
 20
16.496
 21
12.995
  0
LINE
  8
0
 10
146.798
 11
145.985
 20
12.995
 21
12.995
  0
LINE
  8
0
 10
145.985
 11
145.985
 20
12.995
 21
12.015
  0
LINE
  8
0
 10
145.985
 11
132.015
 20
12.015
 21
12.015
  0
LINE
  8
0
 10
132.015
 11
132.015
 20
12.015
 21
12.995
  0
LINE
  8
0
 10
132.015
 11
131.202
 20
12.995
 21
12.995
  0
LINE
  8
0
 10
150.286
 11
150.286
 20
5.618
 21
7.382
  0
LINE
  8
0
 10
150.286
 11
151.964
 20
7.382
 21
7.927
  0
LINE
  8
0
 10
151.964
 11
153
 20
7.927
 21
6.5
  0
LINE
  8
0
 10
153
 11
151.964
 20
6.5
 21
5.073
  0
LINE
  8
0
 10
151.964
 11
150.286
 20
5.073
 21
5.618
  0
LINE
  8
0
 10
150.286
 11
150.286
 20
30.618
 21
32.382
  0
LINE
  8
0
 10
150.286
 11
151.964
 20
32.382
 21
32.927
  0
LINE
  8
0
 10
151.964
 11
153
 20
32.927
 21
31.5
  0
LINE
  8
0
 10
153
 11
151.964
 20
31.5
 21
30.073
  0
LINE
  8
0
 10
151.964
 11
150.286
 20
30.073
 21
30.618
  0
ENDSEC
  0
SECTION
  2
OBJECTS
  0
DICTIONARY
  0
ENDSEC
  0
EOF
