<?xml version="1.0" encoding="UTF-8" standalone="no"?>
<!-- Created with Inkscape (http://www.inkscape.org/) -->

<svg
   xmlns:dc="http://purl.org/dc/elements/1.1/"
   xmlns:cc="http://creativecommons.org/ns#"
   xmlns:rdf="http://www.w3.org/1999/02/22-rdf-syntax-ns#"
   xmlns:svg="http://www.w3.org/2000/svg"
   xmlns="http://www.w3.org/2000/svg"
   version="1.1"
   width="273.5441"
   height="273.6929"
   id="svg2985">
  <desc
     id="desc2987">/Users/alpha/Dropbox/src/github.com/kejadlen/alphadox/case/one_key.dxf - scale = 1.000000</desc>
  <metadata
     id="metadata3405">
    <rdf:RDF>
      <cc:Work
         rdf:about="">
        <dc:format>image/svg+xml</dc:format>
        <dc:type
           rdf:resource="http://purl.org/dc/dcmitype/StillImage" />
        <dc:title></dc:title>
      </cc:Work>
    </rdf:RDF>
  </metadata>
  <defs
     id="defs2989">
    <marker
       refX="0"
       refY="0"
       orient="auto"
       id="DistanceX"
       style="overflow:visible">
      <path
         d="M 3,-3 -3,3 M 0,-5 0,5"
         id="path2992"
         style="stroke:#000000;stroke-width:0.5" />
    </marker>
    <pattern
       y="0"
       x="0"
       width="8"
       patternUnits="userSpaceOnUse"
       id="Hatch"
       height="8">
      <path
         id="path2995"
         stroke-width="0.25"
         stroke="#000000"
         linecap="square"
         d="M8 4 l-4,4" />
      <path
         id="path2997"
         stroke-width="0.25"
         stroke="#000000"
         linecap="square"
         d="M6 2 l-4,4" />
      <path
         id="path2999"
         stroke-width="0.25"
         stroke="#000000"
         linecap="square"
         d="M4 0 l-4,4" />
    </pattern>
  </defs>
  <g
     transform="translate(65.76063,-844.64961)"
     id="g3001">
    <path
       d="m -65.26063,1100.1543 0,-95.5842"
       id="path3003"
       style="fill:none;stroke:#000000" />
    <path
       d="m -65.26063,1004.5701 2.27126,-6.61892"
       id="path3005"
       style="fill:none;stroke:#000000" />
    <path
       d="m -62.98937,997.95118 4.298031,-5.52047"
       id="path3007"
       style="fill:none;stroke:#000000" />
    <path
       d="m -58.691339,992.43071 5.86063,-3.83032"
       id="path3009"
       style="fill:none;stroke:#000000" />
    <path
       d="m -52.830709,988.60039 6.785433,-1.7185"
       id="path3011"
       style="fill:none;stroke:#000000" />
    <path
       d="m -46.045276,986.88189 88.582678,0"
       id="path3013"
       style="fill:none;stroke:#000000" />
    <path
       d="m 42.537402,986.88189 6.973228,0.5811"
       id="path3015"
       style="fill:none;stroke:#000000" />
    <path
       d="m 49.51063,987.46299 6.409842,2.80984"
       id="path3017"
       style="fill:none;stroke:#000000" />
    <path
       d="m 55.920472,990.27283 5.148426,4.74095"
       id="path3019"
       style="fill:none;stroke:#000000" />
    <path
       d="m 61.068898,995.01378 3.330708,6.15472"
       id="path3021"
       style="fill:none;stroke:#000000" />
    <path
       d="m 64.399606,1001.1685 1.151575,6.9024"
       id="path3023"
       style="fill:none;stroke:#000000" />
    <path
       d="m 65.551181,1008.0709 0,88.5826"
       id="path3025"
       style="fill:none;stroke:#000000" />
    <path
       d="m 65.551181,1096.6535 -1.151575,6.9024"
       id="path3027"
       style="fill:none;stroke:#000000" />
    <path
       d="m 64.399606,1103.5559 -3.330708,6.1547"
       id="path3029"
       style="fill:none;stroke:#000000" />
    <path
       d="m 61.068898,1109.7106 -5.148426,4.741"
       id="path3031"
       style="fill:none;stroke:#000000" />
    <path
       d="m 55.920472,1114.4516 -6.409842,2.8098"
       id="path3033"
       style="fill:none;stroke:#000000" />
    <path
       d="m 49.51063,1117.2614 -6.973228,0.5811"
       id="path3035"
       style="fill:none;stroke:#000000" />
    <path
       d="m 42.537402,1117.8425 -88.582678,0"
       id="path3037"
       style="fill:none;stroke:#000000" />
    <path
       d="m -46.045276,1117.8425 -6.785433,-1.7185"
       id="path3039"
       style="fill:none;stroke:#000000" />
    <path
       d="m -52.830709,1116.124 -5.86063,-3.8303"
       id="path3041"
       style="fill:none;stroke:#000000" />
    <path
       d="m -58.691339,1112.2937 -4.298031,-5.5205"
       id="path3043"
       style="fill:none;stroke:#000000" />
    <path
       d="m -62.98937,1106.7732 -2.27126,-6.6189"
       id="path3045"
       style="fill:none;stroke:#000000" />
    <path
       d="m -65.26063,958.42205 0,-95.58425"
       id="path3047"
       style="fill:none;stroke:#000000" />
    <path
       d="m -65.26063,862.8378 2.27126,-6.6189"
       id="path3049"
       style="fill:none;stroke:#000000" />
    <path
       d="m -62.98937,856.2189 4.298031,-5.52047"
       id="path3051"
       style="fill:none;stroke:#000000" />
    <path
       d="m -58.691339,850.69843 5.86063,-3.83032"
       id="path3053"
       style="fill:none;stroke:#000000" />
    <path
       d="m -52.830709,846.86811 6.785433,-1.7185"
       id="path3055"
       style="fill:none;stroke:#000000" />
    <path
       d="m -46.045276,845.14961 21.242126,0"
       id="path3057"
       style="fill:none;stroke:#000000" />
    <path
       d="m -24.80315,845.14961 0,90.28346"
       id="path3059"
       style="fill:none;stroke:#000000" />
    <path
       d="m -24.80315,935.43307 49.6063,0"
       id="path3061"
       style="fill:none;stroke:#000000" />
    <path
       d="m 24.80315,935.43307 0,-90.28346"
       id="path3063"
       style="fill:none;stroke:#000000" />
    <path
       d="m 24.80315,845.14961 17.734252,0"
       id="path3065"
       style="fill:none;stroke:#000000" />
    <path
       d="m 42.537402,845.14961 6.973228,0.5811"
       id="path3067"
       style="fill:none;stroke:#000000" />
    <path
       d="m 49.51063,845.73071 6.409842,2.80984"
       id="path3069"
       style="fill:none;stroke:#000000" />
    <path
       d="m 55.920472,848.54055 5.148426,4.74095"
       id="path3071"
       style="fill:none;stroke:#000000" />
    <path
       d="m 61.068898,853.2815 3.330708,6.15472"
       id="path3073"
       style="fill:none;stroke:#000000" />
    <path
       d="m 64.399606,859.43622 1.151575,6.90236"
       id="path3075"
       style="fill:none;stroke:#000000" />
    <path
       d="m 65.551181,866.33858 0,88.58268"
       id="path3077"
       style="fill:none;stroke:#000000" />
    <path
       d="m 65.551181,954.92126 -1.151575,6.90236"
       id="path3079"
       style="fill:none;stroke:#000000" />
    <path
       d="m 64.399606,961.82362 -3.330708,6.15473"
       id="path3081"
       style="fill:none;stroke:#000000" />
    <path
       d="m 61.068898,967.97835 -5.148426,4.74094"
       id="path3083"
       style="fill:none;stroke:#000000" />
    <path
       d="m 55.920472,972.71929 -6.409842,2.80984"
       id="path3085"
       style="fill:none;stroke:#000000" />
    <path
       d="m 49.51063,975.52913 -6.973228,0.58111"
       id="path3087"
       style="fill:none;stroke:#000000" />
    <path
       d="m 42.537402,976.11024 -88.582678,0"
       id="path3089"
       style="fill:none;stroke:#000000" />
    <path
       d="m -46.045276,976.11024 -6.785433,-1.71851"
       id="path3091"
       style="fill:none;stroke:#000000" />
    <path
       d="m -52.830709,974.39173 -5.86063,-3.83031"
       id="path3093"
       style="fill:none;stroke:#000000" />
    <path
       d="m -58.691339,970.56142 -4.298031,-5.52048"
       id="path3095"
       style="fill:none;stroke:#000000" />
    <path
       d="m -62.98937,965.04094 -2.27126,-6.61889"
       id="path3097"
       style="fill:none;stroke:#000000" />
    <path
       d="m -48.592913,1099.7787 0,-6.2504"
       id="path3099"
       style="fill:none;stroke:#000000" />
    <path
       d="m -48.592913,1093.5283 5.945669,-1.9311"
       id="path3101"
       style="fill:none;stroke:#000000" />
    <path
       d="m -42.647244,1091.5972 3.670866,5.0563"
       id="path3103"
       style="fill:none;stroke:#000000" />
    <path
       d="m -38.976378,1096.6535 -3.670866,5.0563"
       id="path3105"
       style="fill:none;stroke:#000000" />
    <path
       d="m -42.647244,1101.7098 -5.945669,-1.9311"
       id="path3107"
       style="fill:none;stroke:#000000" />
    <path
       d="m -48.592913,1011.1961 0,-6.2504"
       id="path3109"
       style="fill:none;stroke:#000000" />
    <path
       d="m -48.592913,1004.9457 5.945669,-1.9311"
       id="path3111"
       style="fill:none;stroke:#000000" />
    <path
       d="m -42.647244,1003.0146 3.670866,5.0563"
       id="path3113"
       style="fill:none;stroke:#000000" />
    <path
       d="m -38.976378,1008.0709 -3.670866,5.0563"
       id="path3115"
       style="fill:none;stroke:#000000" />
    <path
       d="m -42.647244,1013.1272 -5.945669,-1.9311"
       id="path3117"
       style="fill:none;stroke:#000000" />
    <path
       d="m -48.592913,958.04646 0,-6.2504"
       id="path3119"
       style="fill:none;stroke:#000000" />
    <path
       d="m -48.592913,951.79606 5.945669,-1.9311"
       id="path3121"
       style="fill:none;stroke:#000000" />
    <path
       d="m -42.647244,949.86496 3.670866,5.0563"
       id="path3123"
       style="fill:none;stroke:#000000" />
    <path
       d="m -38.976378,954.92126 -3.670866,5.0563"
       id="path3125"
       style="fill:none;stroke:#000000" />
    <path
       d="m -42.647244,959.97756 -5.945669,-1.9311"
       id="path3127"
       style="fill:none;stroke:#000000" />
    <path
       d="m -48.592913,869.46378 0,-6.25039"
       id="path3129"
       style="fill:none;stroke:#000000" />
    <path
       d="m -48.592913,863.21339 5.945669,-1.93111"
       id="path3131"
       style="fill:none;stroke:#000000" />
    <path
       d="m -42.647244,861.28228 3.670866,5.0563"
       id="path3133"
       style="fill:none;stroke:#000000" />
    <path
       d="m -38.976378,866.33858 -3.670866,5.0563"
       id="path3135"
       style="fill:none;stroke:#000000" />
    <path
       d="m -42.647244,871.39488 -5.945669,-1.9311"
       id="path3137"
       style="fill:none;stroke:#000000" />
    <path
       d="m -17.716535,928.34646 0,-35.43307"
       id="path3139"
       style="fill:none;stroke:#ff0000;stroke-opacity:1" />
    <path
       d="m -17.716535,892.91339 35.43307,0"
       id="path3141"
       style="fill:none;stroke:#ff0000;stroke-opacity:1" />
    <path
       d="m 17.716535,892.91339 0,35.43307"
       id="path3143"
       style="fill:none;stroke:#ff0000;stroke-opacity:1" />
    <path
       d="m 17.716535,928.34646 -35.43307,0"
       id="path3145"
       style="fill:none;stroke:#ff0000;stroke-opacity:1" />
    <path
       d="m 39.989764,1099.7787 0,-6.2504"
       id="path3147"
       style="fill:none;stroke:#000000" />
    <path
       d="m 39.989764,1093.5283 5.945669,-1.9311"
       id="path3149"
       style="fill:none;stroke:#000000" />
    <path
       d="m 45.935433,1091.5972 3.670866,5.0563"
       id="path3151"
       style="fill:none;stroke:#000000" />
    <path
       d="m 49.606299,1096.6535 -3.670866,5.0563"
       id="path3153"
       style="fill:none;stroke:#000000" />
    <path
       d="m 45.935433,1101.7098 -5.945669,-1.9311"
       id="path3155"
       style="fill:none;stroke:#000000" />
    <path
       d="m 39.989764,1011.1961 0,-6.2504"
       id="path3157"
       style="fill:none;stroke:#000000" />
    <path
       d="m 39.989764,1004.9457 5.945669,-1.9311"
       id="path3159"
       style="fill:none;stroke:#000000" />
    <path
       d="m 45.935433,1003.0146 3.670866,5.0563"
       id="path3161"
       style="fill:none;stroke:#000000" />
    <path
       d="m 49.606299,1008.0709 -3.670866,5.0563"
       id="path3163"
       style="fill:none;stroke:#000000" />
    <path
       d="m 45.935433,1013.1272 -5.945669,-1.9311"
       id="path3165"
       style="fill:none;stroke:#000000" />
    <path
       d="m 39.989764,958.04646 0,-6.2504"
       id="path3167"
       style="fill:none;stroke:#000000" />
    <path
       d="m 39.989764,951.79606 5.945669,-1.9311"
       id="path3169"
       style="fill:none;stroke:#000000" />
    <path
       d="m 45.935433,949.86496 3.670866,5.0563"
       id="path3171"
       style="fill:none;stroke:#000000" />
    <path
       d="m 49.606299,954.92126 -3.670866,5.0563"
       id="path3173"
       style="fill:none;stroke:#000000" />
    <path
       d="m 45.935433,959.97756 -5.945669,-1.9311"
       id="path3175"
       style="fill:none;stroke:#000000" />
    <path
       d="m 39.989764,869.46378 0,-6.25039"
       id="path3177"
       style="fill:none;stroke:#000000" />
    <path
       d="m 39.989764,863.21339 5.945669,-1.93111"
       id="path3179"
       style="fill:none;stroke:#000000" />
    <path
       d="m 45.935433,861.28228 3.670866,5.0563"
       id="path3181"
       style="fill:none;stroke:#000000" />
    <path
       d="m 49.606299,866.33858 -3.670866,5.0563"
       id="path3183"
       style="fill:none;stroke:#000000" />
    <path
       d="m 45.935433,871.39488 -5.945669,-1.9311"
       id="path3185"
       style="fill:none;stroke:#000000" />
    <path
       d="m 76.471654,1100.1543 0,-95.5842"
       id="path3187"
       style="fill:none;stroke:#000000" />
    <path
       d="m 76.471654,1004.5701 2.271259,-6.61892"
       id="path3189"
       style="fill:none;stroke:#000000" />
    <path
       d="m 78.742913,997.95118 4.298032,-5.52047"
       id="path3191"
       style="fill:none;stroke:#000000" />
    <path
       d="m 83.040945,992.43071 5.86063,-3.83032"
       id="path3193"
       style="fill:none;stroke:#000000" />
    <path
       d="m 88.901575,988.60039 6.785433,-1.7185"
       id="path3195"
       style="fill:none;stroke:#000000" />
    <path
       d="m 95.687008,986.88189 88.582672,0"
       id="path3197"
       style="fill:none;stroke:#000000" />
    <path
       d="m 184.26968,986.88189 6.97323,0.5811"
       id="path3199"
       style="fill:none;stroke:#000000" />
    <path
       d="m 191.24291,987.46299 6.40985,2.80984"
       id="path3201"
       style="fill:none;stroke:#000000" />
    <path
       d="m 197.65276,990.27283 5.14842,4.74095"
       id="path3203"
       style="fill:none;stroke:#000000" />
    <path
       d="m 202.80118,995.01378 3.33071,6.15472"
       id="path3205"
       style="fill:none;stroke:#000000" />
    <path
       d="m 206.13189,1001.1685 1.15157,6.9024"
       id="path3207"
       style="fill:none;stroke:#000000" />
    <path
       d="m 207.28346,1008.0709 0,88.5826"
       id="path3209"
       style="fill:none;stroke:#000000" />
    <path
       d="m 207.28346,1096.6535 -1.15157,6.9024"
       id="path3211"
       style="fill:none;stroke:#000000" />
    <path
       d="m 206.13189,1103.5559 -3.33071,6.1547"
       id="path3213"
       style="fill:none;stroke:#000000" />
    <path
       d="m 202.80118,1109.7106 -5.14842,4.741"
       id="path3215"
       style="fill:none;stroke:#000000" />
    <path
       d="m 197.65276,1114.4516 -6.40985,2.8098"
       id="path3217"
       style="fill:none;stroke:#000000" />
    <path
       d="m 191.24291,1117.2614 -6.97323,0.5811"
       id="path3219"
       style="fill:none;stroke:#000000" />
    <path
       d="m 184.26968,1117.8425 -88.582672,0"
       id="path3221"
       style="fill:none;stroke:#000000" />
    <path
       d="m 95.687008,1117.8425 -6.785433,-1.7185"
       id="path3223"
       style="fill:none;stroke:#000000" />
    <path
       d="m 88.901575,1116.124 -5.86063,-3.8303"
       id="path3225"
       style="fill:none;stroke:#000000" />
    <path
       d="m 83.040945,1112.2937 -4.298032,-5.5205"
       id="path3227"
       style="fill:none;stroke:#000000" />
    <path
       d="m 78.742913,1106.7732 -2.271259,-6.6189"
       id="path3229"
       style="fill:none;stroke:#000000" />
    <path
       d="m 76.471654,958.42205 0,-95.58425"
       id="path3231"
       style="fill:none;stroke:#000000" />
    <path
       d="m 76.471654,862.8378 2.271259,-6.6189"
       id="path3233"
       style="fill:none;stroke:#000000" />
    <path
       d="m 78.742913,856.2189 4.298032,-5.52047"
       id="path3235"
       style="fill:none;stroke:#000000" />
    <path
       d="m 83.040945,850.69843 5.86063,-3.83032"
       id="path3237"
       style="fill:none;stroke:#000000" />
    <path
       d="m 88.901575,846.86811 6.785433,-1.7185"
       id="path3239"
       style="fill:none;stroke:#000000" />
    <path
       d="m 95.687008,845.14961 88.582672,0"
       id="path3241"
       style="fill:none;stroke:#000000" />
    <path
       d="m 184.26968,845.14961 6.97323,0.5811"
       id="path3243"
       style="fill:none;stroke:#000000" />
    <path
       d="m 191.24291,845.73071 6.40985,2.80984"
       id="path3245"
       style="fill:none;stroke:#000000" />
    <path
       d="m 197.65276,848.54055 5.14842,4.74095"
       id="path3247"
       style="fill:none;stroke:#000000" />
    <path
       d="m 202.80118,853.2815 3.33071,6.15472"
       id="path3249"
       style="fill:none;stroke:#000000" />
    <path
       d="m 206.13189,859.43622 1.15157,6.90236"
       id="path3251"
       style="fill:none;stroke:#000000" />
    <path
       d="m 207.28346,866.33858 0,88.58268"
       id="path3253"
       style="fill:none;stroke:#000000" />
    <path
       d="m 207.28346,954.92126 -1.15157,6.90236"
       id="path3255"
       style="fill:none;stroke:#000000" />
    <path
       d="m 206.13189,961.82362 -3.33071,6.15473"
       id="path3257"
       style="fill:none;stroke:#000000" />
    <path
       d="m 202.80118,967.97835 -5.14842,4.74094"
       id="path3259"
       style="fill:none;stroke:#000000" />
    <path
       d="m 197.65276,972.71929 -6.40985,2.80984"
       id="path3261"
       style="fill:none;stroke:#000000" />
    <path
       d="m 191.24291,975.52913 -6.97323,0.58111"
       id="path3263"
       style="fill:none;stroke:#000000" />
    <path
       d="m 184.26968,976.11024 -88.582672,0"
       id="path3265"
       style="fill:none;stroke:#000000" />
    <path
       d="m 95.687008,976.11024 -6.785433,-1.71851"
       id="path3267"
       style="fill:none;stroke:#000000" />
    <path
       d="m 88.901575,974.39173 -5.86063,-3.83031"
       id="path3269"
       style="fill:none;stroke:#000000" />
    <path
       d="m 83.040945,970.56142 -4.298032,-5.52048"
       id="path3271"
       style="fill:none;stroke:#000000" />
    <path
       d="m 78.742913,965.04094 -2.271259,-6.61889"
       id="path3273"
       style="fill:none;stroke:#000000" />
    <path
       d="m 93.13937,1099.7787 0,-6.2504"
       id="path3275"
       style="fill:none;stroke:#000000" />
    <path
       d="m 93.13937,1093.5283 5.945669,-1.9311"
       id="path3277"
       style="fill:none;stroke:#000000" />
    <path
       d="m 99.085039,1091.5972 3.670871,5.0563"
       id="path3279"
       style="fill:none;stroke:#000000" />
    <path
       d="m 102.75591,1096.6535 -3.670871,5.0563"
       id="path3281"
       style="fill:none;stroke:#000000" />
    <path
       d="m 99.085039,1101.7098 -5.945669,-1.9311"
       id="path3283"
       style="fill:none;stroke:#000000" />
    <path
       d="m 93.13937,1011.1961 0,-6.2504"
       id="path3285"
       style="fill:none;stroke:#000000" />
    <path
       d="m 93.13937,1004.9457 5.945669,-1.9311"
       id="path3287"
       style="fill:none;stroke:#000000" />
    <path
       d="m 99.085039,1003.0146 3.670871,5.0563"
       id="path3289"
       style="fill:none;stroke:#000000" />
    <path
       d="m 102.75591,1008.0709 -3.670871,5.0563"
       id="path3291"
       style="fill:none;stroke:#000000" />
    <path
       d="m 99.085039,1013.1272 -5.945669,-1.9311"
       id="path3293"
       style="fill:none;stroke:#000000" />
    <path
       d="m 93.13937,958.04646 0,-6.2504"
       id="path3295"
       style="fill:none;stroke:#000000" />
    <path
       d="m 93.13937,951.79606 5.945669,-1.9311"
       id="path3297"
       style="fill:none;stroke:#000000" />
    <path
       d="m 99.085039,949.86496 3.670871,5.0563"
       id="path3299"
       style="fill:none;stroke:#000000" />
    <path
       d="m 102.75591,954.92126 -3.670871,5.0563"
       id="path3301"
       style="fill:none;stroke:#000000" />
    <path
       d="m 99.085039,959.97756 -5.945669,-1.9311"
       id="path3303"
       style="fill:none;stroke:#000000" />
    <path
       d="m 93.13937,869.46378 0,-6.25039"
       id="path3305"
       style="fill:none;stroke:#000000" />
    <path
       d="m 93.13937,863.21339 5.945669,-1.93111"
       id="path3307"
       style="fill:none;stroke:#000000" />
    <path
       d="m 99.085039,861.28228 3.670871,5.0563"
       id="path3309"
       style="fill:none;stroke:#000000" />
    <path
       d="m 102.75591,866.33858 -3.670871,5.0563"
       id="path3311"
       style="fill:none;stroke:#000000" />
    <path
       d="m 99.085039,871.39488 -5.945669,-1.9311"
       id="path3313"
       style="fill:none;stroke:#000000" />
    <path
       d="m 114.10157,931.90748 0,-12.40512"
       id="path3315"
       style="fill:none;stroke:#000000" />
    <path
       d="m 114.10157,919.50236 2.88071,0"
       id="path3317"
       style="fill:none;stroke:#000000" />
    <path
       d="m 116.98228,919.50236 0,-17.74488"
       id="path3319"
       style="fill:none;stroke:#000000" />
    <path
       d="m 116.98228,901.75748 -2.88071,0"
       id="path3321"
       style="fill:none;stroke:#000000" />
    <path
       d="m 114.10157,901.75748 0,-12.40512"
       id="path3323"
       style="fill:none;stroke:#000000" />
    <path
       d="m 114.10157,889.35236 2.88071,0"
       id="path3325"
       style="fill:none;stroke:#000000" />
    <path
       d="m 116.98228,889.35236 0,-3.47244"
       id="path3327"
       style="fill:none;stroke:#000000" />
    <path
       d="m 116.98228,885.87992 49.5,0"
       id="path3329"
       style="fill:none;stroke:#000000" />
    <path
       d="m 166.48228,885.87992 0,3.47244"
       id="path3331"
       style="fill:none;stroke:#000000" />
    <path
       d="m 166.48228,889.35236 2.88071,0"
       id="path3333"
       style="fill:none;stroke:#000000" />
    <path
       d="m 169.36299,889.35236 0,12.40512"
       id="path3335"
       style="fill:none;stroke:#000000" />
    <path
       d="m 169.36299,901.75748 -2.88071,0"
       id="path3337"
       style="fill:none;stroke:#000000" />
    <path
       d="m 166.48228,901.75748 0,17.74488"
       id="path3339"
       style="fill:none;stroke:#000000" />
    <path
       d="m 166.48228,919.50236 2.88071,0"
       id="path3341"
       style="fill:none;stroke:#000000" />
    <path
       d="m 169.36299,919.50236 0,12.40512"
       id="path3343"
       style="fill:none;stroke:#000000" />
    <path
       d="m 169.36299,931.90748 -2.88071,0"
       id="path3345"
       style="fill:none;stroke:#000000" />
    <path
       d="m 166.48228,931.90748 0,3.47244"
       id="path3347"
       style="fill:none;stroke:#000000" />
    <path
       d="m 166.48228,935.37992 -49.5,0"
       id="path3349"
       style="fill:none;stroke:#000000" />
    <path
       d="m 116.98228,935.37992 0,-3.47244"
       id="path3351"
       style="fill:none;stroke:#000000" />
    <path
       d="m 116.98228,931.90748 -2.88071,0"
       id="path3353"
       style="fill:none;stroke:#000000" />
    <path
       d="m 116.92913,1077.1654 0,-49.6063"
       id="path3355"
       style="fill:none;stroke:#000000" />
    <path
       d="m 116.92913,1027.5591 49.6063,0"
       id="path3357"
       style="fill:none;stroke:#000000" />
    <path
       d="m 166.53543,1027.5591 0,49.6063"
       id="path3359"
       style="fill:none;stroke:#000000" />
    <path
       d="m 166.53543,1077.1654 -49.6063,0"
       id="path3361"
       style="fill:none;stroke:#000000" />
    <path
       d="m 181.72205,1099.7787 0,-6.2504"
       id="path3363"
       style="fill:none;stroke:#000000" />
    <path
       d="m 181.72205,1093.5283 5.94567,-1.9311"
       id="path3365"
       style="fill:none;stroke:#000000" />
    <path
       d="m 187.66772,1091.5972 3.67086,5.0563"
       id="path3367"
       style="fill:none;stroke:#000000" />
    <path
       d="m 191.33858,1096.6535 -3.67086,5.0563"
       id="path3369"
       style="fill:none;stroke:#000000" />
    <path
       d="m 187.66772,1101.7098 -5.94567,-1.9311"
       id="path3371"
       style="fill:none;stroke:#000000" />
    <path
       d="m 181.72205,1011.1961 0,-6.2504"
       id="path3373"
       style="fill:none;stroke:#000000" />
    <path
       d="m 181.72205,1004.9457 5.94567,-1.9311"
       id="path3375"
       style="fill:none;stroke:#000000" />
    <path
       d="m 187.66772,1003.0146 3.67086,5.0563"
       id="path3377"
       style="fill:none;stroke:#000000" />
    <path
       d="m 191.33858,1008.0709 -3.67086,5.0563"
       id="path3379"
       style="fill:none;stroke:#000000" />
    <path
       d="m 187.66772,1013.1272 -5.94567,-1.9311"
       id="path3381"
       style="fill:none;stroke:#000000" />
    <path
       d="m 181.72205,958.04646 0,-6.2504"
       id="path3383"
       style="fill:none;stroke:#000000" />
    <path
       d="m 181.72205,951.79606 5.94567,-1.9311"
       id="path3385"
       style="fill:none;stroke:#000000" />
    <path
       d="m 187.66772,949.86496 3.67086,5.0563"
       id="path3387"
       style="fill:none;stroke:#000000" />
    <path
       d="m 191.33858,954.92126 -3.67086,5.0563"
       id="path3389"
       style="fill:none;stroke:#000000" />
    <path
       d="m 187.66772,959.97756 -5.94567,-1.9311"
       id="path3391"
       style="fill:none;stroke:#000000" />
    <path
       d="m 181.72205,869.46378 0,-6.25039"
       id="path3393"
       style="fill:none;stroke:#000000" />
    <path
       d="m 181.72205,863.21339 5.94567,-1.93111"
       id="path3395"
       style="fill:none;stroke:#000000" />
    <path
       d="m 187.66772,861.28228 3.67086,5.0563"
       id="path3397"
       style="fill:none;stroke:#000000" />
    <path
       d="m 191.33858,866.33858 -3.67086,5.0563"
       id="path3399"
       style="fill:none;stroke:#000000" />
    <path
       d="m 187.66772,871.39488 -5.94567,-1.9311"
       id="path3401"
       style="fill:none;stroke:#000000" />
  </g>
</svg>
