  0
SECTION
  2
BLOCKS
  0
ENDSEC
  0
SECTION
  2
ENTITIES
  0
LINE
  8
0
 10
192.954
 20
195.176
 11
193.121
 21
195.193
  0
LINE
  8
0
 10
193.121
 20
195.193
 11
193.285
 21
195.224
  0
LINE
  8
0
 10
193.285
 20
195.224
 11
193.446
 21
195.269
  0
LINE
  8
0
 10
193.446
 20
195.269
 11
193.603
 21
195.328
  0
LINE
  8
0
 10
193.603
 20
195.328
 11
193.755
 21
195.399
  0
LINE
  8
0
 10
193.755
 20
195.399
 11
193.9
 21
195.483
  0
LINE
  8
0
 10
193.9
 20
195.483
 11
194.038
 21
195.579
  0
LINE
  8
0
 10
194.038
 20
195.579
 11
194.167
 21
195.685
  0
LINE
  8
0
 10
194.167
 20
195.685
 11
194.286
 21
195.802
  0
LINE
  8
0
 10
194.286
 20
195.802
 11
194.396
 21
195.929
  0
LINE
  8
0
 10
194.396
 20
195.929
 11
194.494
 21
196.065
  0
LINE
  8
0
 10
194.494
 20
196.065
 11
194.581
 21
196.208
  0
LINE
  8
0
 10
194.581
 20
196.208
 11
194.656
 21
196.358
  0
LINE
  8
0
 10
194.656
 20
196.358
 11
194.717
 21
196.514
  0
LINE
  8
0
 10
194.717
 20
196.514
 11
194.766
 21
196.674
  0
LINE
  8
0
 10
194.766
 20
196.674
 11
194.8
 21
196.838
  0
LINE
  8
0
 10
194.8
 20
196.838
 11
194.821
 21
197.004
  0
LINE
  8
0
 10
194.821
 20
197.004
 11
194.828
 21
197.172
  0
LINE
  8
0
 10
194.828
 20
197.172
 11
194.828
 21
278.828
  0
LINE
  8
0
 10
194.828
 20
278.828
 11
194.821
 21
278.996
  0
LINE
  8
0
 10
194.821
 20
278.996
 11
194.8
 21
279.162
  0
LINE
  8
0
 10
194.8
 20
279.162
 11
194.766
 21
279.326
  0
LINE
  8
0
 10
194.766
 20
279.326
 11
194.717
 21
279.486
  0
LINE
  8
0
 10
194.717
 20
279.486
 11
194.656
 21
279.642
  0
LINE
  8
0
 10
194.656
 20
279.642
 11
194.581
 21
279.792
  0
LINE
  8
0
 10
194.581
 20
279.792
 11
194.494
 21
279.935
  0
LINE
  8
0
 10
194.494
 20
279.935
 11
194.396
 21
280.071
  0
LINE
  8
0
 10
194.396
 20
280.071
 11
194.286
 21
280.198
  0
LINE
  8
0
 10
194.286
 20
280.198
 11
194.167
 21
280.315
  0
LINE
  8
0
 10
194.167
 20
280.315
 11
194.038
 21
280.421
  0
LINE
  8
0
 10
194.038
 20
280.421
 11
193.9
 21
280.517
  0
LINE
  8
0
 10
193.9
 20
280.517
 11
193.755
 21
280.601
  0
LINE
  8
0
 10
193.755
 20
280.601
 11
193.603
 21
280.672
  0
LINE
  8
0
 10
193.603
 20
280.672
 11
193.446
 21
280.731
  0
LINE
  8
0
 10
193.446
 20
280.731
 11
193.285
 21
280.776
  0
LINE
  8
0
 10
193.285
 20
280.776
 11
193.121
 21
280.807
  0
LINE
  8
0
 10
193.121
 20
280.807
 11
192.954
 21
280.824
  0
LINE
  8
0
 10
192.954
 20
280.824
 11
192.787
 21
280.828
  0
LINE
  8
0
 10
192.787
 20
280.828
 11
-2.8703
 21
280.828
  0
LINE
  8
0
 10
-2.8703
 20
280.828
 11
-3.03748
 21
280.817
  0
LINE
  8
0
 10
-3.03748
 20
280.817
 11
-3.20319
 21
280.793
  0
LINE
  8
0
 10
-3.20319
 20
280.793
 11
-3.36626
 21
280.755
  0
LINE
  8
0
 10
-3.36626
 20
280.755
 11
-3.52556
 21
280.703
  0
LINE
  8
0
 10
-3.52556
 20
280.703
 11
-3.67998
 21
280.638
  0
LINE
  8
0
 10
-3.67998
 20
280.638
 11
-3.82841
 21
280.56
  0
LINE
  8
0
 10
-3.82841
 20
280.56
 11
-3.96985
 21
280.471
  0
LINE
  8
0
 10
-3.96985
 20
280.471
 11
-4.10327
 21
280.369
  0
LINE
  8
0
 10
-4.10327
 20
280.369
 11
-4.22775
 21
280.257
  0
LINE
  8
0
 10
-4.22775
 20
280.257
 11
-4.34241
 21
280.135
  0
LINE
  8
0
 10
-4.34241
 20
280.135
 11
-4.44646
 21
280.004
  0
LINE
  8
0
 10
-4.44646
 20
280.004
 11
-4.53915
 21
279.864
  0
LINE
  8
0
 10
-4.53915
 20
279.864
 11
-4.61984
 21
279.718
  0
LINE
  8
0
 10
-4.61984
 20
279.718
 11
-4.68797
 21
279.565
  0
LINE
  8
0
 10
-4.68797
 20
279.565
 11
-4.74306
 21
279.406
  0
LINE
  8
0
 10
-4.74306
 20
279.406
 11
-4.78471
 21
279.244
  0
LINE
  8
0
 10
-4.78471
 20
279.244
 11
-4.81265
 21
279.079
  0
LINE
  8
0
 10
-4.81265
 20
279.079
 11
-4.82666
 21
278.912
  0
LINE
  8
0
 10
-4.82666
 20
278.912
 11
-4.82666
 21
197.088
  0
LINE
  8
0
 10
-4.82666
 20
197.088
 11
-4.81265
 21
196.921
  0
LINE
  8
0
 10
-4.81265
 20
196.921
 11
-4.78471
 21
196.756
  0
LINE
  8
0
 10
-4.78471
 20
196.756
 11
-4.74306
 21
196.594
  0
LINE
  8
0
 10
-4.74306
 20
196.594
 11
-4.68797
 21
196.435
  0
LINE
  8
0
 10
-4.68797
 20
196.435
 11
-4.61984
 21
196.282
  0
LINE
  8
0
 10
-4.61984
 20
196.282
 11
-4.53915
 21
196.136
  0
LINE
  8
0
 10
-4.53915
 20
196.136
 11
-4.44646
 21
195.996
  0
LINE
  8
0
 10
-4.44646
 20
195.996
 11
-4.34241
 21
195.865
  0
LINE
  8
0
 10
-4.34241
 20
195.865
 11
-4.22775
 21
195.743
  0
LINE
  8
0
 10
-4.22775
 20
195.743
 11
-4.10327
 21
195.631
  0
LINE
  8
0
 10
-4.10327
 20
195.631
 11
-3.96985
 21
195.529
  0
LINE
  8
0
 10
-3.96985
 20
195.529
 11
-3.82841
 21
195.44
  0
LINE
  8
0
 10
-3.82841
 20
195.44
 11
-3.67998
 21
195.362
  0
LINE
  8
0
 10
-3.67998
 20
195.362
 11
-3.52556
 21
195.297
  0
LINE
  8
0
 10
-3.52556
 20
195.297
 11
-3.36626
 21
195.245
  0
LINE
  8
0
 10
-3.36626
 20
195.245
 11
-3.20319
 21
195.207
  0
LINE
  8
0
 10
-3.20319
 20
195.207
 11
-3.03748
 21
195.183
  0
LINE
  8
0
 10
-3.03748
 20
195.183
 11
-2.8703
 21
195.172
  0
LINE
  8
0
 10
-2.8703
 20
195.172
 11
192.787
 21
195.172
  0
LINE
  8
0
 10
192.787
 20
195.172
 11
192.954
 21
195.176
  0
LINE
  8
0
 10
173
 20
259
 11
173
 21
274
  0
LINE
  8
0
 10
173
 20
274
 11
188
 21
274
  0
LINE
  8
0
 10
188
 20
274
 11
188
 21
259
  0
LINE
  8
0
 10
188
 20
259
 11
173
 21
259
  0
LINE
  8
0
 10
154
 20
259
 11
154
 21
274
  0
LINE
  8
0
 10
154
 20
274
 11
169
 21
274
  0
LINE
  8
0
 10
169
 20
274
 11
169
 21
259
  0
LINE
  8
0
 10
169
 20
259
 11
154
 21
259
  0
LINE
  8
0
 10
135
 20
259
 11
135
 21
274
  0
LINE
  8
0
 10
135
 20
274
 11
150
 21
274
  0
LINE
  8
0
 10
150
 20
274
 11
150
 21
259
  0
LINE
  8
0
 10
150
 20
259
 11
135
 21
259
  0
LINE
  8
0
 10
116
 20
259
 11
116
 21
274
  0
LINE
  8
0
 10
116
 20
274
 11
131
 21
274
  0
LINE
  8
0
 10
131
 20
274
 11
131
 21
259
  0
LINE
  8
0
 10
131
 20
259
 11
116
 21
259
  0
LINE
  8
0
 10
97
 20
259
 11
97
 21
274
  0
LINE
  8
0
 10
97
 20
274
 11
112
 21
274
  0
LINE
  8
0
 10
112
 20
274
 11
112
 21
259
  0
LINE
  8
0
 10
112
 20
259
 11
97
 21
259
  0
LINE
  8
0
 10
78
 20
259
 11
78
 21
274
  0
LINE
  8
0
 10
78
 20
274
 11
93
 21
274
  0
LINE
  8
0
 10
93
 20
274
 11
93
 21
259
  0
LINE
  8
0
 10
93
 20
259
 11
78
 21
259
  0
LINE
  8
0
 10
59
 20
259
 11
59
 21
274
  0
LINE
  8
0
 10
59
 20
274
 11
74
 21
274
  0
LINE
  8
0
 10
74
 20
274
 11
74
 21
259
  0
LINE
  8
0
 10
74
 20
259
 11
59
 21
259
  0
LINE
  8
0
 10
40
 20
259
 11
40
 21
274
  0
LINE
  8
0
 10
40
 20
274
 11
55
 21
274
  0
LINE
  8
0
 10
55
 20
274
 11
55
 21
259
  0
LINE
  8
0
 10
55
 20
259
 11
40
 21
259
  0
LINE
  8
0
 10
21
 20
259
 11
21
 21
274
  0
LINE
  8
0
 10
21
 20
274
 11
36
 21
274
  0
LINE
  8
0
 10
36
 20
274
 11
36
 21
259
  0
LINE
  8
0
 10
36
 20
259
 11
21
 21
259
  0
LINE
  8
0
 10
2
 20
259
 11
2
 21
274
  0
LINE
  8
0
 10
2
 20
274
 11
17
 21
274
  0
LINE
  8
0
 10
17
 20
274
 11
17
 21
259
  0
LINE
  8
0
 10
17
 20
259
 11
2
 21
259
  0
LINE
  8
0
 10
170.869
 20
255.757
 11
170.766
 21
255.772
  0
LINE
  8
0
 10
170.766
 20
255.772
 11
170.664
 21
255.796
  0
LINE
  8
0
 10
170.664
 20
255.796
 11
170.564
 21
255.828
  0
LINE
  8
0
 10
170.564
 20
255.828
 11
170.468
 21
255.869
  0
LINE
  8
0
 10
170.468
 20
255.869
 11
170.375
 21
255.917
  0
LINE
  8
0
 10
170.375
 20
255.917
 11
170.287
 21
255.974
  0
LINE
  8
0
 10
170.287
 20
255.974
 11
170.203
 21
256.037
  0
LINE
  8
0
 10
170.203
 20
256.037
 11
170.125
 21
256.107
  0
LINE
  8
0
 10
170.125
 20
256.107
 11
170.054
 21
256.183
  0
LINE
  8
0
 10
170.054
 20
256.183
 11
169.989
 21
256.265
  0
LINE
  8
0
 10
169.989
 20
256.265
 11
169.931
 21
256.352
  0
LINE
  8
0
 10
169.931
 20
256.352
 11
169.88
 21
256.444
  0
LINE
  8
0
 10
169.88
 20
256.444
 11
169.838
 21
256.54
  0
LINE
  8
0
 10
169.838
 20
256.54
 11
169.803
 21
256.639
  0
LINE
  8
0
 10
169.803
 20
256.639
 11
169.777
 21
256.74
  0
LINE
  8
0
 10
169.777
 20
256.74
 11
169.76
 21
256.843
  0
LINE
  8
0
 10
169.76
 20
256.843
 11
169.751
 21
256.948
  0
LINE
  8
0
 10
169.751
 20
256.948
 11
169.751
 21
257.052
  0
LINE
  8
0
 10
169.751
 20
257.052
 11
169.76
 21
257.157
  0
LINE
  8
0
 10
169.76
 20
257.157
 11
169.777
 21
257.26
  0
LINE
  8
0
 10
169.777
 20
257.26
 11
169.803
 21
257.361
  0
LINE
  8
0
 10
169.803
 20
257.361
 11
169.838
 21
257.46
  0
LINE
  8
0
 10
169.838
 20
257.46
 11
169.88
 21
257.556
  0
LINE
  8
0
 10
169.88
 20
257.556
 11
169.931
 21
257.648
  0
LINE
  8
0
 10
169.931
 20
257.648
 11
169.989
 21
257.735
  0
LINE
  8
0
 10
169.989
 20
257.735
 11
170.054
 21
257.817
  0
LINE
  8
0
 10
170.054
 20
257.817
 11
170.125
 21
257.893
  0
LINE
  8
0
 10
170.125
 20
257.893
 11
170.203
 21
257.963
  0
LINE
  8
0
 10
170.203
 20
257.963
 11
170.287
 21
258.026
  0
LINE
  8
0
 10
170.287
 20
258.026
 11
170.375
 21
258.083
  0
LINE
  8
0
 10
170.375
 20
258.083
 11
170.468
 21
258.131
  0
LINE
  8
0
 10
170.468
 20
258.131
 11
170.564
 21
258.172
  0
LINE
  8
0
 10
170.564
 20
258.172
 11
170.664
 21
258.204
  0
LINE
  8
0
 10
170.664
 20
258.204
 11
170.766
 21
258.228
  0
LINE
  8
0
 10
170.766
 20
258.228
 11
170.869
 21
258.243
  0
LINE
  8
0
 10
170.869
 20
258.243
 11
170.974
 21
258.25
  0
LINE
  8
0
 10
170.974
 20
258.25
 11
171.078
 21
258.248
  0
LINE
  8
0
 10
171.078
 20
258.248
 11
171.183
 21
258.237
  0
LINE
  8
0
 10
171.183
 20
258.237
 11
171.285
 21
258.217
  0
LINE
  8
0
 10
171.285
 20
258.217
 11
171.386
 21
258.189
  0
LINE
  8
0
 10
171.386
 20
258.189
 11
171.484
 21
258.152
  0
LINE
  8
0
 10
171.484
 20
258.152
 11
171.579
 21
258.108
  0
LINE
  8
0
 10
171.579
 20
258.108
 11
171.67
 21
258.055
  0
LINE
  8
0
 10
171.67
 20
258.055
 11
171.756
 21
257.996
  0
LINE
  8
0
 10
171.756
 20
257.996
 11
171.836
 21
257.929
  0
LINE
  8
0
 10
171.836
 20
257.929
 11
171.911
 21
257.856
  0
LINE
  8
0
 10
171.911
 20
257.856
 11
171.98
 21
257.776
  0
LINE
  8
0
 10
171.98
 20
257.776
 11
172.041
 21
257.692
  0
LINE
  8
0
 10
172.041
 20
257.692
 11
172.095
 21
257.602
  0
LINE
  8
0
 10
172.095
 20
257.602
 11
172.142
 21
257.508
  0
LINE
  8
0
 10
172.142
 20
257.508
 11
172.18
 21
257.411
  0
LINE
  8
0
 10
172.18
 20
257.411
 11
172.211
 21
257.311
  0
LINE
  8
0
 10
172.211
 20
257.311
 11
172.232
 21
257.208
  0
LINE
  8
0
 10
172.232
 20
257.208
 11
172.246
 21
257.105
  0
LINE
  8
0
 10
172.246
 20
257.105
 11
172.25
 21
257
  0
LINE
  8
0
 10
172.25
 20
257
 11
172.246
 21
256.895
  0
LINE
  8
0
 10
172.246
 20
256.895
 11
172.232
 21
256.792
  0
LINE
  8
0
 10
172.232
 20
256.792
 11
172.211
 21
256.689
  0
LINE
  8
0
 10
172.211
 20
256.689
 11
172.18
 21
256.589
  0
LINE
  8
0
 10
172.18
 20
256.589
 11
172.142
 21
256.492
  0
LINE
  8
0
 10
172.142
 20
256.492
 11
172.095
 21
256.398
  0
LINE
  8
0
 10
172.095
 20
256.398
 11
172.041
 21
256.308
  0
LINE
  8
0
 10
172.041
 20
256.308
 11
171.98
 21
256.224
  0
LINE
  8
0
 10
171.98
 20
256.224
 11
171.911
 21
256.144
  0
LINE
  8
0
 10
171.911
 20
256.144
 11
171.836
 21
256.071
  0
LINE
  8
0
 10
171.836
 20
256.071
 11
171.756
 21
256.004
  0
LINE
  8
0
 10
171.756
 20
256.004
 11
171.67
 21
255.945
  0
LINE
  8
0
 10
171.67
 20
255.945
 11
171.579
 21
255.892
  0
LINE
  8
0
 10
171.579
 20
255.892
 11
171.484
 21
255.848
  0
LINE
  8
0
 10
171.484
 20
255.848
 11
171.386
 21
255.811
  0
LINE
  8
0
 10
171.386
 20
255.811
 11
171.285
 21
255.783
  0
LINE
  8
0
 10
171.285
 20
255.783
 11
171.183
 21
255.763
  0
LINE
  8
0
 10
171.183
 20
255.763
 11
171.078
 21
255.752
  0
LINE
  8
0
 10
171.078
 20
255.752
 11
170.974
 21
255.75
  0
LINE
  8
0
 10
170.974
 20
255.75
 11
170.869
 21
255.757
  0
LINE
  8
0
 10
18.8693
 20
255.757
 11
18.7658
 21
255.772
  0
LINE
  8
0
 10
18.7658
 20
255.772
 11
18.6638
 21
255.796
  0
LINE
  8
0
 10
18.6638
 20
255.796
 11
18.5643
 21
255.828
  0
LINE
  8
0
 10
18.5643
 20
255.828
 11
18.4678
 21
255.869
  0
LINE
  8
0
 10
18.4678
 20
255.869
 11
18.375
 21
255.917
  0
LINE
  8
0
 10
18.375
 20
255.917
 11
18.2866
 21
255.974
  0
LINE
  8
0
 10
18.2866
 20
255.974
 11
18.2032
 21
256.037
  0
LINE
  8
0
 10
18.2032
 20
256.037
 11
18.1254
 21
256.107
  0
LINE
  8
0
 10
18.1254
 20
256.107
 11
18.0537
 21
256.183
  0
LINE
  8
0
 10
18.0537
 20
256.183
 11
17.9887
 21
256.265
  0
LINE
  8
0
 10
17.9887
 20
256.265
 11
17.9308
 21
256.352
  0
LINE
  8
0
 10
17.9308
 20
256.352
 11
17.8804
 21
256.444
  0
LINE
  8
0
 10
17.8804
 20
256.444
 11
17.8378
 21
256.54
  0
LINE
  8
0
 10
17.8378
 20
256.54
 11
17.8033
 21
256.639
  0
LINE
  8
0
 10
17.8033
 20
256.639
 11
17.7773
 21
256.74
  0
LINE
  8
0
 10
17.7773
 20
256.74
 11
17.7598
 21
256.843
  0
LINE
  8
0
 10
17.7598
 20
256.843
 11
17.7511
 21
256.948
  0
LINE
  8
0
 10
17.7511
 20
256.948
 11
17.7511
 21
257.052
  0
LINE
  8
0
 10
17.7511
 20
257.052
 11
17.7598
 21
257.157
  0
LINE
  8
0
 10
17.7598
 20
257.157
 11
17.7773
 21
257.26
  0
LINE
  8
0
 10
17.7773
 20
257.26
 11
17.8033
 21
257.361
  0
LINE
  8
0
 10
17.8033
 20
257.361
 11
17.8378
 21
257.46
  0
LINE
  8
0
 10
17.8378
 20
257.46
 11
17.8804
 21
257.556
  0
LINE
  8
0
 10
17.8804
 20
257.556
 11
17.9308
 21
257.648
  0
LINE
  8
0
 10
17.9308
 20
257.648
 11
17.9887
 21
257.735
  0
LINE
  8
0
 10
17.9887
 20
257.735
 11
18.0537
 21
257.817
  0
LINE
  8
0
 10
18.0537
 20
257.817
 11
18.1254
 21
257.893
  0
LINE
  8
0
 10
18.1254
 20
257.893
 11
18.2032
 21
257.963
  0
LINE
  8
0
 10
18.2032
 20
257.963
 11
18.2866
 21
258.026
  0
LINE
  8
0
 10
18.2866
 20
258.026
 11
18.375
 21
258.083
  0
LINE
  8
0
 10
18.375
 20
258.083
 11
18.4678
 21
258.131
  0
LINE
  8
0
 10
18.4678
 20
258.131
 11
18.5643
 21
258.172
  0
LINE
  8
0
 10
18.5643
 20
258.172
 11
18.6638
 21
258.204
  0
LINE
  8
0
 10
18.6638
 20
258.204
 11
18.7658
 21
258.228
  0
LINE
  8
0
 10
18.7658
 20
258.228
 11
18.8693
 21
258.243
  0
LINE
  8
0
 10
18.8693
 20
258.243
 11
18.9738
 21
258.25
  0
LINE
  8
0
 10
18.9738
 20
258.25
 11
19.0785
 21
258.248
  0
LINE
  8
0
 10
19.0785
 20
258.248
 11
19.1826
 21
258.237
  0
LINE
  8
0
 10
19.1826
 20
258.237
 11
19.2854
 21
258.217
  0
LINE
  8
0
 10
19.2854
 20
258.217
 11
19.3863
 21
258.189
  0
LINE
  8
0
 10
19.3863
 20
258.189
 11
19.4844
 21
258.152
  0
LINE
  8
0
 10
19.4844
 20
258.152
 11
19.5791
 21
258.108
  0
LINE
  8
0
 10
19.5791
 20
258.108
 11
19.6698
 21
258.055
  0
LINE
  8
0
 10
19.6698
 20
258.055
 11
19.7557
 21
257.996
  0
LINE
  8
0
 10
19.7557
 20
257.996
 11
19.8364
 21
257.929
  0
LINE
  8
0
 10
19.8364
 20
257.929
 11
19.9112
 21
257.856
  0
LINE
  8
0
 10
19.9112
 20
257.856
 11
19.9796
 21
257.776
  0
LINE
  8
0
 10
19.9796
 20
257.776
 11
20.0411
 21
257.692
  0
LINE
  8
0
 10
20.0411
 20
257.692
 11
20.0954
 21
257.602
  0
LINE
  8
0
 10
20.0954
 20
257.602
 11
20.1419
 21
257.508
  0
LINE
  8
0
 10
20.1419
 20
257.508
 11
20.1805
 21
257.411
  0
LINE
  8
0
 10
20.1805
 20
257.411
 11
20.2107
 21
257.311
  0
LINE
  8
0
 10
20.2107
 20
257.311
 11
20.2325
 21
257.208
  0
LINE
  8
0
 10
20.2325
 20
257.208
 11
20.2456
 21
257.105
  0
LINE
  8
0
 10
20.2456
 20
257.105
 11
20.25
 21
257
  0
LINE
  8
0
 10
20.25
 20
257
 11
20.2456
 21
256.895
  0
LINE
  8
0
 10
20.2456
 20
256.895
 11
20.2325
 21
256.792
  0
LINE
  8
0
 10
20.2325
 20
256.792
 11
20.2107
 21
256.689
  0
LINE
  8
0
 10
20.2107
 20
256.689
 11
20.1805
 21
256.589
  0
LINE
  8
0
 10
20.1805
 20
256.589
 11
20.1419
 21
256.492
  0
LINE
  8
0
 10
20.1419
 20
256.492
 11
20.0954
 21
256.398
  0
LINE
  8
0
 10
20.0954
 20
256.398
 11
20.0411
 21
256.308
  0
LINE
  8
0
 10
20.0411
 20
256.308
 11
19.9796
 21
256.224
  0
LINE
  8
0
 10
19.9796
 20
256.224
 11
19.9112
 21
256.144
  0
LINE
  8
0
 10
19.9112
 20
256.144
 11
19.8364
 21
256.071
  0
LINE
  8
0
 10
19.8364
 20
256.071
 11
19.7557
 21
256.004
  0
LINE
  8
0
 10
19.7557
 20
256.004
 11
19.6698
 21
255.945
  0
LINE
  8
0
 10
19.6698
 20
255.945
 11
19.5791
 21
255.892
  0
LINE
  8
0
 10
19.5791
 20
255.892
 11
19.4844
 21
255.848
  0
LINE
  8
0
 10
19.4844
 20
255.848
 11
19.3863
 21
255.811
  0
LINE
  8
0
 10
19.3863
 20
255.811
 11
19.2854
 21
255.783
  0
LINE
  8
0
 10
19.2854
 20
255.783
 11
19.1826
 21
255.763
  0
LINE
  8
0
 10
19.1826
 20
255.763
 11
19.0785
 21
255.752
  0
LINE
  8
0
 10
19.0785
 20
255.752
 11
18.9738
 21
255.75
  0
LINE
  8
0
 10
18.9738
 20
255.75
 11
18.8693
 21
255.757
  0
LINE
  8
0
 10
173
 20
240
 11
173
 21
255
  0
LINE
  8
0
 10
173
 20
255
 11
188
 21
255
  0
LINE
  8
0
 10
188
 20
255
 11
188
 21
240
  0
LINE
  8
0
 10
188
 20
240
 11
173
 21
240
  0
LINE
  8
0
 10
154
 20
240
 11
154
 21
255
  0
LINE
  8
0
 10
154
 20
255
 11
169
 21
255
  0
LINE
  8
0
 10
169
 20
255
 11
169
 21
240
  0
LINE
  8
0
 10
169
 20
240
 11
154
 21
240
  0
LINE
  8
0
 10
135
 20
240
 11
135
 21
255
  0
LINE
  8
0
 10
135
 20
255
 11
150
 21
255
  0
LINE
  8
0
 10
150
 20
255
 11
150
 21
240
  0
LINE
  8
0
 10
150
 20
240
 11
135
 21
240
  0
LINE
  8
0
 10
116
 20
240
 11
116
 21
255
  0
LINE
  8
0
 10
116
 20
255
 11
131
 21
255
  0
LINE
  8
0
 10
131
 20
255
 11
131
 21
240
  0
LINE
  8
0
 10
131
 20
240
 11
116
 21
240
  0
LINE
  8
0
 10
97
 20
240
 11
97
 21
255
  0
LINE
  8
0
 10
97
 20
255
 11
112
 21
255
  0
LINE
  8
0
 10
112
 20
255
 11
112
 21
240
  0
LINE
  8
0
 10
112
 20
240
 11
97
 21
240
  0
LINE
  8
0
 10
78
 20
240
 11
78
 21
255
  0
LINE
  8
0
 10
78
 20
255
 11
93
 21
255
  0
LINE
  8
0
 10
93
 20
255
 11
93
 21
240
  0
LINE
  8
0
 10
93
 20
240
 11
78
 21
240
  0
LINE
  8
0
 10
59
 20
240
 11
59
 21
255
  0
LINE
  8
0
 10
59
 20
255
 11
74
 21
255
  0
LINE
  8
0
 10
74
 20
255
 11
74
 21
240
  0
LINE
  8
0
 10
74
 20
240
 11
59
 21
240
  0
LINE
  8
0
 10
40
 20
240
 11
40
 21
255
  0
LINE
  8
0
 10
40
 20
255
 11
55
 21
255
  0
LINE
  8
0
 10
55
 20
255
 11
55
 21
240
  0
LINE
  8
0
 10
55
 20
240
 11
40
 21
240
  0
LINE
  8
0
 10
21
 20
240
 11
21
 21
255
  0
LINE
  8
0
 10
21
 20
255
 11
36
 21
255
  0
LINE
  8
0
 10
36
 20
255
 11
36
 21
240
  0
LINE
  8
0
 10
36
 20
240
 11
21
 21
240
  0
LINE
  8
0
 10
2
 20
240
 11
2
 21
255
  0
LINE
  8
0
 10
2
 20
255
 11
17
 21
255
  0
LINE
  8
0
 10
17
 20
255
 11
17
 21
240
  0
LINE
  8
0
 10
17
 20
240
 11
2
 21
240
  0
LINE
  8
0
 10
94.8693
 20
236.757
 11
94.7658
 21
236.772
  0
LINE
  8
0
 10
94.7658
 20
236.772
 11
94.6638
 21
236.796
  0
LINE
  8
0
 10
94.6638
 20
236.796
 11
94.5643
 21
236.828
  0
LINE
  8
0
 10
94.5643
 20
236.828
 11
94.4678
 21
236.869
  0
LINE
  8
0
 10
94.4678
 20
236.869
 11
94.375
 21
236.917
  0
LINE
  8
0
 10
94.375
 20
236.917
 11
94.2866
 21
236.974
  0
LINE
  8
0
 10
94.2866
 20
236.974
 11
94.2032
 21
237.037
  0
LINE
  8
0
 10
94.2032
 20
237.037
 11
94.1254
 21
237.107
  0
LINE
  8
0
 10
94.1254
 20
237.107
 11
94.0537
 21
237.183
  0
LINE
  8
0
 10
94.0537
 20
237.183
 11
93.9887
 21
237.265
  0
LINE
  8
0
 10
93.9887
 20
237.265
 11
93.9308
 21
237.352
  0
LINE
  8
0
 10
93.9308
 20
237.352
 11
93.8804
 21
237.444
  0
LINE
  8
0
 10
93.8804
 20
237.444
 11
93.8378
 21
237.54
  0
LINE
  8
0
 10
93.8378
 20
237.54
 11
93.8033
 21
237.639
  0
LINE
  8
0
 10
93.8033
 20
237.639
 11
93.7773
 21
237.74
  0
LINE
  8
0
 10
93.7773
 20
237.74
 11
93.7598
 21
237.843
  0
LINE
  8
0
 10
93.7598
 20
237.843
 11
93.7511
 21
237.948
  0
LINE
  8
0
 10
93.7511
 20
237.948
 11
93.7511
 21
238.052
  0
LINE
  8
0
 10
93.7511
 20
238.052
 11
93.7598
 21
238.157
  0
LINE
  8
0
 10
93.7598
 20
238.157
 11
93.7773
 21
238.26
  0
LINE
  8
0
 10
93.7773
 20
238.26
 11
93.8033
 21
238.361
  0
LINE
  8
0
 10
93.8033
 20
238.361
 11
93.8378
 21
238.46
  0
LINE
  8
0
 10
93.8378
 20
238.46
 11
93.8804
 21
238.556
  0
LINE
  8
0
 10
93.8804
 20
238.556
 11
93.9308
 21
238.648
  0
LINE
  8
0
 10
93.9308
 20
238.648
 11
93.9887
 21
238.735
  0
LINE
  8
0
 10
93.9887
 20
238.735
 11
94.0537
 21
238.817
  0
LINE
  8
0
 10
94.0537
 20
238.817
 11
94.1254
 21
238.893
  0
LINE
  8
0
 10
94.1254
 20
238.893
 11
94.2032
 21
238.963
  0
LINE
  8
0
 10
94.2032
 20
238.963
 11
94.2866
 21
239.026
  0
LINE
  8
0
 10
94.2866
 20
239.026
 11
94.375
 21
239.083
  0
LINE
  8
0
 10
94.375
 20
239.083
 11
94.4678
 21
239.131
  0
LINE
  8
0
 10
94.4678
 20
239.131
 11
94.5643
 21
239.172
  0
LINE
  8
0
 10
94.5643
 20
239.172
 11
94.6638
 21
239.204
  0
LINE
  8
0
 10
94.6638
 20
239.204
 11
94.7658
 21
239.228
  0
LINE
  8
0
 10
94.7658
 20
239.228
 11
94.8693
 21
239.243
  0
LINE
  8
0
 10
94.8693
 20
239.243
 11
94.9738
 21
239.25
  0
LINE
  8
0
 10
94.9738
 20
239.25
 11
95.0785
 21
239.248
  0
LINE
  8
0
 10
95.0785
 20
239.248
 11
95.1826
 21
239.237
  0
LINE
  8
0
 10
95.1826
 20
239.237
 11
95.2854
 21
239.217
  0
LINE
  8
0
 10
95.2854
 20
239.217
 11
95.3863
 21
239.189
  0
LINE
  8
0
 10
95.3863
 20
239.189
 11
95.4844
 21
239.152
  0
LINE
  8
0
 10
95.4844
 20
239.152
 11
95.5791
 21
239.108
  0
LINE
  8
0
 10
95.5791
 20
239.108
 11
95.6698
 21
239.055
  0
LINE
  8
0
 10
95.6698
 20
239.055
 11
95.7557
 21
238.996
  0
LINE
  8
0
 10
95.7557
 20
238.996
 11
95.8364
 21
238.929
  0
LINE
  8
0
 10
95.8364
 20
238.929
 11
95.9112
 21
238.856
  0
LINE
  8
0
 10
95.9112
 20
238.856
 11
95.9796
 21
238.776
  0
LINE
  8
0
 10
95.9796
 20
238.776
 11
96.0411
 21
238.692
  0
LINE
  8
0
 10
96.0411
 20
238.692
 11
96.0954
 21
238.602
  0
LINE
  8
0
 10
96.0954
 20
238.602
 11
96.1419
 21
238.508
  0
LINE
  8
0
 10
96.1419
 20
238.508
 11
96.1805
 21
238.411
  0
LINE
  8
0
 10
96.1805
 20
238.411
 11
96.2107
 21
238.311
  0
LINE
  8
0
 10
96.2107
 20
238.311
 11
96.2325
 21
238.208
  0
LINE
  8
0
 10
96.2325
 20
238.208
 11
96.2456
 21
238.105
  0
LINE
  8
0
 10
96.2456
 20
238.105
 11
96.25
 21
238
  0
LINE
  8
0
 10
96.25
 20
238
 11
96.2456
 21
237.895
  0
LINE
  8
0
 10
96.2456
 20
237.895
 11
96.2325
 21
237.792
  0
LINE
  8
0
 10
96.2325
 20
237.792
 11
96.2107
 21
237.689
  0
LINE
  8
0
 10
96.2107
 20
237.689
 11
96.1805
 21
237.589
  0
LINE
  8
0
 10
96.1805
 20
237.589
 11
96.1419
 21
237.492
  0
LINE
  8
0
 10
96.1419
 20
237.492
 11
96.0954
 21
237.398
  0
LINE
  8
0
 10
96.0954
 20
237.398
 11
96.0411
 21
237.308
  0
LINE
  8
0
 10
96.0411
 20
237.308
 11
95.9796
 21
237.224
  0
LINE
  8
0
 10
95.9796
 20
237.224
 11
95.9112
 21
237.144
  0
LINE
  8
0
 10
95.9112
 20
237.144
 11
95.8364
 21
237.071
  0
LINE
  8
0
 10
95.8364
 20
237.071
 11
95.7557
 21
237.004
  0
LINE
  8
0
 10
95.7557
 20
237.004
 11
95.6698
 21
236.945
  0
LINE
  8
0
 10
95.6698
 20
236.945
 11
95.5791
 21
236.892
  0
LINE
  8
0
 10
95.5791
 20
236.892
 11
95.4844
 21
236.848
  0
LINE
  8
0
 10
95.4844
 20
236.848
 11
95.3863
 21
236.811
  0
LINE
  8
0
 10
95.3863
 20
236.811
 11
95.2854
 21
236.783
  0
LINE
  8
0
 10
95.2854
 20
236.783
 11
95.1826
 21
236.763
  0
LINE
  8
0
 10
95.1826
 20
236.763
 11
95.0785
 21
236.752
  0
LINE
  8
0
 10
95.0785
 20
236.752
 11
94.9738
 21
236.75
  0
LINE
  8
0
 10
94.9738
 20
236.75
 11
94.8693
 21
236.757
  0
LINE
  8
0
 10
173
 20
221
 11
173
 21
236
  0
LINE
  8
0
 10
173
 20
236
 11
188
 21
236
  0
LINE
  8
0
 10
188
 20
236
 11
188
 21
221
  0
LINE
  8
0
 10
188
 20
221
 11
173
 21
221
  0
LINE
  8
0
 10
154
 20
221
 11
154
 21
236
  0
LINE
  8
0
 10
154
 20
236
 11
169
 21
236
  0
LINE
  8
0
 10
169
 20
236
 11
169
 21
221
  0
LINE
  8
0
 10
169
 20
221
 11
154
 21
221
  0
LINE
  8
0
 10
135
 20
221
 11
135
 21
236
  0
LINE
  8
0
 10
135
 20
236
 11
150
 21
236
  0
LINE
  8
0
 10
150
 20
236
 11
150
 21
221
  0
LINE
  8
0
 10
150
 20
221
 11
135
 21
221
  0
LINE
  8
0
 10
116
 20
221
 11
116
 21
236
  0
LINE
  8
0
 10
116
 20
236
 11
131
 21
236
  0
LINE
  8
0
 10
131
 20
236
 11
131
 21
221
  0
LINE
  8
0
 10
131
 20
221
 11
116
 21
221
  0
LINE
  8
0
 10
97
 20
221
 11
97
 21
236
  0
LINE
  8
0
 10
97
 20
236
 11
112
 21
236
  0
LINE
  8
0
 10
112
 20
236
 11
112
 21
221
  0
LINE
  8
0
 10
112
 20
221
 11
97
 21
221
  0
LINE
  8
0
 10
78
 20
221
 11
78
 21
236
  0
LINE
  8
0
 10
78
 20
236
 11
93
 21
236
  0
LINE
  8
0
 10
93
 20
236
 11
93
 21
221
  0
LINE
  8
0
 10
93
 20
221
 11
78
 21
221
  0
LINE
  8
0
 10
59
 20
221
 11
59
 21
236
  0
LINE
  8
0
 10
59
 20
236
 11
74
 21
236
  0
LINE
  8
0
 10
74
 20
236
 11
74
 21
221
  0
LINE
  8
0
 10
74
 20
221
 11
59
 21
221
  0
LINE
  8
0
 10
40
 20
221
 11
40
 21
236
  0
LINE
  8
0
 10
40
 20
236
 11
55
 21
236
  0
LINE
  8
0
 10
55
 20
236
 11
55
 21
221
  0
LINE
  8
0
 10
55
 20
221
 11
40
 21
221
  0
LINE
  8
0
 10
21
 20
221
 11
21
 21
236
  0
LINE
  8
0
 10
21
 20
236
 11
36
 21
236
  0
LINE
  8
0
 10
36
 20
236
 11
36
 21
221
  0
LINE
  8
0
 10
36
 20
221
 11
21
 21
221
  0
LINE
  8
0
 10
2
 20
221
 11
2
 21
236
  0
LINE
  8
0
 10
2
 20
236
 11
17
 21
236
  0
LINE
  8
0
 10
17
 20
236
 11
17
 21
221
  0
LINE
  8
0
 10
17
 20
221
 11
2
 21
221
  0
LINE
  8
0
 10
170.869
 20
217.757
 11
170.766
 21
217.772
  0
LINE
  8
0
 10
170.766
 20
217.772
 11
170.664
 21
217.796
  0
LINE
  8
0
 10
170.664
 20
217.796
 11
170.564
 21
217.828
  0
LINE
  8
0
 10
170.564
 20
217.828
 11
170.468
 21
217.869
  0
LINE
  8
0
 10
170.468
 20
217.869
 11
170.375
 21
217.917
  0
LINE
  8
0
 10
170.375
 20
217.917
 11
170.287
 21
217.974
  0
LINE
  8
0
 10
170.287
 20
217.974
 11
170.203
 21
218.037
  0
LINE
  8
0
 10
170.203
 20
218.037
 11
170.125
 21
218.107
  0
LINE
  8
0
 10
170.125
 20
218.107
 11
170.054
 21
218.183
  0
LINE
  8
0
 10
170.054
 20
218.183
 11
169.989
 21
218.265
  0
LINE
  8
0
 10
169.989
 20
218.265
 11
169.931
 21
218.352
  0
LINE
  8
0
 10
169.931
 20
218.352
 11
169.88
 21
218.444
  0
LINE
  8
0
 10
169.88
 20
218.444
 11
169.838
 21
218.54
  0
LINE
  8
0
 10
169.838
 20
218.54
 11
169.803
 21
218.639
  0
LINE
  8
0
 10
169.803
 20
218.639
 11
169.777
 21
218.74
  0
LINE
  8
0
 10
169.777
 20
218.74
 11
169.76
 21
218.843
  0
LINE
  8
0
 10
169.76
 20
218.843
 11
169.751
 21
218.948
  0
LINE
  8
0
 10
169.751
 20
218.948
 11
169.751
 21
219.052
  0
LINE
  8
0
 10
169.751
 20
219.052
 11
169.76
 21
219.157
  0
LINE
  8
0
 10
169.76
 20
219.157
 11
169.777
 21
219.26
  0
LINE
  8
0
 10
169.777
 20
219.26
 11
169.803
 21
219.361
  0
LINE
  8
0
 10
169.803
 20
219.361
 11
169.838
 21
219.46
  0
LINE
  8
0
 10
169.838
 20
219.46
 11
169.88
 21
219.556
  0
LINE
  8
0
 10
169.88
 20
219.556
 11
169.931
 21
219.648
  0
LINE
  8
0
 10
169.931
 20
219.648
 11
169.989
 21
219.735
  0
LINE
  8
0
 10
169.989
 20
219.735
 11
170.054
 21
219.817
  0
LINE
  8
0
 10
170.054
 20
219.817
 11
170.125
 21
219.893
  0
LINE
  8
0
 10
170.125
 20
219.893
 11
170.203
 21
219.963
  0
LINE
  8
0
 10
170.203
 20
219.963
 11
170.287
 21
220.026
  0
LINE
  8
0
 10
170.287
 20
220.026
 11
170.375
 21
220.083
  0
LINE
  8
0
 10
170.375
 20
220.083
 11
170.468
 21
220.131
  0
LINE
  8
0
 10
170.468
 20
220.131
 11
170.564
 21
220.172
  0
LINE
  8
0
 10
170.564
 20
220.172
 11
170.664
 21
220.204
  0
LINE
  8
0
 10
170.664
 20
220.204
 11
170.766
 21
220.228
  0
LINE
  8
0
 10
170.766
 20
220.228
 11
170.869
 21
220.243
  0
LINE
  8
0
 10
170.869
 20
220.243
 11
170.974
 21
220.25
  0
LINE
  8
0
 10
170.974
 20
220.25
 11
171.078
 21
220.248
  0
LINE
  8
0
 10
171.078
 20
220.248
 11
171.183
 21
220.237
  0
LINE
  8
0
 10
171.183
 20
220.237
 11
171.285
 21
220.217
  0
LINE
  8
0
 10
171.285
 20
220.217
 11
171.386
 21
220.189
  0
LINE
  8
0
 10
171.386
 20
220.189
 11
171.484
 21
220.152
  0
LINE
  8
0
 10
171.484
 20
220.152
 11
171.579
 21
220.108
  0
LINE
  8
0
 10
171.579
 20
220.108
 11
171.67
 21
220.055
  0
LINE
  8
0
 10
171.67
 20
220.055
 11
171.756
 21
219.996
  0
LINE
  8
0
 10
171.756
 20
219.996
 11
171.836
 21
219.929
  0
LINE
  8
0
 10
171.836
 20
219.929
 11
171.911
 21
219.856
  0
LINE
  8
0
 10
171.911
 20
219.856
 11
171.98
 21
219.776
  0
LINE
  8
0
 10
171.98
 20
219.776
 11
172.041
 21
219.692
  0
LINE
  8
0
 10
172.041
 20
219.692
 11
172.095
 21
219.602
  0
LINE
  8
0
 10
172.095
 20
219.602
 11
172.142
 21
219.508
  0
LINE
  8
0
 10
172.142
 20
219.508
 11
172.18
 21
219.411
  0
LINE
  8
0
 10
172.18
 20
219.411
 11
172.211
 21
219.311
  0
LINE
  8
0
 10
172.211
 20
219.311
 11
172.232
 21
219.208
  0
LINE
  8
0
 10
172.232
 20
219.208
 11
172.246
 21
219.105
  0
LINE
  8
0
 10
172.246
 20
219.105
 11
172.25
 21
219
  0
LINE
  8
0
 10
172.25
 20
219
 11
172.246
 21
218.895
  0
LINE
  8
0
 10
172.246
 20
218.895
 11
172.232
 21
218.792
  0
LINE
  8
0
 10
172.232
 20
218.792
 11
172.211
 21
218.689
  0
LINE
  8
0
 10
172.211
 20
218.689
 11
172.18
 21
218.589
  0
LINE
  8
0
 10
172.18
 20
218.589
 11
172.142
 21
218.492
  0
LINE
  8
0
 10
172.142
 20
218.492
 11
172.095
 21
218.398
  0
LINE
  8
0
 10
172.095
 20
218.398
 11
172.041
 21
218.308
  0
LINE
  8
0
 10
172.041
 20
218.308
 11
171.98
 21
218.224
  0
LINE
  8
0
 10
171.98
 20
218.224
 11
171.911
 21
218.144
  0
LINE
  8
0
 10
171.911
 20
218.144
 11
171.836
 21
218.071
  0
LINE
  8
0
 10
171.836
 20
218.071
 11
171.756
 21
218.004
  0
LINE
  8
0
 10
171.756
 20
218.004
 11
171.67
 21
217.945
  0
LINE
  8
0
 10
171.67
 20
217.945
 11
171.579
 21
217.892
  0
LINE
  8
0
 10
171.579
 20
217.892
 11
171.484
 21
217.848
  0
LINE
  8
0
 10
171.484
 20
217.848
 11
171.386
 21
217.811
  0
LINE
  8
0
 10
171.386
 20
217.811
 11
171.285
 21
217.783
  0
LINE
  8
0
 10
171.285
 20
217.783
 11
171.183
 21
217.763
  0
LINE
  8
0
 10
171.183
 20
217.763
 11
171.078
 21
217.752
  0
LINE
  8
0
 10
171.078
 20
217.752
 11
170.974
 21
217.75
  0
LINE
  8
0
 10
170.974
 20
217.75
 11
170.869
 21
217.757
  0
LINE
  8
0
 10
18.8693
 20
217.757
 11
18.7658
 21
217.772
  0
LINE
  8
0
 10
18.7658
 20
217.772
 11
18.6638
 21
217.796
  0
LINE
  8
0
 10
18.6638
 20
217.796
 11
18.5643
 21
217.828
  0
LINE
  8
0
 10
18.5643
 20
217.828
 11
18.4678
 21
217.869
  0
LINE
  8
0
 10
18.4678
 20
217.869
 11
18.375
 21
217.917
  0
LINE
  8
0
 10
18.375
 20
217.917
 11
18.2866
 21
217.974
  0
LINE
  8
0
 10
18.2866
 20
217.974
 11
18.2032
 21
218.037
  0
LINE
  8
0
 10
18.2032
 20
218.037
 11
18.1254
 21
218.107
  0
LINE
  8
0
 10
18.1254
 20
218.107
 11
18.0537
 21
218.183
  0
LINE
  8
0
 10
18.0537
 20
218.183
 11
17.9887
 21
218.265
  0
LINE
  8
0
 10
17.9887
 20
218.265
 11
17.9308
 21
218.352
  0
LINE
  8
0
 10
17.9308
 20
218.352
 11
17.8804
 21
218.444
  0
LINE
  8
0
 10
17.8804
 20
218.444
 11
17.8378
 21
218.54
  0
LINE
  8
0
 10
17.8378
 20
218.54
 11
17.8033
 21
218.639
  0
LINE
  8
0
 10
17.8033
 20
218.639
 11
17.7773
 21
218.74
  0
LINE
  8
0
 10
17.7773
 20
218.74
 11
17.7598
 21
218.843
  0
LINE
  8
0
 10
17.7598
 20
218.843
 11
17.7511
 21
218.948
  0
LINE
  8
0
 10
17.7511
 20
218.948
 11
17.7511
 21
219.052
  0
LINE
  8
0
 10
17.7511
 20
219.052
 11
17.7598
 21
219.157
  0
LINE
  8
0
 10
17.7598
 20
219.157
 11
17.7773
 21
219.26
  0
LINE
  8
0
 10
17.7773
 20
219.26
 11
17.8033
 21
219.361
  0
LINE
  8
0
 10
17.8033
 20
219.361
 11
17.8378
 21
219.46
  0
LINE
  8
0
 10
17.8378
 20
219.46
 11
17.8804
 21
219.556
  0
LINE
  8
0
 10
17.8804
 20
219.556
 11
17.9308
 21
219.648
  0
LINE
  8
0
 10
17.9308
 20
219.648
 11
17.9887
 21
219.735
  0
LINE
  8
0
 10
17.9887
 20
219.735
 11
18.0537
 21
219.817
  0
LINE
  8
0
 10
18.0537
 20
219.817
 11
18.1254
 21
219.893
  0
LINE
  8
0
 10
18.1254
 20
219.893
 11
18.2032
 21
219.963
  0
LINE
  8
0
 10
18.2032
 20
219.963
 11
18.2866
 21
220.026
  0
LINE
  8
0
 10
18.2866
 20
220.026
 11
18.375
 21
220.083
  0
LINE
  8
0
 10
18.375
 20
220.083
 11
18.4678
 21
220.131
  0
LINE
  8
0
 10
18.4678
 20
220.131
 11
18.5643
 21
220.172
  0
LINE
  8
0
 10
18.5643
 20
220.172
 11
18.6638
 21
220.204
  0
LINE
  8
0
 10
18.6638
 20
220.204
 11
18.7658
 21
220.228
  0
LINE
  8
0
 10
18.7658
 20
220.228
 11
18.8693
 21
220.243
  0
LINE
  8
0
 10
18.8693
 20
220.243
 11
18.9738
 21
220.25
  0
LINE
  8
0
 10
18.9738
 20
220.25
 11
19.0785
 21
220.248
  0
LINE
  8
0
 10
19.0785
 20
220.248
 11
19.1826
 21
220.237
  0
LINE
  8
0
 10
19.1826
 20
220.237
 11
19.2854
 21
220.217
  0
LINE
  8
0
 10
19.2854
 20
220.217
 11
19.3863
 21
220.189
  0
LINE
  8
0
 10
19.3863
 20
220.189
 11
19.4844
 21
220.152
  0
LINE
  8
0
 10
19.4844
 20
220.152
 11
19.5791
 21
220.108
  0
LINE
  8
0
 10
19.5791
 20
220.108
 11
19.6698
 21
220.055
  0
LINE
  8
0
 10
19.6698
 20
220.055
 11
19.7557
 21
219.996
  0
LINE
  8
0
 10
19.7557
 20
219.996
 11
19.8364
 21
219.929
  0
LINE
  8
0
 10
19.8364
 20
219.929
 11
19.9112
 21
219.856
  0
LINE
  8
0
 10
19.9112
 20
219.856
 11
19.9796
 21
219.776
  0
LINE
  8
0
 10
19.9796
 20
219.776
 11
20.0411
 21
219.692
  0
LINE
  8
0
 10
20.0411
 20
219.692
 11
20.0954
 21
219.602
  0
LINE
  8
0
 10
20.0954
 20
219.602
 11
20.1419
 21
219.508
  0
LINE
  8
0
 10
20.1419
 20
219.508
 11
20.1805
 21
219.411
  0
LINE
  8
0
 10
20.1805
 20
219.411
 11
20.2107
 21
219.311
  0
LINE
  8
0
 10
20.2107
 20
219.311
 11
20.2325
 21
219.208
  0
LINE
  8
0
 10
20.2325
 20
219.208
 11
20.2456
 21
219.105
  0
LINE
  8
0
 10
20.2456
 20
219.105
 11
20.25
 21
219
  0
LINE
  8
0
 10
20.25
 20
219
 11
20.2456
 21
218.895
  0
LINE
  8
0
 10
20.2456
 20
218.895
 11
20.2325
 21
218.792
  0
LINE
  8
0
 10
20.2325
 20
218.792
 11
20.2107
 21
218.689
  0
LINE
  8
0
 10
20.2107
 20
218.689
 11
20.1805
 21
218.589
  0
LINE
  8
0
 10
20.1805
 20
218.589
 11
20.1419
 21
218.492
  0
LINE
  8
0
 10
20.1419
 20
218.492
 11
20.0954
 21
218.398
  0
LINE
  8
0
 10
20.0954
 20
218.398
 11
20.0411
 21
218.308
  0
LINE
  8
0
 10
20.0411
 20
218.308
 11
19.9796
 21
218.224
  0
LINE
  8
0
 10
19.9796
 20
218.224
 11
19.9112
 21
218.144
  0
LINE
  8
0
 10
19.9112
 20
218.144
 11
19.8364
 21
218.071
  0
LINE
  8
0
 10
19.8364
 20
218.071
 11
19.7557
 21
218.004
  0
LINE
  8
0
 10
19.7557
 20
218.004
 11
19.6698
 21
217.945
  0
LINE
  8
0
 10
19.6698
 20
217.945
 11
19.5791
 21
217.892
  0
LINE
  8
0
 10
19.5791
 20
217.892
 11
19.4844
 21
217.848
  0
LINE
  8
0
 10
19.4844
 20
217.848
 11
19.3863
 21
217.811
  0
LINE
  8
0
 10
19.3863
 20
217.811
 11
19.2854
 21
217.783
  0
LINE
  8
0
 10
19.2854
 20
217.783
 11
19.1826
 21
217.763
  0
LINE
  8
0
 10
19.1826
 20
217.763
 11
19.0785
 21
217.752
  0
LINE
  8
0
 10
19.0785
 20
217.752
 11
18.9738
 21
217.75
  0
LINE
  8
0
 10
18.9738
 20
217.75
 11
18.8693
 21
217.757
  0
LINE
  8
0
 10
173
 20
202
 11
173
 21
217
  0
LINE
  8
0
 10
173
 20
217
 11
188
 21
217
  0
LINE
  8
0
 10
188
 20
217
 11
188
 21
202
  0
LINE
  8
0
 10
188
 20
202
 11
173
 21
202
  0
LINE
  8
0
 10
154
 20
202
 11
154
 21
217
  0
LINE
  8
0
 10
154
 20
217
 11
169
 21
217
  0
LINE
  8
0
 10
169
 20
217
 11
169
 21
202
  0
LINE
  8
0
 10
169
 20
202
 11
154
 21
202
  0
LINE
  8
0
 10
135
 20
202
 11
135
 21
217
  0
LINE
  8
0
 10
135
 20
217
 11
150
 21
217
  0
LINE
  8
0
 10
150
 20
217
 11
150
 21
202
  0
LINE
  8
0
 10
150
 20
202
 11
135
 21
202
  0
LINE
  8
0
 10
116
 20
202
 11
116
 21
217
  0
LINE
  8
0
 10
116
 20
217
 11
131
 21
217
  0
LINE
  8
0
 10
131
 20
217
 11
131
 21
202
  0
LINE
  8
0
 10
131
 20
202
 11
116
 21
202
  0
LINE
  8
0
 10
97
 20
202
 11
97
 21
217
  0
LINE
  8
0
 10
97
 20
217
 11
112
 21
217
  0
LINE
  8
0
 10
112
 20
217
 11
112
 21
202
  0
LINE
  8
0
 10
112
 20
202
 11
97
 21
202
  0
LINE
  8
0
 10
78
 20
202
 11
78
 21
217
  0
LINE
  8
0
 10
78
 20
217
 11
93
 21
217
  0
LINE
  8
0
 10
93
 20
217
 11
93
 21
202
  0
LINE
  8
0
 10
93
 20
202
 11
78
 21
202
  0
LINE
  8
0
 10
59
 20
202
 11
59
 21
217
  0
LINE
  8
0
 10
59
 20
217
 11
74
 21
217
  0
LINE
  8
0
 10
74
 20
217
 11
74
 21
202
  0
LINE
  8
0
 10
74
 20
202
 11
59
 21
202
  0
LINE
  8
0
 10
40
 20
202
 11
40
 21
217
  0
LINE
  8
0
 10
40
 20
217
 11
55
 21
217
  0
LINE
  8
0
 10
55
 20
217
 11
55
 21
202
  0
LINE
  8
0
 10
55
 20
202
 11
40
 21
202
  0
LINE
  8
0
 10
21
 20
202
 11
21
 21
217
  0
LINE
  8
0
 10
21
 20
217
 11
36
 21
217
  0
LINE
  8
0
 10
36
 20
217
 11
36
 21
202
  0
LINE
  8
0
 10
36
 20
202
 11
21
 21
202
  0
LINE
  8
0
 10
2
 20
202
 11
2
 21
217
  0
LINE
  8
0
 10
2
 20
217
 11
17
 21
217
  0
LINE
  8
0
 10
17
 20
217
 11
17
 21
202
  0
LINE
  8
0
 10
17
 20
202
 11
2
 21
202
  0
LINE
  8
0
 10
192.954
 20
95.1755
 11
193.121
 21
95.193
  0
LINE
  8
0
 10
193.121
 20
95.193
 11
193.285
 21
95.2244
  0
LINE
  8
0
 10
193.285
 20
95.2244
 11
193.446
 21
95.2695
  0
LINE
  8
0
 10
193.446
 20
95.2695
 11
193.603
 21
95.3279
  0
LINE
  8
0
 10
193.603
 20
95.3279
 11
193.755
 21
95.3992
  0
LINE
  8
0
 10
193.755
 20
95.3992
 11
193.9
 21
95.4829
  0
LINE
  8
0
 10
193.9
 20
95.4829
 11
194.038
 21
95.5785
  0
LINE
  8
0
 10
194.038
 20
95.5785
 11
194.167
 21
95.6853
  0
LINE
  8
0
 10
194.167
 20
95.6853
 11
194.286
 21
95.8025
  0
LINE
  8
0
 10
194.286
 20
95.8025
 11
194.396
 21
95.9293
  0
LINE
  8
0
 10
194.396
 20
95.9293
 11
194.494
 21
96.0648
  0
LINE
  8
0
 10
194.494
 20
96.0648
 11
194.581
 21
96.2081
  0
LINE
  8
0
 10
194.581
 20
96.2081
 11
194.656
 21
96.3581
  0
LINE
  8
0
 10
194.656
 20
96.3581
 11
194.717
 21
96.5138
  0
LINE
  8
0
 10
194.717
 20
96.5138
 11
194.766
 21
96.6742
  0
LINE
  8
0
 10
194.766
 20
96.6742
 11
194.8
 21
96.838
  0
LINE
  8
0
 10
194.8
 20
96.838
 11
194.821
 21
97.0042
  0
LINE
  8
0
 10
194.821
 20
97.0042
 11
194.828
 21
97.1716
  0
LINE
  8
0
 10
194.828
 20
97.1716
 11
194.828
 21
178.828
  0
LINE
  8
0
 10
194.828
 20
178.828
 11
194.821
 21
178.996
  0
LINE
  8
0
 10
194.821
 20
178.996
 11
194.8
 21
179.162
  0
LINE
  8
0
 10
194.8
 20
179.162
 11
194.766
 21
179.326
  0
LINE
  8
0
 10
194.766
 20
179.326
 11
194.717
 21
179.486
  0
LINE
  8
0
 10
194.717
 20
179.486
 11
194.656
 21
179.642
  0
LINE
  8
0
 10
194.656
 20
179.642
 11
194.581
 21
179.792
  0
LINE
  8
0
 10
194.581
 20
179.792
 11
194.494
 21
179.935
  0
LINE
  8
0
 10
194.494
 20
179.935
 11
194.396
 21
180.071
  0
LINE
  8
0
 10
194.396
 20
180.071
 11
194.286
 21
180.198
  0
LINE
  8
0
 10
194.286
 20
180.198
 11
194.167
 21
180.315
  0
LINE
  8
0
 10
194.167
 20
180.315
 11
194.038
 21
180.421
  0
LINE
  8
0
 10
194.038
 20
180.421
 11
193.9
 21
180.517
  0
LINE
  8
0
 10
193.9
 20
180.517
 11
193.755
 21
180.601
  0
LINE
  8
0
 10
193.755
 20
180.601
 11
193.603
 21
180.672
  0
LINE
  8
0
 10
193.603
 20
180.672
 11
193.446
 21
180.731
  0
LINE
  8
0
 10
193.446
 20
180.731
 11
193.285
 21
180.776
  0
LINE
  8
0
 10
193.285
 20
180.776
 11
193.121
 21
180.807
  0
LINE
  8
0
 10
193.121
 20
180.807
 11
192.954
 21
180.824
  0
LINE
  8
0
 10
192.954
 20
180.824
 11
192.787
 21
180.828
  0
LINE
  8
0
 10
192.787
 20
180.828
 11
-2.8703
 21
180.828
  0
LINE
  8
0
 10
-2.8703
 20
180.828
 11
-3.03748
 21
180.817
  0
LINE
  8
0
 10
-3.03748
 20
180.817
 11
-3.20319
 21
180.793
  0
LINE
  8
0
 10
-3.20319
 20
180.793
 11
-3.36626
 21
180.755
  0
LINE
  8
0
 10
-3.36626
 20
180.755
 11
-3.52556
 21
180.703
  0
LINE
  8
0
 10
-3.52556
 20
180.703
 11
-3.67998
 21
180.638
  0
LINE
  8
0
 10
-3.67998
 20
180.638
 11
-3.82841
 21
180.56
  0
LINE
  8
0
 10
-3.82841
 20
180.56
 11
-3.96985
 21
180.471
  0
LINE
  8
0
 10
-3.96985
 20
180.471
 11
-4.10327
 21
180.369
  0
LINE
  8
0
 10
-4.10327
 20
180.369
 11
-4.22775
 21
180.257
  0
LINE
  8
0
 10
-4.22775
 20
180.257
 11
-4.34241
 21
180.135
  0
LINE
  8
0
 10
-4.34241
 20
180.135
 11
-4.44646
 21
180.004
  0
LINE
  8
0
 10
-4.44646
 20
180.004
 11
-4.53915
 21
179.864
  0
LINE
  8
0
 10
-4.53915
 20
179.864
 11
-4.61984
 21
179.718
  0
LINE
  8
0
 10
-4.61984
 20
179.718
 11
-4.68797
 21
179.565
  0
LINE
  8
0
 10
-4.68797
 20
179.565
 11
-4.74306
 21
179.406
  0
LINE
  8
0
 10
-4.74306
 20
179.406
 11
-4.78471
 21
179.244
  0
LINE
  8
0
 10
-4.78471
 20
179.244
 11
-4.81265
 21
179.079
  0
LINE
  8
0
 10
-4.81265
 20
179.079
 11
-4.82666
 21
178.912
  0
LINE
  8
0
 10
-4.82666
 20
178.912
 11
-4.82666
 21
97.0878
  0
LINE
  8
0
 10
-4.82666
 20
97.0878
 11
-4.81265
 21
96.9209
  0
LINE
  8
0
 10
-4.81265
 20
96.9209
 11
-4.78471
 21
96.7558
  0
LINE
  8
0
 10
-4.78471
 20
96.7558
 11
-4.74306
 21
96.5935
  0
LINE
  8
0
 10
-4.74306
 20
96.5935
 11
-4.68797
 21
96.4353
  0
LINE
  8
0
 10
-4.68797
 20
96.4353
 11
-4.61984
 21
96.2823
  0
LINE
  8
0
 10
-4.61984
 20
96.2823
 11
-4.53915
 21
96.1355
  0
LINE
  8
0
 10
-4.53915
 20
96.1355
 11
-4.44646
 21
95.996
  0
LINE
  8
0
 10
-4.44646
 20
95.996
 11
-4.34241
 21
95.8647
  0
LINE
  8
0
 10
-4.34241
 20
95.8647
 11
-4.22775
 21
95.7426
  0
LINE
  8
0
 10
-4.22775
 20
95.7426
 11
-4.10327
 21
95.6306
  0
LINE
  8
0
 10
-4.10327
 20
95.6306
 11
-3.96985
 21
95.5293
  0
LINE
  8
0
 10
-3.96985
 20
95.5293
 11
-3.82841
 21
95.4395
  0
LINE
  8
0
 10
-3.82841
 20
95.4395
 11
-3.67998
 21
95.3619
  0
LINE
  8
0
 10
-3.67998
 20
95.3619
 11
-3.52556
 21
95.297
  0
LINE
  8
0
 10
-3.52556
 20
95.297
 11
-3.36626
 21
95.2453
  0
LINE
  8
0
 10
-3.36626
 20
95.2453
 11
-3.20319
 21
95.207
  0
LINE
  8
0
 10
-3.20319
 20
95.207
 11
-3.03748
 21
95.1825
  0
LINE
  8
0
 10
-3.03748
 20
95.1825
 11
-2.8703
 21
95.172
  0
LINE
  8
0
 10
-2.8703
 20
95.172
 11
192.787
 21
95.172
  0
LINE
  8
0
 10
192.787
 20
95.172
 11
192.954
 21
95.1755
  0
LINE
  8
0
 10
173.5
 20
159.5
 11
173.5
 21
160.495
  0
LINE
  8
0
 10
173.5
 20
160.495
 11
172.687
 21
160.495
  0
LINE
  8
0
 10
172.687
 20
160.495
 11
172.687
 21
163.996
  0
LINE
  8
0
 10
172.687
 20
163.996
 11
173.5
 21
163.996
  0
LINE
  8
0
 10
173.5
 20
163.996
 11
173.5
 21
169.004
  0
LINE
  8
0
 10
173.5
 20
169.004
 11
172.687
 21
169.004
  0
LINE
  8
0
 10
172.687
 20
169.004
 11
172.687
 21
172.505
  0
LINE
  8
0
 10
172.687
 20
172.505
 11
173.5
 21
172.505
  0
LINE
  8
0
 10
173.5
 20
172.505
 11
173.5
 21
173.5
  0
LINE
  8
0
 10
173.5
 20
173.5
 11
187.5
 21
173.5
  0
LINE
  8
0
 10
187.5
 20
173.5
 11
187.5
 21
172.505
  0
LINE
  8
0
 10
187.5
 20
172.505
 11
188.313
 21
172.505
  0
LINE
  8
0
 10
188.313
 20
172.505
 11
188.313
 21
169.004
  0
LINE
  8
0
 10
188.313
 20
169.004
 11
187.5
 21
169.004
  0
LINE
  8
0
 10
187.5
 20
169.004
 11
187.5
 21
163.996
  0
LINE
  8
0
 10
187.5
 20
163.996
 11
188.313
 21
163.996
  0
LINE
  8
0
 10
188.313
 20
163.996
 11
188.313
 21
160.495
  0
LINE
  8
0
 10
188.313
 20
160.495
 11
187.5
 21
160.495
  0
LINE
  8
0
 10
187.5
 20
160.495
 11
187.5
 21
159.5
  0
LINE
  8
0
 10
187.5
 20
159.5
 11
173.5
 21
159.5
  0
LINE
  8
0
 10
154.5
 20
159.5
 11
154.5
 21
160.495
  0
LINE
  8
0
 10
154.5
 20
160.495
 11
153.687
 21
160.495
  0
LINE
  8
0
 10
153.687
 20
160.495
 11
153.687
 21
163.996
  0
LINE
  8
0
 10
153.687
 20
163.996
 11
154.5
 21
163.996
  0
LINE
  8
0
 10
154.5
 20
163.996
 11
154.5
 21
169.004
  0
LINE
  8
0
 10
154.5
 20
169.004
 11
153.687
 21
169.004
  0
LINE
  8
0
 10
153.687
 20
169.004
 11
153.687
 21
172.505
  0
LINE
  8
0
 10
153.687
 20
172.505
 11
154.5
 21
172.505
  0
LINE
  8
0
 10
154.5
 20
172.505
 11
154.5
 21
173.5
  0
LINE
  8
0
 10
154.5
 20
173.5
 11
168.5
 21
173.5
  0
LINE
  8
0
 10
168.5
 20
173.5
 11
168.5
 21
172.505
  0
LINE
  8
0
 10
168.5
 20
172.505
 11
169.313
 21
172.505
  0
LINE
  8
0
 10
169.313
 20
172.505
 11
169.313
 21
169.004
  0
LINE
  8
0
 10
169.313
 20
169.004
 11
168.5
 21
169.004
  0
LINE
  8
0
 10
168.5
 20
169.004
 11
168.5
 21
163.996
  0
LINE
  8
0
 10
168.5
 20
163.996
 11
169.313
 21
163.996
  0
LINE
  8
0
 10
169.313
 20
163.996
 11
169.313
 21
160.495
  0
LINE
  8
0
 10
169.313
 20
160.495
 11
168.5
 21
160.495
  0
LINE
  8
0
 10
168.5
 20
160.495
 11
168.5
 21
159.5
  0
LINE
  8
0
 10
168.5
 20
159.5
 11
154.5
 21
159.5
  0
LINE
  8
0
 10
135.5
 20
159.5
 11
135.5
 21
160.495
  0
LINE
  8
0
 10
135.5
 20
160.495
 11
134.687
 21
160.495
  0
LINE
  8
0
 10
134.687
 20
160.495
 11
134.687
 21
163.996
  0
LINE
  8
0
 10
134.687
 20
163.996
 11
135.5
 21
163.996
  0
LINE
  8
0
 10
135.5
 20
163.996
 11
135.5
 21
169.004
  0
LINE
  8
0
 10
135.5
 20
169.004
 11
134.687
 21
169.004
  0
LINE
  8
0
 10
134.687
 20
169.004
 11
134.687
 21
172.505
  0
LINE
  8
0
 10
134.687
 20
172.505
 11
135.5
 21
172.505
  0
LINE
  8
0
 10
135.5
 20
172.505
 11
135.5
 21
173.5
  0
LINE
  8
0
 10
135.5
 20
173.5
 11
149.5
 21
173.5
  0
LINE
  8
0
 10
149.5
 20
173.5
 11
149.5
 21
172.505
  0
LINE
  8
0
 10
149.5
 20
172.505
 11
150.313
 21
172.505
  0
LINE
  8
0
 10
150.313
 20
172.505
 11
150.313
 21
169.004
  0
LINE
  8
0
 10
150.313
 20
169.004
 11
149.5
 21
169.004
  0
LINE
  8
0
 10
149.5
 20
169.004
 11
149.5
 21
163.996
  0
LINE
  8
0
 10
149.5
 20
163.996
 11
150.313
 21
163.996
  0
LINE
  8
0
 10
150.313
 20
163.996
 11
150.313
 21
160.495
  0
LINE
  8
0
 10
150.313
 20
160.495
 11
149.5
 21
160.495
  0
LINE
  8
0
 10
149.5
 20
160.495
 11
149.5
 21
159.5
  0
LINE
  8
0
 10
149.5
 20
159.5
 11
135.5
 21
159.5
  0
LINE
  8
0
 10
116.5
 20
159.5
 11
116.5
 21
160.495
  0
LINE
  8
0
 10
116.5
 20
160.495
 11
115.687
 21
160.495
  0
LINE
  8
0
 10
115.687
 20
160.495
 11
115.687
 21
163.996
  0
LINE
  8
0
 10
115.687
 20
163.996
 11
116.5
 21
163.996
  0
LINE
  8
0
 10
116.5
 20
163.996
 11
116.5
 21
169.004
  0
LINE
  8
0
 10
116.5
 20
169.004
 11
115.687
 21
169.004
  0
LINE
  8
0
 10
115.687
 20
169.004
 11
115.687
 21
172.505
  0
LINE
  8
0
 10
115.687
 20
172.505
 11
116.5
 21
172.505
  0
LINE
  8
0
 10
116.5
 20
172.505
 11
116.5
 21
173.5
  0
LINE
  8
0
 10
116.5
 20
173.5
 11
130.5
 21
173.5
  0
LINE
  8
0
 10
130.5
 20
173.5
 11
130.5
 21
172.505
  0
LINE
  8
0
 10
130.5
 20
172.505
 11
131.313
 21
172.505
  0
LINE
  8
0
 10
131.313
 20
172.505
 11
131.313
 21
169.004
  0
LINE
  8
0
 10
131.313
 20
169.004
 11
130.5
 21
169.004
  0
LINE
  8
0
 10
130.5
 20
169.004
 11
130.5
 21
163.996
  0
LINE
  8
0
 10
130.5
 20
163.996
 11
131.313
 21
163.996
  0
LINE
  8
0
 10
131.313
 20
163.996
 11
131.313
 21
160.495
  0
LINE
  8
0
 10
131.313
 20
160.495
 11
130.5
 21
160.495
  0
LINE
  8
0
 10
130.5
 20
160.495
 11
130.5
 21
159.5
  0
LINE
  8
0
 10
130.5
 20
159.5
 11
116.5
 21
159.5
  0
LINE
  8
0
 10
97.5
 20
159.5
 11
97.5
 21
160.495
  0
LINE
  8
0
 10
97.5
 20
160.495
 11
96.6872
 21
160.495
  0
LINE
  8
0
 10
96.6872
 20
160.495
 11
96.6872
 21
163.996
  0
LINE
  8
0
 10
96.6872
 20
163.996
 11
97.5
 21
163.996
  0
LINE
  8
0
 10
97.5
 20
163.996
 11
97.5
 21
169.004
  0
LINE
  8
0
 10
97.5
 20
169.004
 11
96.6872
 21
169.004
  0
LINE
  8
0
 10
96.6872
 20
169.004
 11
96.6872
 21
172.505
  0
LINE
  8
0
 10
96.6872
 20
172.505
 11
97.5
 21
172.505
  0
LINE
  8
0
 10
97.5
 20
172.505
 11
97.5
 21
173.5
  0
LINE
  8
0
 10
97.5
 20
173.5
 11
111.5
 21
173.5
  0
LINE
  8
0
 10
111.5
 20
173.5
 11
111.5
 21
172.505
  0
LINE
  8
0
 10
111.5
 20
172.505
 11
112.313
 21
172.505
  0
LINE
  8
0
 10
112.313
 20
172.505
 11
112.313
 21
169.004
  0
LINE
  8
0
 10
112.313
 20
169.004
 11
111.5
 21
169.004
  0
LINE
  8
0
 10
111.5
 20
169.004
 11
111.5
 21
163.996
  0
LINE
  8
0
 10
111.5
 20
163.996
 11
112.313
 21
163.996
  0
LINE
  8
0
 10
112.313
 20
163.996
 11
112.313
 21
160.495
  0
LINE
  8
0
 10
112.313
 20
160.495
 11
111.5
 21
160.495
  0
LINE
  8
0
 10
111.5
 20
160.495
 11
111.5
 21
159.5
  0
LINE
  8
0
 10
111.5
 20
159.5
 11
97.5
 21
159.5
  0
LINE
  8
0
 10
78.5
 20
159.5
 11
78.5
 21
160.495
  0
LINE
  8
0
 10
78.5
 20
160.495
 11
77.6872
 21
160.495
  0
LINE
  8
0
 10
77.6872
 20
160.495
 11
77.6872
 21
163.996
  0
LINE
  8
0
 10
77.6872
 20
163.996
 11
78.5
 21
163.996
  0
LINE
  8
0
 10
78.5
 20
163.996
 11
78.5
 21
169.004
  0
LINE
  8
0
 10
78.5
 20
169.004
 11
77.6872
 21
169.004
  0
LINE
  8
0
 10
77.6872
 20
169.004
 11
77.6872
 21
172.505
  0
LINE
  8
0
 10
77.6872
 20
172.505
 11
78.5
 21
172.505
  0
LINE
  8
0
 10
78.5
 20
172.505
 11
78.5
 21
173.5
  0
LINE
  8
0
 10
78.5
 20
173.5
 11
92.5
 21
173.5
  0
LINE
  8
0
 10
92.5
 20
173.5
 11
92.5
 21
172.505
  0
LINE
  8
0
 10
92.5
 20
172.505
 11
93.3128
 21
172.505
  0
LINE
  8
0
 10
93.3128
 20
172.505
 11
93.3128
 21
169.004
  0
LINE
  8
0
 10
93.3128
 20
169.004
 11
92.5
 21
169.004
  0
LINE
  8
0
 10
92.5
 20
169.004
 11
92.5
 21
163.996
  0
LINE
  8
0
 10
92.5
 20
163.996
 11
93.3128
 21
163.996
  0
LINE
  8
0
 10
93.3128
 20
163.996
 11
93.3128
 21
160.495
  0
LINE
  8
0
 10
93.3128
 20
160.495
 11
92.5
 21
160.495
  0
LINE
  8
0
 10
92.5
 20
160.495
 11
92.5
 21
159.5
  0
LINE
  8
0
 10
92.5
 20
159.5
 11
78.5
 21
159.5
  0
LINE
  8
0
 10
59.5
 20
159.5
 11
59.5
 21
160.495
  0
LINE
  8
0
 10
59.5
 20
160.495
 11
58.6872
 21
160.495
  0
LINE
  8
0
 10
58.6872
 20
160.495
 11
58.6872
 21
163.996
  0
LINE
  8
0
 10
58.6872
 20
163.996
 11
59.5
 21
163.996
  0
LINE
  8
0
 10
59.5
 20
163.996
 11
59.5
 21
169.004
  0
LINE
  8
0
 10
59.5
 20
169.004
 11
58.6872
 21
169.004
  0
LINE
  8
0
 10
58.6872
 20
169.004
 11
58.6872
 21
172.505
  0
LINE
  8
0
 10
58.6872
 20
172.505
 11
59.5
 21
172.505
  0
LINE
  8
0
 10
59.5
 20
172.505
 11
59.5
 21
173.5
  0
LINE
  8
0
 10
59.5
 20
173.5
 11
73.5
 21
173.5
  0
LINE
  8
0
 10
73.5
 20
173.5
 11
73.5
 21
172.505
  0
LINE
  8
0
 10
73.5
 20
172.505
 11
74.3128
 21
172.505
  0
LINE
  8
0
 10
74.3128
 20
172.505
 11
74.3128
 21
169.004
  0
LINE
  8
0
 10
74.3128
 20
169.004
 11
73.5
 21
169.004
  0
LINE
  8
0
 10
73.5
 20
169.004
 11
73.5
 21
163.996
  0
LINE
  8
0
 10
73.5
 20
163.996
 11
74.3128
 21
163.996
  0
LINE
  8
0
 10
74.3128
 20
163.996
 11
74.3128
 21
160.495
  0
LINE
  8
0
 10
74.3128
 20
160.495
 11
73.5
 21
160.495
  0
LINE
  8
0
 10
73.5
 20
160.495
 11
73.5
 21
159.5
  0
LINE
  8
0
 10
73.5
 20
159.5
 11
59.5
 21
159.5
  0
LINE
  8
0
 10
40.5
 20
159.5
 11
40.5
 21
160.495
  0
LINE
  8
0
 10
40.5
 20
160.495
 11
39.6872
 21
160.495
  0
LINE
  8
0
 10
39.6872
 20
160.495
 11
39.6872
 21
163.996
  0
LINE
  8
0
 10
39.6872
 20
163.996
 11
40.5
 21
163.996
  0
LINE
  8
0
 10
40.5
 20
163.996
 11
40.5
 21
169.004
  0
LINE
  8
0
 10
40.5
 20
169.004
 11
39.6872
 21
169.004
  0
LINE
  8
0
 10
39.6872
 20
169.004
 11
39.6872
 21
172.505
  0
LINE
  8
0
 10
39.6872
 20
172.505
 11
40.5
 21
172.505
  0
LINE
  8
0
 10
40.5
 20
172.505
 11
40.5
 21
173.5
  0
LINE
  8
0
 10
40.5
 20
173.5
 11
54.5
 21
173.5
  0
LINE
  8
0
 10
54.5
 20
173.5
 11
54.5
 21
172.505
  0
LINE
  8
0
 10
54.5
 20
172.505
 11
55.3128
 21
172.505
  0
LINE
  8
0
 10
55.3128
 20
172.505
 11
55.3128
 21
169.004
  0
LINE
  8
0
 10
55.3128
 20
169.004
 11
54.5
 21
169.004
  0
LINE
  8
0
 10
54.5
 20
169.004
 11
54.5
 21
163.996
  0
LINE
  8
0
 10
54.5
 20
163.996
 11
55.3128
 21
163.996
  0
LINE
  8
0
 10
55.3128
 20
163.996
 11
55.3128
 21
160.495
  0
LINE
  8
0
 10
55.3128
 20
160.495
 11
54.5
 21
160.495
  0
LINE
  8
0
 10
54.5
 20
160.495
 11
54.5
 21
159.5
  0
LINE
  8
0
 10
54.5
 20
159.5
 11
40.5
 21
159.5
  0
LINE
  8
0
 10
21.5
 20
159.5
 11
21.5
 21
160.495
  0
LINE
  8
0
 10
21.5
 20
160.495
 11
20.6872
 21
160.495
  0
LINE
  8
0
 10
20.6872
 20
160.495
 11
20.6872
 21
163.996
  0
LINE
  8
0
 10
20.6872
 20
163.996
 11
21.5
 21
163.996
  0
LINE
  8
0
 10
21.5
 20
163.996
 11
21.5
 21
169.004
  0
LINE
  8
0
 10
21.5
 20
169.004
 11
20.6872
 21
169.004
  0
LINE
  8
0
 10
20.6872
 20
169.004
 11
20.6872
 21
172.505
  0
LINE
  8
0
 10
20.6872
 20
172.505
 11
21.5
 21
172.505
  0
LINE
  8
0
 10
21.5
 20
172.505
 11
21.5
 21
173.5
  0
LINE
  8
0
 10
21.5
 20
173.5
 11
35.5
 21
173.5
  0
LINE
  8
0
 10
35.5
 20
173.5
 11
35.5
 21
172.505
  0
LINE
  8
0
 10
35.5
 20
172.505
 11
36.3128
 21
172.505
  0
LINE
  8
0
 10
36.3128
 20
172.505
 11
36.3128
 21
169.004
  0
LINE
  8
0
 10
36.3128
 20
169.004
 11
35.5
 21
169.004
  0
LINE
  8
0
 10
35.5
 20
169.004
 11
35.5
 21
163.996
  0
LINE
  8
0
 10
35.5
 20
163.996
 11
36.3128
 21
163.996
  0
LINE
  8
0
 10
36.3128
 20
163.996
 11
36.3128
 21
160.495
  0
LINE
  8
0
 10
36.3128
 20
160.495
 11
35.5
 21
160.495
  0
LINE
  8
0
 10
35.5
 20
160.495
 11
35.5
 21
159.5
  0
LINE
  8
0
 10
35.5
 20
159.5
 11
21.5
 21
159.5
  0
LINE
  8
0
 10
2.5
 20
159.5
 11
2.5
 21
160.495
  0
LINE
  8
0
 10
2.5
 20
160.495
 11
1.68721
 21
160.495
  0
LINE
  8
0
 10
1.68721
 20
160.495
 11
1.68721
 21
163.996
  0
LINE
  8
0
 10
1.68721
 20
163.996
 11
2.5
 21
163.996
  0
LINE
  8
0
 10
2.5
 20
163.996
 11
2.5
 21
169.004
  0
LINE
  8
0
 10
2.5
 20
169.004
 11
1.68721
 21
169.004
  0
LINE
  8
0
 10
1.68721
 20
169.004
 11
1.68721
 21
172.505
  0
LINE
  8
0
 10
1.68721
 20
172.505
 11
2.5
 21
172.505
  0
LINE
  8
0
 10
2.5
 20
172.505
 11
2.5
 21
173.5
  0
LINE
  8
0
 10
2.5
 20
173.5
 11
16.5
 21
173.5
  0
LINE
  8
0
 10
16.5
 20
173.5
 11
16.5
 21
172.505
  0
LINE
  8
0
 10
16.5
 20
172.505
 11
17.3128
 21
172.505
  0
LINE
  8
0
 10
17.3128
 20
172.505
 11
17.3128
 21
169.004
  0
LINE
  8
0
 10
17.3128
 20
169.004
 11
16.5
 21
169.004
  0
LINE
  8
0
 10
16.5
 20
169.004
 11
16.5
 21
163.996
  0
LINE
  8
0
 10
16.5
 20
163.996
 11
17.3128
 21
163.996
  0
LINE
  8
0
 10
17.3128
 20
163.996
 11
17.3128
 21
160.495
  0
LINE
  8
0
 10
17.3128
 20
160.495
 11
16.5
 21
160.495
  0
LINE
  8
0
 10
16.5
 20
160.495
 11
16.5
 21
159.5
  0
LINE
  8
0
 10
16.5
 20
159.5
 11
2.5
 21
159.5
  0
LINE
  8
0
 10
170.869
 20
155.757
 11
170.766
 21
155.772
  0
LINE
  8
0
 10
170.766
 20
155.772
 11
170.664
 21
155.796
  0
LINE
  8
0
 10
170.664
 20
155.796
 11
170.564
 21
155.828
  0
LINE
  8
0
 10
170.564
 20
155.828
 11
170.468
 21
155.869
  0
LINE
  8
0
 10
170.468
 20
155.869
 11
170.375
 21
155.917
  0
LINE
  8
0
 10
170.375
 20
155.917
 11
170.287
 21
155.974
  0
LINE
  8
0
 10
170.287
 20
155.974
 11
170.203
 21
156.037
  0
LINE
  8
0
 10
170.203
 20
156.037
 11
170.125
 21
156.107
  0
LINE
  8
0
 10
170.125
 20
156.107
 11
170.054
 21
156.183
  0
LINE
  8
0
 10
170.054
 20
156.183
 11
169.989
 21
156.265
  0
LINE
  8
0
 10
169.989
 20
156.265
 11
169.931
 21
156.352
  0
LINE
  8
0
 10
169.931
 20
156.352
 11
169.88
 21
156.444
  0
LINE
  8
0
 10
169.88
 20
156.444
 11
169.838
 21
156.54
  0
LINE
  8
0
 10
169.838
 20
156.54
 11
169.803
 21
156.639
  0
LINE
  8
0
 10
169.803
 20
156.639
 11
169.777
 21
156.74
  0
LINE
  8
0
 10
169.777
 20
156.74
 11
169.76
 21
156.843
  0
LINE
  8
0
 10
169.76
 20
156.843
 11
169.751
 21
156.948
  0
LINE
  8
0
 10
169.751
 20
156.948
 11
169.751
 21
157.052
  0
LINE
  8
0
 10
169.751
 20
157.052
 11
169.76
 21
157.157
  0
LINE
  8
0
 10
169.76
 20
157.157
 11
169.777
 21
157.26
  0
LINE
  8
0
 10
169.777
 20
157.26
 11
169.803
 21
157.361
  0
LINE
  8
0
 10
169.803
 20
157.361
 11
169.838
 21
157.46
  0
LINE
  8
0
 10
169.838
 20
157.46
 11
169.88
 21
157.556
  0
LINE
  8
0
 10
169.88
 20
157.556
 11
169.931
 21
157.648
  0
LINE
  8
0
 10
169.931
 20
157.648
 11
169.989
 21
157.735
  0
LINE
  8
0
 10
169.989
 20
157.735
 11
170.054
 21
157.817
  0
LINE
  8
0
 10
170.054
 20
157.817
 11
170.125
 21
157.893
  0
LINE
  8
0
 10
170.125
 20
157.893
 11
170.203
 21
157.963
  0
LINE
  8
0
 10
170.203
 20
157.963
 11
170.287
 21
158.026
  0
LINE
  8
0
 10
170.287
 20
158.026
 11
170.375
 21
158.083
  0
LINE
  8
0
 10
170.375
 20
158.083
 11
170.468
 21
158.131
  0
LINE
  8
0
 10
170.468
 20
158.131
 11
170.564
 21
158.172
  0
LINE
  8
0
 10
170.564
 20
158.172
 11
170.664
 21
158.204
  0
LINE
  8
0
 10
170.664
 20
158.204
 11
170.766
 21
158.228
  0
LINE
  8
0
 10
170.766
 20
158.228
 11
170.869
 21
158.243
  0
LINE
  8
0
 10
170.869
 20
158.243
 11
170.974
 21
158.25
  0
LINE
  8
0
 10
170.974
 20
158.25
 11
171.078
 21
158.248
  0
LINE
  8
0
 10
171.078
 20
158.248
 11
171.183
 21
158.237
  0
LINE
  8
0
 10
171.183
 20
158.237
 11
171.285
 21
158.217
  0
LINE
  8
0
 10
171.285
 20
158.217
 11
171.386
 21
158.189
  0
LINE
  8
0
 10
171.386
 20
158.189
 11
171.484
 21
158.152
  0
LINE
  8
0
 10
171.484
 20
158.152
 11
171.579
 21
158.108
  0
LINE
  8
0
 10
171.579
 20
158.108
 11
171.67
 21
158.055
  0
LINE
  8
0
 10
171.67
 20
158.055
 11
171.756
 21
157.996
  0
LINE
  8
0
 10
171.756
 20
157.996
 11
171.836
 21
157.929
  0
LINE
  8
0
 10
171.836
 20
157.929
 11
171.911
 21
157.856
  0
LINE
  8
0
 10
171.911
 20
157.856
 11
171.98
 21
157.776
  0
LINE
  8
0
 10
171.98
 20
157.776
 11
172.041
 21
157.692
  0
LINE
  8
0
 10
172.041
 20
157.692
 11
172.095
 21
157.602
  0
LINE
  8
0
 10
172.095
 20
157.602
 11
172.142
 21
157.508
  0
LINE
  8
0
 10
172.142
 20
157.508
 11
172.18
 21
157.411
  0
LINE
  8
0
 10
172.18
 20
157.411
 11
172.211
 21
157.311
  0
LINE
  8
0
 10
172.211
 20
157.311
 11
172.232
 21
157.208
  0
LINE
  8
0
 10
172.232
 20
157.208
 11
172.246
 21
157.105
  0
LINE
  8
0
 10
172.246
 20
157.105
 11
172.25
 21
157
  0
LINE
  8
0
 10
172.25
 20
157
 11
172.246
 21
156.895
  0
LINE
  8
0
 10
172.246
 20
156.895
 11
172.232
 21
156.792
  0
LINE
  8
0
 10
172.232
 20
156.792
 11
172.211
 21
156.689
  0
LINE
  8
0
 10
172.211
 20
156.689
 11
172.18
 21
156.589
  0
LINE
  8
0
 10
172.18
 20
156.589
 11
172.142
 21
156.492
  0
LINE
  8
0
 10
172.142
 20
156.492
 11
172.095
 21
156.398
  0
LINE
  8
0
 10
172.095
 20
156.398
 11
172.041
 21
156.308
  0
LINE
  8
0
 10
172.041
 20
156.308
 11
171.98
 21
156.224
  0
LINE
  8
0
 10
171.98
 20
156.224
 11
171.911
 21
156.144
  0
LINE
  8
0
 10
171.911
 20
156.144
 11
171.836
 21
156.071
  0
LINE
  8
0
 10
171.836
 20
156.071
 11
171.756
 21
156.004
  0
LINE
  8
0
 10
171.756
 20
156.004
 11
171.67
 21
155.945
  0
LINE
  8
0
 10
171.67
 20
155.945
 11
171.579
 21
155.892
  0
LINE
  8
0
 10
171.579
 20
155.892
 11
171.484
 21
155.848
  0
LINE
  8
0
 10
171.484
 20
155.848
 11
171.386
 21
155.811
  0
LINE
  8
0
 10
171.386
 20
155.811
 11
171.285
 21
155.783
  0
LINE
  8
0
 10
171.285
 20
155.783
 11
171.183
 21
155.763
  0
LINE
  8
0
 10
171.183
 20
155.763
 11
171.078
 21
155.752
  0
LINE
  8
0
 10
171.078
 20
155.752
 11
170.974
 21
155.75
  0
LINE
  8
0
 10
170.974
 20
155.75
 11
170.869
 21
155.757
  0
LINE
  8
0
 10
18.8693
 20
155.757
 11
18.7658
 21
155.772
  0
LINE
  8
0
 10
18.7658
 20
155.772
 11
18.6638
 21
155.796
  0
LINE
  8
0
 10
18.6638
 20
155.796
 11
18.5643
 21
155.828
  0
LINE
  8
0
 10
18.5643
 20
155.828
 11
18.4678
 21
155.869
  0
LINE
  8
0
 10
18.4678
 20
155.869
 11
18.375
 21
155.917
  0
LINE
  8
0
 10
18.375
 20
155.917
 11
18.2866
 21
155.974
  0
LINE
  8
0
 10
18.2866
 20
155.974
 11
18.2032
 21
156.037
  0
LINE
  8
0
 10
18.2032
 20
156.037
 11
18.1254
 21
156.107
  0
LINE
  8
0
 10
18.1254
 20
156.107
 11
18.0537
 21
156.183
  0
LINE
  8
0
 10
18.0537
 20
156.183
 11
17.9887
 21
156.265
  0
LINE
  8
0
 10
17.9887
 20
156.265
 11
17.9308
 21
156.352
  0
LINE
  8
0
 10
17.9308
 20
156.352
 11
17.8804
 21
156.444
  0
LINE
  8
0
 10
17.8804
 20
156.444
 11
17.8378
 21
156.54
  0
LINE
  8
0
 10
17.8378
 20
156.54
 11
17.8033
 21
156.639
  0
LINE
  8
0
 10
17.8033
 20
156.639
 11
17.7773
 21
156.74
  0
LINE
  8
0
 10
17.7773
 20
156.74
 11
17.7598
 21
156.843
  0
LINE
  8
0
 10
17.7598
 20
156.843
 11
17.7511
 21
156.948
  0
LINE
  8
0
 10
17.7511
 20
156.948
 11
17.7511
 21
157.052
  0
LINE
  8
0
 10
17.7511
 20
157.052
 11
17.7598
 21
157.157
  0
LINE
  8
0
 10
17.7598
 20
157.157
 11
17.7773
 21
157.26
  0
LINE
  8
0
 10
17.7773
 20
157.26
 11
17.8033
 21
157.361
  0
LINE
  8
0
 10
17.8033
 20
157.361
 11
17.8378
 21
157.46
  0
LINE
  8
0
 10
17.8378
 20
157.46
 11
17.8804
 21
157.556
  0
LINE
  8
0
 10
17.8804
 20
157.556
 11
17.9308
 21
157.648
  0
LINE
  8
0
 10
17.9308
 20
157.648
 11
17.9887
 21
157.735
  0
LINE
  8
0
 10
17.9887
 20
157.735
 11
18.0537
 21
157.817
  0
LINE
  8
0
 10
18.0537
 20
157.817
 11
18.1254
 21
157.893
  0
LINE
  8
0
 10
18.1254
 20
157.893
 11
18.2032
 21
157.963
  0
LINE
  8
0
 10
18.2032
 20
157.963
 11
18.2866
 21
158.026
  0
LINE
  8
0
 10
18.2866
 20
158.026
 11
18.375
 21
158.083
  0
LINE
  8
0
 10
18.375
 20
158.083
 11
18.4678
 21
158.131
  0
LINE
  8
0
 10
18.4678
 20
158.131
 11
18.5643
 21
158.172
  0
LINE
  8
0
 10
18.5643
 20
158.172
 11
18.6638
 21
158.204
  0
LINE
  8
0
 10
18.6638
 20
158.204
 11
18.7658
 21
158.228
  0
LINE
  8
0
 10
18.7658
 20
158.228
 11
18.8693
 21
158.243
  0
LINE
  8
0
 10
18.8693
 20
158.243
 11
18.9738
 21
158.25
  0
LINE
  8
0
 10
18.9738
 20
158.25
 11
19.0785
 21
158.248
  0
LINE
  8
0
 10
19.0785
 20
158.248
 11
19.1826
 21
158.237
  0
LINE
  8
0
 10
19.1826
 20
158.237
 11
19.2854
 21
158.217
  0
LINE
  8
0
 10
19.2854
 20
158.217
 11
19.3863
 21
158.189
  0
LINE
  8
0
 10
19.3863
 20
158.189
 11
19.4844
 21
158.152
  0
LINE
  8
0
 10
19.4844
 20
158.152
 11
19.5791
 21
158.108
  0
LINE
  8
0
 10
19.5791
 20
158.108
 11
19.6698
 21
158.055
  0
LINE
  8
0
 10
19.6698
 20
158.055
 11
19.7557
 21
157.996
  0
LINE
  8
0
 10
19.7557
 20
157.996
 11
19.8364
 21
157.929
  0
LINE
  8
0
 10
19.8364
 20
157.929
 11
19.9112
 21
157.856
  0
LINE
  8
0
 10
19.9112
 20
157.856
 11
19.9796
 21
157.776
  0
LINE
  8
0
 10
19.9796
 20
157.776
 11
20.0411
 21
157.692
  0
LINE
  8
0
 10
20.0411
 20
157.692
 11
20.0954
 21
157.602
  0
LINE
  8
0
 10
20.0954
 20
157.602
 11
20.1419
 21
157.508
  0
LINE
  8
0
 10
20.1419
 20
157.508
 11
20.1805
 21
157.411
  0
LINE
  8
0
 10
20.1805
 20
157.411
 11
20.2107
 21
157.311
  0
LINE
  8
0
 10
20.2107
 20
157.311
 11
20.2325
 21
157.208
  0
LINE
  8
0
 10
20.2325
 20
157.208
 11
20.2456
 21
157.105
  0
LINE
  8
0
 10
20.2456
 20
157.105
 11
20.25
 21
157
  0
LINE
  8
0
 10
20.25
 20
157
 11
20.2456
 21
156.895
  0
LINE
  8
0
 10
20.2456
 20
156.895
 11
20.2325
 21
156.792
  0
LINE
  8
0
 10
20.2325
 20
156.792
 11
20.2107
 21
156.689
  0
LINE
  8
0
 10
20.2107
 20
156.689
 11
20.1805
 21
156.589
  0
LINE
  8
0
 10
20.1805
 20
156.589
 11
20.1419
 21
156.492
  0
LINE
  8
0
 10
20.1419
 20
156.492
 11
20.0954
 21
156.398
  0
LINE
  8
0
 10
20.0954
 20
156.398
 11
20.0411
 21
156.308
  0
LINE
  8
0
 10
20.0411
 20
156.308
 11
19.9796
 21
156.224
  0
LINE
  8
0
 10
19.9796
 20
156.224
 11
19.9112
 21
156.144
  0
LINE
  8
0
 10
19.9112
 20
156.144
 11
19.8364
 21
156.071
  0
LINE
  8
0
 10
19.8364
 20
156.071
 11
19.7557
 21
156.004
  0
LINE
  8
0
 10
19.7557
 20
156.004
 11
19.6698
 21
155.945
  0
LINE
  8
0
 10
19.6698
 20
155.945
 11
19.5791
 21
155.892
  0
LINE
  8
0
 10
19.5791
 20
155.892
 11
19.4844
 21
155.848
  0
LINE
  8
0
 10
19.4844
 20
155.848
 11
19.3863
 21
155.811
  0
LINE
  8
0
 10
19.3863
 20
155.811
 11
19.2854
 21
155.783
  0
LINE
  8
0
 10
19.2854
 20
155.783
 11
19.1826
 21
155.763
  0
LINE
  8
0
 10
19.1826
 20
155.763
 11
19.0785
 21
155.752
  0
LINE
  8
0
 10
19.0785
 20
155.752
 11
18.9738
 21
155.75
  0
LINE
  8
0
 10
18.9738
 20
155.75
 11
18.8693
 21
155.757
  0
LINE
  8
0
 10
173.5
 20
140.5
 11
173.5
 21
141.495
  0
LINE
  8
0
 10
173.5
 20
141.495
 11
172.687
 21
141.495
  0
LINE
  8
0
 10
172.687
 20
141.495
 11
172.687
 21
144.996
  0
LINE
  8
0
 10
172.687
 20
144.996
 11
173.5
 21
144.996
  0
LINE
  8
0
 10
173.5
 20
144.996
 11
173.5
 21
150.004
  0
LINE
  8
0
 10
173.5
 20
150.004
 11
172.687
 21
150.004
  0
LINE
  8
0
 10
172.687
 20
150.004
 11
172.687
 21
153.505
  0
LINE
  8
0
 10
172.687
 20
153.505
 11
173.5
 21
153.505
  0
LINE
  8
0
 10
173.5
 20
153.505
 11
173.5
 21
154.5
  0
LINE
  8
0
 10
173.5
 20
154.5
 11
187.5
 21
154.5
  0
LINE
  8
0
 10
187.5
 20
154.5
 11
187.5
 21
153.505
  0
LINE
  8
0
 10
187.5
 20
153.505
 11
188.313
 21
153.505
  0
LINE
  8
0
 10
188.313
 20
153.505
 11
188.313
 21
150.004
  0
LINE
  8
0
 10
188.313
 20
150.004
 11
187.5
 21
150.004
  0
LINE
  8
0
 10
187.5
 20
150.004
 11
187.5
 21
144.996
  0
LINE
  8
0
 10
187.5
 20
144.996
 11
188.313
 21
144.996
  0
LINE
  8
0
 10
188.313
 20
144.996
 11
188.313
 21
141.495
  0
LINE
  8
0
 10
188.313
 20
141.495
 11
187.5
 21
141.495
  0
LINE
  8
0
 10
187.5
 20
141.495
 11
187.5
 21
140.5
  0
LINE
  8
0
 10
187.5
 20
140.5
 11
173.5
 21
140.5
  0
LINE
  8
0
 10
154.5
 20
140.5
 11
154.5
 21
141.495
  0
LINE
  8
0
 10
154.5
 20
141.495
 11
153.687
 21
141.495
  0
LINE
  8
0
 10
153.687
 20
141.495
 11
153.687
 21
144.996
  0
LINE
  8
0
 10
153.687
 20
144.996
 11
154.5
 21
144.996
  0
LINE
  8
0
 10
154.5
 20
144.996
 11
154.5
 21
150.004
  0
LINE
  8
0
 10
154.5
 20
150.004
 11
153.687
 21
150.004
  0
LINE
  8
0
 10
153.687
 20
150.004
 11
153.687
 21
153.505
  0
LINE
  8
0
 10
153.687
 20
153.505
 11
154.5
 21
153.505
  0
LINE
  8
0
 10
154.5
 20
153.505
 11
154.5
 21
154.5
  0
LINE
  8
0
 10
154.5
 20
154.5
 11
168.5
 21
154.5
  0
LINE
  8
0
 10
168.5
 20
154.5
 11
168.5
 21
153.505
  0
LINE
  8
0
 10
168.5
 20
153.505
 11
169.313
 21
153.505
  0
LINE
  8
0
 10
169.313
 20
153.505
 11
169.313
 21
150.004
  0
LINE
  8
0
 10
169.313
 20
150.004
 11
168.5
 21
150.004
  0
LINE
  8
0
 10
168.5
 20
150.004
 11
168.5
 21
144.996
  0
LINE
  8
0
 10
168.5
 20
144.996
 11
169.313
 21
144.996
  0
LINE
  8
0
 10
169.313
 20
144.996
 11
169.313
 21
141.495
  0
LINE
  8
0
 10
169.313
 20
141.495
 11
168.5
 21
141.495
  0
LINE
  8
0
 10
168.5
 20
141.495
 11
168.5
 21
140.5
  0
LINE
  8
0
 10
168.5
 20
140.5
 11
154.5
 21
140.5
  0
LINE
  8
0
 10
135.5
 20
140.5
 11
135.5
 21
141.495
  0
LINE
  8
0
 10
135.5
 20
141.495
 11
134.687
 21
141.495
  0
LINE
  8
0
 10
134.687
 20
141.495
 11
134.687
 21
144.996
  0
LINE
  8
0
 10
134.687
 20
144.996
 11
135.5
 21
144.996
  0
LINE
  8
0
 10
135.5
 20
144.996
 11
135.5
 21
150.004
  0
LINE
  8
0
 10
135.5
 20
150.004
 11
134.687
 21
150.004
  0
LINE
  8
0
 10
134.687
 20
150.004
 11
134.687
 21
153.505
  0
LINE
  8
0
 10
134.687
 20
153.505
 11
135.5
 21
153.505
  0
LINE
  8
0
 10
135.5
 20
153.505
 11
135.5
 21
154.5
  0
LINE
  8
0
 10
135.5
 20
154.5
 11
149.5
 21
154.5
  0
LINE
  8
0
 10
149.5
 20
154.5
 11
149.5
 21
153.505
  0
LINE
  8
0
 10
149.5
 20
153.505
 11
150.313
 21
153.505
  0
LINE
  8
0
 10
150.313
 20
153.505
 11
150.313
 21
150.004
  0
LINE
  8
0
 10
150.313
 20
150.004
 11
149.5
 21
150.004
  0
LINE
  8
0
 10
149.5
 20
150.004
 11
149.5
 21
144.996
  0
LINE
  8
0
 10
149.5
 20
144.996
 11
150.313
 21
144.996
  0
LINE
  8
0
 10
150.313
 20
144.996
 11
150.313
 21
141.495
  0
LINE
  8
0
 10
150.313
 20
141.495
 11
149.5
 21
141.495
  0
LINE
  8
0
 10
149.5
 20
141.495
 11
149.5
 21
140.5
  0
LINE
  8
0
 10
149.5
 20
140.5
 11
135.5
 21
140.5
  0
LINE
  8
0
 10
116.5
 20
140.5
 11
116.5
 21
141.495
  0
LINE
  8
0
 10
116.5
 20
141.495
 11
115.687
 21
141.495
  0
LINE
  8
0
 10
115.687
 20
141.495
 11
115.687
 21
144.996
  0
LINE
  8
0
 10
115.687
 20
144.996
 11
116.5
 21
144.996
  0
LINE
  8
0
 10
116.5
 20
144.996
 11
116.5
 21
150.004
  0
LINE
  8
0
 10
116.5
 20
150.004
 11
115.687
 21
150.004
  0
LINE
  8
0
 10
115.687
 20
150.004
 11
115.687
 21
153.505
  0
LINE
  8
0
 10
115.687
 20
153.505
 11
116.5
 21
153.505
  0
LINE
  8
0
 10
116.5
 20
153.505
 11
116.5
 21
154.5
  0
LINE
  8
0
 10
116.5
 20
154.5
 11
130.5
 21
154.5
  0
LINE
  8
0
 10
130.5
 20
154.5
 11
130.5
 21
153.505
  0
LINE
  8
0
 10
130.5
 20
153.505
 11
131.313
 21
153.505
  0
LINE
  8
0
 10
131.313
 20
153.505
 11
131.313
 21
150.004
  0
LINE
  8
0
 10
131.313
 20
150.004
 11
130.5
 21
150.004
  0
LINE
  8
0
 10
130.5
 20
150.004
 11
130.5
 21
144.996
  0
LINE
  8
0
 10
130.5
 20
144.996
 11
131.313
 21
144.996
  0
LINE
  8
0
 10
131.313
 20
144.996
 11
131.313
 21
141.495
  0
LINE
  8
0
 10
131.313
 20
141.495
 11
130.5
 21
141.495
  0
LINE
  8
0
 10
130.5
 20
141.495
 11
130.5
 21
140.5
  0
LINE
  8
0
 10
130.5
 20
140.5
 11
116.5
 21
140.5
  0
LINE
  8
0
 10
97.5
 20
140.5
 11
97.5
 21
141.495
  0
LINE
  8
0
 10
97.5
 20
141.495
 11
96.6872
 21
141.495
  0
LINE
  8
0
 10
96.6872
 20
141.495
 11
96.6872
 21
144.996
  0
LINE
  8
0
 10
96.6872
 20
144.996
 11
97.5
 21
144.996
  0
LINE
  8
0
 10
97.5
 20
144.996
 11
97.5
 21
150.004
  0
LINE
  8
0
 10
97.5
 20
150.004
 11
96.6872
 21
150.004
  0
LINE
  8
0
 10
96.6872
 20
150.004
 11
96.6872
 21
153.505
  0
LINE
  8
0
 10
96.6872
 20
153.505
 11
97.5
 21
153.505
  0
LINE
  8
0
 10
97.5
 20
153.505
 11
97.5
 21
154.5
  0
LINE
  8
0
 10
97.5
 20
154.5
 11
111.5
 21
154.5
  0
LINE
  8
0
 10
111.5
 20
154.5
 11
111.5
 21
153.505
  0
LINE
  8
0
 10
111.5
 20
153.505
 11
112.313
 21
153.505
  0
LINE
  8
0
 10
112.313
 20
153.505
 11
112.313
 21
150.004
  0
LINE
  8
0
 10
112.313
 20
150.004
 11
111.5
 21
150.004
  0
LINE
  8
0
 10
111.5
 20
150.004
 11
111.5
 21
144.996
  0
LINE
  8
0
 10
111.5
 20
144.996
 11
112.313
 21
144.996
  0
LINE
  8
0
 10
112.313
 20
144.996
 11
112.313
 21
141.495
  0
LINE
  8
0
 10
112.313
 20
141.495
 11
111.5
 21
141.495
  0
LINE
  8
0
 10
111.5
 20
141.495
 11
111.5
 21
140.5
  0
LINE
  8
0
 10
111.5
 20
140.5
 11
97.5
 21
140.5
  0
LINE
  8
0
 10
78.5
 20
140.5
 11
78.5
 21
141.495
  0
LINE
  8
0
 10
78.5
 20
141.495
 11
77.6872
 21
141.495
  0
LINE
  8
0
 10
77.6872
 20
141.495
 11
77.6872
 21
144.996
  0
LINE
  8
0
 10
77.6872
 20
144.996
 11
78.5
 21
144.996
  0
LINE
  8
0
 10
78.5
 20
144.996
 11
78.5
 21
150.004
  0
LINE
  8
0
 10
78.5
 20
150.004
 11
77.6872
 21
150.004
  0
LINE
  8
0
 10
77.6872
 20
150.004
 11
77.6872
 21
153.505
  0
LINE
  8
0
 10
77.6872
 20
153.505
 11
78.5
 21
153.505
  0
LINE
  8
0
 10
78.5
 20
153.505
 11
78.5
 21
154.5
  0
LINE
  8
0
 10
78.5
 20
154.5
 11
92.5
 21
154.5
  0
LINE
  8
0
 10
92.5
 20
154.5
 11
92.5
 21
153.505
  0
LINE
  8
0
 10
92.5
 20
153.505
 11
93.3128
 21
153.505
  0
LINE
  8
0
 10
93.3128
 20
153.505
 11
93.3128
 21
150.004
  0
LINE
  8
0
 10
93.3128
 20
150.004
 11
92.5
 21
150.004
  0
LINE
  8
0
 10
92.5
 20
150.004
 11
92.5
 21
144.996
  0
LINE
  8
0
 10
92.5
 20
144.996
 11
93.3128
 21
144.996
  0
LINE
  8
0
 10
93.3128
 20
144.996
 11
93.3128
 21
141.495
  0
LINE
  8
0
 10
93.3128
 20
141.495
 11
92.5
 21
141.495
  0
LINE
  8
0
 10
92.5
 20
141.495
 11
92.5
 21
140.5
  0
LINE
  8
0
 10
92.5
 20
140.5
 11
78.5
 21
140.5
  0
LINE
  8
0
 10
59.5
 20
140.5
 11
59.5
 21
141.495
  0
LINE
  8
0
 10
59.5
 20
141.495
 11
58.6872
 21
141.495
  0
LINE
  8
0
 10
58.6872
 20
141.495
 11
58.6872
 21
144.996
  0
LINE
  8
0
 10
58.6872
 20
144.996
 11
59.5
 21
144.996
  0
LINE
  8
0
 10
59.5
 20
144.996
 11
59.5
 21
150.004
  0
LINE
  8
0
 10
59.5
 20
150.004
 11
58.6872
 21
150.004
  0
LINE
  8
0
 10
58.6872
 20
150.004
 11
58.6872
 21
153.505
  0
LINE
  8
0
 10
58.6872
 20
153.505
 11
59.5
 21
153.505
  0
LINE
  8
0
 10
59.5
 20
153.505
 11
59.5
 21
154.5
  0
LINE
  8
0
 10
59.5
 20
154.5
 11
73.5
 21
154.5
  0
LINE
  8
0
 10
73.5
 20
154.5
 11
73.5
 21
153.505
  0
LINE
  8
0
 10
73.5
 20
153.505
 11
74.3128
 21
153.505
  0
LINE
  8
0
 10
74.3128
 20
153.505
 11
74.3128
 21
150.004
  0
LINE
  8
0
 10
74.3128
 20
150.004
 11
73.5
 21
150.004
  0
LINE
  8
0
 10
73.5
 20
150.004
 11
73.5
 21
144.996
  0
LINE
  8
0
 10
73.5
 20
144.996
 11
74.3128
 21
144.996
  0
LINE
  8
0
 10
74.3128
 20
144.996
 11
74.3128
 21
141.495
  0
LINE
  8
0
 10
74.3128
 20
141.495
 11
73.5
 21
141.495
  0
LINE
  8
0
 10
73.5
 20
141.495
 11
73.5
 21
140.5
  0
LINE
  8
0
 10
73.5
 20
140.5
 11
59.5
 21
140.5
  0
LINE
  8
0
 10
40.5
 20
140.5
 11
40.5
 21
141.495
  0
LINE
  8
0
 10
40.5
 20
141.495
 11
39.6872
 21
141.495
  0
LINE
  8
0
 10
39.6872
 20
141.495
 11
39.6872
 21
144.996
  0
LINE
  8
0
 10
39.6872
 20
144.996
 11
40.5
 21
144.996
  0
LINE
  8
0
 10
40.5
 20
144.996
 11
40.5
 21
150.004
  0
LINE
  8
0
 10
40.5
 20
150.004
 11
39.6872
 21
150.004
  0
LINE
  8
0
 10
39.6872
 20
150.004
 11
39.6872
 21
153.505
  0
LINE
  8
0
 10
39.6872
 20
153.505
 11
40.5
 21
153.505
  0
LINE
  8
0
 10
40.5
 20
153.505
 11
40.5
 21
154.5
  0
LINE
  8
0
 10
40.5
 20
154.5
 11
54.5
 21
154.5
  0
LINE
  8
0
 10
54.5
 20
154.5
 11
54.5
 21
153.505
  0
LINE
  8
0
 10
54.5
 20
153.505
 11
55.3128
 21
153.505
  0
LINE
  8
0
 10
55.3128
 20
153.505
 11
55.3128
 21
150.004
  0
LINE
  8
0
 10
55.3128
 20
150.004
 11
54.5
 21
150.004
  0
LINE
  8
0
 10
54.5
 20
150.004
 11
54.5
 21
144.996
  0
LINE
  8
0
 10
54.5
 20
144.996
 11
55.3128
 21
144.996
  0
LINE
  8
0
 10
55.3128
 20
144.996
 11
55.3128
 21
141.495
  0
LINE
  8
0
 10
55.3128
 20
141.495
 11
54.5
 21
141.495
  0
LINE
  8
0
 10
54.5
 20
141.495
 11
54.5
 21
140.5
  0
LINE
  8
0
 10
54.5
 20
140.5
 11
40.5
 21
140.5
  0
LINE
  8
0
 10
21.5
 20
140.5
 11
21.5
 21
141.495
  0
LINE
  8
0
 10
21.5
 20
141.495
 11
20.6872
 21
141.495
  0
LINE
  8
0
 10
20.6872
 20
141.495
 11
20.6872
 21
144.996
  0
LINE
  8
0
 10
20.6872
 20
144.996
 11
21.5
 21
144.996
  0
LINE
  8
0
 10
21.5
 20
144.996
 11
21.5
 21
150.004
  0
LINE
  8
0
 10
21.5
 20
150.004
 11
20.6872
 21
150.004
  0
LINE
  8
0
 10
20.6872
 20
150.004
 11
20.6872
 21
153.505
  0
LINE
  8
0
 10
20.6872
 20
153.505
 11
21.5
 21
153.505
  0
LINE
  8
0
 10
21.5
 20
153.505
 11
21.5
 21
154.5
  0
LINE
  8
0
 10
21.5
 20
154.5
 11
35.5
 21
154.5
  0
LINE
  8
0
 10
35.5
 20
154.5
 11
35.5
 21
153.505
  0
LINE
  8
0
 10
35.5
 20
153.505
 11
36.3128
 21
153.505
  0
LINE
  8
0
 10
36.3128
 20
153.505
 11
36.3128
 21
150.004
  0
LINE
  8
0
 10
36.3128
 20
150.004
 11
35.5
 21
150.004
  0
LINE
  8
0
 10
35.5
 20
150.004
 11
35.5
 21
144.996
  0
LINE
  8
0
 10
35.5
 20
144.996
 11
36.3128
 21
144.996
  0
LINE
  8
0
 10
36.3128
 20
144.996
 11
36.3128
 21
141.495
  0
LINE
  8
0
 10
36.3128
 20
141.495
 11
35.5
 21
141.495
  0
LINE
  8
0
 10
35.5
 20
141.495
 11
35.5
 21
140.5
  0
LINE
  8
0
 10
35.5
 20
140.5
 11
21.5
 21
140.5
  0
LINE
  8
0
 10
2.5
 20
140.5
 11
2.5
 21
141.495
  0
LINE
  8
0
 10
2.5
 20
141.495
 11
1.68721
 21
141.495
  0
LINE
  8
0
 10
1.68721
 20
141.495
 11
1.68721
 21
144.996
  0
LINE
  8
0
 10
1.68721
 20
144.996
 11
2.5
 21
144.996
  0
LINE
  8
0
 10
2.5
 20
144.996
 11
2.5
 21
150.004
  0
LINE
  8
0
 10
2.5
 20
150.004
 11
1.68721
 21
150.004
  0
LINE
  8
0
 10
1.68721
 20
150.004
 11
1.68721
 21
153.505
  0
LINE
  8
0
 10
1.68721
 20
153.505
 11
2.5
 21
153.505
  0
LINE
  8
0
 10
2.5
 20
153.505
 11
2.5
 21
154.5
  0
LINE
  8
0
 10
2.5
 20
154.5
 11
16.5
 21
154.5
  0
LINE
  8
0
 10
16.5
 20
154.5
 11
16.5
 21
153.505
  0
LINE
  8
0
 10
16.5
 20
153.505
 11
17.3128
 21
153.505
  0
LINE
  8
0
 10
17.3128
 20
153.505
 11
17.3128
 21
150.004
  0
LINE
  8
0
 10
17.3128
 20
150.004
 11
16.5
 21
150.004
  0
LINE
  8
0
 10
16.5
 20
150.004
 11
16.5
 21
144.996
  0
LINE
  8
0
 10
16.5
 20
144.996
 11
17.3128
 21
144.996
  0
LINE
  8
0
 10
17.3128
 20
144.996
 11
17.3128
 21
141.495
  0
LINE
  8
0
 10
17.3128
 20
141.495
 11
16.5
 21
141.495
  0
LINE
  8
0
 10
16.5
 20
141.495
 11
16.5
 21
140.5
  0
LINE
  8
0
 10
16.5
 20
140.5
 11
2.5
 21
140.5
  0
LINE
  8
0
 10
94.8693
 20
136.757
 11
94.7658
 21
136.772
  0
LINE
  8
0
 10
94.7658
 20
136.772
 11
94.6638
 21
136.796
  0
LINE
  8
0
 10
94.6638
 20
136.796
 11
94.5643
 21
136.828
  0
LINE
  8
0
 10
94.5643
 20
136.828
 11
94.4678
 21
136.869
  0
LINE
  8
0
 10
94.4678
 20
136.869
 11
94.375
 21
136.917
  0
LINE
  8
0
 10
94.375
 20
136.917
 11
94.2866
 21
136.974
  0
LINE
  8
0
 10
94.2866
 20
136.974
 11
94.2032
 21
137.037
  0
LINE
  8
0
 10
94.2032
 20
137.037
 11
94.1254
 21
137.107
  0
LINE
  8
0
 10
94.1254
 20
137.107
 11
94.0537
 21
137.183
  0
LINE
  8
0
 10
94.0537
 20
137.183
 11
93.9887
 21
137.265
  0
LINE
  8
0
 10
93.9887
 20
137.265
 11
93.9308
 21
137.352
  0
LINE
  8
0
 10
93.9308
 20
137.352
 11
93.8804
 21
137.444
  0
LINE
  8
0
 10
93.8804
 20
137.444
 11
93.8378
 21
137.54
  0
LINE
  8
0
 10
93.8378
 20
137.54
 11
93.8033
 21
137.639
  0
LINE
  8
0
 10
93.8033
 20
137.639
 11
93.7773
 21
137.74
  0
LINE
  8
0
 10
93.7773
 20
137.74
 11
93.7598
 21
137.843
  0
LINE
  8
0
 10
93.7598
 20
137.843
 11
93.7511
 21
137.948
  0
LINE
  8
0
 10
93.7511
 20
137.948
 11
93.7511
 21
138.052
  0
LINE
  8
0
 10
93.7511
 20
138.052
 11
93.7598
 21
138.157
  0
LINE
  8
0
 10
93.7598
 20
138.157
 11
93.7773
 21
138.26
  0
LINE
  8
0
 10
93.7773
 20
138.26
 11
93.8033
 21
138.361
  0
LINE
  8
0
 10
93.8033
 20
138.361
 11
93.8378
 21
138.46
  0
LINE
  8
0
 10
93.8378
 20
138.46
 11
93.8804
 21
138.556
  0
LINE
  8
0
 10
93.8804
 20
138.556
 11
93.9308
 21
138.648
  0
LINE
  8
0
 10
93.9308
 20
138.648
 11
93.9887
 21
138.735
  0
LINE
  8
0
 10
93.9887
 20
138.735
 11
94.0537
 21
138.817
  0
LINE
  8
0
 10
94.0537
 20
138.817
 11
94.1254
 21
138.893
  0
LINE
  8
0
 10
94.1254
 20
138.893
 11
94.2032
 21
138.963
  0
LINE
  8
0
 10
94.2032
 20
138.963
 11
94.2866
 21
139.026
  0
LINE
  8
0
 10
94.2866
 20
139.026
 11
94.375
 21
139.083
  0
LINE
  8
0
 10
94.375
 20
139.083
 11
94.4678
 21
139.131
  0
LINE
  8
0
 10
94.4678
 20
139.131
 11
94.5643
 21
139.172
  0
LINE
  8
0
 10
94.5643
 20
139.172
 11
94.6638
 21
139.204
  0
LINE
  8
0
 10
94.6638
 20
139.204
 11
94.7658
 21
139.228
  0
LINE
  8
0
 10
94.7658
 20
139.228
 11
94.8693
 21
139.243
  0
LINE
  8
0
 10
94.8693
 20
139.243
 11
94.9738
 21
139.25
  0
LINE
  8
0
 10
94.9738
 20
139.25
 11
95.0785
 21
139.248
  0
LINE
  8
0
 10
95.0785
 20
139.248
 11
95.1826
 21
139.237
  0
LINE
  8
0
 10
95.1826
 20
139.237
 11
95.2854
 21
139.217
  0
LINE
  8
0
 10
95.2854
 20
139.217
 11
95.3863
 21
139.189
  0
LINE
  8
0
 10
95.3863
 20
139.189
 11
95.4844
 21
139.152
  0
LINE
  8
0
 10
95.4844
 20
139.152
 11
95.5791
 21
139.108
  0
LINE
  8
0
 10
95.5791
 20
139.108
 11
95.6698
 21
139.055
  0
LINE
  8
0
 10
95.6698
 20
139.055
 11
95.7557
 21
138.996
  0
LINE
  8
0
 10
95.7557
 20
138.996
 11
95.8364
 21
138.929
  0
LINE
  8
0
 10
95.8364
 20
138.929
 11
95.9112
 21
138.856
  0
LINE
  8
0
 10
95.9112
 20
138.856
 11
95.9796
 21
138.776
  0
LINE
  8
0
 10
95.9796
 20
138.776
 11
96.0411
 21
138.692
  0
LINE
  8
0
 10
96.0411
 20
138.692
 11
96.0954
 21
138.602
  0
LINE
  8
0
 10
96.0954
 20
138.602
 11
96.1419
 21
138.508
  0
LINE
  8
0
 10
96.1419
 20
138.508
 11
96.1805
 21
138.411
  0
LINE
  8
0
 10
96.1805
 20
138.411
 11
96.2107
 21
138.311
  0
LINE
  8
0
 10
96.2107
 20
138.311
 11
96.2325
 21
138.208
  0
LINE
  8
0
 10
96.2325
 20
138.208
 11
96.2456
 21
138.105
  0
LINE
  8
0
 10
96.2456
 20
138.105
 11
96.25
 21
138
  0
LINE
  8
0
 10
96.25
 20
138
 11
96.2456
 21
137.895
  0
LINE
  8
0
 10
96.2456
 20
137.895
 11
96.2325
 21
137.792
  0
LINE
  8
0
 10
96.2325
 20
137.792
 11
96.2107
 21
137.689
  0
LINE
  8
0
 10
96.2107
 20
137.689
 11
96.1805
 21
137.589
  0
LINE
  8
0
 10
96.1805
 20
137.589
 11
96.1419
 21
137.492
  0
LINE
  8
0
 10
96.1419
 20
137.492
 11
96.0954
 21
137.398
  0
LINE
  8
0
 10
96.0954
 20
137.398
 11
96.0411
 21
137.308
  0
LINE
  8
0
 10
96.0411
 20
137.308
 11
95.9796
 21
137.224
  0
LINE
  8
0
 10
95.9796
 20
137.224
 11
95.9112
 21
137.144
  0
LINE
  8
0
 10
95.9112
 20
137.144
 11
95.8364
 21
137.071
  0
LINE
  8
0
 10
95.8364
 20
137.071
 11
95.7557
 21
137.004
  0
LINE
  8
0
 10
95.7557
 20
137.004
 11
95.6698
 21
136.945
  0
LINE
  8
0
 10
95.6698
 20
136.945
 11
95.5791
 21
136.892
  0
LINE
  8
0
 10
95.5791
 20
136.892
 11
95.4844
 21
136.848
  0
LINE
  8
0
 10
95.4844
 20
136.848
 11
95.3863
 21
136.811
  0
LINE
  8
0
 10
95.3863
 20
136.811
 11
95.2854
 21
136.783
  0
LINE
  8
0
 10
95.2854
 20
136.783
 11
95.1826
 21
136.763
  0
LINE
  8
0
 10
95.1826
 20
136.763
 11
95.0785
 21
136.752
  0
LINE
  8
0
 10
95.0785
 20
136.752
 11
94.9738
 21
136.75
  0
LINE
  8
0
 10
94.9738
 20
136.75
 11
94.8693
 21
136.757
  0
LINE
  8
0
 10
173.5
 20
121.5
 11
173.5
 21
122.495
  0
LINE
  8
0
 10
173.5
 20
122.495
 11
172.687
 21
122.495
  0
LINE
  8
0
 10
172.687
 20
122.495
 11
172.687
 21
125.996
  0
LINE
  8
0
 10
172.687
 20
125.996
 11
173.5
 21
125.996
  0
LINE
  8
0
 10
173.5
 20
125.996
 11
173.5
 21
131.004
  0
LINE
  8
0
 10
173.5
 20
131.004
 11
172.687
 21
131.004
  0
LINE
  8
0
 10
172.687
 20
131.004
 11
172.687
 21
134.505
  0
LINE
  8
0
 10
172.687
 20
134.505
 11
173.5
 21
134.505
  0
LINE
  8
0
 10
173.5
 20
134.505
 11
173.5
 21
135.5
  0
LINE
  8
0
 10
173.5
 20
135.5
 11
187.5
 21
135.5
  0
LINE
  8
0
 10
187.5
 20
135.5
 11
187.5
 21
134.505
  0
LINE
  8
0
 10
187.5
 20
134.505
 11
188.313
 21
134.505
  0
LINE
  8
0
 10
188.313
 20
134.505
 11
188.313
 21
131.004
  0
LINE
  8
0
 10
188.313
 20
131.004
 11
187.5
 21
131.004
  0
LINE
  8
0
 10
187.5
 20
131.004
 11
187.5
 21
125.996
  0
LINE
  8
0
 10
187.5
 20
125.996
 11
188.313
 21
125.996
  0
LINE
  8
0
 10
188.313
 20
125.996
 11
188.313
 21
122.495
  0
LINE
  8
0
 10
188.313
 20
122.495
 11
187.5
 21
122.495
  0
LINE
  8
0
 10
187.5
 20
122.495
 11
187.5
 21
121.5
  0
LINE
  8
0
 10
187.5
 20
121.5
 11
173.5
 21
121.5
  0
LINE
  8
0
 10
154.5
 20
121.5
 11
154.5
 21
122.495
  0
LINE
  8
0
 10
154.5
 20
122.495
 11
153.687
 21
122.495
  0
LINE
  8
0
 10
153.687
 20
122.495
 11
153.687
 21
125.996
  0
LINE
  8
0
 10
153.687
 20
125.996
 11
154.5
 21
125.996
  0
LINE
  8
0
 10
154.5
 20
125.996
 11
154.5
 21
131.004
  0
LINE
  8
0
 10
154.5
 20
131.004
 11
153.687
 21
131.004
  0
LINE
  8
0
 10
153.687
 20
131.004
 11
153.687
 21
134.505
  0
LINE
  8
0
 10
153.687
 20
134.505
 11
154.5
 21
134.505
  0
LINE
  8
0
 10
154.5
 20
134.505
 11
154.5
 21
135.5
  0
LINE
  8
0
 10
154.5
 20
135.5
 11
168.5
 21
135.5
  0
LINE
  8
0
 10
168.5
 20
135.5
 11
168.5
 21
134.505
  0
LINE
  8
0
 10
168.5
 20
134.505
 11
169.313
 21
134.505
  0
LINE
  8
0
 10
169.313
 20
134.505
 11
169.313
 21
131.004
  0
LINE
  8
0
 10
169.313
 20
131.004
 11
168.5
 21
131.004
  0
LINE
  8
0
 10
168.5
 20
131.004
 11
168.5
 21
125.996
  0
LINE
  8
0
 10
168.5
 20
125.996
 11
169.313
 21
125.996
  0
LINE
  8
0
 10
169.313
 20
125.996
 11
169.313
 21
122.495
  0
LINE
  8
0
 10
169.313
 20
122.495
 11
168.5
 21
122.495
  0
LINE
  8
0
 10
168.5
 20
122.495
 11
168.5
 21
121.5
  0
LINE
  8
0
 10
168.5
 20
121.5
 11
154.5
 21
121.5
  0
LINE
  8
0
 10
135.5
 20
121.5
 11
135.5
 21
122.495
  0
LINE
  8
0
 10
135.5
 20
122.495
 11
134.687
 21
122.495
  0
LINE
  8
0
 10
134.687
 20
122.495
 11
134.687
 21
125.996
  0
LINE
  8
0
 10
134.687
 20
125.996
 11
135.5
 21
125.996
  0
LINE
  8
0
 10
135.5
 20
125.996
 11
135.5
 21
131.004
  0
LINE
  8
0
 10
135.5
 20
131.004
 11
134.687
 21
131.004
  0
LINE
  8
0
 10
134.687
 20
131.004
 11
134.687
 21
134.505
  0
LINE
  8
0
 10
134.687
 20
134.505
 11
135.5
 21
134.505
  0
LINE
  8
0
 10
135.5
 20
134.505
 11
135.5
 21
135.5
  0
LINE
  8
0
 10
135.5
 20
135.5
 11
149.5
 21
135.5
  0
LINE
  8
0
 10
149.5
 20
135.5
 11
149.5
 21
134.505
  0
LINE
  8
0
 10
149.5
 20
134.505
 11
150.313
 21
134.505
  0
LINE
  8
0
 10
150.313
 20
134.505
 11
150.313
 21
131.004
  0
LINE
  8
0
 10
150.313
 20
131.004
 11
149.5
 21
131.004
  0
LINE
  8
0
 10
149.5
 20
131.004
 11
149.5
 21
125.996
  0
LINE
  8
0
 10
149.5
 20
125.996
 11
150.313
 21
125.996
  0
LINE
  8
0
 10
150.313
 20
125.996
 11
150.313
 21
122.495
  0
LINE
  8
0
 10
150.313
 20
122.495
 11
149.5
 21
122.495
  0
LINE
  8
0
 10
149.5
 20
122.495
 11
149.5
 21
121.5
  0
LINE
  8
0
 10
149.5
 20
121.5
 11
135.5
 21
121.5
  0
LINE
  8
0
 10
116.5
 20
121.5
 11
116.5
 21
122.495
  0
LINE
  8
0
 10
116.5
 20
122.495
 11
115.687
 21
122.495
  0
LINE
  8
0
 10
115.687
 20
122.495
 11
115.687
 21
125.996
  0
LINE
  8
0
 10
115.687
 20
125.996
 11
116.5
 21
125.996
  0
LINE
  8
0
 10
116.5
 20
125.996
 11
116.5
 21
131.004
  0
LINE
  8
0
 10
116.5
 20
131.004
 11
115.687
 21
131.004
  0
LINE
  8
0
 10
115.687
 20
131.004
 11
115.687
 21
134.505
  0
LINE
  8
0
 10
115.687
 20
134.505
 11
116.5
 21
134.505
  0
LINE
  8
0
 10
116.5
 20
134.505
 11
116.5
 21
135.5
  0
LINE
  8
0
 10
116.5
 20
135.5
 11
130.5
 21
135.5
  0
LINE
  8
0
 10
130.5
 20
135.5
 11
130.5
 21
134.505
  0
LINE
  8
0
 10
130.5
 20
134.505
 11
131.313
 21
134.505
  0
LINE
  8
0
 10
131.313
 20
134.505
 11
131.313
 21
131.004
  0
LINE
  8
0
 10
131.313
 20
131.004
 11
130.5
 21
131.004
  0
LINE
  8
0
 10
130.5
 20
131.004
 11
130.5
 21
125.996
  0
LINE
  8
0
 10
130.5
 20
125.996
 11
131.313
 21
125.996
  0
LINE
  8
0
 10
131.313
 20
125.996
 11
131.313
 21
122.495
  0
LINE
  8
0
 10
131.313
 20
122.495
 11
130.5
 21
122.495
  0
LINE
  8
0
 10
130.5
 20
122.495
 11
130.5
 21
121.5
  0
LINE
  8
0
 10
130.5
 20
121.5
 11
116.5
 21
121.5
  0
LINE
  8
0
 10
97.5
 20
121.5
 11
97.5
 21
122.495
  0
LINE
  8
0
 10
97.5
 20
122.495
 11
96.6872
 21
122.495
  0
LINE
  8
0
 10
96.6872
 20
122.495
 11
96.6872
 21
125.996
  0
LINE
  8
0
 10
96.6872
 20
125.996
 11
97.5
 21
125.996
  0
LINE
  8
0
 10
97.5
 20
125.996
 11
97.5
 21
131.004
  0
LINE
  8
0
 10
97.5
 20
131.004
 11
96.6872
 21
131.004
  0
LINE
  8
0
 10
96.6872
 20
131.004
 11
96.6872
 21
134.505
  0
LINE
  8
0
 10
96.6872
 20
134.505
 11
97.5
 21
134.505
  0
LINE
  8
0
 10
97.5
 20
134.505
 11
97.5
 21
135.5
  0
LINE
  8
0
 10
97.5
 20
135.5
 11
111.5
 21
135.5
  0
LINE
  8
0
 10
111.5
 20
135.5
 11
111.5
 21
134.505
  0
LINE
  8
0
 10
111.5
 20
134.505
 11
112.313
 21
134.505
  0
LINE
  8
0
 10
112.313
 20
134.505
 11
112.313
 21
131.004
  0
LINE
  8
0
 10
112.313
 20
131.004
 11
111.5
 21
131.004
  0
LINE
  8
0
 10
111.5
 20
131.004
 11
111.5
 21
125.996
  0
LINE
  8
0
 10
111.5
 20
125.996
 11
112.313
 21
125.996
  0
LINE
  8
0
 10
112.313
 20
125.996
 11
112.313
 21
122.495
  0
LINE
  8
0
 10
112.313
 20
122.495
 11
111.5
 21
122.495
  0
LINE
  8
0
 10
111.5
 20
122.495
 11
111.5
 21
121.5
  0
LINE
  8
0
 10
111.5
 20
121.5
 11
97.5
 21
121.5
  0
LINE
  8
0
 10
78.5
 20
121.5
 11
78.5
 21
122.495
  0
LINE
  8
0
 10
78.5
 20
122.495
 11
77.6872
 21
122.495
  0
LINE
  8
0
 10
77.6872
 20
122.495
 11
77.6872
 21
125.996
  0
LINE
  8
0
 10
77.6872
 20
125.996
 11
78.5
 21
125.996
  0
LINE
  8
0
 10
78.5
 20
125.996
 11
78.5
 21
131.004
  0
LINE
  8
0
 10
78.5
 20
131.004
 11
77.6872
 21
131.004
  0
LINE
  8
0
 10
77.6872
 20
131.004
 11
77.6872
 21
134.505
  0
LINE
  8
0
 10
77.6872
 20
134.505
 11
78.5
 21
134.505
  0
LINE
  8
0
 10
78.5
 20
134.505
 11
78.5
 21
135.5
  0
LINE
  8
0
 10
78.5
 20
135.5
 11
92.5
 21
135.5
  0
LINE
  8
0
 10
92.5
 20
135.5
 11
92.5
 21
134.505
  0
LINE
  8
0
 10
92.5
 20
134.505
 11
93.3128
 21
134.505
  0
LINE
  8
0
 10
93.3128
 20
134.505
 11
93.3128
 21
131.004
  0
LINE
  8
0
 10
93.3128
 20
131.004
 11
92.5
 21
131.004
  0
LINE
  8
0
 10
92.5
 20
131.004
 11
92.5
 21
125.996
  0
LINE
  8
0
 10
92.5
 20
125.996
 11
93.3128
 21
125.996
  0
LINE
  8
0
 10
93.3128
 20
125.996
 11
93.3128
 21
122.495
  0
LINE
  8
0
 10
93.3128
 20
122.495
 11
92.5
 21
122.495
  0
LINE
  8
0
 10
92.5
 20
122.495
 11
92.5
 21
121.5
  0
LINE
  8
0
 10
92.5
 20
121.5
 11
78.5
 21
121.5
  0
LINE
  8
0
 10
59.5
 20
121.5
 11
59.5
 21
122.495
  0
LINE
  8
0
 10
59.5
 20
122.495
 11
58.6872
 21
122.495
  0
LINE
  8
0
 10
58.6872
 20
122.495
 11
58.6872
 21
125.996
  0
LINE
  8
0
 10
58.6872
 20
125.996
 11
59.5
 21
125.996
  0
LINE
  8
0
 10
59.5
 20
125.996
 11
59.5
 21
131.004
  0
LINE
  8
0
 10
59.5
 20
131.004
 11
58.6872
 21
131.004
  0
LINE
  8
0
 10
58.6872
 20
131.004
 11
58.6872
 21
134.505
  0
LINE
  8
0
 10
58.6872
 20
134.505
 11
59.5
 21
134.505
  0
LINE
  8
0
 10
59.5
 20
134.505
 11
59.5
 21
135.5
  0
LINE
  8
0
 10
59.5
 20
135.5
 11
73.5
 21
135.5
  0
LINE
  8
0
 10
73.5
 20
135.5
 11
73.5
 21
134.505
  0
LINE
  8
0
 10
73.5
 20
134.505
 11
74.3128
 21
134.505
  0
LINE
  8
0
 10
74.3128
 20
134.505
 11
74.3128
 21
131.004
  0
LINE
  8
0
 10
74.3128
 20
131.004
 11
73.5
 21
131.004
  0
LINE
  8
0
 10
73.5
 20
131.004
 11
73.5
 21
125.996
  0
LINE
  8
0
 10
73.5
 20
125.996
 11
74.3128
 21
125.996
  0
LINE
  8
0
 10
74.3128
 20
125.996
 11
74.3128
 21
122.495
  0
LINE
  8
0
 10
74.3128
 20
122.495
 11
73.5
 21
122.495
  0
LINE
  8
0
 10
73.5
 20
122.495
 11
73.5
 21
121.5
  0
LINE
  8
0
 10
73.5
 20
121.5
 11
59.5
 21
121.5
  0
LINE
  8
0
 10
40.5
 20
121.5
 11
40.5
 21
122.495
  0
LINE
  8
0
 10
40.5
 20
122.495
 11
39.6872
 21
122.495
  0
LINE
  8
0
 10
39.6872
 20
122.495
 11
39.6872
 21
125.996
  0
LINE
  8
0
 10
39.6872
 20
125.996
 11
40.5
 21
125.996
  0
LINE
  8
0
 10
40.5
 20
125.996
 11
40.5
 21
131.004
  0
LINE
  8
0
 10
40.5
 20
131.004
 11
39.6872
 21
131.004
  0
LINE
  8
0
 10
39.6872
 20
131.004
 11
39.6872
 21
134.505
  0
LINE
  8
0
 10
39.6872
 20
134.505
 11
40.5
 21
134.505
  0
LINE
  8
0
 10
40.5
 20
134.505
 11
40.5
 21
135.5
  0
LINE
  8
0
 10
40.5
 20
135.5
 11
54.5
 21
135.5
  0
LINE
  8
0
 10
54.5
 20
135.5
 11
54.5
 21
134.505
  0
LINE
  8
0
 10
54.5
 20
134.505
 11
55.3128
 21
134.505
  0
LINE
  8
0
 10
55.3128
 20
134.505
 11
55.3128
 21
131.004
  0
LINE
  8
0
 10
55.3128
 20
131.004
 11
54.5
 21
131.004
  0
LINE
  8
0
 10
54.5
 20
131.004
 11
54.5
 21
125.996
  0
LINE
  8
0
 10
54.5
 20
125.996
 11
55.3128
 21
125.996
  0
LINE
  8
0
 10
55.3128
 20
125.996
 11
55.3128
 21
122.495
  0
LINE
  8
0
 10
55.3128
 20
122.495
 11
54.5
 21
122.495
  0
LINE
  8
0
 10
54.5
 20
122.495
 11
54.5
 21
121.5
  0
LINE
  8
0
 10
54.5
 20
121.5
 11
40.5
 21
121.5
  0
LINE
  8
0
 10
21.5
 20
121.5
 11
21.5
 21
122.495
  0
LINE
  8
0
 10
21.5
 20
122.495
 11
20.6872
 21
122.495
  0
LINE
  8
0
 10
20.6872
 20
122.495
 11
20.6872
 21
125.996
  0
LINE
  8
0
 10
20.6872
 20
125.996
 11
21.5
 21
125.996
  0
LINE
  8
0
 10
21.5
 20
125.996
 11
21.5
 21
131.004
  0
LINE
  8
0
 10
21.5
 20
131.004
 11
20.6872
 21
131.004
  0
LINE
  8
0
 10
20.6872
 20
131.004
 11
20.6872
 21
134.505
  0
LINE
  8
0
 10
20.6872
 20
134.505
 11
21.5
 21
134.505
  0
LINE
  8
0
 10
21.5
 20
134.505
 11
21.5
 21
135.5
  0
LINE
  8
0
 10
21.5
 20
135.5
 11
35.5
 21
135.5
  0
LINE
  8
0
 10
35.5
 20
135.5
 11
35.5
 21
134.505
  0
LINE
  8
0
 10
35.5
 20
134.505
 11
36.3128
 21
134.505
  0
LINE
  8
0
 10
36.3128
 20
134.505
 11
36.3128
 21
131.004
  0
LINE
  8
0
 10
36.3128
 20
131.004
 11
35.5
 21
131.004
  0
LINE
  8
0
 10
35.5
 20
131.004
 11
35.5
 21
125.996
  0
LINE
  8
0
 10
35.5
 20
125.996
 11
36.3128
 21
125.996
  0
LINE
  8
0
 10
36.3128
 20
125.996
 11
36.3128
 21
122.495
  0
LINE
  8
0
 10
36.3128
 20
122.495
 11
35.5
 21
122.495
  0
LINE
  8
0
 10
35.5
 20
122.495
 11
35.5
 21
121.5
  0
LINE
  8
0
 10
35.5
 20
121.5
 11
21.5
 21
121.5
  0
LINE
  8
0
 10
2.5
 20
121.5
 11
2.5
 21
122.495
  0
LINE
  8
0
 10
2.5
 20
122.495
 11
1.68721
 21
122.495
  0
LINE
  8
0
 10
1.68721
 20
122.495
 11
1.68721
 21
125.996
  0
LINE
  8
0
 10
1.68721
 20
125.996
 11
2.5
 21
125.996
  0
LINE
  8
0
 10
2.5
 20
125.996
 11
2.5
 21
131.004
  0
LINE
  8
0
 10
2.5
 20
131.004
 11
1.68721
 21
131.004
  0
LINE
  8
0
 10
1.68721
 20
131.004
 11
1.68721
 21
134.505
  0
LINE
  8
0
 10
1.68721
 20
134.505
 11
2.5
 21
134.505
  0
LINE
  8
0
 10
2.5
 20
134.505
 11
2.5
 21
135.5
  0
LINE
  8
0
 10
2.5
 20
135.5
 11
16.5
 21
135.5
  0
LINE
  8
0
 10
16.5
 20
135.5
 11
16.5
 21
134.505
  0
LINE
  8
0
 10
16.5
 20
134.505
 11
17.3128
 21
134.505
  0
LINE
  8
0
 10
17.3128
 20
134.505
 11
17.3128
 21
131.004
  0
LINE
  8
0
 10
17.3128
 20
131.004
 11
16.5
 21
131.004
  0
LINE
  8
0
 10
16.5
 20
131.004
 11
16.5
 21
125.996
  0
LINE
  8
0
 10
16.5
 20
125.996
 11
17.3128
 21
125.996
  0
LINE
  8
0
 10
17.3128
 20
125.996
 11
17.3128
 21
122.495
  0
LINE
  8
0
 10
17.3128
 20
122.495
 11
16.5
 21
122.495
  0
LINE
  8
0
 10
16.5
 20
122.495
 11
16.5
 21
121.5
  0
LINE
  8
0
 10
16.5
 20
121.5
 11
2.5
 21
121.5
  0
LINE
  8
0
 10
170.869
 20
117.757
 11
170.766
 21
117.772
  0
LINE
  8
0
 10
170.766
 20
117.772
 11
170.664
 21
117.796
  0
LINE
  8
0
 10
170.664
 20
117.796
 11
170.564
 21
117.828
  0
LINE
  8
0
 10
170.564
 20
117.828
 11
170.468
 21
117.869
  0
LINE
  8
0
 10
170.468
 20
117.869
 11
170.375
 21
117.917
  0
LINE
  8
0
 10
170.375
 20
117.917
 11
170.287
 21
117.974
  0
LINE
  8
0
 10
170.287
 20
117.974
 11
170.203
 21
118.037
  0
LINE
  8
0
 10
170.203
 20
118.037
 11
170.125
 21
118.107
  0
LINE
  8
0
 10
170.125
 20
118.107
 11
170.054
 21
118.183
  0
LINE
  8
0
 10
170.054
 20
118.183
 11
169.989
 21
118.265
  0
LINE
  8
0
 10
169.989
 20
118.265
 11
169.931
 21
118.352
  0
LINE
  8
0
 10
169.931
 20
118.352
 11
169.88
 21
118.444
  0
LINE
  8
0
 10
169.88
 20
118.444
 11
169.838
 21
118.54
  0
LINE
  8
0
 10
169.838
 20
118.54
 11
169.803
 21
118.639
  0
LINE
  8
0
 10
169.803
 20
118.639
 11
169.777
 21
118.74
  0
LINE
  8
0
 10
169.777
 20
118.74
 11
169.76
 21
118.843
  0
LINE
  8
0
 10
169.76
 20
118.843
 11
169.751
 21
118.948
  0
LINE
  8
0
 10
169.751
 20
118.948
 11
169.751
 21
119.052
  0
LINE
  8
0
 10
169.751
 20
119.052
 11
169.76
 21
119.157
  0
LINE
  8
0
 10
169.76
 20
119.157
 11
169.777
 21
119.26
  0
LINE
  8
0
 10
169.777
 20
119.26
 11
169.803
 21
119.361
  0
LINE
  8
0
 10
169.803
 20
119.361
 11
169.838
 21
119.46
  0
LINE
  8
0
 10
169.838
 20
119.46
 11
169.88
 21
119.556
  0
LINE
  8
0
 10
169.88
 20
119.556
 11
169.931
 21
119.648
  0
LINE
  8
0
 10
169.931
 20
119.648
 11
169.989
 21
119.735
  0
LINE
  8
0
 10
169.989
 20
119.735
 11
170.054
 21
119.817
  0
LINE
  8
0
 10
170.054
 20
119.817
 11
170.125
 21
119.893
  0
LINE
  8
0
 10
170.125
 20
119.893
 11
170.203
 21
119.963
  0
LINE
  8
0
 10
170.203
 20
119.963
 11
170.287
 21
120.026
  0
LINE
  8
0
 10
170.287
 20
120.026
 11
170.375
 21
120.083
  0
LINE
  8
0
 10
170.375
 20
120.083
 11
170.468
 21
120.131
  0
LINE
  8
0
 10
170.468
 20
120.131
 11
170.564
 21
120.172
  0
LINE
  8
0
 10
170.564
 20
120.172
 11
170.664
 21
120.204
  0
LINE
  8
0
 10
170.664
 20
120.204
 11
170.766
 21
120.228
  0
LINE
  8
0
 10
170.766
 20
120.228
 11
170.869
 21
120.243
  0
LINE
  8
0
 10
170.869
 20
120.243
 11
170.974
 21
120.25
  0
LINE
  8
0
 10
170.974
 20
120.25
 11
171.078
 21
120.248
  0
LINE
  8
0
 10
171.078
 20
120.248
 11
171.183
 21
120.237
  0
LINE
  8
0
 10
171.183
 20
120.237
 11
171.285
 21
120.217
  0
LINE
  8
0
 10
171.285
 20
120.217
 11
171.386
 21
120.189
  0
LINE
  8
0
 10
171.386
 20
120.189
 11
171.484
 21
120.152
  0
LINE
  8
0
 10
171.484
 20
120.152
 11
171.579
 21
120.108
  0
LINE
  8
0
 10
171.579
 20
120.108
 11
171.67
 21
120.055
  0
LINE
  8
0
 10
171.67
 20
120.055
 11
171.756
 21
119.996
  0
LINE
  8
0
 10
171.756
 20
119.996
 11
171.836
 21
119.929
  0
LINE
  8
0
 10
171.836
 20
119.929
 11
171.911
 21
119.856
  0
LINE
  8
0
 10
171.911
 20
119.856
 11
171.98
 21
119.776
  0
LINE
  8
0
 10
171.98
 20
119.776
 11
172.041
 21
119.692
  0
LINE
  8
0
 10
172.041
 20
119.692
 11
172.095
 21
119.602
  0
LINE
  8
0
 10
172.095
 20
119.602
 11
172.142
 21
119.508
  0
LINE
  8
0
 10
172.142
 20
119.508
 11
172.18
 21
119.411
  0
LINE
  8
0
 10
172.18
 20
119.411
 11
172.211
 21
119.311
  0
LINE
  8
0
 10
172.211
 20
119.311
 11
172.232
 21
119.208
  0
LINE
  8
0
 10
172.232
 20
119.208
 11
172.246
 21
119.105
  0
LINE
  8
0
 10
172.246
 20
119.105
 11
172.25
 21
119
  0
LINE
  8
0
 10
172.25
 20
119
 11
172.246
 21
118.895
  0
LINE
  8
0
 10
172.246
 20
118.895
 11
172.232
 21
118.792
  0
LINE
  8
0
 10
172.232
 20
118.792
 11
172.211
 21
118.689
  0
LINE
  8
0
 10
172.211
 20
118.689
 11
172.18
 21
118.589
  0
LINE
  8
0
 10
172.18
 20
118.589
 11
172.142
 21
118.492
  0
LINE
  8
0
 10
172.142
 20
118.492
 11
172.095
 21
118.398
  0
LINE
  8
0
 10
172.095
 20
118.398
 11
172.041
 21
118.308
  0
LINE
  8
0
 10
172.041
 20
118.308
 11
171.98
 21
118.224
  0
LINE
  8
0
 10
171.98
 20
118.224
 11
171.911
 21
118.144
  0
LINE
  8
0
 10
171.911
 20
118.144
 11
171.836
 21
118.071
  0
LINE
  8
0
 10
171.836
 20
118.071
 11
171.756
 21
118.004
  0
LINE
  8
0
 10
171.756
 20
118.004
 11
171.67
 21
117.945
  0
LINE
  8
0
 10
171.67
 20
117.945
 11
171.579
 21
117.892
  0
LINE
  8
0
 10
171.579
 20
117.892
 11
171.484
 21
117.848
  0
LINE
  8
0
 10
171.484
 20
117.848
 11
171.386
 21
117.811
  0
LINE
  8
0
 10
171.386
 20
117.811
 11
171.285
 21
117.783
  0
LINE
  8
0
 10
171.285
 20
117.783
 11
171.183
 21
117.763
  0
LINE
  8
0
 10
171.183
 20
117.763
 11
171.078
 21
117.752
  0
LINE
  8
0
 10
171.078
 20
117.752
 11
170.974
 21
117.75
  0
LINE
  8
0
 10
170.974
 20
117.75
 11
170.869
 21
117.757
  0
LINE
  8
0
 10
18.8693
 20
117.757
 11
18.7658
 21
117.772
  0
LINE
  8
0
 10
18.7658
 20
117.772
 11
18.6638
 21
117.796
  0
LINE
  8
0
 10
18.6638
 20
117.796
 11
18.5643
 21
117.828
  0
LINE
  8
0
 10
18.5643
 20
117.828
 11
18.4678
 21
117.869
  0
LINE
  8
0
 10
18.4678
 20
117.869
 11
18.375
 21
117.917
  0
LINE
  8
0
 10
18.375
 20
117.917
 11
18.2866
 21
117.974
  0
LINE
  8
0
 10
18.2866
 20
117.974
 11
18.2032
 21
118.037
  0
LINE
  8
0
 10
18.2032
 20
118.037
 11
18.1254
 21
118.107
  0
LINE
  8
0
 10
18.1254
 20
118.107
 11
18.0537
 21
118.183
  0
LINE
  8
0
 10
18.0537
 20
118.183
 11
17.9887
 21
118.265
  0
LINE
  8
0
 10
17.9887
 20
118.265
 11
17.9308
 21
118.352
  0
LINE
  8
0
 10
17.9308
 20
118.352
 11
17.8804
 21
118.444
  0
LINE
  8
0
 10
17.8804
 20
118.444
 11
17.8378
 21
118.54
  0
LINE
  8
0
 10
17.8378
 20
118.54
 11
17.8033
 21
118.639
  0
LINE
  8
0
 10
17.8033
 20
118.639
 11
17.7773
 21
118.74
  0
LINE
  8
0
 10
17.7773
 20
118.74
 11
17.7598
 21
118.843
  0
LINE
  8
0
 10
17.7598
 20
118.843
 11
17.7511
 21
118.948
  0
LINE
  8
0
 10
17.7511
 20
118.948
 11
17.7511
 21
119.052
  0
LINE
  8
0
 10
17.7511
 20
119.052
 11
17.7598
 21
119.157
  0
LINE
  8
0
 10
17.7598
 20
119.157
 11
17.7773
 21
119.26
  0
LINE
  8
0
 10
17.7773
 20
119.26
 11
17.8033
 21
119.361
  0
LINE
  8
0
 10
17.8033
 20
119.361
 11
17.8378
 21
119.46
  0
LINE
  8
0
 10
17.8378
 20
119.46
 11
17.8804
 21
119.556
  0
LINE
  8
0
 10
17.8804
 20
119.556
 11
17.9308
 21
119.648
  0
LINE
  8
0
 10
17.9308
 20
119.648
 11
17.9887
 21
119.735
  0
LINE
  8
0
 10
17.9887
 20
119.735
 11
18.0537
 21
119.817
  0
LINE
  8
0
 10
18.0537
 20
119.817
 11
18.1254
 21
119.893
  0
LINE
  8
0
 10
18.1254
 20
119.893
 11
18.2032
 21
119.963
  0
LINE
  8
0
 10
18.2032
 20
119.963
 11
18.2866
 21
120.026
  0
LINE
  8
0
 10
18.2866
 20
120.026
 11
18.375
 21
120.083
  0
LINE
  8
0
 10
18.375
 20
120.083
 11
18.4678
 21
120.131
  0
LINE
  8
0
 10
18.4678
 20
120.131
 11
18.5643
 21
120.172
  0
LINE
  8
0
 10
18.5643
 20
120.172
 11
18.6638
 21
120.204
  0
LINE
  8
0
 10
18.6638
 20
120.204
 11
18.7658
 21
120.228
  0
LINE
  8
0
 10
18.7658
 20
120.228
 11
18.8693
 21
120.243
  0
LINE
  8
0
 10
18.8693
 20
120.243
 11
18.9738
 21
120.25
  0
LINE
  8
0
 10
18.9738
 20
120.25
 11
19.0785
 21
120.248
  0
LINE
  8
0
 10
19.0785
 20
120.248
 11
19.1826
 21
120.237
  0
LINE
  8
0
 10
19.1826
 20
120.237
 11
19.2854
 21
120.217
  0
LINE
  8
0
 10
19.2854
 20
120.217
 11
19.3863
 21
120.189
  0
LINE
  8
0
 10
19.3863
 20
120.189
 11
19.4844
 21
120.152
  0
LINE
  8
0
 10
19.4844
 20
120.152
 11
19.5791
 21
120.108
  0
LINE
  8
0
 10
19.5791
 20
120.108
 11
19.6698
 21
120.055
  0
LINE
  8
0
 10
19.6698
 20
120.055
 11
19.7557
 21
119.996
  0
LINE
  8
0
 10
19.7557
 20
119.996
 11
19.8364
 21
119.929
  0
LINE
  8
0
 10
19.8364
 20
119.929
 11
19.9112
 21
119.856
  0
LINE
  8
0
 10
19.9112
 20
119.856
 11
19.9796
 21
119.776
  0
LINE
  8
0
 10
19.9796
 20
119.776
 11
20.0411
 21
119.692
  0
LINE
  8
0
 10
20.0411
 20
119.692
 11
20.0954
 21
119.602
  0
LINE
  8
0
 10
20.0954
 20
119.602
 11
20.1419
 21
119.508
  0
LINE
  8
0
 10
20.1419
 20
119.508
 11
20.1805
 21
119.411
  0
LINE
  8
0
 10
20.1805
 20
119.411
 11
20.2107
 21
119.311
  0
LINE
  8
0
 10
20.2107
 20
119.311
 11
20.2325
 21
119.208
  0
LINE
  8
0
 10
20.2325
 20
119.208
 11
20.2456
 21
119.105
  0
LINE
  8
0
 10
20.2456
 20
119.105
 11
20.25
 21
119
  0
LINE
  8
0
 10
20.25
 20
119
 11
20.2456
 21
118.895
  0
LINE
  8
0
 10
20.2456
 20
118.895
 11
20.2325
 21
118.792
  0
LINE
  8
0
 10
20.2325
 20
118.792
 11
20.2107
 21
118.689
  0
LINE
  8
0
 10
20.2107
 20
118.689
 11
20.1805
 21
118.589
  0
LINE
  8
0
 10
20.1805
 20
118.589
 11
20.1419
 21
118.492
  0
LINE
  8
0
 10
20.1419
 20
118.492
 11
20.0954
 21
118.398
  0
LINE
  8
0
 10
20.0954
 20
118.398
 11
20.0411
 21
118.308
  0
LINE
  8
0
 10
20.0411
 20
118.308
 11
19.9796
 21
118.224
  0
LINE
  8
0
 10
19.9796
 20
118.224
 11
19.9112
 21
118.144
  0
LINE
  8
0
 10
19.9112
 20
118.144
 11
19.8364
 21
118.071
  0
LINE
  8
0
 10
19.8364
 20
118.071
 11
19.7557
 21
118.004
  0
LINE
  8
0
 10
19.7557
 20
118.004
 11
19.6698
 21
117.945
  0
LINE
  8
0
 10
19.6698
 20
117.945
 11
19.5791
 21
117.892
  0
LINE
  8
0
 10
19.5791
 20
117.892
 11
19.4844
 21
117.848
  0
LINE
  8
0
 10
19.4844
 20
117.848
 11
19.3863
 21
117.811
  0
LINE
  8
0
 10
19.3863
 20
117.811
 11
19.2854
 21
117.783
  0
LINE
  8
0
 10
19.2854
 20
117.783
 11
19.1826
 21
117.763
  0
LINE
  8
0
 10
19.1826
 20
117.763
 11
19.0785
 21
117.752
  0
LINE
  8
0
 10
19.0785
 20
117.752
 11
18.9738
 21
117.75
  0
LINE
  8
0
 10
18.9738
 20
117.75
 11
18.8693
 21
117.757
  0
LINE
  8
0
 10
173.5
 20
102.5
 11
173.5
 21
103.495
  0
LINE
  8
0
 10
173.5
 20
103.495
 11
172.687
 21
103.495
  0
LINE
  8
0
 10
172.687
 20
103.495
 11
172.687
 21
106.996
  0
LINE
  8
0
 10
172.687
 20
106.996
 11
173.5
 21
106.996
  0
LINE
  8
0
 10
173.5
 20
106.996
 11
173.5
 21
112.004
  0
LINE
  8
0
 10
173.5
 20
112.004
 11
172.687
 21
112.004
  0
LINE
  8
0
 10
172.687
 20
112.004
 11
172.687
 21
115.505
  0
LINE
  8
0
 10
172.687
 20
115.505
 11
173.5
 21
115.505
  0
LINE
  8
0
 10
173.5
 20
115.505
 11
173.5
 21
116.5
  0
LINE
  8
0
 10
173.5
 20
116.5
 11
187.5
 21
116.5
  0
LINE
  8
0
 10
187.5
 20
116.5
 11
187.5
 21
115.505
  0
LINE
  8
0
 10
187.5
 20
115.505
 11
188.313
 21
115.505
  0
LINE
  8
0
 10
188.313
 20
115.505
 11
188.313
 21
112.004
  0
LINE
  8
0
 10
188.313
 20
112.004
 11
187.5
 21
112.004
  0
LINE
  8
0
 10
187.5
 20
112.004
 11
187.5
 21
106.996
  0
LINE
  8
0
 10
187.5
 20
106.996
 11
188.313
 21
106.996
  0
LINE
  8
0
 10
188.313
 20
106.996
 11
188.313
 21
103.495
  0
LINE
  8
0
 10
188.313
 20
103.495
 11
187.5
 21
103.495
  0
LINE
  8
0
 10
187.5
 20
103.495
 11
187.5
 21
102.5
  0
LINE
  8
0
 10
187.5
 20
102.5
 11
173.5
 21
102.5
  0
LINE
  8
0
 10
154.5
 20
102.5
 11
154.5
 21
103.495
  0
LINE
  8
0
 10
154.5
 20
103.495
 11
153.687
 21
103.495
  0
LINE
  8
0
 10
153.687
 20
103.495
 11
153.687
 21
106.996
  0
LINE
  8
0
 10
153.687
 20
106.996
 11
154.5
 21
106.996
  0
LINE
  8
0
 10
154.5
 20
106.996
 11
154.5
 21
112.004
  0
LINE
  8
0
 10
154.5
 20
112.004
 11
153.687
 21
112.004
  0
LINE
  8
0
 10
153.687
 20
112.004
 11
153.687
 21
115.505
  0
LINE
  8
0
 10
153.687
 20
115.505
 11
154.5
 21
115.505
  0
LINE
  8
0
 10
154.5
 20
115.505
 11
154.5
 21
116.5
  0
LINE
  8
0
 10
154.5
 20
116.5
 11
168.5
 21
116.5
  0
LINE
  8
0
 10
168.5
 20
116.5
 11
168.5
 21
115.505
  0
LINE
  8
0
 10
168.5
 20
115.505
 11
169.313
 21
115.505
  0
LINE
  8
0
 10
169.313
 20
115.505
 11
169.313
 21
112.004
  0
LINE
  8
0
 10
169.313
 20
112.004
 11
168.5
 21
112.004
  0
LINE
  8
0
 10
168.5
 20
112.004
 11
168.5
 21
106.996
  0
LINE
  8
0
 10
168.5
 20
106.996
 11
169.313
 21
106.996
  0
LINE
  8
0
 10
169.313
 20
106.996
 11
169.313
 21
103.495
  0
LINE
  8
0
 10
169.313
 20
103.495
 11
168.5
 21
103.495
  0
LINE
  8
0
 10
168.5
 20
103.495
 11
168.5
 21
102.5
  0
LINE
  8
0
 10
168.5
 20
102.5
 11
154.5
 21
102.5
  0
LINE
  8
0
 10
135.5
 20
102.5
 11
135.5
 21
103.495
  0
LINE
  8
0
 10
135.5
 20
103.495
 11
134.687
 21
103.495
  0
LINE
  8
0
 10
134.687
 20
103.495
 11
134.687
 21
106.996
  0
LINE
  8
0
 10
134.687
 20
106.996
 11
135.5
 21
106.996
  0
LINE
  8
0
 10
135.5
 20
106.996
 11
135.5
 21
112.004
  0
LINE
  8
0
 10
135.5
 20
112.004
 11
134.687
 21
112.004
  0
LINE
  8
0
 10
134.687
 20
112.004
 11
134.687
 21
115.505
  0
LINE
  8
0
 10
134.687
 20
115.505
 11
135.5
 21
115.505
  0
LINE
  8
0
 10
135.5
 20
115.505
 11
135.5
 21
116.5
  0
LINE
  8
0
 10
135.5
 20
116.5
 11
149.5
 21
116.5
  0
LINE
  8
0
 10
149.5
 20
116.5
 11
149.5
 21
115.505
  0
LINE
  8
0
 10
149.5
 20
115.505
 11
150.313
 21
115.505
  0
LINE
  8
0
 10
150.313
 20
115.505
 11
150.313
 21
112.004
  0
LINE
  8
0
 10
150.313
 20
112.004
 11
149.5
 21
112.004
  0
LINE
  8
0
 10
149.5
 20
112.004
 11
149.5
 21
106.996
  0
LINE
  8
0
 10
149.5
 20
106.996
 11
150.313
 21
106.996
  0
LINE
  8
0
 10
150.313
 20
106.996
 11
150.313
 21
103.495
  0
LINE
  8
0
 10
150.313
 20
103.495
 11
149.5
 21
103.495
  0
LINE
  8
0
 10
149.5
 20
103.495
 11
149.5
 21
102.5
  0
LINE
  8
0
 10
149.5
 20
102.5
 11
135.5
 21
102.5
  0
LINE
  8
0
 10
116.5
 20
102.5
 11
116.5
 21
103.495
  0
LINE
  8
0
 10
116.5
 20
103.495
 11
115.687
 21
103.495
  0
LINE
  8
0
 10
115.687
 20
103.495
 11
115.687
 21
106.996
  0
LINE
  8
0
 10
115.687
 20
106.996
 11
116.5
 21
106.996
  0
LINE
  8
0
 10
116.5
 20
106.996
 11
116.5
 21
112.004
  0
LINE
  8
0
 10
116.5
 20
112.004
 11
115.687
 21
112.004
  0
LINE
  8
0
 10
115.687
 20
112.004
 11
115.687
 21
115.505
  0
LINE
  8
0
 10
115.687
 20
115.505
 11
116.5
 21
115.505
  0
LINE
  8
0
 10
116.5
 20
115.505
 11
116.5
 21
116.5
  0
LINE
  8
0
 10
116.5
 20
116.5
 11
130.5
 21
116.5
  0
LINE
  8
0
 10
130.5
 20
116.5
 11
130.5
 21
115.505
  0
LINE
  8
0
 10
130.5
 20
115.505
 11
131.313
 21
115.505
  0
LINE
  8
0
 10
131.313
 20
115.505
 11
131.313
 21
112.004
  0
LINE
  8
0
 10
131.313
 20
112.004
 11
130.5
 21
112.004
  0
LINE
  8
0
 10
130.5
 20
112.004
 11
130.5
 21
106.996
  0
LINE
  8
0
 10
130.5
 20
106.996
 11
131.313
 21
106.996
  0
LINE
  8
0
 10
131.313
 20
106.996
 11
131.313
 21
103.495
  0
LINE
  8
0
 10
131.313
 20
103.495
 11
130.5
 21
103.495
  0
LINE
  8
0
 10
130.5
 20
103.495
 11
130.5
 21
102.5
  0
LINE
  8
0
 10
130.5
 20
102.5
 11
116.5
 21
102.5
  0
LINE
  8
0
 10
97.5
 20
102.5
 11
97.5
 21
103.495
  0
LINE
  8
0
 10
97.5
 20
103.495
 11
96.6872
 21
103.495
  0
LINE
  8
0
 10
96.6872
 20
103.495
 11
96.6872
 21
106.996
  0
LINE
  8
0
 10
96.6872
 20
106.996
 11
97.5
 21
106.996
  0
LINE
  8
0
 10
97.5
 20
106.996
 11
97.5
 21
112.004
  0
LINE
  8
0
 10
97.5
 20
112.004
 11
96.6872
 21
112.004
  0
LINE
  8
0
 10
96.6872
 20
112.004
 11
96.6872
 21
115.505
  0
LINE
  8
0
 10
96.6872
 20
115.505
 11
97.5
 21
115.505
  0
LINE
  8
0
 10
97.5
 20
115.505
 11
97.5
 21
116.5
  0
LINE
  8
0
 10
97.5
 20
116.5
 11
111.5
 21
116.5
  0
LINE
  8
0
 10
111.5
 20
116.5
 11
111.5
 21
115.505
  0
LINE
  8
0
 10
111.5
 20
115.505
 11
112.313
 21
115.505
  0
LINE
  8
0
 10
112.313
 20
115.505
 11
112.313
 21
112.004
  0
LINE
  8
0
 10
112.313
 20
112.004
 11
111.5
 21
112.004
  0
LINE
  8
0
 10
111.5
 20
112.004
 11
111.5
 21
106.996
  0
LINE
  8
0
 10
111.5
 20
106.996
 11
112.313
 21
106.996
  0
LINE
  8
0
 10
112.313
 20
106.996
 11
112.313
 21
103.495
  0
LINE
  8
0
 10
112.313
 20
103.495
 11
111.5
 21
103.495
  0
LINE
  8
0
 10
111.5
 20
103.495
 11
111.5
 21
102.5
  0
LINE
  8
0
 10
111.5
 20
102.5
 11
97.5
 21
102.5
  0
LINE
  8
0
 10
78.5
 20
102.5
 11
78.5
 21
103.495
  0
LINE
  8
0
 10
78.5
 20
103.495
 11
77.6872
 21
103.495
  0
LINE
  8
0
 10
77.6872
 20
103.495
 11
77.6872
 21
106.996
  0
LINE
  8
0
 10
77.6872
 20
106.996
 11
78.5
 21
106.996
  0
LINE
  8
0
 10
78.5
 20
106.996
 11
78.5
 21
112.004
  0
LINE
  8
0
 10
78.5
 20
112.004
 11
77.6872
 21
112.004
  0
LINE
  8
0
 10
77.6872
 20
112.004
 11
77.6872
 21
115.505
  0
LINE
  8
0
 10
77.6872
 20
115.505
 11
78.5
 21
115.505
  0
LINE
  8
0
 10
78.5
 20
115.505
 11
78.5
 21
116.5
  0
LINE
  8
0
 10
78.5
 20
116.5
 11
92.5
 21
116.5
  0
LINE
  8
0
 10
92.5
 20
116.5
 11
92.5
 21
115.505
  0
LINE
  8
0
 10
92.5
 20
115.505
 11
93.3128
 21
115.505
  0
LINE
  8
0
 10
93.3128
 20
115.505
 11
93.3128
 21
112.004
  0
LINE
  8
0
 10
93.3128
 20
112.004
 11
92.5
 21
112.004
  0
LINE
  8
0
 10
92.5
 20
112.004
 11
92.5
 21
106.996
  0
LINE
  8
0
 10
92.5
 20
106.996
 11
93.3128
 21
106.996
  0
LINE
  8
0
 10
93.3128
 20
106.996
 11
93.3128
 21
103.495
  0
LINE
  8
0
 10
93.3128
 20
103.495
 11
92.5
 21
103.495
  0
LINE
  8
0
 10
92.5
 20
103.495
 11
92.5
 21
102.5
  0
LINE
  8
0
 10
92.5
 20
102.5
 11
78.5
 21
102.5
  0
LINE
  8
0
 10
59.5
 20
102.5
 11
59.5
 21
103.495
  0
LINE
  8
0
 10
59.5
 20
103.495
 11
58.6872
 21
103.495
  0
LINE
  8
0
 10
58.6872
 20
103.495
 11
58.6872
 21
106.996
  0
LINE
  8
0
 10
58.6872
 20
106.996
 11
59.5
 21
106.996
  0
LINE
  8
0
 10
59.5
 20
106.996
 11
59.5
 21
112.004
  0
LINE
  8
0
 10
59.5
 20
112.004
 11
58.6872
 21
112.004
  0
LINE
  8
0
 10
58.6872
 20
112.004
 11
58.6872
 21
115.505
  0
LINE
  8
0
 10
58.6872
 20
115.505
 11
59.5
 21
115.505
  0
LINE
  8
0
 10
59.5
 20
115.505
 11
59.5
 21
116.5
  0
LINE
  8
0
 10
59.5
 20
116.5
 11
73.5
 21
116.5
  0
LINE
  8
0
 10
73.5
 20
116.5
 11
73.5
 21
115.505
  0
LINE
  8
0
 10
73.5
 20
115.505
 11
74.3128
 21
115.505
  0
LINE
  8
0
 10
74.3128
 20
115.505
 11
74.3128
 21
112.004
  0
LINE
  8
0
 10
74.3128
 20
112.004
 11
73.5
 21
112.004
  0
LINE
  8
0
 10
73.5
 20
112.004
 11
73.5
 21
106.996
  0
LINE
  8
0
 10
73.5
 20
106.996
 11
74.3128
 21
106.996
  0
LINE
  8
0
 10
74.3128
 20
106.996
 11
74.3128
 21
103.495
  0
LINE
  8
0
 10
74.3128
 20
103.495
 11
73.5
 21
103.495
  0
LINE
  8
0
 10
73.5
 20
103.495
 11
73.5
 21
102.5
  0
LINE
  8
0
 10
73.5
 20
102.5
 11
59.5
 21
102.5
  0
LINE
  8
0
 10
40.5
 20
102.5
 11
40.5
 21
103.495
  0
LINE
  8
0
 10
40.5
 20
103.495
 11
39.6872
 21
103.495
  0
LINE
  8
0
 10
39.6872
 20
103.495
 11
39.6872
 21
106.996
  0
LINE
  8
0
 10
39.6872
 20
106.996
 11
40.5
 21
106.996
  0
LINE
  8
0
 10
40.5
 20
106.996
 11
40.5
 21
112.004
  0
LINE
  8
0
 10
40.5
 20
112.004
 11
39.6872
 21
112.004
  0
LINE
  8
0
 10
39.6872
 20
112.004
 11
39.6872
 21
115.505
  0
LINE
  8
0
 10
39.6872
 20
115.505
 11
40.5
 21
115.505
  0
LINE
  8
0
 10
40.5
 20
115.505
 11
40.5
 21
116.5
  0
LINE
  8
0
 10
40.5
 20
116.5
 11
54.5
 21
116.5
  0
LINE
  8
0
 10
54.5
 20
116.5
 11
54.5
 21
115.505
  0
LINE
  8
0
 10
54.5
 20
115.505
 11
55.3128
 21
115.505
  0
LINE
  8
0
 10
55.3128
 20
115.505
 11
55.3128
 21
112.004
  0
LINE
  8
0
 10
55.3128
 20
112.004
 11
54.5
 21
112.004
  0
LINE
  8
0
 10
54.5
 20
112.004
 11
54.5
 21
106.996
  0
LINE
  8
0
 10
54.5
 20
106.996
 11
55.3128
 21
106.996
  0
LINE
  8
0
 10
55.3128
 20
106.996
 11
55.3128
 21
103.495
  0
LINE
  8
0
 10
55.3128
 20
103.495
 11
54.5
 21
103.495
  0
LINE
  8
0
 10
54.5
 20
103.495
 11
54.5
 21
102.5
  0
LINE
  8
0
 10
54.5
 20
102.5
 11
40.5
 21
102.5
  0
LINE
  8
0
 10
21.5
 20
102.5
 11
21.5
 21
103.495
  0
LINE
  8
0
 10
21.5
 20
103.495
 11
20.6872
 21
103.495
  0
LINE
  8
0
 10
20.6872
 20
103.495
 11
20.6872
 21
106.996
  0
LINE
  8
0
 10
20.6872
 20
106.996
 11
21.5
 21
106.996
  0
LINE
  8
0
 10
21.5
 20
106.996
 11
21.5
 21
112.004
  0
LINE
  8
0
 10
21.5
 20
112.004
 11
20.6872
 21
112.004
  0
LINE
  8
0
 10
20.6872
 20
112.004
 11
20.6872
 21
115.505
  0
LINE
  8
0
 10
20.6872
 20
115.505
 11
21.5
 21
115.505
  0
LINE
  8
0
 10
21.5
 20
115.505
 11
21.5
 21
116.5
  0
LINE
  8
0
 10
21.5
 20
116.5
 11
35.5
 21
116.5
  0
LINE
  8
0
 10
35.5
 20
116.5
 11
35.5
 21
115.505
  0
LINE
  8
0
 10
35.5
 20
115.505
 11
36.3128
 21
115.505
  0
LINE
  8
0
 10
36.3128
 20
115.505
 11
36.3128
 21
112.004
  0
LINE
  8
0
 10
36.3128
 20
112.004
 11
35.5
 21
112.004
  0
LINE
  8
0
 10
35.5
 20
112.004
 11
35.5
 21
106.996
  0
LINE
  8
0
 10
35.5
 20
106.996
 11
36.3128
 21
106.996
  0
LINE
  8
0
 10
36.3128
 20
106.996
 11
36.3128
 21
103.495
  0
LINE
  8
0
 10
36.3128
 20
103.495
 11
35.5
 21
103.495
  0
LINE
  8
0
 10
35.5
 20
103.495
 11
35.5
 21
102.5
  0
LINE
  8
0
 10
35.5
 20
102.5
 11
21.5
 21
102.5
  0
LINE
  8
0
 10
2.5
 20
102.5
 11
2.5
 21
103.495
  0
LINE
  8
0
 10
2.5
 20
103.495
 11
1.68721
 21
103.495
  0
LINE
  8
0
 10
1.68721
 20
103.495
 11
1.68721
 21
106.996
  0
LINE
  8
0
 10
1.68721
 20
106.996
 11
2.5
 21
106.996
  0
LINE
  8
0
 10
2.5
 20
106.996
 11
2.5
 21
112.004
  0
LINE
  8
0
 10
2.5
 20
112.004
 11
1.68721
 21
112.004
  0
LINE
  8
0
 10
1.68721
 20
112.004
 11
1.68721
 21
115.505
  0
LINE
  8
0
 10
1.68721
 20
115.505
 11
2.5
 21
115.505
  0
LINE
  8
0
 10
2.5
 20
115.505
 11
2.5
 21
116.5
  0
LINE
  8
0
 10
2.5
 20
116.5
 11
16.5
 21
116.5
  0
LINE
  8
0
 10
16.5
 20
116.5
 11
16.5
 21
115.505
  0
LINE
  8
0
 10
16.5
 20
115.505
 11
17.3128
 21
115.505
  0
LINE
  8
0
 10
17.3128
 20
115.505
 11
17.3128
 21
112.004
  0
LINE
  8
0
 10
17.3128
 20
112.004
 11
16.5
 21
112.004
  0
LINE
  8
0
 10
16.5
 20
112.004
 11
16.5
 21
106.996
  0
LINE
  8
0
 10
16.5
 20
106.996
 11
17.3128
 21
106.996
  0
LINE
  8
0
 10
17.3128
 20
106.996
 11
17.3128
 21
103.495
  0
LINE
  8
0
 10
17.3128
 20
103.495
 11
16.5
 21
103.495
  0
LINE
  8
0
 10
16.5
 20
103.495
 11
16.5
 21
102.5
  0
LINE
  8
0
 10
16.5
 20
102.5
 11
2.5
 21
102.5
  0
LINE
  8
0
 10
192.954
 20
-4.82448
 11
193.121
 21
-4.80696
  0
LINE
  8
0
 10
193.121
 20
-4.80696
 11
193.285
 21
-4.77557
  0
LINE
  8
0
 10
193.285
 20
-4.77557
 11
193.446
 21
-4.73053
  0
LINE
  8
0
 10
193.446
 20
-4.73053
 11
193.603
 21
-4.67215
  0
LINE
  8
0
 10
193.603
 20
-4.67215
 11
193.755
 21
-4.60083
  0
LINE
  8
0
 10
193.755
 20
-4.60083
 11
193.9
 21
-4.51707
  0
LINE
  8
0
 10
193.9
 20
-4.51707
 11
194.038
 21
-4.42148
  0
LINE
  8
0
 10
194.038
 20
-4.42148
 11
194.167
 21
-4.31471
  0
LINE
  8
0
 10
194.167
 20
-4.31471
 11
194.286
 21
-4.19751
  0
LINE
  8
0
 10
194.286
 20
-4.19751
 11
194.396
 21
-4.07071
  0
LINE
  8
0
 10
194.396
 20
-4.07071
 11
194.494
 21
-3.9352
  0
LINE
  8
0
 10
194.494
 20
-3.9352
 11
194.581
 21
-3.79193
  0
LINE
  8
0
 10
194.581
 20
-3.79193
 11
194.656
 21
-3.64189
  0
LINE
  8
0
 10
194.656
 20
-3.64189
 11
194.717
 21
-3.48616
  0
LINE
  8
0
 10
194.717
 20
-3.48616
 11
194.766
 21
-3.32581
  0
LINE
  8
0
 10
194.766
 20
-3.32581
 11
194.8
 21
-3.16196
  0
LINE
  8
0
 10
194.8
 20
-3.16196
 11
194.821
 21
-2.99577
  0
LINE
  8
0
 10
194.821
 20
-2.99577
 11
194.828
 21
-2.82841
  0
LINE
  8
0
 10
194.828
 20
-2.82841
 11
194.828
 21
78.8284
  0
LINE
  8
0
 10
194.828
 20
78.8284
 11
194.821
 21
78.9958
  0
LINE
  8
0
 10
194.821
 20
78.9958
 11
194.8
 21
79.162
  0
LINE
  8
0
 10
194.8
 20
79.162
 11
194.766
 21
79.3258
  0
LINE
  8
0
 10
194.766
 20
79.3258
 11
194.717
 21
79.4862
  0
LINE
  8
0
 10
194.717
 20
79.4862
 11
194.656
 21
79.6419
  0
LINE
  8
0
 10
194.656
 20
79.6419
 11
194.581
 21
79.7919
  0
LINE
  8
0
 10
194.581
 20
79.7919
 11
194.494
 21
79.9352
  0
LINE
  8
0
 10
194.494
 20
79.9352
 11
194.396
 21
80.0707
  0
LINE
  8
0
 10
194.396
 20
80.0707
 11
194.286
 21
80.1975
  0
LINE
  8
0
 10
194.286
 20
80.1975
 11
194.167
 21
80.3147
  0
LINE
  8
0
 10
194.167
 20
80.3147
 11
194.038
 21
80.4215
  0
LINE
  8
0
 10
194.038
 20
80.4215
 11
193.9
 21
80.5171
  0
LINE
  8
0
 10
193.9
 20
80.5171
 11
193.755
 21
80.6008
  0
LINE
  8
0
 10
193.755
 20
80.6008
 11
193.603
 21
80.6721
  0
LINE
  8
0
 10
193.603
 20
80.6721
 11
193.446
 21
80.7305
  0
LINE
  8
0
 10
193.446
 20
80.7305
 11
193.285
 21
80.7756
  0
LINE
  8
0
 10
193.285
 20
80.7756
 11
193.121
 21
80.807
  0
LINE
  8
0
 10
193.121
 20
80.807
 11
192.954
 21
80.8245
  0
LINE
  8
0
 10
192.954
 20
80.8245
 11
192.787
 21
80.828
  0
LINE
  8
0
 10
192.787
 20
80.828
 11
-2.8703
 21
80.828
  0
LINE
  8
0
 10
-2.8703
 20
80.828
 11
-3.03748
 21
80.8175
  0
LINE
  8
0
 10
-3.03748
 20
80.8175
 11
-3.20319
 21
80.793
  0
LINE
  8
0
 10
-3.20319
 20
80.793
 11
-3.36626
 21
80.7547
  0
LINE
  8
0
 10
-3.36626
 20
80.7547
 11
-3.52556
 21
80.703
  0
LINE
  8
0
 10
-3.52556
 20
80.703
 11
-3.67998
 21
80.6381
  0
LINE
  8
0
 10
-3.67998
 20
80.6381
 11
-3.82841
 21
80.5605
  0
LINE
  8
0
 10
-3.82841
 20
80.5605
 11
-3.96985
 21
80.4707
  0
LINE
  8
0
 10
-3.96985
 20
80.4707
 11
-4.10327
 21
80.3694
  0
LINE
  8
0
 10
-4.10327
 20
80.3694
 11
-4.22775
 21
80.2574
  0
LINE
  8
0
 10
-4.22775
 20
80.2574
 11
-4.34241
 21
80.1353
  0
LINE
  8
0
 10
-4.34241
 20
80.1353
 11
-4.44646
 21
80.004
  0
LINE
  8
0
 10
-4.44646
 20
80.004
 11
-4.53915
 21
79.8645
  0
LINE
  8
0
 10
-4.53915
 20
79.8645
 11
-4.61984
 21
79.7177
  0
LINE
  8
0
 10
-4.61984
 20
79.7177
 11
-4.68797
 21
79.5647
  0
LINE
  8
0
 10
-4.68797
 20
79.5647
 11
-4.74306
 21
79.4065
  0
LINE
  8
0
 10
-4.74306
 20
79.4065
 11
-4.78471
 21
79.2442
  0
LINE
  8
0
 10
-4.78471
 20
79.2442
 11
-4.81265
 21
79.0791
  0
LINE
  8
0
 10
-4.81265
 20
79.0791
 11
-4.82666
 21
78.9122
  0
LINE
  8
0
 10
-4.82666
 20
78.9122
 11
-4.82666
 21
-2.91217
  0
LINE
  8
0
 10
-4.82666
 20
-2.91217
 11
-4.81265
 21
-3.07909
  0
LINE
  8
0
 10
-4.81265
 20
-3.07909
 11
-4.78471
 21
-3.24425
  0
LINE
  8
0
 10
-4.78471
 20
-3.24425
 11
-4.74306
 21
-3.40648
  0
LINE
  8
0
 10
-4.74306
 20
-3.40648
 11
-4.68797
 21
-3.56467
  0
LINE
  8
0
 10
-4.68797
 20
-3.56467
 11
-4.61984
 21
-3.7177
  0
LINE
  8
0
 10
-4.61984
 20
-3.7177
 11
-4.53915
 21
-3.86447
  0
LINE
  8
0
 10
-4.53915
 20
-3.86447
 11
-4.44646
 21
-4.00398
  0
LINE
  8
0
 10
-4.44646
 20
-4.00398
 11
-4.34241
 21
-4.13525
  0
LINE
  8
0
 10
-4.34241
 20
-4.13525
 11
-4.22775
 21
-4.25737
  0
LINE
  8
0
 10
-4.22775
 20
-4.25737
 11
-4.10327
 21
-4.36945
  0
LINE
  8
0
 10
-4.10327
 20
-4.36945
 11
-3.96985
 21
-4.47072
  0
LINE
  8
0
 10
-3.96985
 20
-4.47072
 11
-3.82841
 21
-4.56047
  0
LINE
  8
0
 10
-3.82841
 20
-4.56047
 11
-3.67998
 21
-4.63808
  0
LINE
  8
0
 10
-3.67998
 20
-4.63808
 11
-3.52556
 21
-4.70299
  0
LINE
  8
0
 10
-3.52556
 20
-4.70299
 11
-3.36626
 21
-4.75475
  0
LINE
  8
0
 10
-3.36626
 20
-4.75475
 11
-3.20319
 21
-4.793
  0
LINE
  8
0
 10
-3.20319
 20
-4.793
 11
-3.03748
 21
-4.81746
  0
LINE
  8
0
 10
-3.03748
 20
-4.81746
 11
-2.8703
 21
-4.82799
  0
LINE
  8
0
 10
-2.8703
 20
-4.82799
 11
192.787
 21
-4.82799
  0
LINE
  8
0
 10
192.787
 20
-4.82799
 11
192.954
 21
-4.82448
  0
LINE
  8
0
 10
-1.60457
 20
72.0044
 11
-1.70844
 21
72.0175
  0
LINE
  8
0
 10
-1.70844
 20
72.0175
 11
-1.81085
 21
72.0393
  0
LINE
  8
0
 10
-1.81085
 20
72.0393
 11
-1.91107
 21
72.0695
  0
LINE
  8
0
 10
-1.91107
 20
72.0695
 11
-2.00841
 21
72.1081
  0
LINE
  8
0
 10
-2.00841
 20
72.1081
 11
-2.10219
 21
72.1546
  0
LINE
  8
0
 10
-2.10219
 20
72.1546
 11
-2.19173
 21
72.2089
  0
LINE
  8
0
 10
-2.19173
 20
72.2089
 11
-2.27643
 21
72.2704
  0
LINE
  8
0
 10
-2.27643
 20
72.2704
 11
-2.35568
 21
72.3388
  0
LINE
  8
0
 10
-2.35568
 20
72.3388
 11
-2.42892
 21
72.4136
  0
LINE
  8
0
 10
-2.42892
 20
72.4136
 11
-2.49565
 21
72.4943
  0
LINE
  8
0
 10
-2.49565
 20
72.4943
 11
-2.5554
 21
72.5802
  0
LINE
  8
0
 10
-2.5554
 20
72.5802
 11
-2.60774
 21
72.6709
  0
LINE
  8
0
 10
-2.60774
 20
72.6709
 11
-2.65233
 21
72.7656
  0
LINE
  8
0
 10
-2.65233
 20
72.7656
 11
-2.68881
 21
72.8637
  0
LINE
  8
0
 10
-2.68881
 20
72.8637
 11
-2.71696
 21
72.9646
  0
LINE
  8
0
 10
-2.71696
 20
72.9646
 11
-2.73659
 21
73.0674
  0
LINE
  8
0
 10
-2.73659
 20
73.0674
 11
-2.74753
 21
73.1715
  0
LINE
  8
0
 10
-2.74753
 20
73.1715
 11
-2.74973
 21
73.2762
  0
LINE
  8
0
 10
-2.74973
 20
73.2762
 11
-2.74315
 21
73.3807
  0
LINE
  8
0
 10
-2.74315
 20
73.3807
 11
-2.72784
 21
73.4842
  0
LINE
  8
0
 10
-2.72784
 20
73.4842
 11
-2.70395
 21
73.5862
  0
LINE
  8
0
 10
-2.70395
 20
73.5862
 11
-2.6716
 21
73.6857
  0
LINE
  8
0
 10
-2.6716
 20
73.6857
 11
-2.63103
 21
73.7822
  0
LINE
  8
0
 10
-2.63103
 20
73.7822
 11
-2.58252
 21
73.875
  0
LINE
  8
0
 10
-2.58252
 20
73.875
 11
-2.52643
 21
73.9634
  0
LINE
  8
0
 10
-2.52643
 20
73.9634
 11
-2.46313
 21
74.0468
  0
LINE
  8
0
 10
-2.46313
 20
74.0468
 11
-2.39308
 21
74.1246
  0
LINE
  8
0
 10
-2.39308
 20
74.1246
 11
-2.31677
 21
74.1963
  0
LINE
  8
0
 10
-2.31677
 20
74.1963
 11
-2.23473
 21
74.2613
  0
LINE
  8
0
 10
-2.23473
 20
74.2613
 11
-2.14752
 21
74.3192
  0
LINE
  8
0
 10
-2.14752
 20
74.3192
 11
-2.05579
 21
74.3696
  0
LINE
  8
0
 10
-2.05579
 20
74.3696
 11
-1.96014
 21
74.4122
  0
LINE
  8
0
 10
-1.96014
 20
74.4122
 11
-1.86128
 21
74.4467
  0
LINE
  8
0
 10
-1.86128
 20
74.4467
 11
-1.75989
 21
74.4727
  0
LINE
  8
0
 10
-1.75989
 20
74.4727
 11
-1.65666
 21
74.4902
  0
LINE
  8
0
 10
-1.65666
 20
74.4902
 11
-1.55234
 21
74.4989
  0
LINE
  8
0
 10
-1.55234
 20
74.4989
 11
-1.44766
 21
74.4989
  0
LINE
  8
0
 10
-1.44766
 20
74.4989
 11
-1.34334
 21
74.4902
  0
LINE
  8
0
 10
-1.34334
 20
74.4902
 11
-1.24011
 21
74.4727
  0
LINE
  8
0
 10
-1.24011
 20
74.4727
 11
-1.13872
 21
74.4467
  0
LINE
  8
0
 10
-1.13872
 20
74.4467
 11
-1.03986
 21
74.4122
  0
LINE
  8
0
 10
-1.03986
 20
74.4122
 11
-0.944214
 21
74.3696
  0
LINE
  8
0
 10
-0.944214
 20
74.3696
 11
-0.852478
 21
74.3192
  0
LINE
  8
0
 10
-0.852478
 20
74.3192
 11
-0.765274
 21
74.2613
  0
LINE
  8
0
 10
-0.765274
 20
74.2613
 11
-0.683228
 21
74.1963
  0
LINE
  8
0
 10
-0.683228
 20
74.1963
 11
-0.606918
 21
74.1246
  0
LINE
  8
0
 10
-0.606918
 20
74.1246
 11
-0.536865
 21
74.0468
  0
LINE
  8
0
 10
-0.536865
 20
74.0468
 11
-0.473557
 21
73.9634
  0
LINE
  8
0
 10
-0.473557
 20
73.9634
 11
-0.417465
 21
73.875
  0
LINE
  8
0
 10
-0.417465
 20
73.875
 11
-0.368958
 21
73.7822
  0
LINE
  8
0
 10
-0.368958
 20
73.7822
 11
-0.328384
 21
73.6857
  0
LINE
  8
0
 10
-0.328384
 20
73.6857
 11
-0.296036
 21
73.5862
  0
LINE
  8
0
 10
-0.296036
 20
73.5862
 11
-0.272141
 21
73.4842
  0
LINE
  8
0
 10
-0.272141
 20
73.4842
 11
-0.256836
 21
73.3807
  0
LINE
  8
0
 10
-0.256836
 20
73.3807
 11
-0.250259
 21
73.2762
  0
LINE
  8
0
 10
-0.250259
 20
73.2762
 11
-0.252457
 21
73.1715
  0
LINE
  8
0
 10
-0.252457
 20
73.1715
 11
-0.263397
 21
73.0674
  0
LINE
  8
0
 10
-0.263397
 20
73.0674
 11
-0.28302
 21
72.9646
  0
LINE
  8
0
 10
-0.28302
 20
72.9646
 11
-0.311172
 21
72.8637
  0
LINE
  8
0
 10
-0.311172
 20
72.8637
 11
-0.347656
 21
72.7656
  0
LINE
  8
0
 10
-0.347656
 20
72.7656
 11
-0.392242
 21
72.6709
  0
LINE
  8
0
 10
-0.392242
 20
72.6709
 11
-0.44458
 21
72.5802
  0
LINE
  8
0
 10
-0.44458
 20
72.5802
 11
-0.504333
 21
72.4943
  0
LINE
  8
0
 10
-0.504333
 20
72.4943
 11
-0.57106
 21
72.4136
  0
LINE
  8
0
 10
-0.57106
 20
72.4136
 11
-0.644302
 21
72.3388
  0
LINE
  8
0
 10
-0.644302
 20
72.3388
 11
-0.723557
 21
72.2704
  0
LINE
  8
0
 10
-0.723557
 20
72.2704
 11
-0.808258
 21
72.2089
  0
LINE
  8
0
 10
-0.808258
 20
72.2089
 11
-0.897797
 21
72.1546
  0
LINE
  8
0
 10
-0.897797
 20
72.1546
 11
-0.991577
 21
72.1081
  0
LINE
  8
0
 10
-0.991577
 20
72.1081
 11
-1.08891
 21
72.0695
  0
LINE
  8
0
 10
-1.08891
 20
72.0695
 11
-1.18913
 21
72.0393
  0
LINE
  8
0
 10
-1.18913
 20
72.0393
 11
-1.29153
 21
72.0175
  0
LINE
  8
0
 10
-1.29153
 20
72.0175
 11
-1.3954
 21
72.0044
  0
LINE
  8
0
 10
-1.3954
 20
72.0044
 11
-1.49998
 21
72
  0
LINE
  8
0
 10
-1.49998
 20
72
 11
-1.60457
 21
72.0044
  0
LINE
  8
0
 10
-1.60457
 20
56.8044
 11
-1.70844
 21
56.8175
  0
LINE
  8
0
 10
-1.70844
 20
56.8175
 11
-1.81084
 21
56.8393
  0
LINE
  8
0
 10
-1.81084
 20
56.8393
 11
-1.91106
 21
56.8695
  0
LINE
  8
0
 10
-1.91106
 20
56.8695
 11
-2.00839
 21
56.9081
  0
LINE
  8
0
 10
-2.00839
 20
56.9081
 11
-2.10217
 21
56.9546
  0
LINE
  8
0
 10
-2.10217
 20
56.9546
 11
-2.19171
 21
57.0089
  0
LINE
  8
0
 10
-2.19171
 20
57.0089
 11
-2.27641
 21
57.0704
  0
LINE
  8
0
 10
-2.27641
 20
57.0704
 11
-2.35567
 21
57.1388
  0
LINE
  8
0
 10
-2.35567
 20
57.1388
 11
-2.42891
 21
57.2136
  0
LINE
  8
0
 10
-2.42891
 20
57.2136
 11
-2.49564
 21
57.2943
  0
LINE
  8
0
 10
-2.49564
 20
57.2943
 11
-2.55539
 21
57.3802
  0
LINE
  8
0
 10
-2.55539
 20
57.3802
 11
-2.60773
 21
57.4709
  0
LINE
  8
0
 10
-2.60773
 20
57.4709
 11
-2.65231
 21
57.5656
  0
LINE
  8
0
 10
-2.65231
 20
57.5656
 11
-2.6888
 21
57.6637
  0
LINE
  8
0
 10
-2.6888
 20
57.6637
 11
-2.71695
 21
57.7646
  0
LINE
  8
0
 10
-2.71695
 20
57.7646
 11
-2.73657
 21
57.8674
  0
LINE
  8
0
 10
-2.73657
 20
57.8674
 11
-2.74751
 21
57.9715
  0
LINE
  8
0
 10
-2.74751
 20
57.9715
 11
-2.74971
 21
58.0762
  0
LINE
  8
0
 10
-2.74971
 20
58.0762
 11
-2.74313
 21
58.1807
  0
LINE
  8
0
 10
-2.74313
 20
58.1807
 11
-2.72783
 21
58.2842
  0
LINE
  8
0
 10
-2.72783
 20
58.2842
 11
-2.70393
 21
58.3862
  0
LINE
  8
0
 10
-2.70393
 20
58.3862
 11
-2.67159
 21
58.4857
  0
LINE
  8
0
 10
-2.67159
 20
58.4857
 11
-2.63101
 21
58.5822
  0
LINE
  8
0
 10
-2.63101
 20
58.5822
 11
-2.5825
 21
58.675
  0
LINE
  8
0
 10
-2.5825
 20
58.675
 11
-2.52641
 21
58.7634
  0
LINE
  8
0
 10
-2.52641
 20
58.7634
 11
-2.46312
 21
58.8468
  0
LINE
  8
0
 10
-2.46312
 20
58.8468
 11
-2.39307
 21
58.9246
  0
LINE
  8
0
 10
-2.39307
 20
58.9246
 11
-2.31676
 21
58.9962
  0
LINE
  8
0
 10
-2.31676
 20
58.9962
 11
-2.23471
 21
59.0613
  0
LINE
  8
0
 10
-2.23471
 20
59.0613
 11
-2.14751
 21
59.1192
  0
LINE
  8
0
 10
-2.14751
 20
59.1192
 11
-2.05577
 21
59.1696
  0
LINE
  8
0
 10
-2.05577
 20
59.1696
 11
-1.96013
 21
59.2122
  0
LINE
  8
0
 10
-1.96013
 20
59.2122
 11
-1.86127
 21
59.2467
  0
LINE
  8
0
 10
-1.86127
 20
59.2467
 11
-1.75987
 21
59.2727
  0
LINE
  8
0
 10
-1.75987
 20
59.2727
 11
-1.65665
 21
59.2901
  0
LINE
  8
0
 10
-1.65665
 20
59.2901
 11
-1.55232
 21
59.2989
  0
LINE
  8
0
 10
-1.55232
 20
59.2989
 11
-1.44765
 21
59.2989
  0
LINE
  8
0
 10
-1.44765
 20
59.2989
 11
-1.34332
 21
59.2901
  0
LINE
  8
0
 10
-1.34332
 20
59.2901
 11
-1.2401
 21
59.2727
  0
LINE
  8
0
 10
-1.2401
 20
59.2727
 11
-1.1387
 21
59.2467
  0
LINE
  8
0
 10
-1.1387
 20
59.2467
 11
-1.03984
 21
59.2122
  0
LINE
  8
0
 10
-1.03984
 20
59.2122
 11
-0.944199
 21
59.1696
  0
LINE
  8
0
 10
-0.944199
 20
59.1696
 11
-0.852463
 21
59.1192
  0
LINE
  8
0
 10
-0.852463
 20
59.1192
 11
-0.765259
 21
59.0613
  0
LINE
  8
0
 10
-0.765259
 20
59.0613
 11
-0.683212
 21
58.9962
  0
LINE
  8
0
 10
-0.683212
 20
58.9962
 11
-0.606903
 21
58.9246
  0
LINE
  8
0
 10
-0.606903
 20
58.9246
 11
-0.53685
 21
58.8468
  0
LINE
  8
0
 10
-0.53685
 20
58.8468
 11
-0.473557
 21
58.7634
  0
LINE
  8
0
 10
-0.473557
 20
58.7634
 11
-0.417465
 21
58.675
  0
LINE
  8
0
 10
-0.417465
 20
58.675
 11
-0.368958
 21
58.5822
  0
LINE
  8
0
 10
-0.368958
 20
58.5822
 11
-0.328384
 21
58.4857
  0
LINE
  8
0
 10
-0.328384
 20
58.4857
 11
-0.296036
 21
58.3862
  0
LINE
  8
0
 10
-0.296036
 20
58.3862
 11
-0.272141
 21
58.2842
  0
LINE
  8
0
 10
-0.272141
 20
58.2842
 11
-0.256836
 21
58.1807
  0
LINE
  8
0
 10
-0.256836
 20
58.1807
 11
-0.250259
 21
58.0762
  0
LINE
  8
0
 10
-0.250259
 20
58.0762
 11
-0.252457
 21
57.9715
  0
LINE
  8
0
 10
-0.252457
 20
57.9715
 11
-0.263397
 21
57.8674
  0
LINE
  8
0
 10
-0.263397
 20
57.8674
 11
-0.28302
 21
57.7646
  0
LINE
  8
0
 10
-0.28302
 20
57.7646
 11
-0.311172
 21
57.6637
  0
LINE
  8
0
 10
-0.311172
 20
57.6637
 11
-0.347656
 21
57.5656
  0
LINE
  8
0
 10
-0.347656
 20
57.5656
 11
-0.392242
 21
57.4709
  0
LINE
  8
0
 10
-0.392242
 20
57.4709
 11
-0.44458
 21
57.3802
  0
LINE
  8
0
 10
-0.44458
 20
57.3802
 11
-0.504333
 21
57.2943
  0
LINE
  8
0
 10
-0.504333
 20
57.2943
 11
-0.57106
 21
57.2136
  0
LINE
  8
0
 10
-0.57106
 20
57.2136
 11
-0.644302
 21
57.1388
  0
LINE
  8
0
 10
-0.644302
 20
57.1388
 11
-0.723557
 21
57.0704
  0
LINE
  8
0
 10
-0.723557
 20
57.0704
 11
-0.808258
 21
57.0089
  0
LINE
  8
0
 10
-0.808258
 20
57.0089
 11
-0.897797
 21
56.9546
  0
LINE
  8
0
 10
-0.897797
 20
56.9546
 11
-0.991577
 21
56.9081
  0
LINE
  8
0
 10
-0.991577
 20
56.9081
 11
-1.08891
 21
56.8695
  0
LINE
  8
0
 10
-1.08891
 20
56.8695
 11
-1.18913
 21
56.8393
  0
LINE
  8
0
 10
-1.18913
 20
56.8393
 11
-1.29153
 21
56.8175
  0
LINE
  8
0
 10
-1.29153
 20
56.8175
 11
-1.3954
 21
56.8044
  0
LINE
  8
0
 10
-1.3954
 20
56.8044
 11
-1.49998
 21
56.8
  0
LINE
  8
0
 10
-1.49998
 20
56.8
 11
-1.60457
 21
56.8044
  0
LINE
  8
0
 10
170.869
 20
55.7568
 11
170.766
 21
55.7721
  0
LINE
  8
0
 10
170.766
 20
55.7721
 11
170.664
 21
55.796
  0
LINE
  8
0
 10
170.664
 20
55.796
 11
170.564
 21
55.8284
  0
LINE
  8
0
 10
170.564
 20
55.8284
 11
170.468
 21
55.869
  0
LINE
  8
0
 10
170.468
 20
55.869
 11
170.375
 21
55.9175
  0
LINE
  8
0
 10
170.375
 20
55.9175
 11
170.287
 21
55.9736
  0
LINE
  8
0
 10
170.287
 20
55.9736
 11
170.203
 21
56.0368
  0
LINE
  8
0
 10
170.203
 20
56.0368
 11
170.125
 21
56.1069
  0
LINE
  8
0
 10
170.125
 20
56.1069
 11
170.054
 21
56.1832
  0
LINE
  8
0
 10
170.054
 20
56.1832
 11
169.989
 21
56.2653
  0
LINE
  8
0
 10
169.989
 20
56.2653
 11
169.931
 21
56.3525
  0
LINE
  8
0
 10
169.931
 20
56.3525
 11
169.88
 21
56.4442
  0
LINE
  8
0
 10
169.88
 20
56.4442
 11
169.838
 21
56.5398
  0
LINE
  8
0
 10
169.838
 20
56.5398
 11
169.803
 21
56.6387
  0
LINE
  8
0
 10
169.803
 20
56.6387
 11
169.777
 21
56.7401
  0
LINE
  8
0
 10
169.777
 20
56.7401
 11
169.76
 21
56.8433
  0
LINE
  8
0
 10
169.76
 20
56.8433
 11
169.751
 21
56.9476
  0
LINE
  8
0
 10
169.751
 20
56.9476
 11
169.751
 21
57.0523
  0
LINE
  8
0
 10
169.751
 20
57.0523
 11
169.76
 21
57.1567
  0
LINE
  8
0
 10
169.76
 20
57.1567
 11
169.777
 21
57.2599
  0
LINE
  8
0
 10
169.777
 20
57.2599
 11
169.803
 21
57.3613
  0
LINE
  8
0
 10
169.803
 20
57.3613
 11
169.838
 21
57.4601
  0
LINE
  8
0
 10
169.838
 20
57.4601
 11
169.88
 21
57.5558
  0
LINE
  8
0
 10
169.88
 20
57.5558
 11
169.931
 21
57.6475
  0
LINE
  8
0
 10
169.931
 20
57.6475
 11
169.989
 21
57.7347
  0
LINE
  8
0
 10
169.989
 20
57.7347
 11
170.054
 21
57.8168
  0
LINE
  8
0
 10
170.054
 20
57.8168
 11
170.125
 21
57.8931
  0
LINE
  8
0
 10
170.125
 20
57.8931
 11
170.203
 21
57.9631
  0
LINE
  8
0
 10
170.203
 20
57.9631
 11
170.287
 21
58.0264
  0
LINE
  8
0
 10
170.287
 20
58.0264
 11
170.375
 21
58.0825
  0
LINE
  8
0
 10
170.375
 20
58.0825
 11
170.468
 21
58.131
  0
LINE
  8
0
 10
170.468
 20
58.131
 11
170.564
 21
58.1716
  0
LINE
  8
0
 10
170.564
 20
58.1716
 11
170.664
 21
58.2039
  0
LINE
  8
0
 10
170.664
 20
58.2039
 11
170.766
 21
58.2278
  0
LINE
  8
0
 10
170.766
 20
58.2278
 11
170.869
 21
58.2431
  0
LINE
  8
0
 10
170.869
 20
58.2431
 11
170.974
 21
58.2497
  0
LINE
  8
0
 10
170.974
 20
58.2497
 11
171.078
 21
58.2475
  0
LINE
  8
0
 10
171.078
 20
58.2475
 11
171.183
 21
58.2366
  0
LINE
  8
0
 10
171.183
 20
58.2366
 11
171.285
 21
58.217
  0
LINE
  8
0
 10
171.285
 20
58.217
 11
171.386
 21
58.1888
  0
LINE
  8
0
 10
171.386
 20
58.1888
 11
171.484
 21
58.1523
  0
LINE
  8
0
 10
171.484
 20
58.1523
 11
171.579
 21
58.1077
  0
LINE
  8
0
 10
171.579
 20
58.1077
 11
171.67
 21
58.0554
  0
LINE
  8
0
 10
171.67
 20
58.0554
 11
171.756
 21
57.9957
  0
LINE
  8
0
 10
171.756
 20
57.9957
 11
171.836
 21
57.9289
  0
LINE
  8
0
 10
171.836
 20
57.9289
 11
171.911
 21
57.8557
  0
LINE
  8
0
 10
171.911
 20
57.8557
 11
171.98
 21
57.7764
  0
LINE
  8
0
 10
171.98
 20
57.7764
 11
172.041
 21
57.6917
  0
LINE
  8
0
 10
172.041
 20
57.6917
 11
172.095
 21
57.6022
  0
LINE
  8
0
 10
172.095
 20
57.6022
 11
172.142
 21
57.5084
  0
LINE
  8
0
 10
172.142
 20
57.5084
 11
172.18
 21
57.4111
  0
LINE
  8
0
 10
172.18
 20
57.4111
 11
172.211
 21
57.3109
  0
LINE
  8
0
 10
172.211
 20
57.3109
 11
172.232
 21
57.2085
  0
LINE
  8
0
 10
172.232
 20
57.2085
 11
172.246
 21
57.1046
  0
LINE
  8
0
 10
172.246
 20
57.1046
 11
172.25
 21
57
  0
LINE
  8
0
 10
172.25
 20
57
 11
172.246
 21
56.8954
  0
LINE
  8
0
 10
172.246
 20
56.8954
 11
172.232
 21
56.7915
  0
LINE
  8
0
 10
172.232
 20
56.7915
 11
172.211
 21
56.6891
  0
LINE
  8
0
 10
172.211
 20
56.6891
 11
172.18
 21
56.5889
  0
LINE
  8
0
 10
172.18
 20
56.5889
 11
172.142
 21
56.4916
  0
LINE
  8
0
 10
172.142
 20
56.4916
 11
172.095
 21
56.3978
  0
LINE
  8
0
 10
172.095
 20
56.3978
 11
172.041
 21
56.3083
  0
LINE
  8
0
 10
172.041
 20
56.3083
 11
171.98
 21
56.2236
  0
LINE
  8
0
 10
171.98
 20
56.2236
 11
171.911
 21
56.1443
  0
LINE
  8
0
 10
171.911
 20
56.1443
 11
171.836
 21
56.0711
  0
LINE
  8
0
 10
171.836
 20
56.0711
 11
171.756
 21
56.0043
  0
LINE
  8
0
 10
171.756
 20
56.0043
 11
171.67
 21
55.9446
  0
LINE
  8
0
 10
171.67
 20
55.9446
 11
171.579
 21
55.8922
  0
LINE
  8
0
 10
171.579
 20
55.8922
 11
171.484
 21
55.8477
  0
LINE
  8
0
 10
171.484
 20
55.8477
 11
171.386
 21
55.8112
  0
LINE
  8
0
 10
171.386
 20
55.8112
 11
171.285
 21
55.783
  0
LINE
  8
0
 10
171.285
 20
55.783
 11
171.183
 21
55.7634
  0
LINE
  8
0
 10
171.183
 20
55.7634
 11
171.078
 21
55.7525
  0
LINE
  8
0
 10
171.078
 20
55.7525
 11
170.974
 21
55.7503
  0
LINE
  8
0
 10
170.974
 20
55.7503
 11
170.869
 21
55.7568
  0
LINE
  8
0
 10
18.8693
 20
55.7568
 11
18.7658
 21
55.7721
  0
LINE
  8
0
 10
18.7658
 20
55.7721
 11
18.6638
 21
55.796
  0
LINE
  8
0
 10
18.6638
 20
55.796
 11
18.5643
 21
55.8284
  0
LINE
  8
0
 10
18.5643
 20
55.8284
 11
18.4678
 21
55.869
  0
LINE
  8
0
 10
18.4678
 20
55.869
 11
18.375
 21
55.9175
  0
LINE
  8
0
 10
18.375
 20
55.9175
 11
18.2866
 21
55.9736
  0
LINE
  8
0
 10
18.2866
 20
55.9736
 11
18.2032
 21
56.0368
  0
LINE
  8
0
 10
18.2032
 20
56.0368
 11
18.1254
 21
56.1069
  0
LINE
  8
0
 10
18.1254
 20
56.1069
 11
18.0537
 21
56.1832
  0
LINE
  8
0
 10
18.0537
 20
56.1832
 11
17.9887
 21
56.2653
  0
LINE
  8
0
 10
17.9887
 20
56.2653
 11
17.9308
 21
56.3525
  0
LINE
  8
0
 10
17.9308
 20
56.3525
 11
17.8804
 21
56.4442
  0
LINE
  8
0
 10
17.8804
 20
56.4442
 11
17.8378
 21
56.5398
  0
LINE
  8
0
 10
17.8378
 20
56.5398
 11
17.8033
 21
56.6387
  0
LINE
  8
0
 10
17.8033
 20
56.6387
 11
17.7773
 21
56.7401
  0
LINE
  8
0
 10
17.7773
 20
56.7401
 11
17.7598
 21
56.8433
  0
LINE
  8
0
 10
17.7598
 20
56.8433
 11
17.7511
 21
56.9476
  0
LINE
  8
0
 10
17.7511
 20
56.9476
 11
17.7511
 21
57.0523
  0
LINE
  8
0
 10
17.7511
 20
57.0523
 11
17.7598
 21
57.1567
  0
LINE
  8
0
 10
17.7598
 20
57.1567
 11
17.7773
 21
57.2599
  0
LINE
  8
0
 10
17.7773
 20
57.2599
 11
17.8033
 21
57.3613
  0
LINE
  8
0
 10
17.8033
 20
57.3613
 11
17.8378
 21
57.4601
  0
LINE
  8
0
 10
17.8378
 20
57.4601
 11
17.8804
 21
57.5558
  0
LINE
  8
0
 10
17.8804
 20
57.5558
 11
17.9308
 21
57.6475
  0
LINE
  8
0
 10
17.9308
 20
57.6475
 11
17.9887
 21
57.7347
  0
LINE
  8
0
 10
17.9887
 20
57.7347
 11
18.0537
 21
57.8168
  0
LINE
  8
0
 10
18.0537
 20
57.8168
 11
18.1254
 21
57.8931
  0
LINE
  8
0
 10
18.1254
 20
57.8931
 11
18.2032
 21
57.9631
  0
LINE
  8
0
 10
18.2032
 20
57.9631
 11
18.2866
 21
58.0264
  0
LINE
  8
0
 10
18.2866
 20
58.0264
 11
18.375
 21
58.0825
  0
LINE
  8
0
 10
18.375
 20
58.0825
 11
18.4678
 21
58.131
  0
LINE
  8
0
 10
18.4678
 20
58.131
 11
18.5643
 21
58.1716
  0
LINE
  8
0
 10
18.5643
 20
58.1716
 11
18.6638
 21
58.2039
  0
LINE
  8
0
 10
18.6638
 20
58.2039
 11
18.7658
 21
58.2278
  0
LINE
  8
0
 10
18.7658
 20
58.2278
 11
18.8693
 21
58.2431
  0
LINE
  8
0
 10
18.8693
 20
58.2431
 11
18.9738
 21
58.2497
  0
LINE
  8
0
 10
18.9738
 20
58.2497
 11
19.0785
 21
58.2475
  0
LINE
  8
0
 10
19.0785
 20
58.2475
 11
19.1826
 21
58.2366
  0
LINE
  8
0
 10
19.1826
 20
58.2366
 11
19.2854
 21
58.217
  0
LINE
  8
0
 10
19.2854
 20
58.217
 11
19.3863
 21
58.1888
  0
LINE
  8
0
 10
19.3863
 20
58.1888
 11
19.4844
 21
58.1523
  0
LINE
  8
0
 10
19.4844
 20
58.1523
 11
19.5791
 21
58.1077
  0
LINE
  8
0
 10
19.5791
 20
58.1077
 11
19.6698
 21
58.0554
  0
LINE
  8
0
 10
19.6698
 20
58.0554
 11
19.7557
 21
57.9957
  0
LINE
  8
0
 10
19.7557
 20
57.9957
 11
19.8364
 21
57.9289
  0
LINE
  8
0
 10
19.8364
 20
57.9289
 11
19.9112
 21
57.8557
  0
LINE
  8
0
 10
19.9112
 20
57.8557
 11
19.9796
 21
57.7764
  0
LINE
  8
0
 10
19.9796
 20
57.7764
 11
20.0411
 21
57.6917
  0
LINE
  8
0
 10
20.0411
 20
57.6917
 11
20.0954
 21
57.6022
  0
LINE
  8
0
 10
20.0954
 20
57.6022
 11
20.1419
 21
57.5084
  0
LINE
  8
0
 10
20.1419
 20
57.5084
 11
20.1805
 21
57.4111
  0
LINE
  8
0
 10
20.1805
 20
57.4111
 11
20.2107
 21
57.3109
  0
LINE
  8
0
 10
20.2107
 20
57.3109
 11
20.2325
 21
57.2085
  0
LINE
  8
0
 10
20.2325
 20
57.2085
 11
20.2456
 21
57.1046
  0
LINE
  8
0
 10
20.2456
 20
57.1046
 11
20.25
 21
57
  0
LINE
  8
0
 10
20.25
 20
57
 11
20.2456
 21
56.8954
  0
LINE
  8
0
 10
20.2456
 20
56.8954
 11
20.2325
 21
56.7915
  0
LINE
  8
0
 10
20.2325
 20
56.7915
 11
20.2107
 21
56.6891
  0
LINE
  8
0
 10
20.2107
 20
56.6891
 11
20.1805
 21
56.5889
  0
LINE
  8
0
 10
20.1805
 20
56.5889
 11
20.1419
 21
56.4916
  0
LINE
  8
0
 10
20.1419
 20
56.4916
 11
20.0954
 21
56.3978
  0
LINE
  8
0
 10
20.0954
 20
56.3978
 11
20.0411
 21
56.3083
  0
LINE
  8
0
 10
20.0411
 20
56.3083
 11
19.9796
 21
56.2236
  0
LINE
  8
0
 10
19.9796
 20
56.2236
 11
19.9112
 21
56.1443
  0
LINE
  8
0
 10
19.9112
 20
56.1443
 11
19.8364
 21
56.0711
  0
LINE
  8
0
 10
19.8364
 20
56.0711
 11
19.7557
 21
56.0043
  0
LINE
  8
0
 10
19.7557
 20
56.0043
 11
19.6698
 21
55.9446
  0
LINE
  8
0
 10
19.6698
 20
55.9446
 11
19.5791
 21
55.8922
  0
LINE
  8
0
 10
19.5791
 20
55.8922
 11
19.4844
 21
55.8477
  0
LINE
  8
0
 10
19.4844
 20
55.8477
 11
19.3863
 21
55.8112
  0
LINE
  8
0
 10
19.3863
 20
55.8112
 11
19.2854
 21
55.783
  0
LINE
  8
0
 10
19.2854
 20
55.783
 11
19.1826
 21
55.7634
  0
LINE
  8
0
 10
19.1826
 20
55.7634
 11
19.0785
 21
55.7525
  0
LINE
  8
0
 10
19.0785
 20
55.7525
 11
18.9738
 21
55.7503
  0
LINE
  8
0
 10
18.9738
 20
55.7503
 11
18.8693
 21
55.7568
  0
LINE
  8
0
 10
94.8693
 20
36.7568
 11
94.7658
 21
36.7721
  0
LINE
  8
0
 10
94.7658
 20
36.7721
 11
94.6638
 21
36.796
  0
LINE
  8
0
 10
94.6638
 20
36.796
 11
94.5643
 21
36.8284
  0
LINE
  8
0
 10
94.5643
 20
36.8284
 11
94.4678
 21
36.869
  0
LINE
  8
0
 10
94.4678
 20
36.869
 11
94.375
 21
36.9175
  0
LINE
  8
0
 10
94.375
 20
36.9175
 11
94.2866
 21
36.9736
  0
LINE
  8
0
 10
94.2866
 20
36.9736
 11
94.2032
 21
37.0368
  0
LINE
  8
0
 10
94.2032
 20
37.0368
 11
94.1254
 21
37.1069
  0
LINE
  8
0
 10
94.1254
 20
37.1069
 11
94.0537
 21
37.1832
  0
LINE
  8
0
 10
94.0537
 20
37.1832
 11
93.9887
 21
37.2653
  0
LINE
  8
0
 10
93.9887
 20
37.2653
 11
93.9308
 21
37.3525
  0
LINE
  8
0
 10
93.9308
 20
37.3525
 11
93.8804
 21
37.4442
  0
LINE
  8
0
 10
93.8804
 20
37.4442
 11
93.8378
 21
37.5398
  0
LINE
  8
0
 10
93.8378
 20
37.5398
 11
93.8033
 21
37.6387
  0
LINE
  8
0
 10
93.8033
 20
37.6387
 11
93.7773
 21
37.7401
  0
LINE
  8
0
 10
93.7773
 20
37.7401
 11
93.7598
 21
37.8433
  0
LINE
  8
0
 10
93.7598
 20
37.8433
 11
93.7511
 21
37.9476
  0
LINE
  8
0
 10
93.7511
 20
37.9476
 11
93.7511
 21
38.0523
  0
LINE
  8
0
 10
93.7511
 20
38.0523
 11
93.7598
 21
38.1567
  0
LINE
  8
0
 10
93.7598
 20
38.1567
 11
93.7773
 21
38.2599
  0
LINE
  8
0
 10
93.7773
 20
38.2599
 11
93.8033
 21
38.3613
  0
LINE
  8
0
 10
93.8033
 20
38.3613
 11
93.8378
 21
38.4601
  0
LINE
  8
0
 10
93.8378
 20
38.4601
 11
93.8804
 21
38.5558
  0
LINE
  8
0
 10
93.8804
 20
38.5558
 11
93.9308
 21
38.6475
  0
LINE
  8
0
 10
93.9308
 20
38.6475
 11
93.9887
 21
38.7347
  0
LINE
  8
0
 10
93.9887
 20
38.7347
 11
94.0537
 21
38.8168
  0
LINE
  8
0
 10
94.0537
 20
38.8168
 11
94.1254
 21
38.8931
  0
LINE
  8
0
 10
94.1254
 20
38.8931
 11
94.2032
 21
38.9631
  0
LINE
  8
0
 10
94.2032
 20
38.9631
 11
94.2866
 21
39.0264
  0
LINE
  8
0
 10
94.2866
 20
39.0264
 11
94.375
 21
39.0825
  0
LINE
  8
0
 10
94.375
 20
39.0825
 11
94.4678
 21
39.131
  0
LINE
  8
0
 10
94.4678
 20
39.131
 11
94.5643
 21
39.1716
  0
LINE
  8
0
 10
94.5643
 20
39.1716
 11
94.6638
 21
39.2039
  0
LINE
  8
0
 10
94.6638
 20
39.2039
 11
94.7658
 21
39.2278
  0
LINE
  8
0
 10
94.7658
 20
39.2278
 11
94.8693
 21
39.2431
  0
LINE
  8
0
 10
94.8693
 20
39.2431
 11
94.9738
 21
39.2497
  0
LINE
  8
0
 10
94.9738
 20
39.2497
 11
95.0785
 21
39.2475
  0
LINE
  8
0
 10
95.0785
 20
39.2475
 11
95.1826
 21
39.2366
  0
LINE
  8
0
 10
95.1826
 20
39.2366
 11
95.2854
 21
39.217
  0
LINE
  8
0
 10
95.2854
 20
39.217
 11
95.3863
 21
39.1888
  0
LINE
  8
0
 10
95.3863
 20
39.1888
 11
95.4844
 21
39.1523
  0
LINE
  8
0
 10
95.4844
 20
39.1523
 11
95.5791
 21
39.1077
  0
LINE
  8
0
 10
95.5791
 20
39.1077
 11
95.6698
 21
39.0554
  0
LINE
  8
0
 10
95.6698
 20
39.0554
 11
95.7557
 21
38.9957
  0
LINE
  8
0
 10
95.7557
 20
38.9957
 11
95.8364
 21
38.9289
  0
LINE
  8
0
 10
95.8364
 20
38.9289
 11
95.9112
 21
38.8557
  0
LINE
  8
0
 10
95.9112
 20
38.8557
 11
95.9796
 21
38.7764
  0
LINE
  8
0
 10
95.9796
 20
38.7764
 11
96.0411
 21
38.6917
  0
LINE
  8
0
 10
96.0411
 20
38.6917
 11
96.0954
 21
38.6022
  0
LINE
  8
0
 10
96.0954
 20
38.6022
 11
96.1419
 21
38.5084
  0
LINE
  8
0
 10
96.1419
 20
38.5084
 11
96.1805
 21
38.4111
  0
LINE
  8
0
 10
96.1805
 20
38.4111
 11
96.2107
 21
38.3109
  0
LINE
  8
0
 10
96.2107
 20
38.3109
 11
96.2325
 21
38.2085
  0
LINE
  8
0
 10
96.2325
 20
38.2085
 11
96.2456
 21
38.1046
  0
LINE
  8
0
 10
96.2456
 20
38.1046
 11
96.25
 21
38
  0
LINE
  8
0
 10
96.25
 20
38
 11
96.2456
 21
37.8954
  0
LINE
  8
0
 10
96.2456
 20
37.8954
 11
96.2325
 21
37.7915
  0
LINE
  8
0
 10
96.2325
 20
37.7915
 11
96.2107
 21
37.6891
  0
LINE
  8
0
 10
96.2107
 20
37.6891
 11
96.1805
 21
37.5889
  0
LINE
  8
0
 10
96.1805
 20
37.5889
 11
96.1419
 21
37.4916
  0
LINE
  8
0
 10
96.1419
 20
37.4916
 11
96.0954
 21
37.3978
  0
LINE
  8
0
 10
96.0954
 20
37.3978
 11
96.0411
 21
37.3083
  0
LINE
  8
0
 10
96.0411
 20
37.3083
 11
95.9796
 21
37.2236
  0
LINE
  8
0
 10
95.9796
 20
37.2236
 11
95.9112
 21
37.1443
  0
LINE
  8
0
 10
95.9112
 20
37.1443
 11
95.8364
 21
37.0711
  0
LINE
  8
0
 10
95.8364
 20
37.0711
 11
95.7557
 21
37.0043
  0
LINE
  8
0
 10
95.7557
 20
37.0043
 11
95.6698
 21
36.9446
  0
LINE
  8
0
 10
95.6698
 20
36.9446
 11
95.5791
 21
36.8922
  0
LINE
  8
0
 10
95.5791
 20
36.8922
 11
95.4844
 21
36.8477
  0
LINE
  8
0
 10
95.4844
 20
36.8477
 11
95.3863
 21
36.8112
  0
LINE
  8
0
 10
95.3863
 20
36.8112
 11
95.2854
 21
36.783
  0
LINE
  8
0
 10
95.2854
 20
36.783
 11
95.1826
 21
36.7634
  0
LINE
  8
0
 10
95.1826
 20
36.7634
 11
95.0785
 21
36.7525
  0
LINE
  8
0
 10
95.0785
 20
36.7525
 11
94.9738
 21
36.7503
  0
LINE
  8
0
 10
94.9738
 20
36.7503
 11
94.8693
 21
36.7568
  0
LINE
  8
0
 10
170.869
 20
17.7568
 11
170.766
 21
17.7721
  0
LINE
  8
0
 10
170.766
 20
17.7721
 11
170.664
 21
17.796
  0
LINE
  8
0
 10
170.664
 20
17.796
 11
170.564
 21
17.8284
  0
LINE
  8
0
 10
170.564
 20
17.8284
 11
170.468
 21
17.869
  0
LINE
  8
0
 10
170.468
 20
17.869
 11
170.375
 21
17.9175
  0
LINE
  8
0
 10
170.375
 20
17.9175
 11
170.287
 21
17.9736
  0
LINE
  8
0
 10
170.287
 20
17.9736
 11
170.203
 21
18.0368
  0
LINE
  8
0
 10
170.203
 20
18.0368
 11
170.125
 21
18.1069
  0
LINE
  8
0
 10
170.125
 20
18.1069
 11
170.054
 21
18.1832
  0
LINE
  8
0
 10
170.054
 20
18.1832
 11
169.989
 21
18.2653
  0
LINE
  8
0
 10
169.989
 20
18.2653
 11
169.931
 21
18.3525
  0
LINE
  8
0
 10
169.931
 20
18.3525
 11
169.88
 21
18.4442
  0
LINE
  8
0
 10
169.88
 20
18.4442
 11
169.838
 21
18.5398
  0
LINE
  8
0
 10
169.838
 20
18.5398
 11
169.803
 21
18.6387
  0
LINE
  8
0
 10
169.803
 20
18.6387
 11
169.777
 21
18.7401
  0
LINE
  8
0
 10
169.777
 20
18.7401
 11
169.76
 21
18.8433
  0
LINE
  8
0
 10
169.76
 20
18.8433
 11
169.751
 21
18.9476
  0
LINE
  8
0
 10
169.751
 20
18.9476
 11
169.751
 21
19.0523
  0
LINE
  8
0
 10
169.751
 20
19.0523
 11
169.76
 21
19.1567
  0
LINE
  8
0
 10
169.76
 20
19.1567
 11
169.777
 21
19.2599
  0
LINE
  8
0
 10
169.777
 20
19.2599
 11
169.803
 21
19.3613
  0
LINE
  8
0
 10
169.803
 20
19.3613
 11
169.838
 21
19.4601
  0
LINE
  8
0
 10
169.838
 20
19.4601
 11
169.88
 21
19.5558
  0
LINE
  8
0
 10
169.88
 20
19.5558
 11
169.931
 21
19.6475
  0
LINE
  8
0
 10
169.931
 20
19.6475
 11
169.989
 21
19.7347
  0
LINE
  8
0
 10
169.989
 20
19.7347
 11
170.054
 21
19.8168
  0
LINE
  8
0
 10
170.054
 20
19.8168
 11
170.125
 21
19.8931
  0
LINE
  8
0
 10
170.125
 20
19.8931
 11
170.203
 21
19.9631
  0
LINE
  8
0
 10
170.203
 20
19.9631
 11
170.287
 21
20.0264
  0
LINE
  8
0
 10
170.287
 20
20.0264
 11
170.375
 21
20.0825
  0
LINE
  8
0
 10
170.375
 20
20.0825
 11
170.468
 21
20.131
  0
LINE
  8
0
 10
170.468
 20
20.131
 11
170.564
 21
20.1716
  0
LINE
  8
0
 10
170.564
 20
20.1716
 11
170.664
 21
20.2039
  0
LINE
  8
0
 10
170.664
 20
20.2039
 11
170.766
 21
20.2278
  0
LINE
  8
0
 10
170.766
 20
20.2278
 11
170.869
 21
20.2431
  0
LINE
  8
0
 10
170.869
 20
20.2431
 11
170.974
 21
20.2497
  0
LINE
  8
0
 10
170.974
 20
20.2497
 11
171.078
 21
20.2475
  0
LINE
  8
0
 10
171.078
 20
20.2475
 11
171.183
 21
20.2366
  0
LINE
  8
0
 10
171.183
 20
20.2366
 11
171.285
 21
20.217
  0
LINE
  8
0
 10
171.285
 20
20.217
 11
171.386
 21
20.1888
  0
LINE
  8
0
 10
171.386
 20
20.1888
 11
171.484
 21
20.1523
  0
LINE
  8
0
 10
171.484
 20
20.1523
 11
171.579
 21
20.1077
  0
LINE
  8
0
 10
171.579
 20
20.1077
 11
171.67
 21
20.0554
  0
LINE
  8
0
 10
171.67
 20
20.0554
 11
171.756
 21
19.9957
  0
LINE
  8
0
 10
171.756
 20
19.9957
 11
171.836
 21
19.9289
  0
LINE
  8
0
 10
171.836
 20
19.9289
 11
171.911
 21
19.8557
  0
LINE
  8
0
 10
171.911
 20
19.8557
 11
171.98
 21
19.7764
  0
LINE
  8
0
 10
171.98
 20
19.7764
 11
172.041
 21
19.6917
  0
LINE
  8
0
 10
172.041
 20
19.6917
 11
172.095
 21
19.6022
  0
LINE
  8
0
 10
172.095
 20
19.6022
 11
172.142
 21
19.5084
  0
LINE
  8
0
 10
172.142
 20
19.5084
 11
172.18
 21
19.4111
  0
LINE
  8
0
 10
172.18
 20
19.4111
 11
172.211
 21
19.3109
  0
LINE
  8
0
 10
172.211
 20
19.3109
 11
172.232
 21
19.2085
  0
LINE
  8
0
 10
172.232
 20
19.2085
 11
172.246
 21
19.1046
  0
LINE
  8
0
 10
172.246
 20
19.1046
 11
172.25
 21
19
  0
LINE
  8
0
 10
172.25
 20
19
 11
172.246
 21
18.8954
  0
LINE
  8
0
 10
172.246
 20
18.8954
 11
172.232
 21
18.7915
  0
LINE
  8
0
 10
172.232
 20
18.7915
 11
172.211
 21
18.6891
  0
LINE
  8
0
 10
172.211
 20
18.6891
 11
172.18
 21
18.5889
  0
LINE
  8
0
 10
172.18
 20
18.5889
 11
172.142
 21
18.4916
  0
LINE
  8
0
 10
172.142
 20
18.4916
 11
172.095
 21
18.3978
  0
LINE
  8
0
 10
172.095
 20
18.3978
 11
172.041
 21
18.3083
  0
LINE
  8
0
 10
172.041
 20
18.3083
 11
171.98
 21
18.2236
  0
LINE
  8
0
 10
171.98
 20
18.2236
 11
171.911
 21
18.1443
  0
LINE
  8
0
 10
171.911
 20
18.1443
 11
171.836
 21
18.0711
  0
LINE
  8
0
 10
171.836
 20
18.0711
 11
171.756
 21
18.0043
  0
LINE
  8
0
 10
171.756
 20
18.0043
 11
171.67
 21
17.9446
  0
LINE
  8
0
 10
171.67
 20
17.9446
 11
171.579
 21
17.8922
  0
LINE
  8
0
 10
171.579
 20
17.8922
 11
171.484
 21
17.8477
  0
LINE
  8
0
 10
171.484
 20
17.8477
 11
171.386
 21
17.8112
  0
LINE
  8
0
 10
171.386
 20
17.8112
 11
171.285
 21
17.783
  0
LINE
  8
0
 10
171.285
 20
17.783
 11
171.183
 21
17.7634
  0
LINE
  8
0
 10
171.183
 20
17.7634
 11
171.078
 21
17.7525
  0
LINE
  8
0
 10
171.078
 20
17.7525
 11
170.974
 21
17.7503
  0
LINE
  8
0
 10
170.974
 20
17.7503
 11
170.869
 21
17.7568
  0
LINE
  8
0
 10
18.8693
 20
17.7568
 11
18.7658
 21
17.7721
  0
LINE
  8
0
 10
18.7658
 20
17.7721
 11
18.6638
 21
17.796
  0
LINE
  8
0
 10
18.6638
 20
17.796
 11
18.5643
 21
17.8284
  0
LINE
  8
0
 10
18.5643
 20
17.8284
 11
18.4678
 21
17.869
  0
LINE
  8
0
 10
18.4678
 20
17.869
 11
18.375
 21
17.9175
  0
LINE
  8
0
 10
18.375
 20
17.9175
 11
18.2866
 21
17.9736
  0
LINE
  8
0
 10
18.2866
 20
17.9736
 11
18.2032
 21
18.0368
  0
LINE
  8
0
 10
18.2032
 20
18.0368
 11
18.1254
 21
18.1069
  0
LINE
  8
0
 10
18.1254
 20
18.1069
 11
18.0537
 21
18.1832
  0
LINE
  8
0
 10
18.0537
 20
18.1832
 11
17.9887
 21
18.2653
  0
LINE
  8
0
 10
17.9887
 20
18.2653
 11
17.9308
 21
18.3525
  0
LINE
  8
0
 10
17.9308
 20
18.3525
 11
17.8804
 21
18.4442
  0
LINE
  8
0
 10
17.8804
 20
18.4442
 11
17.8378
 21
18.5398
  0
LINE
  8
0
 10
17.8378
 20
18.5398
 11
17.8033
 21
18.6387
  0
LINE
  8
0
 10
17.8033
 20
18.6387
 11
17.7773
 21
18.7401
  0
LINE
  8
0
 10
17.7773
 20
18.7401
 11
17.7598
 21
18.8433
  0
LINE
  8
0
 10
17.7598
 20
18.8433
 11
17.7511
 21
18.9476
  0
LINE
  8
0
 10
17.7511
 20
18.9476
 11
17.7511
 21
19.0523
  0
LINE
  8
0
 10
17.7511
 20
19.0523
 11
17.7598
 21
19.1567
  0
LINE
  8
0
 10
17.7598
 20
19.1567
 11
17.7773
 21
19.2599
  0
LINE
  8
0
 10
17.7773
 20
19.2599
 11
17.8033
 21
19.3613
  0
LINE
  8
0
 10
17.8033
 20
19.3613
 11
17.8378
 21
19.4601
  0
LINE
  8
0
 10
17.8378
 20
19.4601
 11
17.8804
 21
19.5558
  0
LINE
  8
0
 10
17.8804
 20
19.5558
 11
17.9308
 21
19.6475
  0
LINE
  8
0
 10
17.9308
 20
19.6475
 11
17.9887
 21
19.7347
  0
LINE
  8
0
 10
17.9887
 20
19.7347
 11
18.0537
 21
19.8168
  0
LINE
  8
0
 10
18.0537
 20
19.8168
 11
18.1254
 21
19.8931
  0
LINE
  8
0
 10
18.1254
 20
19.8931
 11
18.2032
 21
19.9631
  0
LINE
  8
0
 10
18.2032
 20
19.9631
 11
18.2866
 21
20.0264
  0
LINE
  8
0
 10
18.2866
 20
20.0264
 11
18.375
 21
20.0825
  0
LINE
  8
0
 10
18.375
 20
20.0825
 11
18.4678
 21
20.131
  0
LINE
  8
0
 10
18.4678
 20
20.131
 11
18.5643
 21
20.1716
  0
LINE
  8
0
 10
18.5643
 20
20.1716
 11
18.6638
 21
20.2039
  0
LINE
  8
0
 10
18.6638
 20
20.2039
 11
18.7658
 21
20.2278
  0
LINE
  8
0
 10
18.7658
 20
20.2278
 11
18.8693
 21
20.2431
  0
LINE
  8
0
 10
18.8693
 20
20.2431
 11
18.9738
 21
20.2497
  0
LINE
  8
0
 10
18.9738
 20
20.2497
 11
19.0785
 21
20.2475
  0
LINE
  8
0
 10
19.0785
 20
20.2475
 11
19.1826
 21
20.2366
  0
LINE
  8
0
 10
19.1826
 20
20.2366
 11
19.2854
 21
20.217
  0
LINE
  8
0
 10
19.2854
 20
20.217
 11
19.3863
 21
20.1888
  0
LINE
  8
0
 10
19.3863
 20
20.1888
 11
19.4844
 21
20.1523
  0
LINE
  8
0
 10
19.4844
 20
20.1523
 11
19.5791
 21
20.1077
  0
LINE
  8
0
 10
19.5791
 20
20.1077
 11
19.6698
 21
20.0554
  0
LINE
  8
0
 10
19.6698
 20
20.0554
 11
19.7557
 21
19.9957
  0
LINE
  8
0
 10
19.7557
 20
19.9957
 11
19.8364
 21
19.9289
  0
LINE
  8
0
 10
19.8364
 20
19.9289
 11
19.9112
 21
19.8557
  0
LINE
  8
0
 10
19.9112
 20
19.8557
 11
19.9796
 21
19.7764
  0
LINE
  8
0
 10
19.9796
 20
19.7764
 11
20.0411
 21
19.6917
  0
LINE
  8
0
 10
20.0411
 20
19.6917
 11
20.0954
 21
19.6022
  0
LINE
  8
0
 10
20.0954
 20
19.6022
 11
20.1419
 21
19.5084
  0
LINE
  8
0
 10
20.1419
 20
19.5084
 11
20.1805
 21
19.4111
  0
LINE
  8
0
 10
20.1805
 20
19.4111
 11
20.2107
 21
19.3109
  0
LINE
  8
0
 10
20.2107
 20
19.3109
 11
20.2325
 21
19.2085
  0
LINE
  8
0
 10
20.2325
 20
19.2085
 11
20.2456
 21
19.1046
  0
LINE
  8
0
 10
20.2456
 20
19.1046
 11
20.25
 21
19
  0
LINE
  8
0
 10
20.25
 20
19
 11
20.2456
 21
18.8954
  0
LINE
  8
0
 10
20.2456
 20
18.8954
 11
20.2325
 21
18.7915
  0
LINE
  8
0
 10
20.2325
 20
18.7915
 11
20.2107
 21
18.6891
  0
LINE
  8
0
 10
20.2107
 20
18.6891
 11
20.1805
 21
18.5889
  0
LINE
  8
0
 10
20.1805
 20
18.5889
 11
20.1419
 21
18.4916
  0
LINE
  8
0
 10
20.1419
 20
18.4916
 11
20.0954
 21
18.3978
  0
LINE
  8
0
 10
20.0954
 20
18.3978
 11
20.0411
 21
18.3083
  0
LINE
  8
0
 10
20.0411
 20
18.3083
 11
19.9796
 21
18.2236
  0
LINE
  8
0
 10
19.9796
 20
18.2236
 11
19.9112
 21
18.1443
  0
LINE
  8
0
 10
19.9112
 20
18.1443
 11
19.8364
 21
18.0711
  0
LINE
  8
0
 10
19.8364
 20
18.0711
 11
19.7557
 21
18.0043
  0
LINE
  8
0
 10
19.7557
 20
18.0043
 11
19.6698
 21
17.9446
  0
LINE
  8
0
 10
19.6698
 20
17.9446
 11
19.5791
 21
17.8922
  0
LINE
  8
0
 10
19.5791
 20
17.8922
 11
19.4844
 21
17.8477
  0
LINE
  8
0
 10
19.4844
 20
17.8477
 11
19.3863
 21
17.8112
  0
LINE
  8
0
 10
19.3863
 20
17.8112
 11
19.2854
 21
17.783
  0
LINE
  8
0
 10
19.2854
 20
17.783
 11
19.1826
 21
17.7634
  0
LINE
  8
0
 10
19.1826
 20
17.7634
 11
19.0785
 21
17.7525
  0
LINE
  8
0
 10
19.0785
 20
17.7525
 11
18.9738
 21
17.7503
  0
LINE
  8
0
 10
18.9738
 20
17.7503
 11
18.8693
 21
17.7568
  0
LINE
  8
0
 10
-10
 20
-10
 11
-20
 21
-10
  0
LINE
  8
0
 10
-20
 20
-10
 11
-20
 21
-20
  0
LINE
  8
0
 10
-20
 20
-20
 11
-10
 21
-20
  0
LINE
  8
0
 10
-10
 20
-20
 11
-10
 21
-10
  0
LINE
  8
0
 10
192.954
 20
-104.824
 11
193.121
 21
-104.807
  0
LINE
  8
0
 10
193.121
 20
-104.807
 11
193.285
 21
-104.776
  0
LINE
  8
0
 10
193.285
 20
-104.776
 11
193.446
 21
-104.731
  0
LINE
  8
0
 10
193.446
 20
-104.731
 11
193.603
 21
-104.672
  0
LINE
  8
0
 10
193.603
 20
-104.672
 11
193.755
 21
-104.601
  0
LINE
  8
0
 10
193.755
 20
-104.601
 11
193.9
 21
-104.517
  0
LINE
  8
0
 10
193.9
 20
-104.517
 11
194.038
 21
-104.421
  0
LINE
  8
0
 10
194.038
 20
-104.421
 11
194.167
 21
-104.315
  0
LINE
  8
0
 10
194.167
 20
-104.315
 11
194.286
 21
-104.198
  0
LINE
  8
0
 10
194.286
 20
-104.198
 11
194.396
 21
-104.071
  0
LINE
  8
0
 10
194.396
 20
-104.071
 11
194.494
 21
-103.935
  0
LINE
  8
0
 10
194.494
 20
-103.935
 11
194.581
 21
-103.792
  0
LINE
  8
0
 10
194.581
 20
-103.792
 11
194.656
 21
-103.642
  0
LINE
  8
0
 10
194.656
 20
-103.642
 11
194.717
 21
-103.486
  0
LINE
  8
0
 10
194.717
 20
-103.486
 11
194.766
 21
-103.326
  0
LINE
  8
0
 10
194.766
 20
-103.326
 11
194.8
 21
-103.162
  0
LINE
  8
0
 10
194.8
 20
-103.162
 11
194.821
 21
-102.996
  0
LINE
  8
0
 10
194.821
 20
-102.996
 11
194.828
 21
-102.828
  0
LINE
  8
0
 10
194.828
 20
-102.828
 11
194.828
 21
-21.1716
  0
LINE
  8
0
 10
194.828
 20
-21.1716
 11
194.821
 21
-21.0042
  0
LINE
  8
0
 10
194.821
 20
-21.0042
 11
194.8
 21
-20.838
  0
LINE
  8
0
 10
194.8
 20
-20.838
 11
194.766
 21
-20.6742
  0
LINE
  8
0
 10
194.766
 20
-20.6742
 11
194.717
 21
-20.5138
  0
LINE
  8
0
 10
194.717
 20
-20.5138
 11
194.656
 21
-20.3581
  0
LINE
  8
0
 10
194.656
 20
-20.3581
 11
194.581
 21
-20.2081
  0
LINE
  8
0
 10
194.581
 20
-20.2081
 11
194.494
 21
-20.0648
  0
LINE
  8
0
 10
194.494
 20
-20.0648
 11
194.396
 21
-19.9293
  0
LINE
  8
0
 10
194.396
 20
-19.9293
 11
194.286
 21
-19.8025
  0
LINE
  8
0
 10
194.286
 20
-19.8025
 11
194.167
 21
-19.6853
  0
LINE
  8
0
 10
194.167
 20
-19.6853
 11
194.038
 21
-19.5785
  0
LINE
  8
0
 10
194.038
 20
-19.5785
 11
193.9
 21
-19.4829
  0
LINE
  8
0
 10
193.9
 20
-19.4829
 11
193.755
 21
-19.3992
  0
LINE
  8
0
 10
193.755
 20
-19.3992
 11
193.603
 21
-19.3279
  0
LINE
  8
0
 10
193.603
 20
-19.3279
 11
193.446
 21
-19.2695
  0
LINE
  8
0
 10
193.446
 20
-19.2695
 11
193.285
 21
-19.2244
  0
LINE
  8
0
 10
193.285
 20
-19.2244
 11
193.121
 21
-19.193
  0
LINE
  8
0
 10
193.121
 20
-19.193
 11
192.954
 21
-19.1755
  0
LINE
  8
0
 10
192.954
 20
-19.1755
 11
192.787
 21
-19.172
  0
LINE
  8
0
 10
192.787
 20
-19.172
 11
-2.8703
 21
-19.172
  0
LINE
  8
0
 10
-2.8703
 20
-19.172
 11
-3.03748
 21
-19.1825
  0
LINE
  8
0
 10
-3.03748
 20
-19.1825
 11
-3.20319
 21
-19.207
  0
LINE
  8
0
 10
-3.20319
 20
-19.207
 11
-3.36626
 21
-19.2453
  0
LINE
  8
0
 10
-3.36626
 20
-19.2453
 11
-3.52556
 21
-19.297
  0
LINE
  8
0
 10
-3.52556
 20
-19.297
 11
-3.67998
 21
-19.3619
  0
LINE
  8
0
 10
-3.67998
 20
-19.3619
 11
-3.82841
 21
-19.4395
  0
LINE
  8
0
 10
-3.82841
 20
-19.4395
 11
-3.96985
 21
-19.5293
  0
LINE
  8
0
 10
-3.96985
 20
-19.5293
 11
-4.10327
 21
-19.6306
  0
LINE
  8
0
 10
-4.10327
 20
-19.6306
 11
-4.22775
 21
-19.7426
  0
LINE
  8
0
 10
-4.22775
 20
-19.7426
 11
-4.34241
 21
-19.8647
  0
LINE
  8
0
 10
-4.34241
 20
-19.8647
 11
-4.44646
 21
-19.996
  0
LINE
  8
0
 10
-4.44646
 20
-19.996
 11
-4.53915
 21
-20.1355
  0
LINE
  8
0
 10
-4.53915
 20
-20.1355
 11
-4.61984
 21
-20.2823
  0
LINE
  8
0
 10
-4.61984
 20
-20.2823
 11
-4.68797
 21
-20.4353
  0
LINE
  8
0
 10
-4.68797
 20
-20.4353
 11
-4.74306
 21
-20.5935
  0
LINE
  8
0
 10
-4.74306
 20
-20.5935
 11
-4.78471
 21
-20.7558
  0
LINE
  8
0
 10
-4.78471
 20
-20.7558
 11
-4.81265
 21
-20.9209
  0
LINE
  8
0
 10
-4.81265
 20
-20.9209
 11
-4.82666
 21
-21.0878
  0
LINE
  8
0
 10
-4.82666
 20
-21.0878
 11
-4.82666
 21
-102.912
  0
LINE
  8
0
 10
-4.82666
 20
-102.912
 11
-4.81265
 21
-103.079
  0
LINE
  8
0
 10
-4.81265
 20
-103.079
 11
-4.78471
 21
-103.244
  0
LINE
  8
0
 10
-4.78471
 20
-103.244
 11
-4.74306
 21
-103.406
  0
LINE
  8
0
 10
-4.74306
 20
-103.406
 11
-4.68797
 21
-103.565
  0
LINE
  8
0
 10
-4.68797
 20
-103.565
 11
-4.61984
 21
-103.718
  0
LINE
  8
0
 10
-4.61984
 20
-103.718
 11
-4.53915
 21
-103.864
  0
LINE
  8
0
 10
-4.53915
 20
-103.864
 11
-4.44646
 21
-104.004
  0
LINE
  8
0
 10
-4.44646
 20
-104.004
 11
-4.34241
 21
-104.135
  0
LINE
  8
0
 10
-4.34241
 20
-104.135
 11
-4.22775
 21
-104.257
  0
LINE
  8
0
 10
-4.22775
 20
-104.257
 11
-4.10327
 21
-104.369
  0
LINE
  8
0
 10
-4.10327
 20
-104.369
 11
-3.96985
 21
-104.471
  0
LINE
  8
0
 10
-3.96985
 20
-104.471
 11
-3.82841
 21
-104.56
  0
LINE
  8
0
 10
-3.82841
 20
-104.56
 11
-3.67998
 21
-104.638
  0
LINE
  8
0
 10
-3.67998
 20
-104.638
 11
-3.52556
 21
-104.703
  0
LINE
  8
0
 10
-3.52556
 20
-104.703
 11
-3.36626
 21
-104.755
  0
LINE
  8
0
 10
-3.36626
 20
-104.755
 11
-3.20319
 21
-104.793
  0
LINE
  8
0
 10
-3.20319
 20
-104.793
 11
-3.03748
 21
-104.817
  0
LINE
  8
0
 10
-3.03748
 20
-104.817
 11
-2.8703
 21
-104.828
  0
LINE
  8
0
 10
-2.8703
 20
-104.828
 11
192.787
 21
-104.828
  0
LINE
  8
0
 10
192.787
 20
-104.828
 11
192.954
 21
-104.824
  0
LINE
  8
0
 10
-3.99998
 20
-44.7
 11
-4
 21
-24
  0
LINE
  8
0
 10
-4
 20
-24
 11
6.2
 21
-24
  0
LINE
  8
0
 10
6.2
 20
-24
 11
6.2
 21
-44.7
  0
LINE
  8
0
 10
6.2
 20
-44.7
 11
-3.99998
 21
-44.7
  0
LINE
  8
0
 10
18.8693
 20
-44.2432
 11
18.7658
 21
-44.2279
  0
LINE
  8
0
 10
18.7658
 20
-44.2279
 11
18.6638
 21
-44.204
  0
LINE
  8
0
 10
18.6638
 20
-44.204
 11
18.5643
 21
-44.1716
  0
LINE
  8
0
 10
18.5643
 20
-44.1716
 11
18.4678
 21
-44.131
  0
LINE
  8
0
 10
18.4678
 20
-44.131
 11
18.375
 21
-44.0825
  0
LINE
  8
0
 10
18.375
 20
-44.0825
 11
18.2866
 21
-44.0264
  0
LINE
  8
0
 10
18.2866
 20
-44.0264
 11
18.2032
 21
-43.9632
  0
LINE
  8
0
 10
18.2032
 20
-43.9632
 11
18.1254
 21
-43.8931
  0
LINE
  8
0
 10
18.1254
 20
-43.8931
 11
18.0537
 21
-43.8168
  0
LINE
  8
0
 10
18.0537
 20
-43.8168
 11
17.9887
 21
-43.7347
  0
LINE
  8
0
 10
17.9887
 20
-43.7347
 11
17.9308
 21
-43.6475
  0
LINE
  8
0
 10
17.9308
 20
-43.6475
 11
17.8804
 21
-43.5558
  0
LINE
  8
0
 10
17.8804
 20
-43.5558
 11
17.8378
 21
-43.4602
  0
LINE
  8
0
 10
17.8378
 20
-43.4602
 11
17.8033
 21
-43.3613
  0
LINE
  8
0
 10
17.8033
 20
-43.3613
 11
17.7773
 21
-43.2599
  0
LINE
  8
0
 10
17.7773
 20
-43.2599
 11
17.7598
 21
-43.1567
  0
LINE
  8
0
 10
17.7598
 20
-43.1567
 11
17.7511
 21
-43.0524
  0
LINE
  8
0
 10
17.7511
 20
-43.0524
 11
17.7511
 21
-42.9477
  0
LINE
  8
0
 10
17.7511
 20
-42.9477
 11
17.7598
 21
-42.8433
  0
LINE
  8
0
 10
17.7598
 20
-42.8433
 11
17.7773
 21
-42.7401
  0
LINE
  8
0
 10
17.7773
 20
-42.7401
 11
17.8033
 21
-42.6387
  0
LINE
  8
0
 10
17.8033
 20
-42.6387
 11
17.8378
 21
-42.5399
  0
LINE
  8
0
 10
17.8378
 20
-42.5399
 11
17.8804
 21
-42.4442
  0
LINE
  8
0
 10
17.8804
 20
-42.4442
 11
17.9308
 21
-42.3525
  0
LINE
  8
0
 10
17.9308
 20
-42.3525
 11
17.9887
 21
-42.2653
  0
LINE
  8
0
 10
17.9887
 20
-42.2653
 11
18.0537
 21
-42.1832
  0
LINE
  8
0
 10
18.0537
 20
-42.1832
 11
18.1254
 21
-42.1069
  0
LINE
  8
0
 10
18.1254
 20
-42.1069
 11
18.2032
 21
-42.0369
  0
LINE
  8
0
 10
18.2032
 20
-42.0369
 11
18.2866
 21
-41.9736
  0
LINE
  8
0
 10
18.2866
 20
-41.9736
 11
18.375
 21
-41.9175
  0
LINE
  8
0
 10
18.375
 20
-41.9175
 11
18.4678
 21
-41.869
  0
LINE
  8
0
 10
18.4678
 20
-41.869
 11
18.5643
 21
-41.8284
  0
LINE
  8
0
 10
18.5643
 20
-41.8284
 11
18.6638
 21
-41.7961
  0
LINE
  8
0
 10
18.6638
 20
-41.7961
 11
18.7658
 21
-41.7722
  0
LINE
  8
0
 10
18.7658
 20
-41.7722
 11
18.8693
 21
-41.7569
  0
LINE
  8
0
 10
18.8693
 20
-41.7569
 11
18.9738
 21
-41.7503
  0
LINE
  8
0
 10
18.9738
 20
-41.7503
 11
19.0785
 21
-41.7525
  0
LINE
  8
0
 10
19.0785
 20
-41.7525
 11
19.1826
 21
-41.7634
  0
LINE
  8
0
 10
19.1826
 20
-41.7634
 11
19.2854
 21
-41.783
  0
LINE
  8
0
 10
19.2854
 20
-41.783
 11
19.3863
 21
-41.8112
  0
LINE
  8
0
 10
19.3863
 20
-41.8112
 11
19.4844
 21
-41.8477
  0
LINE
  8
0
 10
19.4844
 20
-41.8477
 11
19.5791
 21
-41.8923
  0
LINE
  8
0
 10
19.5791
 20
-41.8923
 11
19.6698
 21
-41.9446
  0
LINE
  8
0
 10
19.6698
 20
-41.9446
 11
19.7557
 21
-42.0043
  0
LINE
  8
0
 10
19.7557
 20
-42.0043
 11
19.8364
 21
-42.0711
  0
LINE
  8
0
 10
19.8364
 20
-42.0711
 11
19.9112
 21
-42.1443
  0
LINE
  8
0
 10
19.9112
 20
-42.1443
 11
19.9796
 21
-42.2236
  0
LINE
  8
0
 10
19.9796
 20
-42.2236
 11
20.0411
 21
-42.3083
  0
LINE
  8
0
 10
20.0411
 20
-42.3083
 11
20.0954
 21
-42.3978
  0
LINE
  8
0
 10
20.0954
 20
-42.3978
 11
20.1419
 21
-42.4916
  0
LINE
  8
0
 10
20.1419
 20
-42.4916
 11
20.1805
 21
-42.5889
  0
LINE
  8
0
 10
20.1805
 20
-42.5889
 11
20.2107
 21
-42.6891
  0
LINE
  8
0
 10
20.2107
 20
-42.6891
 11
20.2325
 21
-42.7915
  0
LINE
  8
0
 10
20.2325
 20
-42.7915
 11
20.2456
 21
-42.8954
  0
LINE
  8
0
 10
20.2456
 20
-42.8954
 11
20.25
 21
-43
  0
LINE
  8
0
 10
20.25
 20
-43
 11
20.2456
 21
-43.1046
  0
LINE
  8
0
 10
20.2456
 20
-43.1046
 11
20.2325
 21
-43.2085
  0
LINE
  8
0
 10
20.2325
 20
-43.2085
 11
20.2107
 21
-43.3109
  0
LINE
  8
0
 10
20.2107
 20
-43.3109
 11
20.1805
 21
-43.4111
  0
LINE
  8
0
 10
20.1805
 20
-43.4111
 11
20.1419
 21
-43.5084
  0
LINE
  8
0
 10
20.1419
 20
-43.5084
 11
20.0954
 21
-43.6022
  0
LINE
  8
0
 10
20.0954
 20
-43.6022
 11
20.0411
 21
-43.6917
  0
LINE
  8
0
 10
20.0411
 20
-43.6917
 11
19.9796
 21
-43.7764
  0
LINE
  8
0
 10
19.9796
 20
-43.7764
 11
19.9112
 21
-43.8557
  0
LINE
  8
0
 10
19.9112
 20
-43.8557
 11
19.8364
 21
-43.9289
  0
LINE
  8
0
 10
19.8364
 20
-43.9289
 11
19.7557
 21
-43.9957
  0
LINE
  8
0
 10
19.7557
 20
-43.9957
 11
19.6698
 21
-44.0554
  0
LINE
  8
0
 10
19.6698
 20
-44.0554
 11
19.5791
 21
-44.1078
  0
LINE
  8
0
 10
19.5791
 20
-44.1078
 11
19.4844
 21
-44.1523
  0
LINE
  8
0
 10
19.4844
 20
-44.1523
 11
19.3863
 21
-44.1888
  0
LINE
  8
0
 10
19.3863
 20
-44.1888
 11
19.2854
 21
-44.217
  0
LINE
  8
0
 10
19.2854
 20
-44.217
 11
19.1826
 21
-44.2366
  0
LINE
  8
0
 10
19.1826
 20
-44.2366
 11
19.0785
 21
-44.2475
  0
LINE
  8
0
 10
19.0785
 20
-44.2475
 11
18.9738
 21
-44.2497
  0
LINE
  8
0
 10
18.9738
 20
-44.2497
 11
18.8693
 21
-44.2432
  0
LINE
  8
0
 10
170.869
 20
-44.2432
 11
170.766
 21
-44.2279
  0
LINE
  8
0
 10
170.766
 20
-44.2279
 11
170.664
 21
-44.204
  0
LINE
  8
0
 10
170.664
 20
-44.204
 11
170.564
 21
-44.1716
  0
LINE
  8
0
 10
170.564
 20
-44.1716
 11
170.468
 21
-44.131
  0
LINE
  8
0
 10
170.468
 20
-44.131
 11
170.375
 21
-44.0825
  0
LINE
  8
0
 10
170.375
 20
-44.0825
 11
170.287
 21
-44.0264
  0
LINE
  8
0
 10
170.287
 20
-44.0264
 11
170.203
 21
-43.9632
  0
LINE
  8
0
 10
170.203
 20
-43.9632
 11
170.125
 21
-43.8931
  0
LINE
  8
0
 10
170.125
 20
-43.8931
 11
170.054
 21
-43.8168
  0
LINE
  8
0
 10
170.054
 20
-43.8168
 11
169.989
 21
-43.7347
  0
LINE
  8
0
 10
169.989
 20
-43.7347
 11
169.931
 21
-43.6475
  0
LINE
  8
0
 10
169.931
 20
-43.6475
 11
169.88
 21
-43.5558
  0
LINE
  8
0
 10
169.88
 20
-43.5558
 11
169.838
 21
-43.4602
  0
LINE
  8
0
 10
169.838
 20
-43.4602
 11
169.803
 21
-43.3613
  0
LINE
  8
0
 10
169.803
 20
-43.3613
 11
169.777
 21
-43.2599
  0
LINE
  8
0
 10
169.777
 20
-43.2599
 11
169.76
 21
-43.1567
  0
LINE
  8
0
 10
169.76
 20
-43.1567
 11
169.751
 21
-43.0524
  0
LINE
  8
0
 10
169.751
 20
-43.0524
 11
169.751
 21
-42.9477
  0
LINE
  8
0
 10
169.751
 20
-42.9477
 11
169.76
 21
-42.8433
  0
LINE
  8
0
 10
169.76
 20
-42.8433
 11
169.777
 21
-42.7401
  0
LINE
  8
0
 10
169.777
 20
-42.7401
 11
169.803
 21
-42.6387
  0
LINE
  8
0
 10
169.803
 20
-42.6387
 11
169.838
 21
-42.5399
  0
LINE
  8
0
 10
169.838
 20
-42.5399
 11
169.88
 21
-42.4442
  0
LINE
  8
0
 10
169.88
 20
-42.4442
 11
169.931
 21
-42.3525
  0
LINE
  8
0
 10
169.931
 20
-42.3525
 11
169.989
 21
-42.2653
  0
LINE
  8
0
 10
169.989
 20
-42.2653
 11
170.054
 21
-42.1832
  0
LINE
  8
0
 10
170.054
 20
-42.1832
 11
170.125
 21
-42.1069
  0
LINE
  8
0
 10
170.125
 20
-42.1069
 11
170.203
 21
-42.0369
  0
LINE
  8
0
 10
170.203
 20
-42.0369
 11
170.287
 21
-41.9736
  0
LINE
  8
0
 10
170.287
 20
-41.9736
 11
170.375
 21
-41.9175
  0
LINE
  8
0
 10
170.375
 20
-41.9175
 11
170.468
 21
-41.869
  0
LINE
  8
0
 10
170.468
 20
-41.869
 11
170.564
 21
-41.8284
  0
LINE
  8
0
 10
170.564
 20
-41.8284
 11
170.664
 21
-41.7961
  0
LINE
  8
0
 10
170.664
 20
-41.7961
 11
170.766
 21
-41.7722
  0
LINE
  8
0
 10
170.766
 20
-41.7722
 11
170.869
 21
-41.7569
  0
LINE
  8
0
 10
170.869
 20
-41.7569
 11
170.974
 21
-41.7503
  0
LINE
  8
0
 10
170.974
 20
-41.7503
 11
171.078
 21
-41.7525
  0
LINE
  8
0
 10
171.078
 20
-41.7525
 11
171.183
 21
-41.7634
  0
LINE
  8
0
 10
171.183
 20
-41.7634
 11
171.285
 21
-41.783
  0
LINE
  8
0
 10
171.285
 20
-41.783
 11
171.386
 21
-41.8112
  0
LINE
  8
0
 10
171.386
 20
-41.8112
 11
171.484
 21
-41.8477
  0
LINE
  8
0
 10
171.484
 20
-41.8477
 11
171.579
 21
-41.8923
  0
LINE
  8
0
 10
171.579
 20
-41.8923
 11
171.67
 21
-41.9446
  0
LINE
  8
0
 10
171.67
 20
-41.9446
 11
171.756
 21
-42.0043
  0
LINE
  8
0
 10
171.756
 20
-42.0043
 11
171.836
 21
-42.0711
  0
LINE
  8
0
 10
171.836
 20
-42.0711
 11
171.911
 21
-42.1443
  0
LINE
  8
0
 10
171.911
 20
-42.1443
 11
171.98
 21
-42.2236
  0
LINE
  8
0
 10
171.98
 20
-42.2236
 11
172.041
 21
-42.3083
  0
LINE
  8
0
 10
172.041
 20
-42.3083
 11
172.095
 21
-42.3978
  0
LINE
  8
0
 10
172.095
 20
-42.3978
 11
172.142
 21
-42.4916
  0
LINE
  8
0
 10
172.142
 20
-42.4916
 11
172.18
 21
-42.5889
  0
LINE
  8
0
 10
172.18
 20
-42.5889
 11
172.211
 21
-42.6891
  0
LINE
  8
0
 10
172.211
 20
-42.6891
 11
172.232
 21
-42.7915
  0
LINE
  8
0
 10
172.232
 20
-42.7915
 11
172.246
 21
-42.8954
  0
LINE
  8
0
 10
172.246
 20
-42.8954
 11
172.25
 21
-43
  0
LINE
  8
0
 10
172.25
 20
-43
 11
172.246
 21
-43.1046
  0
LINE
  8
0
 10
172.246
 20
-43.1046
 11
172.232
 21
-43.2085
  0
LINE
  8
0
 10
172.232
 20
-43.2085
 11
172.211
 21
-43.3109
  0
LINE
  8
0
 10
172.211
 20
-43.3109
 11
172.18
 21
-43.4111
  0
LINE
  8
0
 10
172.18
 20
-43.4111
 11
172.142
 21
-43.5084
  0
LINE
  8
0
 10
172.142
 20
-43.5084
 11
172.095
 21
-43.6022
  0
LINE
  8
0
 10
172.095
 20
-43.6022
 11
172.041
 21
-43.6917
  0
LINE
  8
0
 10
172.041
 20
-43.6917
 11
171.98
 21
-43.7764
  0
LINE
  8
0
 10
171.98
 20
-43.7764
 11
171.911
 21
-43.8557
  0
LINE
  8
0
 10
171.911
 20
-43.8557
 11
171.836
 21
-43.9289
  0
LINE
  8
0
 10
171.836
 20
-43.9289
 11
171.756
 21
-43.9957
  0
LINE
  8
0
 10
171.756
 20
-43.9957
 11
171.67
 21
-44.0554
  0
LINE
  8
0
 10
171.67
 20
-44.0554
 11
171.579
 21
-44.1078
  0
LINE
  8
0
 10
171.579
 20
-44.1078
 11
171.484
 21
-44.1523
  0
LINE
  8
0
 10
171.484
 20
-44.1523
 11
171.386
 21
-44.1888
  0
LINE
  8
0
 10
171.386
 20
-44.1888
 11
171.285
 21
-44.217
  0
LINE
  8
0
 10
171.285
 20
-44.217
 11
171.183
 21
-44.2366
  0
LINE
  8
0
 10
171.183
 20
-44.2366
 11
171.078
 21
-44.2475
  0
LINE
  8
0
 10
171.078
 20
-44.2475
 11
170.974
 21
-44.2497
  0
LINE
  8
0
 10
170.974
 20
-44.2497
 11
170.869
 21
-44.2432
  0
LINE
  8
0
 10
94.8693
 20
-63.2432
 11
94.7658
 21
-63.2279
  0
LINE
  8
0
 10
94.7658
 20
-63.2279
 11
94.6638
 21
-63.204
  0
LINE
  8
0
 10
94.6638
 20
-63.204
 11
94.5643
 21
-63.1716
  0
LINE
  8
0
 10
94.5643
 20
-63.1716
 11
94.4678
 21
-63.131
  0
LINE
  8
0
 10
94.4678
 20
-63.131
 11
94.375
 21
-63.0825
  0
LINE
  8
0
 10
94.375
 20
-63.0825
 11
94.2866
 21
-63.0264
  0
LINE
  8
0
 10
94.2866
 20
-63.0264
 11
94.2032
 21
-62.9632
  0
LINE
  8
0
 10
94.2032
 20
-62.9632
 11
94.1254
 21
-62.8931
  0
LINE
  8
0
 10
94.1254
 20
-62.8931
 11
94.0537
 21
-62.8168
  0
LINE
  8
0
 10
94.0537
 20
-62.8168
 11
93.9887
 21
-62.7347
  0
LINE
  8
0
 10
93.9887
 20
-62.7347
 11
93.9308
 21
-62.6475
  0
LINE
  8
0
 10
93.9308
 20
-62.6475
 11
93.8804
 21
-62.5558
  0
LINE
  8
0
 10
93.8804
 20
-62.5558
 11
93.8378
 21
-62.4602
  0
LINE
  8
0
 10
93.8378
 20
-62.4602
 11
93.8033
 21
-62.3613
  0
LINE
  8
0
 10
93.8033
 20
-62.3613
 11
93.7773
 21
-62.2599
  0
LINE
  8
0
 10
93.7773
 20
-62.2599
 11
93.7598
 21
-62.1567
  0
LINE
  8
0
 10
93.7598
 20
-62.1567
 11
93.7511
 21
-62.0524
  0
LINE
  8
0
 10
93.7511
 20
-62.0524
 11
93.7511
 21
-61.9477
  0
LINE
  8
0
 10
93.7511
 20
-61.9477
 11
93.7598
 21
-61.8433
  0
LINE
  8
0
 10
93.7598
 20
-61.8433
 11
93.7773
 21
-61.7401
  0
LINE
  8
0
 10
93.7773
 20
-61.7401
 11
93.8033
 21
-61.6387
  0
LINE
  8
0
 10
93.8033
 20
-61.6387
 11
93.8378
 21
-61.5399
  0
LINE
  8
0
 10
93.8378
 20
-61.5399
 11
93.8804
 21
-61.4442
  0
LINE
  8
0
 10
93.8804
 20
-61.4442
 11
93.9308
 21
-61.3525
  0
LINE
  8
0
 10
93.9308
 20
-61.3525
 11
93.9887
 21
-61.2653
  0
LINE
  8
0
 10
93.9887
 20
-61.2653
 11
94.0537
 21
-61.1832
  0
LINE
  8
0
 10
94.0537
 20
-61.1832
 11
94.1254
 21
-61.1069
  0
LINE
  8
0
 10
94.1254
 20
-61.1069
 11
94.2032
 21
-61.0369
  0
LINE
  8
0
 10
94.2032
 20
-61.0369
 11
94.2866
 21
-60.9736
  0
LINE
  8
0
 10
94.2866
 20
-60.9736
 11
94.375
 21
-60.9175
  0
LINE
  8
0
 10
94.375
 20
-60.9175
 11
94.4678
 21
-60.869
  0
LINE
  8
0
 10
94.4678
 20
-60.869
 11
94.5643
 21
-60.8284
  0
LINE
  8
0
 10
94.5643
 20
-60.8284
 11
94.6638
 21
-60.7961
  0
LINE
  8
0
 10
94.6638
 20
-60.7961
 11
94.7658
 21
-60.7722
  0
LINE
  8
0
 10
94.7658
 20
-60.7722
 11
94.8693
 21
-60.7569
  0
LINE
  8
0
 10
94.8693
 20
-60.7569
 11
94.9738
 21
-60.7503
  0
LINE
  8
0
 10
94.9738
 20
-60.7503
 11
95.0785
 21
-60.7525
  0
LINE
  8
0
 10
95.0785
 20
-60.7525
 11
95.1826
 21
-60.7634
  0
LINE
  8
0
 10
95.1826
 20
-60.7634
 11
95.2854
 21
-60.783
  0
LINE
  8
0
 10
95.2854
 20
-60.783
 11
95.3863
 21
-60.8112
  0
LINE
  8
0
 10
95.3863
 20
-60.8112
 11
95.4844
 21
-60.8477
  0
LINE
  8
0
 10
95.4844
 20
-60.8477
 11
95.5791
 21
-60.8923
  0
LINE
  8
0
 10
95.5791
 20
-60.8923
 11
95.6698
 21
-60.9446
  0
LINE
  8
0
 10
95.6698
 20
-60.9446
 11
95.7557
 21
-61.0043
  0
LINE
  8
0
 10
95.7557
 20
-61.0043
 11
95.8364
 21
-61.0711
  0
LINE
  8
0
 10
95.8364
 20
-61.0711
 11
95.9112
 21
-61.1443
  0
LINE
  8
0
 10
95.9112
 20
-61.1443
 11
95.9796
 21
-61.2236
  0
LINE
  8
0
 10
95.9796
 20
-61.2236
 11
96.0411
 21
-61.3083
  0
LINE
  8
0
 10
96.0411
 20
-61.3083
 11
96.0954
 21
-61.3978
  0
LINE
  8
0
 10
96.0954
 20
-61.3978
 11
96.1419
 21
-61.4916
  0
LINE
  8
0
 10
96.1419
 20
-61.4916
 11
96.1805
 21
-61.5889
  0
LINE
  8
0
 10
96.1805
 20
-61.5889
 11
96.2107
 21
-61.6891
  0
LINE
  8
0
 10
96.2107
 20
-61.6891
 11
96.2325
 21
-61.7915
  0
LINE
  8
0
 10
96.2325
 20
-61.7915
 11
96.2456
 21
-61.8954
  0
LINE
  8
0
 10
96.2456
 20
-61.8954
 11
96.25
 21
-62
  0
LINE
  8
0
 10
96.25
 20
-62
 11
96.2456
 21
-62.1046
  0
LINE
  8
0
 10
96.2456
 20
-62.1046
 11
96.2325
 21
-62.2085
  0
LINE
  8
0
 10
96.2325
 20
-62.2085
 11
96.2107
 21
-62.3109
  0
LINE
  8
0
 10
96.2107
 20
-62.3109
 11
96.1805
 21
-62.4111
  0
LINE
  8
0
 10
96.1805
 20
-62.4111
 11
96.1419
 21
-62.5084
  0
LINE
  8
0
 10
96.1419
 20
-62.5084
 11
96.0954
 21
-62.6022
  0
LINE
  8
0
 10
96.0954
 20
-62.6022
 11
96.0411
 21
-62.6917
  0
LINE
  8
0
 10
96.0411
 20
-62.6917
 11
95.9796
 21
-62.7764
  0
LINE
  8
0
 10
95.9796
 20
-62.7764
 11
95.9112
 21
-62.8557
  0
LINE
  8
0
 10
95.9112
 20
-62.8557
 11
95.8364
 21
-62.9289
  0
LINE
  8
0
 10
95.8364
 20
-62.9289
 11
95.7557
 21
-62.9957
  0
LINE
  8
0
 10
95.7557
 20
-62.9957
 11
95.6698
 21
-63.0554
  0
LINE
  8
0
 10
95.6698
 20
-63.0554
 11
95.5791
 21
-63.1078
  0
LINE
  8
0
 10
95.5791
 20
-63.1078
 11
95.4844
 21
-63.1523
  0
LINE
  8
0
 10
95.4844
 20
-63.1523
 11
95.3863
 21
-63.1888
  0
LINE
  8
0
 10
95.3863
 20
-63.1888
 11
95.2854
 21
-63.217
  0
LINE
  8
0
 10
95.2854
 20
-63.217
 11
95.1826
 21
-63.2366
  0
LINE
  8
0
 10
95.1826
 20
-63.2366
 11
95.0785
 21
-63.2475
  0
LINE
  8
0
 10
95.0785
 20
-63.2475
 11
94.9738
 21
-63.2497
  0
LINE
  8
0
 10
94.9738
 20
-63.2497
 11
94.8693
 21
-63.2432
  0
LINE
  8
0
 10
18.8693
 20
-82.2432
 11
18.7658
 21
-82.2279
  0
LINE
  8
0
 10
18.7658
 20
-82.2279
 11
18.6638
 21
-82.204
  0
LINE
  8
0
 10
18.6638
 20
-82.204
 11
18.5643
 21
-82.1716
  0
LINE
  8
0
 10
18.5643
 20
-82.1716
 11
18.4678
 21
-82.131
  0
LINE
  8
0
 10
18.4678
 20
-82.131
 11
18.375
 21
-82.0825
  0
LINE
  8
0
 10
18.375
 20
-82.0825
 11
18.2866
 21
-82.0264
  0
LINE
  8
0
 10
18.2866
 20
-82.0264
 11
18.2032
 21
-81.9632
  0
LINE
  8
0
 10
18.2032
 20
-81.9632
 11
18.1254
 21
-81.8931
  0
LINE
  8
0
 10
18.1254
 20
-81.8931
 11
18.0537
 21
-81.8168
  0
LINE
  8
0
 10
18.0537
 20
-81.8168
 11
17.9887
 21
-81.7347
  0
LINE
  8
0
 10
17.9887
 20
-81.7347
 11
17.9308
 21
-81.6475
  0
LINE
  8
0
 10
17.9308
 20
-81.6475
 11
17.8804
 21
-81.5558
  0
LINE
  8
0
 10
17.8804
 20
-81.5558
 11
17.8378
 21
-81.4602
  0
LINE
  8
0
 10
17.8378
 20
-81.4602
 11
17.8033
 21
-81.3613
  0
LINE
  8
0
 10
17.8033
 20
-81.3613
 11
17.7773
 21
-81.2599
  0
LINE
  8
0
 10
17.7773
 20
-81.2599
 11
17.7598
 21
-81.1567
  0
LINE
  8
0
 10
17.7598
 20
-81.1567
 11
17.7511
 21
-81.0524
  0
LINE
  8
0
 10
17.7511
 20
-81.0524
 11
17.7511
 21
-80.9477
  0
LINE
  8
0
 10
17.7511
 20
-80.9477
 11
17.7598
 21
-80.8433
  0
LINE
  8
0
 10
17.7598
 20
-80.8433
 11
17.7773
 21
-80.7401
  0
LINE
  8
0
 10
17.7773
 20
-80.7401
 11
17.8033
 21
-80.6387
  0
LINE
  8
0
 10
17.8033
 20
-80.6387
 11
17.8378
 21
-80.5399
  0
LINE
  8
0
 10
17.8378
 20
-80.5399
 11
17.8804
 21
-80.4442
  0
LINE
  8
0
 10
17.8804
 20
-80.4442
 11
17.9308
 21
-80.3525
  0
LINE
  8
0
 10
17.9308
 20
-80.3525
 11
17.9887
 21
-80.2653
  0
LINE
  8
0
 10
17.9887
 20
-80.2653
 11
18.0537
 21
-80.1832
  0
LINE
  8
0
 10
18.0537
 20
-80.1832
 11
18.1254
 21
-80.1069
  0
LINE
  8
0
 10
18.1254
 20
-80.1069
 11
18.2032
 21
-80.0369
  0
LINE
  8
0
 10
18.2032
 20
-80.0369
 11
18.2866
 21
-79.9736
  0
LINE
  8
0
 10
18.2866
 20
-79.9736
 11
18.375
 21
-79.9175
  0
LINE
  8
0
 10
18.375
 20
-79.9175
 11
18.4678
 21
-79.869
  0
LINE
  8
0
 10
18.4678
 20
-79.869
 11
18.5643
 21
-79.8284
  0
LINE
  8
0
 10
18.5643
 20
-79.8284
 11
18.6638
 21
-79.7961
  0
LINE
  8
0
 10
18.6638
 20
-79.7961
 11
18.7658
 21
-79.7722
  0
LINE
  8
0
 10
18.7658
 20
-79.7722
 11
18.8693
 21
-79.7569
  0
LINE
  8
0
 10
18.8693
 20
-79.7569
 11
18.9738
 21
-79.7503
  0
LINE
  8
0
 10
18.9738
 20
-79.7503
 11
19.0785
 21
-79.7525
  0
LINE
  8
0
 10
19.0785
 20
-79.7525
 11
19.1826
 21
-79.7634
  0
LINE
  8
0
 10
19.1826
 20
-79.7634
 11
19.2854
 21
-79.783
  0
LINE
  8
0
 10
19.2854
 20
-79.783
 11
19.3863
 21
-79.8112
  0
LINE
  8
0
 10
19.3863
 20
-79.8112
 11
19.4844
 21
-79.8477
  0
LINE
  8
0
 10
19.4844
 20
-79.8477
 11
19.5791
 21
-79.8923
  0
LINE
  8
0
 10
19.5791
 20
-79.8923
 11
19.6698
 21
-79.9446
  0
LINE
  8
0
 10
19.6698
 20
-79.9446
 11
19.7557
 21
-80.0043
  0
LINE
  8
0
 10
19.7557
 20
-80.0043
 11
19.8364
 21
-80.0711
  0
LINE
  8
0
 10
19.8364
 20
-80.0711
 11
19.9112
 21
-80.1443
  0
LINE
  8
0
 10
19.9112
 20
-80.1443
 11
19.9796
 21
-80.2236
  0
LINE
  8
0
 10
19.9796
 20
-80.2236
 11
20.0411
 21
-80.3083
  0
LINE
  8
0
 10
20.0411
 20
-80.3083
 11
20.0954
 21
-80.3978
  0
LINE
  8
0
 10
20.0954
 20
-80.3978
 11
20.1419
 21
-80.4916
  0
LINE
  8
0
 10
20.1419
 20
-80.4916
 11
20.1805
 21
-80.5889
  0
LINE
  8
0
 10
20.1805
 20
-80.5889
 11
20.2107
 21
-80.6891
  0
LINE
  8
0
 10
20.2107
 20
-80.6891
 11
20.2325
 21
-80.7915
  0
LINE
  8
0
 10
20.2325
 20
-80.7915
 11
20.2456
 21
-80.8954
  0
LINE
  8
0
 10
20.2456
 20
-80.8954
 11
20.25
 21
-81
  0
LINE
  8
0
 10
20.25
 20
-81
 11
20.2456
 21
-81.1046
  0
LINE
  8
0
 10
20.2456
 20
-81.1046
 11
20.2325
 21
-81.2085
  0
LINE
  8
0
 10
20.2325
 20
-81.2085
 11
20.2107
 21
-81.3109
  0
LINE
  8
0
 10
20.2107
 20
-81.3109
 11
20.1805
 21
-81.4111
  0
LINE
  8
0
 10
20.1805
 20
-81.4111
 11
20.1419
 21
-81.5084
  0
LINE
  8
0
 10
20.1419
 20
-81.5084
 11
20.0954
 21
-81.6022
  0
LINE
  8
0
 10
20.0954
 20
-81.6022
 11
20.0411
 21
-81.6917
  0
LINE
  8
0
 10
20.0411
 20
-81.6917
 11
19.9796
 21
-81.7764
  0
LINE
  8
0
 10
19.9796
 20
-81.7764
 11
19.9112
 21
-81.8557
  0
LINE
  8
0
 10
19.9112
 20
-81.8557
 11
19.8364
 21
-81.9289
  0
LINE
  8
0
 10
19.8364
 20
-81.9289
 11
19.7557
 21
-81.9957
  0
LINE
  8
0
 10
19.7557
 20
-81.9957
 11
19.6698
 21
-82.0554
  0
LINE
  8
0
 10
19.6698
 20
-82.0554
 11
19.5791
 21
-82.1078
  0
LINE
  8
0
 10
19.5791
 20
-82.1078
 11
19.4844
 21
-82.1523
  0
LINE
  8
0
 10
19.4844
 20
-82.1523
 11
19.3863
 21
-82.1888
  0
LINE
  8
0
 10
19.3863
 20
-82.1888
 11
19.2854
 21
-82.217
  0
LINE
  8
0
 10
19.2854
 20
-82.217
 11
19.1826
 21
-82.2366
  0
LINE
  8
0
 10
19.1826
 20
-82.2366
 11
19.0785
 21
-82.2475
  0
LINE
  8
0
 10
19.0785
 20
-82.2475
 11
18.9738
 21
-82.2497
  0
LINE
  8
0
 10
18.9738
 20
-82.2497
 11
18.8693
 21
-82.2432
  0
LINE
  8
0
 10
170.869
 20
-82.2432
 11
170.766
 21
-82.2279
  0
LINE
  8
0
 10
170.766
 20
-82.2279
 11
170.664
 21
-82.204
  0
LINE
  8
0
 10
170.664
 20
-82.204
 11
170.564
 21
-82.1716
  0
LINE
  8
0
 10
170.564
 20
-82.1716
 11
170.468
 21
-82.131
  0
LINE
  8
0
 10
170.468
 20
-82.131
 11
170.375
 21
-82.0825
  0
LINE
  8
0
 10
170.375
 20
-82.0825
 11
170.287
 21
-82.0264
  0
LINE
  8
0
 10
170.287
 20
-82.0264
 11
170.203
 21
-81.9632
  0
LINE
  8
0
 10
170.203
 20
-81.9632
 11
170.125
 21
-81.8931
  0
LINE
  8
0
 10
170.125
 20
-81.8931
 11
170.054
 21
-81.8168
  0
LINE
  8
0
 10
170.054
 20
-81.8168
 11
169.989
 21
-81.7347
  0
LINE
  8
0
 10
169.989
 20
-81.7347
 11
169.931
 21
-81.6475
  0
LINE
  8
0
 10
169.931
 20
-81.6475
 11
169.88
 21
-81.5558
  0
LINE
  8
0
 10
169.88
 20
-81.5558
 11
169.838
 21
-81.4602
  0
LINE
  8
0
 10
169.838
 20
-81.4602
 11
169.803
 21
-81.3613
  0
LINE
  8
0
 10
169.803
 20
-81.3613
 11
169.777
 21
-81.2599
  0
LINE
  8
0
 10
169.777
 20
-81.2599
 11
169.76
 21
-81.1567
  0
LINE
  8
0
 10
169.76
 20
-81.1567
 11
169.751
 21
-81.0524
  0
LINE
  8
0
 10
169.751
 20
-81.0524
 11
169.751
 21
-80.9477
  0
LINE
  8
0
 10
169.751
 20
-80.9477
 11
169.76
 21
-80.8433
  0
LINE
  8
0
 10
169.76
 20
-80.8433
 11
169.777
 21
-80.7401
  0
LINE
  8
0
 10
169.777
 20
-80.7401
 11
169.803
 21
-80.6387
  0
LINE
  8
0
 10
169.803
 20
-80.6387
 11
169.838
 21
-80.5399
  0
LINE
  8
0
 10
169.838
 20
-80.5399
 11
169.88
 21
-80.4442
  0
LINE
  8
0
 10
169.88
 20
-80.4442
 11
169.931
 21
-80.3525
  0
LINE
  8
0
 10
169.931
 20
-80.3525
 11
169.989
 21
-80.2653
  0
LINE
  8
0
 10
169.989
 20
-80.2653
 11
170.054
 21
-80.1832
  0
LINE
  8
0
 10
170.054
 20
-80.1832
 11
170.125
 21
-80.1069
  0
LINE
  8
0
 10
170.125
 20
-80.1069
 11
170.203
 21
-80.0369
  0
LINE
  8
0
 10
170.203
 20
-80.0369
 11
170.287
 21
-79.9736
  0
LINE
  8
0
 10
170.287
 20
-79.9736
 11
170.375
 21
-79.9175
  0
LINE
  8
0
 10
170.375
 20
-79.9175
 11
170.468
 21
-79.869
  0
LINE
  8
0
 10
170.468
 20
-79.869
 11
170.564
 21
-79.8284
  0
LINE
  8
0
 10
170.564
 20
-79.8284
 11
170.664
 21
-79.7961
  0
LINE
  8
0
 10
170.664
 20
-79.7961
 11
170.766
 21
-79.7722
  0
LINE
  8
0
 10
170.766
 20
-79.7722
 11
170.869
 21
-79.7569
  0
LINE
  8
0
 10
170.869
 20
-79.7569
 11
170.974
 21
-79.7503
  0
LINE
  8
0
 10
170.974
 20
-79.7503
 11
171.078
 21
-79.7525
  0
LINE
  8
0
 10
171.078
 20
-79.7525
 11
171.183
 21
-79.7634
  0
LINE
  8
0
 10
171.183
 20
-79.7634
 11
171.285
 21
-79.783
  0
LINE
  8
0
 10
171.285
 20
-79.783
 11
171.386
 21
-79.8112
  0
LINE
  8
0
 10
171.386
 20
-79.8112
 11
171.484
 21
-79.8477
  0
LINE
  8
0
 10
171.484
 20
-79.8477
 11
171.579
 21
-79.8923
  0
LINE
  8
0
 10
171.579
 20
-79.8923
 11
171.67
 21
-79.9446
  0
LINE
  8
0
 10
171.67
 20
-79.9446
 11
171.756
 21
-80.0043
  0
LINE
  8
0
 10
171.756
 20
-80.0043
 11
171.836
 21
-80.0711
  0
LINE
  8
0
 10
171.836
 20
-80.0711
 11
171.911
 21
-80.1443
  0
LINE
  8
0
 10
171.911
 20
-80.1443
 11
171.98
 21
-80.2236
  0
LINE
  8
0
 10
171.98
 20
-80.2236
 11
172.041
 21
-80.3083
  0
LINE
  8
0
 10
172.041
 20
-80.3083
 11
172.095
 21
-80.3978
  0
LINE
  8
0
 10
172.095
 20
-80.3978
 11
172.142
 21
-80.4916
  0
LINE
  8
0
 10
172.142
 20
-80.4916
 11
172.18
 21
-80.5889
  0
LINE
  8
0
 10
172.18
 20
-80.5889
 11
172.211
 21
-80.6891
  0
LINE
  8
0
 10
172.211
 20
-80.6891
 11
172.232
 21
-80.7915
  0
LINE
  8
0
 10
172.232
 20
-80.7915
 11
172.246
 21
-80.8954
  0
LINE
  8
0
 10
172.246
 20
-80.8954
 11
172.25
 21
-81
  0
LINE
  8
0
 10
172.25
 20
-81
 11
172.246
 21
-81.1046
  0
LINE
  8
0
 10
172.246
 20
-81.1046
 11
172.232
 21
-81.2085
  0
LINE
  8
0
 10
172.232
 20
-81.2085
 11
172.211
 21
-81.3109
  0
LINE
  8
0
 10
172.211
 20
-81.3109
 11
172.18
 21
-81.4111
  0
LINE
  8
0
 10
172.18
 20
-81.4111
 11
172.142
 21
-81.5084
  0
LINE
  8
0
 10
172.142
 20
-81.5084
 11
172.095
 21
-81.6022
  0
LINE
  8
0
 10
172.095
 20
-81.6022
 11
172.041
 21
-81.6917
  0
LINE
  8
0
 10
172.041
 20
-81.6917
 11
171.98
 21
-81.7764
  0
LINE
  8
0
 10
171.98
 20
-81.7764
 11
171.911
 21
-81.8557
  0
LINE
  8
0
 10
171.911
 20
-81.8557
 11
171.836
 21
-81.9289
  0
LINE
  8
0
 10
171.836
 20
-81.9289
 11
171.756
 21
-81.9957
  0
LINE
  8
0
 10
171.756
 20
-81.9957
 11
171.67
 21
-82.0554
  0
LINE
  8
0
 10
171.67
 20
-82.0554
 11
171.579
 21
-82.1078
  0
LINE
  8
0
 10
171.579
 20
-82.1078
 11
171.484
 21
-82.1523
  0
LINE
  8
0
 10
171.484
 20
-82.1523
 11
171.386
 21
-82.1888
  0
LINE
  8
0
 10
171.386
 20
-82.1888
 11
171.285
 21
-82.217
  0
LINE
  8
0
 10
171.285
 20
-82.217
 11
171.183
 21
-82.2366
  0
LINE
  8
0
 10
171.183
 20
-82.2366
 11
171.078
 21
-82.2475
  0
LINE
  8
0
 10
171.078
 20
-82.2475
 11
170.974
 21
-82.2497
  0
LINE
  8
0
 10
170.974
 20
-82.2497
 11
170.869
 21
-82.2432
  0
ENDSEC
  0
SECTION
  2
OBJECTS
  0
DICTIONARY
  0
ENDSEC
  0
EOF
