  0
SECTION
  2
BLOCKS
  0
ENDSEC
  0
SECTION
  2
ENTITIES
  0
LINE
  8
0
 10
192.954
 20
195.176
 11
193.121
 21
195.193
  0
LINE
  8
0
 10
193.121
 20
195.193
 11
193.285
 21
195.224
  0
LINE
  8
0
 10
193.285
 20
195.224
 11
193.446
 21
195.269
  0
LINE
  8
0
 10
193.446
 20
195.269
 11
193.603
 21
195.328
  0
LINE
  8
0
 10
193.603
 20
195.328
 11
193.755
 21
195.399
  0
LINE
  8
0
 10
193.755
 20
195.399
 11
193.9
 21
195.483
  0
LINE
  8
0
 10
193.9
 20
195.483
 11
194.038
 21
195.579
  0
LINE
  8
0
 10
194.038
 20
195.579
 11
194.167
 21
195.685
  0
LINE
  8
0
 10
194.167
 20
195.685
 11
194.286
 21
195.802
  0
LINE
  8
0
 10
194.286
 20
195.802
 11
194.396
 21
195.929
  0
LINE
  8
0
 10
194.396
 20
195.929
 11
194.494
 21
196.065
  0
LINE
  8
0
 10
194.494
 20
196.065
 11
194.581
 21
196.208
  0
LINE
  8
0
 10
194.581
 20
196.208
 11
194.656
 21
196.358
  0
LINE
  8
0
 10
194.656
 20
196.358
 11
194.717
 21
196.514
  0
LINE
  8
0
 10
194.717
 20
196.514
 11
194.766
 21
196.674
  0
LINE
  8
0
 10
194.766
 20
196.674
 11
194.8
 21
196.838
  0
LINE
  8
0
 10
194.8
 20
196.838
 11
194.821
 21
197.004
  0
LINE
  8
0
 10
194.821
 20
197.004
 11
194.828
 21
197.172
  0
LINE
  8
0
 10
194.828
 20
197.172
 11
194.828
 21
278.828
  0
LINE
  8
0
 10
194.828
 20
278.828
 11
194.821
 21
278.996
  0
LINE
  8
0
 10
194.821
 20
278.996
 11
194.8
 21
279.162
  0
LINE
  8
0
 10
194.8
 20
279.162
 11
194.766
 21
279.326
  0
LINE
  8
0
 10
194.766
 20
279.326
 11
194.717
 21
279.486
  0
LINE
  8
0
 10
194.717
 20
279.486
 11
194.656
 21
279.642
  0
LINE
  8
0
 10
194.656
 20
279.642
 11
194.581
 21
279.792
  0
LINE
  8
0
 10
194.581
 20
279.792
 11
194.494
 21
279.935
  0
LINE
  8
0
 10
194.494
 20
279.935
 11
194.396
 21
280.071
  0
LINE
  8
0
 10
194.396
 20
280.071
 11
194.286
 21
280.198
  0
LINE
  8
0
 10
194.286
 20
280.198
 11
194.167
 21
280.315
  0
LINE
  8
0
 10
194.167
 20
280.315
 11
194.038
 21
280.421
  0
LINE
  8
0
 10
194.038
 20
280.421
 11
193.9
 21
280.517
  0
LINE
  8
0
 10
193.9
 20
280.517
 11
193.755
 21
280.601
  0
LINE
  8
0
 10
193.755
 20
280.601
 11
193.603
 21
280.672
  0
LINE
  8
0
 10
193.603
 20
280.672
 11
193.446
 21
280.731
  0
LINE
  8
0
 10
193.446
 20
280.731
 11
193.285
 21
280.776
  0
LINE
  8
0
 10
193.285
 20
280.776
 11
193.121
 21
280.807
  0
LINE
  8
0
 10
193.121
 20
280.807
 11
192.954
 21
280.824
  0
LINE
  8
0
 10
192.954
 20
280.824
 11
192.787
 21
280.828
  0
LINE
  8
0
 10
192.787
 20
280.828
 11
-2.8703
 21
280.828
  0
LINE
  8
0
 10
-2.8703
 20
280.828
 11
-3.03748
 21
280.817
  0
LINE
  8
0
 10
-3.03748
 20
280.817
 11
-3.20319
 21
280.793
  0
LINE
  8
0
 10
-3.20319
 20
280.793
 11
-3.36626
 21
280.755
  0
LINE
  8
0
 10
-3.36626
 20
280.755
 11
-3.52556
 21
280.703
  0
LINE
  8
0
 10
-3.52556
 20
280.703
 11
-3.67998
 21
280.638
  0
LINE
  8
0
 10
-3.67998
 20
280.638
 11
-3.82841
 21
280.56
  0
LINE
  8
0
 10
-3.82841
 20
280.56
 11
-3.96985
 21
280.471
  0
LINE
  8
0
 10
-3.96985
 20
280.471
 11
-4.10327
 21
280.369
  0
LINE
  8
0
 10
-4.10327
 20
280.369
 11
-4.22775
 21
280.257
  0
LINE
  8
0
 10
-4.22775
 20
280.257
 11
-4.34241
 21
280.135
  0
LINE
  8
0
 10
-4.34241
 20
280.135
 11
-4.44646
 21
280.004
  0
LINE
  8
0
 10
-4.44646
 20
280.004
 11
-4.53915
 21
279.864
  0
LINE
  8
0
 10
-4.53915
 20
279.864
 11
-4.61984
 21
279.718
  0
LINE
  8
0
 10
-4.61984
 20
279.718
 11
-4.68797
 21
279.565
  0
LINE
  8
0
 10
-4.68797
 20
279.565
 11
-4.74306
 21
279.406
  0
LINE
  8
0
 10
-4.74306
 20
279.406
 11
-4.78471
 21
279.244
  0
LINE
  8
0
 10
-4.78471
 20
279.244
 11
-4.81265
 21
279.079
  0
LINE
  8
0
 10
-4.81265
 20
279.079
 11
-4.82666
 21
278.912
  0
LINE
  8
0
 10
-4.82666
 20
278.912
 11
-4.82666
 21
197.088
  0
LINE
  8
0
 10
-4.82666
 20
197.088
 11
-4.81265
 21
196.921
  0
LINE
  8
0
 10
-4.81265
 20
196.921
 11
-4.78471
 21
196.756
  0
LINE
  8
0
 10
-4.78471
 20
196.756
 11
-4.74306
 21
196.594
  0
LINE
  8
0
 10
-4.74306
 20
196.594
 11
-4.68797
 21
196.435
  0
LINE
  8
0
 10
-4.68797
 20
196.435
 11
-4.61984
 21
196.282
  0
LINE
  8
0
 10
-4.61984
 20
196.282
 11
-4.53915
 21
196.136
  0
LINE
  8
0
 10
-4.53915
 20
196.136
 11
-4.44646
 21
195.996
  0
LINE
  8
0
 10
-4.44646
 20
195.996
 11
-4.34241
 21
195.865
  0
LINE
  8
0
 10
-4.34241
 20
195.865
 11
-4.22775
 21
195.743
  0
LINE
  8
0
 10
-4.22775
 20
195.743
 11
-4.10327
 21
195.631
  0
LINE
  8
0
 10
-4.10327
 20
195.631
 11
-3.96985
 21
195.529
  0
LINE
  8
0
 10
-3.96985
 20
195.529
 11
-3.82841
 21
195.44
  0
LINE
  8
0
 10
-3.82841
 20
195.44
 11
-3.67998
 21
195.362
  0
LINE
  8
0
 10
-3.67998
 20
195.362
 11
-3.52556
 21
195.297
  0
LINE
  8
0
 10
-3.52556
 20
195.297
 11
-3.36626
 21
195.245
  0
LINE
  8
0
 10
-3.36626
 20
195.245
 11
-3.20319
 21
195.207
  0
LINE
  8
0
 10
-3.20319
 20
195.207
 11
-3.03748
 21
195.183
  0
LINE
  8
0
 10
-3.03748
 20
195.183
 11
-2.8703
 21
195.172
  0
LINE
  8
0
 10
-2.8703
 20
195.172
 11
192.787
 21
195.172
  0
LINE
  8
0
 10
192.787
 20
195.172
 11
192.954
 21
195.176
  0
LINE
  8
0
 10
173
 20
259
 11
173
 21
274
  0
LINE
  8
0
 10
173
 20
274
 11
188
 21
274
  0
LINE
  8
0
 10
188
 20
274
 11
188
 21
259
  0
LINE
  8
0
 10
188
 20
259
 11
173
 21
259
  0
LINE
  8
0
 10
154
 20
259
 11
154
 21
274
  0
LINE
  8
0
 10
154
 20
274
 11
169
 21
274
  0
LINE
  8
0
 10
169
 20
274
 11
169
 21
259
  0
LINE
  8
0
 10
169
 20
259
 11
154
 21
259
  0
LINE
  8
0
 10
135
 20
259
 11
135
 21
274
  0
LINE
  8
0
 10
135
 20
274
 11
150
 21
274
  0
LINE
  8
0
 10
150
 20
274
 11
150
 21
259
  0
LINE
  8
0
 10
150
 20
259
 11
135
 21
259
  0
LINE
  8
0
 10
116
 20
259
 11
116
 21
274
  0
LINE
  8
0
 10
116
 20
274
 11
131
 21
274
  0
LINE
  8
0
 10
131
 20
274
 11
131
 21
259
  0
LINE
  8
0
 10
131
 20
259
 11
116
 21
259
  0
LINE
  8
0
 10
97
 20
259
 11
97
 21
274
  0
LINE
  8
0
 10
97
 20
274
 11
112
 21
274
  0
LINE
  8
0
 10
112
 20
274
 11
112
 21
259
  0
LINE
  8
0
 10
112
 20
259
 11
97
 21
259
  0
LINE
  8
0
 10
78
 20
259
 11
78
 21
274
  0
LINE
  8
0
 10
78
 20
274
 11
93
 21
274
  0
LINE
  8
0
 10
93
 20
274
 11
93
 21
259
  0
LINE
  8
0
 10
93
 20
259
 11
78
 21
259
  0
LINE
  8
0
 10
59
 20
259
 11
59
 21
274
  0
LINE
  8
0
 10
59
 20
274
 11
74
 21
274
  0
LINE
  8
0
 10
74
 20
274
 11
74
 21
259
  0
LINE
  8
0
 10
74
 20
259
 11
59
 21
259
  0
LINE
  8
0
 10
40
 20
259
 11
40
 21
274
  0
LINE
  8
0
 10
40
 20
274
 11
55
 21
274
  0
LINE
  8
0
 10
55
 20
274
 11
55
 21
259
  0
LINE
  8
0
 10
55
 20
259
 11
40
 21
259
  0
LINE
  8
0
 10
21
 20
259
 11
21
 21
274
  0
LINE
  8
0
 10
21
 20
274
 11
36
 21
274
  0
LINE
  8
0
 10
36
 20
274
 11
36
 21
259
  0
LINE
  8
0
 10
36
 20
259
 11
21
 21
259
  0
LINE
  8
0
 10
2
 20
259
 11
2
 21
274
  0
LINE
  8
0
 10
2
 20
274
 11
17
 21
274
  0
LINE
  8
0
 10
17
 20
274
 11
17
 21
259
  0
LINE
  8
0
 10
17
 20
259
 11
2
 21
259
  0
LINE
  8
0
 10
170.843
 20
255.508
 11
170.719
 21
255.527
  0
LINE
  8
0
 10
170.719
 20
255.527
 11
170.597
 21
255.555
  0
LINE
  8
0
 10
170.597
 20
255.555
 11
170.477
 21
255.594
  0
LINE
  8
0
 10
170.477
 20
255.594
 11
170.361
 21
255.643
  0
LINE
  8
0
 10
170.361
 20
255.643
 11
170.25
 21
255.701
  0
LINE
  8
0
 10
170.25
 20
255.701
 11
170.144
 21
255.768
  0
LINE
  8
0
 10
170.144
 20
255.768
 11
170.044
 21
255.844
  0
LINE
  8
0
 10
170.044
 20
255.844
 11
169.951
 21
255.928
  0
LINE
  8
0
 10
169.951
 20
255.928
 11
169.865
 21
256.02
  0
LINE
  8
0
 10
169.865
 20
256.02
 11
169.786
 21
256.118
  0
LINE
  8
0
 10
169.786
 20
256.118
 11
169.717
 21
256.223
  0
LINE
  8
0
 10
169.717
 20
256.223
 11
169.656
 21
256.333
  0
LINE
  8
0
 10
169.656
 20
256.333
 11
169.605
 21
256.448
  0
LINE
  8
0
 10
169.605
 20
256.448
 11
169.564
 21
256.566
  0
LINE
  8
0
 10
169.564
 20
256.566
 11
169.533
 21
256.688
  0
LINE
  8
0
 10
169.533
 20
256.688
 11
169.512
 21
256.812
  0
LINE
  8
0
 10
169.512
 20
256.812
 11
169.501
 21
256.937
  0
LINE
  8
0
 10
169.501
 20
256.937
 11
169.501
 21
257.063
  0
LINE
  8
0
 10
169.501
 20
257.063
 11
169.512
 21
257.188
  0
LINE
  8
0
 10
169.512
 20
257.188
 11
169.533
 21
257.312
  0
LINE
  8
0
 10
169.533
 20
257.312
 11
169.564
 21
257.434
  0
LINE
  8
0
 10
169.564
 20
257.434
 11
169.605
 21
257.552
  0
LINE
  8
0
 10
169.605
 20
257.552
 11
169.656
 21
257.667
  0
LINE
  8
0
 10
169.656
 20
257.667
 11
169.717
 21
257.777
  0
LINE
  8
0
 10
169.717
 20
257.777
 11
169.786
 21
257.882
  0
LINE
  8
0
 10
169.786
 20
257.882
 11
169.865
 21
257.98
  0
LINE
  8
0
 10
169.865
 20
257.98
 11
169.951
 21
258.072
  0
LINE
  8
0
 10
169.951
 20
258.072
 11
170.044
 21
258.156
  0
LINE
  8
0
 10
170.044
 20
258.156
 11
170.144
 21
258.232
  0
LINE
  8
0
 10
170.144
 20
258.232
 11
170.25
 21
258.299
  0
LINE
  8
0
 10
170.25
 20
258.299
 11
170.361
 21
258.357
  0
LINE
  8
0
 10
170.361
 20
258.357
 11
170.477
 21
258.406
  0
LINE
  8
0
 10
170.477
 20
258.406
 11
170.597
 21
258.445
  0
LINE
  8
0
 10
170.597
 20
258.445
 11
170.719
 21
258.473
  0
LINE
  8
0
 10
170.719
 20
258.473
 11
170.843
 21
258.492
  0
LINE
  8
0
 10
170.843
 20
258.492
 11
170.969
 21
258.5
  0
LINE
  8
0
 10
170.969
 20
258.5
 11
171.094
 21
258.497
  0
LINE
  8
0
 10
171.094
 20
258.497
 11
171.219
 21
258.484
  0
LINE
  8
0
 10
171.219
 20
258.484
 11
171.343
 21
258.46
  0
LINE
  8
0
 10
171.343
 20
258.46
 11
171.464
 21
258.427
  0
LINE
  8
0
 10
171.464
 20
258.427
 11
171.581
 21
258.383
  0
LINE
  8
0
 10
171.581
 20
258.383
 11
171.695
 21
258.329
  0
LINE
  8
0
 10
171.695
 20
258.329
 11
171.804
 21
258.266
  0
LINE
  8
0
 10
171.804
 20
258.266
 11
171.907
 21
258.195
  0
LINE
  8
0
 10
171.907
 20
258.195
 11
172.004
 21
258.115
  0
LINE
  8
0
 10
172.004
 20
258.115
 11
172.093
 21
258.027
  0
LINE
  8
0
 10
172.093
 20
258.027
 11
172.176
 21
257.932
  0
LINE
  8
0
 10
172.176
 20
257.932
 11
172.249
 21
257.83
  0
LINE
  8
0
 10
172.249
 20
257.83
 11
172.314
 21
257.723
  0
LINE
  8
0
 10
172.314
 20
257.723
 11
172.37
 21
257.61
  0
LINE
  8
0
 10
172.37
 20
257.61
 11
172.417
 21
257.493
  0
LINE
  8
0
 10
172.417
 20
257.493
 11
172.453
 21
257.373
  0
LINE
  8
0
 10
172.453
 20
257.373
 11
172.479
 21
257.25
  0
LINE
  8
0
 10
172.479
 20
257.25
 11
172.495
 21
257.126
  0
LINE
  8
0
 10
172.495
 20
257.126
 11
172.5
 21
257
  0
LINE
  8
0
 10
172.5
 20
257
 11
172.495
 21
256.874
  0
LINE
  8
0
 10
172.495
 20
256.874
 11
172.479
 21
256.75
  0
LINE
  8
0
 10
172.479
 20
256.75
 11
172.453
 21
256.627
  0
LINE
  8
0
 10
172.453
 20
256.627
 11
172.417
 21
256.507
  0
LINE
  8
0
 10
172.417
 20
256.507
 11
172.37
 21
256.39
  0
LINE
  8
0
 10
172.37
 20
256.39
 11
172.314
 21
256.277
  0
LINE
  8
0
 10
172.314
 20
256.277
 11
172.249
 21
256.17
  0
LINE
  8
0
 10
172.249
 20
256.17
 11
172.176
 21
256.068
  0
LINE
  8
0
 10
172.176
 20
256.068
 11
172.093
 21
255.973
  0
LINE
  8
0
 10
172.093
 20
255.973
 11
172.004
 21
255.885
  0
LINE
  8
0
 10
172.004
 20
255.885
 11
171.907
 21
255.805
  0
LINE
  8
0
 10
171.907
 20
255.805
 11
171.804
 21
255.734
  0
LINE
  8
0
 10
171.804
 20
255.734
 11
171.695
 21
255.671
  0
LINE
  8
0
 10
171.695
 20
255.671
 11
171.581
 21
255.617
  0
LINE
  8
0
 10
171.581
 20
255.617
 11
171.464
 21
255.573
  0
LINE
  8
0
 10
171.464
 20
255.573
 11
171.343
 21
255.54
  0
LINE
  8
0
 10
171.343
 20
255.54
 11
171.219
 21
255.516
  0
LINE
  8
0
 10
171.219
 20
255.516
 11
171.094
 21
255.503
  0
LINE
  8
0
 10
171.094
 20
255.503
 11
170.969
 21
255.5
  0
LINE
  8
0
 10
170.969
 20
255.5
 11
170.843
 21
255.508
  0
LINE
  8
0
 10
18.8432
 20
255.508
 11
18.7189
 21
255.527
  0
LINE
  8
0
 10
18.7189
 20
255.527
 11
18.5966
 21
255.555
  0
LINE
  8
0
 10
18.5966
 20
255.555
 11
18.4771
 21
255.594
  0
LINE
  8
0
 10
18.4771
 20
255.594
 11
18.3613
 21
255.643
  0
LINE
  8
0
 10
18.3613
 20
255.643
 11
18.25
 21
255.701
  0
LINE
  8
0
 10
18.25
 20
255.701
 11
18.1439
 21
255.768
  0
LINE
  8
0
 10
18.1439
 20
255.768
 11
18.0439
 21
255.844
  0
LINE
  8
0
 10
18.0439
 20
255.844
 11
17.9505
 21
255.928
  0
LINE
  8
0
 10
17.9505
 20
255.928
 11
17.8645
 21
256.02
  0
LINE
  8
0
 10
17.8645
 20
256.02
 11
17.7865
 21
256.118
  0
LINE
  8
0
 10
17.7865
 20
256.118
 11
17.7169
 21
256.223
  0
LINE
  8
0
 10
17.7169
 20
256.223
 11
17.6564
 21
256.333
  0
LINE
  8
0
 10
17.6564
 20
256.333
 11
17.6053
 21
256.448
  0
LINE
  8
0
 10
17.6053
 20
256.448
 11
17.564
 21
256.566
  0
LINE
  8
0
 10
17.564
 20
256.566
 11
17.5328
 21
256.688
  0
LINE
  8
0
 10
17.5328
 20
256.688
 11
17.5118
 21
256.812
  0
LINE
  8
0
 10
17.5118
 20
256.812
 11
17.5013
 21
256.937
  0
LINE
  8
0
 10
17.5013
 20
256.937
 11
17.5013
 21
257.063
  0
LINE
  8
0
 10
17.5013
 20
257.063
 11
17.5118
 21
257.188
  0
LINE
  8
0
 10
17.5118
 20
257.188
 11
17.5328
 21
257.312
  0
LINE
  8
0
 10
17.5328
 20
257.312
 11
17.564
 21
257.434
  0
LINE
  8
0
 10
17.564
 20
257.434
 11
17.6053
 21
257.552
  0
LINE
  8
0
 10
17.6053
 20
257.552
 11
17.6564
 21
257.667
  0
LINE
  8
0
 10
17.6564
 20
257.667
 11
17.7169
 21
257.777
  0
LINE
  8
0
 10
17.7169
 20
257.777
 11
17.7865
 21
257.882
  0
LINE
  8
0
 10
17.7865
 20
257.882
 11
17.8645
 21
257.98
  0
LINE
  8
0
 10
17.8645
 20
257.98
 11
17.9505
 21
258.072
  0
LINE
  8
0
 10
17.9505
 20
258.072
 11
18.0439
 21
258.156
  0
LINE
  8
0
 10
18.0439
 20
258.156
 11
18.1439
 21
258.232
  0
LINE
  8
0
 10
18.1439
 20
258.232
 11
18.25
 21
258.299
  0
LINE
  8
0
 10
18.25
 20
258.299
 11
18.3613
 21
258.357
  0
LINE
  8
0
 10
18.3613
 20
258.357
 11
18.4771
 21
258.406
  0
LINE
  8
0
 10
18.4771
 20
258.406
 11
18.5966
 21
258.445
  0
LINE
  8
0
 10
18.5966
 20
258.445
 11
18.7189
 21
258.473
  0
LINE
  8
0
 10
18.7189
 20
258.473
 11
18.8432
 21
258.492
  0
LINE
  8
0
 10
18.8432
 20
258.492
 11
18.9686
 21
258.5
  0
LINE
  8
0
 10
18.9686
 20
258.5
 11
19.0942
 21
258.497
  0
LINE
  8
0
 10
19.0942
 20
258.497
 11
19.2191
 21
258.484
  0
LINE
  8
0
 10
19.2191
 20
258.484
 11
19.3425
 21
258.46
  0
LINE
  8
0
 10
19.3425
 20
258.46
 11
19.4635
 21
258.427
  0
LINE
  8
0
 10
19.4635
 20
258.427
 11
19.5813
 21
258.383
  0
LINE
  8
0
 10
19.5813
 20
258.383
 11
19.6949
 21
258.329
  0
LINE
  8
0
 10
19.6949
 20
258.329
 11
19.8037
 21
258.266
  0
LINE
  8
0
 10
19.8037
 20
258.266
 11
19.9069
 21
258.195
  0
LINE
  8
0
 10
19.9069
 20
258.195
 11
20.0037
 21
258.115
  0
LINE
  8
0
 10
20.0037
 20
258.115
 11
20.0934
 21
258.027
  0
LINE
  8
0
 10
20.0934
 20
258.027
 11
20.1755
 21
257.932
  0
LINE
  8
0
 10
20.1755
 20
257.932
 11
20.2494
 21
257.83
  0
LINE
  8
0
 10
20.2494
 20
257.83
 11
20.3145
 21
257.723
  0
LINE
  8
0
 10
20.3145
 20
257.723
 11
20.3703
 21
257.61
  0
LINE
  8
0
 10
20.3703
 20
257.61
 11
20.4165
 21
257.493
  0
LINE
  8
0
 10
20.4165
 20
257.493
 11
20.4529
 21
257.373
  0
LINE
  8
0
 10
20.4529
 20
257.373
 11
20.479
 21
257.25
  0
LINE
  8
0
 10
20.479
 20
257.25
 11
20.4947
 21
257.126
  0
LINE
  8
0
 10
20.4947
 20
257.126
 11
20.5
 21
257
  0
LINE
  8
0
 10
20.5
 20
257
 11
20.4947
 21
256.874
  0
LINE
  8
0
 10
20.4947
 20
256.874
 11
20.479
 21
256.75
  0
LINE
  8
0
 10
20.479
 20
256.75
 11
20.4529
 21
256.627
  0
LINE
  8
0
 10
20.4529
 20
256.627
 11
20.4165
 21
256.507
  0
LINE
  8
0
 10
20.4165
 20
256.507
 11
20.3703
 21
256.39
  0
LINE
  8
0
 10
20.3703
 20
256.39
 11
20.3145
 21
256.277
  0
LINE
  8
0
 10
20.3145
 20
256.277
 11
20.2494
 21
256.17
  0
LINE
  8
0
 10
20.2494
 20
256.17
 11
20.1755
 21
256.068
  0
LINE
  8
0
 10
20.1755
 20
256.068
 11
20.0934
 21
255.973
  0
LINE
  8
0
 10
20.0934
 20
255.973
 11
20.0037
 21
255.885
  0
LINE
  8
0
 10
20.0037
 20
255.885
 11
19.9069
 21
255.805
  0
LINE
  8
0
 10
19.9069
 20
255.805
 11
19.8037
 21
255.734
  0
LINE
  8
0
 10
19.8037
 20
255.734
 11
19.6949
 21
255.671
  0
LINE
  8
0
 10
19.6949
 20
255.671
 11
19.5813
 21
255.617
  0
LINE
  8
0
 10
19.5813
 20
255.617
 11
19.4635
 21
255.573
  0
LINE
  8
0
 10
19.4635
 20
255.573
 11
19.3425
 21
255.54
  0
LINE
  8
0
 10
19.3425
 20
255.54
 11
19.2191
 21
255.516
  0
LINE
  8
0
 10
19.2191
 20
255.516
 11
19.0942
 21
255.503
  0
LINE
  8
0
 10
19.0942
 20
255.503
 11
18.9686
 21
255.5
  0
LINE
  8
0
 10
18.9686
 20
255.5
 11
18.8432
 21
255.508
  0
LINE
  8
0
 10
173
 20
240
 11
173
 21
255
  0
LINE
  8
0
 10
173
 20
255
 11
188
 21
255
  0
LINE
  8
0
 10
188
 20
255
 11
188
 21
240
  0
LINE
  8
0
 10
188
 20
240
 11
173
 21
240
  0
LINE
  8
0
 10
154
 20
240
 11
154
 21
255
  0
LINE
  8
0
 10
154
 20
255
 11
169
 21
255
  0
LINE
  8
0
 10
169
 20
255
 11
169
 21
240
  0
LINE
  8
0
 10
169
 20
240
 11
154
 21
240
  0
LINE
  8
0
 10
135
 20
240
 11
135
 21
255
  0
LINE
  8
0
 10
135
 20
255
 11
150
 21
255
  0
LINE
  8
0
 10
150
 20
255
 11
150
 21
240
  0
LINE
  8
0
 10
150
 20
240
 11
135
 21
240
  0
LINE
  8
0
 10
116
 20
240
 11
116
 21
255
  0
LINE
  8
0
 10
116
 20
255
 11
131
 21
255
  0
LINE
  8
0
 10
131
 20
255
 11
131
 21
240
  0
LINE
  8
0
 10
131
 20
240
 11
116
 21
240
  0
LINE
  8
0
 10
97
 20
240
 11
97
 21
255
  0
LINE
  8
0
 10
97
 20
255
 11
112
 21
255
  0
LINE
  8
0
 10
112
 20
255
 11
112
 21
240
  0
LINE
  8
0
 10
112
 20
240
 11
97
 21
240
  0
LINE
  8
0
 10
78
 20
240
 11
78
 21
255
  0
LINE
  8
0
 10
78
 20
255
 11
93
 21
255
  0
LINE
  8
0
 10
93
 20
255
 11
93
 21
240
  0
LINE
  8
0
 10
93
 20
240
 11
78
 21
240
  0
LINE
  8
0
 10
59
 20
240
 11
59
 21
255
  0
LINE
  8
0
 10
59
 20
255
 11
74
 21
255
  0
LINE
  8
0
 10
74
 20
255
 11
74
 21
240
  0
LINE
  8
0
 10
74
 20
240
 11
59
 21
240
  0
LINE
  8
0
 10
40
 20
240
 11
40
 21
255
  0
LINE
  8
0
 10
40
 20
255
 11
55
 21
255
  0
LINE
  8
0
 10
55
 20
255
 11
55
 21
240
  0
LINE
  8
0
 10
55
 20
240
 11
40
 21
240
  0
LINE
  8
0
 10
21
 20
240
 11
21
 21
255
  0
LINE
  8
0
 10
21
 20
255
 11
36
 21
255
  0
LINE
  8
0
 10
36
 20
255
 11
36
 21
240
  0
LINE
  8
0
 10
36
 20
240
 11
21
 21
240
  0
LINE
  8
0
 10
2
 20
240
 11
2
 21
255
  0
LINE
  8
0
 10
2
 20
255
 11
17
 21
255
  0
LINE
  8
0
 10
17
 20
255
 11
17
 21
240
  0
LINE
  8
0
 10
17
 20
240
 11
2
 21
240
  0
LINE
  8
0
 10
94.8432
 20
236.508
 11
94.7189
 21
236.527
  0
LINE
  8
0
 10
94.7189
 20
236.527
 11
94.5966
 21
236.555
  0
LINE
  8
0
 10
94.5966
 20
236.555
 11
94.4771
 21
236.594
  0
LINE
  8
0
 10
94.4771
 20
236.594
 11
94.3613
 21
236.643
  0
LINE
  8
0
 10
94.3613
 20
236.643
 11
94.25
 21
236.701
  0
LINE
  8
0
 10
94.25
 20
236.701
 11
94.1439
 21
236.768
  0
LINE
  8
0
 10
94.1439
 20
236.768
 11
94.0439
 21
236.844
  0
LINE
  8
0
 10
94.0439
 20
236.844
 11
93.9505
 21
236.928
  0
LINE
  8
0
 10
93.9505
 20
236.928
 11
93.8645
 21
237.02
  0
LINE
  8
0
 10
93.8645
 20
237.02
 11
93.7865
 21
237.118
  0
LINE
  8
0
 10
93.7865
 20
237.118
 11
93.7169
 21
237.223
  0
LINE
  8
0
 10
93.7169
 20
237.223
 11
93.6564
 21
237.333
  0
LINE
  8
0
 10
93.6564
 20
237.333
 11
93.6053
 21
237.448
  0
LINE
  8
0
 10
93.6053
 20
237.448
 11
93.564
 21
237.566
  0
LINE
  8
0
 10
93.564
 20
237.566
 11
93.5328
 21
237.688
  0
LINE
  8
0
 10
93.5328
 20
237.688
 11
93.5118
 21
237.812
  0
LINE
  8
0
 10
93.5118
 20
237.812
 11
93.5013
 21
237.937
  0
LINE
  8
0
 10
93.5013
 20
237.937
 11
93.5013
 21
238.063
  0
LINE
  8
0
 10
93.5013
 20
238.063
 11
93.5118
 21
238.188
  0
LINE
  8
0
 10
93.5118
 20
238.188
 11
93.5328
 21
238.312
  0
LINE
  8
0
 10
93.5328
 20
238.312
 11
93.564
 21
238.434
  0
LINE
  8
0
 10
93.564
 20
238.434
 11
93.6053
 21
238.552
  0
LINE
  8
0
 10
93.6053
 20
238.552
 11
93.6564
 21
238.667
  0
LINE
  8
0
 10
93.6564
 20
238.667
 11
93.7169
 21
238.777
  0
LINE
  8
0
 10
93.7169
 20
238.777
 11
93.7865
 21
238.882
  0
LINE
  8
0
 10
93.7865
 20
238.882
 11
93.8645
 21
238.98
  0
LINE
  8
0
 10
93.8645
 20
238.98
 11
93.9505
 21
239.072
  0
LINE
  8
0
 10
93.9505
 20
239.072
 11
94.0439
 21
239.156
  0
LINE
  8
0
 10
94.0439
 20
239.156
 11
94.1439
 21
239.232
  0
LINE
  8
0
 10
94.1439
 20
239.232
 11
94.25
 21
239.299
  0
LINE
  8
0
 10
94.25
 20
239.299
 11
94.3613
 21
239.357
  0
LINE
  8
0
 10
94.3613
 20
239.357
 11
94.4771
 21
239.406
  0
LINE
  8
0
 10
94.4771
 20
239.406
 11
94.5966
 21
239.445
  0
LINE
  8
0
 10
94.5966
 20
239.445
 11
94.7189
 21
239.473
  0
LINE
  8
0
 10
94.7189
 20
239.473
 11
94.8432
 21
239.492
  0
LINE
  8
0
 10
94.8432
 20
239.492
 11
94.9686
 21
239.5
  0
LINE
  8
0
 10
94.9686
 20
239.5
 11
95.0942
 21
239.497
  0
LINE
  8
0
 10
95.0942
 20
239.497
 11
95.2191
 21
239.484
  0
LINE
  8
0
 10
95.2191
 20
239.484
 11
95.3425
 21
239.46
  0
LINE
  8
0
 10
95.3425
 20
239.46
 11
95.4635
 21
239.427
  0
LINE
  8
0
 10
95.4635
 20
239.427
 11
95.5813
 21
239.383
  0
LINE
  8
0
 10
95.5813
 20
239.383
 11
95.6949
 21
239.329
  0
LINE
  8
0
 10
95.6949
 20
239.329
 11
95.8037
 21
239.266
  0
LINE
  8
0
 10
95.8037
 20
239.266
 11
95.9069
 21
239.195
  0
LINE
  8
0
 10
95.9069
 20
239.195
 11
96.0037
 21
239.115
  0
LINE
  8
0
 10
96.0037
 20
239.115
 11
96.0934
 21
239.027
  0
LINE
  8
0
 10
96.0934
 20
239.027
 11
96.1755
 21
238.932
  0
LINE
  8
0
 10
96.1755
 20
238.932
 11
96.2494
 21
238.83
  0
LINE
  8
0
 10
96.2494
 20
238.83
 11
96.3145
 21
238.723
  0
LINE
  8
0
 10
96.3145
 20
238.723
 11
96.3703
 21
238.61
  0
LINE
  8
0
 10
96.3703
 20
238.61
 11
96.4165
 21
238.493
  0
LINE
  8
0
 10
96.4165
 20
238.493
 11
96.4529
 21
238.373
  0
LINE
  8
0
 10
96.4529
 20
238.373
 11
96.479
 21
238.25
  0
LINE
  8
0
 10
96.479
 20
238.25
 11
96.4947
 21
238.126
  0
LINE
  8
0
 10
96.4947
 20
238.126
 11
96.5
 21
238
  0
LINE
  8
0
 10
96.5
 20
238
 11
96.4947
 21
237.874
  0
LINE
  8
0
 10
96.4947
 20
237.874
 11
96.479
 21
237.75
  0
LINE
  8
0
 10
96.479
 20
237.75
 11
96.4529
 21
237.627
  0
LINE
  8
0
 10
96.4529
 20
237.627
 11
96.4165
 21
237.507
  0
LINE
  8
0
 10
96.4165
 20
237.507
 11
96.3703
 21
237.39
  0
LINE
  8
0
 10
96.3703
 20
237.39
 11
96.3145
 21
237.277
  0
LINE
  8
0
 10
96.3145
 20
237.277
 11
96.2494
 21
237.17
  0
LINE
  8
0
 10
96.2494
 20
237.17
 11
96.1755
 21
237.068
  0
LINE
  8
0
 10
96.1755
 20
237.068
 11
96.0934
 21
236.973
  0
LINE
  8
0
 10
96.0934
 20
236.973
 11
96.0037
 21
236.885
  0
LINE
  8
0
 10
96.0037
 20
236.885
 11
95.9069
 21
236.805
  0
LINE
  8
0
 10
95.9069
 20
236.805
 11
95.8037
 21
236.734
  0
LINE
  8
0
 10
95.8037
 20
236.734
 11
95.6949
 21
236.671
  0
LINE
  8
0
 10
95.6949
 20
236.671
 11
95.5813
 21
236.617
  0
LINE
  8
0
 10
95.5813
 20
236.617
 11
95.4635
 21
236.573
  0
LINE
  8
0
 10
95.4635
 20
236.573
 11
95.3425
 21
236.54
  0
LINE
  8
0
 10
95.3425
 20
236.54
 11
95.2191
 21
236.516
  0
LINE
  8
0
 10
95.2191
 20
236.516
 11
95.0942
 21
236.503
  0
LINE
  8
0
 10
95.0942
 20
236.503
 11
94.9686
 21
236.5
  0
LINE
  8
0
 10
94.9686
 20
236.5
 11
94.8432
 21
236.508
  0
LINE
  8
0
 10
173
 20
221
 11
173
 21
236
  0
LINE
  8
0
 10
173
 20
236
 11
188
 21
236
  0
LINE
  8
0
 10
188
 20
236
 11
188
 21
221
  0
LINE
  8
0
 10
188
 20
221
 11
173
 21
221
  0
LINE
  8
0
 10
154
 20
221
 11
154
 21
236
  0
LINE
  8
0
 10
154
 20
236
 11
169
 21
236
  0
LINE
  8
0
 10
169
 20
236
 11
169
 21
221
  0
LINE
  8
0
 10
169
 20
221
 11
154
 21
221
  0
LINE
  8
0
 10
135
 20
221
 11
135
 21
236
  0
LINE
  8
0
 10
135
 20
236
 11
150
 21
236
  0
LINE
  8
0
 10
150
 20
236
 11
150
 21
221
  0
LINE
  8
0
 10
150
 20
221
 11
135
 21
221
  0
LINE
  8
0
 10
116
 20
221
 11
116
 21
236
  0
LINE
  8
0
 10
116
 20
236
 11
131
 21
236
  0
LINE
  8
0
 10
131
 20
236
 11
131
 21
221
  0
LINE
  8
0
 10
131
 20
221
 11
116
 21
221
  0
LINE
  8
0
 10
97
 20
221
 11
97
 21
236
  0
LINE
  8
0
 10
97
 20
236
 11
112
 21
236
  0
LINE
  8
0
 10
112
 20
236
 11
112
 21
221
  0
LINE
  8
0
 10
112
 20
221
 11
97
 21
221
  0
LINE
  8
0
 10
78
 20
221
 11
78
 21
236
  0
LINE
  8
0
 10
78
 20
236
 11
93
 21
236
  0
LINE
  8
0
 10
93
 20
236
 11
93
 21
221
  0
LINE
  8
0
 10
93
 20
221
 11
78
 21
221
  0
LINE
  8
0
 10
59
 20
221
 11
59
 21
236
  0
LINE
  8
0
 10
59
 20
236
 11
74
 21
236
  0
LINE
  8
0
 10
74
 20
236
 11
74
 21
221
  0
LINE
  8
0
 10
74
 20
221
 11
59
 21
221
  0
LINE
  8
0
 10
40
 20
221
 11
40
 21
236
  0
LINE
  8
0
 10
40
 20
236
 11
55
 21
236
  0
LINE
  8
0
 10
55
 20
236
 11
55
 21
221
  0
LINE
  8
0
 10
55
 20
221
 11
40
 21
221
  0
LINE
  8
0
 10
21
 20
221
 11
21
 21
236
  0
LINE
  8
0
 10
21
 20
236
 11
36
 21
236
  0
LINE
  8
0
 10
36
 20
236
 11
36
 21
221
  0
LINE
  8
0
 10
36
 20
221
 11
21
 21
221
  0
LINE
  8
0
 10
2
 20
221
 11
2
 21
236
  0
LINE
  8
0
 10
2
 20
236
 11
17
 21
236
  0
LINE
  8
0
 10
17
 20
236
 11
17
 21
221
  0
LINE
  8
0
 10
17
 20
221
 11
2
 21
221
  0
LINE
  8
0
 10
170.843
 20
217.508
 11
170.719
 21
217.527
  0
LINE
  8
0
 10
170.719
 20
217.527
 11
170.597
 21
217.555
  0
LINE
  8
0
 10
170.597
 20
217.555
 11
170.477
 21
217.594
  0
LINE
  8
0
 10
170.477
 20
217.594
 11
170.361
 21
217.643
  0
LINE
  8
0
 10
170.361
 20
217.643
 11
170.25
 21
217.701
  0
LINE
  8
0
 10
170.25
 20
217.701
 11
170.144
 21
217.768
  0
LINE
  8
0
 10
170.144
 20
217.768
 11
170.044
 21
217.844
  0
LINE
  8
0
 10
170.044
 20
217.844
 11
169.951
 21
217.928
  0
LINE
  8
0
 10
169.951
 20
217.928
 11
169.865
 21
218.02
  0
LINE
  8
0
 10
169.865
 20
218.02
 11
169.786
 21
218.118
  0
LINE
  8
0
 10
169.786
 20
218.118
 11
169.717
 21
218.223
  0
LINE
  8
0
 10
169.717
 20
218.223
 11
169.656
 21
218.333
  0
LINE
  8
0
 10
169.656
 20
218.333
 11
169.605
 21
218.448
  0
LINE
  8
0
 10
169.605
 20
218.448
 11
169.564
 21
218.566
  0
LINE
  8
0
 10
169.564
 20
218.566
 11
169.533
 21
218.688
  0
LINE
  8
0
 10
169.533
 20
218.688
 11
169.512
 21
218.812
  0
LINE
  8
0
 10
169.512
 20
218.812
 11
169.501
 21
218.937
  0
LINE
  8
0
 10
169.501
 20
218.937
 11
169.501
 21
219.063
  0
LINE
  8
0
 10
169.501
 20
219.063
 11
169.512
 21
219.188
  0
LINE
  8
0
 10
169.512
 20
219.188
 11
169.533
 21
219.312
  0
LINE
  8
0
 10
169.533
 20
219.312
 11
169.564
 21
219.434
  0
LINE
  8
0
 10
169.564
 20
219.434
 11
169.605
 21
219.552
  0
LINE
  8
0
 10
169.605
 20
219.552
 11
169.656
 21
219.667
  0
LINE
  8
0
 10
169.656
 20
219.667
 11
169.717
 21
219.777
  0
LINE
  8
0
 10
169.717
 20
219.777
 11
169.786
 21
219.882
  0
LINE
  8
0
 10
169.786
 20
219.882
 11
169.865
 21
219.98
  0
LINE
  8
0
 10
169.865
 20
219.98
 11
169.951
 21
220.072
  0
LINE
  8
0
 10
169.951
 20
220.072
 11
170.044
 21
220.156
  0
LINE
  8
0
 10
170.044
 20
220.156
 11
170.144
 21
220.232
  0
LINE
  8
0
 10
170.144
 20
220.232
 11
170.25
 21
220.299
  0
LINE
  8
0
 10
170.25
 20
220.299
 11
170.361
 21
220.357
  0
LINE
  8
0
 10
170.361
 20
220.357
 11
170.477
 21
220.406
  0
LINE
  8
0
 10
170.477
 20
220.406
 11
170.597
 21
220.445
  0
LINE
  8
0
 10
170.597
 20
220.445
 11
170.719
 21
220.473
  0
LINE
  8
0
 10
170.719
 20
220.473
 11
170.843
 21
220.492
  0
LINE
  8
0
 10
170.843
 20
220.492
 11
170.969
 21
220.5
  0
LINE
  8
0
 10
170.969
 20
220.5
 11
171.094
 21
220.497
  0
LINE
  8
0
 10
171.094
 20
220.497
 11
171.219
 21
220.484
  0
LINE
  8
0
 10
171.219
 20
220.484
 11
171.343
 21
220.46
  0
LINE
  8
0
 10
171.343
 20
220.46
 11
171.464
 21
220.427
  0
LINE
  8
0
 10
171.464
 20
220.427
 11
171.581
 21
220.383
  0
LINE
  8
0
 10
171.581
 20
220.383
 11
171.695
 21
220.329
  0
LINE
  8
0
 10
171.695
 20
220.329
 11
171.804
 21
220.266
  0
LINE
  8
0
 10
171.804
 20
220.266
 11
171.907
 21
220.195
  0
LINE
  8
0
 10
171.907
 20
220.195
 11
172.004
 21
220.115
  0
LINE
  8
0
 10
172.004
 20
220.115
 11
172.093
 21
220.027
  0
LINE
  8
0
 10
172.093
 20
220.027
 11
172.176
 21
219.932
  0
LINE
  8
0
 10
172.176
 20
219.932
 11
172.249
 21
219.83
  0
LINE
  8
0
 10
172.249
 20
219.83
 11
172.314
 21
219.723
  0
LINE
  8
0
 10
172.314
 20
219.723
 11
172.37
 21
219.61
  0
LINE
  8
0
 10
172.37
 20
219.61
 11
172.417
 21
219.493
  0
LINE
  8
0
 10
172.417
 20
219.493
 11
172.453
 21
219.373
  0
LINE
  8
0
 10
172.453
 20
219.373
 11
172.479
 21
219.25
  0
LINE
  8
0
 10
172.479
 20
219.25
 11
172.495
 21
219.126
  0
LINE
  8
0
 10
172.495
 20
219.126
 11
172.5
 21
219
  0
LINE
  8
0
 10
172.5
 20
219
 11
172.495
 21
218.874
  0
LINE
  8
0
 10
172.495
 20
218.874
 11
172.479
 21
218.75
  0
LINE
  8
0
 10
172.479
 20
218.75
 11
172.453
 21
218.627
  0
LINE
  8
0
 10
172.453
 20
218.627
 11
172.417
 21
218.507
  0
LINE
  8
0
 10
172.417
 20
218.507
 11
172.37
 21
218.39
  0
LINE
  8
0
 10
172.37
 20
218.39
 11
172.314
 21
218.277
  0
LINE
  8
0
 10
172.314
 20
218.277
 11
172.249
 21
218.17
  0
LINE
  8
0
 10
172.249
 20
218.17
 11
172.176
 21
218.068
  0
LINE
  8
0
 10
172.176
 20
218.068
 11
172.093
 21
217.973
  0
LINE
  8
0
 10
172.093
 20
217.973
 11
172.004
 21
217.885
  0
LINE
  8
0
 10
172.004
 20
217.885
 11
171.907
 21
217.805
  0
LINE
  8
0
 10
171.907
 20
217.805
 11
171.804
 21
217.734
  0
LINE
  8
0
 10
171.804
 20
217.734
 11
171.695
 21
217.671
  0
LINE
  8
0
 10
171.695
 20
217.671
 11
171.581
 21
217.617
  0
LINE
  8
0
 10
171.581
 20
217.617
 11
171.464
 21
217.573
  0
LINE
  8
0
 10
171.464
 20
217.573
 11
171.343
 21
217.54
  0
LINE
  8
0
 10
171.343
 20
217.54
 11
171.219
 21
217.516
  0
LINE
  8
0
 10
171.219
 20
217.516
 11
171.094
 21
217.503
  0
LINE
  8
0
 10
171.094
 20
217.503
 11
170.969
 21
217.5
  0
LINE
  8
0
 10
170.969
 20
217.5
 11
170.843
 21
217.508
  0
LINE
  8
0
 10
18.8432
 20
217.508
 11
18.7189
 21
217.527
  0
LINE
  8
0
 10
18.7189
 20
217.527
 11
18.5966
 21
217.555
  0
LINE
  8
0
 10
18.5966
 20
217.555
 11
18.4771
 21
217.594
  0
LINE
  8
0
 10
18.4771
 20
217.594
 11
18.3613
 21
217.643
  0
LINE
  8
0
 10
18.3613
 20
217.643
 11
18.25
 21
217.701
  0
LINE
  8
0
 10
18.25
 20
217.701
 11
18.1439
 21
217.768
  0
LINE
  8
0
 10
18.1439
 20
217.768
 11
18.0439
 21
217.844
  0
LINE
  8
0
 10
18.0439
 20
217.844
 11
17.9505
 21
217.928
  0
LINE
  8
0
 10
17.9505
 20
217.928
 11
17.8645
 21
218.02
  0
LINE
  8
0
 10
17.8645
 20
218.02
 11
17.7865
 21
218.118
  0
LINE
  8
0
 10
17.7865
 20
218.118
 11
17.7169
 21
218.223
  0
LINE
  8
0
 10
17.7169
 20
218.223
 11
17.6564
 21
218.333
  0
LINE
  8
0
 10
17.6564
 20
218.333
 11
17.6053
 21
218.448
  0
LINE
  8
0
 10
17.6053
 20
218.448
 11
17.564
 21
218.566
  0
LINE
  8
0
 10
17.564
 20
218.566
 11
17.5328
 21
218.688
  0
LINE
  8
0
 10
17.5328
 20
218.688
 11
17.5118
 21
218.812
  0
LINE
  8
0
 10
17.5118
 20
218.812
 11
17.5013
 21
218.937
  0
LINE
  8
0
 10
17.5013
 20
218.937
 11
17.5013
 21
219.063
  0
LINE
  8
0
 10
17.5013
 20
219.063
 11
17.5118
 21
219.188
  0
LINE
  8
0
 10
17.5118
 20
219.188
 11
17.5328
 21
219.312
  0
LINE
  8
0
 10
17.5328
 20
219.312
 11
17.564
 21
219.434
  0
LINE
  8
0
 10
17.564
 20
219.434
 11
17.6053
 21
219.552
  0
LINE
  8
0
 10
17.6053
 20
219.552
 11
17.6564
 21
219.667
  0
LINE
  8
0
 10
17.6564
 20
219.667
 11
17.7169
 21
219.777
  0
LINE
  8
0
 10
17.7169
 20
219.777
 11
17.7865
 21
219.882
  0
LINE
  8
0
 10
17.7865
 20
219.882
 11
17.8645
 21
219.98
  0
LINE
  8
0
 10
17.8645
 20
219.98
 11
17.9505
 21
220.072
  0
LINE
  8
0
 10
17.9505
 20
220.072
 11
18.0439
 21
220.156
  0
LINE
  8
0
 10
18.0439
 20
220.156
 11
18.1439
 21
220.232
  0
LINE
  8
0
 10
18.1439
 20
220.232
 11
18.25
 21
220.299
  0
LINE
  8
0
 10
18.25
 20
220.299
 11
18.3613
 21
220.357
  0
LINE
  8
0
 10
18.3613
 20
220.357
 11
18.4771
 21
220.406
  0
LINE
  8
0
 10
18.4771
 20
220.406
 11
18.5966
 21
220.445
  0
LINE
  8
0
 10
18.5966
 20
220.445
 11
18.7189
 21
220.473
  0
LINE
  8
0
 10
18.7189
 20
220.473
 11
18.8432
 21
220.492
  0
LINE
  8
0
 10
18.8432
 20
220.492
 11
18.9686
 21
220.5
  0
LINE
  8
0
 10
18.9686
 20
220.5
 11
19.0942
 21
220.497
  0
LINE
  8
0
 10
19.0942
 20
220.497
 11
19.2191
 21
220.484
  0
LINE
  8
0
 10
19.2191
 20
220.484
 11
19.3425
 21
220.46
  0
LINE
  8
0
 10
19.3425
 20
220.46
 11
19.4635
 21
220.427
  0
LINE
  8
0
 10
19.4635
 20
220.427
 11
19.5813
 21
220.383
  0
LINE
  8
0
 10
19.5813
 20
220.383
 11
19.6949
 21
220.329
  0
LINE
  8
0
 10
19.6949
 20
220.329
 11
19.8037
 21
220.266
  0
LINE
  8
0
 10
19.8037
 20
220.266
 11
19.9069
 21
220.195
  0
LINE
  8
0
 10
19.9069
 20
220.195
 11
20.0037
 21
220.115
  0
LINE
  8
0
 10
20.0037
 20
220.115
 11
20.0934
 21
220.027
  0
LINE
  8
0
 10
20.0934
 20
220.027
 11
20.1755
 21
219.932
  0
LINE
  8
0
 10
20.1755
 20
219.932
 11
20.2494
 21
219.83
  0
LINE
  8
0
 10
20.2494
 20
219.83
 11
20.3145
 21
219.723
  0
LINE
  8
0
 10
20.3145
 20
219.723
 11
20.3703
 21
219.61
  0
LINE
  8
0
 10
20.3703
 20
219.61
 11
20.4165
 21
219.493
  0
LINE
  8
0
 10
20.4165
 20
219.493
 11
20.4529
 21
219.373
  0
LINE
  8
0
 10
20.4529
 20
219.373
 11
20.479
 21
219.25
  0
LINE
  8
0
 10
20.479
 20
219.25
 11
20.4947
 21
219.126
  0
LINE
  8
0
 10
20.4947
 20
219.126
 11
20.5
 21
219
  0
LINE
  8
0
 10
20.5
 20
219
 11
20.4947
 21
218.874
  0
LINE
  8
0
 10
20.4947
 20
218.874
 11
20.479
 21
218.75
  0
LINE
  8
0
 10
20.479
 20
218.75
 11
20.4529
 21
218.627
  0
LINE
  8
0
 10
20.4529
 20
218.627
 11
20.4165
 21
218.507
  0
LINE
  8
0
 10
20.4165
 20
218.507
 11
20.3703
 21
218.39
  0
LINE
  8
0
 10
20.3703
 20
218.39
 11
20.3145
 21
218.277
  0
LINE
  8
0
 10
20.3145
 20
218.277
 11
20.2494
 21
218.17
  0
LINE
  8
0
 10
20.2494
 20
218.17
 11
20.1755
 21
218.068
  0
LINE
  8
0
 10
20.1755
 20
218.068
 11
20.0934
 21
217.973
  0
LINE
  8
0
 10
20.0934
 20
217.973
 11
20.0037
 21
217.885
  0
LINE
  8
0
 10
20.0037
 20
217.885
 11
19.9069
 21
217.805
  0
LINE
  8
0
 10
19.9069
 20
217.805
 11
19.8037
 21
217.734
  0
LINE
  8
0
 10
19.8037
 20
217.734
 11
19.6949
 21
217.671
  0
LINE
  8
0
 10
19.6949
 20
217.671
 11
19.5813
 21
217.617
  0
LINE
  8
0
 10
19.5813
 20
217.617
 11
19.4635
 21
217.573
  0
LINE
  8
0
 10
19.4635
 20
217.573
 11
19.3425
 21
217.54
  0
LINE
  8
0
 10
19.3425
 20
217.54
 11
19.2191
 21
217.516
  0
LINE
  8
0
 10
19.2191
 20
217.516
 11
19.0942
 21
217.503
  0
LINE
  8
0
 10
19.0942
 20
217.503
 11
18.9686
 21
217.5
  0
LINE
  8
0
 10
18.9686
 20
217.5
 11
18.8432
 21
217.508
  0
LINE
  8
0
 10
173
 20
202
 11
173
 21
217
  0
LINE
  8
0
 10
173
 20
217
 11
188
 21
217
  0
LINE
  8
0
 10
188
 20
217
 11
188
 21
202
  0
LINE
  8
0
 10
188
 20
202
 11
173
 21
202
  0
LINE
  8
0
 10
154
 20
202
 11
154
 21
217
  0
LINE
  8
0
 10
154
 20
217
 11
169
 21
217
  0
LINE
  8
0
 10
169
 20
217
 11
169
 21
202
  0
LINE
  8
0
 10
169
 20
202
 11
154
 21
202
  0
LINE
  8
0
 10
135
 20
202
 11
135
 21
217
  0
LINE
  8
0
 10
135
 20
217
 11
150
 21
217
  0
LINE
  8
0
 10
150
 20
217
 11
150
 21
202
  0
LINE
  8
0
 10
150
 20
202
 11
135
 21
202
  0
LINE
  8
0
 10
116
 20
202
 11
116
 21
217
  0
LINE
  8
0
 10
116
 20
217
 11
131
 21
217
  0
LINE
  8
0
 10
131
 20
217
 11
131
 21
202
  0
LINE
  8
0
 10
131
 20
202
 11
116
 21
202
  0
LINE
  8
0
 10
97
 20
202
 11
97
 21
217
  0
LINE
  8
0
 10
97
 20
217
 11
112
 21
217
  0
LINE
  8
0
 10
112
 20
217
 11
112
 21
202
  0
LINE
  8
0
 10
112
 20
202
 11
97
 21
202
  0
LINE
  8
0
 10
78
 20
202
 11
78
 21
217
  0
LINE
  8
0
 10
78
 20
217
 11
93
 21
217
  0
LINE
  8
0
 10
93
 20
217
 11
93
 21
202
  0
LINE
  8
0
 10
93
 20
202
 11
78
 21
202
  0
LINE
  8
0
 10
59
 20
202
 11
59
 21
217
  0
LINE
  8
0
 10
59
 20
217
 11
74
 21
217
  0
LINE
  8
0
 10
74
 20
217
 11
74
 21
202
  0
LINE
  8
0
 10
74
 20
202
 11
59
 21
202
  0
LINE
  8
0
 10
40
 20
202
 11
40
 21
217
  0
LINE
  8
0
 10
40
 20
217
 11
55
 21
217
  0
LINE
  8
0
 10
55
 20
217
 11
55
 21
202
  0
LINE
  8
0
 10
55
 20
202
 11
40
 21
202
  0
LINE
  8
0
 10
21
 20
202
 11
21
 21
217
  0
LINE
  8
0
 10
21
 20
217
 11
36
 21
217
  0
LINE
  8
0
 10
36
 20
217
 11
36
 21
202
  0
LINE
  8
0
 10
36
 20
202
 11
21
 21
202
  0
LINE
  8
0
 10
2
 20
202
 11
2
 21
217
  0
LINE
  8
0
 10
2
 20
217
 11
17
 21
217
  0
LINE
  8
0
 10
17
 20
217
 11
17
 21
202
  0
LINE
  8
0
 10
17
 20
202
 11
2
 21
202
  0
LINE
  8
0
 10
192.954
 20
95.1755
 11
193.121
 21
95.193
  0
LINE
  8
0
 10
193.121
 20
95.193
 11
193.285
 21
95.2244
  0
LINE
  8
0
 10
193.285
 20
95.2244
 11
193.446
 21
95.2695
  0
LINE
  8
0
 10
193.446
 20
95.2695
 11
193.603
 21
95.3279
  0
LINE
  8
0
 10
193.603
 20
95.3279
 11
193.755
 21
95.3992
  0
LINE
  8
0
 10
193.755
 20
95.3992
 11
193.9
 21
95.4829
  0
LINE
  8
0
 10
193.9
 20
95.4829
 11
194.038
 21
95.5785
  0
LINE
  8
0
 10
194.038
 20
95.5785
 11
194.167
 21
95.6853
  0
LINE
  8
0
 10
194.167
 20
95.6853
 11
194.286
 21
95.8025
  0
LINE
  8
0
 10
194.286
 20
95.8025
 11
194.396
 21
95.9293
  0
LINE
  8
0
 10
194.396
 20
95.9293
 11
194.494
 21
96.0648
  0
LINE
  8
0
 10
194.494
 20
96.0648
 11
194.581
 21
96.2081
  0
LINE
  8
0
 10
194.581
 20
96.2081
 11
194.656
 21
96.3581
  0
LINE
  8
0
 10
194.656
 20
96.3581
 11
194.717
 21
96.5138
  0
LINE
  8
0
 10
194.717
 20
96.5138
 11
194.766
 21
96.6742
  0
LINE
  8
0
 10
194.766
 20
96.6742
 11
194.8
 21
96.838
  0
LINE
  8
0
 10
194.8
 20
96.838
 11
194.821
 21
97.0042
  0
LINE
  8
0
 10
194.821
 20
97.0042
 11
194.828
 21
97.1716
  0
LINE
  8
0
 10
194.828
 20
97.1716
 11
194.828
 21
178.828
  0
LINE
  8
0
 10
194.828
 20
178.828
 11
194.821
 21
178.996
  0
LINE
  8
0
 10
194.821
 20
178.996
 11
194.8
 21
179.162
  0
LINE
  8
0
 10
194.8
 20
179.162
 11
194.766
 21
179.326
  0
LINE
  8
0
 10
194.766
 20
179.326
 11
194.717
 21
179.486
  0
LINE
  8
0
 10
194.717
 20
179.486
 11
194.656
 21
179.642
  0
LINE
  8
0
 10
194.656
 20
179.642
 11
194.581
 21
179.792
  0
LINE
  8
0
 10
194.581
 20
179.792
 11
194.494
 21
179.935
  0
LINE
  8
0
 10
194.494
 20
179.935
 11
194.396
 21
180.071
  0
LINE
  8
0
 10
194.396
 20
180.071
 11
194.286
 21
180.198
  0
LINE
  8
0
 10
194.286
 20
180.198
 11
194.167
 21
180.315
  0
LINE
  8
0
 10
194.167
 20
180.315
 11
194.038
 21
180.421
  0
LINE
  8
0
 10
194.038
 20
180.421
 11
193.9
 21
180.517
  0
LINE
  8
0
 10
193.9
 20
180.517
 11
193.755
 21
180.601
  0
LINE
  8
0
 10
193.755
 20
180.601
 11
193.603
 21
180.672
  0
LINE
  8
0
 10
193.603
 20
180.672
 11
193.446
 21
180.731
  0
LINE
  8
0
 10
193.446
 20
180.731
 11
193.285
 21
180.776
  0
LINE
  8
0
 10
193.285
 20
180.776
 11
193.121
 21
180.807
  0
LINE
  8
0
 10
193.121
 20
180.807
 11
192.954
 21
180.824
  0
LINE
  8
0
 10
192.954
 20
180.824
 11
192.787
 21
180.828
  0
LINE
  8
0
 10
192.787
 20
180.828
 11
-2.8703
 21
180.828
  0
LINE
  8
0
 10
-2.8703
 20
180.828
 11
-3.03748
 21
180.817
  0
LINE
  8
0
 10
-3.03748
 20
180.817
 11
-3.20319
 21
180.793
  0
LINE
  8
0
 10
-3.20319
 20
180.793
 11
-3.36626
 21
180.755
  0
LINE
  8
0
 10
-3.36626
 20
180.755
 11
-3.52556
 21
180.703
  0
LINE
  8
0
 10
-3.52556
 20
180.703
 11
-3.67998
 21
180.638
  0
LINE
  8
0
 10
-3.67998
 20
180.638
 11
-3.82841
 21
180.56
  0
LINE
  8
0
 10
-3.82841
 20
180.56
 11
-3.96985
 21
180.471
  0
LINE
  8
0
 10
-3.96985
 20
180.471
 11
-4.10327
 21
180.369
  0
LINE
  8
0
 10
-4.10327
 20
180.369
 11
-4.22775
 21
180.257
  0
LINE
  8
0
 10
-4.22775
 20
180.257
 11
-4.34241
 21
180.135
  0
LINE
  8
0
 10
-4.34241
 20
180.135
 11
-4.44646
 21
180.004
  0
LINE
  8
0
 10
-4.44646
 20
180.004
 11
-4.53915
 21
179.864
  0
LINE
  8
0
 10
-4.53915
 20
179.864
 11
-4.61984
 21
179.718
  0
LINE
  8
0
 10
-4.61984
 20
179.718
 11
-4.68797
 21
179.565
  0
LINE
  8
0
 10
-4.68797
 20
179.565
 11
-4.74306
 21
179.406
  0
LINE
  8
0
 10
-4.74306
 20
179.406
 11
-4.78471
 21
179.244
  0
LINE
  8
0
 10
-4.78471
 20
179.244
 11
-4.81265
 21
179.079
  0
LINE
  8
0
 10
-4.81265
 20
179.079
 11
-4.82666
 21
178.912
  0
LINE
  8
0
 10
-4.82666
 20
178.912
 11
-4.82666
 21
97.0878
  0
LINE
  8
0
 10
-4.82666
 20
97.0878
 11
-4.81265
 21
96.9209
  0
LINE
  8
0
 10
-4.81265
 20
96.9209
 11
-4.78471
 21
96.7558
  0
LINE
  8
0
 10
-4.78471
 20
96.7558
 11
-4.74306
 21
96.5935
  0
LINE
  8
0
 10
-4.74306
 20
96.5935
 11
-4.68797
 21
96.4353
  0
LINE
  8
0
 10
-4.68797
 20
96.4353
 11
-4.61984
 21
96.2823
  0
LINE
  8
0
 10
-4.61984
 20
96.2823
 11
-4.53915
 21
96.1355
  0
LINE
  8
0
 10
-4.53915
 20
96.1355
 11
-4.44646
 21
95.996
  0
LINE
  8
0
 10
-4.44646
 20
95.996
 11
-4.34241
 21
95.8647
  0
LINE
  8
0
 10
-4.34241
 20
95.8647
 11
-4.22775
 21
95.7426
  0
LINE
  8
0
 10
-4.22775
 20
95.7426
 11
-4.10327
 21
95.6306
  0
LINE
  8
0
 10
-4.10327
 20
95.6306
 11
-3.96985
 21
95.5293
  0
LINE
  8
0
 10
-3.96985
 20
95.5293
 11
-3.82841
 21
95.4395
  0
LINE
  8
0
 10
-3.82841
 20
95.4395
 11
-3.67998
 21
95.3619
  0
LINE
  8
0
 10
-3.67998
 20
95.3619
 11
-3.52556
 21
95.297
  0
LINE
  8
0
 10
-3.52556
 20
95.297
 11
-3.36626
 21
95.2453
  0
LINE
  8
0
 10
-3.36626
 20
95.2453
 11
-3.20319
 21
95.207
  0
LINE
  8
0
 10
-3.20319
 20
95.207
 11
-3.03748
 21
95.1825
  0
LINE
  8
0
 10
-3.03748
 20
95.1825
 11
-2.8703
 21
95.172
  0
LINE
  8
0
 10
-2.8703
 20
95.172
 11
192.787
 21
95.172
  0
LINE
  8
0
 10
192.787
 20
95.172
 11
192.954
 21
95.1755
  0
LINE
  8
0
 10
173.5
 20
159.5
 11
173.5
 21
160.495
  0
LINE
  8
0
 10
173.5
 20
160.495
 11
172.687
 21
160.495
  0
LINE
  8
0
 10
172.687
 20
160.495
 11
172.687
 21
163.996
  0
LINE
  8
0
 10
172.687
 20
163.996
 11
173.5
 21
163.996
  0
LINE
  8
0
 10
173.5
 20
163.996
 11
173.5
 21
169.004
  0
LINE
  8
0
 10
173.5
 20
169.004
 11
172.687
 21
169.004
  0
LINE
  8
0
 10
172.687
 20
169.004
 11
172.687
 21
172.505
  0
LINE
  8
0
 10
172.687
 20
172.505
 11
173.5
 21
172.505
  0
LINE
  8
0
 10
173.5
 20
172.505
 11
173.5
 21
173.5
  0
LINE
  8
0
 10
173.5
 20
173.5
 11
187.5
 21
173.5
  0
LINE
  8
0
 10
187.5
 20
173.5
 11
187.5
 21
172.505
  0
LINE
  8
0
 10
187.5
 20
172.505
 11
188.313
 21
172.505
  0
LINE
  8
0
 10
188.313
 20
172.505
 11
188.313
 21
169.004
  0
LINE
  8
0
 10
188.313
 20
169.004
 11
187.5
 21
169.004
  0
LINE
  8
0
 10
187.5
 20
169.004
 11
187.5
 21
163.996
  0
LINE
  8
0
 10
187.5
 20
163.996
 11
188.313
 21
163.996
  0
LINE
  8
0
 10
188.313
 20
163.996
 11
188.313
 21
160.495
  0
LINE
  8
0
 10
188.313
 20
160.495
 11
187.5
 21
160.495
  0
LINE
  8
0
 10
187.5
 20
160.495
 11
187.5
 21
159.5
  0
LINE
  8
0
 10
187.5
 20
159.5
 11
173.5
 21
159.5
  0
LINE
  8
0
 10
154.5
 20
159.5
 11
154.5
 21
160.495
  0
LINE
  8
0
 10
154.5
 20
160.495
 11
153.687
 21
160.495
  0
LINE
  8
0
 10
153.687
 20
160.495
 11
153.687
 21
163.996
  0
LINE
  8
0
 10
153.687
 20
163.996
 11
154.5
 21
163.996
  0
LINE
  8
0
 10
154.5
 20
163.996
 11
154.5
 21
169.004
  0
LINE
  8
0
 10
154.5
 20
169.004
 11
153.687
 21
169.004
  0
LINE
  8
0
 10
153.687
 20
169.004
 11
153.687
 21
172.505
  0
LINE
  8
0
 10
153.687
 20
172.505
 11
154.5
 21
172.505
  0
LINE
  8
0
 10
154.5
 20
172.505
 11
154.5
 21
173.5
  0
LINE
  8
0
 10
154.5
 20
173.5
 11
168.5
 21
173.5
  0
LINE
  8
0
 10
168.5
 20
173.5
 11
168.5
 21
172.505
  0
LINE
  8
0
 10
168.5
 20
172.505
 11
169.313
 21
172.505
  0
LINE
  8
0
 10
169.313
 20
172.505
 11
169.313
 21
169.004
  0
LINE
  8
0
 10
169.313
 20
169.004
 11
168.5
 21
169.004
  0
LINE
  8
0
 10
168.5
 20
169.004
 11
168.5
 21
163.996
  0
LINE
  8
0
 10
168.5
 20
163.996
 11
169.313
 21
163.996
  0
LINE
  8
0
 10
169.313
 20
163.996
 11
169.313
 21
160.495
  0
LINE
  8
0
 10
169.313
 20
160.495
 11
168.5
 21
160.495
  0
LINE
  8
0
 10
168.5
 20
160.495
 11
168.5
 21
159.5
  0
LINE
  8
0
 10
168.5
 20
159.5
 11
154.5
 21
159.5
  0
LINE
  8
0
 10
135.5
 20
159.5
 11
135.5
 21
160.495
  0
LINE
  8
0
 10
135.5
 20
160.495
 11
134.687
 21
160.495
  0
LINE
  8
0
 10
134.687
 20
160.495
 11
134.687
 21
163.996
  0
LINE
  8
0
 10
134.687
 20
163.996
 11
135.5
 21
163.996
  0
LINE
  8
0
 10
135.5
 20
163.996
 11
135.5
 21
169.004
  0
LINE
  8
0
 10
135.5
 20
169.004
 11
134.687
 21
169.004
  0
LINE
  8
0
 10
134.687
 20
169.004
 11
134.687
 21
172.505
  0
LINE
  8
0
 10
134.687
 20
172.505
 11
135.5
 21
172.505
  0
LINE
  8
0
 10
135.5
 20
172.505
 11
135.5
 21
173.5
  0
LINE
  8
0
 10
135.5
 20
173.5
 11
149.5
 21
173.5
  0
LINE
  8
0
 10
149.5
 20
173.5
 11
149.5
 21
172.505
  0
LINE
  8
0
 10
149.5
 20
172.505
 11
150.313
 21
172.505
  0
LINE
  8
0
 10
150.313
 20
172.505
 11
150.313
 21
169.004
  0
LINE
  8
0
 10
150.313
 20
169.004
 11
149.5
 21
169.004
  0
LINE
  8
0
 10
149.5
 20
169.004
 11
149.5
 21
163.996
  0
LINE
  8
0
 10
149.5
 20
163.996
 11
150.313
 21
163.996
  0
LINE
  8
0
 10
150.313
 20
163.996
 11
150.313
 21
160.495
  0
LINE
  8
0
 10
150.313
 20
160.495
 11
149.5
 21
160.495
  0
LINE
  8
0
 10
149.5
 20
160.495
 11
149.5
 21
159.5
  0
LINE
  8
0
 10
149.5
 20
159.5
 11
135.5
 21
159.5
  0
LINE
  8
0
 10
116.5
 20
159.5
 11
116.5
 21
160.495
  0
LINE
  8
0
 10
116.5
 20
160.495
 11
115.687
 21
160.495
  0
LINE
  8
0
 10
115.687
 20
160.495
 11
115.687
 21
163.996
  0
LINE
  8
0
 10
115.687
 20
163.996
 11
116.5
 21
163.996
  0
LINE
  8
0
 10
116.5
 20
163.996
 11
116.5
 21
169.004
  0
LINE
  8
0
 10
116.5
 20
169.004
 11
115.687
 21
169.004
  0
LINE
  8
0
 10
115.687
 20
169.004
 11
115.687
 21
172.505
  0
LINE
  8
0
 10
115.687
 20
172.505
 11
116.5
 21
172.505
  0
LINE
  8
0
 10
116.5
 20
172.505
 11
116.5
 21
173.5
  0
LINE
  8
0
 10
116.5
 20
173.5
 11
130.5
 21
173.5
  0
LINE
  8
0
 10
130.5
 20
173.5
 11
130.5
 21
172.505
  0
LINE
  8
0
 10
130.5
 20
172.505
 11
131.313
 21
172.505
  0
LINE
  8
0
 10
131.313
 20
172.505
 11
131.313
 21
169.004
  0
LINE
  8
0
 10
131.313
 20
169.004
 11
130.5
 21
169.004
  0
LINE
  8
0
 10
130.5
 20
169.004
 11
130.5
 21
163.996
  0
LINE
  8
0
 10
130.5
 20
163.996
 11
131.313
 21
163.996
  0
LINE
  8
0
 10
131.313
 20
163.996
 11
131.313
 21
160.495
  0
LINE
  8
0
 10
131.313
 20
160.495
 11
130.5
 21
160.495
  0
LINE
  8
0
 10
130.5
 20
160.495
 11
130.5
 21
159.5
  0
LINE
  8
0
 10
130.5
 20
159.5
 11
116.5
 21
159.5
  0
LINE
  8
0
 10
97.5
 20
159.5
 11
97.5
 21
160.495
  0
LINE
  8
0
 10
97.5
 20
160.495
 11
96.6872
 21
160.495
  0
LINE
  8
0
 10
96.6872
 20
160.495
 11
96.6872
 21
163.996
  0
LINE
  8
0
 10
96.6872
 20
163.996
 11
97.5
 21
163.996
  0
LINE
  8
0
 10
97.5
 20
163.996
 11
97.5
 21
169.004
  0
LINE
  8
0
 10
97.5
 20
169.004
 11
96.6872
 21
169.004
  0
LINE
  8
0
 10
96.6872
 20
169.004
 11
96.6872
 21
172.505
  0
LINE
  8
0
 10
96.6872
 20
172.505
 11
97.5
 21
172.505
  0
LINE
  8
0
 10
97.5
 20
172.505
 11
97.5
 21
173.5
  0
LINE
  8
0
 10
97.5
 20
173.5
 11
111.5
 21
173.5
  0
LINE
  8
0
 10
111.5
 20
173.5
 11
111.5
 21
172.505
  0
LINE
  8
0
 10
111.5
 20
172.505
 11
112.313
 21
172.505
  0
LINE
  8
0
 10
112.313
 20
172.505
 11
112.313
 21
169.004
  0
LINE
  8
0
 10
112.313
 20
169.004
 11
111.5
 21
169.004
  0
LINE
  8
0
 10
111.5
 20
169.004
 11
111.5
 21
163.996
  0
LINE
  8
0
 10
111.5
 20
163.996
 11
112.313
 21
163.996
  0
LINE
  8
0
 10
112.313
 20
163.996
 11
112.313
 21
160.495
  0
LINE
  8
0
 10
112.313
 20
160.495
 11
111.5
 21
160.495
  0
LINE
  8
0
 10
111.5
 20
160.495
 11
111.5
 21
159.5
  0
LINE
  8
0
 10
111.5
 20
159.5
 11
97.5
 21
159.5
  0
LINE
  8
0
 10
78.5
 20
159.5
 11
78.5
 21
160.495
  0
LINE
  8
0
 10
78.5
 20
160.495
 11
77.6872
 21
160.495
  0
LINE
  8
0
 10
77.6872
 20
160.495
 11
77.6872
 21
163.996
  0
LINE
  8
0
 10
77.6872
 20
163.996
 11
78.5
 21
163.996
  0
LINE
  8
0
 10
78.5
 20
163.996
 11
78.5
 21
169.004
  0
LINE
  8
0
 10
78.5
 20
169.004
 11
77.6872
 21
169.004
  0
LINE
  8
0
 10
77.6872
 20
169.004
 11
77.6872
 21
172.505
  0
LINE
  8
0
 10
77.6872
 20
172.505
 11
78.5
 21
172.505
  0
LINE
  8
0
 10
78.5
 20
172.505
 11
78.5
 21
173.5
  0
LINE
  8
0
 10
78.5
 20
173.5
 11
92.5
 21
173.5
  0
LINE
  8
0
 10
92.5
 20
173.5
 11
92.5
 21
172.505
  0
LINE
  8
0
 10
92.5
 20
172.505
 11
93.3128
 21
172.505
  0
LINE
  8
0
 10
93.3128
 20
172.505
 11
93.3128
 21
169.004
  0
LINE
  8
0
 10
93.3128
 20
169.004
 11
92.5
 21
169.004
  0
LINE
  8
0
 10
92.5
 20
169.004
 11
92.5
 21
163.996
  0
LINE
  8
0
 10
92.5
 20
163.996
 11
93.3128
 21
163.996
  0
LINE
  8
0
 10
93.3128
 20
163.996
 11
93.3128
 21
160.495
  0
LINE
  8
0
 10
93.3128
 20
160.495
 11
92.5
 21
160.495
  0
LINE
  8
0
 10
92.5
 20
160.495
 11
92.5
 21
159.5
  0
LINE
  8
0
 10
92.5
 20
159.5
 11
78.5
 21
159.5
  0
LINE
  8
0
 10
59.5
 20
159.5
 11
59.5
 21
160.495
  0
LINE
  8
0
 10
59.5
 20
160.495
 11
58.6872
 21
160.495
  0
LINE
  8
0
 10
58.6872
 20
160.495
 11
58.6872
 21
163.996
  0
LINE
  8
0
 10
58.6872
 20
163.996
 11
59.5
 21
163.996
  0
LINE
  8
0
 10
59.5
 20
163.996
 11
59.5
 21
169.004
  0
LINE
  8
0
 10
59.5
 20
169.004
 11
58.6872
 21
169.004
  0
LINE
  8
0
 10
58.6872
 20
169.004
 11
58.6872
 21
172.505
  0
LINE
  8
0
 10
58.6872
 20
172.505
 11
59.5
 21
172.505
  0
LINE
  8
0
 10
59.5
 20
172.505
 11
59.5
 21
173.5
  0
LINE
  8
0
 10
59.5
 20
173.5
 11
73.5
 21
173.5
  0
LINE
  8
0
 10
73.5
 20
173.5
 11
73.5
 21
172.505
  0
LINE
  8
0
 10
73.5
 20
172.505
 11
74.3128
 21
172.505
  0
LINE
  8
0
 10
74.3128
 20
172.505
 11
74.3128
 21
169.004
  0
LINE
  8
0
 10
74.3128
 20
169.004
 11
73.5
 21
169.004
  0
LINE
  8
0
 10
73.5
 20
169.004
 11
73.5
 21
163.996
  0
LINE
  8
0
 10
73.5
 20
163.996
 11
74.3128
 21
163.996
  0
LINE
  8
0
 10
74.3128
 20
163.996
 11
74.3128
 21
160.495
  0
LINE
  8
0
 10
74.3128
 20
160.495
 11
73.5
 21
160.495
  0
LINE
  8
0
 10
73.5
 20
160.495
 11
73.5
 21
159.5
  0
LINE
  8
0
 10
73.5
 20
159.5
 11
59.5
 21
159.5
  0
LINE
  8
0
 10
40.5
 20
159.5
 11
40.5
 21
160.495
  0
LINE
  8
0
 10
40.5
 20
160.495
 11
39.6872
 21
160.495
  0
LINE
  8
0
 10
39.6872
 20
160.495
 11
39.6872
 21
163.996
  0
LINE
  8
0
 10
39.6872
 20
163.996
 11
40.5
 21
163.996
  0
LINE
  8
0
 10
40.5
 20
163.996
 11
40.5
 21
169.004
  0
LINE
  8
0
 10
40.5
 20
169.004
 11
39.6872
 21
169.004
  0
LINE
  8
0
 10
39.6872
 20
169.004
 11
39.6872
 21
172.505
  0
LINE
  8
0
 10
39.6872
 20
172.505
 11
40.5
 21
172.505
  0
LINE
  8
0
 10
40.5
 20
172.505
 11
40.5
 21
173.5
  0
LINE
  8
0
 10
40.5
 20
173.5
 11
54.5
 21
173.5
  0
LINE
  8
0
 10
54.5
 20
173.5
 11
54.5
 21
172.505
  0
LINE
  8
0
 10
54.5
 20
172.505
 11
55.3128
 21
172.505
  0
LINE
  8
0
 10
55.3128
 20
172.505
 11
55.3128
 21
169.004
  0
LINE
  8
0
 10
55.3128
 20
169.004
 11
54.5
 21
169.004
  0
LINE
  8
0
 10
54.5
 20
169.004
 11
54.5
 21
163.996
  0
LINE
  8
0
 10
54.5
 20
163.996
 11
55.3128
 21
163.996
  0
LINE
  8
0
 10
55.3128
 20
163.996
 11
55.3128
 21
160.495
  0
LINE
  8
0
 10
55.3128
 20
160.495
 11
54.5
 21
160.495
  0
LINE
  8
0
 10
54.5
 20
160.495
 11
54.5
 21
159.5
  0
LINE
  8
0
 10
54.5
 20
159.5
 11
40.5
 21
159.5
  0
LINE
  8
0
 10
21.5
 20
159.5
 11
21.5
 21
160.495
  0
LINE
  8
0
 10
21.5
 20
160.495
 11
20.6872
 21
160.495
  0
LINE
  8
0
 10
20.6872
 20
160.495
 11
20.6872
 21
163.996
  0
LINE
  8
0
 10
20.6872
 20
163.996
 11
21.5
 21
163.996
  0
LINE
  8
0
 10
21.5
 20
163.996
 11
21.5
 21
169.004
  0
LINE
  8
0
 10
21.5
 20
169.004
 11
20.6872
 21
169.004
  0
LINE
  8
0
 10
20.6872
 20
169.004
 11
20.6872
 21
172.505
  0
LINE
  8
0
 10
20.6872
 20
172.505
 11
21.5
 21
172.505
  0
LINE
  8
0
 10
21.5
 20
172.505
 11
21.5
 21
173.5
  0
LINE
  8
0
 10
21.5
 20
173.5
 11
35.5
 21
173.5
  0
LINE
  8
0
 10
35.5
 20
173.5
 11
35.5
 21
172.505
  0
LINE
  8
0
 10
35.5
 20
172.505
 11
36.3128
 21
172.505
  0
LINE
  8
0
 10
36.3128
 20
172.505
 11
36.3128
 21
169.004
  0
LINE
  8
0
 10
36.3128
 20
169.004
 11
35.5
 21
169.004
  0
LINE
  8
0
 10
35.5
 20
169.004
 11
35.5
 21
163.996
  0
LINE
  8
0
 10
35.5
 20
163.996
 11
36.3128
 21
163.996
  0
LINE
  8
0
 10
36.3128
 20
163.996
 11
36.3128
 21
160.495
  0
LINE
  8
0
 10
36.3128
 20
160.495
 11
35.5
 21
160.495
  0
LINE
  8
0
 10
35.5
 20
160.495
 11
35.5
 21
159.5
  0
LINE
  8
0
 10
35.5
 20
159.5
 11
21.5
 21
159.5
  0
LINE
  8
0
 10
2.5
 20
159.5
 11
2.5
 21
160.495
  0
LINE
  8
0
 10
2.5
 20
160.495
 11
1.68721
 21
160.495
  0
LINE
  8
0
 10
1.68721
 20
160.495
 11
1.68721
 21
163.996
  0
LINE
  8
0
 10
1.68721
 20
163.996
 11
2.5
 21
163.996
  0
LINE
  8
0
 10
2.5
 20
163.996
 11
2.5
 21
169.004
  0
LINE
  8
0
 10
2.5
 20
169.004
 11
1.68721
 21
169.004
  0
LINE
  8
0
 10
1.68721
 20
169.004
 11
1.68721
 21
172.505
  0
LINE
  8
0
 10
1.68721
 20
172.505
 11
2.5
 21
172.505
  0
LINE
  8
0
 10
2.5
 20
172.505
 11
2.5
 21
173.5
  0
LINE
  8
0
 10
2.5
 20
173.5
 11
16.5
 21
173.5
  0
LINE
  8
0
 10
16.5
 20
173.5
 11
16.5
 21
172.505
  0
LINE
  8
0
 10
16.5
 20
172.505
 11
17.3128
 21
172.505
  0
LINE
  8
0
 10
17.3128
 20
172.505
 11
17.3128
 21
169.004
  0
LINE
  8
0
 10
17.3128
 20
169.004
 11
16.5
 21
169.004
  0
LINE
  8
0
 10
16.5
 20
169.004
 11
16.5
 21
163.996
  0
LINE
  8
0
 10
16.5
 20
163.996
 11
17.3128
 21
163.996
  0
LINE
  8
0
 10
17.3128
 20
163.996
 11
17.3128
 21
160.495
  0
LINE
  8
0
 10
17.3128
 20
160.495
 11
16.5
 21
160.495
  0
LINE
  8
0
 10
16.5
 20
160.495
 11
16.5
 21
159.5
  0
LINE
  8
0
 10
16.5
 20
159.5
 11
2.5
 21
159.5
  0
LINE
  8
0
 10
170.843
 20
155.508
 11
170.719
 21
155.527
  0
LINE
  8
0
 10
170.719
 20
155.527
 11
170.597
 21
155.555
  0
LINE
  8
0
 10
170.597
 20
155.555
 11
170.477
 21
155.594
  0
LINE
  8
0
 10
170.477
 20
155.594
 11
170.361
 21
155.643
  0
LINE
  8
0
 10
170.361
 20
155.643
 11
170.25
 21
155.701
  0
LINE
  8
0
 10
170.25
 20
155.701
 11
170.144
 21
155.768
  0
LINE
  8
0
 10
170.144
 20
155.768
 11
170.044
 21
155.844
  0
LINE
  8
0
 10
170.044
 20
155.844
 11
169.951
 21
155.928
  0
LINE
  8
0
 10
169.951
 20
155.928
 11
169.865
 21
156.02
  0
LINE
  8
0
 10
169.865
 20
156.02
 11
169.786
 21
156.118
  0
LINE
  8
0
 10
169.786
 20
156.118
 11
169.717
 21
156.223
  0
LINE
  8
0
 10
169.717
 20
156.223
 11
169.656
 21
156.333
  0
LINE
  8
0
 10
169.656
 20
156.333
 11
169.605
 21
156.448
  0
LINE
  8
0
 10
169.605
 20
156.448
 11
169.564
 21
156.566
  0
LINE
  8
0
 10
169.564
 20
156.566
 11
169.533
 21
156.688
  0
LINE
  8
0
 10
169.533
 20
156.688
 11
169.512
 21
156.812
  0
LINE
  8
0
 10
169.512
 20
156.812
 11
169.501
 21
156.937
  0
LINE
  8
0
 10
169.501
 20
156.937
 11
169.501
 21
157.063
  0
LINE
  8
0
 10
169.501
 20
157.063
 11
169.512
 21
157.188
  0
LINE
  8
0
 10
169.512
 20
157.188
 11
169.533
 21
157.312
  0
LINE
  8
0
 10
169.533
 20
157.312
 11
169.564
 21
157.434
  0
LINE
  8
0
 10
169.564
 20
157.434
 11
169.605
 21
157.552
  0
LINE
  8
0
 10
169.605
 20
157.552
 11
169.656
 21
157.667
  0
LINE
  8
0
 10
169.656
 20
157.667
 11
169.717
 21
157.777
  0
LINE
  8
0
 10
169.717
 20
157.777
 11
169.786
 21
157.882
  0
LINE
  8
0
 10
169.786
 20
157.882
 11
169.865
 21
157.98
  0
LINE
  8
0
 10
169.865
 20
157.98
 11
169.951
 21
158.072
  0
LINE
  8
0
 10
169.951
 20
158.072
 11
170.044
 21
158.156
  0
LINE
  8
0
 10
170.044
 20
158.156
 11
170.144
 21
158.232
  0
LINE
  8
0
 10
170.144
 20
158.232
 11
170.25
 21
158.299
  0
LINE
  8
0
 10
170.25
 20
158.299
 11
170.361
 21
158.357
  0
LINE
  8
0
 10
170.361
 20
158.357
 11
170.477
 21
158.406
  0
LINE
  8
0
 10
170.477
 20
158.406
 11
170.597
 21
158.445
  0
LINE
  8
0
 10
170.597
 20
158.445
 11
170.719
 21
158.473
  0
LINE
  8
0
 10
170.719
 20
158.473
 11
170.843
 21
158.492
  0
LINE
  8
0
 10
170.843
 20
158.492
 11
170.969
 21
158.5
  0
LINE
  8
0
 10
170.969
 20
158.5
 11
171.094
 21
158.497
  0
LINE
  8
0
 10
171.094
 20
158.497
 11
171.219
 21
158.484
  0
LINE
  8
0
 10
171.219
 20
158.484
 11
171.343
 21
158.46
  0
LINE
  8
0
 10
171.343
 20
158.46
 11
171.464
 21
158.427
  0
LINE
  8
0
 10
171.464
 20
158.427
 11
171.581
 21
158.383
  0
LINE
  8
0
 10
171.581
 20
158.383
 11
171.695
 21
158.329
  0
LINE
  8
0
 10
171.695
 20
158.329
 11
171.804
 21
158.266
  0
LINE
  8
0
 10
171.804
 20
158.266
 11
171.907
 21
158.195
  0
LINE
  8
0
 10
171.907
 20
158.195
 11
172.004
 21
158.115
  0
LINE
  8
0
 10
172.004
 20
158.115
 11
172.093
 21
158.027
  0
LINE
  8
0
 10
172.093
 20
158.027
 11
172.176
 21
157.932
  0
LINE
  8
0
 10
172.176
 20
157.932
 11
172.249
 21
157.83
  0
LINE
  8
0
 10
172.249
 20
157.83
 11
172.314
 21
157.723
  0
LINE
  8
0
 10
172.314
 20
157.723
 11
172.37
 21
157.61
  0
LINE
  8
0
 10
172.37
 20
157.61
 11
172.417
 21
157.493
  0
LINE
  8
0
 10
172.417
 20
157.493
 11
172.453
 21
157.373
  0
LINE
  8
0
 10
172.453
 20
157.373
 11
172.479
 21
157.25
  0
LINE
  8
0
 10
172.479
 20
157.25
 11
172.495
 21
157.126
  0
LINE
  8
0
 10
172.495
 20
157.126
 11
172.5
 21
157
  0
LINE
  8
0
 10
172.5
 20
157
 11
172.495
 21
156.874
  0
LINE
  8
0
 10
172.495
 20
156.874
 11
172.479
 21
156.75
  0
LINE
  8
0
 10
172.479
 20
156.75
 11
172.453
 21
156.627
  0
LINE
  8
0
 10
172.453
 20
156.627
 11
172.417
 21
156.507
  0
LINE
  8
0
 10
172.417
 20
156.507
 11
172.37
 21
156.39
  0
LINE
  8
0
 10
172.37
 20
156.39
 11
172.314
 21
156.277
  0
LINE
  8
0
 10
172.314
 20
156.277
 11
172.249
 21
156.17
  0
LINE
  8
0
 10
172.249
 20
156.17
 11
172.176
 21
156.068
  0
LINE
  8
0
 10
172.176
 20
156.068
 11
172.093
 21
155.973
  0
LINE
  8
0
 10
172.093
 20
155.973
 11
172.004
 21
155.885
  0
LINE
  8
0
 10
172.004
 20
155.885
 11
171.907
 21
155.805
  0
LINE
  8
0
 10
171.907
 20
155.805
 11
171.804
 21
155.734
  0
LINE
  8
0
 10
171.804
 20
155.734
 11
171.695
 21
155.671
  0
LINE
  8
0
 10
171.695
 20
155.671
 11
171.581
 21
155.617
  0
LINE
  8
0
 10
171.581
 20
155.617
 11
171.464
 21
155.573
  0
LINE
  8
0
 10
171.464
 20
155.573
 11
171.343
 21
155.54
  0
LINE
  8
0
 10
171.343
 20
155.54
 11
171.219
 21
155.516
  0
LINE
  8
0
 10
171.219
 20
155.516
 11
171.094
 21
155.503
  0
LINE
  8
0
 10
171.094
 20
155.503
 11
170.969
 21
155.5
  0
LINE
  8
0
 10
170.969
 20
155.5
 11
170.843
 21
155.508
  0
LINE
  8
0
 10
18.8432
 20
155.508
 11
18.7189
 21
155.527
  0
LINE
  8
0
 10
18.7189
 20
155.527
 11
18.5966
 21
155.555
  0
LINE
  8
0
 10
18.5966
 20
155.555
 11
18.4771
 21
155.594
  0
LINE
  8
0
 10
18.4771
 20
155.594
 11
18.3613
 21
155.643
  0
LINE
  8
0
 10
18.3613
 20
155.643
 11
18.25
 21
155.701
  0
LINE
  8
0
 10
18.25
 20
155.701
 11
18.1439
 21
155.768
  0
LINE
  8
0
 10
18.1439
 20
155.768
 11
18.0439
 21
155.844
  0
LINE
  8
0
 10
18.0439
 20
155.844
 11
17.9505
 21
155.928
  0
LINE
  8
0
 10
17.9505
 20
155.928
 11
17.8645
 21
156.02
  0
LINE
  8
0
 10
17.8645
 20
156.02
 11
17.7865
 21
156.118
  0
LINE
  8
0
 10
17.7865
 20
156.118
 11
17.7169
 21
156.223
  0
LINE
  8
0
 10
17.7169
 20
156.223
 11
17.6564
 21
156.333
  0
LINE
  8
0
 10
17.6564
 20
156.333
 11
17.6053
 21
156.448
  0
LINE
  8
0
 10
17.6053
 20
156.448
 11
17.564
 21
156.566
  0
LINE
  8
0
 10
17.564
 20
156.566
 11
17.5328
 21
156.688
  0
LINE
  8
0
 10
17.5328
 20
156.688
 11
17.5118
 21
156.812
  0
LINE
  8
0
 10
17.5118
 20
156.812
 11
17.5013
 21
156.937
  0
LINE
  8
0
 10
17.5013
 20
156.937
 11
17.5013
 21
157.063
  0
LINE
  8
0
 10
17.5013
 20
157.063
 11
17.5118
 21
157.188
  0
LINE
  8
0
 10
17.5118
 20
157.188
 11
17.5328
 21
157.312
  0
LINE
  8
0
 10
17.5328
 20
157.312
 11
17.564
 21
157.434
  0
LINE
  8
0
 10
17.564
 20
157.434
 11
17.6053
 21
157.552
  0
LINE
  8
0
 10
17.6053
 20
157.552
 11
17.6564
 21
157.667
  0
LINE
  8
0
 10
17.6564
 20
157.667
 11
17.7169
 21
157.777
  0
LINE
  8
0
 10
17.7169
 20
157.777
 11
17.7865
 21
157.882
  0
LINE
  8
0
 10
17.7865
 20
157.882
 11
17.8645
 21
157.98
  0
LINE
  8
0
 10
17.8645
 20
157.98
 11
17.9505
 21
158.072
  0
LINE
  8
0
 10
17.9505
 20
158.072
 11
18.0439
 21
158.156
  0
LINE
  8
0
 10
18.0439
 20
158.156
 11
18.1439
 21
158.232
  0
LINE
  8
0
 10
18.1439
 20
158.232
 11
18.25
 21
158.299
  0
LINE
  8
0
 10
18.25
 20
158.299
 11
18.3613
 21
158.357
  0
LINE
  8
0
 10
18.3613
 20
158.357
 11
18.4771
 21
158.406
  0
LINE
  8
0
 10
18.4771
 20
158.406
 11
18.5966
 21
158.445
  0
LINE
  8
0
 10
18.5966
 20
158.445
 11
18.7189
 21
158.473
  0
LINE
  8
0
 10
18.7189
 20
158.473
 11
18.8432
 21
158.492
  0
LINE
  8
0
 10
18.8432
 20
158.492
 11
18.9686
 21
158.5
  0
LINE
  8
0
 10
18.9686
 20
158.5
 11
19.0942
 21
158.497
  0
LINE
  8
0
 10
19.0942
 20
158.497
 11
19.2191
 21
158.484
  0
LINE
  8
0
 10
19.2191
 20
158.484
 11
19.3425
 21
158.46
  0
LINE
  8
0
 10
19.3425
 20
158.46
 11
19.4635
 21
158.427
  0
LINE
  8
0
 10
19.4635
 20
158.427
 11
19.5813
 21
158.383
  0
LINE
  8
0
 10
19.5813
 20
158.383
 11
19.6949
 21
158.329
  0
LINE
  8
0
 10
19.6949
 20
158.329
 11
19.8037
 21
158.266
  0
LINE
  8
0
 10
19.8037
 20
158.266
 11
19.9069
 21
158.195
  0
LINE
  8
0
 10
19.9069
 20
158.195
 11
20.0037
 21
158.115
  0
LINE
  8
0
 10
20.0037
 20
158.115
 11
20.0934
 21
158.027
  0
LINE
  8
0
 10
20.0934
 20
158.027
 11
20.1755
 21
157.932
  0
LINE
  8
0
 10
20.1755
 20
157.932
 11
20.2494
 21
157.83
  0
LINE
  8
0
 10
20.2494
 20
157.83
 11
20.3145
 21
157.723
  0
LINE
  8
0
 10
20.3145
 20
157.723
 11
20.3703
 21
157.61
  0
LINE
  8
0
 10
20.3703
 20
157.61
 11
20.4165
 21
157.493
  0
LINE
  8
0
 10
20.4165
 20
157.493
 11
20.4529
 21
157.373
  0
LINE
  8
0
 10
20.4529
 20
157.373
 11
20.479
 21
157.25
  0
LINE
  8
0
 10
20.479
 20
157.25
 11
20.4947
 21
157.126
  0
LINE
  8
0
 10
20.4947
 20
157.126
 11
20.5
 21
157
  0
LINE
  8
0
 10
20.5
 20
157
 11
20.4947
 21
156.874
  0
LINE
  8
0
 10
20.4947
 20
156.874
 11
20.479
 21
156.75
  0
LINE
  8
0
 10
20.479
 20
156.75
 11
20.4529
 21
156.627
  0
LINE
  8
0
 10
20.4529
 20
156.627
 11
20.4165
 21
156.507
  0
LINE
  8
0
 10
20.4165
 20
156.507
 11
20.3703
 21
156.39
  0
LINE
  8
0
 10
20.3703
 20
156.39
 11
20.3145
 21
156.277
  0
LINE
  8
0
 10
20.3145
 20
156.277
 11
20.2494
 21
156.17
  0
LINE
  8
0
 10
20.2494
 20
156.17
 11
20.1755
 21
156.068
  0
LINE
  8
0
 10
20.1755
 20
156.068
 11
20.0934
 21
155.973
  0
LINE
  8
0
 10
20.0934
 20
155.973
 11
20.0037
 21
155.885
  0
LINE
  8
0
 10
20.0037
 20
155.885
 11
19.9069
 21
155.805
  0
LINE
  8
0
 10
19.9069
 20
155.805
 11
19.8037
 21
155.734
  0
LINE
  8
0
 10
19.8037
 20
155.734
 11
19.6949
 21
155.671
  0
LINE
  8
0
 10
19.6949
 20
155.671
 11
19.5813
 21
155.617
  0
LINE
  8
0
 10
19.5813
 20
155.617
 11
19.4635
 21
155.573
  0
LINE
  8
0
 10
19.4635
 20
155.573
 11
19.3425
 21
155.54
  0
LINE
  8
0
 10
19.3425
 20
155.54
 11
19.2191
 21
155.516
  0
LINE
  8
0
 10
19.2191
 20
155.516
 11
19.0942
 21
155.503
  0
LINE
  8
0
 10
19.0942
 20
155.503
 11
18.9686
 21
155.5
  0
LINE
  8
0
 10
18.9686
 20
155.5
 11
18.8432
 21
155.508
  0
LINE
  8
0
 10
173.5
 20
140.5
 11
173.5
 21
141.495
  0
LINE
  8
0
 10
173.5
 20
141.495
 11
172.687
 21
141.495
  0
LINE
  8
0
 10
172.687
 20
141.495
 11
172.687
 21
144.996
  0
LINE
  8
0
 10
172.687
 20
144.996
 11
173.5
 21
144.996
  0
LINE
  8
0
 10
173.5
 20
144.996
 11
173.5
 21
150.004
  0
LINE
  8
0
 10
173.5
 20
150.004
 11
172.687
 21
150.004
  0
LINE
  8
0
 10
172.687
 20
150.004
 11
172.687
 21
153.505
  0
LINE
  8
0
 10
172.687
 20
153.505
 11
173.5
 21
153.505
  0
LINE
  8
0
 10
173.5
 20
153.505
 11
173.5
 21
154.5
  0
LINE
  8
0
 10
173.5
 20
154.5
 11
187.5
 21
154.5
  0
LINE
  8
0
 10
187.5
 20
154.5
 11
187.5
 21
153.505
  0
LINE
  8
0
 10
187.5
 20
153.505
 11
188.313
 21
153.505
  0
LINE
  8
0
 10
188.313
 20
153.505
 11
188.313
 21
150.004
  0
LINE
  8
0
 10
188.313
 20
150.004
 11
187.5
 21
150.004
  0
LINE
  8
0
 10
187.5
 20
150.004
 11
187.5
 21
144.996
  0
LINE
  8
0
 10
187.5
 20
144.996
 11
188.313
 21
144.996
  0
LINE
  8
0
 10
188.313
 20
144.996
 11
188.313
 21
141.495
  0
LINE
  8
0
 10
188.313
 20
141.495
 11
187.5
 21
141.495
  0
LINE
  8
0
 10
187.5
 20
141.495
 11
187.5
 21
140.5
  0
LINE
  8
0
 10
187.5
 20
140.5
 11
173.5
 21
140.5
  0
LINE
  8
0
 10
154.5
 20
140.5
 11
154.5
 21
141.495
  0
LINE
  8
0
 10
154.5
 20
141.495
 11
153.687
 21
141.495
  0
LINE
  8
0
 10
153.687
 20
141.495
 11
153.687
 21
144.996
  0
LINE
  8
0
 10
153.687
 20
144.996
 11
154.5
 21
144.996
  0
LINE
  8
0
 10
154.5
 20
144.996
 11
154.5
 21
150.004
  0
LINE
  8
0
 10
154.5
 20
150.004
 11
153.687
 21
150.004
  0
LINE
  8
0
 10
153.687
 20
150.004
 11
153.687
 21
153.505
  0
LINE
  8
0
 10
153.687
 20
153.505
 11
154.5
 21
153.505
  0
LINE
  8
0
 10
154.5
 20
153.505
 11
154.5
 21
154.5
  0
LINE
  8
0
 10
154.5
 20
154.5
 11
168.5
 21
154.5
  0
LINE
  8
0
 10
168.5
 20
154.5
 11
168.5
 21
153.505
  0
LINE
  8
0
 10
168.5
 20
153.505
 11
169.313
 21
153.505
  0
LINE
  8
0
 10
169.313
 20
153.505
 11
169.313
 21
150.004
  0
LINE
  8
0
 10
169.313
 20
150.004
 11
168.5
 21
150.004
  0
LINE
  8
0
 10
168.5
 20
150.004
 11
168.5
 21
144.996
  0
LINE
  8
0
 10
168.5
 20
144.996
 11
169.313
 21
144.996
  0
LINE
  8
0
 10
169.313
 20
144.996
 11
169.313
 21
141.495
  0
LINE
  8
0
 10
169.313
 20
141.495
 11
168.5
 21
141.495
  0
LINE
  8
0
 10
168.5
 20
141.495
 11
168.5
 21
140.5
  0
LINE
  8
0
 10
168.5
 20
140.5
 11
154.5
 21
140.5
  0
LINE
  8
0
 10
135.5
 20
140.5
 11
135.5
 21
141.495
  0
LINE
  8
0
 10
135.5
 20
141.495
 11
134.687
 21
141.495
  0
LINE
  8
0
 10
134.687
 20
141.495
 11
134.687
 21
144.996
  0
LINE
  8
0
 10
134.687
 20
144.996
 11
135.5
 21
144.996
  0
LINE
  8
0
 10
135.5
 20
144.996
 11
135.5
 21
150.004
  0
LINE
  8
0
 10
135.5
 20
150.004
 11
134.687
 21
150.004
  0
LINE
  8
0
 10
134.687
 20
150.004
 11
134.687
 21
153.505
  0
LINE
  8
0
 10
134.687
 20
153.505
 11
135.5
 21
153.505
  0
LINE
  8
0
 10
135.5
 20
153.505
 11
135.5
 21
154.5
  0
LINE
  8
0
 10
135.5
 20
154.5
 11
149.5
 21
154.5
  0
LINE
  8
0
 10
149.5
 20
154.5
 11
149.5
 21
153.505
  0
LINE
  8
0
 10
149.5
 20
153.505
 11
150.313
 21
153.505
  0
LINE
  8
0
 10
150.313
 20
153.505
 11
150.313
 21
150.004
  0
LINE
  8
0
 10
150.313
 20
150.004
 11
149.5
 21
150.004
  0
LINE
  8
0
 10
149.5
 20
150.004
 11
149.5
 21
144.996
  0
LINE
  8
0
 10
149.5
 20
144.996
 11
150.313
 21
144.996
  0
LINE
  8
0
 10
150.313
 20
144.996
 11
150.313
 21
141.495
  0
LINE
  8
0
 10
150.313
 20
141.495
 11
149.5
 21
141.495
  0
LINE
  8
0
 10
149.5
 20
141.495
 11
149.5
 21
140.5
  0
LINE
  8
0
 10
149.5
 20
140.5
 11
135.5
 21
140.5
  0
LINE
  8
0
 10
116.5
 20
140.5
 11
116.5
 21
141.495
  0
LINE
  8
0
 10
116.5
 20
141.495
 11
115.687
 21
141.495
  0
LINE
  8
0
 10
115.687
 20
141.495
 11
115.687
 21
144.996
  0
LINE
  8
0
 10
115.687
 20
144.996
 11
116.5
 21
144.996
  0
LINE
  8
0
 10
116.5
 20
144.996
 11
116.5
 21
150.004
  0
LINE
  8
0
 10
116.5
 20
150.004
 11
115.687
 21
150.004
  0
LINE
  8
0
 10
115.687
 20
150.004
 11
115.687
 21
153.505
  0
LINE
  8
0
 10
115.687
 20
153.505
 11
116.5
 21
153.505
  0
LINE
  8
0
 10
116.5
 20
153.505
 11
116.5
 21
154.5
  0
LINE
  8
0
 10
116.5
 20
154.5
 11
130.5
 21
154.5
  0
LINE
  8
0
 10
130.5
 20
154.5
 11
130.5
 21
153.505
  0
LINE
  8
0
 10
130.5
 20
153.505
 11
131.313
 21
153.505
  0
LINE
  8
0
 10
131.313
 20
153.505
 11
131.313
 21
150.004
  0
LINE
  8
0
 10
131.313
 20
150.004
 11
130.5
 21
150.004
  0
LINE
  8
0
 10
130.5
 20
150.004
 11
130.5
 21
144.996
  0
LINE
  8
0
 10
130.5
 20
144.996
 11
131.313
 21
144.996
  0
LINE
  8
0
 10
131.313
 20
144.996
 11
131.313
 21
141.495
  0
LINE
  8
0
 10
131.313
 20
141.495
 11
130.5
 21
141.495
  0
LINE
  8
0
 10
130.5
 20
141.495
 11
130.5
 21
140.5
  0
LINE
  8
0
 10
130.5
 20
140.5
 11
116.5
 21
140.5
  0
LINE
  8
0
 10
97.5
 20
140.5
 11
97.5
 21
141.495
  0
LINE
  8
0
 10
97.5
 20
141.495
 11
96.6872
 21
141.495
  0
LINE
  8
0
 10
96.6872
 20
141.495
 11
96.6872
 21
144.996
  0
LINE
  8
0
 10
96.6872
 20
144.996
 11
97.5
 21
144.996
  0
LINE
  8
0
 10
97.5
 20
144.996
 11
97.5
 21
150.004
  0
LINE
  8
0
 10
97.5
 20
150.004
 11
96.6872
 21
150.004
  0
LINE
  8
0
 10
96.6872
 20
150.004
 11
96.6872
 21
153.505
  0
LINE
  8
0
 10
96.6872
 20
153.505
 11
97.5
 21
153.505
  0
LINE
  8
0
 10
97.5
 20
153.505
 11
97.5
 21
154.5
  0
LINE
  8
0
 10
97.5
 20
154.5
 11
111.5
 21
154.5
  0
LINE
  8
0
 10
111.5
 20
154.5
 11
111.5
 21
153.505
  0
LINE
  8
0
 10
111.5
 20
153.505
 11
112.313
 21
153.505
  0
LINE
  8
0
 10
112.313
 20
153.505
 11
112.313
 21
150.004
  0
LINE
  8
0
 10
112.313
 20
150.004
 11
111.5
 21
150.004
  0
LINE
  8
0
 10
111.5
 20
150.004
 11
111.5
 21
144.996
  0
LINE
  8
0
 10
111.5
 20
144.996
 11
112.313
 21
144.996
  0
LINE
  8
0
 10
112.313
 20
144.996
 11
112.313
 21
141.495
  0
LINE
  8
0
 10
112.313
 20
141.495
 11
111.5
 21
141.495
  0
LINE
  8
0
 10
111.5
 20
141.495
 11
111.5
 21
140.5
  0
LINE
  8
0
 10
111.5
 20
140.5
 11
97.5
 21
140.5
  0
LINE
  8
0
 10
78.5
 20
140.5
 11
78.5
 21
141.495
  0
LINE
  8
0
 10
78.5
 20
141.495
 11
77.6872
 21
141.495
  0
LINE
  8
0
 10
77.6872
 20
141.495
 11
77.6872
 21
144.996
  0
LINE
  8
0
 10
77.6872
 20
144.996
 11
78.5
 21
144.996
  0
LINE
  8
0
 10
78.5
 20
144.996
 11
78.5
 21
150.004
  0
LINE
  8
0
 10
78.5
 20
150.004
 11
77.6872
 21
150.004
  0
LINE
  8
0
 10
77.6872
 20
150.004
 11
77.6872
 21
153.505
  0
LINE
  8
0
 10
77.6872
 20
153.505
 11
78.5
 21
153.505
  0
LINE
  8
0
 10
78.5
 20
153.505
 11
78.5
 21
154.5
  0
LINE
  8
0
 10
78.5
 20
154.5
 11
92.5
 21
154.5
  0
LINE
  8
0
 10
92.5
 20
154.5
 11
92.5
 21
153.505
  0
LINE
  8
0
 10
92.5
 20
153.505
 11
93.3128
 21
153.505
  0
LINE
  8
0
 10
93.3128
 20
153.505
 11
93.3128
 21
150.004
  0
LINE
  8
0
 10
93.3128
 20
150.004
 11
92.5
 21
150.004
  0
LINE
  8
0
 10
92.5
 20
150.004
 11
92.5
 21
144.996
  0
LINE
  8
0
 10
92.5
 20
144.996
 11
93.3128
 21
144.996
  0
LINE
  8
0
 10
93.3128
 20
144.996
 11
93.3128
 21
141.495
  0
LINE
  8
0
 10
93.3128
 20
141.495
 11
92.5
 21
141.495
  0
LINE
  8
0
 10
92.5
 20
141.495
 11
92.5
 21
140.5
  0
LINE
  8
0
 10
92.5
 20
140.5
 11
78.5
 21
140.5
  0
LINE
  8
0
 10
59.5
 20
140.5
 11
59.5
 21
141.495
  0
LINE
  8
0
 10
59.5
 20
141.495
 11
58.6872
 21
141.495
  0
LINE
  8
0
 10
58.6872
 20
141.495
 11
58.6872
 21
144.996
  0
LINE
  8
0
 10
58.6872
 20
144.996
 11
59.5
 21
144.996
  0
LINE
  8
0
 10
59.5
 20
144.996
 11
59.5
 21
150.004
  0
LINE
  8
0
 10
59.5
 20
150.004
 11
58.6872
 21
150.004
  0
LINE
  8
0
 10
58.6872
 20
150.004
 11
58.6872
 21
153.505
  0
LINE
  8
0
 10
58.6872
 20
153.505
 11
59.5
 21
153.505
  0
LINE
  8
0
 10
59.5
 20
153.505
 11
59.5
 21
154.5
  0
LINE
  8
0
 10
59.5
 20
154.5
 11
73.5
 21
154.5
  0
LINE
  8
0
 10
73.5
 20
154.5
 11
73.5
 21
153.505
  0
LINE
  8
0
 10
73.5
 20
153.505
 11
74.3128
 21
153.505
  0
LINE
  8
0
 10
74.3128
 20
153.505
 11
74.3128
 21
150.004
  0
LINE
  8
0
 10
74.3128
 20
150.004
 11
73.5
 21
150.004
  0
LINE
  8
0
 10
73.5
 20
150.004
 11
73.5
 21
144.996
  0
LINE
  8
0
 10
73.5
 20
144.996
 11
74.3128
 21
144.996
  0
LINE
  8
0
 10
74.3128
 20
144.996
 11
74.3128
 21
141.495
  0
LINE
  8
0
 10
74.3128
 20
141.495
 11
73.5
 21
141.495
  0
LINE
  8
0
 10
73.5
 20
141.495
 11
73.5
 21
140.5
  0
LINE
  8
0
 10
73.5
 20
140.5
 11
59.5
 21
140.5
  0
LINE
  8
0
 10
40.5
 20
140.5
 11
40.5
 21
141.495
  0
LINE
  8
0
 10
40.5
 20
141.495
 11
39.6872
 21
141.495
  0
LINE
  8
0
 10
39.6872
 20
141.495
 11
39.6872
 21
144.996
  0
LINE
  8
0
 10
39.6872
 20
144.996
 11
40.5
 21
144.996
  0
LINE
  8
0
 10
40.5
 20
144.996
 11
40.5
 21
150.004
  0
LINE
  8
0
 10
40.5
 20
150.004
 11
39.6872
 21
150.004
  0
LINE
  8
0
 10
39.6872
 20
150.004
 11
39.6872
 21
153.505
  0
LINE
  8
0
 10
39.6872
 20
153.505
 11
40.5
 21
153.505
  0
LINE
  8
0
 10
40.5
 20
153.505
 11
40.5
 21
154.5
  0
LINE
  8
0
 10
40.5
 20
154.5
 11
54.5
 21
154.5
  0
LINE
  8
0
 10
54.5
 20
154.5
 11
54.5
 21
153.505
  0
LINE
  8
0
 10
54.5
 20
153.505
 11
55.3128
 21
153.505
  0
LINE
  8
0
 10
55.3128
 20
153.505
 11
55.3128
 21
150.004
  0
LINE
  8
0
 10
55.3128
 20
150.004
 11
54.5
 21
150.004
  0
LINE
  8
0
 10
54.5
 20
150.004
 11
54.5
 21
144.996
  0
LINE
  8
0
 10
54.5
 20
144.996
 11
55.3128
 21
144.996
  0
LINE
  8
0
 10
55.3128
 20
144.996
 11
55.3128
 21
141.495
  0
LINE
  8
0
 10
55.3128
 20
141.495
 11
54.5
 21
141.495
  0
LINE
  8
0
 10
54.5
 20
141.495
 11
54.5
 21
140.5
  0
LINE
  8
0
 10
54.5
 20
140.5
 11
40.5
 21
140.5
  0
LINE
  8
0
 10
21.5
 20
140.5
 11
21.5
 21
141.495
  0
LINE
  8
0
 10
21.5
 20
141.495
 11
20.6872
 21
141.495
  0
LINE
  8
0
 10
20.6872
 20
141.495
 11
20.6872
 21
144.996
  0
LINE
  8
0
 10
20.6872
 20
144.996
 11
21.5
 21
144.996
  0
LINE
  8
0
 10
21.5
 20
144.996
 11
21.5
 21
150.004
  0
LINE
  8
0
 10
21.5
 20
150.004
 11
20.6872
 21
150.004
  0
LINE
  8
0
 10
20.6872
 20
150.004
 11
20.6872
 21
153.505
  0
LINE
  8
0
 10
20.6872
 20
153.505
 11
21.5
 21
153.505
  0
LINE
  8
0
 10
21.5
 20
153.505
 11
21.5
 21
154.5
  0
LINE
  8
0
 10
21.5
 20
154.5
 11
35.5
 21
154.5
  0
LINE
  8
0
 10
35.5
 20
154.5
 11
35.5
 21
153.505
  0
LINE
  8
0
 10
35.5
 20
153.505
 11
36.3128
 21
153.505
  0
LINE
  8
0
 10
36.3128
 20
153.505
 11
36.3128
 21
150.004
  0
LINE
  8
0
 10
36.3128
 20
150.004
 11
35.5
 21
150.004
  0
LINE
  8
0
 10
35.5
 20
150.004
 11
35.5
 21
144.996
  0
LINE
  8
0
 10
35.5
 20
144.996
 11
36.3128
 21
144.996
  0
LINE
  8
0
 10
36.3128
 20
144.996
 11
36.3128
 21
141.495
  0
LINE
  8
0
 10
36.3128
 20
141.495
 11
35.5
 21
141.495
  0
LINE
  8
0
 10
35.5
 20
141.495
 11
35.5
 21
140.5
  0
LINE
  8
0
 10
35.5
 20
140.5
 11
21.5
 21
140.5
  0
LINE
  8
0
 10
2.5
 20
140.5
 11
2.5
 21
141.495
  0
LINE
  8
0
 10
2.5
 20
141.495
 11
1.68721
 21
141.495
  0
LINE
  8
0
 10
1.68721
 20
141.495
 11
1.68721
 21
144.996
  0
LINE
  8
0
 10
1.68721
 20
144.996
 11
2.5
 21
144.996
  0
LINE
  8
0
 10
2.5
 20
144.996
 11
2.5
 21
150.004
  0
LINE
  8
0
 10
2.5
 20
150.004
 11
1.68721
 21
150.004
  0
LINE
  8
0
 10
1.68721
 20
150.004
 11
1.68721
 21
153.505
  0
LINE
  8
0
 10
1.68721
 20
153.505
 11
2.5
 21
153.505
  0
LINE
  8
0
 10
2.5
 20
153.505
 11
2.5
 21
154.5
  0
LINE
  8
0
 10
2.5
 20
154.5
 11
16.5
 21
154.5
  0
LINE
  8
0
 10
16.5
 20
154.5
 11
16.5
 21
153.505
  0
LINE
  8
0
 10
16.5
 20
153.505
 11
17.3128
 21
153.505
  0
LINE
  8
0
 10
17.3128
 20
153.505
 11
17.3128
 21
150.004
  0
LINE
  8
0
 10
17.3128
 20
150.004
 11
16.5
 21
150.004
  0
LINE
  8
0
 10
16.5
 20
150.004
 11
16.5
 21
144.996
  0
LINE
  8
0
 10
16.5
 20
144.996
 11
17.3128
 21
144.996
  0
LINE
  8
0
 10
17.3128
 20
144.996
 11
17.3128
 21
141.495
  0
LINE
  8
0
 10
17.3128
 20
141.495
 11
16.5
 21
141.495
  0
LINE
  8
0
 10
16.5
 20
141.495
 11
16.5
 21
140.5
  0
LINE
  8
0
 10
16.5
 20
140.5
 11
2.5
 21
140.5
  0
LINE
  8
0
 10
94.8432
 20
136.508
 11
94.7189
 21
136.527
  0
LINE
  8
0
 10
94.7189
 20
136.527
 11
94.5966
 21
136.555
  0
LINE
  8
0
 10
94.5966
 20
136.555
 11
94.4771
 21
136.594
  0
LINE
  8
0
 10
94.4771
 20
136.594
 11
94.3613
 21
136.643
  0
LINE
  8
0
 10
94.3613
 20
136.643
 11
94.25
 21
136.701
  0
LINE
  8
0
 10
94.25
 20
136.701
 11
94.1439
 21
136.768
  0
LINE
  8
0
 10
94.1439
 20
136.768
 11
94.0439
 21
136.844
  0
LINE
  8
0
 10
94.0439
 20
136.844
 11
93.9505
 21
136.928
  0
LINE
  8
0
 10
93.9505
 20
136.928
 11
93.8645
 21
137.02
  0
LINE
  8
0
 10
93.8645
 20
137.02
 11
93.7865
 21
137.118
  0
LINE
  8
0
 10
93.7865
 20
137.118
 11
93.7169
 21
137.223
  0
LINE
  8
0
 10
93.7169
 20
137.223
 11
93.6564
 21
137.333
  0
LINE
  8
0
 10
93.6564
 20
137.333
 11
93.6053
 21
137.448
  0
LINE
  8
0
 10
93.6053
 20
137.448
 11
93.564
 21
137.566
  0
LINE
  8
0
 10
93.564
 20
137.566
 11
93.5328
 21
137.688
  0
LINE
  8
0
 10
93.5328
 20
137.688
 11
93.5118
 21
137.812
  0
LINE
  8
0
 10
93.5118
 20
137.812
 11
93.5013
 21
137.937
  0
LINE
  8
0
 10
93.5013
 20
137.937
 11
93.5013
 21
138.063
  0
LINE
  8
0
 10
93.5013
 20
138.063
 11
93.5118
 21
138.188
  0
LINE
  8
0
 10
93.5118
 20
138.188
 11
93.5328
 21
138.312
  0
LINE
  8
0
 10
93.5328
 20
138.312
 11
93.564
 21
138.434
  0
LINE
  8
0
 10
93.564
 20
138.434
 11
93.6053
 21
138.552
  0
LINE
  8
0
 10
93.6053
 20
138.552
 11
93.6564
 21
138.667
  0
LINE
  8
0
 10
93.6564
 20
138.667
 11
93.7169
 21
138.777
  0
LINE
  8
0
 10
93.7169
 20
138.777
 11
93.7865
 21
138.882
  0
LINE
  8
0
 10
93.7865
 20
138.882
 11
93.8645
 21
138.98
  0
LINE
  8
0
 10
93.8645
 20
138.98
 11
93.9505
 21
139.072
  0
LINE
  8
0
 10
93.9505
 20
139.072
 11
94.0439
 21
139.156
  0
LINE
  8
0
 10
94.0439
 20
139.156
 11
94.1439
 21
139.232
  0
LINE
  8
0
 10
94.1439
 20
139.232
 11
94.25
 21
139.299
  0
LINE
  8
0
 10
94.25
 20
139.299
 11
94.3613
 21
139.357
  0
LINE
  8
0
 10
94.3613
 20
139.357
 11
94.4771
 21
139.406
  0
LINE
  8
0
 10
94.4771
 20
139.406
 11
94.5966
 21
139.445
  0
LINE
  8
0
 10
94.5966
 20
139.445
 11
94.7189
 21
139.473
  0
LINE
  8
0
 10
94.7189
 20
139.473
 11
94.8432
 21
139.492
  0
LINE
  8
0
 10
94.8432
 20
139.492
 11
94.9686
 21
139.5
  0
LINE
  8
0
 10
94.9686
 20
139.5
 11
95.0942
 21
139.497
  0
LINE
  8
0
 10
95.0942
 20
139.497
 11
95.2191
 21
139.484
  0
LINE
  8
0
 10
95.2191
 20
139.484
 11
95.3425
 21
139.46
  0
LINE
  8
0
 10
95.3425
 20
139.46
 11
95.4635
 21
139.427
  0
LINE
  8
0
 10
95.4635
 20
139.427
 11
95.5813
 21
139.383
  0
LINE
  8
0
 10
95.5813
 20
139.383
 11
95.6949
 21
139.329
  0
LINE
  8
0
 10
95.6949
 20
139.329
 11
95.8037
 21
139.266
  0
LINE
  8
0
 10
95.8037
 20
139.266
 11
95.9069
 21
139.195
  0
LINE
  8
0
 10
95.9069
 20
139.195
 11
96.0037
 21
139.115
  0
LINE
  8
0
 10
96.0037
 20
139.115
 11
96.0934
 21
139.027
  0
LINE
  8
0
 10
96.0934
 20
139.027
 11
96.1755
 21
138.932
  0
LINE
  8
0
 10
96.1755
 20
138.932
 11
96.2494
 21
138.83
  0
LINE
  8
0
 10
96.2494
 20
138.83
 11
96.3145
 21
138.723
  0
LINE
  8
0
 10
96.3145
 20
138.723
 11
96.3703
 21
138.61
  0
LINE
  8
0
 10
96.3703
 20
138.61
 11
96.4165
 21
138.493
  0
LINE
  8
0
 10
96.4165
 20
138.493
 11
96.4529
 21
138.373
  0
LINE
  8
0
 10
96.4529
 20
138.373
 11
96.479
 21
138.25
  0
LINE
  8
0
 10
96.479
 20
138.25
 11
96.4947
 21
138.126
  0
LINE
  8
0
 10
96.4947
 20
138.126
 11
96.5
 21
138
  0
LINE
  8
0
 10
96.5
 20
138
 11
96.4947
 21
137.874
  0
LINE
  8
0
 10
96.4947
 20
137.874
 11
96.479
 21
137.75
  0
LINE
  8
0
 10
96.479
 20
137.75
 11
96.4529
 21
137.627
  0
LINE
  8
0
 10
96.4529
 20
137.627
 11
96.4165
 21
137.507
  0
LINE
  8
0
 10
96.4165
 20
137.507
 11
96.3703
 21
137.39
  0
LINE
  8
0
 10
96.3703
 20
137.39
 11
96.3145
 21
137.277
  0
LINE
  8
0
 10
96.3145
 20
137.277
 11
96.2494
 21
137.17
  0
LINE
  8
0
 10
96.2494
 20
137.17
 11
96.1755
 21
137.068
  0
LINE
  8
0
 10
96.1755
 20
137.068
 11
96.0934
 21
136.973
  0
LINE
  8
0
 10
96.0934
 20
136.973
 11
96.0037
 21
136.885
  0
LINE
  8
0
 10
96.0037
 20
136.885
 11
95.9069
 21
136.805
  0
LINE
  8
0
 10
95.9069
 20
136.805
 11
95.8037
 21
136.734
  0
LINE
  8
0
 10
95.8037
 20
136.734
 11
95.6949
 21
136.671
  0
LINE
  8
0
 10
95.6949
 20
136.671
 11
95.5813
 21
136.617
  0
LINE
  8
0
 10
95.5813
 20
136.617
 11
95.4635
 21
136.573
  0
LINE
  8
0
 10
95.4635
 20
136.573
 11
95.3425
 21
136.54
  0
LINE
  8
0
 10
95.3425
 20
136.54
 11
95.2191
 21
136.516
  0
LINE
  8
0
 10
95.2191
 20
136.516
 11
95.0942
 21
136.503
  0
LINE
  8
0
 10
95.0942
 20
136.503
 11
94.9686
 21
136.5
  0
LINE
  8
0
 10
94.9686
 20
136.5
 11
94.8432
 21
136.508
  0
LINE
  8
0
 10
173.5
 20
121.5
 11
173.5
 21
122.495
  0
LINE
  8
0
 10
173.5
 20
122.495
 11
172.687
 21
122.495
  0
LINE
  8
0
 10
172.687
 20
122.495
 11
172.687
 21
125.996
  0
LINE
  8
0
 10
172.687
 20
125.996
 11
173.5
 21
125.996
  0
LINE
  8
0
 10
173.5
 20
125.996
 11
173.5
 21
131.004
  0
LINE
  8
0
 10
173.5
 20
131.004
 11
172.687
 21
131.004
  0
LINE
  8
0
 10
172.687
 20
131.004
 11
172.687
 21
134.505
  0
LINE
  8
0
 10
172.687
 20
134.505
 11
173.5
 21
134.505
  0
LINE
  8
0
 10
173.5
 20
134.505
 11
173.5
 21
135.5
  0
LINE
  8
0
 10
173.5
 20
135.5
 11
187.5
 21
135.5
  0
LINE
  8
0
 10
187.5
 20
135.5
 11
187.5
 21
134.505
  0
LINE
  8
0
 10
187.5
 20
134.505
 11
188.313
 21
134.505
  0
LINE
  8
0
 10
188.313
 20
134.505
 11
188.313
 21
131.004
  0
LINE
  8
0
 10
188.313
 20
131.004
 11
187.5
 21
131.004
  0
LINE
  8
0
 10
187.5
 20
131.004
 11
187.5
 21
125.996
  0
LINE
  8
0
 10
187.5
 20
125.996
 11
188.313
 21
125.996
  0
LINE
  8
0
 10
188.313
 20
125.996
 11
188.313
 21
122.495
  0
LINE
  8
0
 10
188.313
 20
122.495
 11
187.5
 21
122.495
  0
LINE
  8
0
 10
187.5
 20
122.495
 11
187.5
 21
121.5
  0
LINE
  8
0
 10
187.5
 20
121.5
 11
173.5
 21
121.5
  0
LINE
  8
0
 10
154.5
 20
121.5
 11
154.5
 21
122.495
  0
LINE
  8
0
 10
154.5
 20
122.495
 11
153.687
 21
122.495
  0
LINE
  8
0
 10
153.687
 20
122.495
 11
153.687
 21
125.996
  0
LINE
  8
0
 10
153.687
 20
125.996
 11
154.5
 21
125.996
  0
LINE
  8
0
 10
154.5
 20
125.996
 11
154.5
 21
131.004
  0
LINE
  8
0
 10
154.5
 20
131.004
 11
153.687
 21
131.004
  0
LINE
  8
0
 10
153.687
 20
131.004
 11
153.687
 21
134.505
  0
LINE
  8
0
 10
153.687
 20
134.505
 11
154.5
 21
134.505
  0
LINE
  8
0
 10
154.5
 20
134.505
 11
154.5
 21
135.5
  0
LINE
  8
0
 10
154.5
 20
135.5
 11
168.5
 21
135.5
  0
LINE
  8
0
 10
168.5
 20
135.5
 11
168.5
 21
134.505
  0
LINE
  8
0
 10
168.5
 20
134.505
 11
169.313
 21
134.505
  0
LINE
  8
0
 10
169.313
 20
134.505
 11
169.313
 21
131.004
  0
LINE
  8
0
 10
169.313
 20
131.004
 11
168.5
 21
131.004
  0
LINE
  8
0
 10
168.5
 20
131.004
 11
168.5
 21
125.996
  0
LINE
  8
0
 10
168.5
 20
125.996
 11
169.313
 21
125.996
  0
LINE
  8
0
 10
169.313
 20
125.996
 11
169.313
 21
122.495
  0
LINE
  8
0
 10
169.313
 20
122.495
 11
168.5
 21
122.495
  0
LINE
  8
0
 10
168.5
 20
122.495
 11
168.5
 21
121.5
  0
LINE
  8
0
 10
168.5
 20
121.5
 11
154.5
 21
121.5
  0
LINE
  8
0
 10
135.5
 20
121.5
 11
135.5
 21
122.495
  0
LINE
  8
0
 10
135.5
 20
122.495
 11
134.687
 21
122.495
  0
LINE
  8
0
 10
134.687
 20
122.495
 11
134.687
 21
125.996
  0
LINE
  8
0
 10
134.687
 20
125.996
 11
135.5
 21
125.996
  0
LINE
  8
0
 10
135.5
 20
125.996
 11
135.5
 21
131.004
  0
LINE
  8
0
 10
135.5
 20
131.004
 11
134.687
 21
131.004
  0
LINE
  8
0
 10
134.687
 20
131.004
 11
134.687
 21
134.505
  0
LINE
  8
0
 10
134.687
 20
134.505
 11
135.5
 21
134.505
  0
LINE
  8
0
 10
135.5
 20
134.505
 11
135.5
 21
135.5
  0
LINE
  8
0
 10
135.5
 20
135.5
 11
149.5
 21
135.5
  0
LINE
  8
0
 10
149.5
 20
135.5
 11
149.5
 21
134.505
  0
LINE
  8
0
 10
149.5
 20
134.505
 11
150.313
 21
134.505
  0
LINE
  8
0
 10
150.313
 20
134.505
 11
150.313
 21
131.004
  0
LINE
  8
0
 10
150.313
 20
131.004
 11
149.5
 21
131.004
  0
LINE
  8
0
 10
149.5
 20
131.004
 11
149.5
 21
125.996
  0
LINE
  8
0
 10
149.5
 20
125.996
 11
150.313
 21
125.996
  0
LINE
  8
0
 10
150.313
 20
125.996
 11
150.313
 21
122.495
  0
LINE
  8
0
 10
150.313
 20
122.495
 11
149.5
 21
122.495
  0
LINE
  8
0
 10
149.5
 20
122.495
 11
149.5
 21
121.5
  0
LINE
  8
0
 10
149.5
 20
121.5
 11
135.5
 21
121.5
  0
LINE
  8
0
 10
116.5
 20
121.5
 11
116.5
 21
122.495
  0
LINE
  8
0
 10
116.5
 20
122.495
 11
115.687
 21
122.495
  0
LINE
  8
0
 10
115.687
 20
122.495
 11
115.687
 21
125.996
  0
LINE
  8
0
 10
115.687
 20
125.996
 11
116.5
 21
125.996
  0
LINE
  8
0
 10
116.5
 20
125.996
 11
116.5
 21
131.004
  0
LINE
  8
0
 10
116.5
 20
131.004
 11
115.687
 21
131.004
  0
LINE
  8
0
 10
115.687
 20
131.004
 11
115.687
 21
134.505
  0
LINE
  8
0
 10
115.687
 20
134.505
 11
116.5
 21
134.505
  0
LINE
  8
0
 10
116.5
 20
134.505
 11
116.5
 21
135.5
  0
LINE
  8
0
 10
116.5
 20
135.5
 11
130.5
 21
135.5
  0
LINE
  8
0
 10
130.5
 20
135.5
 11
130.5
 21
134.505
  0
LINE
  8
0
 10
130.5
 20
134.505
 11
131.313
 21
134.505
  0
LINE
  8
0
 10
131.313
 20
134.505
 11
131.313
 21
131.004
  0
LINE
  8
0
 10
131.313
 20
131.004
 11
130.5
 21
131.004
  0
LINE
  8
0
 10
130.5
 20
131.004
 11
130.5
 21
125.996
  0
LINE
  8
0
 10
130.5
 20
125.996
 11
131.313
 21
125.996
  0
LINE
  8
0
 10
131.313
 20
125.996
 11
131.313
 21
122.495
  0
LINE
  8
0
 10
131.313
 20
122.495
 11
130.5
 21
122.495
  0
LINE
  8
0
 10
130.5
 20
122.495
 11
130.5
 21
121.5
  0
LINE
  8
0
 10
130.5
 20
121.5
 11
116.5
 21
121.5
  0
LINE
  8
0
 10
97.5
 20
121.5
 11
97.5
 21
122.495
  0
LINE
  8
0
 10
97.5
 20
122.495
 11
96.6872
 21
122.495
  0
LINE
  8
0
 10
96.6872
 20
122.495
 11
96.6872
 21
125.996
  0
LINE
  8
0
 10
96.6872
 20
125.996
 11
97.5
 21
125.996
  0
LINE
  8
0
 10
97.5
 20
125.996
 11
97.5
 21
131.004
  0
LINE
  8
0
 10
97.5
 20
131.004
 11
96.6872
 21
131.004
  0
LINE
  8
0
 10
96.6872
 20
131.004
 11
96.6872
 21
134.505
  0
LINE
  8
0
 10
96.6872
 20
134.505
 11
97.5
 21
134.505
  0
LINE
  8
0
 10
97.5
 20
134.505
 11
97.5
 21
135.5
  0
LINE
  8
0
 10
97.5
 20
135.5
 11
111.5
 21
135.5
  0
LINE
  8
0
 10
111.5
 20
135.5
 11
111.5
 21
134.505
  0
LINE
  8
0
 10
111.5
 20
134.505
 11
112.313
 21
134.505
  0
LINE
  8
0
 10
112.313
 20
134.505
 11
112.313
 21
131.004
  0
LINE
  8
0
 10
112.313
 20
131.004
 11
111.5
 21
131.004
  0
LINE
  8
0
 10
111.5
 20
131.004
 11
111.5
 21
125.996
  0
LINE
  8
0
 10
111.5
 20
125.996
 11
112.313
 21
125.996
  0
LINE
  8
0
 10
112.313
 20
125.996
 11
112.313
 21
122.495
  0
LINE
  8
0
 10
112.313
 20
122.495
 11
111.5
 21
122.495
  0
LINE
  8
0
 10
111.5
 20
122.495
 11
111.5
 21
121.5
  0
LINE
  8
0
 10
111.5
 20
121.5
 11
97.5
 21
121.5
  0
LINE
  8
0
 10
78.5
 20
121.5
 11
78.5
 21
122.495
  0
LINE
  8
0
 10
78.5
 20
122.495
 11
77.6872
 21
122.495
  0
LINE
  8
0
 10
77.6872
 20
122.495
 11
77.6872
 21
125.996
  0
LINE
  8
0
 10
77.6872
 20
125.996
 11
78.5
 21
125.996
  0
LINE
  8
0
 10
78.5
 20
125.996
 11
78.5
 21
131.004
  0
LINE
  8
0
 10
78.5
 20
131.004
 11
77.6872
 21
131.004
  0
LINE
  8
0
 10
77.6872
 20
131.004
 11
77.6872
 21
134.505
  0
LINE
  8
0
 10
77.6872
 20
134.505
 11
78.5
 21
134.505
  0
LINE
  8
0
 10
78.5
 20
134.505
 11
78.5
 21
135.5
  0
LINE
  8
0
 10
78.5
 20
135.5
 11
92.5
 21
135.5
  0
LINE
  8
0
 10
92.5
 20
135.5
 11
92.5
 21
134.505
  0
LINE
  8
0
 10
92.5
 20
134.505
 11
93.3128
 21
134.505
  0
LINE
  8
0
 10
93.3128
 20
134.505
 11
93.3128
 21
131.004
  0
LINE
  8
0
 10
93.3128
 20
131.004
 11
92.5
 21
131.004
  0
LINE
  8
0
 10
92.5
 20
131.004
 11
92.5
 21
125.996
  0
LINE
  8
0
 10
92.5
 20
125.996
 11
93.3128
 21
125.996
  0
LINE
  8
0
 10
93.3128
 20
125.996
 11
93.3128
 21
122.495
  0
LINE
  8
0
 10
93.3128
 20
122.495
 11
92.5
 21
122.495
  0
LINE
  8
0
 10
92.5
 20
122.495
 11
92.5
 21
121.5
  0
LINE
  8
0
 10
92.5
 20
121.5
 11
78.5
 21
121.5
  0
LINE
  8
0
 10
59.5
 20
121.5
 11
59.5
 21
122.495
  0
LINE
  8
0
 10
59.5
 20
122.495
 11
58.6872
 21
122.495
  0
LINE
  8
0
 10
58.6872
 20
122.495
 11
58.6872
 21
125.996
  0
LINE
  8
0
 10
58.6872
 20
125.996
 11
59.5
 21
125.996
  0
LINE
  8
0
 10
59.5
 20
125.996
 11
59.5
 21
131.004
  0
LINE
  8
0
 10
59.5
 20
131.004
 11
58.6872
 21
131.004
  0
LINE
  8
0
 10
58.6872
 20
131.004
 11
58.6872
 21
134.505
  0
LINE
  8
0
 10
58.6872
 20
134.505
 11
59.5
 21
134.505
  0
LINE
  8
0
 10
59.5
 20
134.505
 11
59.5
 21
135.5
  0
LINE
  8
0
 10
59.5
 20
135.5
 11
73.5
 21
135.5
  0
LINE
  8
0
 10
73.5
 20
135.5
 11
73.5
 21
134.505
  0
LINE
  8
0
 10
73.5
 20
134.505
 11
74.3128
 21
134.505
  0
LINE
  8
0
 10
74.3128
 20
134.505
 11
74.3128
 21
131.004
  0
LINE
  8
0
 10
74.3128
 20
131.004
 11
73.5
 21
131.004
  0
LINE
  8
0
 10
73.5
 20
131.004
 11
73.5
 21
125.996
  0
LINE
  8
0
 10
73.5
 20
125.996
 11
74.3128
 21
125.996
  0
LINE
  8
0
 10
74.3128
 20
125.996
 11
74.3128
 21
122.495
  0
LINE
  8
0
 10
74.3128
 20
122.495
 11
73.5
 21
122.495
  0
LINE
  8
0
 10
73.5
 20
122.495
 11
73.5
 21
121.5
  0
LINE
  8
0
 10
73.5
 20
121.5
 11
59.5
 21
121.5
  0
LINE
  8
0
 10
40.5
 20
121.5
 11
40.5
 21
122.495
  0
LINE
  8
0
 10
40.5
 20
122.495
 11
39.6872
 21
122.495
  0
LINE
  8
0
 10
39.6872
 20
122.495
 11
39.6872
 21
125.996
  0
LINE
  8
0
 10
39.6872
 20
125.996
 11
40.5
 21
125.996
  0
LINE
  8
0
 10
40.5
 20
125.996
 11
40.5
 21
131.004
  0
LINE
  8
0
 10
40.5
 20
131.004
 11
39.6872
 21
131.004
  0
LINE
  8
0
 10
39.6872
 20
131.004
 11
39.6872
 21
134.505
  0
LINE
  8
0
 10
39.6872
 20
134.505
 11
40.5
 21
134.505
  0
LINE
  8
0
 10
40.5
 20
134.505
 11
40.5
 21
135.5
  0
LINE
  8
0
 10
40.5
 20
135.5
 11
54.5
 21
135.5
  0
LINE
  8
0
 10
54.5
 20
135.5
 11
54.5
 21
134.505
  0
LINE
  8
0
 10
54.5
 20
134.505
 11
55.3128
 21
134.505
  0
LINE
  8
0
 10
55.3128
 20
134.505
 11
55.3128
 21
131.004
  0
LINE
  8
0
 10
55.3128
 20
131.004
 11
54.5
 21
131.004
  0
LINE
  8
0
 10
54.5
 20
131.004
 11
54.5
 21
125.996
  0
LINE
  8
0
 10
54.5
 20
125.996
 11
55.3128
 21
125.996
  0
LINE
  8
0
 10
55.3128
 20
125.996
 11
55.3128
 21
122.495
  0
LINE
  8
0
 10
55.3128
 20
122.495
 11
54.5
 21
122.495
  0
LINE
  8
0
 10
54.5
 20
122.495
 11
54.5
 21
121.5
  0
LINE
  8
0
 10
54.5
 20
121.5
 11
40.5
 21
121.5
  0
LINE
  8
0
 10
21.5
 20
121.5
 11
21.5
 21
122.495
  0
LINE
  8
0
 10
21.5
 20
122.495
 11
20.6872
 21
122.495
  0
LINE
  8
0
 10
20.6872
 20
122.495
 11
20.6872
 21
125.996
  0
LINE
  8
0
 10
20.6872
 20
125.996
 11
21.5
 21
125.996
  0
LINE
  8
0
 10
21.5
 20
125.996
 11
21.5
 21
131.004
  0
LINE
  8
0
 10
21.5
 20
131.004
 11
20.6872
 21
131.004
  0
LINE
  8
0
 10
20.6872
 20
131.004
 11
20.6872
 21
134.505
  0
LINE
  8
0
 10
20.6872
 20
134.505
 11
21.5
 21
134.505
  0
LINE
  8
0
 10
21.5
 20
134.505
 11
21.5
 21
135.5
  0
LINE
  8
0
 10
21.5
 20
135.5
 11
35.5
 21
135.5
  0
LINE
  8
0
 10
35.5
 20
135.5
 11
35.5
 21
134.505
  0
LINE
  8
0
 10
35.5
 20
134.505
 11
36.3128
 21
134.505
  0
LINE
  8
0
 10
36.3128
 20
134.505
 11
36.3128
 21
131.004
  0
LINE
  8
0
 10
36.3128
 20
131.004
 11
35.5
 21
131.004
  0
LINE
  8
0
 10
35.5
 20
131.004
 11
35.5
 21
125.996
  0
LINE
  8
0
 10
35.5
 20
125.996
 11
36.3128
 21
125.996
  0
LINE
  8
0
 10
36.3128
 20
125.996
 11
36.3128
 21
122.495
  0
LINE
  8
0
 10
36.3128
 20
122.495
 11
35.5
 21
122.495
  0
LINE
  8
0
 10
35.5
 20
122.495
 11
35.5
 21
121.5
  0
LINE
  8
0
 10
35.5
 20
121.5
 11
21.5
 21
121.5
  0
LINE
  8
0
 10
2.5
 20
121.5
 11
2.5
 21
122.495
  0
LINE
  8
0
 10
2.5
 20
122.495
 11
1.68721
 21
122.495
  0
LINE
  8
0
 10
1.68721
 20
122.495
 11
1.68721
 21
125.996
  0
LINE
  8
0
 10
1.68721
 20
125.996
 11
2.5
 21
125.996
  0
LINE
  8
0
 10
2.5
 20
125.996
 11
2.5
 21
131.004
  0
LINE
  8
0
 10
2.5
 20
131.004
 11
1.68721
 21
131.004
  0
LINE
  8
0
 10
1.68721
 20
131.004
 11
1.68721
 21
134.505
  0
LINE
  8
0
 10
1.68721
 20
134.505
 11
2.5
 21
134.505
  0
LINE
  8
0
 10
2.5
 20
134.505
 11
2.5
 21
135.5
  0
LINE
  8
0
 10
2.5
 20
135.5
 11
16.5
 21
135.5
  0
LINE
  8
0
 10
16.5
 20
135.5
 11
16.5
 21
134.505
  0
LINE
  8
0
 10
16.5
 20
134.505
 11
17.3128
 21
134.505
  0
LINE
  8
0
 10
17.3128
 20
134.505
 11
17.3128
 21
131.004
  0
LINE
  8
0
 10
17.3128
 20
131.004
 11
16.5
 21
131.004
  0
LINE
  8
0
 10
16.5
 20
131.004
 11
16.5
 21
125.996
  0
LINE
  8
0
 10
16.5
 20
125.996
 11
17.3128
 21
125.996
  0
LINE
  8
0
 10
17.3128
 20
125.996
 11
17.3128
 21
122.495
  0
LINE
  8
0
 10
17.3128
 20
122.495
 11
16.5
 21
122.495
  0
LINE
  8
0
 10
16.5
 20
122.495
 11
16.5
 21
121.5
  0
LINE
  8
0
 10
16.5
 20
121.5
 11
2.5
 21
121.5
  0
LINE
  8
0
 10
170.843
 20
117.508
 11
170.719
 21
117.527
  0
LINE
  8
0
 10
170.719
 20
117.527
 11
170.597
 21
117.555
  0
LINE
  8
0
 10
170.597
 20
117.555
 11
170.477
 21
117.594
  0
LINE
  8
0
 10
170.477
 20
117.594
 11
170.361
 21
117.643
  0
LINE
  8
0
 10
170.361
 20
117.643
 11
170.25
 21
117.701
  0
LINE
  8
0
 10
170.25
 20
117.701
 11
170.144
 21
117.768
  0
LINE
  8
0
 10
170.144
 20
117.768
 11
170.044
 21
117.844
  0
LINE
  8
0
 10
170.044
 20
117.844
 11
169.951
 21
117.928
  0
LINE
  8
0
 10
169.951
 20
117.928
 11
169.865
 21
118.02
  0
LINE
  8
0
 10
169.865
 20
118.02
 11
169.786
 21
118.118
  0
LINE
  8
0
 10
169.786
 20
118.118
 11
169.717
 21
118.223
  0
LINE
  8
0
 10
169.717
 20
118.223
 11
169.656
 21
118.333
  0
LINE
  8
0
 10
169.656
 20
118.333
 11
169.605
 21
118.448
  0
LINE
  8
0
 10
169.605
 20
118.448
 11
169.564
 21
118.566
  0
LINE
  8
0
 10
169.564
 20
118.566
 11
169.533
 21
118.688
  0
LINE
  8
0
 10
169.533
 20
118.688
 11
169.512
 21
118.812
  0
LINE
  8
0
 10
169.512
 20
118.812
 11
169.501
 21
118.937
  0
LINE
  8
0
 10
169.501
 20
118.937
 11
169.501
 21
119.063
  0
LINE
  8
0
 10
169.501
 20
119.063
 11
169.512
 21
119.188
  0
LINE
  8
0
 10
169.512
 20
119.188
 11
169.533
 21
119.312
  0
LINE
  8
0
 10
169.533
 20
119.312
 11
169.564
 21
119.434
  0
LINE
  8
0
 10
169.564
 20
119.434
 11
169.605
 21
119.552
  0
LINE
  8
0
 10
169.605
 20
119.552
 11
169.656
 21
119.667
  0
LINE
  8
0
 10
169.656
 20
119.667
 11
169.717
 21
119.777
  0
LINE
  8
0
 10
169.717
 20
119.777
 11
169.786
 21
119.882
  0
LINE
  8
0
 10
169.786
 20
119.882
 11
169.865
 21
119.98
  0
LINE
  8
0
 10
169.865
 20
119.98
 11
169.951
 21
120.072
  0
LINE
  8
0
 10
169.951
 20
120.072
 11
170.044
 21
120.156
  0
LINE
  8
0
 10
170.044
 20
120.156
 11
170.144
 21
120.232
  0
LINE
  8
0
 10
170.144
 20
120.232
 11
170.25
 21
120.299
  0
LINE
  8
0
 10
170.25
 20
120.299
 11
170.361
 21
120.357
  0
LINE
  8
0
 10
170.361
 20
120.357
 11
170.477
 21
120.406
  0
LINE
  8
0
 10
170.477
 20
120.406
 11
170.597
 21
120.445
  0
LINE
  8
0
 10
170.597
 20
120.445
 11
170.719
 21
120.473
  0
LINE
  8
0
 10
170.719
 20
120.473
 11
170.843
 21
120.492
  0
LINE
  8
0
 10
170.843
 20
120.492
 11
170.969
 21
120.5
  0
LINE
  8
0
 10
170.969
 20
120.5
 11
171.094
 21
120.497
  0
LINE
  8
0
 10
171.094
 20
120.497
 11
171.219
 21
120.484
  0
LINE
  8
0
 10
171.219
 20
120.484
 11
171.343
 21
120.46
  0
LINE
  8
0
 10
171.343
 20
120.46
 11
171.464
 21
120.427
  0
LINE
  8
0
 10
171.464
 20
120.427
 11
171.581
 21
120.383
  0
LINE
  8
0
 10
171.581
 20
120.383
 11
171.695
 21
120.329
  0
LINE
  8
0
 10
171.695
 20
120.329
 11
171.804
 21
120.266
  0
LINE
  8
0
 10
171.804
 20
120.266
 11
171.907
 21
120.195
  0
LINE
  8
0
 10
171.907
 20
120.195
 11
172.004
 21
120.115
  0
LINE
  8
0
 10
172.004
 20
120.115
 11
172.093
 21
120.027
  0
LINE
  8
0
 10
172.093
 20
120.027
 11
172.176
 21
119.932
  0
LINE
  8
0
 10
172.176
 20
119.932
 11
172.249
 21
119.83
  0
LINE
  8
0
 10
172.249
 20
119.83
 11
172.314
 21
119.723
  0
LINE
  8
0
 10
172.314
 20
119.723
 11
172.37
 21
119.61
  0
LINE
  8
0
 10
172.37
 20
119.61
 11
172.417
 21
119.493
  0
LINE
  8
0
 10
172.417
 20
119.493
 11
172.453
 21
119.373
  0
LINE
  8
0
 10
172.453
 20
119.373
 11
172.479
 21
119.25
  0
LINE
  8
0
 10
172.479
 20
119.25
 11
172.495
 21
119.126
  0
LINE
  8
0
 10
172.495
 20
119.126
 11
172.5
 21
119
  0
LINE
  8
0
 10
172.5
 20
119
 11
172.495
 21
118.874
  0
LINE
  8
0
 10
172.495
 20
118.874
 11
172.479
 21
118.75
  0
LINE
  8
0
 10
172.479
 20
118.75
 11
172.453
 21
118.627
  0
LINE
  8
0
 10
172.453
 20
118.627
 11
172.417
 21
118.507
  0
LINE
  8
0
 10
172.417
 20
118.507
 11
172.37
 21
118.39
  0
LINE
  8
0
 10
172.37
 20
118.39
 11
172.314
 21
118.277
  0
LINE
  8
0
 10
172.314
 20
118.277
 11
172.249
 21
118.17
  0
LINE
  8
0
 10
172.249
 20
118.17
 11
172.176
 21
118.068
  0
LINE
  8
0
 10
172.176
 20
118.068
 11
172.093
 21
117.973
  0
LINE
  8
0
 10
172.093
 20
117.973
 11
172.004
 21
117.885
  0
LINE
  8
0
 10
172.004
 20
117.885
 11
171.907
 21
117.805
  0
LINE
  8
0
 10
171.907
 20
117.805
 11
171.804
 21
117.734
  0
LINE
  8
0
 10
171.804
 20
117.734
 11
171.695
 21
117.671
  0
LINE
  8
0
 10
171.695
 20
117.671
 11
171.581
 21
117.617
  0
LINE
  8
0
 10
171.581
 20
117.617
 11
171.464
 21
117.573
  0
LINE
  8
0
 10
171.464
 20
117.573
 11
171.343
 21
117.54
  0
LINE
  8
0
 10
171.343
 20
117.54
 11
171.219
 21
117.516
  0
LINE
  8
0
 10
171.219
 20
117.516
 11
171.094
 21
117.503
  0
LINE
  8
0
 10
171.094
 20
117.503
 11
170.969
 21
117.5
  0
LINE
  8
0
 10
170.969
 20
117.5
 11
170.843
 21
117.508
  0
LINE
  8
0
 10
18.8432
 20
117.508
 11
18.7189
 21
117.527
  0
LINE
  8
0
 10
18.7189
 20
117.527
 11
18.5966
 21
117.555
  0
LINE
  8
0
 10
18.5966
 20
117.555
 11
18.4771
 21
117.594
  0
LINE
  8
0
 10
18.4771
 20
117.594
 11
18.3613
 21
117.643
  0
LINE
  8
0
 10
18.3613
 20
117.643
 11
18.25
 21
117.701
  0
LINE
  8
0
 10
18.25
 20
117.701
 11
18.1439
 21
117.768
  0
LINE
  8
0
 10
18.1439
 20
117.768
 11
18.0439
 21
117.844
  0
LINE
  8
0
 10
18.0439
 20
117.844
 11
17.9505
 21
117.928
  0
LINE
  8
0
 10
17.9505
 20
117.928
 11
17.8645
 21
118.02
  0
LINE
  8
0
 10
17.8645
 20
118.02
 11
17.7865
 21
118.118
  0
LINE
  8
0
 10
17.7865
 20
118.118
 11
17.7169
 21
118.223
  0
LINE
  8
0
 10
17.7169
 20
118.223
 11
17.6564
 21
118.333
  0
LINE
  8
0
 10
17.6564
 20
118.333
 11
17.6053
 21
118.448
  0
LINE
  8
0
 10
17.6053
 20
118.448
 11
17.564
 21
118.566
  0
LINE
  8
0
 10
17.564
 20
118.566
 11
17.5328
 21
118.688
  0
LINE
  8
0
 10
17.5328
 20
118.688
 11
17.5118
 21
118.812
  0
LINE
  8
0
 10
17.5118
 20
118.812
 11
17.5013
 21
118.937
  0
LINE
  8
0
 10
17.5013
 20
118.937
 11
17.5013
 21
119.063
  0
LINE
  8
0
 10
17.5013
 20
119.063
 11
17.5118
 21
119.188
  0
LINE
  8
0
 10
17.5118
 20
119.188
 11
17.5328
 21
119.312
  0
LINE
  8
0
 10
17.5328
 20
119.312
 11
17.564
 21
119.434
  0
LINE
  8
0
 10
17.564
 20
119.434
 11
17.6053
 21
119.552
  0
LINE
  8
0
 10
17.6053
 20
119.552
 11
17.6564
 21
119.667
  0
LINE
  8
0
 10
17.6564
 20
119.667
 11
17.7169
 21
119.777
  0
LINE
  8
0
 10
17.7169
 20
119.777
 11
17.7865
 21
119.882
  0
LINE
  8
0
 10
17.7865
 20
119.882
 11
17.8645
 21
119.98
  0
LINE
  8
0
 10
17.8645
 20
119.98
 11
17.9505
 21
120.072
  0
LINE
  8
0
 10
17.9505
 20
120.072
 11
18.0439
 21
120.156
  0
LINE
  8
0
 10
18.0439
 20
120.156
 11
18.1439
 21
120.232
  0
LINE
  8
0
 10
18.1439
 20
120.232
 11
18.25
 21
120.299
  0
LINE
  8
0
 10
18.25
 20
120.299
 11
18.3613
 21
120.357
  0
LINE
  8
0
 10
18.3613
 20
120.357
 11
18.4771
 21
120.406
  0
LINE
  8
0
 10
18.4771
 20
120.406
 11
18.5966
 21
120.445
  0
LINE
  8
0
 10
18.5966
 20
120.445
 11
18.7189
 21
120.473
  0
LINE
  8
0
 10
18.7189
 20
120.473
 11
18.8432
 21
120.492
  0
LINE
  8
0
 10
18.8432
 20
120.492
 11
18.9686
 21
120.5
  0
LINE
  8
0
 10
18.9686
 20
120.5
 11
19.0942
 21
120.497
  0
LINE
  8
0
 10
19.0942
 20
120.497
 11
19.2191
 21
120.484
  0
LINE
  8
0
 10
19.2191
 20
120.484
 11
19.3425
 21
120.46
  0
LINE
  8
0
 10
19.3425
 20
120.46
 11
19.4635
 21
120.427
  0
LINE
  8
0
 10
19.4635
 20
120.427
 11
19.5813
 21
120.383
  0
LINE
  8
0
 10
19.5813
 20
120.383
 11
19.6949
 21
120.329
  0
LINE
  8
0
 10
19.6949
 20
120.329
 11
19.8037
 21
120.266
  0
LINE
  8
0
 10
19.8037
 20
120.266
 11
19.9069
 21
120.195
  0
LINE
  8
0
 10
19.9069
 20
120.195
 11
20.0037
 21
120.115
  0
LINE
  8
0
 10
20.0037
 20
120.115
 11
20.0934
 21
120.027
  0
LINE
  8
0
 10
20.0934
 20
120.027
 11
20.1755
 21
119.932
  0
LINE
  8
0
 10
20.1755
 20
119.932
 11
20.2494
 21
119.83
  0
LINE
  8
0
 10
20.2494
 20
119.83
 11
20.3145
 21
119.723
  0
LINE
  8
0
 10
20.3145
 20
119.723
 11
20.3703
 21
119.61
  0
LINE
  8
0
 10
20.3703
 20
119.61
 11
20.4165
 21
119.493
  0
LINE
  8
0
 10
20.4165
 20
119.493
 11
20.4529
 21
119.373
  0
LINE
  8
0
 10
20.4529
 20
119.373
 11
20.479
 21
119.25
  0
LINE
  8
0
 10
20.479
 20
119.25
 11
20.4947
 21
119.126
  0
LINE
  8
0
 10
20.4947
 20
119.126
 11
20.5
 21
119
  0
LINE
  8
0
 10
20.5
 20
119
 11
20.4947
 21
118.874
  0
LINE
  8
0
 10
20.4947
 20
118.874
 11
20.479
 21
118.75
  0
LINE
  8
0
 10
20.479
 20
118.75
 11
20.4529
 21
118.627
  0
LINE
  8
0
 10
20.4529
 20
118.627
 11
20.4165
 21
118.507
  0
LINE
  8
0
 10
20.4165
 20
118.507
 11
20.3703
 21
118.39
  0
LINE
  8
0
 10
20.3703
 20
118.39
 11
20.3145
 21
118.277
  0
LINE
  8
0
 10
20.3145
 20
118.277
 11
20.2494
 21
118.17
  0
LINE
  8
0
 10
20.2494
 20
118.17
 11
20.1755
 21
118.068
  0
LINE
  8
0
 10
20.1755
 20
118.068
 11
20.0934
 21
117.973
  0
LINE
  8
0
 10
20.0934
 20
117.973
 11
20.0037
 21
117.885
  0
LINE
  8
0
 10
20.0037
 20
117.885
 11
19.9069
 21
117.805
  0
LINE
  8
0
 10
19.9069
 20
117.805
 11
19.8037
 21
117.734
  0
LINE
  8
0
 10
19.8037
 20
117.734
 11
19.6949
 21
117.671
  0
LINE
  8
0
 10
19.6949
 20
117.671
 11
19.5813
 21
117.617
  0
LINE
  8
0
 10
19.5813
 20
117.617
 11
19.4635
 21
117.573
  0
LINE
  8
0
 10
19.4635
 20
117.573
 11
19.3425
 21
117.54
  0
LINE
  8
0
 10
19.3425
 20
117.54
 11
19.2191
 21
117.516
  0
LINE
  8
0
 10
19.2191
 20
117.516
 11
19.0942
 21
117.503
  0
LINE
  8
0
 10
19.0942
 20
117.503
 11
18.9686
 21
117.5
  0
LINE
  8
0
 10
18.9686
 20
117.5
 11
18.8432
 21
117.508
  0
LINE
  8
0
 10
173.5
 20
102.5
 11
173.5
 21
103.495
  0
LINE
  8
0
 10
173.5
 20
103.495
 11
172.687
 21
103.495
  0
LINE
  8
0
 10
172.687
 20
103.495
 11
172.687
 21
106.996
  0
LINE
  8
0
 10
172.687
 20
106.996
 11
173.5
 21
106.996
  0
LINE
  8
0
 10
173.5
 20
106.996
 11
173.5
 21
112.004
  0
LINE
  8
0
 10
173.5
 20
112.004
 11
172.687
 21
112.004
  0
LINE
  8
0
 10
172.687
 20
112.004
 11
172.687
 21
115.505
  0
LINE
  8
0
 10
172.687
 20
115.505
 11
173.5
 21
115.505
  0
LINE
  8
0
 10
173.5
 20
115.505
 11
173.5
 21
116.5
  0
LINE
  8
0
 10
173.5
 20
116.5
 11
187.5
 21
116.5
  0
LINE
  8
0
 10
187.5
 20
116.5
 11
187.5
 21
115.505
  0
LINE
  8
0
 10
187.5
 20
115.505
 11
188.313
 21
115.505
  0
LINE
  8
0
 10
188.313
 20
115.505
 11
188.313
 21
112.004
  0
LINE
  8
0
 10
188.313
 20
112.004
 11
187.5
 21
112.004
  0
LINE
  8
0
 10
187.5
 20
112.004
 11
187.5
 21
106.996
  0
LINE
  8
0
 10
187.5
 20
106.996
 11
188.313
 21
106.996
  0
LINE
  8
0
 10
188.313
 20
106.996
 11
188.313
 21
103.495
  0
LINE
  8
0
 10
188.313
 20
103.495
 11
187.5
 21
103.495
  0
LINE
  8
0
 10
187.5
 20
103.495
 11
187.5
 21
102.5
  0
LINE
  8
0
 10
187.5
 20
102.5
 11
173.5
 21
102.5
  0
LINE
  8
0
 10
154.5
 20
102.5
 11
154.5
 21
103.495
  0
LINE
  8
0
 10
154.5
 20
103.495
 11
153.687
 21
103.495
  0
LINE
  8
0
 10
153.687
 20
103.495
 11
153.687
 21
106.996
  0
LINE
  8
0
 10
153.687
 20
106.996
 11
154.5
 21
106.996
  0
LINE
  8
0
 10
154.5
 20
106.996
 11
154.5
 21
112.004
  0
LINE
  8
0
 10
154.5
 20
112.004
 11
153.687
 21
112.004
  0
LINE
  8
0
 10
153.687
 20
112.004
 11
153.687
 21
115.505
  0
LINE
  8
0
 10
153.687
 20
115.505
 11
154.5
 21
115.505
  0
LINE
  8
0
 10
154.5
 20
115.505
 11
154.5
 21
116.5
  0
LINE
  8
0
 10
154.5
 20
116.5
 11
168.5
 21
116.5
  0
LINE
  8
0
 10
168.5
 20
116.5
 11
168.5
 21
115.505
  0
LINE
  8
0
 10
168.5
 20
115.505
 11
169.313
 21
115.505
  0
LINE
  8
0
 10
169.313
 20
115.505
 11
169.313
 21
112.004
  0
LINE
  8
0
 10
169.313
 20
112.004
 11
168.5
 21
112.004
  0
LINE
  8
0
 10
168.5
 20
112.004
 11
168.5
 21
106.996
  0
LINE
  8
0
 10
168.5
 20
106.996
 11
169.313
 21
106.996
  0
LINE
  8
0
 10
169.313
 20
106.996
 11
169.313
 21
103.495
  0
LINE
  8
0
 10
169.313
 20
103.495
 11
168.5
 21
103.495
  0
LINE
  8
0
 10
168.5
 20
103.495
 11
168.5
 21
102.5
  0
LINE
  8
0
 10
168.5
 20
102.5
 11
154.5
 21
102.5
  0
LINE
  8
0
 10
135.5
 20
102.5
 11
135.5
 21
103.495
  0
LINE
  8
0
 10
135.5
 20
103.495
 11
134.687
 21
103.495
  0
LINE
  8
0
 10
134.687
 20
103.495
 11
134.687
 21
106.996
  0
LINE
  8
0
 10
134.687
 20
106.996
 11
135.5
 21
106.996
  0
LINE
  8
0
 10
135.5
 20
106.996
 11
135.5
 21
112.004
  0
LINE
  8
0
 10
135.5
 20
112.004
 11
134.687
 21
112.004
  0
LINE
  8
0
 10
134.687
 20
112.004
 11
134.687
 21
115.505
  0
LINE
  8
0
 10
134.687
 20
115.505
 11
135.5
 21
115.505
  0
LINE
  8
0
 10
135.5
 20
115.505
 11
135.5
 21
116.5
  0
LINE
  8
0
 10
135.5
 20
116.5
 11
149.5
 21
116.5
  0
LINE
  8
0
 10
149.5
 20
116.5
 11
149.5
 21
115.505
  0
LINE
  8
0
 10
149.5
 20
115.505
 11
150.313
 21
115.505
  0
LINE
  8
0
 10
150.313
 20
115.505
 11
150.313
 21
112.004
  0
LINE
  8
0
 10
150.313
 20
112.004
 11
149.5
 21
112.004
  0
LINE
  8
0
 10
149.5
 20
112.004
 11
149.5
 21
106.996
  0
LINE
  8
0
 10
149.5
 20
106.996
 11
150.313
 21
106.996
  0
LINE
  8
0
 10
150.313
 20
106.996
 11
150.313
 21
103.495
  0
LINE
  8
0
 10
150.313
 20
103.495
 11
149.5
 21
103.495
  0
LINE
  8
0
 10
149.5
 20
103.495
 11
149.5
 21
102.5
  0
LINE
  8
0
 10
149.5
 20
102.5
 11
135.5
 21
102.5
  0
LINE
  8
0
 10
116.5
 20
102.5
 11
116.5
 21
103.495
  0
LINE
  8
0
 10
116.5
 20
103.495
 11
115.687
 21
103.495
  0
LINE
  8
0
 10
115.687
 20
103.495
 11
115.687
 21
106.996
  0
LINE
  8
0
 10
115.687
 20
106.996
 11
116.5
 21
106.996
  0
LINE
  8
0
 10
116.5
 20
106.996
 11
116.5
 21
112.004
  0
LINE
  8
0
 10
116.5
 20
112.004
 11
115.687
 21
112.004
  0
LINE
  8
0
 10
115.687
 20
112.004
 11
115.687
 21
115.505
  0
LINE
  8
0
 10
115.687
 20
115.505
 11
116.5
 21
115.505
  0
LINE
  8
0
 10
116.5
 20
115.505
 11
116.5
 21
116.5
  0
LINE
  8
0
 10
116.5
 20
116.5
 11
130.5
 21
116.5
  0
LINE
  8
0
 10
130.5
 20
116.5
 11
130.5
 21
115.505
  0
LINE
  8
0
 10
130.5
 20
115.505
 11
131.313
 21
115.505
  0
LINE
  8
0
 10
131.313
 20
115.505
 11
131.313
 21
112.004
  0
LINE
  8
0
 10
131.313
 20
112.004
 11
130.5
 21
112.004
  0
LINE
  8
0
 10
130.5
 20
112.004
 11
130.5
 21
106.996
  0
LINE
  8
0
 10
130.5
 20
106.996
 11
131.313
 21
106.996
  0
LINE
  8
0
 10
131.313
 20
106.996
 11
131.313
 21
103.495
  0
LINE
  8
0
 10
131.313
 20
103.495
 11
130.5
 21
103.495
  0
LINE
  8
0
 10
130.5
 20
103.495
 11
130.5
 21
102.5
  0
LINE
  8
0
 10
130.5
 20
102.5
 11
116.5
 21
102.5
  0
LINE
  8
0
 10
97.5
 20
102.5
 11
97.5
 21
103.495
  0
LINE
  8
0
 10
97.5
 20
103.495
 11
96.6872
 21
103.495
  0
LINE
  8
0
 10
96.6872
 20
103.495
 11
96.6872
 21
106.996
  0
LINE
  8
0
 10
96.6872
 20
106.996
 11
97.5
 21
106.996
  0
LINE
  8
0
 10
97.5
 20
106.996
 11
97.5
 21
112.004
  0
LINE
  8
0
 10
97.5
 20
112.004
 11
96.6872
 21
112.004
  0
LINE
  8
0
 10
96.6872
 20
112.004
 11
96.6872
 21
115.505
  0
LINE
  8
0
 10
96.6872
 20
115.505
 11
97.5
 21
115.505
  0
LINE
  8
0
 10
97.5
 20
115.505
 11
97.5
 21
116.5
  0
LINE
  8
0
 10
97.5
 20
116.5
 11
111.5
 21
116.5
  0
LINE
  8
0
 10
111.5
 20
116.5
 11
111.5
 21
115.505
  0
LINE
  8
0
 10
111.5
 20
115.505
 11
112.313
 21
115.505
  0
LINE
  8
0
 10
112.313
 20
115.505
 11
112.313
 21
112.004
  0
LINE
  8
0
 10
112.313
 20
112.004
 11
111.5
 21
112.004
  0
LINE
  8
0
 10
111.5
 20
112.004
 11
111.5
 21
106.996
  0
LINE
  8
0
 10
111.5
 20
106.996
 11
112.313
 21
106.996
  0
LINE
  8
0
 10
112.313
 20
106.996
 11
112.313
 21
103.495
  0
LINE
  8
0
 10
112.313
 20
103.495
 11
111.5
 21
103.495
  0
LINE
  8
0
 10
111.5
 20
103.495
 11
111.5
 21
102.5
  0
LINE
  8
0
 10
111.5
 20
102.5
 11
97.5
 21
102.5
  0
LINE
  8
0
 10
78.5
 20
102.5
 11
78.5
 21
103.495
  0
LINE
  8
0
 10
78.5
 20
103.495
 11
77.6872
 21
103.495
  0
LINE
  8
0
 10
77.6872
 20
103.495
 11
77.6872
 21
106.996
  0
LINE
  8
0
 10
77.6872
 20
106.996
 11
78.5
 21
106.996
  0
LINE
  8
0
 10
78.5
 20
106.996
 11
78.5
 21
112.004
  0
LINE
  8
0
 10
78.5
 20
112.004
 11
77.6872
 21
112.004
  0
LINE
  8
0
 10
77.6872
 20
112.004
 11
77.6872
 21
115.505
  0
LINE
  8
0
 10
77.6872
 20
115.505
 11
78.5
 21
115.505
  0
LINE
  8
0
 10
78.5
 20
115.505
 11
78.5
 21
116.5
  0
LINE
  8
0
 10
78.5
 20
116.5
 11
92.5
 21
116.5
  0
LINE
  8
0
 10
92.5
 20
116.5
 11
92.5
 21
115.505
  0
LINE
  8
0
 10
92.5
 20
115.505
 11
93.3128
 21
115.505
  0
LINE
  8
0
 10
93.3128
 20
115.505
 11
93.3128
 21
112.004
  0
LINE
  8
0
 10
93.3128
 20
112.004
 11
92.5
 21
112.004
  0
LINE
  8
0
 10
92.5
 20
112.004
 11
92.5
 21
106.996
  0
LINE
  8
0
 10
92.5
 20
106.996
 11
93.3128
 21
106.996
  0
LINE
  8
0
 10
93.3128
 20
106.996
 11
93.3128
 21
103.495
  0
LINE
  8
0
 10
93.3128
 20
103.495
 11
92.5
 21
103.495
  0
LINE
  8
0
 10
92.5
 20
103.495
 11
92.5
 21
102.5
  0
LINE
  8
0
 10
92.5
 20
102.5
 11
78.5
 21
102.5
  0
LINE
  8
0
 10
59.5
 20
102.5
 11
59.5
 21
103.495
  0
LINE
  8
0
 10
59.5
 20
103.495
 11
58.6872
 21
103.495
  0
LINE
  8
0
 10
58.6872
 20
103.495
 11
58.6872
 21
106.996
  0
LINE
  8
0
 10
58.6872
 20
106.996
 11
59.5
 21
106.996
  0
LINE
  8
0
 10
59.5
 20
106.996
 11
59.5
 21
112.004
  0
LINE
  8
0
 10
59.5
 20
112.004
 11
58.6872
 21
112.004
  0
LINE
  8
0
 10
58.6872
 20
112.004
 11
58.6872
 21
115.505
  0
LINE
  8
0
 10
58.6872
 20
115.505
 11
59.5
 21
115.505
  0
LINE
  8
0
 10
59.5
 20
115.505
 11
59.5
 21
116.5
  0
LINE
  8
0
 10
59.5
 20
116.5
 11
73.5
 21
116.5
  0
LINE
  8
0
 10
73.5
 20
116.5
 11
73.5
 21
115.505
  0
LINE
  8
0
 10
73.5
 20
115.505
 11
74.3128
 21
115.505
  0
LINE
  8
0
 10
74.3128
 20
115.505
 11
74.3128
 21
112.004
  0
LINE
  8
0
 10
74.3128
 20
112.004
 11
73.5
 21
112.004
  0
LINE
  8
0
 10
73.5
 20
112.004
 11
73.5
 21
106.996
  0
LINE
  8
0
 10
73.5
 20
106.996
 11
74.3128
 21
106.996
  0
LINE
  8
0
 10
74.3128
 20
106.996
 11
74.3128
 21
103.495
  0
LINE
  8
0
 10
74.3128
 20
103.495
 11
73.5
 21
103.495
  0
LINE
  8
0
 10
73.5
 20
103.495
 11
73.5
 21
102.5
  0
LINE
  8
0
 10
73.5
 20
102.5
 11
59.5
 21
102.5
  0
LINE
  8
0
 10
40.5
 20
102.5
 11
40.5
 21
103.495
  0
LINE
  8
0
 10
40.5
 20
103.495
 11
39.6872
 21
103.495
  0
LINE
  8
0
 10
39.6872
 20
103.495
 11
39.6872
 21
106.996
  0
LINE
  8
0
 10
39.6872
 20
106.996
 11
40.5
 21
106.996
  0
LINE
  8
0
 10
40.5
 20
106.996
 11
40.5
 21
112.004
  0
LINE
  8
0
 10
40.5
 20
112.004
 11
39.6872
 21
112.004
  0
LINE
  8
0
 10
39.6872
 20
112.004
 11
39.6872
 21
115.505
  0
LINE
  8
0
 10
39.6872
 20
115.505
 11
40.5
 21
115.505
  0
LINE
  8
0
 10
40.5
 20
115.505
 11
40.5
 21
116.5
  0
LINE
  8
0
 10
40.5
 20
116.5
 11
54.5
 21
116.5
  0
LINE
  8
0
 10
54.5
 20
116.5
 11
54.5
 21
115.505
  0
LINE
  8
0
 10
54.5
 20
115.505
 11
55.3128
 21
115.505
  0
LINE
  8
0
 10
55.3128
 20
115.505
 11
55.3128
 21
112.004
  0
LINE
  8
0
 10
55.3128
 20
112.004
 11
54.5
 21
112.004
  0
LINE
  8
0
 10
54.5
 20
112.004
 11
54.5
 21
106.996
  0
LINE
  8
0
 10
54.5
 20
106.996
 11
55.3128
 21
106.996
  0
LINE
  8
0
 10
55.3128
 20
106.996
 11
55.3128
 21
103.495
  0
LINE
  8
0
 10
55.3128
 20
103.495
 11
54.5
 21
103.495
  0
LINE
  8
0
 10
54.5
 20
103.495
 11
54.5
 21
102.5
  0
LINE
  8
0
 10
54.5
 20
102.5
 11
40.5
 21
102.5
  0
LINE
  8
0
 10
21.5
 20
102.5
 11
21.5
 21
103.495
  0
LINE
  8
0
 10
21.5
 20
103.495
 11
20.6872
 21
103.495
  0
LINE
  8
0
 10
20.6872
 20
103.495
 11
20.6872
 21
106.996
  0
LINE
  8
0
 10
20.6872
 20
106.996
 11
21.5
 21
106.996
  0
LINE
  8
0
 10
21.5
 20
106.996
 11
21.5
 21
112.004
  0
LINE
  8
0
 10
21.5
 20
112.004
 11
20.6872
 21
112.004
  0
LINE
  8
0
 10
20.6872
 20
112.004
 11
20.6872
 21
115.505
  0
LINE
  8
0
 10
20.6872
 20
115.505
 11
21.5
 21
115.505
  0
LINE
  8
0
 10
21.5
 20
115.505
 11
21.5
 21
116.5
  0
LINE
  8
0
 10
21.5
 20
116.5
 11
35.5
 21
116.5
  0
LINE
  8
0
 10
35.5
 20
116.5
 11
35.5
 21
115.505
  0
LINE
  8
0
 10
35.5
 20
115.505
 11
36.3128
 21
115.505
  0
LINE
  8
0
 10
36.3128
 20
115.505
 11
36.3128
 21
112.004
  0
LINE
  8
0
 10
36.3128
 20
112.004
 11
35.5
 21
112.004
  0
LINE
  8
0
 10
35.5
 20
112.004
 11
35.5
 21
106.996
  0
LINE
  8
0
 10
35.5
 20
106.996
 11
36.3128
 21
106.996
  0
LINE
  8
0
 10
36.3128
 20
106.996
 11
36.3128
 21
103.495
  0
LINE
  8
0
 10
36.3128
 20
103.495
 11
35.5
 21
103.495
  0
LINE
  8
0
 10
35.5
 20
103.495
 11
35.5
 21
102.5
  0
LINE
  8
0
 10
35.5
 20
102.5
 11
21.5
 21
102.5
  0
LINE
  8
0
 10
2.5
 20
102.5
 11
2.5
 21
103.495
  0
LINE
  8
0
 10
2.5
 20
103.495
 11
1.68721
 21
103.495
  0
LINE
  8
0
 10
1.68721
 20
103.495
 11
1.68721
 21
106.996
  0
LINE
  8
0
 10
1.68721
 20
106.996
 11
2.5
 21
106.996
  0
LINE
  8
0
 10
2.5
 20
106.996
 11
2.5
 21
112.004
  0
LINE
  8
0
 10
2.5
 20
112.004
 11
1.68721
 21
112.004
  0
LINE
  8
0
 10
1.68721
 20
112.004
 11
1.68721
 21
115.505
  0
LINE
  8
0
 10
1.68721
 20
115.505
 11
2.5
 21
115.505
  0
LINE
  8
0
 10
2.5
 20
115.505
 11
2.5
 21
116.5
  0
LINE
  8
0
 10
2.5
 20
116.5
 11
16.5
 21
116.5
  0
LINE
  8
0
 10
16.5
 20
116.5
 11
16.5
 21
115.505
  0
LINE
  8
0
 10
16.5
 20
115.505
 11
17.3128
 21
115.505
  0
LINE
  8
0
 10
17.3128
 20
115.505
 11
17.3128
 21
112.004
  0
LINE
  8
0
 10
17.3128
 20
112.004
 11
16.5
 21
112.004
  0
LINE
  8
0
 10
16.5
 20
112.004
 11
16.5
 21
106.996
  0
LINE
  8
0
 10
16.5
 20
106.996
 11
17.3128
 21
106.996
  0
LINE
  8
0
 10
17.3128
 20
106.996
 11
17.3128
 21
103.495
  0
LINE
  8
0
 10
17.3128
 20
103.495
 11
16.5
 21
103.495
  0
LINE
  8
0
 10
16.5
 20
103.495
 11
16.5
 21
102.5
  0
LINE
  8
0
 10
16.5
 20
102.5
 11
2.5
 21
102.5
  0
LINE
  8
0
 10
192.954
 20
-4.82448
 11
193.121
 21
-4.80696
  0
LINE
  8
0
 10
193.121
 20
-4.80696
 11
193.285
 21
-4.77557
  0
LINE
  8
0
 10
193.285
 20
-4.77557
 11
193.446
 21
-4.73053
  0
LINE
  8
0
 10
193.446
 20
-4.73053
 11
193.603
 21
-4.67215
  0
LINE
  8
0
 10
193.603
 20
-4.67215
 11
193.755
 21
-4.60083
  0
LINE
  8
0
 10
193.755
 20
-4.60083
 11
193.9
 21
-4.51707
  0
LINE
  8
0
 10
193.9
 20
-4.51707
 11
194.038
 21
-4.42148
  0
LINE
  8
0
 10
194.038
 20
-4.42148
 11
194.167
 21
-4.31471
  0
LINE
  8
0
 10
194.167
 20
-4.31471
 11
194.286
 21
-4.19751
  0
LINE
  8
0
 10
194.286
 20
-4.19751
 11
194.396
 21
-4.07071
  0
LINE
  8
0
 10
194.396
 20
-4.07071
 11
194.494
 21
-3.9352
  0
LINE
  8
0
 10
194.494
 20
-3.9352
 11
194.581
 21
-3.79193
  0
LINE
  8
0
 10
194.581
 20
-3.79193
 11
194.656
 21
-3.64189
  0
LINE
  8
0
 10
194.656
 20
-3.64189
 11
194.717
 21
-3.48616
  0
LINE
  8
0
 10
194.717
 20
-3.48616
 11
194.766
 21
-3.32581
  0
LINE
  8
0
 10
194.766
 20
-3.32581
 11
194.8
 21
-3.16196
  0
LINE
  8
0
 10
194.8
 20
-3.16196
 11
194.821
 21
-2.99577
  0
LINE
  8
0
 10
194.821
 20
-2.99577
 11
194.828
 21
-2.82841
  0
LINE
  8
0
 10
194.828
 20
-2.82841
 11
194.828
 21
78.8284
  0
LINE
  8
0
 10
194.828
 20
78.8284
 11
194.821
 21
78.9958
  0
LINE
  8
0
 10
194.821
 20
78.9958
 11
194.8
 21
79.162
  0
LINE
  8
0
 10
194.8
 20
79.162
 11
194.766
 21
79.3258
  0
LINE
  8
0
 10
194.766
 20
79.3258
 11
194.717
 21
79.4862
  0
LINE
  8
0
 10
194.717
 20
79.4862
 11
194.656
 21
79.6419
  0
LINE
  8
0
 10
194.656
 20
79.6419
 11
194.581
 21
79.7919
  0
LINE
  8
0
 10
194.581
 20
79.7919
 11
194.494
 21
79.9352
  0
LINE
  8
0
 10
194.494
 20
79.9352
 11
194.396
 21
80.0707
  0
LINE
  8
0
 10
194.396
 20
80.0707
 11
194.286
 21
80.1975
  0
LINE
  8
0
 10
194.286
 20
80.1975
 11
194.167
 21
80.3147
  0
LINE
  8
0
 10
194.167
 20
80.3147
 11
194.038
 21
80.4215
  0
LINE
  8
0
 10
194.038
 20
80.4215
 11
193.9
 21
80.5171
  0
LINE
  8
0
 10
193.9
 20
80.5171
 11
193.755
 21
80.6008
  0
LINE
  8
0
 10
193.755
 20
80.6008
 11
193.603
 21
80.6721
  0
LINE
  8
0
 10
193.603
 20
80.6721
 11
193.446
 21
80.7305
  0
LINE
  8
0
 10
193.446
 20
80.7305
 11
193.285
 21
80.7756
  0
LINE
  8
0
 10
193.285
 20
80.7756
 11
193.121
 21
80.807
  0
LINE
  8
0
 10
193.121
 20
80.807
 11
192.954
 21
80.8245
  0
LINE
  8
0
 10
192.954
 20
80.8245
 11
192.787
 21
80.828
  0
LINE
  8
0
 10
192.787
 20
80.828
 11
-2.8703
 21
80.828
  0
LINE
  8
0
 10
-2.8703
 20
80.828
 11
-3.03748
 21
80.8175
  0
LINE
  8
0
 10
-3.03748
 20
80.8175
 11
-3.20319
 21
80.793
  0
LINE
  8
0
 10
-3.20319
 20
80.793
 11
-3.36626
 21
80.7547
  0
LINE
  8
0
 10
-3.36626
 20
80.7547
 11
-3.52556
 21
80.703
  0
LINE
  8
0
 10
-3.52556
 20
80.703
 11
-3.67998
 21
80.6381
  0
LINE
  8
0
 10
-3.67998
 20
80.6381
 11
-3.82841
 21
80.5605
  0
LINE
  8
0
 10
-3.82841
 20
80.5605
 11
-3.96985
 21
80.4707
  0
LINE
  8
0
 10
-3.96985
 20
80.4707
 11
-4.10327
 21
80.3694
  0
LINE
  8
0
 10
-4.10327
 20
80.3694
 11
-4.22775
 21
80.2574
  0
LINE
  8
0
 10
-4.22775
 20
80.2574
 11
-4.34241
 21
80.1353
  0
LINE
  8
0
 10
-4.34241
 20
80.1353
 11
-4.44646
 21
80.004
  0
LINE
  8
0
 10
-4.44646
 20
80.004
 11
-4.53915
 21
79.8645
  0
LINE
  8
0
 10
-4.53915
 20
79.8645
 11
-4.61984
 21
79.7177
  0
LINE
  8
0
 10
-4.61984
 20
79.7177
 11
-4.68797
 21
79.5647
  0
LINE
  8
0
 10
-4.68797
 20
79.5647
 11
-4.74306
 21
79.4065
  0
LINE
  8
0
 10
-4.74306
 20
79.4065
 11
-4.78471
 21
79.2442
  0
LINE
  8
0
 10
-4.78471
 20
79.2442
 11
-4.81265
 21
79.0791
  0
LINE
  8
0
 10
-4.81265
 20
79.0791
 11
-4.82666
 21
78.9122
  0
LINE
  8
0
 10
-4.82666
 20
78.9122
 11
-4.82666
 21
-2.91217
  0
LINE
  8
0
 10
-4.82666
 20
-2.91217
 11
-4.81265
 21
-3.07909
  0
LINE
  8
0
 10
-4.81265
 20
-3.07909
 11
-4.78471
 21
-3.24425
  0
LINE
  8
0
 10
-4.78471
 20
-3.24425
 11
-4.74306
 21
-3.40648
  0
LINE
  8
0
 10
-4.74306
 20
-3.40648
 11
-4.68797
 21
-3.56467
  0
LINE
  8
0
 10
-4.68797
 20
-3.56467
 11
-4.61984
 21
-3.7177
  0
LINE
  8
0
 10
-4.61984
 20
-3.7177
 11
-4.53915
 21
-3.86447
  0
LINE
  8
0
 10
-4.53915
 20
-3.86447
 11
-4.44646
 21
-4.00398
  0
LINE
  8
0
 10
-4.44646
 20
-4.00398
 11
-4.34241
 21
-4.13525
  0
LINE
  8
0
 10
-4.34241
 20
-4.13525
 11
-4.22775
 21
-4.25737
  0
LINE
  8
0
 10
-4.22775
 20
-4.25737
 11
-4.10327
 21
-4.36945
  0
LINE
  8
0
 10
-4.10327
 20
-4.36945
 11
-3.96985
 21
-4.47072
  0
LINE
  8
0
 10
-3.96985
 20
-4.47072
 11
-3.82841
 21
-4.56047
  0
LINE
  8
0
 10
-3.82841
 20
-4.56047
 11
-3.67998
 21
-4.63808
  0
LINE
  8
0
 10
-3.67998
 20
-4.63808
 11
-3.52556
 21
-4.70299
  0
LINE
  8
0
 10
-3.52556
 20
-4.70299
 11
-3.36626
 21
-4.75475
  0
LINE
  8
0
 10
-3.36626
 20
-4.75475
 11
-3.20319
 21
-4.793
  0
LINE
  8
0
 10
-3.20319
 20
-4.793
 11
-3.03748
 21
-4.81746
  0
LINE
  8
0
 10
-3.03748
 20
-4.81746
 11
-2.8703
 21
-4.82799
  0
LINE
  8
0
 10
-2.8703
 20
-4.82799
 11
192.787
 21
-4.82799
  0
LINE
  8
0
 10
192.787
 20
-4.82799
 11
192.954
 21
-4.82448
  0
LINE
  8
0
 10
-1.62549
 20
71.7553
 11
-1.75014
 21
71.771
  0
LINE
  8
0
 10
-1.75014
 20
71.771
 11
-1.87302
 21
71.7971
  0
LINE
  8
0
 10
-1.87302
 20
71.7971
 11
-1.99327
 21
71.8335
  0
LINE
  8
0
 10
-1.99327
 20
71.8335
 11
-2.11008
 21
71.8797
  0
LINE
  8
0
 10
-2.11008
 20
71.8797
 11
-2.22261
 21
71.9355
  0
LINE
  8
0
 10
-2.22261
 20
71.9355
 11
-2.33008
 21
72.0006
  0
LINE
  8
0
 10
-2.33008
 20
72.0006
 11
-2.43172
 21
72.0745
  0
LINE
  8
0
 10
-2.43172
 20
72.0745
 11
-2.52681
 21
72.1566
  0
LINE
  8
0
 10
-2.52681
 20
72.1566
 11
-2.61472
 21
72.2463
  0
LINE
  8
0
 10
-2.61472
 20
72.2463
 11
-2.69479
 21
72.3431
  0
LINE
  8
0
 10
-2.69479
 20
72.3431
 11
-2.76648
 21
72.4463
  0
LINE
  8
0
 10
-2.76648
 20
72.4463
 11
-2.8293
 21
72.5551
  0
LINE
  8
0
 10
-2.8293
 20
72.5551
 11
-2.88278
 21
72.6687
  0
LINE
  8
0
 10
-2.88278
 20
72.6687
 11
-2.92657
 21
72.7865
  0
LINE
  8
0
 10
-2.92657
 20
72.7865
 11
-2.96036
 21
72.9075
  0
LINE
  8
0
 10
-2.96036
 20
72.9075
 11
-2.9839
 21
73.0309
  0
LINE
  8
0
 10
-2.9839
 20
73.0309
 11
-2.99704
 21
73.1558
  0
LINE
  8
0
 10
-2.99704
 20
73.1558
 11
-2.99966
 21
73.2814
  0
LINE
  8
0
 10
-2.99966
 20
73.2814
 11
-2.99178
 21
73.4068
  0
LINE
  8
0
 10
-2.99178
 20
73.4068
 11
-2.97342
 21
73.5311
  0
LINE
  8
0
 10
-2.97342
 20
73.5311
 11
-2.94473
 21
73.6534
  0
LINE
  8
0
 10
-2.94473
 20
73.6534
 11
-2.90591
 21
73.7729
  0
LINE
  8
0
 10
-2.90591
 20
73.7729
 11
-2.85724
 21
73.8887
  0
LINE
  8
0
 10
-2.85724
 20
73.8887
 11
-2.79903
 21
74
  0
LINE
  8
0
 10
-2.79903
 20
74
 11
-2.73172
 21
74.1061
  0
LINE
  8
0
 10
-2.73172
 20
74.1061
 11
-2.65576
 21
74.2061
  0
LINE
  8
0
 10
-2.65576
 20
74.2061
 11
-2.5717
 21
74.2995
  0
LINE
  8
0
 10
-2.5717
 20
74.2995
 11
-2.48012
 21
74.3855
  0
LINE
  8
0
 10
-2.48012
 20
74.3855
 11
-2.38167
 21
74.4635
  0
LINE
  8
0
 10
-2.38167
 20
74.4635
 11
-2.27704
 21
74.5331
  0
LINE
  8
0
 10
-2.27704
 20
74.5331
 11
-2.16695
 21
74.5936
  0
LINE
  8
0
 10
-2.16695
 20
74.5936
 11
-2.05219
 21
74.6447
  0
LINE
  8
0
 10
-2.05219
 20
74.6447
 11
-1.93353
 21
74.686
  0
LINE
  8
0
 10
-1.93353
 20
74.686
 11
-1.81186
 21
74.7172
  0
LINE
  8
0
 10
-1.81186
 20
74.7172
 11
-1.68799
 21
74.7382
  0
LINE
  8
0
 10
-1.68799
 20
74.7382
 11
-1.56281
 21
74.7487
  0
LINE
  8
0
 10
-1.56281
 20
74.7487
 11
-1.43719
 21
74.7487
  0
LINE
  8
0
 10
-1.43719
 20
74.7487
 11
-1.31201
 21
74.7382
  0
LINE
  8
0
 10
-1.31201
 20
74.7382
 11
-1.18814
 21
74.7172
  0
LINE
  8
0
 10
-1.18814
 20
74.7172
 11
-1.06647
 21
74.686
  0
LINE
  8
0
 10
-1.06647
 20
74.686
 11
-0.947815
 21
74.6447
  0
LINE
  8
0
 10
-0.947815
 20
74.6447
 11
-0.833054
 21
74.5936
  0
LINE
  8
0
 10
-0.833054
 20
74.5936
 11
-0.722961
 21
74.5331
  0
LINE
  8
0
 10
-0.722961
 20
74.5331
 11
-0.618332
 21
74.4635
  0
LINE
  8
0
 10
-0.618332
 20
74.4635
 11
-0.519882
 21
74.3855
  0
LINE
  8
0
 10
-0.519882
 20
74.3855
 11
-0.428299
 21
74.2995
  0
LINE
  8
0
 10
-0.428299
 20
74.2995
 11
-0.344238
 21
74.2061
  0
LINE
  8
0
 10
-0.344238
 20
74.2061
 11
-0.26828
 21
74.1061
  0
LINE
  8
0
 10
-0.26828
 20
74.1061
 11
-0.200974
 21
74
  0
LINE
  8
0
 10
-0.200974
 20
74
 11
-0.142746
 21
73.8887
  0
LINE
  8
0
 10
-0.142746
 20
73.8887
 11
-0.0940704
 21
73.7729
  0
LINE
  8
0
 10
-0.0940704
 20
73.7729
 11
-0.0552521
 21
73.6534
  0
LINE
  8
0
 10
-0.0552521
 20
73.6534
 11
-0.0265656
 21
73.5311
  0
LINE
  8
0
 10
-0.0265656
 20
73.5311
 11
-0.00820923
 21
73.4068
  0
LINE
  8
0
 10
-0.00820923
 20
73.4068
 11
-0.000320435
 21
73.2814
  0
LINE
  8
0
 10
-0.000320435
 20
73.2814
 11
-0.00294495
 21
73.1558
  0
LINE
  8
0
 10
-0.00294495
 20
73.1558
 11
-0.0160828
 21
73.0309
  0
LINE
  8
0
 10
-0.0160828
 20
73.0309
 11
-0.0396271
 21
72.9075
  0
LINE
  8
0
 10
-0.0396271
 20
72.9075
 11
-0.07341
 21
72.7865
  0
LINE
  8
0
 10
-0.07341
 20
72.7865
 11
-0.117203
 21
72.6687
  0
LINE
  8
0
 10
-0.117203
 20
72.6687
 11
-0.170685
 21
72.5551
  0
LINE
  8
0
 10
-0.170685
 20
72.5551
 11
-0.233505
 21
72.4463
  0
LINE
  8
0
 10
-0.233505
 20
72.4463
 11
-0.305191
 21
72.3431
  0
LINE
  8
0
 10
-0.305191
 20
72.3431
 11
-0.385269
 21
72.2463
  0
LINE
  8
0
 10
-0.385269
 20
72.2463
 11
-0.473175
 21
72.1566
  0
LINE
  8
0
 10
-0.473175
 20
72.1566
 11
-0.568268
 21
72.0745
  0
LINE
  8
0
 10
-0.568268
 20
72.0745
 11
-0.669907
 21
72.0006
  0
LINE
  8
0
 10
-0.669907
 20
72.0006
 11
-0.777359
 21
71.9355
  0
LINE
  8
0
 10
-0.777359
 20
71.9355
 11
-0.889893
 21
71.8797
  0
LINE
  8
0
 10
-0.889893
 20
71.8797
 11
-1.0067
 21
71.8335
  0
LINE
  8
0
 10
-1.0067
 20
71.8335
 11
-1.12695
 21
71.7971
  0
LINE
  8
0
 10
-1.12695
 20
71.7971
 11
-1.24983
 21
71.771
  0
LINE
  8
0
 10
-1.24983
 20
71.771
 11
-1.37448
 21
71.7553
  0
LINE
  8
0
 10
-1.37448
 20
71.7553
 11
-1.49998
 21
71.75
  0
LINE
  8
0
 10
-1.49998
 20
71.75
 11
-1.62549
 21
71.7553
  0
LINE
  8
0
 10
-1.62549
 20
56.5553
 11
-1.75014
 21
56.571
  0
LINE
  8
0
 10
-1.75014
 20
56.571
 11
-1.87302
 21
56.5971
  0
LINE
  8
0
 10
-1.87302
 20
56.5971
 11
-1.99327
 21
56.6334
  0
LINE
  8
0
 10
-1.99327
 20
56.6334
 11
-2.11008
 21
56.6797
  0
LINE
  8
0
 10
-2.11008
 20
56.6797
 11
-2.22261
 21
56.7355
  0
LINE
  8
0
 10
-2.22261
 20
56.7355
 11
-2.33006
 21
56.8006
  0
LINE
  8
0
 10
-2.33006
 20
56.8006
 11
-2.4317
 21
56.8745
  0
LINE
  8
0
 10
-2.4317
 20
56.8745
 11
-2.52679
 21
56.9566
  0
LINE
  8
0
 10
-2.52679
 20
56.9566
 11
-2.6147
 21
57.0463
  0
LINE
  8
0
 10
-2.6147
 20
57.0463
 11
-2.69478
 21
57.1431
  0
LINE
  8
0
 10
-2.69478
 20
57.1431
 11
-2.76646
 21
57.2463
  0
LINE
  8
0
 10
-2.76646
 20
57.2463
 11
-2.82928
 21
57.3551
  0
LINE
  8
0
 10
-2.82928
 20
57.3551
 11
-2.88277
 21
57.4687
  0
LINE
  8
0
 10
-2.88277
 20
57.4687
 11
-2.92656
 21
57.5865
  0
LINE
  8
0
 10
-2.92656
 20
57.5865
 11
-2.96034
 21
57.7075
  0
LINE
  8
0
 10
-2.96034
 20
57.7075
 11
-2.98389
 21
57.8309
  0
LINE
  8
0
 10
-2.98389
 20
57.8309
 11
-2.99702
 21
57.9558
  0
LINE
  8
0
 10
-2.99702
 20
57.9558
 11
-2.99965
 21
58.0814
  0
LINE
  8
0
 10
-2.99965
 20
58.0814
 11
-2.99176
 21
58.2068
  0
LINE
  8
0
 10
-2.99176
 20
58.2068
 11
-2.9734
 21
58.3311
  0
LINE
  8
0
 10
-2.9734
 20
58.3311
 11
-2.94472
 21
58.4534
  0
LINE
  8
0
 10
-2.94472
 20
58.4534
 11
-2.9059
 21
58.5729
  0
LINE
  8
0
 10
-2.9059
 20
58.5729
 11
-2.85722
 21
58.6887
  0
LINE
  8
0
 10
-2.85722
 20
58.6887
 11
-2.79901
 21
58.8
  0
LINE
  8
0
 10
-2.79901
 20
58.8
 11
-2.7317
 21
58.9061
  0
LINE
  8
0
 10
-2.7317
 20
58.9061
 11
-2.65575
 21
59.0061
  0
LINE
  8
0
 10
-2.65575
 20
59.0061
 11
-2.57169
 21
59.0995
  0
LINE
  8
0
 10
-2.57169
 20
59.0995
 11
-2.4801
 21
59.1855
  0
LINE
  8
0
 10
-2.4801
 20
59.1855
 11
-2.38165
 21
59.2635
  0
LINE
  8
0
 10
-2.38165
 20
59.2635
 11
-2.27702
 21
59.3331
  0
LINE
  8
0
 10
-2.27702
 20
59.3331
 11
-2.16693
 21
59.3936
  0
LINE
  8
0
 10
-2.16693
 20
59.3936
 11
-2.05217
 21
59.4447
  0
LINE
  8
0
 10
-2.05217
 20
59.4447
 11
-1.93352
 21
59.486
  0
LINE
  8
0
 10
-1.93352
 20
59.486
 11
-1.81184
 21
59.5172
  0
LINE
  8
0
 10
-1.81184
 20
59.5172
 11
-1.68797
 21
59.5382
  0
LINE
  8
0
 10
-1.68797
 20
59.5382
 11
-1.56279
 21
59.5487
  0
LINE
  8
0
 10
-1.56279
 20
59.5487
 11
-1.43718
 21
59.5487
  0
LINE
  8
0
 10
-1.43718
 20
59.5487
 11
-1.312
 21
59.5382
  0
LINE
  8
0
 10
-1.312
 20
59.5382
 11
-1.18813
 21
59.5172
  0
LINE
  8
0
 10
-1.18813
 20
59.5172
 11
-1.06645
 21
59.486
  0
LINE
  8
0
 10
-1.06645
 20
59.486
 11
-0.9478
 21
59.4447
  0
LINE
  8
0
 10
-0.9478
 20
59.4447
 11
-0.833038
 21
59.3936
  0
LINE
  8
0
 10
-0.833038
 20
59.3936
 11
-0.722946
 21
59.3331
  0
LINE
  8
0
 10
-0.722946
 20
59.3331
 11
-0.618317
 21
59.2635
  0
LINE
  8
0
 10
-0.618317
 20
59.2635
 11
-0.519867
 21
59.1855
  0
LINE
  8
0
 10
-0.519867
 20
59.1855
 11
-0.428284
 21
59.0995
  0
LINE
  8
0
 10
-0.428284
 20
59.0995
 11
-0.344223
 21
59.0061
  0
LINE
  8
0
 10
-0.344223
 20
59.0061
 11
-0.268265
 21
58.9061
  0
LINE
  8
0
 10
-0.268265
 20
58.9061
 11
-0.200958
 21
58.8
  0
LINE
  8
0
 10
-0.200958
 20
58.8
 11
-0.142746
 21
58.6887
  0
LINE
  8
0
 10
-0.142746
 20
58.6887
 11
-0.0940704
 21
58.5729
  0
LINE
  8
0
 10
-0.0940704
 20
58.5729
 11
-0.0552521
 21
58.4534
  0
LINE
  8
0
 10
-0.0552521
 20
58.4534
 11
-0.0265656
 21
58.3311
  0
LINE
  8
0
 10
-0.0265656
 20
58.3311
 11
-0.00820923
 21
58.2068
  0
LINE
  8
0
 10
-0.00820923
 20
58.2068
 11
-0.000320435
 21
58.0814
  0
LINE
  8
0
 10
-0.000320435
 20
58.0814
 11
-0.00294495
 21
57.9558
  0
LINE
  8
0
 10
-0.00294495
 20
57.9558
 11
-0.0160828
 21
57.8309
  0
LINE
  8
0
 10
-0.0160828
 20
57.8309
 11
-0.0396271
 21
57.7075
  0
LINE
  8
0
 10
-0.0396271
 20
57.7075
 11
-0.07341
 21
57.5865
  0
LINE
  8
0
 10
-0.07341
 20
57.5865
 11
-0.117203
 21
57.4687
  0
LINE
  8
0
 10
-0.117203
 20
57.4687
 11
-0.170685
 21
57.3551
  0
LINE
  8
0
 10
-0.170685
 20
57.3551
 11
-0.233505
 21
57.2463
  0
LINE
  8
0
 10
-0.233505
 20
57.2463
 11
-0.305191
 21
57.1431
  0
LINE
  8
0
 10
-0.305191
 20
57.1431
 11
-0.385269
 21
57.0463
  0
LINE
  8
0
 10
-0.385269
 20
57.0463
 11
-0.473175
 21
56.9566
  0
LINE
  8
0
 10
-0.473175
 20
56.9566
 11
-0.568268
 21
56.8745
  0
LINE
  8
0
 10
-0.568268
 20
56.8745
 11
-0.669907
 21
56.8006
  0
LINE
  8
0
 10
-0.669907
 20
56.8006
 11
-0.777359
 21
56.7355
  0
LINE
  8
0
 10
-0.777359
 20
56.7355
 11
-0.889893
 21
56.6797
  0
LINE
  8
0
 10
-0.889893
 20
56.6797
 11
-1.0067
 21
56.6334
  0
LINE
  8
0
 10
-1.0067
 20
56.6334
 11
-1.12695
 21
56.5971
  0
LINE
  8
0
 10
-1.12695
 20
56.5971
 11
-1.24983
 21
56.571
  0
LINE
  8
0
 10
-1.24983
 20
56.571
 11
-1.37448
 21
56.5553
  0
LINE
  8
0
 10
-1.37448
 20
56.5553
 11
-1.49998
 21
56.55
  0
LINE
  8
0
 10
-1.49998
 20
56.55
 11
-1.62549
 21
56.5553
  0
LINE
  8
0
 10
170.843
 20
55.5082
 11
170.719
 21
55.5266
  0
LINE
  8
0
 10
170.719
 20
55.5266
 11
170.597
 21
55.5553
  0
LINE
  8
0
 10
170.597
 20
55.5553
 11
170.477
 21
55.5941
  0
LINE
  8
0
 10
170.477
 20
55.5941
 11
170.361
 21
55.6427
  0
LINE
  8
0
 10
170.361
 20
55.6427
 11
170.25
 21
55.701
  0
LINE
  8
0
 10
170.25
 20
55.701
 11
170.144
 21
55.7683
  0
LINE
  8
0
 10
170.144
 20
55.7683
 11
170.044
 21
55.8442
  0
LINE
  8
0
 10
170.044
 20
55.8442
 11
169.951
 21
55.9283
  0
LINE
  8
0
 10
169.951
 20
55.9283
 11
169.865
 21
56.0199
  0
LINE
  8
0
 10
169.865
 20
56.0199
 11
169.786
 21
56.1183
  0
LINE
  8
0
 10
169.786
 20
56.1183
 11
169.717
 21
56.2229
  0
LINE
  8
0
 10
169.717
 20
56.2229
 11
169.656
 21
56.333
  0
LINE
  8
0
 10
169.656
 20
56.333
 11
169.605
 21
56.4478
  0
LINE
  8
0
 10
169.605
 20
56.4478
 11
169.564
 21
56.5665
  0
LINE
  8
0
 10
169.564
 20
56.5665
 11
169.533
 21
56.6881
  0
LINE
  8
0
 10
169.533
 20
56.6881
 11
169.512
 21
56.812
  0
LINE
  8
0
 10
169.512
 20
56.812
 11
169.501
 21
56.9372
  0
LINE
  8
0
 10
169.501
 20
56.9372
 11
169.501
 21
57.0628
  0
LINE
  8
0
 10
169.501
 20
57.0628
 11
169.512
 21
57.188
  0
LINE
  8
0
 10
169.512
 20
57.188
 11
169.533
 21
57.3119
  0
LINE
  8
0
 10
169.533
 20
57.3119
 11
169.564
 21
57.4335
  0
LINE
  8
0
 10
169.564
 20
57.4335
 11
169.605
 21
57.5522
  0
LINE
  8
0
 10
169.605
 20
57.5522
 11
169.656
 21
57.6669
  0
LINE
  8
0
 10
169.656
 20
57.6669
 11
169.717
 21
57.777
  0
LINE
  8
0
 10
169.717
 20
57.777
 11
169.786
 21
57.8817
  0
LINE
  8
0
 10
169.786
 20
57.8817
 11
169.865
 21
57.9801
  0
LINE
  8
0
 10
169.865
 20
57.9801
 11
169.951
 21
58.0717
  0
LINE
  8
0
 10
169.951
 20
58.0717
 11
170.044
 21
58.1558
  0
LINE
  8
0
 10
170.044
 20
58.1558
 11
170.144
 21
58.2317
  0
LINE
  8
0
 10
170.144
 20
58.2317
 11
170.25
 21
58.299
  0
LINE
  8
0
 10
170.25
 20
58.299
 11
170.361
 21
58.3572
  0
LINE
  8
0
 10
170.361
 20
58.3572
 11
170.477
 21
58.4059
  0
LINE
  8
0
 10
170.477
 20
58.4059
 11
170.597
 21
58.4447
  0
LINE
  8
0
 10
170.597
 20
58.4447
 11
170.719
 21
58.4734
  0
LINE
  8
0
 10
170.719
 20
58.4734
 11
170.843
 21
58.4918
  0
LINE
  8
0
 10
170.843
 20
58.4918
 11
170.969
 21
58.4997
  0
LINE
  8
0
 10
170.969
 20
58.4997
 11
171.094
 21
58.497
  0
LINE
  8
0
 10
171.094
 20
58.497
 11
171.219
 21
58.4839
  0
LINE
  8
0
 10
171.219
 20
58.4839
 11
171.343
 21
58.4604
  0
LINE
  8
0
 10
171.343
 20
58.4604
 11
171.464
 21
58.4266
  0
LINE
  8
0
 10
171.464
 20
58.4266
 11
171.581
 21
58.3828
  0
LINE
  8
0
 10
171.581
 20
58.3828
 11
171.695
 21
58.3293
  0
LINE
  8
0
 10
171.695
 20
58.3293
 11
171.804
 21
58.2665
  0
LINE
  8
0
 10
171.804
 20
58.2665
 11
171.907
 21
58.1948
  0
LINE
  8
0
 10
171.907
 20
58.1948
 11
172.004
 21
58.1147
  0
LINE
  8
0
 10
172.004
 20
58.1147
 11
172.093
 21
58.0268
  0
LINE
  8
0
 10
172.093
 20
58.0268
 11
172.176
 21
57.9317
  0
LINE
  8
0
 10
172.176
 20
57.9317
 11
172.249
 21
57.8301
  0
LINE
  8
0
 10
172.249
 20
57.8301
 11
172.314
 21
57.7226
  0
LINE
  8
0
 10
172.314
 20
57.7226
 11
172.37
 21
57.6101
  0
LINE
  8
0
 10
172.37
 20
57.6101
 11
172.417
 21
57.4933
  0
LINE
  8
0
 10
172.417
 20
57.4933
 11
172.453
 21
57.373
  0
LINE
  8
0
 10
172.453
 20
57.373
 11
172.479
 21
57.2502
  0
LINE
  8
0
 10
172.479
 20
57.2502
 11
172.495
 21
57.1255
  0
LINE
  8
0
 10
172.495
 20
57.1255
 11
172.5
 21
57
  0
LINE
  8
0
 10
172.5
 20
57
 11
172.495
 21
56.8745
  0
LINE
  8
0
 10
172.495
 20
56.8745
 11
172.479
 21
56.7498
  0
LINE
  8
0
 10
172.479
 20
56.7498
 11
172.453
 21
56.627
  0
LINE
  8
0
 10
172.453
 20
56.627
 11
172.417
 21
56.5067
  0
LINE
  8
0
 10
172.417
 20
56.5067
 11
172.37
 21
56.3899
  0
LINE
  8
0
 10
172.37
 20
56.3899
 11
172.314
 21
56.2774
  0
LINE
  8
0
 10
172.314
 20
56.2774
 11
172.249
 21
56.1699
  0
LINE
  8
0
 10
172.249
 20
56.1699
 11
172.176
 21
56.0683
  0
LINE
  8
0
 10
172.176
 20
56.0683
 11
172.093
 21
55.9732
  0
LINE
  8
0
 10
172.093
 20
55.9732
 11
172.004
 21
55.8853
  0
LINE
  8
0
 10
172.004
 20
55.8853
 11
171.907
 21
55.8052
  0
LINE
  8
0
 10
171.907
 20
55.8052
 11
171.804
 21
55.7335
  0
LINE
  8
0
 10
171.804
 20
55.7335
 11
171.695
 21
55.6707
  0
LINE
  8
0
 10
171.695
 20
55.6707
 11
171.581
 21
55.6172
  0
LINE
  8
0
 10
171.581
 20
55.6172
 11
171.464
 21
55.5734
  0
LINE
  8
0
 10
171.464
 20
55.5734
 11
171.343
 21
55.5396
  0
LINE
  8
0
 10
171.343
 20
55.5396
 11
171.219
 21
55.5161
  0
LINE
  8
0
 10
171.219
 20
55.5161
 11
171.094
 21
55.5029
  0
LINE
  8
0
 10
171.094
 20
55.5029
 11
170.969
 21
55.5003
  0
LINE
  8
0
 10
170.969
 20
55.5003
 11
170.843
 21
55.5082
  0
LINE
  8
0
 10
18.8432
 20
55.5082
 11
18.7189
 21
55.5266
  0
LINE
  8
0
 10
18.7189
 20
55.5266
 11
18.5966
 21
55.5553
  0
LINE
  8
0
 10
18.5966
 20
55.5553
 11
18.4771
 21
55.5941
  0
LINE
  8
0
 10
18.4771
 20
55.5941
 11
18.3613
 21
55.6427
  0
LINE
  8
0
 10
18.3613
 20
55.6427
 11
18.25
 21
55.701
  0
LINE
  8
0
 10
18.25
 20
55.701
 11
18.1439
 21
55.7683
  0
LINE
  8
0
 10
18.1439
 20
55.7683
 11
18.0439
 21
55.8442
  0
LINE
  8
0
 10
18.0439
 20
55.8442
 11
17.9505
 21
55.9283
  0
LINE
  8
0
 10
17.9505
 20
55.9283
 11
17.8645
 21
56.0199
  0
LINE
  8
0
 10
17.8645
 20
56.0199
 11
17.7865
 21
56.1183
  0
LINE
  8
0
 10
17.7865
 20
56.1183
 11
17.7169
 21
56.2229
  0
LINE
  8
0
 10
17.7169
 20
56.2229
 11
17.6564
 21
56.333
  0
LINE
  8
0
 10
17.6564
 20
56.333
 11
17.6053
 21
56.4478
  0
LINE
  8
0
 10
17.6053
 20
56.4478
 11
17.564
 21
56.5665
  0
LINE
  8
0
 10
17.564
 20
56.5665
 11
17.5328
 21
56.6881
  0
LINE
  8
0
 10
17.5328
 20
56.6881
 11
17.5118
 21
56.812
  0
LINE
  8
0
 10
17.5118
 20
56.812
 11
17.5013
 21
56.9372
  0
LINE
  8
0
 10
17.5013
 20
56.9372
 11
17.5013
 21
57.0628
  0
LINE
  8
0
 10
17.5013
 20
57.0628
 11
17.5118
 21
57.188
  0
LINE
  8
0
 10
17.5118
 20
57.188
 11
17.5328
 21
57.3119
  0
LINE
  8
0
 10
17.5328
 20
57.3119
 11
17.564
 21
57.4335
  0
LINE
  8
0
 10
17.564
 20
57.4335
 11
17.6053
 21
57.5522
  0
LINE
  8
0
 10
17.6053
 20
57.5522
 11
17.6564
 21
57.6669
  0
LINE
  8
0
 10
17.6564
 20
57.6669
 11
17.7169
 21
57.777
  0
LINE
  8
0
 10
17.7169
 20
57.777
 11
17.7865
 21
57.8817
  0
LINE
  8
0
 10
17.7865
 20
57.8817
 11
17.8645
 21
57.9801
  0
LINE
  8
0
 10
17.8645
 20
57.9801
 11
17.9505
 21
58.0717
  0
LINE
  8
0
 10
17.9505
 20
58.0717
 11
18.0439
 21
58.1558
  0
LINE
  8
0
 10
18.0439
 20
58.1558
 11
18.1439
 21
58.2317
  0
LINE
  8
0
 10
18.1439
 20
58.2317
 11
18.25
 21
58.299
  0
LINE
  8
0
 10
18.25
 20
58.299
 11
18.3613
 21
58.3572
  0
LINE
  8
0
 10
18.3613
 20
58.3572
 11
18.4771
 21
58.4059
  0
LINE
  8
0
 10
18.4771
 20
58.4059
 11
18.5966
 21
58.4447
  0
LINE
  8
0
 10
18.5966
 20
58.4447
 11
18.7189
 21
58.4734
  0
LINE
  8
0
 10
18.7189
 20
58.4734
 11
18.8432
 21
58.4918
  0
LINE
  8
0
 10
18.8432
 20
58.4918
 11
18.9686
 21
58.4997
  0
LINE
  8
0
 10
18.9686
 20
58.4997
 11
19.0942
 21
58.497
  0
LINE
  8
0
 10
19.0942
 20
58.497
 11
19.2191
 21
58.4839
  0
LINE
  8
0
 10
19.2191
 20
58.4839
 11
19.3425
 21
58.4604
  0
LINE
  8
0
 10
19.3425
 20
58.4604
 11
19.4635
 21
58.4266
  0
LINE
  8
0
 10
19.4635
 20
58.4266
 11
19.5813
 21
58.3828
  0
LINE
  8
0
 10
19.5813
 20
58.3828
 11
19.6949
 21
58.3293
  0
LINE
  8
0
 10
19.6949
 20
58.3293
 11
19.8037
 21
58.2665
  0
LINE
  8
0
 10
19.8037
 20
58.2665
 11
19.9069
 21
58.1948
  0
LINE
  8
0
 10
19.9069
 20
58.1948
 11
20.0037
 21
58.1147
  0
LINE
  8
0
 10
20.0037
 20
58.1147
 11
20.0934
 21
58.0268
  0
LINE
  8
0
 10
20.0934
 20
58.0268
 11
20.1755
 21
57.9317
  0
LINE
  8
0
 10
20.1755
 20
57.9317
 11
20.2494
 21
57.8301
  0
LINE
  8
0
 10
20.2494
 20
57.8301
 11
20.3145
 21
57.7226
  0
LINE
  8
0
 10
20.3145
 20
57.7226
 11
20.3703
 21
57.6101
  0
LINE
  8
0
 10
20.3703
 20
57.6101
 11
20.4165
 21
57.4933
  0
LINE
  8
0
 10
20.4165
 20
57.4933
 11
20.4529
 21
57.373
  0
LINE
  8
0
 10
20.4529
 20
57.373
 11
20.479
 21
57.2502
  0
LINE
  8
0
 10
20.479
 20
57.2502
 11
20.4947
 21
57.1255
  0
LINE
  8
0
 10
20.4947
 20
57.1255
 11
20.5
 21
57
  0
LINE
  8
0
 10
20.5
 20
57
 11
20.4947
 21
56.8745
  0
LINE
  8
0
 10
20.4947
 20
56.8745
 11
20.479
 21
56.7498
  0
LINE
  8
0
 10
20.479
 20
56.7498
 11
20.4529
 21
56.627
  0
LINE
  8
0
 10
20.4529
 20
56.627
 11
20.4165
 21
56.5067
  0
LINE
  8
0
 10
20.4165
 20
56.5067
 11
20.3703
 21
56.3899
  0
LINE
  8
0
 10
20.3703
 20
56.3899
 11
20.3145
 21
56.2774
  0
LINE
  8
0
 10
20.3145
 20
56.2774
 11
20.2494
 21
56.1699
  0
LINE
  8
0
 10
20.2494
 20
56.1699
 11
20.1755
 21
56.0683
  0
LINE
  8
0
 10
20.1755
 20
56.0683
 11
20.0934
 21
55.9732
  0
LINE
  8
0
 10
20.0934
 20
55.9732
 11
20.0037
 21
55.8853
  0
LINE
  8
0
 10
20.0037
 20
55.8853
 11
19.9069
 21
55.8052
  0
LINE
  8
0
 10
19.9069
 20
55.8052
 11
19.8037
 21
55.7335
  0
LINE
  8
0
 10
19.8037
 20
55.7335
 11
19.6949
 21
55.6707
  0
LINE
  8
0
 10
19.6949
 20
55.6707
 11
19.5813
 21
55.6172
  0
LINE
  8
0
 10
19.5813
 20
55.6172
 11
19.4635
 21
55.5734
  0
LINE
  8
0
 10
19.4635
 20
55.5734
 11
19.3425
 21
55.5396
  0
LINE
  8
0
 10
19.3425
 20
55.5396
 11
19.2191
 21
55.5161
  0
LINE
  8
0
 10
19.2191
 20
55.5161
 11
19.0942
 21
55.5029
  0
LINE
  8
0
 10
19.0942
 20
55.5029
 11
18.9686
 21
55.5003
  0
LINE
  8
0
 10
18.9686
 20
55.5003
 11
18.8432
 21
55.5082
  0
LINE
  8
0
 10
94.8432
 20
36.5082
 11
94.7189
 21
36.5266
  0
LINE
  8
0
 10
94.7189
 20
36.5266
 11
94.5966
 21
36.5553
  0
LINE
  8
0
 10
94.5966
 20
36.5553
 11
94.4771
 21
36.5941
  0
LINE
  8
0
 10
94.4771
 20
36.5941
 11
94.3613
 21
36.6427
  0
LINE
  8
0
 10
94.3613
 20
36.6427
 11
94.25
 21
36.701
  0
LINE
  8
0
 10
94.25
 20
36.701
 11
94.1439
 21
36.7683
  0
LINE
  8
0
 10
94.1439
 20
36.7683
 11
94.0439
 21
36.8442
  0
LINE
  8
0
 10
94.0439
 20
36.8442
 11
93.9505
 21
36.9283
  0
LINE
  8
0
 10
93.9505
 20
36.9283
 11
93.8645
 21
37.0199
  0
LINE
  8
0
 10
93.8645
 20
37.0199
 11
93.7865
 21
37.1183
  0
LINE
  8
0
 10
93.7865
 20
37.1183
 11
93.7169
 21
37.2229
  0
LINE
  8
0
 10
93.7169
 20
37.2229
 11
93.6564
 21
37.333
  0
LINE
  8
0
 10
93.6564
 20
37.333
 11
93.6053
 21
37.4478
  0
LINE
  8
0
 10
93.6053
 20
37.4478
 11
93.564
 21
37.5665
  0
LINE
  8
0
 10
93.564
 20
37.5665
 11
93.5328
 21
37.6881
  0
LINE
  8
0
 10
93.5328
 20
37.6881
 11
93.5118
 21
37.812
  0
LINE
  8
0
 10
93.5118
 20
37.812
 11
93.5013
 21
37.9372
  0
LINE
  8
0
 10
93.5013
 20
37.9372
 11
93.5013
 21
38.0628
  0
LINE
  8
0
 10
93.5013
 20
38.0628
 11
93.5118
 21
38.188
  0
LINE
  8
0
 10
93.5118
 20
38.188
 11
93.5328
 21
38.3119
  0
LINE
  8
0
 10
93.5328
 20
38.3119
 11
93.564
 21
38.4335
  0
LINE
  8
0
 10
93.564
 20
38.4335
 11
93.6053
 21
38.5522
  0
LINE
  8
0
 10
93.6053
 20
38.5522
 11
93.6564
 21
38.6669
  0
LINE
  8
0
 10
93.6564
 20
38.6669
 11
93.7169
 21
38.777
  0
LINE
  8
0
 10
93.7169
 20
38.777
 11
93.7865
 21
38.8817
  0
LINE
  8
0
 10
93.7865
 20
38.8817
 11
93.8645
 21
38.9801
  0
LINE
  8
0
 10
93.8645
 20
38.9801
 11
93.9505
 21
39.0717
  0
LINE
  8
0
 10
93.9505
 20
39.0717
 11
94.0439
 21
39.1558
  0
LINE
  8
0
 10
94.0439
 20
39.1558
 11
94.1439
 21
39.2317
  0
LINE
  8
0
 10
94.1439
 20
39.2317
 11
94.25
 21
39.299
  0
LINE
  8
0
 10
94.25
 20
39.299
 11
94.3613
 21
39.3572
  0
LINE
  8
0
 10
94.3613
 20
39.3572
 11
94.4771
 21
39.4059
  0
LINE
  8
0
 10
94.4771
 20
39.4059
 11
94.5966
 21
39.4447
  0
LINE
  8
0
 10
94.5966
 20
39.4447
 11
94.7189
 21
39.4734
  0
LINE
  8
0
 10
94.7189
 20
39.4734
 11
94.8432
 21
39.4918
  0
LINE
  8
0
 10
94.8432
 20
39.4918
 11
94.9686
 21
39.4997
  0
LINE
  8
0
 10
94.9686
 20
39.4997
 11
95.0942
 21
39.497
  0
LINE
  8
0
 10
95.0942
 20
39.497
 11
95.2191
 21
39.4839
  0
LINE
  8
0
 10
95.2191
 20
39.4839
 11
95.3425
 21
39.4604
  0
LINE
  8
0
 10
95.3425
 20
39.4604
 11
95.4635
 21
39.4266
  0
LINE
  8
0
 10
95.4635
 20
39.4266
 11
95.5813
 21
39.3828
  0
LINE
  8
0
 10
95.5813
 20
39.3828
 11
95.6949
 21
39.3293
  0
LINE
  8
0
 10
95.6949
 20
39.3293
 11
95.8037
 21
39.2665
  0
LINE
  8
0
 10
95.8037
 20
39.2665
 11
95.9069
 21
39.1948
  0
LINE
  8
0
 10
95.9069
 20
39.1948
 11
96.0037
 21
39.1147
  0
LINE
  8
0
 10
96.0037
 20
39.1147
 11
96.0934
 21
39.0268
  0
LINE
  8
0
 10
96.0934
 20
39.0268
 11
96.1755
 21
38.9317
  0
LINE
  8
0
 10
96.1755
 20
38.9317
 11
96.2494
 21
38.8301
  0
LINE
  8
0
 10
96.2494
 20
38.8301
 11
96.3145
 21
38.7226
  0
LINE
  8
0
 10
96.3145
 20
38.7226
 11
96.3703
 21
38.6101
  0
LINE
  8
0
 10
96.3703
 20
38.6101
 11
96.4165
 21
38.4933
  0
LINE
  8
0
 10
96.4165
 20
38.4933
 11
96.4529
 21
38.373
  0
LINE
  8
0
 10
96.4529
 20
38.373
 11
96.479
 21
38.2502
  0
LINE
  8
0
 10
96.479
 20
38.2502
 11
96.4947
 21
38.1255
  0
LINE
  8
0
 10
96.4947
 20
38.1255
 11
96.5
 21
38
  0
LINE
  8
0
 10
96.5
 20
38
 11
96.4947
 21
37.8745
  0
LINE
  8
0
 10
96.4947
 20
37.8745
 11
96.479
 21
37.7498
  0
LINE
  8
0
 10
96.479
 20
37.7498
 11
96.4529
 21
37.627
  0
LINE
  8
0
 10
96.4529
 20
37.627
 11
96.4165
 21
37.5067
  0
LINE
  8
0
 10
96.4165
 20
37.5067
 11
96.3703
 21
37.3899
  0
LINE
  8
0
 10
96.3703
 20
37.3899
 11
96.3145
 21
37.2774
  0
LINE
  8
0
 10
96.3145
 20
37.2774
 11
96.2494
 21
37.1699
  0
LINE
  8
0
 10
96.2494
 20
37.1699
 11
96.1755
 21
37.0683
  0
LINE
  8
0
 10
96.1755
 20
37.0683
 11
96.0934
 21
36.9732
  0
LINE
  8
0
 10
96.0934
 20
36.9732
 11
96.0037
 21
36.8853
  0
LINE
  8
0
 10
96.0037
 20
36.8853
 11
95.9069
 21
36.8052
  0
LINE
  8
0
 10
95.9069
 20
36.8052
 11
95.8037
 21
36.7335
  0
LINE
  8
0
 10
95.8037
 20
36.7335
 11
95.6949
 21
36.6707
  0
LINE
  8
0
 10
95.6949
 20
36.6707
 11
95.5813
 21
36.6172
  0
LINE
  8
0
 10
95.5813
 20
36.6172
 11
95.4635
 21
36.5734
  0
LINE
  8
0
 10
95.4635
 20
36.5734
 11
95.3425
 21
36.5396
  0
LINE
  8
0
 10
95.3425
 20
36.5396
 11
95.2191
 21
36.5161
  0
LINE
  8
0
 10
95.2191
 20
36.5161
 11
95.0942
 21
36.5029
  0
LINE
  8
0
 10
95.0942
 20
36.5029
 11
94.9686
 21
36.5003
  0
LINE
  8
0
 10
94.9686
 20
36.5003
 11
94.8432
 21
36.5082
  0
LINE
  8
0
 10
170.843
 20
17.5082
 11
170.719
 21
17.5266
  0
LINE
  8
0
 10
170.719
 20
17.5266
 11
170.597
 21
17.5553
  0
LINE
  8
0
 10
170.597
 20
17.5553
 11
170.477
 21
17.5941
  0
LINE
  8
0
 10
170.477
 20
17.5941
 11
170.361
 21
17.6427
  0
LINE
  8
0
 10
170.361
 20
17.6427
 11
170.25
 21
17.701
  0
LINE
  8
0
 10
170.25
 20
17.701
 11
170.144
 21
17.7683
  0
LINE
  8
0
 10
170.144
 20
17.7683
 11
170.044
 21
17.8442
  0
LINE
  8
0
 10
170.044
 20
17.8442
 11
169.951
 21
17.9283
  0
LINE
  8
0
 10
169.951
 20
17.9283
 11
169.865
 21
18.0199
  0
LINE
  8
0
 10
169.865
 20
18.0199
 11
169.786
 21
18.1183
  0
LINE
  8
0
 10
169.786
 20
18.1183
 11
169.717
 21
18.2229
  0
LINE
  8
0
 10
169.717
 20
18.2229
 11
169.656
 21
18.333
  0
LINE
  8
0
 10
169.656
 20
18.333
 11
169.605
 21
18.4478
  0
LINE
  8
0
 10
169.605
 20
18.4478
 11
169.564
 21
18.5665
  0
LINE
  8
0
 10
169.564
 20
18.5665
 11
169.533
 21
18.6881
  0
LINE
  8
0
 10
169.533
 20
18.6881
 11
169.512
 21
18.812
  0
LINE
  8
0
 10
169.512
 20
18.812
 11
169.501
 21
18.9372
  0
LINE
  8
0
 10
169.501
 20
18.9372
 11
169.501
 21
19.0628
  0
LINE
  8
0
 10
169.501
 20
19.0628
 11
169.512
 21
19.188
  0
LINE
  8
0
 10
169.512
 20
19.188
 11
169.533
 21
19.3119
  0
LINE
  8
0
 10
169.533
 20
19.3119
 11
169.564
 21
19.4335
  0
LINE
  8
0
 10
169.564
 20
19.4335
 11
169.605
 21
19.5522
  0
LINE
  8
0
 10
169.605
 20
19.5522
 11
169.656
 21
19.6669
  0
LINE
  8
0
 10
169.656
 20
19.6669
 11
169.717
 21
19.777
  0
LINE
  8
0
 10
169.717
 20
19.777
 11
169.786
 21
19.8817
  0
LINE
  8
0
 10
169.786
 20
19.8817
 11
169.865
 21
19.9801
  0
LINE
  8
0
 10
169.865
 20
19.9801
 11
169.951
 21
20.0717
  0
LINE
  8
0
 10
169.951
 20
20.0717
 11
170.044
 21
20.1558
  0
LINE
  8
0
 10
170.044
 20
20.1558
 11
170.144
 21
20.2317
  0
LINE
  8
0
 10
170.144
 20
20.2317
 11
170.25
 21
20.299
  0
LINE
  8
0
 10
170.25
 20
20.299
 11
170.361
 21
20.3572
  0
LINE
  8
0
 10
170.361
 20
20.3572
 11
170.477
 21
20.4059
  0
LINE
  8
0
 10
170.477
 20
20.4059
 11
170.597
 21
20.4447
  0
LINE
  8
0
 10
170.597
 20
20.4447
 11
170.719
 21
20.4734
  0
LINE
  8
0
 10
170.719
 20
20.4734
 11
170.843
 21
20.4918
  0
LINE
  8
0
 10
170.843
 20
20.4918
 11
170.969
 21
20.4997
  0
LINE
  8
0
 10
170.969
 20
20.4997
 11
171.094
 21
20.497
  0
LINE
  8
0
 10
171.094
 20
20.497
 11
171.219
 21
20.4839
  0
LINE
  8
0
 10
171.219
 20
20.4839
 11
171.343
 21
20.4604
  0
LINE
  8
0
 10
171.343
 20
20.4604
 11
171.464
 21
20.4266
  0
LINE
  8
0
 10
171.464
 20
20.4266
 11
171.581
 21
20.3828
  0
LINE
  8
0
 10
171.581
 20
20.3828
 11
171.695
 21
20.3293
  0
LINE
  8
0
 10
171.695
 20
20.3293
 11
171.804
 21
20.2665
  0
LINE
  8
0
 10
171.804
 20
20.2665
 11
171.907
 21
20.1948
  0
LINE
  8
0
 10
171.907
 20
20.1948
 11
172.004
 21
20.1147
  0
LINE
  8
0
 10
172.004
 20
20.1147
 11
172.093
 21
20.0268
  0
LINE
  8
0
 10
172.093
 20
20.0268
 11
172.176
 21
19.9317
  0
LINE
  8
0
 10
172.176
 20
19.9317
 11
172.249
 21
19.8301
  0
LINE
  8
0
 10
172.249
 20
19.8301
 11
172.314
 21
19.7226
  0
LINE
  8
0
 10
172.314
 20
19.7226
 11
172.37
 21
19.6101
  0
LINE
  8
0
 10
172.37
 20
19.6101
 11
172.417
 21
19.4933
  0
LINE
  8
0
 10
172.417
 20
19.4933
 11
172.453
 21
19.373
  0
LINE
  8
0
 10
172.453
 20
19.373
 11
172.479
 21
19.2502
  0
LINE
  8
0
 10
172.479
 20
19.2502
 11
172.495
 21
19.1255
  0
LINE
  8
0
 10
172.495
 20
19.1255
 11
172.5
 21
19
  0
LINE
  8
0
 10
172.5
 20
19
 11
172.495
 21
18.8745
  0
LINE
  8
0
 10
172.495
 20
18.8745
 11
172.479
 21
18.7498
  0
LINE
  8
0
 10
172.479
 20
18.7498
 11
172.453
 21
18.627
  0
LINE
  8
0
 10
172.453
 20
18.627
 11
172.417
 21
18.5067
  0
LINE
  8
0
 10
172.417
 20
18.5067
 11
172.37
 21
18.3899
  0
LINE
  8
0
 10
172.37
 20
18.3899
 11
172.314
 21
18.2774
  0
LINE
  8
0
 10
172.314
 20
18.2774
 11
172.249
 21
18.1699
  0
LINE
  8
0
 10
172.249
 20
18.1699
 11
172.176
 21
18.0683
  0
LINE
  8
0
 10
172.176
 20
18.0683
 11
172.093
 21
17.9732
  0
LINE
  8
0
 10
172.093
 20
17.9732
 11
172.004
 21
17.8853
  0
LINE
  8
0
 10
172.004
 20
17.8853
 11
171.907
 21
17.8052
  0
LINE
  8
0
 10
171.907
 20
17.8052
 11
171.804
 21
17.7335
  0
LINE
  8
0
 10
171.804
 20
17.7335
 11
171.695
 21
17.6707
  0
LINE
  8
0
 10
171.695
 20
17.6707
 11
171.581
 21
17.6172
  0
LINE
  8
0
 10
171.581
 20
17.6172
 11
171.464
 21
17.5734
  0
LINE
  8
0
 10
171.464
 20
17.5734
 11
171.343
 21
17.5396
  0
LINE
  8
0
 10
171.343
 20
17.5396
 11
171.219
 21
17.5161
  0
LINE
  8
0
 10
171.219
 20
17.5161
 11
171.094
 21
17.5029
  0
LINE
  8
0
 10
171.094
 20
17.5029
 11
170.969
 21
17.5003
  0
LINE
  8
0
 10
170.969
 20
17.5003
 11
170.843
 21
17.5082
  0
LINE
  8
0
 10
18.8432
 20
17.5082
 11
18.7189
 21
17.5266
  0
LINE
  8
0
 10
18.7189
 20
17.5266
 11
18.5966
 21
17.5553
  0
LINE
  8
0
 10
18.5966
 20
17.5553
 11
18.4771
 21
17.5941
  0
LINE
  8
0
 10
18.4771
 20
17.5941
 11
18.3613
 21
17.6427
  0
LINE
  8
0
 10
18.3613
 20
17.6427
 11
18.25
 21
17.701
  0
LINE
  8
0
 10
18.25
 20
17.701
 11
18.1439
 21
17.7683
  0
LINE
  8
0
 10
18.1439
 20
17.7683
 11
18.0439
 21
17.8442
  0
LINE
  8
0
 10
18.0439
 20
17.8442
 11
17.9505
 21
17.9283
  0
LINE
  8
0
 10
17.9505
 20
17.9283
 11
17.8645
 21
18.0199
  0
LINE
  8
0
 10
17.8645
 20
18.0199
 11
17.7865
 21
18.1183
  0
LINE
  8
0
 10
17.7865
 20
18.1183
 11
17.7169
 21
18.2229
  0
LINE
  8
0
 10
17.7169
 20
18.2229
 11
17.6564
 21
18.333
  0
LINE
  8
0
 10
17.6564
 20
18.333
 11
17.6053
 21
18.4478
  0
LINE
  8
0
 10
17.6053
 20
18.4478
 11
17.564
 21
18.5665
  0
LINE
  8
0
 10
17.564
 20
18.5665
 11
17.5328
 21
18.6881
  0
LINE
  8
0
 10
17.5328
 20
18.6881
 11
17.5118
 21
18.812
  0
LINE
  8
0
 10
17.5118
 20
18.812
 11
17.5013
 21
18.9372
  0
LINE
  8
0
 10
17.5013
 20
18.9372
 11
17.5013
 21
19.0628
  0
LINE
  8
0
 10
17.5013
 20
19.0628
 11
17.5118
 21
19.188
  0
LINE
  8
0
 10
17.5118
 20
19.188
 11
17.5328
 21
19.3119
  0
LINE
  8
0
 10
17.5328
 20
19.3119
 11
17.564
 21
19.4335
  0
LINE
  8
0
 10
17.564
 20
19.4335
 11
17.6053
 21
19.5522
  0
LINE
  8
0
 10
17.6053
 20
19.5522
 11
17.6564
 21
19.6669
  0
LINE
  8
0
 10
17.6564
 20
19.6669
 11
17.7169
 21
19.777
  0
LINE
  8
0
 10
17.7169
 20
19.777
 11
17.7865
 21
19.8817
  0
LINE
  8
0
 10
17.7865
 20
19.8817
 11
17.8645
 21
19.9801
  0
LINE
  8
0
 10
17.8645
 20
19.9801
 11
17.9505
 21
20.0717
  0
LINE
  8
0
 10
17.9505
 20
20.0717
 11
18.0439
 21
20.1558
  0
LINE
  8
0
 10
18.0439
 20
20.1558
 11
18.1439
 21
20.2317
  0
LINE
  8
0
 10
18.1439
 20
20.2317
 11
18.25
 21
20.299
  0
LINE
  8
0
 10
18.25
 20
20.299
 11
18.3613
 21
20.3572
  0
LINE
  8
0
 10
18.3613
 20
20.3572
 11
18.4771
 21
20.4059
  0
LINE
  8
0
 10
18.4771
 20
20.4059
 11
18.5966
 21
20.4447
  0
LINE
  8
0
 10
18.5966
 20
20.4447
 11
18.7189
 21
20.4734
  0
LINE
  8
0
 10
18.7189
 20
20.4734
 11
18.8432
 21
20.4918
  0
LINE
  8
0
 10
18.8432
 20
20.4918
 11
18.9686
 21
20.4997
  0
LINE
  8
0
 10
18.9686
 20
20.4997
 11
19.0942
 21
20.497
  0
LINE
  8
0
 10
19.0942
 20
20.497
 11
19.2191
 21
20.4839
  0
LINE
  8
0
 10
19.2191
 20
20.4839
 11
19.3425
 21
20.4604
  0
LINE
  8
0
 10
19.3425
 20
20.4604
 11
19.4635
 21
20.4266
  0
LINE
  8
0
 10
19.4635
 20
20.4266
 11
19.5813
 21
20.3828
  0
LINE
  8
0
 10
19.5813
 20
20.3828
 11
19.6949
 21
20.3293
  0
LINE
  8
0
 10
19.6949
 20
20.3293
 11
19.8037
 21
20.2665
  0
LINE
  8
0
 10
19.8037
 20
20.2665
 11
19.9069
 21
20.1948
  0
LINE
  8
0
 10
19.9069
 20
20.1948
 11
20.0037
 21
20.1147
  0
LINE
  8
0
 10
20.0037
 20
20.1147
 11
20.0934
 21
20.0268
  0
LINE
  8
0
 10
20.0934
 20
20.0268
 11
20.1755
 21
19.9317
  0
LINE
  8
0
 10
20.1755
 20
19.9317
 11
20.2494
 21
19.8301
  0
LINE
  8
0
 10
20.2494
 20
19.8301
 11
20.3145
 21
19.7226
  0
LINE
  8
0
 10
20.3145
 20
19.7226
 11
20.3703
 21
19.6101
  0
LINE
  8
0
 10
20.3703
 20
19.6101
 11
20.4165
 21
19.4933
  0
LINE
  8
0
 10
20.4165
 20
19.4933
 11
20.4529
 21
19.373
  0
LINE
  8
0
 10
20.4529
 20
19.373
 11
20.479
 21
19.2502
  0
LINE
  8
0
 10
20.479
 20
19.2502
 11
20.4947
 21
19.1255
  0
LINE
  8
0
 10
20.4947
 20
19.1255
 11
20.5
 21
19
  0
LINE
  8
0
 10
20.5
 20
19
 11
20.4947
 21
18.8745
  0
LINE
  8
0
 10
20.4947
 20
18.8745
 11
20.479
 21
18.7498
  0
LINE
  8
0
 10
20.479
 20
18.7498
 11
20.4529
 21
18.627
  0
LINE
  8
0
 10
20.4529
 20
18.627
 11
20.4165
 21
18.5067
  0
LINE
  8
0
 10
20.4165
 20
18.5067
 11
20.3703
 21
18.3899
  0
LINE
  8
0
 10
20.3703
 20
18.3899
 11
20.3145
 21
18.2774
  0
LINE
  8
0
 10
20.3145
 20
18.2774
 11
20.2494
 21
18.1699
  0
LINE
  8
0
 10
20.2494
 20
18.1699
 11
20.1755
 21
18.0683
  0
LINE
  8
0
 10
20.1755
 20
18.0683
 11
20.0934
 21
17.9732
  0
LINE
  8
0
 10
20.0934
 20
17.9732
 11
20.0037
 21
17.8853
  0
LINE
  8
0
 10
20.0037
 20
17.8853
 11
19.9069
 21
17.8052
  0
LINE
  8
0
 10
19.9069
 20
17.8052
 11
19.8037
 21
17.7335
  0
LINE
  8
0
 10
19.8037
 20
17.7335
 11
19.6949
 21
17.6707
  0
LINE
  8
0
 10
19.6949
 20
17.6707
 11
19.5813
 21
17.6172
  0
LINE
  8
0
 10
19.5813
 20
17.6172
 11
19.4635
 21
17.5734
  0
LINE
  8
0
 10
19.4635
 20
17.5734
 11
19.3425
 21
17.5396
  0
LINE
  8
0
 10
19.3425
 20
17.5396
 11
19.2191
 21
17.5161
  0
LINE
  8
0
 10
19.2191
 20
17.5161
 11
19.0942
 21
17.5029
  0
LINE
  8
0
 10
19.0942
 20
17.5029
 11
18.9686
 21
17.5003
  0
LINE
  8
0
 10
18.9686
 20
17.5003
 11
18.8432
 21
17.5082
  0
LINE
  8
0
 10
-10
 20
-10
 11
-20
 21
-10
  0
LINE
  8
0
 10
-20
 20
-10
 11
-20
 21
-20
  0
LINE
  8
0
 10
-20
 20
-20
 11
-10
 21
-20
  0
LINE
  8
0
 10
-10
 20
-20
 11
-10
 21
-10
  0
LINE
  8
0
 10
192.954
 20
-104.824
 11
193.121
 21
-104.807
  0
LINE
  8
0
 10
193.121
 20
-104.807
 11
193.285
 21
-104.776
  0
LINE
  8
0
 10
193.285
 20
-104.776
 11
193.446
 21
-104.731
  0
LINE
  8
0
 10
193.446
 20
-104.731
 11
193.603
 21
-104.672
  0
LINE
  8
0
 10
193.603
 20
-104.672
 11
193.755
 21
-104.601
  0
LINE
  8
0
 10
193.755
 20
-104.601
 11
193.9
 21
-104.517
  0
LINE
  8
0
 10
193.9
 20
-104.517
 11
194.038
 21
-104.421
  0
LINE
  8
0
 10
194.038
 20
-104.421
 11
194.167
 21
-104.315
  0
LINE
  8
0
 10
194.167
 20
-104.315
 11
194.286
 21
-104.198
  0
LINE
  8
0
 10
194.286
 20
-104.198
 11
194.396
 21
-104.071
  0
LINE
  8
0
 10
194.396
 20
-104.071
 11
194.494
 21
-103.935
  0
LINE
  8
0
 10
194.494
 20
-103.935
 11
194.581
 21
-103.792
  0
LINE
  8
0
 10
194.581
 20
-103.792
 11
194.656
 21
-103.642
  0
LINE
  8
0
 10
194.656
 20
-103.642
 11
194.717
 21
-103.486
  0
LINE
  8
0
 10
194.717
 20
-103.486
 11
194.766
 21
-103.326
  0
LINE
  8
0
 10
194.766
 20
-103.326
 11
194.8
 21
-103.162
  0
LINE
  8
0
 10
194.8
 20
-103.162
 11
194.821
 21
-102.996
  0
LINE
  8
0
 10
194.821
 20
-102.996
 11
194.828
 21
-102.828
  0
LINE
  8
0
 10
194.828
 20
-102.828
 11
194.828
 21
-21.1716
  0
LINE
  8
0
 10
194.828
 20
-21.1716
 11
194.821
 21
-21.0042
  0
LINE
  8
0
 10
194.821
 20
-21.0042
 11
194.8
 21
-20.838
  0
LINE
  8
0
 10
194.8
 20
-20.838
 11
194.766
 21
-20.6742
  0
LINE
  8
0
 10
194.766
 20
-20.6742
 11
194.717
 21
-20.5138
  0
LINE
  8
0
 10
194.717
 20
-20.5138
 11
194.656
 21
-20.3581
  0
LINE
  8
0
 10
194.656
 20
-20.3581
 11
194.581
 21
-20.2081
  0
LINE
  8
0
 10
194.581
 20
-20.2081
 11
194.494
 21
-20.0648
  0
LINE
  8
0
 10
194.494
 20
-20.0648
 11
194.396
 21
-19.9293
  0
LINE
  8
0
 10
194.396
 20
-19.9293
 11
194.286
 21
-19.8025
  0
LINE
  8
0
 10
194.286
 20
-19.8025
 11
194.167
 21
-19.6853
  0
LINE
  8
0
 10
194.167
 20
-19.6853
 11
194.038
 21
-19.5785
  0
LINE
  8
0
 10
194.038
 20
-19.5785
 11
193.9
 21
-19.4829
  0
LINE
  8
0
 10
193.9
 20
-19.4829
 11
193.755
 21
-19.3992
  0
LINE
  8
0
 10
193.755
 20
-19.3992
 11
193.603
 21
-19.3279
  0
LINE
  8
0
 10
193.603
 20
-19.3279
 11
193.446
 21
-19.2695
  0
LINE
  8
0
 10
193.446
 20
-19.2695
 11
193.285
 21
-19.2244
  0
LINE
  8
0
 10
193.285
 20
-19.2244
 11
193.121
 21
-19.193
  0
LINE
  8
0
 10
193.121
 20
-19.193
 11
192.954
 21
-19.1755
  0
LINE
  8
0
 10
192.954
 20
-19.1755
 11
192.787
 21
-19.172
  0
LINE
  8
0
 10
192.787
 20
-19.172
 11
-2.8703
 21
-19.172
  0
LINE
  8
0
 10
-2.8703
 20
-19.172
 11
-3.03748
 21
-19.1825
  0
LINE
  8
0
 10
-3.03748
 20
-19.1825
 11
-3.20319
 21
-19.207
  0
LINE
  8
0
 10
-3.20319
 20
-19.207
 11
-3.36626
 21
-19.2453
  0
LINE
  8
0
 10
-3.36626
 20
-19.2453
 11
-3.52556
 21
-19.297
  0
LINE
  8
0
 10
-3.52556
 20
-19.297
 11
-3.67998
 21
-19.3619
  0
LINE
  8
0
 10
-3.67998
 20
-19.3619
 11
-3.82841
 21
-19.4395
  0
LINE
  8
0
 10
-3.82841
 20
-19.4395
 11
-3.96985
 21
-19.5293
  0
LINE
  8
0
 10
-3.96985
 20
-19.5293
 11
-4.10327
 21
-19.6306
  0
LINE
  8
0
 10
-4.10327
 20
-19.6306
 11
-4.22775
 21
-19.7426
  0
LINE
  8
0
 10
-4.22775
 20
-19.7426
 11
-4.34241
 21
-19.8647
  0
LINE
  8
0
 10
-4.34241
 20
-19.8647
 11
-4.44646
 21
-19.996
  0
LINE
  8
0
 10
-4.44646
 20
-19.996
 11
-4.53915
 21
-20.1355
  0
LINE
  8
0
 10
-4.53915
 20
-20.1355
 11
-4.61984
 21
-20.2823
  0
LINE
  8
0
 10
-4.61984
 20
-20.2823
 11
-4.68797
 21
-20.4353
  0
LINE
  8
0
 10
-4.68797
 20
-20.4353
 11
-4.74306
 21
-20.5935
  0
LINE
  8
0
 10
-4.74306
 20
-20.5935
 11
-4.78471
 21
-20.7558
  0
LINE
  8
0
 10
-4.78471
 20
-20.7558
 11
-4.81265
 21
-20.9209
  0
LINE
  8
0
 10
-4.81265
 20
-20.9209
 11
-4.82666
 21
-21.0878
  0
LINE
  8
0
 10
-4.82666
 20
-21.0878
 11
-4.82666
 21
-102.912
  0
LINE
  8
0
 10
-4.82666
 20
-102.912
 11
-4.81265
 21
-103.079
  0
LINE
  8
0
 10
-4.81265
 20
-103.079
 11
-4.78471
 21
-103.244
  0
LINE
  8
0
 10
-4.78471
 20
-103.244
 11
-4.74306
 21
-103.406
  0
LINE
  8
0
 10
-4.74306
 20
-103.406
 11
-4.68797
 21
-103.565
  0
LINE
  8
0
 10
-4.68797
 20
-103.565
 11
-4.61984
 21
-103.718
  0
LINE
  8
0
 10
-4.61984
 20
-103.718
 11
-4.53915
 21
-103.864
  0
LINE
  8
0
 10
-4.53915
 20
-103.864
 11
-4.44646
 21
-104.004
  0
LINE
  8
0
 10
-4.44646
 20
-104.004
 11
-4.34241
 21
-104.135
  0
LINE
  8
0
 10
-4.34241
 20
-104.135
 11
-4.22775
 21
-104.257
  0
LINE
  8
0
 10
-4.22775
 20
-104.257
 11
-4.10327
 21
-104.369
  0
LINE
  8
0
 10
-4.10327
 20
-104.369
 11
-3.96985
 21
-104.471
  0
LINE
  8
0
 10
-3.96985
 20
-104.471
 11
-3.82841
 21
-104.56
  0
LINE
  8
0
 10
-3.82841
 20
-104.56
 11
-3.67998
 21
-104.638
  0
LINE
  8
0
 10
-3.67998
 20
-104.638
 11
-3.52556
 21
-104.703
  0
LINE
  8
0
 10
-3.52556
 20
-104.703
 11
-3.36626
 21
-104.755
  0
LINE
  8
0
 10
-3.36626
 20
-104.755
 11
-3.20319
 21
-104.793
  0
LINE
  8
0
 10
-3.20319
 20
-104.793
 11
-3.03748
 21
-104.817
  0
LINE
  8
0
 10
-3.03748
 20
-104.817
 11
-2.8703
 21
-104.828
  0
LINE
  8
0
 10
-2.8703
 20
-104.828
 11
192.787
 21
-104.828
  0
LINE
  8
0
 10
192.787
 20
-104.828
 11
192.954
 21
-104.824
  0
LINE
  8
0
 10
-3.99998
 20
-44.7
 11
-4
 21
-24
  0
LINE
  8
0
 10
-4
 20
-24
 11
6.2
 21
-24
  0
LINE
  8
0
 10
6.2
 20
-24
 11
6.2
 21
-44.7
  0
LINE
  8
0
 10
6.2
 20
-44.7
 11
-3.99998
 21
-44.7
  0
LINE
  8
0
 10
18.8432
 20
-44.4918
 11
18.7189
 21
-44.4734
  0
LINE
  8
0
 10
18.7189
 20
-44.4734
 11
18.5966
 21
-44.4447
  0
LINE
  8
0
 10
18.5966
 20
-44.4447
 11
18.4771
 21
-44.4059
  0
LINE
  8
0
 10
18.4771
 20
-44.4059
 11
18.3613
 21
-44.3573
  0
LINE
  8
0
 10
18.3613
 20
-44.3573
 11
18.25
 21
-44.299
  0
LINE
  8
0
 10
18.25
 20
-44.299
 11
18.1439
 21
-44.2317
  0
LINE
  8
0
 10
18.1439
 20
-44.2317
 11
18.0439
 21
-44.1558
  0
LINE
  8
0
 10
18.0439
 20
-44.1558
 11
17.9505
 21
-44.0717
  0
LINE
  8
0
 10
17.9505
 20
-44.0717
 11
17.8645
 21
-43.9801
  0
LINE
  8
0
 10
17.8645
 20
-43.9801
 11
17.7865
 21
-43.8817
  0
LINE
  8
0
 10
17.7865
 20
-43.8817
 11
17.7169
 21
-43.7771
  0
LINE
  8
0
 10
17.7169
 20
-43.7771
 11
17.6564
 21
-43.667
  0
LINE
  8
0
 10
17.6564
 20
-43.667
 11
17.6053
 21
-43.5522
  0
LINE
  8
0
 10
17.6053
 20
-43.5522
 11
17.564
 21
-43.4335
  0
LINE
  8
0
 10
17.564
 20
-43.4335
 11
17.5328
 21
-43.3119
  0
LINE
  8
0
 10
17.5328
 20
-43.3119
 11
17.5118
 21
-43.188
  0
LINE
  8
0
 10
17.5118
 20
-43.188
 11
17.5013
 21
-43.0628
  0
LINE
  8
0
 10
17.5013
 20
-43.0628
 11
17.5013
 21
-42.9372
  0
LINE
  8
0
 10
17.5013
 20
-42.9372
 11
17.5118
 21
-42.812
  0
LINE
  8
0
 10
17.5118
 20
-42.812
 11
17.5328
 21
-42.6881
  0
LINE
  8
0
 10
17.5328
 20
-42.6881
 11
17.564
 21
-42.5665
  0
LINE
  8
0
 10
17.564
 20
-42.5665
 11
17.6053
 21
-42.4478
  0
LINE
  8
0
 10
17.6053
 20
-42.4478
 11
17.6564
 21
-42.3331
  0
LINE
  8
0
 10
17.6564
 20
-42.3331
 11
17.7169
 21
-42.223
  0
LINE
  8
0
 10
17.7169
 20
-42.223
 11
17.7865
 21
-42.1183
  0
LINE
  8
0
 10
17.7865
 20
-42.1183
 11
17.8645
 21
-42.0199
  0
LINE
  8
0
 10
17.8645
 20
-42.0199
 11
17.9505
 21
-41.9283
  0
LINE
  8
0
 10
17.9505
 20
-41.9283
 11
18.0439
 21
-41.8442
  0
LINE
  8
0
 10
18.0439
 20
-41.8442
 11
18.1439
 21
-41.7683
  0
LINE
  8
0
 10
18.1439
 20
-41.7683
 11
18.25
 21
-41.701
  0
LINE
  8
0
 10
18.25
 20
-41.701
 11
18.3613
 21
-41.6428
  0
LINE
  8
0
 10
18.3613
 20
-41.6428
 11
18.4771
 21
-41.5941
  0
LINE
  8
0
 10
18.4771
 20
-41.5941
 11
18.5966
 21
-41.5553
  0
LINE
  8
0
 10
18.5966
 20
-41.5553
 11
18.7189
 21
-41.5266
  0
LINE
  8
0
 10
18.7189
 20
-41.5266
 11
18.8432
 21
-41.5082
  0
LINE
  8
0
 10
18.8432
 20
-41.5082
 11
18.9686
 21
-41.5003
  0
LINE
  8
0
 10
18.9686
 20
-41.5003
 11
19.0942
 21
-41.503
  0
LINE
  8
0
 10
19.0942
 20
-41.503
 11
19.2191
 21
-41.5161
  0
LINE
  8
0
 10
19.2191
 20
-41.5161
 11
19.3425
 21
-41.5396
  0
LINE
  8
0
 10
19.3425
 20
-41.5396
 11
19.4635
 21
-41.5734
  0
LINE
  8
0
 10
19.4635
 20
-41.5734
 11
19.5813
 21
-41.6172
  0
LINE
  8
0
 10
19.5813
 20
-41.6172
 11
19.6949
 21
-41.6707
  0
LINE
  8
0
 10
19.6949
 20
-41.6707
 11
19.8037
 21
-41.7335
  0
LINE
  8
0
 10
19.8037
 20
-41.7335
 11
19.9069
 21
-41.8052
  0
LINE
  8
0
 10
19.9069
 20
-41.8052
 11
20.0037
 21
-41.8853
  0
LINE
  8
0
 10
20.0037
 20
-41.8853
 11
20.0934
 21
-41.9732
  0
LINE
  8
0
 10
20.0934
 20
-41.9732
 11
20.1755
 21
-42.0683
  0
LINE
  8
0
 10
20.1755
 20
-42.0683
 11
20.2494
 21
-42.1699
  0
LINE
  8
0
 10
20.2494
 20
-42.1699
 11
20.3145
 21
-42.2774
  0
LINE
  8
0
 10
20.3145
 20
-42.2774
 11
20.3703
 21
-42.3899
  0
LINE
  8
0
 10
20.3703
 20
-42.3899
 11
20.4165
 21
-42.5067
  0
LINE
  8
0
 10
20.4165
 20
-42.5067
 11
20.4529
 21
-42.627
  0
LINE
  8
0
 10
20.4529
 20
-42.627
 11
20.479
 21
-42.7498
  0
LINE
  8
0
 10
20.479
 20
-42.7498
 11
20.4947
 21
-42.8745
  0
LINE
  8
0
 10
20.4947
 20
-42.8745
 11
20.5
 21
-43
  0
LINE
  8
0
 10
20.5
 20
-43
 11
20.4947
 21
-43.1255
  0
LINE
  8
0
 10
20.4947
 20
-43.1255
 11
20.479
 21
-43.2502
  0
LINE
  8
0
 10
20.479
 20
-43.2502
 11
20.4529
 21
-43.373
  0
LINE
  8
0
 10
20.4529
 20
-43.373
 11
20.4165
 21
-43.4933
  0
LINE
  8
0
 10
20.4165
 20
-43.4933
 11
20.3703
 21
-43.6101
  0
LINE
  8
0
 10
20.3703
 20
-43.6101
 11
20.3145
 21
-43.7226
  0
LINE
  8
0
 10
20.3145
 20
-43.7226
 11
20.2494
 21
-43.8301
  0
LINE
  8
0
 10
20.2494
 20
-43.8301
 11
20.1755
 21
-43.9317
  0
LINE
  8
0
 10
20.1755
 20
-43.9317
 11
20.0934
 21
-44.0268
  0
LINE
  8
0
 10
20.0934
 20
-44.0268
 11
20.0037
 21
-44.1147
  0
LINE
  8
0
 10
20.0037
 20
-44.1147
 11
19.9069
 21
-44.1948
  0
LINE
  8
0
 10
19.9069
 20
-44.1948
 11
19.8037
 21
-44.2665
  0
LINE
  8
0
 10
19.8037
 20
-44.2665
 11
19.6949
 21
-44.3293
  0
LINE
  8
0
 10
19.6949
 20
-44.3293
 11
19.5813
 21
-44.3828
  0
LINE
  8
0
 10
19.5813
 20
-44.3828
 11
19.4635
 21
-44.4266
  0
LINE
  8
0
 10
19.4635
 20
-44.4266
 11
19.3425
 21
-44.4604
  0
LINE
  8
0
 10
19.3425
 20
-44.4604
 11
19.2191
 21
-44.4839
  0
LINE
  8
0
 10
19.2191
 20
-44.4839
 11
19.0942
 21
-44.4971
  0
LINE
  8
0
 10
19.0942
 20
-44.4971
 11
18.9686
 21
-44.4997
  0
LINE
  8
0
 10
18.9686
 20
-44.4997
 11
18.8432
 21
-44.4918
  0
LINE
  8
0
 10
170.843
 20
-44.4918
 11
170.719
 21
-44.4734
  0
LINE
  8
0
 10
170.719
 20
-44.4734
 11
170.597
 21
-44.4447
  0
LINE
  8
0
 10
170.597
 20
-44.4447
 11
170.477
 21
-44.4059
  0
LINE
  8
0
 10
170.477
 20
-44.4059
 11
170.361
 21
-44.3573
  0
LINE
  8
0
 10
170.361
 20
-44.3573
 11
170.25
 21
-44.299
  0
LINE
  8
0
 10
170.25
 20
-44.299
 11
170.144
 21
-44.2317
  0
LINE
  8
0
 10
170.144
 20
-44.2317
 11
170.044
 21
-44.1558
  0
LINE
  8
0
 10
170.044
 20
-44.1558
 11
169.951
 21
-44.0717
  0
LINE
  8
0
 10
169.951
 20
-44.0717
 11
169.865
 21
-43.9801
  0
LINE
  8
0
 10
169.865
 20
-43.9801
 11
169.786
 21
-43.8817
  0
LINE
  8
0
 10
169.786
 20
-43.8817
 11
169.717
 21
-43.7771
  0
LINE
  8
0
 10
169.717
 20
-43.7771
 11
169.656
 21
-43.667
  0
LINE
  8
0
 10
169.656
 20
-43.667
 11
169.605
 21
-43.5522
  0
LINE
  8
0
 10
169.605
 20
-43.5522
 11
169.564
 21
-43.4335
  0
LINE
  8
0
 10
169.564
 20
-43.4335
 11
169.533
 21
-43.3119
  0
LINE
  8
0
 10
169.533
 20
-43.3119
 11
169.512
 21
-43.188
  0
LINE
  8
0
 10
169.512
 20
-43.188
 11
169.501
 21
-43.0628
  0
LINE
  8
0
 10
169.501
 20
-43.0628
 11
169.501
 21
-42.9372
  0
LINE
  8
0
 10
169.501
 20
-42.9372
 11
169.512
 21
-42.812
  0
LINE
  8
0
 10
169.512
 20
-42.812
 11
169.533
 21
-42.6881
  0
LINE
  8
0
 10
169.533
 20
-42.6881
 11
169.564
 21
-42.5665
  0
LINE
  8
0
 10
169.564
 20
-42.5665
 11
169.605
 21
-42.4478
  0
LINE
  8
0
 10
169.605
 20
-42.4478
 11
169.656
 21
-42.3331
  0
LINE
  8
0
 10
169.656
 20
-42.3331
 11
169.717
 21
-42.223
  0
LINE
  8
0
 10
169.717
 20
-42.223
 11
169.786
 21
-42.1183
  0
LINE
  8
0
 10
169.786
 20
-42.1183
 11
169.865
 21
-42.0199
  0
LINE
  8
0
 10
169.865
 20
-42.0199
 11
169.951
 21
-41.9283
  0
LINE
  8
0
 10
169.951
 20
-41.9283
 11
170.044
 21
-41.8442
  0
LINE
  8
0
 10
170.044
 20
-41.8442
 11
170.144
 21
-41.7683
  0
LINE
  8
0
 10
170.144
 20
-41.7683
 11
170.25
 21
-41.701
  0
LINE
  8
0
 10
170.25
 20
-41.701
 11
170.361
 21
-41.6428
  0
LINE
  8
0
 10
170.361
 20
-41.6428
 11
170.477
 21
-41.5941
  0
LINE
  8
0
 10
170.477
 20
-41.5941
 11
170.597
 21
-41.5553
  0
LINE
  8
0
 10
170.597
 20
-41.5553
 11
170.719
 21
-41.5266
  0
LINE
  8
0
 10
170.719
 20
-41.5266
 11
170.843
 21
-41.5082
  0
LINE
  8
0
 10
170.843
 20
-41.5082
 11
170.969
 21
-41.5003
  0
LINE
  8
0
 10
170.969
 20
-41.5003
 11
171.094
 21
-41.503
  0
LINE
  8
0
 10
171.094
 20
-41.503
 11
171.219
 21
-41.5161
  0
LINE
  8
0
 10
171.219
 20
-41.5161
 11
171.343
 21
-41.5396
  0
LINE
  8
0
 10
171.343
 20
-41.5396
 11
171.464
 21
-41.5734
  0
LINE
  8
0
 10
171.464
 20
-41.5734
 11
171.581
 21
-41.6172
  0
LINE
  8
0
 10
171.581
 20
-41.6172
 11
171.695
 21
-41.6707
  0
LINE
  8
0
 10
171.695
 20
-41.6707
 11
171.804
 21
-41.7335
  0
LINE
  8
0
 10
171.804
 20
-41.7335
 11
171.907
 21
-41.8052
  0
LINE
  8
0
 10
171.907
 20
-41.8052
 11
172.004
 21
-41.8853
  0
LINE
  8
0
 10
172.004
 20
-41.8853
 11
172.093
 21
-41.9732
  0
LINE
  8
0
 10
172.093
 20
-41.9732
 11
172.176
 21
-42.0683
  0
LINE
  8
0
 10
172.176
 20
-42.0683
 11
172.249
 21
-42.1699
  0
LINE
  8
0
 10
172.249
 20
-42.1699
 11
172.314
 21
-42.2774
  0
LINE
  8
0
 10
172.314
 20
-42.2774
 11
172.37
 21
-42.3899
  0
LINE
  8
0
 10
172.37
 20
-42.3899
 11
172.417
 21
-42.5067
  0
LINE
  8
0
 10
172.417
 20
-42.5067
 11
172.453
 21
-42.627
  0
LINE
  8
0
 10
172.453
 20
-42.627
 11
172.479
 21
-42.7498
  0
LINE
  8
0
 10
172.479
 20
-42.7498
 11
172.495
 21
-42.8745
  0
LINE
  8
0
 10
172.495
 20
-42.8745
 11
172.5
 21
-43
  0
LINE
  8
0
 10
172.5
 20
-43
 11
172.495
 21
-43.1255
  0
LINE
  8
0
 10
172.495
 20
-43.1255
 11
172.479
 21
-43.2502
  0
LINE
  8
0
 10
172.479
 20
-43.2502
 11
172.453
 21
-43.373
  0
LINE
  8
0
 10
172.453
 20
-43.373
 11
172.417
 21
-43.4933
  0
LINE
  8
0
 10
172.417
 20
-43.4933
 11
172.37
 21
-43.6101
  0
LINE
  8
0
 10
172.37
 20
-43.6101
 11
172.314
 21
-43.7226
  0
LINE
  8
0
 10
172.314
 20
-43.7226
 11
172.249
 21
-43.8301
  0
LINE
  8
0
 10
172.249
 20
-43.8301
 11
172.176
 21
-43.9317
  0
LINE
  8
0
 10
172.176
 20
-43.9317
 11
172.093
 21
-44.0268
  0
LINE
  8
0
 10
172.093
 20
-44.0268
 11
172.004
 21
-44.1147
  0
LINE
  8
0
 10
172.004
 20
-44.1147
 11
171.907
 21
-44.1948
  0
LINE
  8
0
 10
171.907
 20
-44.1948
 11
171.804
 21
-44.2665
  0
LINE
  8
0
 10
171.804
 20
-44.2665
 11
171.695
 21
-44.3293
  0
LINE
  8
0
 10
171.695
 20
-44.3293
 11
171.581
 21
-44.3828
  0
LINE
  8
0
 10
171.581
 20
-44.3828
 11
171.464
 21
-44.4266
  0
LINE
  8
0
 10
171.464
 20
-44.4266
 11
171.343
 21
-44.4604
  0
LINE
  8
0
 10
171.343
 20
-44.4604
 11
171.219
 21
-44.4839
  0
LINE
  8
0
 10
171.219
 20
-44.4839
 11
171.094
 21
-44.4971
  0
LINE
  8
0
 10
171.094
 20
-44.4971
 11
170.969
 21
-44.4997
  0
LINE
  8
0
 10
170.969
 20
-44.4997
 11
170.843
 21
-44.4918
  0
LINE
  8
0
 10
94.8432
 20
-63.4918
 11
94.7189
 21
-63.4734
  0
LINE
  8
0
 10
94.7189
 20
-63.4734
 11
94.5966
 21
-63.4447
  0
LINE
  8
0
 10
94.5966
 20
-63.4447
 11
94.4771
 21
-63.4059
  0
LINE
  8
0
 10
94.4771
 20
-63.4059
 11
94.3613
 21
-63.3573
  0
LINE
  8
0
 10
94.3613
 20
-63.3573
 11
94.25
 21
-63.299
  0
LINE
  8
0
 10
94.25
 20
-63.299
 11
94.1439
 21
-63.2317
  0
LINE
  8
0
 10
94.1439
 20
-63.2317
 11
94.0439
 21
-63.1558
  0
LINE
  8
0
 10
94.0439
 20
-63.1558
 11
93.9505
 21
-63.0717
  0
LINE
  8
0
 10
93.9505
 20
-63.0717
 11
93.8645
 21
-62.9801
  0
LINE
  8
0
 10
93.8645
 20
-62.9801
 11
93.7865
 21
-62.8817
  0
LINE
  8
0
 10
93.7865
 20
-62.8817
 11
93.7169
 21
-62.7771
  0
LINE
  8
0
 10
93.7169
 20
-62.7771
 11
93.6564
 21
-62.667
  0
LINE
  8
0
 10
93.6564
 20
-62.667
 11
93.6053
 21
-62.5522
  0
LINE
  8
0
 10
93.6053
 20
-62.5522
 11
93.564
 21
-62.4335
  0
LINE
  8
0
 10
93.564
 20
-62.4335
 11
93.5328
 21
-62.3119
  0
LINE
  8
0
 10
93.5328
 20
-62.3119
 11
93.5118
 21
-62.188
  0
LINE
  8
0
 10
93.5118
 20
-62.188
 11
93.5013
 21
-62.0628
  0
LINE
  8
0
 10
93.5013
 20
-62.0628
 11
93.5013
 21
-61.9372
  0
LINE
  8
0
 10
93.5013
 20
-61.9372
 11
93.5118
 21
-61.812
  0
LINE
  8
0
 10
93.5118
 20
-61.812
 11
93.5328
 21
-61.6881
  0
LINE
  8
0
 10
93.5328
 20
-61.6881
 11
93.564
 21
-61.5665
  0
LINE
  8
0
 10
93.564
 20
-61.5665
 11
93.6053
 21
-61.4478
  0
LINE
  8
0
 10
93.6053
 20
-61.4478
 11
93.6564
 21
-61.3331
  0
LINE
  8
0
 10
93.6564
 20
-61.3331
 11
93.7169
 21
-61.223
  0
LINE
  8
0
 10
93.7169
 20
-61.223
 11
93.7865
 21
-61.1183
  0
LINE
  8
0
 10
93.7865
 20
-61.1183
 11
93.8645
 21
-61.0199
  0
LINE
  8
0
 10
93.8645
 20
-61.0199
 11
93.9505
 21
-60.9283
  0
LINE
  8
0
 10
93.9505
 20
-60.9283
 11
94.0439
 21
-60.8442
  0
LINE
  8
0
 10
94.0439
 20
-60.8442
 11
94.1439
 21
-60.7683
  0
LINE
  8
0
 10
94.1439
 20
-60.7683
 11
94.25
 21
-60.701
  0
LINE
  8
0
 10
94.25
 20
-60.701
 11
94.3613
 21
-60.6428
  0
LINE
  8
0
 10
94.3613
 20
-60.6428
 11
94.4771
 21
-60.5941
  0
LINE
  8
0
 10
94.4771
 20
-60.5941
 11
94.5966
 21
-60.5553
  0
LINE
  8
0
 10
94.5966
 20
-60.5553
 11
94.7189
 21
-60.5266
  0
LINE
  8
0
 10
94.7189
 20
-60.5266
 11
94.8432
 21
-60.5082
  0
LINE
  8
0
 10
94.8432
 20
-60.5082
 11
94.9686
 21
-60.5003
  0
LINE
  8
0
 10
94.9686
 20
-60.5003
 11
95.0942
 21
-60.503
  0
LINE
  8
0
 10
95.0942
 20
-60.503
 11
95.2191
 21
-60.5161
  0
LINE
  8
0
 10
95.2191
 20
-60.5161
 11
95.3425
 21
-60.5396
  0
LINE
  8
0
 10
95.3425
 20
-60.5396
 11
95.4635
 21
-60.5734
  0
LINE
  8
0
 10
95.4635
 20
-60.5734
 11
95.5813
 21
-60.6172
  0
LINE
  8
0
 10
95.5813
 20
-60.6172
 11
95.6949
 21
-60.6707
  0
LINE
  8
0
 10
95.6949
 20
-60.6707
 11
95.8037
 21
-60.7335
  0
LINE
  8
0
 10
95.8037
 20
-60.7335
 11
95.9069
 21
-60.8052
  0
LINE
  8
0
 10
95.9069
 20
-60.8052
 11
96.0037
 21
-60.8853
  0
LINE
  8
0
 10
96.0037
 20
-60.8853
 11
96.0934
 21
-60.9732
  0
LINE
  8
0
 10
96.0934
 20
-60.9732
 11
96.1755
 21
-61.0683
  0
LINE
  8
0
 10
96.1755
 20
-61.0683
 11
96.2494
 21
-61.1699
  0
LINE
  8
0
 10
96.2494
 20
-61.1699
 11
96.3145
 21
-61.2774
  0
LINE
  8
0
 10
96.3145
 20
-61.2774
 11
96.3703
 21
-61.3899
  0
LINE
  8
0
 10
96.3703
 20
-61.3899
 11
96.4165
 21
-61.5067
  0
LINE
  8
0
 10
96.4165
 20
-61.5067
 11
96.4529
 21
-61.627
  0
LINE
  8
0
 10
96.4529
 20
-61.627
 11
96.479
 21
-61.7498
  0
LINE
  8
0
 10
96.479
 20
-61.7498
 11
96.4947
 21
-61.8745
  0
LINE
  8
0
 10
96.4947
 20
-61.8745
 11
96.5
 21
-62
  0
LINE
  8
0
 10
96.5
 20
-62
 11
96.4947
 21
-62.1255
  0
LINE
  8
0
 10
96.4947
 20
-62.1255
 11
96.479
 21
-62.2502
  0
LINE
  8
0
 10
96.479
 20
-62.2502
 11
96.4529
 21
-62.373
  0
LINE
  8
0
 10
96.4529
 20
-62.373
 11
96.4165
 21
-62.4933
  0
LINE
  8
0
 10
96.4165
 20
-62.4933
 11
96.3703
 21
-62.6101
  0
LINE
  8
0
 10
96.3703
 20
-62.6101
 11
96.3145
 21
-62.7226
  0
LINE
  8
0
 10
96.3145
 20
-62.7226
 11
96.2494
 21
-62.8301
  0
LINE
  8
0
 10
96.2494
 20
-62.8301
 11
96.1755
 21
-62.9317
  0
LINE
  8
0
 10
96.1755
 20
-62.9317
 11
96.0934
 21
-63.0268
  0
LINE
  8
0
 10
96.0934
 20
-63.0268
 11
96.0037
 21
-63.1147
  0
LINE
  8
0
 10
96.0037
 20
-63.1147
 11
95.9069
 21
-63.1948
  0
LINE
  8
0
 10
95.9069
 20
-63.1948
 11
95.8037
 21
-63.2665
  0
LINE
  8
0
 10
95.8037
 20
-63.2665
 11
95.6949
 21
-63.3293
  0
LINE
  8
0
 10
95.6949
 20
-63.3293
 11
95.5813
 21
-63.3828
  0
LINE
  8
0
 10
95.5813
 20
-63.3828
 11
95.4635
 21
-63.4266
  0
LINE
  8
0
 10
95.4635
 20
-63.4266
 11
95.3425
 21
-63.4604
  0
LINE
  8
0
 10
95.3425
 20
-63.4604
 11
95.2191
 21
-63.4839
  0
LINE
  8
0
 10
95.2191
 20
-63.4839
 11
95.0942
 21
-63.4971
  0
LINE
  8
0
 10
95.0942
 20
-63.4971
 11
94.9686
 21
-63.4997
  0
LINE
  8
0
 10
94.9686
 20
-63.4997
 11
94.8432
 21
-63.4918
  0
LINE
  8
0
 10
18.8432
 20
-82.4918
 11
18.7189
 21
-82.4734
  0
LINE
  8
0
 10
18.7189
 20
-82.4734
 11
18.5966
 21
-82.4447
  0
LINE
  8
0
 10
18.5966
 20
-82.4447
 11
18.4771
 21
-82.4059
  0
LINE
  8
0
 10
18.4771
 20
-82.4059
 11
18.3613
 21
-82.3573
  0
LINE
  8
0
 10
18.3613
 20
-82.3573
 11
18.25
 21
-82.299
  0
LINE
  8
0
 10
18.25
 20
-82.299
 11
18.1439
 21
-82.2317
  0
LINE
  8
0
 10
18.1439
 20
-82.2317
 11
18.0439
 21
-82.1558
  0
LINE
  8
0
 10
18.0439
 20
-82.1558
 11
17.9505
 21
-82.0717
  0
LINE
  8
0
 10
17.9505
 20
-82.0717
 11
17.8645
 21
-81.9801
  0
LINE
  8
0
 10
17.8645
 20
-81.9801
 11
17.7865
 21
-81.8817
  0
LINE
  8
0
 10
17.7865
 20
-81.8817
 11
17.7169
 21
-81.7771
  0
LINE
  8
0
 10
17.7169
 20
-81.7771
 11
17.6564
 21
-81.667
  0
LINE
  8
0
 10
17.6564
 20
-81.667
 11
17.6053
 21
-81.5522
  0
LINE
  8
0
 10
17.6053
 20
-81.5522
 11
17.564
 21
-81.4335
  0
LINE
  8
0
 10
17.564
 20
-81.4335
 11
17.5328
 21
-81.3119
  0
LINE
  8
0
 10
17.5328
 20
-81.3119
 11
17.5118
 21
-81.188
  0
LINE
  8
0
 10
17.5118
 20
-81.188
 11
17.5013
 21
-81.0628
  0
LINE
  8
0
 10
17.5013
 20
-81.0628
 11
17.5013
 21
-80.9372
  0
LINE
  8
0
 10
17.5013
 20
-80.9372
 11
17.5118
 21
-80.812
  0
LINE
  8
0
 10
17.5118
 20
-80.812
 11
17.5328
 21
-80.6881
  0
LINE
  8
0
 10
17.5328
 20
-80.6881
 11
17.564
 21
-80.5665
  0
LINE
  8
0
 10
17.564
 20
-80.5665
 11
17.6053
 21
-80.4478
  0
LINE
  8
0
 10
17.6053
 20
-80.4478
 11
17.6564
 21
-80.3331
  0
LINE
  8
0
 10
17.6564
 20
-80.3331
 11
17.7169
 21
-80.223
  0
LINE
  8
0
 10
17.7169
 20
-80.223
 11
17.7865
 21
-80.1183
  0
LINE
  8
0
 10
17.7865
 20
-80.1183
 11
17.8645
 21
-80.0199
  0
LINE
  8
0
 10
17.8645
 20
-80.0199
 11
17.9505
 21
-79.9283
  0
LINE
  8
0
 10
17.9505
 20
-79.9283
 11
18.0439
 21
-79.8442
  0
LINE
  8
0
 10
18.0439
 20
-79.8442
 11
18.1439
 21
-79.7683
  0
LINE
  8
0
 10
18.1439
 20
-79.7683
 11
18.25
 21
-79.701
  0
LINE
  8
0
 10
18.25
 20
-79.701
 11
18.3613
 21
-79.6428
  0
LINE
  8
0
 10
18.3613
 20
-79.6428
 11
18.4771
 21
-79.5941
  0
LINE
  8
0
 10
18.4771
 20
-79.5941
 11
18.5966
 21
-79.5553
  0
LINE
  8
0
 10
18.5966
 20
-79.5553
 11
18.7189
 21
-79.5266
  0
LINE
  8
0
 10
18.7189
 20
-79.5266
 11
18.8432
 21
-79.5082
  0
LINE
  8
0
 10
18.8432
 20
-79.5082
 11
18.9686
 21
-79.5003
  0
LINE
  8
0
 10
18.9686
 20
-79.5003
 11
19.0942
 21
-79.503
  0
LINE
  8
0
 10
19.0942
 20
-79.503
 11
19.2191
 21
-79.5161
  0
LINE
  8
0
 10
19.2191
 20
-79.5161
 11
19.3425
 21
-79.5396
  0
LINE
  8
0
 10
19.3425
 20
-79.5396
 11
19.4635
 21
-79.5734
  0
LINE
  8
0
 10
19.4635
 20
-79.5734
 11
19.5813
 21
-79.6172
  0
LINE
  8
0
 10
19.5813
 20
-79.6172
 11
19.6949
 21
-79.6707
  0
LINE
  8
0
 10
19.6949
 20
-79.6707
 11
19.8037
 21
-79.7335
  0
LINE
  8
0
 10
19.8037
 20
-79.7335
 11
19.9069
 21
-79.8052
  0
LINE
  8
0
 10
19.9069
 20
-79.8052
 11
20.0037
 21
-79.8853
  0
LINE
  8
0
 10
20.0037
 20
-79.8853
 11
20.0934
 21
-79.9732
  0
LINE
  8
0
 10
20.0934
 20
-79.9732
 11
20.1755
 21
-80.0683
  0
LINE
  8
0
 10
20.1755
 20
-80.0683
 11
20.2494
 21
-80.1699
  0
LINE
  8
0
 10
20.2494
 20
-80.1699
 11
20.3145
 21
-80.2774
  0
LINE
  8
0
 10
20.3145
 20
-80.2774
 11
20.3703
 21
-80.3899
  0
LINE
  8
0
 10
20.3703
 20
-80.3899
 11
20.4165
 21
-80.5067
  0
LINE
  8
0
 10
20.4165
 20
-80.5067
 11
20.4529
 21
-80.627
  0
LINE
  8
0
 10
20.4529
 20
-80.627
 11
20.479
 21
-80.7498
  0
LINE
  8
0
 10
20.479
 20
-80.7498
 11
20.4947
 21
-80.8745
  0
LINE
  8
0
 10
20.4947
 20
-80.8745
 11
20.5
 21
-81
  0
LINE
  8
0
 10
20.5
 20
-81
 11
20.4947
 21
-81.1255
  0
LINE
  8
0
 10
20.4947
 20
-81.1255
 11
20.479
 21
-81.2502
  0
LINE
  8
0
 10
20.479
 20
-81.2502
 11
20.4529
 21
-81.373
  0
LINE
  8
0
 10
20.4529
 20
-81.373
 11
20.4165
 21
-81.4933
  0
LINE
  8
0
 10
20.4165
 20
-81.4933
 11
20.3703
 21
-81.6101
  0
LINE
  8
0
 10
20.3703
 20
-81.6101
 11
20.3145
 21
-81.7226
  0
LINE
  8
0
 10
20.3145
 20
-81.7226
 11
20.2494
 21
-81.8301
  0
LINE
  8
0
 10
20.2494
 20
-81.8301
 11
20.1755
 21
-81.9317
  0
LINE
  8
0
 10
20.1755
 20
-81.9317
 11
20.0934
 21
-82.0268
  0
LINE
  8
0
 10
20.0934
 20
-82.0268
 11
20.0037
 21
-82.1147
  0
LINE
  8
0
 10
20.0037
 20
-82.1147
 11
19.9069
 21
-82.1948
  0
LINE
  8
0
 10
19.9069
 20
-82.1948
 11
19.8037
 21
-82.2665
  0
LINE
  8
0
 10
19.8037
 20
-82.2665
 11
19.6949
 21
-82.3293
  0
LINE
  8
0
 10
19.6949
 20
-82.3293
 11
19.5813
 21
-82.3828
  0
LINE
  8
0
 10
19.5813
 20
-82.3828
 11
19.4635
 21
-82.4266
  0
LINE
  8
0
 10
19.4635
 20
-82.4266
 11
19.3425
 21
-82.4604
  0
LINE
  8
0
 10
19.3425
 20
-82.4604
 11
19.2191
 21
-82.4839
  0
LINE
  8
0
 10
19.2191
 20
-82.4839
 11
19.0942
 21
-82.4971
  0
LINE
  8
0
 10
19.0942
 20
-82.4971
 11
18.9686
 21
-82.4997
  0
LINE
  8
0
 10
18.9686
 20
-82.4997
 11
18.8432
 21
-82.4918
  0
LINE
  8
0
 10
170.843
 20
-82.4918
 11
170.719
 21
-82.4734
  0
LINE
  8
0
 10
170.719
 20
-82.4734
 11
170.597
 21
-82.4447
  0
LINE
  8
0
 10
170.597
 20
-82.4447
 11
170.477
 21
-82.4059
  0
LINE
  8
0
 10
170.477
 20
-82.4059
 11
170.361
 21
-82.3573
  0
LINE
  8
0
 10
170.361
 20
-82.3573
 11
170.25
 21
-82.299
  0
LINE
  8
0
 10
170.25
 20
-82.299
 11
170.144
 21
-82.2317
  0
LINE
  8
0
 10
170.144
 20
-82.2317
 11
170.044
 21
-82.1558
  0
LINE
  8
0
 10
170.044
 20
-82.1558
 11
169.951
 21
-82.0717
  0
LINE
  8
0
 10
169.951
 20
-82.0717
 11
169.865
 21
-81.9801
  0
LINE
  8
0
 10
169.865
 20
-81.9801
 11
169.786
 21
-81.8817
  0
LINE
  8
0
 10
169.786
 20
-81.8817
 11
169.717
 21
-81.7771
  0
LINE
  8
0
 10
169.717
 20
-81.7771
 11
169.656
 21
-81.667
  0
LINE
  8
0
 10
169.656
 20
-81.667
 11
169.605
 21
-81.5522
  0
LINE
  8
0
 10
169.605
 20
-81.5522
 11
169.564
 21
-81.4335
  0
LINE
  8
0
 10
169.564
 20
-81.4335
 11
169.533
 21
-81.3119
  0
LINE
  8
0
 10
169.533
 20
-81.3119
 11
169.512
 21
-81.188
  0
LINE
  8
0
 10
169.512
 20
-81.188
 11
169.501
 21
-81.0628
  0
LINE
  8
0
 10
169.501
 20
-81.0628
 11
169.501
 21
-80.9372
  0
LINE
  8
0
 10
169.501
 20
-80.9372
 11
169.512
 21
-80.812
  0
LINE
  8
0
 10
169.512
 20
-80.812
 11
169.533
 21
-80.6881
  0
LINE
  8
0
 10
169.533
 20
-80.6881
 11
169.564
 21
-80.5665
  0
LINE
  8
0
 10
169.564
 20
-80.5665
 11
169.605
 21
-80.4478
  0
LINE
  8
0
 10
169.605
 20
-80.4478
 11
169.656
 21
-80.3331
  0
LINE
  8
0
 10
169.656
 20
-80.3331
 11
169.717
 21
-80.223
  0
LINE
  8
0
 10
169.717
 20
-80.223
 11
169.786
 21
-80.1183
  0
LINE
  8
0
 10
169.786
 20
-80.1183
 11
169.865
 21
-80.0199
  0
LINE
  8
0
 10
169.865
 20
-80.0199
 11
169.951
 21
-79.9283
  0
LINE
  8
0
 10
169.951
 20
-79.9283
 11
170.044
 21
-79.8442
  0
LINE
  8
0
 10
170.044
 20
-79.8442
 11
170.144
 21
-79.7683
  0
LINE
  8
0
 10
170.144
 20
-79.7683
 11
170.25
 21
-79.701
  0
LINE
  8
0
 10
170.25
 20
-79.701
 11
170.361
 21
-79.6428
  0
LINE
  8
0
 10
170.361
 20
-79.6428
 11
170.477
 21
-79.5941
  0
LINE
  8
0
 10
170.477
 20
-79.5941
 11
170.597
 21
-79.5553
  0
LINE
  8
0
 10
170.597
 20
-79.5553
 11
170.719
 21
-79.5266
  0
LINE
  8
0
 10
170.719
 20
-79.5266
 11
170.843
 21
-79.5082
  0
LINE
  8
0
 10
170.843
 20
-79.5082
 11
170.969
 21
-79.5003
  0
LINE
  8
0
 10
170.969
 20
-79.5003
 11
171.094
 21
-79.503
  0
LINE
  8
0
 10
171.094
 20
-79.503
 11
171.219
 21
-79.5161
  0
LINE
  8
0
 10
171.219
 20
-79.5161
 11
171.343
 21
-79.5396
  0
LINE
  8
0
 10
171.343
 20
-79.5396
 11
171.464
 21
-79.5734
  0
LINE
  8
0
 10
171.464
 20
-79.5734
 11
171.581
 21
-79.6172
  0
LINE
  8
0
 10
171.581
 20
-79.6172
 11
171.695
 21
-79.6707
  0
LINE
  8
0
 10
171.695
 20
-79.6707
 11
171.804
 21
-79.7335
  0
LINE
  8
0
 10
171.804
 20
-79.7335
 11
171.907
 21
-79.8052
  0
LINE
  8
0
 10
171.907
 20
-79.8052
 11
172.004
 21
-79.8853
  0
LINE
  8
0
 10
172.004
 20
-79.8853
 11
172.093
 21
-79.9732
  0
LINE
  8
0
 10
172.093
 20
-79.9732
 11
172.176
 21
-80.0683
  0
LINE
  8
0
 10
172.176
 20
-80.0683
 11
172.249
 21
-80.1699
  0
LINE
  8
0
 10
172.249
 20
-80.1699
 11
172.314
 21
-80.2774
  0
LINE
  8
0
 10
172.314
 20
-80.2774
 11
172.37
 21
-80.3899
  0
LINE
  8
0
 10
172.37
 20
-80.3899
 11
172.417
 21
-80.5067
  0
LINE
  8
0
 10
172.417
 20
-80.5067
 11
172.453
 21
-80.627
  0
LINE
  8
0
 10
172.453
 20
-80.627
 11
172.479
 21
-80.7498
  0
LINE
  8
0
 10
172.479
 20
-80.7498
 11
172.495
 21
-80.8745
  0
LINE
  8
0
 10
172.495
 20
-80.8745
 11
172.5
 21
-81
  0
LINE
  8
0
 10
172.5
 20
-81
 11
172.495
 21
-81.1255
  0
LINE
  8
0
 10
172.495
 20
-81.1255
 11
172.479
 21
-81.2502
  0
LINE
  8
0
 10
172.479
 20
-81.2502
 11
172.453
 21
-81.373
  0
LINE
  8
0
 10
172.453
 20
-81.373
 11
172.417
 21
-81.4933
  0
LINE
  8
0
 10
172.417
 20
-81.4933
 11
172.37
 21
-81.6101
  0
LINE
  8
0
 10
172.37
 20
-81.6101
 11
172.314
 21
-81.7226
  0
LINE
  8
0
 10
172.314
 20
-81.7226
 11
172.249
 21
-81.8301
  0
LINE
  8
0
 10
172.249
 20
-81.8301
 11
172.176
 21
-81.9317
  0
LINE
  8
0
 10
172.176
 20
-81.9317
 11
172.093
 21
-82.0268
  0
LINE
  8
0
 10
172.093
 20
-82.0268
 11
172.004
 21
-82.1147
  0
LINE
  8
0
 10
172.004
 20
-82.1147
 11
171.907
 21
-82.1948
  0
LINE
  8
0
 10
171.907
 20
-82.1948
 11
171.804
 21
-82.2665
  0
LINE
  8
0
 10
171.804
 20
-82.2665
 11
171.695
 21
-82.3293
  0
LINE
  8
0
 10
171.695
 20
-82.3293
 11
171.581
 21
-82.3828
  0
LINE
  8
0
 10
171.581
 20
-82.3828
 11
171.464
 21
-82.4266
  0
LINE
  8
0
 10
171.464
 20
-82.4266
 11
171.343
 21
-82.4604
  0
LINE
  8
0
 10
171.343
 20
-82.4604
 11
171.219
 21
-82.4839
  0
LINE
  8
0
 10
171.219
 20
-82.4839
 11
171.094
 21
-82.4971
  0
LINE
  8
0
 10
171.094
 20
-82.4971
 11
170.969
 21
-82.4997
  0
LINE
  8
0
 10
170.969
 20
-82.4997
 11
170.843
 21
-82.4918
  0
ENDSEC
  0
SECTION
  2
OBJECTS
  0
DICTIONARY
  0
ENDSEC
  0
EOF
