  0
SECTION
  2
BLOCKS
  0
ENDSEC
  0
SECTION
  2
ENTITIES
  0
LINE
  8
0
 10
191.862
 20
96.7352
 11
191.987
 21
96.7483
  0
LINE
  8
0
 10
191.987
 20
96.7483
 11
192.11
 21
96.7719
  0
LINE
  8
0
 10
192.11
 20
96.7719
 11
192.231
 21
96.8056
  0
LINE
  8
0
 10
192.231
 20
96.8056
 11
192.349
 21
96.8494
  0
LINE
  8
0
 10
192.349
 20
96.8494
 11
192.463
 21
96.9029
  0
LINE
  8
0
 10
192.463
 20
96.9029
 11
192.572
 21
96.9657
  0
LINE
  8
0
 10
192.572
 20
96.9657
 11
192.675
 21
97.0374
  0
LINE
  8
0
 10
192.675
 20
97.0374
 11
192.771
 21
97.1175
  0
LINE
  8
0
 10
192.771
 20
97.1175
 11
192.861
 21
97.2054
  0
LINE
  8
0
 10
192.861
 20
97.2054
 11
192.943
 21
97.3005
  0
LINE
  8
0
 10
192.943
 20
97.3005
 11
193.017
 21
97.4022
  0
LINE
  8
0
 10
193.017
 20
97.4022
 11
193.082
 21
97.5096
  0
LINE
  8
0
 10
193.082
 20
97.5096
 11
193.138
 21
97.6221
  0
LINE
  8
0
 10
193.138
 20
97.6221
 11
193.184
 21
97.7389
  0
LINE
  8
0
 10
193.184
 20
97.7389
 11
193.221
 21
97.8592
  0
LINE
  8
0
 10
193.221
 20
97.8592
 11
193.247
 21
97.9821
  0
LINE
  8
0
 10
193.247
 20
97.9821
 11
193.262
 21
98.1067
  0
LINE
  8
0
 10
193.262
 20
98.1067
 11
193.268
 21
98.2322
  0
LINE
  8
0
 10
193.268
 20
98.2322
 11
193.268
 21
177.768
  0
LINE
  8
0
 10
193.268
 20
177.768
 11
193.262
 21
177.893
  0
LINE
  8
0
 10
193.262
 20
177.893
 11
193.247
 21
178.018
  0
LINE
  8
0
 10
193.247
 20
178.018
 11
193.221
 21
178.141
  0
LINE
  8
0
 10
193.221
 20
178.141
 11
193.184
 21
178.261
  0
LINE
  8
0
 10
193.184
 20
178.261
 11
193.138
 21
178.378
  0
LINE
  8
0
 10
193.138
 20
178.378
 11
193.082
 21
178.49
  0
LINE
  8
0
 10
193.082
 20
178.49
 11
193.017
 21
178.598
  0
LINE
  8
0
 10
193.017
 20
178.598
 11
192.943
 21
178.699
  0
LINE
  8
0
 10
192.943
 20
178.699
 11
192.861
 21
178.795
  0
LINE
  8
0
 10
192.861
 20
178.795
 11
192.771
 21
178.882
  0
LINE
  8
0
 10
192.771
 20
178.882
 11
192.675
 21
178.963
  0
LINE
  8
0
 10
192.675
 20
178.963
 11
192.572
 21
179.034
  0
LINE
  8
0
 10
192.572
 20
179.034
 11
192.463
 21
179.097
  0
LINE
  8
0
 10
192.463
 20
179.097
 11
192.349
 21
179.151
  0
LINE
  8
0
 10
192.349
 20
179.151
 11
192.231
 21
179.194
  0
LINE
  8
0
 10
192.231
 20
179.194
 11
192.11
 21
179.228
  0
LINE
  8
0
 10
192.11
 20
179.228
 11
191.987
 21
179.252
  0
LINE
  8
0
 10
191.987
 20
179.252
 11
191.862
 21
179.265
  0
LINE
  8
0
 10
191.862
 20
179.265
 11
191.736
 21
179.267
  0
LINE
  8
0
 10
191.736
 20
179.267
 11
-1.79918
 21
179.267
  0
LINE
  8
0
 10
-1.79918
 20
179.267
 11
-1.92455
 21
179.26
  0
LINE
  8
0
 10
-1.92455
 20
179.26
 11
-2.04883
 21
179.241
  0
LINE
  8
0
 10
-2.04883
 20
179.241
 11
-2.17114
 21
179.213
  0
LINE
  8
0
 10
-2.17114
 20
179.213
 11
-2.29062
 21
179.174
  0
LINE
  8
0
 10
-2.29062
 20
179.174
 11
-2.40643
 21
179.125
  0
LINE
  8
0
 10
-2.40643
 20
179.125
 11
-2.51776
 21
179.067
  0
LINE
  8
0
 10
-2.51776
 20
179.067
 11
-2.62383
 21
178.999
  0
LINE
  8
0
 10
-2.62383
 20
178.999
 11
-2.72389
 21
178.924
  0
LINE
  8
0
 10
-2.72389
 20
178.924
 11
-2.81726
 21
178.839
  0
LINE
  8
0
 10
-2.81726
 20
178.839
 11
-2.90326
 21
178.748
  0
LINE
  8
0
 10
-2.90326
 20
178.748
 11
-2.98128
 21
178.649
  0
LINE
  8
0
 10
-2.98128
 20
178.649
 11
-3.05081
 21
178.545
  0
LINE
  8
0
 10
-3.05081
 20
178.545
 11
-3.11133
 21
178.435
  0
LINE
  8
0
 10
-3.11133
 20
178.435
 11
-3.16243
 21
178.32
  0
LINE
  8
0
 10
-3.16243
 20
178.32
 11
-3.20374
 21
178.201
  0
LINE
  8
0
 10
-3.20374
 20
178.201
 11
-3.23499
 21
178.08
  0
LINE
  8
0
 10
-3.23499
 20
178.08
 11
-3.25594
 21
177.956
  0
LINE
  8
0
 10
-3.25594
 20
177.956
 11
-3.26645
 21
177.831
  0
LINE
  8
0
 10
-3.26645
 20
177.831
 11
-3.26645
 21
98.1694
  0
LINE
  8
0
 10
-3.26645
 20
98.1694
 11
-3.25594
 21
98.0442
  0
LINE
  8
0
 10
-3.25594
 20
98.0442
 11
-3.23499
 21
97.9204
  0
LINE
  8
0
 10
-3.23499
 20
97.9204
 11
-3.20374
 21
97.7987
  0
LINE
  8
0
 10
-3.20374
 20
97.7987
 11
-3.16243
 21
97.6801
  0
LINE
  8
0
 10
-3.16243
 20
97.6801
 11
-3.11133
 21
97.5653
  0
LINE
  8
0
 10
-3.11133
 20
97.5653
 11
-3.05081
 21
97.4552
  0
LINE
  8
0
 10
-3.05081
 20
97.4552
 11
-2.98128
 21
97.3506
  0
LINE
  8
0
 10
-2.98128
 20
97.3506
 11
-2.90326
 21
97.2521
  0
LINE
  8
0
 10
-2.90326
 20
97.2521
 11
-2.81726
 21
97.1605
  0
LINE
  8
0
 10
-2.81726
 20
97.1605
 11
-2.72389
 21
97.0765
  0
LINE
  8
0
 10
-2.72389
 20
97.0765
 11
-2.62383
 21
97.0005
  0
LINE
  8
0
 10
-2.62383
 20
97.0005
 11
-2.51776
 21
96.9332
  0
LINE
  8
0
 10
-2.51776
 20
96.9332
 11
-2.40643
 21
96.875
  0
LINE
  8
0
 10
-2.40643
 20
96.875
 11
-2.29062
 21
96.8263
  0
LINE
  8
0
 10
-2.29062
 20
96.8263
 11
-2.17114
 21
96.7875
  0
LINE
  8
0
 10
-2.17114
 20
96.7875
 11
-2.04883
 21
96.7588
  0
LINE
  8
0
 10
-2.04883
 20
96.7588
 11
-1.92455
 21
96.7405
  0
LINE
  8
0
 10
-1.92455
 20
96.7405
 11
-1.79918
 21
96.7326
  0
LINE
  8
0
 10
-1.79918
 20
96.7326
 11
191.736
 21
96.7326
  0
LINE
  8
0
 10
191.736
 20
96.7326
 11
191.862
 21
96.7352
  0
LINE
  8
0
 10
-0.625488
 20
171.755
 11
-0.750137
 21
171.771
  0
LINE
  8
0
 10
-0.750137
 20
171.771
 11
-0.873016
 21
171.797
  0
LINE
  8
0
 10
-0.873016
 20
171.797
 11
-0.993271
 21
171.833
  0
LINE
  8
0
 10
-0.993271
 20
171.833
 11
-1.11008
 21
171.88
  0
LINE
  8
0
 10
-1.11008
 20
171.88
 11
-1.22261
 21
171.936
  0
LINE
  8
0
 10
-1.22261
 20
171.936
 11
-1.33008
 21
172.001
  0
LINE
  8
0
 10
-1.33008
 20
172.001
 11
-1.43172
 21
172.074
  0
LINE
  8
0
 10
-1.43172
 20
172.074
 11
-1.52681
 21
172.157
  0
LINE
  8
0
 10
-1.52681
 20
172.157
 11
-1.61472
 21
172.246
  0
LINE
  8
0
 10
-1.61472
 20
172.246
 11
-1.69479
 21
172.343
  0
LINE
  8
0
 10
-1.69479
 20
172.343
 11
-1.76648
 21
172.446
  0
LINE
  8
0
 10
-1.76648
 20
172.446
 11
-1.8293
 21
172.555
  0
LINE
  8
0
 10
-1.8293
 20
172.555
 11
-1.88278
 21
172.669
  0
LINE
  8
0
 10
-1.88278
 20
172.669
 11
-1.92657
 21
172.786
  0
LINE
  8
0
 10
-1.92657
 20
172.786
 11
-1.96036
 21
172.907
  0
LINE
  8
0
 10
-1.96036
 20
172.907
 11
-1.9839
 21
173.031
  0
LINE
  8
0
 10
-1.9839
 20
173.031
 11
-1.99704
 21
173.156
  0
LINE
  8
0
 10
-1.99704
 20
173.156
 11
-1.99966
 21
173.281
  0
LINE
  8
0
 10
-1.99966
 20
173.281
 11
-1.99178
 21
173.407
  0
LINE
  8
0
 10
-1.99178
 20
173.407
 11
-1.97342
 21
173.531
  0
LINE
  8
0
 10
-1.97342
 20
173.531
 11
-1.94473
 21
173.653
  0
LINE
  8
0
 10
-1.94473
 20
173.653
 11
-1.90591
 21
173.773
  0
LINE
  8
0
 10
-1.90591
 20
173.773
 11
-1.85724
 21
173.889
  0
LINE
  8
0
 10
-1.85724
 20
173.889
 11
-1.79903
 21
174
  0
LINE
  8
0
 10
-1.79903
 20
174
 11
-1.73172
 21
174.106
  0
LINE
  8
0
 10
-1.73172
 20
174.106
 11
-1.65576
 21
174.206
  0
LINE
  8
0
 10
-1.65576
 20
174.206
 11
-1.5717
 21
174.299
  0
LINE
  8
0
 10
-1.5717
 20
174.299
 11
-1.48012
 21
174.385
  0
LINE
  8
0
 10
-1.48012
 20
174.385
 11
-1.38167
 21
174.464
  0
LINE
  8
0
 10
-1.38167
 20
174.464
 11
-1.27704
 21
174.533
  0
LINE
  8
0
 10
-1.27704
 20
174.533
 11
-1.16695
 21
174.594
  0
LINE
  8
0
 10
-1.16695
 20
174.594
 11
-1.05219
 21
174.645
  0
LINE
  8
0
 10
-1.05219
 20
174.645
 11
-0.933533
 21
174.686
  0
LINE
  8
0
 10
-0.933533
 20
174.686
 11
-0.811859
 21
174.717
  0
LINE
  8
0
 10
-0.811859
 20
174.717
 11
-0.687988
 21
174.738
  0
LINE
  8
0
 10
-0.687988
 20
174.738
 11
-0.562805
 21
174.749
  0
LINE
  8
0
 10
-0.562805
 20
174.749
 11
-0.437195
 21
174.749
  0
LINE
  8
0
 10
-0.437195
 20
174.749
 11
-0.312012
 21
174.738
  0
LINE
  8
0
 10
-0.312012
 20
174.738
 11
-0.188141
 21
174.717
  0
LINE
  8
0
 10
-0.188141
 20
174.717
 11
-0.0664673
 21
174.686
  0
LINE
  8
0
 10
-0.0664673
 20
174.686
 11
0.0521851
 21
174.645
  0
LINE
  8
0
 10
0.0521851
 20
174.645
 11
0.166946
 21
174.594
  0
LINE
  8
0
 10
0.166946
 20
174.594
 11
0.277039
 21
174.533
  0
LINE
  8
0
 10
0.277039
 20
174.533
 11
0.381668
 21
174.464
  0
LINE
  8
0
 10
0.381668
 20
174.464
 11
0.480118
 21
174.385
  0
LINE
  8
0
 10
0.480118
 20
174.385
 11
0.571701
 21
174.299
  0
LINE
  8
0
 10
0.571701
 20
174.299
 11
0.655762
 21
174.206
  0
LINE
  8
0
 10
0.655762
 20
174.206
 11
0.73172
 21
174.106
  0
LINE
  8
0
 10
0.73172
 20
174.106
 11
0.799026
 21
174
  0
LINE
  8
0
 10
0.799026
 20
174
 11
0.857239
 21
173.889
  0
LINE
  8
0
 10
0.857239
 20
173.889
 11
0.905914
 21
173.773
  0
LINE
  8
0
 10
0.905914
 20
173.773
 11
0.944733
 21
173.653
  0
LINE
  8
0
 10
0.944733
 20
173.653
 11
0.973419
 21
173.531
  0
LINE
  8
0
 10
0.973419
 20
173.531
 11
0.991776
 21
173.407
  0
LINE
  8
0
 10
0.991776
 20
173.407
 11
0.999664
 21
173.281
  0
LINE
  8
0
 10
0.999664
 20
173.281
 11
0.99704
 21
173.156
  0
LINE
  8
0
 10
0.99704
 20
173.156
 11
0.983902
 21
173.031
  0
LINE
  8
0
 10
0.983902
 20
173.031
 11
0.960358
 21
172.907
  0
LINE
  8
0
 10
0.960358
 20
172.907
 11
0.926575
 21
172.786
  0
LINE
  8
0
 10
0.926575
 20
172.786
 11
0.882782
 21
172.669
  0
LINE
  8
0
 10
0.882782
 20
172.669
 11
0.8293
 21
172.555
  0
LINE
  8
0
 10
0.8293
 20
172.555
 11
0.766479
 21
172.446
  0
LINE
  8
0
 10
0.766479
 20
172.446
 11
0.694794
 21
172.343
  0
LINE
  8
0
 10
0.694794
 20
172.343
 11
0.614716
 21
172.246
  0
LINE
  8
0
 10
0.614716
 20
172.246
 11
0.52681
 21
172.157
  0
LINE
  8
0
 10
0.52681
 20
172.157
 11
0.431717
 21
172.074
  0
LINE
  8
0
 10
0.431717
 20
172.074
 11
0.330078
 21
172.001
  0
LINE
  8
0
 10
0.330078
 20
172.001
 11
0.222626
 21
171.936
  0
LINE
  8
0
 10
0.222626
 20
171.936
 11
0.110092
 21
171.88
  0
LINE
  8
0
 10
0.110092
 20
171.88
 11
-0.00669861
 21
171.833
  0
LINE
  8
0
 10
-0.00669861
 20
171.833
 11
-0.126953
 21
171.797
  0
LINE
  8
0
 10
-0.126953
 20
171.797
 11
-0.249832
 21
171.771
  0
LINE
  8
0
 10
-0.249832
 20
171.771
 11
-0.374481
 21
171.755
  0
LINE
  8
0
 10
-0.374481
 20
171.755
 11
-0.499985
 21
171.75
  0
LINE
  8
0
 10
-0.499985
 20
171.75
 11
-0.625488
 21
171.755
  0
LINE
  8
0
 10
173.515
 20
159.515
 11
173.515
 21
160.495
  0
LINE
  8
0
 10
173.515
 20
160.495
 11
172.702
 21
160.495
  0
LINE
  8
0
 10
172.702
 20
160.495
 11
172.702
 21
163.996
  0
LINE
  8
0
 10
172.702
 20
163.996
 11
173.515
 21
163.996
  0
LINE
  8
0
 10
173.515
 20
163.996
 11
173.515
 21
169.004
  0
LINE
  8
0
 10
173.515
 20
169.004
 11
172.702
 21
169.004
  0
LINE
  8
0
 10
172.702
 20
169.004
 11
172.702
 21
172.505
  0
LINE
  8
0
 10
172.702
 20
172.505
 11
173.515
 21
172.505
  0
LINE
  8
0
 10
173.515
 20
172.505
 11
173.515
 21
173.485
  0
LINE
  8
0
 10
173.515
 20
173.485
 11
187.485
 21
173.485
  0
LINE
  8
0
 10
187.485
 20
173.485
 11
187.485
 21
172.505
  0
LINE
  8
0
 10
187.485
 20
172.505
 11
188.298
 21
172.505
  0
LINE
  8
0
 10
188.298
 20
172.505
 11
188.298
 21
169.004
  0
LINE
  8
0
 10
188.298
 20
169.004
 11
187.485
 21
169.004
  0
LINE
  8
0
 10
187.485
 20
169.004
 11
187.485
 21
163.996
  0
LINE
  8
0
 10
187.485
 20
163.996
 11
188.298
 21
163.996
  0
LINE
  8
0
 10
188.298
 20
163.996
 11
188.298
 21
160.495
  0
LINE
  8
0
 10
188.298
 20
160.495
 11
187.485
 21
160.495
  0
LINE
  8
0
 10
187.485
 20
160.495
 11
187.485
 21
159.515
  0
LINE
  8
0
 10
187.485
 20
159.515
 11
173.515
 21
159.515
  0
LINE
  8
0
 10
154.515
 20
159.515
 11
154.515
 21
160.495
  0
LINE
  8
0
 10
154.515
 20
160.495
 11
153.702
 21
160.495
  0
LINE
  8
0
 10
153.702
 20
160.495
 11
153.702
 21
163.996
  0
LINE
  8
0
 10
153.702
 20
163.996
 11
154.515
 21
163.996
  0
LINE
  8
0
 10
154.515
 20
163.996
 11
154.515
 21
169.004
  0
LINE
  8
0
 10
154.515
 20
169.004
 11
153.702
 21
169.004
  0
LINE
  8
0
 10
153.702
 20
169.004
 11
153.702
 21
172.505
  0
LINE
  8
0
 10
153.702
 20
172.505
 11
154.515
 21
172.505
  0
LINE
  8
0
 10
154.515
 20
172.505
 11
154.515
 21
173.485
  0
LINE
  8
0
 10
154.515
 20
173.485
 11
168.485
 21
173.485
  0
LINE
  8
0
 10
168.485
 20
173.485
 11
168.485
 21
172.505
  0
LINE
  8
0
 10
168.485
 20
172.505
 11
169.298
 21
172.505
  0
LINE
  8
0
 10
169.298
 20
172.505
 11
169.298
 21
169.004
  0
LINE
  8
0
 10
169.298
 20
169.004
 11
168.485
 21
169.004
  0
LINE
  8
0
 10
168.485
 20
169.004
 11
168.485
 21
163.996
  0
LINE
  8
0
 10
168.485
 20
163.996
 11
169.298
 21
163.996
  0
LINE
  8
0
 10
169.298
 20
163.996
 11
169.298
 21
160.495
  0
LINE
  8
0
 10
169.298
 20
160.495
 11
168.485
 21
160.495
  0
LINE
  8
0
 10
168.485
 20
160.495
 11
168.485
 21
159.515
  0
LINE
  8
0
 10
168.485
 20
159.515
 11
154.515
 21
159.515
  0
LINE
  8
0
 10
135.515
 20
159.515
 11
135.515
 21
160.495
  0
LINE
  8
0
 10
135.515
 20
160.495
 11
134.702
 21
160.495
  0
LINE
  8
0
 10
134.702
 20
160.495
 11
134.702
 21
163.996
  0
LINE
  8
0
 10
134.702
 20
163.996
 11
135.515
 21
163.996
  0
LINE
  8
0
 10
135.515
 20
163.996
 11
135.515
 21
169.004
  0
LINE
  8
0
 10
135.515
 20
169.004
 11
134.702
 21
169.004
  0
LINE
  8
0
 10
134.702
 20
169.004
 11
134.702
 21
172.505
  0
LINE
  8
0
 10
134.702
 20
172.505
 11
135.515
 21
172.505
  0
LINE
  8
0
 10
135.515
 20
172.505
 11
135.515
 21
173.485
  0
LINE
  8
0
 10
135.515
 20
173.485
 11
149.485
 21
173.485
  0
LINE
  8
0
 10
149.485
 20
173.485
 11
149.485
 21
172.505
  0
LINE
  8
0
 10
149.485
 20
172.505
 11
150.298
 21
172.505
  0
LINE
  8
0
 10
150.298
 20
172.505
 11
150.298
 21
169.004
  0
LINE
  8
0
 10
150.298
 20
169.004
 11
149.485
 21
169.004
  0
LINE
  8
0
 10
149.485
 20
169.004
 11
149.485
 21
163.996
  0
LINE
  8
0
 10
149.485
 20
163.996
 11
150.298
 21
163.996
  0
LINE
  8
0
 10
150.298
 20
163.996
 11
150.298
 21
160.495
  0
LINE
  8
0
 10
150.298
 20
160.495
 11
149.485
 21
160.495
  0
LINE
  8
0
 10
149.485
 20
160.495
 11
149.485
 21
159.515
  0
LINE
  8
0
 10
149.485
 20
159.515
 11
135.515
 21
159.515
  0
LINE
  8
0
 10
116.515
 20
159.515
 11
116.515
 21
160.495
  0
LINE
  8
0
 10
116.515
 20
160.495
 11
115.702
 21
160.495
  0
LINE
  8
0
 10
115.702
 20
160.495
 11
115.702
 21
163.996
  0
LINE
  8
0
 10
115.702
 20
163.996
 11
116.515
 21
163.996
  0
LINE
  8
0
 10
116.515
 20
163.996
 11
116.515
 21
169.004
  0
LINE
  8
0
 10
116.515
 20
169.004
 11
115.702
 21
169.004
  0
LINE
  8
0
 10
115.702
 20
169.004
 11
115.702
 21
172.505
  0
LINE
  8
0
 10
115.702
 20
172.505
 11
116.515
 21
172.505
  0
LINE
  8
0
 10
116.515
 20
172.505
 11
116.515
 21
173.485
  0
LINE
  8
0
 10
116.515
 20
173.485
 11
130.485
 21
173.485
  0
LINE
  8
0
 10
130.485
 20
173.485
 11
130.485
 21
172.505
  0
LINE
  8
0
 10
130.485
 20
172.505
 11
131.298
 21
172.505
  0
LINE
  8
0
 10
131.298
 20
172.505
 11
131.298
 21
169.004
  0
LINE
  8
0
 10
131.298
 20
169.004
 11
130.485
 21
169.004
  0
LINE
  8
0
 10
130.485
 20
169.004
 11
130.485
 21
163.996
  0
LINE
  8
0
 10
130.485
 20
163.996
 11
131.298
 21
163.996
  0
LINE
  8
0
 10
131.298
 20
163.996
 11
131.298
 21
160.495
  0
LINE
  8
0
 10
131.298
 20
160.495
 11
130.485
 21
160.495
  0
LINE
  8
0
 10
130.485
 20
160.495
 11
130.485
 21
159.515
  0
LINE
  8
0
 10
130.485
 20
159.515
 11
116.515
 21
159.515
  0
LINE
  8
0
 10
97.515
 20
159.515
 11
97.515
 21
160.495
  0
LINE
  8
0
 10
97.515
 20
160.495
 11
96.7022
 21
160.495
  0
LINE
  8
0
 10
96.7022
 20
160.495
 11
96.7022
 21
163.996
  0
LINE
  8
0
 10
96.7022
 20
163.996
 11
97.515
 21
163.996
  0
LINE
  8
0
 10
97.515
 20
163.996
 11
97.515
 21
169.004
  0
LINE
  8
0
 10
97.515
 20
169.004
 11
96.7022
 21
169.004
  0
LINE
  8
0
 10
96.7022
 20
169.004
 11
96.7022
 21
172.505
  0
LINE
  8
0
 10
96.7022
 20
172.505
 11
97.515
 21
172.505
  0
LINE
  8
0
 10
97.515
 20
172.505
 11
97.515
 21
173.485
  0
LINE
  8
0
 10
97.515
 20
173.485
 11
111.485
 21
173.485
  0
LINE
  8
0
 10
111.485
 20
173.485
 11
111.485
 21
172.505
  0
LINE
  8
0
 10
111.485
 20
172.505
 11
112.298
 21
172.505
  0
LINE
  8
0
 10
112.298
 20
172.505
 11
112.298
 21
169.004
  0
LINE
  8
0
 10
112.298
 20
169.004
 11
111.485
 21
169.004
  0
LINE
  8
0
 10
111.485
 20
169.004
 11
111.485
 21
163.996
  0
LINE
  8
0
 10
111.485
 20
163.996
 11
112.298
 21
163.996
  0
LINE
  8
0
 10
112.298
 20
163.996
 11
112.298
 21
160.495
  0
LINE
  8
0
 10
112.298
 20
160.495
 11
111.485
 21
160.495
  0
LINE
  8
0
 10
111.485
 20
160.495
 11
111.485
 21
159.515
  0
LINE
  8
0
 10
111.485
 20
159.515
 11
97.515
 21
159.515
  0
LINE
  8
0
 10
78.515
 20
159.515
 11
78.515
 21
160.495
  0
LINE
  8
0
 10
78.515
 20
160.495
 11
77.7022
 21
160.495
  0
LINE
  8
0
 10
77.7022
 20
160.495
 11
77.7022
 21
163.996
  0
LINE
  8
0
 10
77.7022
 20
163.996
 11
78.515
 21
163.996
  0
LINE
  8
0
 10
78.515
 20
163.996
 11
78.515
 21
169.004
  0
LINE
  8
0
 10
78.515
 20
169.004
 11
77.7022
 21
169.004
  0
LINE
  8
0
 10
77.7022
 20
169.004
 11
77.7022
 21
172.505
  0
LINE
  8
0
 10
77.7022
 20
172.505
 11
78.515
 21
172.505
  0
LINE
  8
0
 10
78.515
 20
172.505
 11
78.515
 21
173.485
  0
LINE
  8
0
 10
78.515
 20
173.485
 11
92.485
 21
173.485
  0
LINE
  8
0
 10
92.485
 20
173.485
 11
92.485
 21
172.505
  0
LINE
  8
0
 10
92.485
 20
172.505
 11
93.2978
 21
172.505
  0
LINE
  8
0
 10
93.2978
 20
172.505
 11
93.2978
 21
169.004
  0
LINE
  8
0
 10
93.2978
 20
169.004
 11
92.485
 21
169.004
  0
LINE
  8
0
 10
92.485
 20
169.004
 11
92.485
 21
163.996
  0
LINE
  8
0
 10
92.485
 20
163.996
 11
93.2978
 21
163.996
  0
LINE
  8
0
 10
93.2978
 20
163.996
 11
93.2978
 21
160.495
  0
LINE
  8
0
 10
93.2978
 20
160.495
 11
92.485
 21
160.495
  0
LINE
  8
0
 10
92.485
 20
160.495
 11
92.485
 21
159.515
  0
LINE
  8
0
 10
92.485
 20
159.515
 11
78.515
 21
159.515
  0
LINE
  8
0
 10
59.515
 20
159.515
 11
59.515
 21
160.495
  0
LINE
  8
0
 10
59.515
 20
160.495
 11
58.7022
 21
160.495
  0
LINE
  8
0
 10
58.7022
 20
160.495
 11
58.7022
 21
163.996
  0
LINE
  8
0
 10
58.7022
 20
163.996
 11
59.515
 21
163.996
  0
LINE
  8
0
 10
59.515
 20
163.996
 11
59.515
 21
169.004
  0
LINE
  8
0
 10
59.515
 20
169.004
 11
58.7022
 21
169.004
  0
LINE
  8
0
 10
58.7022
 20
169.004
 11
58.7022
 21
172.505
  0
LINE
  8
0
 10
58.7022
 20
172.505
 11
59.515
 21
172.505
  0
LINE
  8
0
 10
59.515
 20
172.505
 11
59.515
 21
173.485
  0
LINE
  8
0
 10
59.515
 20
173.485
 11
73.485
 21
173.485
  0
LINE
  8
0
 10
73.485
 20
173.485
 11
73.485
 21
172.505
  0
LINE
  8
0
 10
73.485
 20
172.505
 11
74.2978
 21
172.505
  0
LINE
  8
0
 10
74.2978
 20
172.505
 11
74.2978
 21
169.004
  0
LINE
  8
0
 10
74.2978
 20
169.004
 11
73.485
 21
169.004
  0
LINE
  8
0
 10
73.485
 20
169.004
 11
73.485
 21
163.996
  0
LINE
  8
0
 10
73.485
 20
163.996
 11
74.2978
 21
163.996
  0
LINE
  8
0
 10
74.2978
 20
163.996
 11
74.2978
 21
160.495
  0
LINE
  8
0
 10
74.2978
 20
160.495
 11
73.485
 21
160.495
  0
LINE
  8
0
 10
73.485
 20
160.495
 11
73.485
 21
159.515
  0
LINE
  8
0
 10
73.485
 20
159.515
 11
59.515
 21
159.515
  0
LINE
  8
0
 10
40.515
 20
159.515
 11
40.515
 21
160.495
  0
LINE
  8
0
 10
40.515
 20
160.495
 11
39.7022
 21
160.495
  0
LINE
  8
0
 10
39.7022
 20
160.495
 11
39.7022
 21
163.996
  0
LINE
  8
0
 10
39.7022
 20
163.996
 11
40.515
 21
163.996
  0
LINE
  8
0
 10
40.515
 20
163.996
 11
40.515
 21
169.004
  0
LINE
  8
0
 10
40.515
 20
169.004
 11
39.7022
 21
169.004
  0
LINE
  8
0
 10
39.7022
 20
169.004
 11
39.7022
 21
172.505
  0
LINE
  8
0
 10
39.7022
 20
172.505
 11
40.515
 21
172.505
  0
LINE
  8
0
 10
40.515
 20
172.505
 11
40.515
 21
173.485
  0
LINE
  8
0
 10
40.515
 20
173.485
 11
54.485
 21
173.485
  0
LINE
  8
0
 10
54.485
 20
173.485
 11
54.485
 21
172.505
  0
LINE
  8
0
 10
54.485
 20
172.505
 11
55.2978
 21
172.505
  0
LINE
  8
0
 10
55.2978
 20
172.505
 11
55.2978
 21
169.004
  0
LINE
  8
0
 10
55.2978
 20
169.004
 11
54.485
 21
169.004
  0
LINE
  8
0
 10
54.485
 20
169.004
 11
54.485
 21
163.996
  0
LINE
  8
0
 10
54.485
 20
163.996
 11
55.2978
 21
163.996
  0
LINE
  8
0
 10
55.2978
 20
163.996
 11
55.2978
 21
160.495
  0
LINE
  8
0
 10
55.2978
 20
160.495
 11
54.485
 21
160.495
  0
LINE
  8
0
 10
54.485
 20
160.495
 11
54.485
 21
159.515
  0
LINE
  8
0
 10
54.485
 20
159.515
 11
40.515
 21
159.515
  0
LINE
  8
0
 10
21.515
 20
159.515
 11
21.515
 21
160.495
  0
LINE
  8
0
 10
21.515
 20
160.495
 11
20.7022
 21
160.495
  0
LINE
  8
0
 10
20.7022
 20
160.495
 11
20.7022
 21
163.996
  0
LINE
  8
0
 10
20.7022
 20
163.996
 11
21.515
 21
163.996
  0
LINE
  8
0
 10
21.515
 20
163.996
 11
21.515
 21
169.004
  0
LINE
  8
0
 10
21.515
 20
169.004
 11
20.7022
 21
169.004
  0
LINE
  8
0
 10
20.7022
 20
169.004
 11
20.7022
 21
172.505
  0
LINE
  8
0
 10
20.7022
 20
172.505
 11
21.515
 21
172.505
  0
LINE
  8
0
 10
21.515
 20
172.505
 11
21.515
 21
173.485
  0
LINE
  8
0
 10
21.515
 20
173.485
 11
35.485
 21
173.485
  0
LINE
  8
0
 10
35.485
 20
173.485
 11
35.485
 21
172.505
  0
LINE
  8
0
 10
35.485
 20
172.505
 11
36.2978
 21
172.505
  0
LINE
  8
0
 10
36.2978
 20
172.505
 11
36.2978
 21
169.004
  0
LINE
  8
0
 10
36.2978
 20
169.004
 11
35.485
 21
169.004
  0
LINE
  8
0
 10
35.485
 20
169.004
 11
35.485
 21
163.996
  0
LINE
  8
0
 10
35.485
 20
163.996
 11
36.2978
 21
163.996
  0
LINE
  8
0
 10
36.2978
 20
163.996
 11
36.2978
 21
160.495
  0
LINE
  8
0
 10
36.2978
 20
160.495
 11
35.485
 21
160.495
  0
LINE
  8
0
 10
35.485
 20
160.495
 11
35.485
 21
159.515
  0
LINE
  8
0
 10
35.485
 20
159.515
 11
21.515
 21
159.515
  0
LINE
  8
0
 10
2.51501
 20
159.515
 11
2.51501
 21
160.495
  0
LINE
  8
0
 10
2.51501
 20
160.495
 11
1.70221
 21
160.495
  0
LINE
  8
0
 10
1.70221
 20
160.495
 11
1.70221
 21
163.996
  0
LINE
  8
0
 10
1.70221
 20
163.996
 11
2.51501
 21
163.996
  0
LINE
  8
0
 10
2.51501
 20
163.996
 11
2.51501
 21
169.004
  0
LINE
  8
0
 10
2.51501
 20
169.004
 11
1.70221
 21
169.004
  0
LINE
  8
0
 10
1.70221
 20
169.004
 11
1.70221
 21
172.505
  0
LINE
  8
0
 10
1.70221
 20
172.505
 11
2.51501
 21
172.505
  0
LINE
  8
0
 10
2.51501
 20
172.505
 11
2.51501
 21
173.485
  0
LINE
  8
0
 10
2.51501
 20
173.485
 11
16.485
 21
173.485
  0
LINE
  8
0
 10
16.485
 20
173.485
 11
16.485
 21
172.505
  0
LINE
  8
0
 10
16.485
 20
172.505
 11
17.2978
 21
172.505
  0
LINE
  8
0
 10
17.2978
 20
172.505
 11
17.2978
 21
169.004
  0
LINE
  8
0
 10
17.2978
 20
169.004
 11
16.485
 21
169.004
  0
LINE
  8
0
 10
16.485
 20
169.004
 11
16.485
 21
163.996
  0
LINE
  8
0
 10
16.485
 20
163.996
 11
17.2978
 21
163.996
  0
LINE
  8
0
 10
17.2978
 20
163.996
 11
17.2978
 21
160.495
  0
LINE
  8
0
 10
17.2978
 20
160.495
 11
16.485
 21
160.495
  0
LINE
  8
0
 10
16.485
 20
160.495
 11
16.485
 21
159.515
  0
LINE
  8
0
 10
16.485
 20
159.515
 11
2.51501
 21
159.515
  0
LINE
  8
0
 10
-0.625488
 20
156.555
 11
-0.750137
 21
156.571
  0
LINE
  8
0
 10
-0.750137
 20
156.571
 11
-0.873016
 21
156.597
  0
LINE
  8
0
 10
-0.873016
 20
156.597
 11
-0.993271
 21
156.633
  0
LINE
  8
0
 10
-0.993271
 20
156.633
 11
-1.11008
 21
156.68
  0
LINE
  8
0
 10
-1.11008
 20
156.68
 11
-1.22261
 21
156.736
  0
LINE
  8
0
 10
-1.22261
 20
156.736
 11
-1.33006
 21
156.801
  0
LINE
  8
0
 10
-1.33006
 20
156.801
 11
-1.4317
 21
156.874
  0
LINE
  8
0
 10
-1.4317
 20
156.874
 11
-1.52679
 21
156.957
  0
LINE
  8
0
 10
-1.52679
 20
156.957
 11
-1.6147
 21
157.046
  0
LINE
  8
0
 10
-1.6147
 20
157.046
 11
-1.69478
 21
157.143
  0
LINE
  8
0
 10
-1.69478
 20
157.143
 11
-1.76646
 21
157.246
  0
LINE
  8
0
 10
-1.76646
 20
157.246
 11
-1.82928
 21
157.355
  0
LINE
  8
0
 10
-1.82928
 20
157.355
 11
-1.88277
 21
157.469
  0
LINE
  8
0
 10
-1.88277
 20
157.469
 11
-1.92656
 21
157.586
  0
LINE
  8
0
 10
-1.92656
 20
157.586
 11
-1.96034
 21
157.707
  0
LINE
  8
0
 10
-1.96034
 20
157.707
 11
-1.98389
 21
157.831
  0
LINE
  8
0
 10
-1.98389
 20
157.831
 11
-1.99702
 21
157.956
  0
LINE
  8
0
 10
-1.99702
 20
157.956
 11
-1.99965
 21
158.081
  0
LINE
  8
0
 10
-1.99965
 20
158.081
 11
-1.99176
 21
158.207
  0
LINE
  8
0
 10
-1.99176
 20
158.207
 11
-1.9734
 21
158.331
  0
LINE
  8
0
 10
-1.9734
 20
158.331
 11
-1.94472
 21
158.453
  0
LINE
  8
0
 10
-1.94472
 20
158.453
 11
-1.9059
 21
158.573
  0
LINE
  8
0
 10
-1.9059
 20
158.573
 11
-1.85722
 21
158.689
  0
LINE
  8
0
 10
-1.85722
 20
158.689
 11
-1.79901
 21
158.8
  0
LINE
  8
0
 10
-1.79901
 20
158.8
 11
-1.7317
 21
158.906
  0
LINE
  8
0
 10
-1.7317
 20
158.906
 11
-1.65575
 21
159.006
  0
LINE
  8
0
 10
-1.65575
 20
159.006
 11
-1.57169
 21
159.1
  0
LINE
  8
0
 10
-1.57169
 20
159.1
 11
-1.4801
 21
159.186
  0
LINE
  8
0
 10
-1.4801
 20
159.186
 11
-1.38165
 21
159.264
  0
LINE
  8
0
 10
-1.38165
 20
159.264
 11
-1.27702
 21
159.333
  0
LINE
  8
0
 10
-1.27702
 20
159.333
 11
-1.16693
 21
159.394
  0
LINE
  8
0
 10
-1.16693
 20
159.394
 11
-1.05217
 21
159.445
  0
LINE
  8
0
 10
-1.05217
 20
159.445
 11
-0.933517
 21
159.486
  0
LINE
  8
0
 10
-0.933517
 20
159.486
 11
-0.811844
 21
159.517
  0
LINE
  8
0
 10
-0.811844
 20
159.517
 11
-0.687973
 21
159.538
  0
LINE
  8
0
 10
-0.687973
 20
159.538
 11
-0.56279
 21
159.549
  0
LINE
  8
0
 10
-0.56279
 20
159.549
 11
-0.43718
 21
159.549
  0
LINE
  8
0
 10
-0.43718
 20
159.549
 11
-0.311996
 21
159.538
  0
LINE
  8
0
 10
-0.311996
 20
159.538
 11
-0.188126
 21
159.517
  0
LINE
  8
0
 10
-0.188126
 20
159.517
 11
-0.066452
 21
159.486
  0
LINE
  8
0
 10
-0.066452
 20
159.486
 11
0.0521851
 21
159.445
  0
LINE
  8
0
 10
0.0521851
 20
159.445
 11
0.166946
 21
159.394
  0
LINE
  8
0
 10
0.166946
 20
159.394
 11
0.277039
 21
159.333
  0
LINE
  8
0
 10
0.277039
 20
159.333
 11
0.381668
 21
159.264
  0
LINE
  8
0
 10
0.381668
 20
159.264
 11
0.480118
 21
159.186
  0
LINE
  8
0
 10
0.480118
 20
159.186
 11
0.571701
 21
159.1
  0
LINE
  8
0
 10
0.571701
 20
159.1
 11
0.655762
 21
159.006
  0
LINE
  8
0
 10
0.655762
 20
159.006
 11
0.73172
 21
158.906
  0
LINE
  8
0
 10
0.73172
 20
158.906
 11
0.799026
 21
158.8
  0
LINE
  8
0
 10
0.799026
 20
158.8
 11
0.857239
 21
158.689
  0
LINE
  8
0
 10
0.857239
 20
158.689
 11
0.905914
 21
158.573
  0
LINE
  8
0
 10
0.905914
 20
158.573
 11
0.944733
 21
158.453
  0
LINE
  8
0
 10
0.944733
 20
158.453
 11
0.973419
 21
158.331
  0
LINE
  8
0
 10
0.973419
 20
158.331
 11
0.991776
 21
158.207
  0
LINE
  8
0
 10
0.991776
 20
158.207
 11
0.999664
 21
158.081
  0
LINE
  8
0
 10
0.999664
 20
158.081
 11
0.99704
 21
157.956
  0
LINE
  8
0
 10
0.99704
 20
157.956
 11
0.983902
 21
157.831
  0
LINE
  8
0
 10
0.983902
 20
157.831
 11
0.960358
 21
157.707
  0
LINE
  8
0
 10
0.960358
 20
157.707
 11
0.926575
 21
157.586
  0
LINE
  8
0
 10
0.926575
 20
157.586
 11
0.882782
 21
157.469
  0
LINE
  8
0
 10
0.882782
 20
157.469
 11
0.8293
 21
157.355
  0
LINE
  8
0
 10
0.8293
 20
157.355
 11
0.766479
 21
157.246
  0
LINE
  8
0
 10
0.766479
 20
157.246
 11
0.694794
 21
157.143
  0
LINE
  8
0
 10
0.694794
 20
157.143
 11
0.614716
 21
157.046
  0
LINE
  8
0
 10
0.614716
 20
157.046
 11
0.52681
 21
156.957
  0
LINE
  8
0
 10
0.52681
 20
156.957
 11
0.431717
 21
156.874
  0
LINE
  8
0
 10
0.431717
 20
156.874
 11
0.330078
 21
156.801
  0
LINE
  8
0
 10
0.330078
 20
156.801
 11
0.222626
 21
156.736
  0
LINE
  8
0
 10
0.222626
 20
156.736
 11
0.110092
 21
156.68
  0
LINE
  8
0
 10
0.110092
 20
156.68
 11
-0.00669861
 21
156.633
  0
LINE
  8
0
 10
-0.00669861
 20
156.633
 11
-0.126953
 21
156.597
  0
LINE
  8
0
 10
-0.126953
 20
156.597
 11
-0.249832
 21
156.571
  0
LINE
  8
0
 10
-0.249832
 20
156.571
 11
-0.374481
 21
156.555
  0
LINE
  8
0
 10
-0.374481
 20
156.555
 11
-0.499985
 21
156.55
  0
LINE
  8
0
 10
-0.499985
 20
156.55
 11
-0.625488
 21
156.555
  0
LINE
  8
0
 10
170.843
 20
155.508
 11
170.719
 21
155.527
  0
LINE
  8
0
 10
170.719
 20
155.527
 11
170.597
 21
155.555
  0
LINE
  8
0
 10
170.597
 20
155.555
 11
170.477
 21
155.594
  0
LINE
  8
0
 10
170.477
 20
155.594
 11
170.361
 21
155.643
  0
LINE
  8
0
 10
170.361
 20
155.643
 11
170.25
 21
155.701
  0
LINE
  8
0
 10
170.25
 20
155.701
 11
170.144
 21
155.768
  0
LINE
  8
0
 10
170.144
 20
155.768
 11
170.044
 21
155.844
  0
LINE
  8
0
 10
170.044
 20
155.844
 11
169.951
 21
155.928
  0
LINE
  8
0
 10
169.951
 20
155.928
 11
169.865
 21
156.02
  0
LINE
  8
0
 10
169.865
 20
156.02
 11
169.786
 21
156.118
  0
LINE
  8
0
 10
169.786
 20
156.118
 11
169.717
 21
156.223
  0
LINE
  8
0
 10
169.717
 20
156.223
 11
169.656
 21
156.333
  0
LINE
  8
0
 10
169.656
 20
156.333
 11
169.605
 21
156.448
  0
LINE
  8
0
 10
169.605
 20
156.448
 11
169.564
 21
156.566
  0
LINE
  8
0
 10
169.564
 20
156.566
 11
169.533
 21
156.688
  0
LINE
  8
0
 10
169.533
 20
156.688
 11
169.512
 21
156.812
  0
LINE
  8
0
 10
169.512
 20
156.812
 11
169.501
 21
156.937
  0
LINE
  8
0
 10
169.501
 20
156.937
 11
169.501
 21
157.063
  0
LINE
  8
0
 10
169.501
 20
157.063
 11
169.512
 21
157.188
  0
LINE
  8
0
 10
169.512
 20
157.188
 11
169.533
 21
157.312
  0
LINE
  8
0
 10
169.533
 20
157.312
 11
169.564
 21
157.434
  0
LINE
  8
0
 10
169.564
 20
157.434
 11
169.605
 21
157.552
  0
LINE
  8
0
 10
169.605
 20
157.552
 11
169.656
 21
157.667
  0
LINE
  8
0
 10
169.656
 20
157.667
 11
169.717
 21
157.777
  0
LINE
  8
0
 10
169.717
 20
157.777
 11
169.786
 21
157.882
  0
LINE
  8
0
 10
169.786
 20
157.882
 11
169.865
 21
157.98
  0
LINE
  8
0
 10
169.865
 20
157.98
 11
169.951
 21
158.072
  0
LINE
  8
0
 10
169.951
 20
158.072
 11
170.044
 21
158.156
  0
LINE
  8
0
 10
170.044
 20
158.156
 11
170.144
 21
158.232
  0
LINE
  8
0
 10
170.144
 20
158.232
 11
170.25
 21
158.299
  0
LINE
  8
0
 10
170.25
 20
158.299
 11
170.361
 21
158.357
  0
LINE
  8
0
 10
170.361
 20
158.357
 11
170.477
 21
158.406
  0
LINE
  8
0
 10
170.477
 20
158.406
 11
170.597
 21
158.445
  0
LINE
  8
0
 10
170.597
 20
158.445
 11
170.719
 21
158.473
  0
LINE
  8
0
 10
170.719
 20
158.473
 11
170.843
 21
158.492
  0
LINE
  8
0
 10
170.843
 20
158.492
 11
170.969
 21
158.5
  0
LINE
  8
0
 10
170.969
 20
158.5
 11
171.094
 21
158.497
  0
LINE
  8
0
 10
171.094
 20
158.497
 11
171.219
 21
158.484
  0
LINE
  8
0
 10
171.219
 20
158.484
 11
171.343
 21
158.46
  0
LINE
  8
0
 10
171.343
 20
158.46
 11
171.464
 21
158.427
  0
LINE
  8
0
 10
171.464
 20
158.427
 11
171.581
 21
158.383
  0
LINE
  8
0
 10
171.581
 20
158.383
 11
171.695
 21
158.329
  0
LINE
  8
0
 10
171.695
 20
158.329
 11
171.804
 21
158.266
  0
LINE
  8
0
 10
171.804
 20
158.266
 11
171.907
 21
158.195
  0
LINE
  8
0
 10
171.907
 20
158.195
 11
172.004
 21
158.115
  0
LINE
  8
0
 10
172.004
 20
158.115
 11
172.093
 21
158.027
  0
LINE
  8
0
 10
172.093
 20
158.027
 11
172.176
 21
157.932
  0
LINE
  8
0
 10
172.176
 20
157.932
 11
172.249
 21
157.83
  0
LINE
  8
0
 10
172.249
 20
157.83
 11
172.314
 21
157.723
  0
LINE
  8
0
 10
172.314
 20
157.723
 11
172.37
 21
157.61
  0
LINE
  8
0
 10
172.37
 20
157.61
 11
172.417
 21
157.493
  0
LINE
  8
0
 10
172.417
 20
157.493
 11
172.453
 21
157.373
  0
LINE
  8
0
 10
172.453
 20
157.373
 11
172.479
 21
157.25
  0
LINE
  8
0
 10
172.479
 20
157.25
 11
172.495
 21
157.126
  0
LINE
  8
0
 10
172.495
 20
157.126
 11
172.5
 21
157
  0
LINE
  8
0
 10
172.5
 20
157
 11
172.495
 21
156.874
  0
LINE
  8
0
 10
172.495
 20
156.874
 11
172.479
 21
156.75
  0
LINE
  8
0
 10
172.479
 20
156.75
 11
172.453
 21
156.627
  0
LINE
  8
0
 10
172.453
 20
156.627
 11
172.417
 21
156.507
  0
LINE
  8
0
 10
172.417
 20
156.507
 11
172.37
 21
156.39
  0
LINE
  8
0
 10
172.37
 20
156.39
 11
172.314
 21
156.277
  0
LINE
  8
0
 10
172.314
 20
156.277
 11
172.249
 21
156.17
  0
LINE
  8
0
 10
172.249
 20
156.17
 11
172.176
 21
156.068
  0
LINE
  8
0
 10
172.176
 20
156.068
 11
172.093
 21
155.973
  0
LINE
  8
0
 10
172.093
 20
155.973
 11
172.004
 21
155.885
  0
LINE
  8
0
 10
172.004
 20
155.885
 11
171.907
 21
155.805
  0
LINE
  8
0
 10
171.907
 20
155.805
 11
171.804
 21
155.734
  0
LINE
  8
0
 10
171.804
 20
155.734
 11
171.695
 21
155.671
  0
LINE
  8
0
 10
171.695
 20
155.671
 11
171.581
 21
155.617
  0
LINE
  8
0
 10
171.581
 20
155.617
 11
171.464
 21
155.573
  0
LINE
  8
0
 10
171.464
 20
155.573
 11
171.343
 21
155.54
  0
LINE
  8
0
 10
171.343
 20
155.54
 11
171.219
 21
155.516
  0
LINE
  8
0
 10
171.219
 20
155.516
 11
171.094
 21
155.503
  0
LINE
  8
0
 10
171.094
 20
155.503
 11
170.969
 21
155.5
  0
LINE
  8
0
 10
170.969
 20
155.5
 11
170.843
 21
155.508
  0
LINE
  8
0
 10
18.8432
 20
155.508
 11
18.7189
 21
155.527
  0
LINE
  8
0
 10
18.7189
 20
155.527
 11
18.5966
 21
155.555
  0
LINE
  8
0
 10
18.5966
 20
155.555
 11
18.4771
 21
155.594
  0
LINE
  8
0
 10
18.4771
 20
155.594
 11
18.3613
 21
155.643
  0
LINE
  8
0
 10
18.3613
 20
155.643
 11
18.25
 21
155.701
  0
LINE
  8
0
 10
18.25
 20
155.701
 11
18.1439
 21
155.768
  0
LINE
  8
0
 10
18.1439
 20
155.768
 11
18.0439
 21
155.844
  0
LINE
  8
0
 10
18.0439
 20
155.844
 11
17.9505
 21
155.928
  0
LINE
  8
0
 10
17.9505
 20
155.928
 11
17.8645
 21
156.02
  0
LINE
  8
0
 10
17.8645
 20
156.02
 11
17.7865
 21
156.118
  0
LINE
  8
0
 10
17.7865
 20
156.118
 11
17.7169
 21
156.223
  0
LINE
  8
0
 10
17.7169
 20
156.223
 11
17.6564
 21
156.333
  0
LINE
  8
0
 10
17.6564
 20
156.333
 11
17.6053
 21
156.448
  0
LINE
  8
0
 10
17.6053
 20
156.448
 11
17.564
 21
156.566
  0
LINE
  8
0
 10
17.564
 20
156.566
 11
17.5328
 21
156.688
  0
LINE
  8
0
 10
17.5328
 20
156.688
 11
17.5118
 21
156.812
  0
LINE
  8
0
 10
17.5118
 20
156.812
 11
17.5013
 21
156.937
  0
LINE
  8
0
 10
17.5013
 20
156.937
 11
17.5013
 21
157.063
  0
LINE
  8
0
 10
17.5013
 20
157.063
 11
17.5118
 21
157.188
  0
LINE
  8
0
 10
17.5118
 20
157.188
 11
17.5328
 21
157.312
  0
LINE
  8
0
 10
17.5328
 20
157.312
 11
17.564
 21
157.434
  0
LINE
  8
0
 10
17.564
 20
157.434
 11
17.6053
 21
157.552
  0
LINE
  8
0
 10
17.6053
 20
157.552
 11
17.6564
 21
157.667
  0
LINE
  8
0
 10
17.6564
 20
157.667
 11
17.7169
 21
157.777
  0
LINE
  8
0
 10
17.7169
 20
157.777
 11
17.7865
 21
157.882
  0
LINE
  8
0
 10
17.7865
 20
157.882
 11
17.8645
 21
157.98
  0
LINE
  8
0
 10
17.8645
 20
157.98
 11
17.9505
 21
158.072
  0
LINE
  8
0
 10
17.9505
 20
158.072
 11
18.0439
 21
158.156
  0
LINE
  8
0
 10
18.0439
 20
158.156
 11
18.1439
 21
158.232
  0
LINE
  8
0
 10
18.1439
 20
158.232
 11
18.25
 21
158.299
  0
LINE
  8
0
 10
18.25
 20
158.299
 11
18.3613
 21
158.357
  0
LINE
  8
0
 10
18.3613
 20
158.357
 11
18.4771
 21
158.406
  0
LINE
  8
0
 10
18.4771
 20
158.406
 11
18.5966
 21
158.445
  0
LINE
  8
0
 10
18.5966
 20
158.445
 11
18.7189
 21
158.473
  0
LINE
  8
0
 10
18.7189
 20
158.473
 11
18.8432
 21
158.492
  0
LINE
  8
0
 10
18.8432
 20
158.492
 11
18.9686
 21
158.5
  0
LINE
  8
0
 10
18.9686
 20
158.5
 11
19.0942
 21
158.497
  0
LINE
  8
0
 10
19.0942
 20
158.497
 11
19.2191
 21
158.484
  0
LINE
  8
0
 10
19.2191
 20
158.484
 11
19.3425
 21
158.46
  0
LINE
  8
0
 10
19.3425
 20
158.46
 11
19.4635
 21
158.427
  0
LINE
  8
0
 10
19.4635
 20
158.427
 11
19.5813
 21
158.383
  0
LINE
  8
0
 10
19.5813
 20
158.383
 11
19.6949
 21
158.329
  0
LINE
  8
0
 10
19.6949
 20
158.329
 11
19.8037
 21
158.266
  0
LINE
  8
0
 10
19.8037
 20
158.266
 11
19.9069
 21
158.195
  0
LINE
  8
0
 10
19.9069
 20
158.195
 11
20.0037
 21
158.115
  0
LINE
  8
0
 10
20.0037
 20
158.115
 11
20.0934
 21
158.027
  0
LINE
  8
0
 10
20.0934
 20
158.027
 11
20.1755
 21
157.932
  0
LINE
  8
0
 10
20.1755
 20
157.932
 11
20.2494
 21
157.83
  0
LINE
  8
0
 10
20.2494
 20
157.83
 11
20.3145
 21
157.723
  0
LINE
  8
0
 10
20.3145
 20
157.723
 11
20.3703
 21
157.61
  0
LINE
  8
0
 10
20.3703
 20
157.61
 11
20.4165
 21
157.493
  0
LINE
  8
0
 10
20.4165
 20
157.493
 11
20.4529
 21
157.373
  0
LINE
  8
0
 10
20.4529
 20
157.373
 11
20.479
 21
157.25
  0
LINE
  8
0
 10
20.479
 20
157.25
 11
20.4947
 21
157.126
  0
LINE
  8
0
 10
20.4947
 20
157.126
 11
20.5
 21
157
  0
LINE
  8
0
 10
20.5
 20
157
 11
20.4947
 21
156.874
  0
LINE
  8
0
 10
20.4947
 20
156.874
 11
20.479
 21
156.75
  0
LINE
  8
0
 10
20.479
 20
156.75
 11
20.4529
 21
156.627
  0
LINE
  8
0
 10
20.4529
 20
156.627
 11
20.4165
 21
156.507
  0
LINE
  8
0
 10
20.4165
 20
156.507
 11
20.3703
 21
156.39
  0
LINE
  8
0
 10
20.3703
 20
156.39
 11
20.3145
 21
156.277
  0
LINE
  8
0
 10
20.3145
 20
156.277
 11
20.2494
 21
156.17
  0
LINE
  8
0
 10
20.2494
 20
156.17
 11
20.1755
 21
156.068
  0
LINE
  8
0
 10
20.1755
 20
156.068
 11
20.0934
 21
155.973
  0
LINE
  8
0
 10
20.0934
 20
155.973
 11
20.0037
 21
155.885
  0
LINE
  8
0
 10
20.0037
 20
155.885
 11
19.9069
 21
155.805
  0
LINE
  8
0
 10
19.9069
 20
155.805
 11
19.8037
 21
155.734
  0
LINE
  8
0
 10
19.8037
 20
155.734
 11
19.6949
 21
155.671
  0
LINE
  8
0
 10
19.6949
 20
155.671
 11
19.5813
 21
155.617
  0
LINE
  8
0
 10
19.5813
 20
155.617
 11
19.4635
 21
155.573
  0
LINE
  8
0
 10
19.4635
 20
155.573
 11
19.3425
 21
155.54
  0
LINE
  8
0
 10
19.3425
 20
155.54
 11
19.2191
 21
155.516
  0
LINE
  8
0
 10
19.2191
 20
155.516
 11
19.0942
 21
155.503
  0
LINE
  8
0
 10
19.0942
 20
155.503
 11
18.9686
 21
155.5
  0
LINE
  8
0
 10
18.9686
 20
155.5
 11
18.8432
 21
155.508
  0
LINE
  8
0
 10
173.515
 20
140.515
 11
173.515
 21
141.495
  0
LINE
  8
0
 10
173.515
 20
141.495
 11
172.702
 21
141.495
  0
LINE
  8
0
 10
172.702
 20
141.495
 11
172.702
 21
144.996
  0
LINE
  8
0
 10
172.702
 20
144.996
 11
173.515
 21
144.996
  0
LINE
  8
0
 10
173.515
 20
144.996
 11
173.515
 21
150.004
  0
LINE
  8
0
 10
173.515
 20
150.004
 11
172.702
 21
150.004
  0
LINE
  8
0
 10
172.702
 20
150.004
 11
172.702
 21
153.505
  0
LINE
  8
0
 10
172.702
 20
153.505
 11
173.515
 21
153.505
  0
LINE
  8
0
 10
173.515
 20
153.505
 11
173.515
 21
154.485
  0
LINE
  8
0
 10
173.515
 20
154.485
 11
187.485
 21
154.485
  0
LINE
  8
0
 10
187.485
 20
154.485
 11
187.485
 21
153.505
  0
LINE
  8
0
 10
187.485
 20
153.505
 11
188.298
 21
153.505
  0
LINE
  8
0
 10
188.298
 20
153.505
 11
188.298
 21
150.004
  0
LINE
  8
0
 10
188.298
 20
150.004
 11
187.485
 21
150.004
  0
LINE
  8
0
 10
187.485
 20
150.004
 11
187.485
 21
144.996
  0
LINE
  8
0
 10
187.485
 20
144.996
 11
188.298
 21
144.996
  0
LINE
  8
0
 10
188.298
 20
144.996
 11
188.298
 21
141.495
  0
LINE
  8
0
 10
188.298
 20
141.495
 11
187.485
 21
141.495
  0
LINE
  8
0
 10
187.485
 20
141.495
 11
187.485
 21
140.515
  0
LINE
  8
0
 10
187.485
 20
140.515
 11
173.515
 21
140.515
  0
LINE
  8
0
 10
154.515
 20
140.515
 11
154.515
 21
141.495
  0
LINE
  8
0
 10
154.515
 20
141.495
 11
153.702
 21
141.495
  0
LINE
  8
0
 10
153.702
 20
141.495
 11
153.702
 21
144.996
  0
LINE
  8
0
 10
153.702
 20
144.996
 11
154.515
 21
144.996
  0
LINE
  8
0
 10
154.515
 20
144.996
 11
154.515
 21
150.004
  0
LINE
  8
0
 10
154.515
 20
150.004
 11
153.702
 21
150.004
  0
LINE
  8
0
 10
153.702
 20
150.004
 11
153.702
 21
153.505
  0
LINE
  8
0
 10
153.702
 20
153.505
 11
154.515
 21
153.505
  0
LINE
  8
0
 10
154.515
 20
153.505
 11
154.515
 21
154.485
  0
LINE
  8
0
 10
154.515
 20
154.485
 11
168.485
 21
154.485
  0
LINE
  8
0
 10
168.485
 20
154.485
 11
168.485
 21
153.505
  0
LINE
  8
0
 10
168.485
 20
153.505
 11
169.298
 21
153.505
  0
LINE
  8
0
 10
169.298
 20
153.505
 11
169.298
 21
150.004
  0
LINE
  8
0
 10
169.298
 20
150.004
 11
168.485
 21
150.004
  0
LINE
  8
0
 10
168.485
 20
150.004
 11
168.485
 21
144.996
  0
LINE
  8
0
 10
168.485
 20
144.996
 11
169.298
 21
144.996
  0
LINE
  8
0
 10
169.298
 20
144.996
 11
169.298
 21
141.495
  0
LINE
  8
0
 10
169.298
 20
141.495
 11
168.485
 21
141.495
  0
LINE
  8
0
 10
168.485
 20
141.495
 11
168.485
 21
140.515
  0
LINE
  8
0
 10
168.485
 20
140.515
 11
154.515
 21
140.515
  0
LINE
  8
0
 10
135.515
 20
140.515
 11
135.515
 21
141.495
  0
LINE
  8
0
 10
135.515
 20
141.495
 11
134.702
 21
141.495
  0
LINE
  8
0
 10
134.702
 20
141.495
 11
134.702
 21
144.996
  0
LINE
  8
0
 10
134.702
 20
144.996
 11
135.515
 21
144.996
  0
LINE
  8
0
 10
135.515
 20
144.996
 11
135.515
 21
150.004
  0
LINE
  8
0
 10
135.515
 20
150.004
 11
134.702
 21
150.004
  0
LINE
  8
0
 10
134.702
 20
150.004
 11
134.702
 21
153.505
  0
LINE
  8
0
 10
134.702
 20
153.505
 11
135.515
 21
153.505
  0
LINE
  8
0
 10
135.515
 20
153.505
 11
135.515
 21
154.485
  0
LINE
  8
0
 10
135.515
 20
154.485
 11
149.485
 21
154.485
  0
LINE
  8
0
 10
149.485
 20
154.485
 11
149.485
 21
153.505
  0
LINE
  8
0
 10
149.485
 20
153.505
 11
150.298
 21
153.505
  0
LINE
  8
0
 10
150.298
 20
153.505
 11
150.298
 21
150.004
  0
LINE
  8
0
 10
150.298
 20
150.004
 11
149.485
 21
150.004
  0
LINE
  8
0
 10
149.485
 20
150.004
 11
149.485
 21
144.996
  0
LINE
  8
0
 10
149.485
 20
144.996
 11
150.298
 21
144.996
  0
LINE
  8
0
 10
150.298
 20
144.996
 11
150.298
 21
141.495
  0
LINE
  8
0
 10
150.298
 20
141.495
 11
149.485
 21
141.495
  0
LINE
  8
0
 10
149.485
 20
141.495
 11
149.485
 21
140.515
  0
LINE
  8
0
 10
149.485
 20
140.515
 11
135.515
 21
140.515
  0
LINE
  8
0
 10
116.515
 20
140.515
 11
116.515
 21
141.495
  0
LINE
  8
0
 10
116.515
 20
141.495
 11
115.702
 21
141.495
  0
LINE
  8
0
 10
115.702
 20
141.495
 11
115.702
 21
144.996
  0
LINE
  8
0
 10
115.702
 20
144.996
 11
116.515
 21
144.996
  0
LINE
  8
0
 10
116.515
 20
144.996
 11
116.515
 21
150.004
  0
LINE
  8
0
 10
116.515
 20
150.004
 11
115.702
 21
150.004
  0
LINE
  8
0
 10
115.702
 20
150.004
 11
115.702
 21
153.505
  0
LINE
  8
0
 10
115.702
 20
153.505
 11
116.515
 21
153.505
  0
LINE
  8
0
 10
116.515
 20
153.505
 11
116.515
 21
154.485
  0
LINE
  8
0
 10
116.515
 20
154.485
 11
130.485
 21
154.485
  0
LINE
  8
0
 10
130.485
 20
154.485
 11
130.485
 21
153.505
  0
LINE
  8
0
 10
130.485
 20
153.505
 11
131.298
 21
153.505
  0
LINE
  8
0
 10
131.298
 20
153.505
 11
131.298
 21
150.004
  0
LINE
  8
0
 10
131.298
 20
150.004
 11
130.485
 21
150.004
  0
LINE
  8
0
 10
130.485
 20
150.004
 11
130.485
 21
144.996
  0
LINE
  8
0
 10
130.485
 20
144.996
 11
131.298
 21
144.996
  0
LINE
  8
0
 10
131.298
 20
144.996
 11
131.298
 21
141.495
  0
LINE
  8
0
 10
131.298
 20
141.495
 11
130.485
 21
141.495
  0
LINE
  8
0
 10
130.485
 20
141.495
 11
130.485
 21
140.515
  0
LINE
  8
0
 10
130.485
 20
140.515
 11
116.515
 21
140.515
  0
LINE
  8
0
 10
97.515
 20
140.515
 11
97.515
 21
141.495
  0
LINE
  8
0
 10
97.515
 20
141.495
 11
96.7022
 21
141.495
  0
LINE
  8
0
 10
96.7022
 20
141.495
 11
96.7022
 21
144.996
  0
LINE
  8
0
 10
96.7022
 20
144.996
 11
97.515
 21
144.996
  0
LINE
  8
0
 10
97.515
 20
144.996
 11
97.515
 21
150.004
  0
LINE
  8
0
 10
97.515
 20
150.004
 11
96.7022
 21
150.004
  0
LINE
  8
0
 10
96.7022
 20
150.004
 11
96.7022
 21
153.505
  0
LINE
  8
0
 10
96.7022
 20
153.505
 11
97.515
 21
153.505
  0
LINE
  8
0
 10
97.515
 20
153.505
 11
97.515
 21
154.485
  0
LINE
  8
0
 10
97.515
 20
154.485
 11
111.485
 21
154.485
  0
LINE
  8
0
 10
111.485
 20
154.485
 11
111.485
 21
153.505
  0
LINE
  8
0
 10
111.485
 20
153.505
 11
112.298
 21
153.505
  0
LINE
  8
0
 10
112.298
 20
153.505
 11
112.298
 21
150.004
  0
LINE
  8
0
 10
112.298
 20
150.004
 11
111.485
 21
150.004
  0
LINE
  8
0
 10
111.485
 20
150.004
 11
111.485
 21
144.996
  0
LINE
  8
0
 10
111.485
 20
144.996
 11
112.298
 21
144.996
  0
LINE
  8
0
 10
112.298
 20
144.996
 11
112.298
 21
141.495
  0
LINE
  8
0
 10
112.298
 20
141.495
 11
111.485
 21
141.495
  0
LINE
  8
0
 10
111.485
 20
141.495
 11
111.485
 21
140.515
  0
LINE
  8
0
 10
111.485
 20
140.515
 11
97.515
 21
140.515
  0
LINE
  8
0
 10
78.515
 20
140.515
 11
78.515
 21
141.495
  0
LINE
  8
0
 10
78.515
 20
141.495
 11
77.7022
 21
141.495
  0
LINE
  8
0
 10
77.7022
 20
141.495
 11
77.7022
 21
144.996
  0
LINE
  8
0
 10
77.7022
 20
144.996
 11
78.515
 21
144.996
  0
LINE
  8
0
 10
78.515
 20
144.996
 11
78.515
 21
150.004
  0
LINE
  8
0
 10
78.515
 20
150.004
 11
77.7022
 21
150.004
  0
LINE
  8
0
 10
77.7022
 20
150.004
 11
77.7022
 21
153.505
  0
LINE
  8
0
 10
77.7022
 20
153.505
 11
78.515
 21
153.505
  0
LINE
  8
0
 10
78.515
 20
153.505
 11
78.515
 21
154.485
  0
LINE
  8
0
 10
78.515
 20
154.485
 11
92.485
 21
154.485
  0
LINE
  8
0
 10
92.485
 20
154.485
 11
92.485
 21
153.505
  0
LINE
  8
0
 10
92.485
 20
153.505
 11
93.2978
 21
153.505
  0
LINE
  8
0
 10
93.2978
 20
153.505
 11
93.2978
 21
150.004
  0
LINE
  8
0
 10
93.2978
 20
150.004
 11
92.485
 21
150.004
  0
LINE
  8
0
 10
92.485
 20
150.004
 11
92.485
 21
144.996
  0
LINE
  8
0
 10
92.485
 20
144.996
 11
93.2978
 21
144.996
  0
LINE
  8
0
 10
93.2978
 20
144.996
 11
93.2978
 21
141.495
  0
LINE
  8
0
 10
93.2978
 20
141.495
 11
92.485
 21
141.495
  0
LINE
  8
0
 10
92.485
 20
141.495
 11
92.485
 21
140.515
  0
LINE
  8
0
 10
92.485
 20
140.515
 11
78.515
 21
140.515
  0
LINE
  8
0
 10
59.515
 20
140.515
 11
59.515
 21
141.495
  0
LINE
  8
0
 10
59.515
 20
141.495
 11
58.7022
 21
141.495
  0
LINE
  8
0
 10
58.7022
 20
141.495
 11
58.7022
 21
144.996
  0
LINE
  8
0
 10
58.7022
 20
144.996
 11
59.515
 21
144.996
  0
LINE
  8
0
 10
59.515
 20
144.996
 11
59.515
 21
150.004
  0
LINE
  8
0
 10
59.515
 20
150.004
 11
58.7022
 21
150.004
  0
LINE
  8
0
 10
58.7022
 20
150.004
 11
58.7022
 21
153.505
  0
LINE
  8
0
 10
58.7022
 20
153.505
 11
59.515
 21
153.505
  0
LINE
  8
0
 10
59.515
 20
153.505
 11
59.515
 21
154.485
  0
LINE
  8
0
 10
59.515
 20
154.485
 11
73.485
 21
154.485
  0
LINE
  8
0
 10
73.485
 20
154.485
 11
73.485
 21
153.505
  0
LINE
  8
0
 10
73.485
 20
153.505
 11
74.2978
 21
153.505
  0
LINE
  8
0
 10
74.2978
 20
153.505
 11
74.2978
 21
150.004
  0
LINE
  8
0
 10
74.2978
 20
150.004
 11
73.485
 21
150.004
  0
LINE
  8
0
 10
73.485
 20
150.004
 11
73.485
 21
144.996
  0
LINE
  8
0
 10
73.485
 20
144.996
 11
74.2978
 21
144.996
  0
LINE
  8
0
 10
74.2978
 20
144.996
 11
74.2978
 21
141.495
  0
LINE
  8
0
 10
74.2978
 20
141.495
 11
73.485
 21
141.495
  0
LINE
  8
0
 10
73.485
 20
141.495
 11
73.485
 21
140.515
  0
LINE
  8
0
 10
73.485
 20
140.515
 11
59.515
 21
140.515
  0
LINE
  8
0
 10
40.515
 20
140.515
 11
40.515
 21
141.495
  0
LINE
  8
0
 10
40.515
 20
141.495
 11
39.7022
 21
141.495
  0
LINE
  8
0
 10
39.7022
 20
141.495
 11
39.7022
 21
144.996
  0
LINE
  8
0
 10
39.7022
 20
144.996
 11
40.515
 21
144.996
  0
LINE
  8
0
 10
40.515
 20
144.996
 11
40.515
 21
150.004
  0
LINE
  8
0
 10
40.515
 20
150.004
 11
39.7022
 21
150.004
  0
LINE
  8
0
 10
39.7022
 20
150.004
 11
39.7022
 21
153.505
  0
LINE
  8
0
 10
39.7022
 20
153.505
 11
40.515
 21
153.505
  0
LINE
  8
0
 10
40.515
 20
153.505
 11
40.515
 21
154.485
  0
LINE
  8
0
 10
40.515
 20
154.485
 11
54.485
 21
154.485
  0
LINE
  8
0
 10
54.485
 20
154.485
 11
54.485
 21
153.505
  0
LINE
  8
0
 10
54.485
 20
153.505
 11
55.2978
 21
153.505
  0
LINE
  8
0
 10
55.2978
 20
153.505
 11
55.2978
 21
150.004
  0
LINE
  8
0
 10
55.2978
 20
150.004
 11
54.485
 21
150.004
  0
LINE
  8
0
 10
54.485
 20
150.004
 11
54.485
 21
144.996
  0
LINE
  8
0
 10
54.485
 20
144.996
 11
55.2978
 21
144.996
  0
LINE
  8
0
 10
55.2978
 20
144.996
 11
55.2978
 21
141.495
  0
LINE
  8
0
 10
55.2978
 20
141.495
 11
54.485
 21
141.495
  0
LINE
  8
0
 10
54.485
 20
141.495
 11
54.485
 21
140.515
  0
LINE
  8
0
 10
54.485
 20
140.515
 11
40.515
 21
140.515
  0
LINE
  8
0
 10
21.515
 20
140.515
 11
21.515
 21
141.495
  0
LINE
  8
0
 10
21.515
 20
141.495
 11
20.7022
 21
141.495
  0
LINE
  8
0
 10
20.7022
 20
141.495
 11
20.7022
 21
144.996
  0
LINE
  8
0
 10
20.7022
 20
144.996
 11
21.515
 21
144.996
  0
LINE
  8
0
 10
21.515
 20
144.996
 11
21.515
 21
150.004
  0
LINE
  8
0
 10
21.515
 20
150.004
 11
20.7022
 21
150.004
  0
LINE
  8
0
 10
20.7022
 20
150.004
 11
20.7022
 21
153.505
  0
LINE
  8
0
 10
20.7022
 20
153.505
 11
21.515
 21
153.505
  0
LINE
  8
0
 10
21.515
 20
153.505
 11
21.515
 21
154.485
  0
LINE
  8
0
 10
21.515
 20
154.485
 11
35.485
 21
154.485
  0
LINE
  8
0
 10
35.485
 20
154.485
 11
35.485
 21
153.505
  0
LINE
  8
0
 10
35.485
 20
153.505
 11
36.2978
 21
153.505
  0
LINE
  8
0
 10
36.2978
 20
153.505
 11
36.2978
 21
150.004
  0
LINE
  8
0
 10
36.2978
 20
150.004
 11
35.485
 21
150.004
  0
LINE
  8
0
 10
35.485
 20
150.004
 11
35.485
 21
144.996
  0
LINE
  8
0
 10
35.485
 20
144.996
 11
36.2978
 21
144.996
  0
LINE
  8
0
 10
36.2978
 20
144.996
 11
36.2978
 21
141.495
  0
LINE
  8
0
 10
36.2978
 20
141.495
 11
35.485
 21
141.495
  0
LINE
  8
0
 10
35.485
 20
141.495
 11
35.485
 21
140.515
  0
LINE
  8
0
 10
35.485
 20
140.515
 11
21.515
 21
140.515
  0
LINE
  8
0
 10
2.51501
 20
140.515
 11
2.51501
 21
141.495
  0
LINE
  8
0
 10
2.51501
 20
141.495
 11
1.70221
 21
141.495
  0
LINE
  8
0
 10
1.70221
 20
141.495
 11
1.70221
 21
144.996
  0
LINE
  8
0
 10
1.70221
 20
144.996
 11
2.51501
 21
144.996
  0
LINE
  8
0
 10
2.51501
 20
144.996
 11
2.51501
 21
150.004
  0
LINE
  8
0
 10
2.51501
 20
150.004
 11
1.70221
 21
150.004
  0
LINE
  8
0
 10
1.70221
 20
150.004
 11
1.70221
 21
153.505
  0
LINE
  8
0
 10
1.70221
 20
153.505
 11
2.51501
 21
153.505
  0
LINE
  8
0
 10
2.51501
 20
153.505
 11
2.51501
 21
154.485
  0
LINE
  8
0
 10
2.51501
 20
154.485
 11
16.485
 21
154.485
  0
LINE
  8
0
 10
16.485
 20
154.485
 11
16.485
 21
153.505
  0
LINE
  8
0
 10
16.485
 20
153.505
 11
17.2978
 21
153.505
  0
LINE
  8
0
 10
17.2978
 20
153.505
 11
17.2978
 21
150.004
  0
LINE
  8
0
 10
17.2978
 20
150.004
 11
16.485
 21
150.004
  0
LINE
  8
0
 10
16.485
 20
150.004
 11
16.485
 21
144.996
  0
LINE
  8
0
 10
16.485
 20
144.996
 11
17.2978
 21
144.996
  0
LINE
  8
0
 10
17.2978
 20
144.996
 11
17.2978
 21
141.495
  0
LINE
  8
0
 10
17.2978
 20
141.495
 11
16.485
 21
141.495
  0
LINE
  8
0
 10
16.485
 20
141.495
 11
16.485
 21
140.515
  0
LINE
  8
0
 10
16.485
 20
140.515
 11
2.51501
 21
140.515
  0
LINE
  8
0
 10
94.8432
 20
136.508
 11
94.7189
 21
136.527
  0
LINE
  8
0
 10
94.7189
 20
136.527
 11
94.5966
 21
136.555
  0
LINE
  8
0
 10
94.5966
 20
136.555
 11
94.4771
 21
136.594
  0
LINE
  8
0
 10
94.4771
 20
136.594
 11
94.3613
 21
136.643
  0
LINE
  8
0
 10
94.3613
 20
136.643
 11
94.25
 21
136.701
  0
LINE
  8
0
 10
94.25
 20
136.701
 11
94.1439
 21
136.768
  0
LINE
  8
0
 10
94.1439
 20
136.768
 11
94.0439
 21
136.844
  0
LINE
  8
0
 10
94.0439
 20
136.844
 11
93.9505
 21
136.928
  0
LINE
  8
0
 10
93.9505
 20
136.928
 11
93.8645
 21
137.02
  0
LINE
  8
0
 10
93.8645
 20
137.02
 11
93.7865
 21
137.118
  0
LINE
  8
0
 10
93.7865
 20
137.118
 11
93.7169
 21
137.223
  0
LINE
  8
0
 10
93.7169
 20
137.223
 11
93.6564
 21
137.333
  0
LINE
  8
0
 10
93.6564
 20
137.333
 11
93.6053
 21
137.448
  0
LINE
  8
0
 10
93.6053
 20
137.448
 11
93.564
 21
137.566
  0
LINE
  8
0
 10
93.564
 20
137.566
 11
93.5328
 21
137.688
  0
LINE
  8
0
 10
93.5328
 20
137.688
 11
93.5118
 21
137.812
  0
LINE
  8
0
 10
93.5118
 20
137.812
 11
93.5013
 21
137.937
  0
LINE
  8
0
 10
93.5013
 20
137.937
 11
93.5013
 21
138.063
  0
LINE
  8
0
 10
93.5013
 20
138.063
 11
93.5118
 21
138.188
  0
LINE
  8
0
 10
93.5118
 20
138.188
 11
93.5328
 21
138.312
  0
LINE
  8
0
 10
93.5328
 20
138.312
 11
93.564
 21
138.434
  0
LINE
  8
0
 10
93.564
 20
138.434
 11
93.6053
 21
138.552
  0
LINE
  8
0
 10
93.6053
 20
138.552
 11
93.6564
 21
138.667
  0
LINE
  8
0
 10
93.6564
 20
138.667
 11
93.7169
 21
138.777
  0
LINE
  8
0
 10
93.7169
 20
138.777
 11
93.7865
 21
138.882
  0
LINE
  8
0
 10
93.7865
 20
138.882
 11
93.8645
 21
138.98
  0
LINE
  8
0
 10
93.8645
 20
138.98
 11
93.9505
 21
139.072
  0
LINE
  8
0
 10
93.9505
 20
139.072
 11
94.0439
 21
139.156
  0
LINE
  8
0
 10
94.0439
 20
139.156
 11
94.1439
 21
139.232
  0
LINE
  8
0
 10
94.1439
 20
139.232
 11
94.25
 21
139.299
  0
LINE
  8
0
 10
94.25
 20
139.299
 11
94.3613
 21
139.357
  0
LINE
  8
0
 10
94.3613
 20
139.357
 11
94.4771
 21
139.406
  0
LINE
  8
0
 10
94.4771
 20
139.406
 11
94.5966
 21
139.445
  0
LINE
  8
0
 10
94.5966
 20
139.445
 11
94.7189
 21
139.473
  0
LINE
  8
0
 10
94.7189
 20
139.473
 11
94.8432
 21
139.492
  0
LINE
  8
0
 10
94.8432
 20
139.492
 11
94.9686
 21
139.5
  0
LINE
  8
0
 10
94.9686
 20
139.5
 11
95.0942
 21
139.497
  0
LINE
  8
0
 10
95.0942
 20
139.497
 11
95.2191
 21
139.484
  0
LINE
  8
0
 10
95.2191
 20
139.484
 11
95.3425
 21
139.46
  0
LINE
  8
0
 10
95.3425
 20
139.46
 11
95.4635
 21
139.427
  0
LINE
  8
0
 10
95.4635
 20
139.427
 11
95.5813
 21
139.383
  0
LINE
  8
0
 10
95.5813
 20
139.383
 11
95.6949
 21
139.329
  0
LINE
  8
0
 10
95.6949
 20
139.329
 11
95.8037
 21
139.266
  0
LINE
  8
0
 10
95.8037
 20
139.266
 11
95.9069
 21
139.195
  0
LINE
  8
0
 10
95.9069
 20
139.195
 11
96.0037
 21
139.115
  0
LINE
  8
0
 10
96.0037
 20
139.115
 11
96.0934
 21
139.027
  0
LINE
  8
0
 10
96.0934
 20
139.027
 11
96.1755
 21
138.932
  0
LINE
  8
0
 10
96.1755
 20
138.932
 11
96.2494
 21
138.83
  0
LINE
  8
0
 10
96.2494
 20
138.83
 11
96.3145
 21
138.723
  0
LINE
  8
0
 10
96.3145
 20
138.723
 11
96.3703
 21
138.61
  0
LINE
  8
0
 10
96.3703
 20
138.61
 11
96.4165
 21
138.493
  0
LINE
  8
0
 10
96.4165
 20
138.493
 11
96.4529
 21
138.373
  0
LINE
  8
0
 10
96.4529
 20
138.373
 11
96.479
 21
138.25
  0
LINE
  8
0
 10
96.479
 20
138.25
 11
96.4947
 21
138.126
  0
LINE
  8
0
 10
96.4947
 20
138.126
 11
96.5
 21
138
  0
LINE
  8
0
 10
96.5
 20
138
 11
96.4947
 21
137.874
  0
LINE
  8
0
 10
96.4947
 20
137.874
 11
96.479
 21
137.75
  0
LINE
  8
0
 10
96.479
 20
137.75
 11
96.4529
 21
137.627
  0
LINE
  8
0
 10
96.4529
 20
137.627
 11
96.4165
 21
137.507
  0
LINE
  8
0
 10
96.4165
 20
137.507
 11
96.3703
 21
137.39
  0
LINE
  8
0
 10
96.3703
 20
137.39
 11
96.3145
 21
137.277
  0
LINE
  8
0
 10
96.3145
 20
137.277
 11
96.2494
 21
137.17
  0
LINE
  8
0
 10
96.2494
 20
137.17
 11
96.1755
 21
137.068
  0
LINE
  8
0
 10
96.1755
 20
137.068
 11
96.0934
 21
136.973
  0
LINE
  8
0
 10
96.0934
 20
136.973
 11
96.0037
 21
136.885
  0
LINE
  8
0
 10
96.0037
 20
136.885
 11
95.9069
 21
136.805
  0
LINE
  8
0
 10
95.9069
 20
136.805
 11
95.8037
 21
136.734
  0
LINE
  8
0
 10
95.8037
 20
136.734
 11
95.6949
 21
136.671
  0
LINE
  8
0
 10
95.6949
 20
136.671
 11
95.5813
 21
136.617
  0
LINE
  8
0
 10
95.5813
 20
136.617
 11
95.4635
 21
136.573
  0
LINE
  8
0
 10
95.4635
 20
136.573
 11
95.3425
 21
136.54
  0
LINE
  8
0
 10
95.3425
 20
136.54
 11
95.2191
 21
136.516
  0
LINE
  8
0
 10
95.2191
 20
136.516
 11
95.0942
 21
136.503
  0
LINE
  8
0
 10
95.0942
 20
136.503
 11
94.9686
 21
136.5
  0
LINE
  8
0
 10
94.9686
 20
136.5
 11
94.8432
 21
136.508
  0
LINE
  8
0
 10
173.515
 20
121.515
 11
173.515
 21
122.495
  0
LINE
  8
0
 10
173.515
 20
122.495
 11
172.702
 21
122.495
  0
LINE
  8
0
 10
172.702
 20
122.495
 11
172.702
 21
125.996
  0
LINE
  8
0
 10
172.702
 20
125.996
 11
173.515
 21
125.996
  0
LINE
  8
0
 10
173.515
 20
125.996
 11
173.515
 21
131.004
  0
LINE
  8
0
 10
173.515
 20
131.004
 11
172.702
 21
131.004
  0
LINE
  8
0
 10
172.702
 20
131.004
 11
172.702
 21
134.505
  0
LINE
  8
0
 10
172.702
 20
134.505
 11
173.515
 21
134.505
  0
LINE
  8
0
 10
173.515
 20
134.505
 11
173.515
 21
135.485
  0
LINE
  8
0
 10
173.515
 20
135.485
 11
187.485
 21
135.485
  0
LINE
  8
0
 10
187.485
 20
135.485
 11
187.485
 21
134.505
  0
LINE
  8
0
 10
187.485
 20
134.505
 11
188.298
 21
134.505
  0
LINE
  8
0
 10
188.298
 20
134.505
 11
188.298
 21
131.004
  0
LINE
  8
0
 10
188.298
 20
131.004
 11
187.485
 21
131.004
  0
LINE
  8
0
 10
187.485
 20
131.004
 11
187.485
 21
125.996
  0
LINE
  8
0
 10
187.485
 20
125.996
 11
188.298
 21
125.996
  0
LINE
  8
0
 10
188.298
 20
125.996
 11
188.298
 21
122.495
  0
LINE
  8
0
 10
188.298
 20
122.495
 11
187.485
 21
122.495
  0
LINE
  8
0
 10
187.485
 20
122.495
 11
187.485
 21
121.515
  0
LINE
  8
0
 10
187.485
 20
121.515
 11
173.515
 21
121.515
  0
LINE
  8
0
 10
154.515
 20
121.515
 11
154.515
 21
122.495
  0
LINE
  8
0
 10
154.515
 20
122.495
 11
153.702
 21
122.495
  0
LINE
  8
0
 10
153.702
 20
122.495
 11
153.702
 21
125.996
  0
LINE
  8
0
 10
153.702
 20
125.996
 11
154.515
 21
125.996
  0
LINE
  8
0
 10
154.515
 20
125.996
 11
154.515
 21
131.004
  0
LINE
  8
0
 10
154.515
 20
131.004
 11
153.702
 21
131.004
  0
LINE
  8
0
 10
153.702
 20
131.004
 11
153.702
 21
134.505
  0
LINE
  8
0
 10
153.702
 20
134.505
 11
154.515
 21
134.505
  0
LINE
  8
0
 10
154.515
 20
134.505
 11
154.515
 21
135.485
  0
LINE
  8
0
 10
154.515
 20
135.485
 11
168.485
 21
135.485
  0
LINE
  8
0
 10
168.485
 20
135.485
 11
168.485
 21
134.505
  0
LINE
  8
0
 10
168.485
 20
134.505
 11
169.298
 21
134.505
  0
LINE
  8
0
 10
169.298
 20
134.505
 11
169.298
 21
131.004
  0
LINE
  8
0
 10
169.298
 20
131.004
 11
168.485
 21
131.004
  0
LINE
  8
0
 10
168.485
 20
131.004
 11
168.485
 21
125.996
  0
LINE
  8
0
 10
168.485
 20
125.996
 11
169.298
 21
125.996
  0
LINE
  8
0
 10
169.298
 20
125.996
 11
169.298
 21
122.495
  0
LINE
  8
0
 10
169.298
 20
122.495
 11
168.485
 21
122.495
  0
LINE
  8
0
 10
168.485
 20
122.495
 11
168.485
 21
121.515
  0
LINE
  8
0
 10
168.485
 20
121.515
 11
154.515
 21
121.515
  0
LINE
  8
0
 10
135.515
 20
121.515
 11
135.515
 21
122.495
  0
LINE
  8
0
 10
135.515
 20
122.495
 11
134.702
 21
122.495
  0
LINE
  8
0
 10
134.702
 20
122.495
 11
134.702
 21
125.996
  0
LINE
  8
0
 10
134.702
 20
125.996
 11
135.515
 21
125.996
  0
LINE
  8
0
 10
135.515
 20
125.996
 11
135.515
 21
131.004
  0
LINE
  8
0
 10
135.515
 20
131.004
 11
134.702
 21
131.004
  0
LINE
  8
0
 10
134.702
 20
131.004
 11
134.702
 21
134.505
  0
LINE
  8
0
 10
134.702
 20
134.505
 11
135.515
 21
134.505
  0
LINE
  8
0
 10
135.515
 20
134.505
 11
135.515
 21
135.485
  0
LINE
  8
0
 10
135.515
 20
135.485
 11
149.485
 21
135.485
  0
LINE
  8
0
 10
149.485
 20
135.485
 11
149.485
 21
134.505
  0
LINE
  8
0
 10
149.485
 20
134.505
 11
150.298
 21
134.505
  0
LINE
  8
0
 10
150.298
 20
134.505
 11
150.298
 21
131.004
  0
LINE
  8
0
 10
150.298
 20
131.004
 11
149.485
 21
131.004
  0
LINE
  8
0
 10
149.485
 20
131.004
 11
149.485
 21
125.996
  0
LINE
  8
0
 10
149.485
 20
125.996
 11
150.298
 21
125.996
  0
LINE
  8
0
 10
150.298
 20
125.996
 11
150.298
 21
122.495
  0
LINE
  8
0
 10
150.298
 20
122.495
 11
149.485
 21
122.495
  0
LINE
  8
0
 10
149.485
 20
122.495
 11
149.485
 21
121.515
  0
LINE
  8
0
 10
149.485
 20
121.515
 11
135.515
 21
121.515
  0
LINE
  8
0
 10
116.515
 20
121.515
 11
116.515
 21
122.495
  0
LINE
  8
0
 10
116.515
 20
122.495
 11
115.702
 21
122.495
  0
LINE
  8
0
 10
115.702
 20
122.495
 11
115.702
 21
125.996
  0
LINE
  8
0
 10
115.702
 20
125.996
 11
116.515
 21
125.996
  0
LINE
  8
0
 10
116.515
 20
125.996
 11
116.515
 21
131.004
  0
LINE
  8
0
 10
116.515
 20
131.004
 11
115.702
 21
131.004
  0
LINE
  8
0
 10
115.702
 20
131.004
 11
115.702
 21
134.505
  0
LINE
  8
0
 10
115.702
 20
134.505
 11
116.515
 21
134.505
  0
LINE
  8
0
 10
116.515
 20
134.505
 11
116.515
 21
135.485
  0
LINE
  8
0
 10
116.515
 20
135.485
 11
130.485
 21
135.485
  0
LINE
  8
0
 10
130.485
 20
135.485
 11
130.485
 21
134.505
  0
LINE
  8
0
 10
130.485
 20
134.505
 11
131.298
 21
134.505
  0
LINE
  8
0
 10
131.298
 20
134.505
 11
131.298
 21
131.004
  0
LINE
  8
0
 10
131.298
 20
131.004
 11
130.485
 21
131.004
  0
LINE
  8
0
 10
130.485
 20
131.004
 11
130.485
 21
125.996
  0
LINE
  8
0
 10
130.485
 20
125.996
 11
131.298
 21
125.996
  0
LINE
  8
0
 10
131.298
 20
125.996
 11
131.298
 21
122.495
  0
LINE
  8
0
 10
131.298
 20
122.495
 11
130.485
 21
122.495
  0
LINE
  8
0
 10
130.485
 20
122.495
 11
130.485
 21
121.515
  0
LINE
  8
0
 10
130.485
 20
121.515
 11
116.515
 21
121.515
  0
LINE
  8
0
 10
97.515
 20
121.515
 11
97.515
 21
122.495
  0
LINE
  8
0
 10
97.515
 20
122.495
 11
96.7022
 21
122.495
  0
LINE
  8
0
 10
96.7022
 20
122.495
 11
96.7022
 21
125.996
  0
LINE
  8
0
 10
96.7022
 20
125.996
 11
97.515
 21
125.996
  0
LINE
  8
0
 10
97.515
 20
125.996
 11
97.515
 21
131.004
  0
LINE
  8
0
 10
97.515
 20
131.004
 11
96.7022
 21
131.004
  0
LINE
  8
0
 10
96.7022
 20
131.004
 11
96.7022
 21
134.505
  0
LINE
  8
0
 10
96.7022
 20
134.505
 11
97.515
 21
134.505
  0
LINE
  8
0
 10
97.515
 20
134.505
 11
97.515
 21
135.485
  0
LINE
  8
0
 10
97.515
 20
135.485
 11
111.485
 21
135.485
  0
LINE
  8
0
 10
111.485
 20
135.485
 11
111.485
 21
134.505
  0
LINE
  8
0
 10
111.485
 20
134.505
 11
112.298
 21
134.505
  0
LINE
  8
0
 10
112.298
 20
134.505
 11
112.298
 21
131.004
  0
LINE
  8
0
 10
112.298
 20
131.004
 11
111.485
 21
131.004
  0
LINE
  8
0
 10
111.485
 20
131.004
 11
111.485
 21
125.996
  0
LINE
  8
0
 10
111.485
 20
125.996
 11
112.298
 21
125.996
  0
LINE
  8
0
 10
112.298
 20
125.996
 11
112.298
 21
122.495
  0
LINE
  8
0
 10
112.298
 20
122.495
 11
111.485
 21
122.495
  0
LINE
  8
0
 10
111.485
 20
122.495
 11
111.485
 21
121.515
  0
LINE
  8
0
 10
111.485
 20
121.515
 11
97.515
 21
121.515
  0
LINE
  8
0
 10
78.515
 20
121.515
 11
78.515
 21
122.495
  0
LINE
  8
0
 10
78.515
 20
122.495
 11
77.7022
 21
122.495
  0
LINE
  8
0
 10
77.7022
 20
122.495
 11
77.7022
 21
125.996
  0
LINE
  8
0
 10
77.7022
 20
125.996
 11
78.515
 21
125.996
  0
LINE
  8
0
 10
78.515
 20
125.996
 11
78.515
 21
131.004
  0
LINE
  8
0
 10
78.515
 20
131.004
 11
77.7022
 21
131.004
  0
LINE
  8
0
 10
77.7022
 20
131.004
 11
77.7022
 21
134.505
  0
LINE
  8
0
 10
77.7022
 20
134.505
 11
78.515
 21
134.505
  0
LINE
  8
0
 10
78.515
 20
134.505
 11
78.515
 21
135.485
  0
LINE
  8
0
 10
78.515
 20
135.485
 11
92.485
 21
135.485
  0
LINE
  8
0
 10
92.485
 20
135.485
 11
92.485
 21
134.505
  0
LINE
  8
0
 10
92.485
 20
134.505
 11
93.2978
 21
134.505
  0
LINE
  8
0
 10
93.2978
 20
134.505
 11
93.2978
 21
131.004
  0
LINE
  8
0
 10
93.2978
 20
131.004
 11
92.485
 21
131.004
  0
LINE
  8
0
 10
92.485
 20
131.004
 11
92.485
 21
125.996
  0
LINE
  8
0
 10
92.485
 20
125.996
 11
93.2978
 21
125.996
  0
LINE
  8
0
 10
93.2978
 20
125.996
 11
93.2978
 21
122.495
  0
LINE
  8
0
 10
93.2978
 20
122.495
 11
92.485
 21
122.495
  0
LINE
  8
0
 10
92.485
 20
122.495
 11
92.485
 21
121.515
  0
LINE
  8
0
 10
92.485
 20
121.515
 11
78.515
 21
121.515
  0
LINE
  8
0
 10
59.515
 20
121.515
 11
59.515
 21
122.495
  0
LINE
  8
0
 10
59.515
 20
122.495
 11
58.7022
 21
122.495
  0
LINE
  8
0
 10
58.7022
 20
122.495
 11
58.7022
 21
125.996
  0
LINE
  8
0
 10
58.7022
 20
125.996
 11
59.515
 21
125.996
  0
LINE
  8
0
 10
59.515
 20
125.996
 11
59.515
 21
131.004
  0
LINE
  8
0
 10
59.515
 20
131.004
 11
58.7022
 21
131.004
  0
LINE
  8
0
 10
58.7022
 20
131.004
 11
58.7022
 21
134.505
  0
LINE
  8
0
 10
58.7022
 20
134.505
 11
59.515
 21
134.505
  0
LINE
  8
0
 10
59.515
 20
134.505
 11
59.515
 21
135.485
  0
LINE
  8
0
 10
59.515
 20
135.485
 11
73.485
 21
135.485
  0
LINE
  8
0
 10
73.485
 20
135.485
 11
73.485
 21
134.505
  0
LINE
  8
0
 10
73.485
 20
134.505
 11
74.2978
 21
134.505
  0
LINE
  8
0
 10
74.2978
 20
134.505
 11
74.2978
 21
131.004
  0
LINE
  8
0
 10
74.2978
 20
131.004
 11
73.485
 21
131.004
  0
LINE
  8
0
 10
73.485
 20
131.004
 11
73.485
 21
125.996
  0
LINE
  8
0
 10
73.485
 20
125.996
 11
74.2978
 21
125.996
  0
LINE
  8
0
 10
74.2978
 20
125.996
 11
74.2978
 21
122.495
  0
LINE
  8
0
 10
74.2978
 20
122.495
 11
73.485
 21
122.495
  0
LINE
  8
0
 10
73.485
 20
122.495
 11
73.485
 21
121.515
  0
LINE
  8
0
 10
73.485
 20
121.515
 11
59.515
 21
121.515
  0
LINE
  8
0
 10
40.515
 20
121.515
 11
40.515
 21
122.495
  0
LINE
  8
0
 10
40.515
 20
122.495
 11
39.7022
 21
122.495
  0
LINE
  8
0
 10
39.7022
 20
122.495
 11
39.7022
 21
125.996
  0
LINE
  8
0
 10
39.7022
 20
125.996
 11
40.515
 21
125.996
  0
LINE
  8
0
 10
40.515
 20
125.996
 11
40.515
 21
131.004
  0
LINE
  8
0
 10
40.515
 20
131.004
 11
39.7022
 21
131.004
  0
LINE
  8
0
 10
39.7022
 20
131.004
 11
39.7022
 21
134.505
  0
LINE
  8
0
 10
39.7022
 20
134.505
 11
40.515
 21
134.505
  0
LINE
  8
0
 10
40.515
 20
134.505
 11
40.515
 21
135.485
  0
LINE
  8
0
 10
40.515
 20
135.485
 11
54.485
 21
135.485
  0
LINE
  8
0
 10
54.485
 20
135.485
 11
54.485
 21
134.505
  0
LINE
  8
0
 10
54.485
 20
134.505
 11
55.2978
 21
134.505
  0
LINE
  8
0
 10
55.2978
 20
134.505
 11
55.2978
 21
131.004
  0
LINE
  8
0
 10
55.2978
 20
131.004
 11
54.485
 21
131.004
  0
LINE
  8
0
 10
54.485
 20
131.004
 11
54.485
 21
125.996
  0
LINE
  8
0
 10
54.485
 20
125.996
 11
55.2978
 21
125.996
  0
LINE
  8
0
 10
55.2978
 20
125.996
 11
55.2978
 21
122.495
  0
LINE
  8
0
 10
55.2978
 20
122.495
 11
54.485
 21
122.495
  0
LINE
  8
0
 10
54.485
 20
122.495
 11
54.485
 21
121.515
  0
LINE
  8
0
 10
54.485
 20
121.515
 11
40.515
 21
121.515
  0
LINE
  8
0
 10
21.515
 20
121.515
 11
21.515
 21
122.495
  0
LINE
  8
0
 10
21.515
 20
122.495
 11
20.7022
 21
122.495
  0
LINE
  8
0
 10
20.7022
 20
122.495
 11
20.7022
 21
125.996
  0
LINE
  8
0
 10
20.7022
 20
125.996
 11
21.515
 21
125.996
  0
LINE
  8
0
 10
21.515
 20
125.996
 11
21.515
 21
131.004
  0
LINE
  8
0
 10
21.515
 20
131.004
 11
20.7022
 21
131.004
  0
LINE
  8
0
 10
20.7022
 20
131.004
 11
20.7022
 21
134.505
  0
LINE
  8
0
 10
20.7022
 20
134.505
 11
21.515
 21
134.505
  0
LINE
  8
0
 10
21.515
 20
134.505
 11
21.515
 21
135.485
  0
LINE
  8
0
 10
21.515
 20
135.485
 11
35.485
 21
135.485
  0
LINE
  8
0
 10
35.485
 20
135.485
 11
35.485
 21
134.505
  0
LINE
  8
0
 10
35.485
 20
134.505
 11
36.2978
 21
134.505
  0
LINE
  8
0
 10
36.2978
 20
134.505
 11
36.2978
 21
131.004
  0
LINE
  8
0
 10
36.2978
 20
131.004
 11
35.485
 21
131.004
  0
LINE
  8
0
 10
35.485
 20
131.004
 11
35.485
 21
125.996
  0
LINE
  8
0
 10
35.485
 20
125.996
 11
36.2978
 21
125.996
  0
LINE
  8
0
 10
36.2978
 20
125.996
 11
36.2978
 21
122.495
  0
LINE
  8
0
 10
36.2978
 20
122.495
 11
35.485
 21
122.495
  0
LINE
  8
0
 10
35.485
 20
122.495
 11
35.485
 21
121.515
  0
LINE
  8
0
 10
35.485
 20
121.515
 11
21.515
 21
121.515
  0
LINE
  8
0
 10
2.51501
 20
121.515
 11
2.51501
 21
122.495
  0
LINE
  8
0
 10
2.51501
 20
122.495
 11
1.70221
 21
122.495
  0
LINE
  8
0
 10
1.70221
 20
122.495
 11
1.70221
 21
125.996
  0
LINE
  8
0
 10
1.70221
 20
125.996
 11
2.51501
 21
125.996
  0
LINE
  8
0
 10
2.51501
 20
125.996
 11
2.51501
 21
131.004
  0
LINE
  8
0
 10
2.51501
 20
131.004
 11
1.70221
 21
131.004
  0
LINE
  8
0
 10
1.70221
 20
131.004
 11
1.70221
 21
134.505
  0
LINE
  8
0
 10
1.70221
 20
134.505
 11
2.51501
 21
134.505
  0
LINE
  8
0
 10
2.51501
 20
134.505
 11
2.51501
 21
135.485
  0
LINE
  8
0
 10
2.51501
 20
135.485
 11
16.485
 21
135.485
  0
LINE
  8
0
 10
16.485
 20
135.485
 11
16.485
 21
134.505
  0
LINE
  8
0
 10
16.485
 20
134.505
 11
17.2978
 21
134.505
  0
LINE
  8
0
 10
17.2978
 20
134.505
 11
17.2978
 21
131.004
  0
LINE
  8
0
 10
17.2978
 20
131.004
 11
16.485
 21
131.004
  0
LINE
  8
0
 10
16.485
 20
131.004
 11
16.485
 21
125.996
  0
LINE
  8
0
 10
16.485
 20
125.996
 11
17.2978
 21
125.996
  0
LINE
  8
0
 10
17.2978
 20
125.996
 11
17.2978
 21
122.495
  0
LINE
  8
0
 10
17.2978
 20
122.495
 11
16.485
 21
122.495
  0
LINE
  8
0
 10
16.485
 20
122.495
 11
16.485
 21
121.515
  0
LINE
  8
0
 10
16.485
 20
121.515
 11
2.51501
 21
121.515
  0
LINE
  8
0
 10
170.843
 20
117.508
 11
170.719
 21
117.527
  0
LINE
  8
0
 10
170.719
 20
117.527
 11
170.597
 21
117.555
  0
LINE
  8
0
 10
170.597
 20
117.555
 11
170.477
 21
117.594
  0
LINE
  8
0
 10
170.477
 20
117.594
 11
170.361
 21
117.643
  0
LINE
  8
0
 10
170.361
 20
117.643
 11
170.25
 21
117.701
  0
LINE
  8
0
 10
170.25
 20
117.701
 11
170.144
 21
117.768
  0
LINE
  8
0
 10
170.144
 20
117.768
 11
170.044
 21
117.844
  0
LINE
  8
0
 10
170.044
 20
117.844
 11
169.951
 21
117.928
  0
LINE
  8
0
 10
169.951
 20
117.928
 11
169.865
 21
118.02
  0
LINE
  8
0
 10
169.865
 20
118.02
 11
169.786
 21
118.118
  0
LINE
  8
0
 10
169.786
 20
118.118
 11
169.717
 21
118.223
  0
LINE
  8
0
 10
169.717
 20
118.223
 11
169.656
 21
118.333
  0
LINE
  8
0
 10
169.656
 20
118.333
 11
169.605
 21
118.448
  0
LINE
  8
0
 10
169.605
 20
118.448
 11
169.564
 21
118.566
  0
LINE
  8
0
 10
169.564
 20
118.566
 11
169.533
 21
118.688
  0
LINE
  8
0
 10
169.533
 20
118.688
 11
169.512
 21
118.812
  0
LINE
  8
0
 10
169.512
 20
118.812
 11
169.501
 21
118.937
  0
LINE
  8
0
 10
169.501
 20
118.937
 11
169.501
 21
119.063
  0
LINE
  8
0
 10
169.501
 20
119.063
 11
169.512
 21
119.188
  0
LINE
  8
0
 10
169.512
 20
119.188
 11
169.533
 21
119.312
  0
LINE
  8
0
 10
169.533
 20
119.312
 11
169.564
 21
119.434
  0
LINE
  8
0
 10
169.564
 20
119.434
 11
169.605
 21
119.552
  0
LINE
  8
0
 10
169.605
 20
119.552
 11
169.656
 21
119.667
  0
LINE
  8
0
 10
169.656
 20
119.667
 11
169.717
 21
119.777
  0
LINE
  8
0
 10
169.717
 20
119.777
 11
169.786
 21
119.882
  0
LINE
  8
0
 10
169.786
 20
119.882
 11
169.865
 21
119.98
  0
LINE
  8
0
 10
169.865
 20
119.98
 11
169.951
 21
120.072
  0
LINE
  8
0
 10
169.951
 20
120.072
 11
170.044
 21
120.156
  0
LINE
  8
0
 10
170.044
 20
120.156
 11
170.144
 21
120.232
  0
LINE
  8
0
 10
170.144
 20
120.232
 11
170.25
 21
120.299
  0
LINE
  8
0
 10
170.25
 20
120.299
 11
170.361
 21
120.357
  0
LINE
  8
0
 10
170.361
 20
120.357
 11
170.477
 21
120.406
  0
LINE
  8
0
 10
170.477
 20
120.406
 11
170.597
 21
120.445
  0
LINE
  8
0
 10
170.597
 20
120.445
 11
170.719
 21
120.473
  0
LINE
  8
0
 10
170.719
 20
120.473
 11
170.843
 21
120.492
  0
LINE
  8
0
 10
170.843
 20
120.492
 11
170.969
 21
120.5
  0
LINE
  8
0
 10
170.969
 20
120.5
 11
171.094
 21
120.497
  0
LINE
  8
0
 10
171.094
 20
120.497
 11
171.219
 21
120.484
  0
LINE
  8
0
 10
171.219
 20
120.484
 11
171.343
 21
120.46
  0
LINE
  8
0
 10
171.343
 20
120.46
 11
171.464
 21
120.427
  0
LINE
  8
0
 10
171.464
 20
120.427
 11
171.581
 21
120.383
  0
LINE
  8
0
 10
171.581
 20
120.383
 11
171.695
 21
120.329
  0
LINE
  8
0
 10
171.695
 20
120.329
 11
171.804
 21
120.266
  0
LINE
  8
0
 10
171.804
 20
120.266
 11
171.907
 21
120.195
  0
LINE
  8
0
 10
171.907
 20
120.195
 11
172.004
 21
120.115
  0
LINE
  8
0
 10
172.004
 20
120.115
 11
172.093
 21
120.027
  0
LINE
  8
0
 10
172.093
 20
120.027
 11
172.176
 21
119.932
  0
LINE
  8
0
 10
172.176
 20
119.932
 11
172.249
 21
119.83
  0
LINE
  8
0
 10
172.249
 20
119.83
 11
172.314
 21
119.723
  0
LINE
  8
0
 10
172.314
 20
119.723
 11
172.37
 21
119.61
  0
LINE
  8
0
 10
172.37
 20
119.61
 11
172.417
 21
119.493
  0
LINE
  8
0
 10
172.417
 20
119.493
 11
172.453
 21
119.373
  0
LINE
  8
0
 10
172.453
 20
119.373
 11
172.479
 21
119.25
  0
LINE
  8
0
 10
172.479
 20
119.25
 11
172.495
 21
119.126
  0
LINE
  8
0
 10
172.495
 20
119.126
 11
172.5
 21
119
  0
LINE
  8
0
 10
172.5
 20
119
 11
172.495
 21
118.874
  0
LINE
  8
0
 10
172.495
 20
118.874
 11
172.479
 21
118.75
  0
LINE
  8
0
 10
172.479
 20
118.75
 11
172.453
 21
118.627
  0
LINE
  8
0
 10
172.453
 20
118.627
 11
172.417
 21
118.507
  0
LINE
  8
0
 10
172.417
 20
118.507
 11
172.37
 21
118.39
  0
LINE
  8
0
 10
172.37
 20
118.39
 11
172.314
 21
118.277
  0
LINE
  8
0
 10
172.314
 20
118.277
 11
172.249
 21
118.17
  0
LINE
  8
0
 10
172.249
 20
118.17
 11
172.176
 21
118.068
  0
LINE
  8
0
 10
172.176
 20
118.068
 11
172.093
 21
117.973
  0
LINE
  8
0
 10
172.093
 20
117.973
 11
172.004
 21
117.885
  0
LINE
  8
0
 10
172.004
 20
117.885
 11
171.907
 21
117.805
  0
LINE
  8
0
 10
171.907
 20
117.805
 11
171.804
 21
117.734
  0
LINE
  8
0
 10
171.804
 20
117.734
 11
171.695
 21
117.671
  0
LINE
  8
0
 10
171.695
 20
117.671
 11
171.581
 21
117.617
  0
LINE
  8
0
 10
171.581
 20
117.617
 11
171.464
 21
117.573
  0
LINE
  8
0
 10
171.464
 20
117.573
 11
171.343
 21
117.54
  0
LINE
  8
0
 10
171.343
 20
117.54
 11
171.219
 21
117.516
  0
LINE
  8
0
 10
171.219
 20
117.516
 11
171.094
 21
117.503
  0
LINE
  8
0
 10
171.094
 20
117.503
 11
170.969
 21
117.5
  0
LINE
  8
0
 10
170.969
 20
117.5
 11
170.843
 21
117.508
  0
LINE
  8
0
 10
18.8432
 20
117.508
 11
18.7189
 21
117.527
  0
LINE
  8
0
 10
18.7189
 20
117.527
 11
18.5966
 21
117.555
  0
LINE
  8
0
 10
18.5966
 20
117.555
 11
18.4771
 21
117.594
  0
LINE
  8
0
 10
18.4771
 20
117.594
 11
18.3613
 21
117.643
  0
LINE
  8
0
 10
18.3613
 20
117.643
 11
18.25
 21
117.701
  0
LINE
  8
0
 10
18.25
 20
117.701
 11
18.1439
 21
117.768
  0
LINE
  8
0
 10
18.1439
 20
117.768
 11
18.0439
 21
117.844
  0
LINE
  8
0
 10
18.0439
 20
117.844
 11
17.9505
 21
117.928
  0
LINE
  8
0
 10
17.9505
 20
117.928
 11
17.8645
 21
118.02
  0
LINE
  8
0
 10
17.8645
 20
118.02
 11
17.7865
 21
118.118
  0
LINE
  8
0
 10
17.7865
 20
118.118
 11
17.7169
 21
118.223
  0
LINE
  8
0
 10
17.7169
 20
118.223
 11
17.6564
 21
118.333
  0
LINE
  8
0
 10
17.6564
 20
118.333
 11
17.6053
 21
118.448
  0
LINE
  8
0
 10
17.6053
 20
118.448
 11
17.564
 21
118.566
  0
LINE
  8
0
 10
17.564
 20
118.566
 11
17.5328
 21
118.688
  0
LINE
  8
0
 10
17.5328
 20
118.688
 11
17.5118
 21
118.812
  0
LINE
  8
0
 10
17.5118
 20
118.812
 11
17.5013
 21
118.937
  0
LINE
  8
0
 10
17.5013
 20
118.937
 11
17.5013
 21
119.063
  0
LINE
  8
0
 10
17.5013
 20
119.063
 11
17.5118
 21
119.188
  0
LINE
  8
0
 10
17.5118
 20
119.188
 11
17.5328
 21
119.312
  0
LINE
  8
0
 10
17.5328
 20
119.312
 11
17.564
 21
119.434
  0
LINE
  8
0
 10
17.564
 20
119.434
 11
17.6053
 21
119.552
  0
LINE
  8
0
 10
17.6053
 20
119.552
 11
17.6564
 21
119.667
  0
LINE
  8
0
 10
17.6564
 20
119.667
 11
17.7169
 21
119.777
  0
LINE
  8
0
 10
17.7169
 20
119.777
 11
17.7865
 21
119.882
  0
LINE
  8
0
 10
17.7865
 20
119.882
 11
17.8645
 21
119.98
  0
LINE
  8
0
 10
17.8645
 20
119.98
 11
17.9505
 21
120.072
  0
LINE
  8
0
 10
17.9505
 20
120.072
 11
18.0439
 21
120.156
  0
LINE
  8
0
 10
18.0439
 20
120.156
 11
18.1439
 21
120.232
  0
LINE
  8
0
 10
18.1439
 20
120.232
 11
18.25
 21
120.299
  0
LINE
  8
0
 10
18.25
 20
120.299
 11
18.3613
 21
120.357
  0
LINE
  8
0
 10
18.3613
 20
120.357
 11
18.4771
 21
120.406
  0
LINE
  8
0
 10
18.4771
 20
120.406
 11
18.5966
 21
120.445
  0
LINE
  8
0
 10
18.5966
 20
120.445
 11
18.7189
 21
120.473
  0
LINE
  8
0
 10
18.7189
 20
120.473
 11
18.8432
 21
120.492
  0
LINE
  8
0
 10
18.8432
 20
120.492
 11
18.9686
 21
120.5
  0
LINE
  8
0
 10
18.9686
 20
120.5
 11
19.0942
 21
120.497
  0
LINE
  8
0
 10
19.0942
 20
120.497
 11
19.2191
 21
120.484
  0
LINE
  8
0
 10
19.2191
 20
120.484
 11
19.3425
 21
120.46
  0
LINE
  8
0
 10
19.3425
 20
120.46
 11
19.4635
 21
120.427
  0
LINE
  8
0
 10
19.4635
 20
120.427
 11
19.5813
 21
120.383
  0
LINE
  8
0
 10
19.5813
 20
120.383
 11
19.6949
 21
120.329
  0
LINE
  8
0
 10
19.6949
 20
120.329
 11
19.8037
 21
120.266
  0
LINE
  8
0
 10
19.8037
 20
120.266
 11
19.9069
 21
120.195
  0
LINE
  8
0
 10
19.9069
 20
120.195
 11
20.0037
 21
120.115
  0
LINE
  8
0
 10
20.0037
 20
120.115
 11
20.0934
 21
120.027
  0
LINE
  8
0
 10
20.0934
 20
120.027
 11
20.1755
 21
119.932
  0
LINE
  8
0
 10
20.1755
 20
119.932
 11
20.2494
 21
119.83
  0
LINE
  8
0
 10
20.2494
 20
119.83
 11
20.3145
 21
119.723
  0
LINE
  8
0
 10
20.3145
 20
119.723
 11
20.3703
 21
119.61
  0
LINE
  8
0
 10
20.3703
 20
119.61
 11
20.4165
 21
119.493
  0
LINE
  8
0
 10
20.4165
 20
119.493
 11
20.4529
 21
119.373
  0
LINE
  8
0
 10
20.4529
 20
119.373
 11
20.479
 21
119.25
  0
LINE
  8
0
 10
20.479
 20
119.25
 11
20.4947
 21
119.126
  0
LINE
  8
0
 10
20.4947
 20
119.126
 11
20.5
 21
119
  0
LINE
  8
0
 10
20.5
 20
119
 11
20.4947
 21
118.874
  0
LINE
  8
0
 10
20.4947
 20
118.874
 11
20.479
 21
118.75
  0
LINE
  8
0
 10
20.479
 20
118.75
 11
20.4529
 21
118.627
  0
LINE
  8
0
 10
20.4529
 20
118.627
 11
20.4165
 21
118.507
  0
LINE
  8
0
 10
20.4165
 20
118.507
 11
20.3703
 21
118.39
  0
LINE
  8
0
 10
20.3703
 20
118.39
 11
20.3145
 21
118.277
  0
LINE
  8
0
 10
20.3145
 20
118.277
 11
20.2494
 21
118.17
  0
LINE
  8
0
 10
20.2494
 20
118.17
 11
20.1755
 21
118.068
  0
LINE
  8
0
 10
20.1755
 20
118.068
 11
20.0934
 21
117.973
  0
LINE
  8
0
 10
20.0934
 20
117.973
 11
20.0037
 21
117.885
  0
LINE
  8
0
 10
20.0037
 20
117.885
 11
19.9069
 21
117.805
  0
LINE
  8
0
 10
19.9069
 20
117.805
 11
19.8037
 21
117.734
  0
LINE
  8
0
 10
19.8037
 20
117.734
 11
19.6949
 21
117.671
  0
LINE
  8
0
 10
19.6949
 20
117.671
 11
19.5813
 21
117.617
  0
LINE
  8
0
 10
19.5813
 20
117.617
 11
19.4635
 21
117.573
  0
LINE
  8
0
 10
19.4635
 20
117.573
 11
19.3425
 21
117.54
  0
LINE
  8
0
 10
19.3425
 20
117.54
 11
19.2191
 21
117.516
  0
LINE
  8
0
 10
19.2191
 20
117.516
 11
19.0942
 21
117.503
  0
LINE
  8
0
 10
19.0942
 20
117.503
 11
18.9686
 21
117.5
  0
LINE
  8
0
 10
18.9686
 20
117.5
 11
18.8432
 21
117.508
  0
LINE
  8
0
 10
173.515
 20
102.515
 11
173.515
 21
103.495
  0
LINE
  8
0
 10
173.515
 20
103.495
 11
172.702
 21
103.495
  0
LINE
  8
0
 10
172.702
 20
103.495
 11
172.702
 21
106.996
  0
LINE
  8
0
 10
172.702
 20
106.996
 11
173.515
 21
106.996
  0
LINE
  8
0
 10
173.515
 20
106.996
 11
173.515
 21
112.004
  0
LINE
  8
0
 10
173.515
 20
112.004
 11
172.702
 21
112.004
  0
LINE
  8
0
 10
172.702
 20
112.004
 11
172.702
 21
115.505
  0
LINE
  8
0
 10
172.702
 20
115.505
 11
173.515
 21
115.505
  0
LINE
  8
0
 10
173.515
 20
115.505
 11
173.515
 21
116.485
  0
LINE
  8
0
 10
173.515
 20
116.485
 11
187.485
 21
116.485
  0
LINE
  8
0
 10
187.485
 20
116.485
 11
187.485
 21
115.505
  0
LINE
  8
0
 10
187.485
 20
115.505
 11
188.298
 21
115.505
  0
LINE
  8
0
 10
188.298
 20
115.505
 11
188.298
 21
112.004
  0
LINE
  8
0
 10
188.298
 20
112.004
 11
187.485
 21
112.004
  0
LINE
  8
0
 10
187.485
 20
112.004
 11
187.485
 21
106.996
  0
LINE
  8
0
 10
187.485
 20
106.996
 11
188.298
 21
106.996
  0
LINE
  8
0
 10
188.298
 20
106.996
 11
188.298
 21
103.495
  0
LINE
  8
0
 10
188.298
 20
103.495
 11
187.485
 21
103.495
  0
LINE
  8
0
 10
187.485
 20
103.495
 11
187.485
 21
102.515
  0
LINE
  8
0
 10
187.485
 20
102.515
 11
173.515
 21
102.515
  0
LINE
  8
0
 10
154.515
 20
102.515
 11
154.515
 21
103.495
  0
LINE
  8
0
 10
154.515
 20
103.495
 11
153.702
 21
103.495
  0
LINE
  8
0
 10
153.702
 20
103.495
 11
153.702
 21
106.996
  0
LINE
  8
0
 10
153.702
 20
106.996
 11
154.515
 21
106.996
  0
LINE
  8
0
 10
154.515
 20
106.996
 11
154.515
 21
112.004
  0
LINE
  8
0
 10
154.515
 20
112.004
 11
153.702
 21
112.004
  0
LINE
  8
0
 10
153.702
 20
112.004
 11
153.702
 21
115.505
  0
LINE
  8
0
 10
153.702
 20
115.505
 11
154.515
 21
115.505
  0
LINE
  8
0
 10
154.515
 20
115.505
 11
154.515
 21
116.485
  0
LINE
  8
0
 10
154.515
 20
116.485
 11
168.485
 21
116.485
  0
LINE
  8
0
 10
168.485
 20
116.485
 11
168.485
 21
115.505
  0
LINE
  8
0
 10
168.485
 20
115.505
 11
169.298
 21
115.505
  0
LINE
  8
0
 10
169.298
 20
115.505
 11
169.298
 21
112.004
  0
LINE
  8
0
 10
169.298
 20
112.004
 11
168.485
 21
112.004
  0
LINE
  8
0
 10
168.485
 20
112.004
 11
168.485
 21
106.996
  0
LINE
  8
0
 10
168.485
 20
106.996
 11
169.298
 21
106.996
  0
LINE
  8
0
 10
169.298
 20
106.996
 11
169.298
 21
103.495
  0
LINE
  8
0
 10
169.298
 20
103.495
 11
168.485
 21
103.495
  0
LINE
  8
0
 10
168.485
 20
103.495
 11
168.485
 21
102.515
  0
LINE
  8
0
 10
168.485
 20
102.515
 11
154.515
 21
102.515
  0
LINE
  8
0
 10
135.515
 20
102.515
 11
135.515
 21
103.495
  0
LINE
  8
0
 10
135.515
 20
103.495
 11
134.702
 21
103.495
  0
LINE
  8
0
 10
134.702
 20
103.495
 11
134.702
 21
106.996
  0
LINE
  8
0
 10
134.702
 20
106.996
 11
135.515
 21
106.996
  0
LINE
  8
0
 10
135.515
 20
106.996
 11
135.515
 21
112.004
  0
LINE
  8
0
 10
135.515
 20
112.004
 11
134.702
 21
112.004
  0
LINE
  8
0
 10
134.702
 20
112.004
 11
134.702
 21
115.505
  0
LINE
  8
0
 10
134.702
 20
115.505
 11
135.515
 21
115.505
  0
LINE
  8
0
 10
135.515
 20
115.505
 11
135.515
 21
116.485
  0
LINE
  8
0
 10
135.515
 20
116.485
 11
149.485
 21
116.485
  0
LINE
  8
0
 10
149.485
 20
116.485
 11
149.485
 21
115.505
  0
LINE
  8
0
 10
149.485
 20
115.505
 11
150.298
 21
115.505
  0
LINE
  8
0
 10
150.298
 20
115.505
 11
150.298
 21
112.004
  0
LINE
  8
0
 10
150.298
 20
112.004
 11
149.485
 21
112.004
  0
LINE
  8
0
 10
149.485
 20
112.004
 11
149.485
 21
106.996
  0
LINE
  8
0
 10
149.485
 20
106.996
 11
150.298
 21
106.996
  0
LINE
  8
0
 10
150.298
 20
106.996
 11
150.298
 21
103.495
  0
LINE
  8
0
 10
150.298
 20
103.495
 11
149.485
 21
103.495
  0
LINE
  8
0
 10
149.485
 20
103.495
 11
149.485
 21
102.515
  0
LINE
  8
0
 10
149.485
 20
102.515
 11
135.515
 21
102.515
  0
LINE
  8
0
 10
116.515
 20
102.515
 11
116.515
 21
103.495
  0
LINE
  8
0
 10
116.515
 20
103.495
 11
115.702
 21
103.495
  0
LINE
  8
0
 10
115.702
 20
103.495
 11
115.702
 21
106.996
  0
LINE
  8
0
 10
115.702
 20
106.996
 11
116.515
 21
106.996
  0
LINE
  8
0
 10
116.515
 20
106.996
 11
116.515
 21
112.004
  0
LINE
  8
0
 10
116.515
 20
112.004
 11
115.702
 21
112.004
  0
LINE
  8
0
 10
115.702
 20
112.004
 11
115.702
 21
115.505
  0
LINE
  8
0
 10
115.702
 20
115.505
 11
116.515
 21
115.505
  0
LINE
  8
0
 10
116.515
 20
115.505
 11
116.515
 21
116.485
  0
LINE
  8
0
 10
116.515
 20
116.485
 11
130.485
 21
116.485
  0
LINE
  8
0
 10
130.485
 20
116.485
 11
130.485
 21
115.505
  0
LINE
  8
0
 10
130.485
 20
115.505
 11
131.298
 21
115.505
  0
LINE
  8
0
 10
131.298
 20
115.505
 11
131.298
 21
112.004
  0
LINE
  8
0
 10
131.298
 20
112.004
 11
130.485
 21
112.004
  0
LINE
  8
0
 10
130.485
 20
112.004
 11
130.485
 21
106.996
  0
LINE
  8
0
 10
130.485
 20
106.996
 11
131.298
 21
106.996
  0
LINE
  8
0
 10
131.298
 20
106.996
 11
131.298
 21
103.495
  0
LINE
  8
0
 10
131.298
 20
103.495
 11
130.485
 21
103.495
  0
LINE
  8
0
 10
130.485
 20
103.495
 11
130.485
 21
102.515
  0
LINE
  8
0
 10
130.485
 20
102.515
 11
116.515
 21
102.515
  0
LINE
  8
0
 10
97.515
 20
102.515
 11
97.515
 21
103.495
  0
LINE
  8
0
 10
97.515
 20
103.495
 11
96.7022
 21
103.495
  0
LINE
  8
0
 10
96.7022
 20
103.495
 11
96.7022
 21
106.996
  0
LINE
  8
0
 10
96.7022
 20
106.996
 11
97.515
 21
106.996
  0
LINE
  8
0
 10
97.515
 20
106.996
 11
97.515
 21
112.004
  0
LINE
  8
0
 10
97.515
 20
112.004
 11
96.7022
 21
112.004
  0
LINE
  8
0
 10
96.7022
 20
112.004
 11
96.7022
 21
115.505
  0
LINE
  8
0
 10
96.7022
 20
115.505
 11
97.515
 21
115.505
  0
LINE
  8
0
 10
97.515
 20
115.505
 11
97.515
 21
116.485
  0
LINE
  8
0
 10
97.515
 20
116.485
 11
111.485
 21
116.485
  0
LINE
  8
0
 10
111.485
 20
116.485
 11
111.485
 21
115.505
  0
LINE
  8
0
 10
111.485
 20
115.505
 11
112.298
 21
115.505
  0
LINE
  8
0
 10
112.298
 20
115.505
 11
112.298
 21
112.004
  0
LINE
  8
0
 10
112.298
 20
112.004
 11
111.485
 21
112.004
  0
LINE
  8
0
 10
111.485
 20
112.004
 11
111.485
 21
106.996
  0
LINE
  8
0
 10
111.485
 20
106.996
 11
112.298
 21
106.996
  0
LINE
  8
0
 10
112.298
 20
106.996
 11
112.298
 21
103.495
  0
LINE
  8
0
 10
112.298
 20
103.495
 11
111.485
 21
103.495
  0
LINE
  8
0
 10
111.485
 20
103.495
 11
111.485
 21
102.515
  0
LINE
  8
0
 10
111.485
 20
102.515
 11
97.515
 21
102.515
  0
LINE
  8
0
 10
78.515
 20
102.515
 11
78.515
 21
103.495
  0
LINE
  8
0
 10
78.515
 20
103.495
 11
77.7022
 21
103.495
  0
LINE
  8
0
 10
77.7022
 20
103.495
 11
77.7022
 21
106.996
  0
LINE
  8
0
 10
77.7022
 20
106.996
 11
78.515
 21
106.996
  0
LINE
  8
0
 10
78.515
 20
106.996
 11
78.515
 21
112.004
  0
LINE
  8
0
 10
78.515
 20
112.004
 11
77.7022
 21
112.004
  0
LINE
  8
0
 10
77.7022
 20
112.004
 11
77.7022
 21
115.505
  0
LINE
  8
0
 10
77.7022
 20
115.505
 11
78.515
 21
115.505
  0
LINE
  8
0
 10
78.515
 20
115.505
 11
78.515
 21
116.485
  0
LINE
  8
0
 10
78.515
 20
116.485
 11
92.485
 21
116.485
  0
LINE
  8
0
 10
92.485
 20
116.485
 11
92.485
 21
115.505
  0
LINE
  8
0
 10
92.485
 20
115.505
 11
93.2978
 21
115.505
  0
LINE
  8
0
 10
93.2978
 20
115.505
 11
93.2978
 21
112.004
  0
LINE
  8
0
 10
93.2978
 20
112.004
 11
92.485
 21
112.004
  0
LINE
  8
0
 10
92.485
 20
112.004
 11
92.485
 21
106.996
  0
LINE
  8
0
 10
92.485
 20
106.996
 11
93.2978
 21
106.996
  0
LINE
  8
0
 10
93.2978
 20
106.996
 11
93.2978
 21
103.495
  0
LINE
  8
0
 10
93.2978
 20
103.495
 11
92.485
 21
103.495
  0
LINE
  8
0
 10
92.485
 20
103.495
 11
92.485
 21
102.515
  0
LINE
  8
0
 10
92.485
 20
102.515
 11
78.515
 21
102.515
  0
LINE
  8
0
 10
59.515
 20
102.515
 11
59.515
 21
103.495
  0
LINE
  8
0
 10
59.515
 20
103.495
 11
58.7022
 21
103.495
  0
LINE
  8
0
 10
58.7022
 20
103.495
 11
58.7022
 21
106.996
  0
LINE
  8
0
 10
58.7022
 20
106.996
 11
59.515
 21
106.996
  0
LINE
  8
0
 10
59.515
 20
106.996
 11
59.515
 21
112.004
  0
LINE
  8
0
 10
59.515
 20
112.004
 11
58.7022
 21
112.004
  0
LINE
  8
0
 10
58.7022
 20
112.004
 11
58.7022
 21
115.505
  0
LINE
  8
0
 10
58.7022
 20
115.505
 11
59.515
 21
115.505
  0
LINE
  8
0
 10
59.515
 20
115.505
 11
59.515
 21
116.485
  0
LINE
  8
0
 10
59.515
 20
116.485
 11
73.485
 21
116.485
  0
LINE
  8
0
 10
73.485
 20
116.485
 11
73.485
 21
115.505
  0
LINE
  8
0
 10
73.485
 20
115.505
 11
74.2978
 21
115.505
  0
LINE
  8
0
 10
74.2978
 20
115.505
 11
74.2978
 21
112.004
  0
LINE
  8
0
 10
74.2978
 20
112.004
 11
73.485
 21
112.004
  0
LINE
  8
0
 10
73.485
 20
112.004
 11
73.485
 21
106.996
  0
LINE
  8
0
 10
73.485
 20
106.996
 11
74.2978
 21
106.996
  0
LINE
  8
0
 10
74.2978
 20
106.996
 11
74.2978
 21
103.495
  0
LINE
  8
0
 10
74.2978
 20
103.495
 11
73.485
 21
103.495
  0
LINE
  8
0
 10
73.485
 20
103.495
 11
73.485
 21
102.515
  0
LINE
  8
0
 10
73.485
 20
102.515
 11
59.515
 21
102.515
  0
LINE
  8
0
 10
40.515
 20
102.515
 11
40.515
 21
103.495
  0
LINE
  8
0
 10
40.515
 20
103.495
 11
39.7022
 21
103.495
  0
LINE
  8
0
 10
39.7022
 20
103.495
 11
39.7022
 21
106.996
  0
LINE
  8
0
 10
39.7022
 20
106.996
 11
40.515
 21
106.996
  0
LINE
  8
0
 10
40.515
 20
106.996
 11
40.515
 21
112.004
  0
LINE
  8
0
 10
40.515
 20
112.004
 11
39.7022
 21
112.004
  0
LINE
  8
0
 10
39.7022
 20
112.004
 11
39.7022
 21
115.505
  0
LINE
  8
0
 10
39.7022
 20
115.505
 11
40.515
 21
115.505
  0
LINE
  8
0
 10
40.515
 20
115.505
 11
40.515
 21
116.485
  0
LINE
  8
0
 10
40.515
 20
116.485
 11
54.485
 21
116.485
  0
LINE
  8
0
 10
54.485
 20
116.485
 11
54.485
 21
115.505
  0
LINE
  8
0
 10
54.485
 20
115.505
 11
55.2978
 21
115.505
  0
LINE
  8
0
 10
55.2978
 20
115.505
 11
55.2978
 21
112.004
  0
LINE
  8
0
 10
55.2978
 20
112.004
 11
54.485
 21
112.004
  0
LINE
  8
0
 10
54.485
 20
112.004
 11
54.485
 21
106.996
  0
LINE
  8
0
 10
54.485
 20
106.996
 11
55.2978
 21
106.996
  0
LINE
  8
0
 10
55.2978
 20
106.996
 11
55.2978
 21
103.495
  0
LINE
  8
0
 10
55.2978
 20
103.495
 11
54.485
 21
103.495
  0
LINE
  8
0
 10
54.485
 20
103.495
 11
54.485
 21
102.515
  0
LINE
  8
0
 10
54.485
 20
102.515
 11
40.515
 21
102.515
  0
LINE
  8
0
 10
21.515
 20
102.515
 11
21.515
 21
103.495
  0
LINE
  8
0
 10
21.515
 20
103.495
 11
20.7022
 21
103.495
  0
LINE
  8
0
 10
20.7022
 20
103.495
 11
20.7022
 21
106.996
  0
LINE
  8
0
 10
20.7022
 20
106.996
 11
21.515
 21
106.996
  0
LINE
  8
0
 10
21.515
 20
106.996
 11
21.515
 21
112.004
  0
LINE
  8
0
 10
21.515
 20
112.004
 11
20.7022
 21
112.004
  0
LINE
  8
0
 10
20.7022
 20
112.004
 11
20.7022
 21
115.505
  0
LINE
  8
0
 10
20.7022
 20
115.505
 11
21.515
 21
115.505
  0
LINE
  8
0
 10
21.515
 20
115.505
 11
21.515
 21
116.485
  0
LINE
  8
0
 10
21.515
 20
116.485
 11
35.485
 21
116.485
  0
LINE
  8
0
 10
35.485
 20
116.485
 11
35.485
 21
115.505
  0
LINE
  8
0
 10
35.485
 20
115.505
 11
36.2978
 21
115.505
  0
LINE
  8
0
 10
36.2978
 20
115.505
 11
36.2978
 21
112.004
  0
LINE
  8
0
 10
36.2978
 20
112.004
 11
35.485
 21
112.004
  0
LINE
  8
0
 10
35.485
 20
112.004
 11
35.485
 21
106.996
  0
LINE
  8
0
 10
35.485
 20
106.996
 11
36.2978
 21
106.996
  0
LINE
  8
0
 10
36.2978
 20
106.996
 11
36.2978
 21
103.495
  0
LINE
  8
0
 10
36.2978
 20
103.495
 11
35.485
 21
103.495
  0
LINE
  8
0
 10
35.485
 20
103.495
 11
35.485
 21
102.515
  0
LINE
  8
0
 10
35.485
 20
102.515
 11
21.515
 21
102.515
  0
LINE
  8
0
 10
2.51501
 20
102.515
 11
2.51501
 21
103.495
  0
LINE
  8
0
 10
2.51501
 20
103.495
 11
1.70221
 21
103.495
  0
LINE
  8
0
 10
1.70221
 20
103.495
 11
1.70221
 21
106.996
  0
LINE
  8
0
 10
1.70221
 20
106.996
 11
2.51501
 21
106.996
  0
LINE
  8
0
 10
2.51501
 20
106.996
 11
2.51501
 21
112.004
  0
LINE
  8
0
 10
2.51501
 20
112.004
 11
1.70221
 21
112.004
  0
LINE
  8
0
 10
1.70221
 20
112.004
 11
1.70221
 21
115.505
  0
LINE
  8
0
 10
1.70221
 20
115.505
 11
2.51501
 21
115.505
  0
LINE
  8
0
 10
2.51501
 20
115.505
 11
2.51501
 21
116.485
  0
LINE
  8
0
 10
2.51501
 20
116.485
 11
16.485
 21
116.485
  0
LINE
  8
0
 10
16.485
 20
116.485
 11
16.485
 21
115.505
  0
LINE
  8
0
 10
16.485
 20
115.505
 11
17.2978
 21
115.505
  0
LINE
  8
0
 10
17.2978
 20
115.505
 11
17.2978
 21
112.004
  0
LINE
  8
0
 10
17.2978
 20
112.004
 11
16.485
 21
112.004
  0
LINE
  8
0
 10
16.485
 20
112.004
 11
16.485
 21
106.996
  0
LINE
  8
0
 10
16.485
 20
106.996
 11
17.2978
 21
106.996
  0
LINE
  8
0
 10
17.2978
 20
106.996
 11
17.2978
 21
103.495
  0
LINE
  8
0
 10
17.2978
 20
103.495
 11
16.485
 21
103.495
  0
LINE
  8
0
 10
16.485
 20
103.495
 11
16.485
 21
102.515
  0
LINE
  8
0
 10
16.485
 20
102.515
 11
2.51501
 21
102.515
  0
LINE
  8
0
 10
191.862
 20
-3.2648
 11
191.987
 21
-3.25166
  0
LINE
  8
0
 10
191.987
 20
-3.25166
 11
192.11
 21
-3.22813
  0
LINE
  8
0
 10
192.11
 20
-3.22813
 11
192.231
 21
-3.19435
  0
LINE
  8
0
 10
192.231
 20
-3.19435
 11
192.349
 21
-3.15056
  0
LINE
  8
0
 10
192.349
 20
-3.15056
 11
192.463
 21
-3.09706
  0
LINE
  8
0
 10
192.463
 20
-3.09706
 11
192.572
 21
-3.03426
  0
LINE
  8
0
 10
192.572
 20
-3.03426
 11
192.675
 21
-2.96255
  0
LINE
  8
0
 10
192.675
 20
-2.96255
 11
192.771
 21
-2.88248
  0
LINE
  8
0
 10
192.771
 20
-2.88248
 11
192.861
 21
-2.79459
  0
LINE
  8
0
 10
192.861
 20
-2.79459
 11
192.943
 21
-2.69948
  0
LINE
  8
0
 10
192.943
 20
-2.69948
 11
193.017
 21
-2.59784
  0
LINE
  8
0
 10
193.017
 20
-2.59784
 11
193.082
 21
-2.49039
  0
LINE
  8
0
 10
193.082
 20
-2.49039
 11
193.138
 21
-2.37787
  0
LINE
  8
0
 10
193.138
 20
-2.37787
 11
193.184
 21
-2.26106
  0
LINE
  8
0
 10
193.184
 20
-2.26106
 11
193.221
 21
-2.14079
  0
LINE
  8
0
 10
193.221
 20
-2.14079
 11
193.247
 21
-2.01791
  0
LINE
  8
0
 10
193.247
 20
-2.01791
 11
193.262
 21
-1.89328
  0
LINE
  8
0
 10
193.262
 20
-1.89328
 11
193.268
 21
-1.76776
  0
LINE
  8
0
 10
193.268
 20
-1.76776
 11
193.268
 21
77.7678
  0
LINE
  8
0
 10
193.268
 20
77.7678
 11
193.262
 21
77.8933
  0
LINE
  8
0
 10
193.262
 20
77.8933
 11
193.247
 21
78.0179
  0
LINE
  8
0
 10
193.247
 20
78.0179
 11
193.221
 21
78.1408
  0
LINE
  8
0
 10
193.221
 20
78.1408
 11
193.184
 21
78.2611
  0
LINE
  8
0
 10
193.184
 20
78.2611
 11
193.138
 21
78.3779
  0
LINE
  8
0
 10
193.138
 20
78.3779
 11
193.082
 21
78.4904
  0
LINE
  8
0
 10
193.082
 20
78.4904
 11
193.017
 21
78.5978
  0
LINE
  8
0
 10
193.017
 20
78.5978
 11
192.943
 21
78.6995
  0
LINE
  8
0
 10
192.943
 20
78.6995
 11
192.861
 21
78.7946
  0
LINE
  8
0
 10
192.861
 20
78.7946
 11
192.771
 21
78.8825
  0
LINE
  8
0
 10
192.771
 20
78.8825
 11
192.675
 21
78.9626
  0
LINE
  8
0
 10
192.675
 20
78.9626
 11
192.572
 21
79.0343
  0
LINE
  8
0
 10
192.572
 20
79.0343
 11
192.463
 21
79.0971
  0
LINE
  8
0
 10
192.463
 20
79.0971
 11
192.349
 21
79.1506
  0
LINE
  8
0
 10
192.349
 20
79.1506
 11
192.231
 21
79.1944
  0
LINE
  8
0
 10
192.231
 20
79.1944
 11
192.11
 21
79.2281
  0
LINE
  8
0
 10
192.11
 20
79.2281
 11
191.987
 21
79.2517
  0
LINE
  8
0
 10
191.987
 20
79.2517
 11
191.862
 21
79.2648
  0
LINE
  8
0
 10
191.862
 20
79.2648
 11
191.736
 21
79.2674
  0
LINE
  8
0
 10
191.736
 20
79.2674
 11
-1.79918
 21
79.2674
  0
LINE
  8
0
 10
-1.79918
 20
79.2674
 11
-1.92455
 21
79.2595
  0
LINE
  8
0
 10
-1.92455
 20
79.2595
 11
-2.04883
 21
79.2412
  0
LINE
  8
0
 10
-2.04883
 20
79.2412
 11
-2.17114
 21
79.2125
  0
LINE
  8
0
 10
-2.17114
 20
79.2125
 11
-2.29062
 21
79.1737
  0
LINE
  8
0
 10
-2.29062
 20
79.1737
 11
-2.40643
 21
79.125
  0
LINE
  8
0
 10
-2.40643
 20
79.125
 11
-2.51776
 21
79.0668
  0
LINE
  8
0
 10
-2.51776
 20
79.0668
 11
-2.62383
 21
78.9995
  0
LINE
  8
0
 10
-2.62383
 20
78.9995
 11
-2.72389
 21
78.9235
  0
LINE
  8
0
 10
-2.72389
 20
78.9235
 11
-2.81726
 21
78.8395
  0
LINE
  8
0
 10
-2.81726
 20
78.8395
 11
-2.90326
 21
78.7479
  0
LINE
  8
0
 10
-2.90326
 20
78.7479
 11
-2.98128
 21
78.6494
  0
LINE
  8
0
 10
-2.98128
 20
78.6494
 11
-3.05081
 21
78.5448
  0
LINE
  8
0
 10
-3.05081
 20
78.5448
 11
-3.11133
 21
78.4347
  0
LINE
  8
0
 10
-3.11133
 20
78.4347
 11
-3.16243
 21
78.3199
  0
LINE
  8
0
 10
-3.16243
 20
78.3199
 11
-3.20374
 21
78.2013
  0
LINE
  8
0
 10
-3.20374
 20
78.2013
 11
-3.23499
 21
78.0796
  0
LINE
  8
0
 10
-3.23499
 20
78.0796
 11
-3.25594
 21
77.9558
  0
LINE
  8
0
 10
-3.25594
 20
77.9558
 11
-3.26645
 21
77.8306
  0
LINE
  8
0
 10
-3.26645
 20
77.8306
 11
-3.26645
 21
-1.83057
  0
LINE
  8
0
 10
-3.26645
 20
-1.83057
 11
-3.25594
 21
-1.95576
  0
LINE
  8
0
 10
-3.25594
 20
-1.95576
 11
-3.23499
 21
-2.07962
  0
LINE
  8
0
 10
-3.23499
 20
-2.07962
 11
-3.20374
 21
-2.20131
  0
LINE
  8
0
 10
-3.20374
 20
-2.20131
 11
-3.16243
 21
-2.31995
  0
LINE
  8
0
 10
-3.16243
 20
-2.31995
 11
-3.11133
 21
-2.43471
  0
LINE
  8
0
 10
-3.11133
 20
-2.43471
 11
-3.05081
 21
-2.5448
  0
LINE
  8
0
 10
-3.05081
 20
-2.5448
 11
-2.98128
 21
-2.64944
  0
LINE
  8
0
 10
-2.98128
 20
-2.64944
 11
-2.90326
 21
-2.74789
  0
LINE
  8
0
 10
-2.90326
 20
-2.74789
 11
-2.81726
 21
-2.83946
  0
LINE
  8
0
 10
-2.81726
 20
-2.83946
 11
-2.72389
 21
-2.92352
  0
LINE
  8
0
 10
-2.72389
 20
-2.92352
 11
-2.62383
 21
-2.99948
  0
LINE
  8
0
 10
-2.62383
 20
-2.99948
 11
-2.51776
 21
-3.0668
  0
LINE
  8
0
 10
-2.51776
 20
-3.0668
 11
-2.40643
 21
-3.125
  0
LINE
  8
0
 10
-2.40643
 20
-3.125
 11
-2.29062
 21
-3.17368
  0
LINE
  8
0
 10
-2.29062
 20
-3.17368
 11
-2.17114
 21
-3.21251
  0
LINE
  8
0
 10
-2.17114
 20
-3.21251
 11
-2.04883
 21
-3.2412
  0
LINE
  8
0
 10
-2.04883
 20
-3.2412
 11
-1.92455
 21
-3.25954
  0
LINE
  8
0
 10
-1.92455
 20
-3.25954
 11
-1.79918
 21
-3.26743
  0
LINE
  8
0
 10
-1.79918
 20
-3.26743
 11
191.736
 21
-3.26743
  0
LINE
  8
0
 10
191.736
 20
-3.26743
 11
191.862
 21
-3.2648
  0
LINE
  8
0
 10
18.8432
 20
55.5082
 11
18.7189
 21
55.5266
  0
LINE
  8
0
 10
18.7189
 20
55.5266
 11
18.5966
 21
55.5553
  0
LINE
  8
0
 10
18.5966
 20
55.5553
 11
18.4771
 21
55.5941
  0
LINE
  8
0
 10
18.4771
 20
55.5941
 11
18.3613
 21
55.6427
  0
LINE
  8
0
 10
18.3613
 20
55.6427
 11
18.25
 21
55.701
  0
LINE
  8
0
 10
18.25
 20
55.701
 11
18.1439
 21
55.7683
  0
LINE
  8
0
 10
18.1439
 20
55.7683
 11
18.0439
 21
55.8442
  0
LINE
  8
0
 10
18.0439
 20
55.8442
 11
17.9505
 21
55.9283
  0
LINE
  8
0
 10
17.9505
 20
55.9283
 11
17.8645
 21
56.0199
  0
LINE
  8
0
 10
17.8645
 20
56.0199
 11
17.7865
 21
56.1183
  0
LINE
  8
0
 10
17.7865
 20
56.1183
 11
17.7169
 21
56.2229
  0
LINE
  8
0
 10
17.7169
 20
56.2229
 11
17.6564
 21
56.333
  0
LINE
  8
0
 10
17.6564
 20
56.333
 11
17.6053
 21
56.4478
  0
LINE
  8
0
 10
17.6053
 20
56.4478
 11
17.564
 21
56.5665
  0
LINE
  8
0
 10
17.564
 20
56.5665
 11
17.5328
 21
56.6881
  0
LINE
  8
0
 10
17.5328
 20
56.6881
 11
17.5118
 21
56.812
  0
LINE
  8
0
 10
17.5118
 20
56.812
 11
17.5013
 21
56.9372
  0
LINE
  8
0
 10
17.5013
 20
56.9372
 11
17.5013
 21
57.0628
  0
LINE
  8
0
 10
17.5013
 20
57.0628
 11
17.5118
 21
57.188
  0
LINE
  8
0
 10
17.5118
 20
57.188
 11
17.5328
 21
57.3119
  0
LINE
  8
0
 10
17.5328
 20
57.3119
 11
17.564
 21
57.4335
  0
LINE
  8
0
 10
17.564
 20
57.4335
 11
17.6053
 21
57.5522
  0
LINE
  8
0
 10
17.6053
 20
57.5522
 11
17.6564
 21
57.6669
  0
LINE
  8
0
 10
17.6564
 20
57.6669
 11
17.7169
 21
57.777
  0
LINE
  8
0
 10
17.7169
 20
57.777
 11
17.7865
 21
57.8817
  0
LINE
  8
0
 10
17.7865
 20
57.8817
 11
17.8645
 21
57.9801
  0
LINE
  8
0
 10
17.8645
 20
57.9801
 11
17.9505
 21
58.0717
  0
LINE
  8
0
 10
17.9505
 20
58.0717
 11
18.0439
 21
58.1558
  0
LINE
  8
0
 10
18.0439
 20
58.1558
 11
18.1439
 21
58.2317
  0
LINE
  8
0
 10
18.1439
 20
58.2317
 11
18.25
 21
58.299
  0
LINE
  8
0
 10
18.25
 20
58.299
 11
18.3613
 21
58.3572
  0
LINE
  8
0
 10
18.3613
 20
58.3572
 11
18.4771
 21
58.4059
  0
LINE
  8
0
 10
18.4771
 20
58.4059
 11
18.5966
 21
58.4447
  0
LINE
  8
0
 10
18.5966
 20
58.4447
 11
18.7189
 21
58.4734
  0
LINE
  8
0
 10
18.7189
 20
58.4734
 11
18.8432
 21
58.4918
  0
LINE
  8
0
 10
18.8432
 20
58.4918
 11
18.9686
 21
58.4997
  0
LINE
  8
0
 10
18.9686
 20
58.4997
 11
19.0942
 21
58.497
  0
LINE
  8
0
 10
19.0942
 20
58.497
 11
19.2191
 21
58.4839
  0
LINE
  8
0
 10
19.2191
 20
58.4839
 11
19.3425
 21
58.4604
  0
LINE
  8
0
 10
19.3425
 20
58.4604
 11
19.4635
 21
58.4266
  0
LINE
  8
0
 10
19.4635
 20
58.4266
 11
19.5813
 21
58.3828
  0
LINE
  8
0
 10
19.5813
 20
58.3828
 11
19.6949
 21
58.3293
  0
LINE
  8
0
 10
19.6949
 20
58.3293
 11
19.8037
 21
58.2665
  0
LINE
  8
0
 10
19.8037
 20
58.2665
 11
19.9069
 21
58.1948
  0
LINE
  8
0
 10
19.9069
 20
58.1948
 11
20.0037
 21
58.1147
  0
LINE
  8
0
 10
20.0037
 20
58.1147
 11
20.0934
 21
58.0268
  0
LINE
  8
0
 10
20.0934
 20
58.0268
 11
20.1755
 21
57.9317
  0
LINE
  8
0
 10
20.1755
 20
57.9317
 11
20.2494
 21
57.8301
  0
LINE
  8
0
 10
20.2494
 20
57.8301
 11
20.3145
 21
57.7226
  0
LINE
  8
0
 10
20.3145
 20
57.7226
 11
20.3703
 21
57.6101
  0
LINE
  8
0
 10
20.3703
 20
57.6101
 11
20.4165
 21
57.4933
  0
LINE
  8
0
 10
20.4165
 20
57.4933
 11
20.4529
 21
57.373
  0
LINE
  8
0
 10
20.4529
 20
57.373
 11
20.479
 21
57.2502
  0
LINE
  8
0
 10
20.479
 20
57.2502
 11
20.4947
 21
57.1255
  0
LINE
  8
0
 10
20.4947
 20
57.1255
 11
20.5
 21
57
  0
LINE
  8
0
 10
20.5
 20
57
 11
20.4947
 21
56.8745
  0
LINE
  8
0
 10
20.4947
 20
56.8745
 11
20.479
 21
56.7498
  0
LINE
  8
0
 10
20.479
 20
56.7498
 11
20.4529
 21
56.627
  0
LINE
  8
0
 10
20.4529
 20
56.627
 11
20.4165
 21
56.5067
  0
LINE
  8
0
 10
20.4165
 20
56.5067
 11
20.3703
 21
56.3899
  0
LINE
  8
0
 10
20.3703
 20
56.3899
 11
20.3145
 21
56.2774
  0
LINE
  8
0
 10
20.3145
 20
56.2774
 11
20.2494
 21
56.1699
  0
LINE
  8
0
 10
20.2494
 20
56.1699
 11
20.1755
 21
56.0683
  0
LINE
  8
0
 10
20.1755
 20
56.0683
 11
20.0934
 21
55.9732
  0
LINE
  8
0
 10
20.0934
 20
55.9732
 11
20.0037
 21
55.8853
  0
LINE
  8
0
 10
20.0037
 20
55.8853
 11
19.9069
 21
55.8052
  0
LINE
  8
0
 10
19.9069
 20
55.8052
 11
19.8037
 21
55.7335
  0
LINE
  8
0
 10
19.8037
 20
55.7335
 11
19.6949
 21
55.6707
  0
LINE
  8
0
 10
19.6949
 20
55.6707
 11
19.5813
 21
55.6172
  0
LINE
  8
0
 10
19.5813
 20
55.6172
 11
19.4635
 21
55.5734
  0
LINE
  8
0
 10
19.4635
 20
55.5734
 11
19.3425
 21
55.5396
  0
LINE
  8
0
 10
19.3425
 20
55.5396
 11
19.2191
 21
55.5161
  0
LINE
  8
0
 10
19.2191
 20
55.5161
 11
19.0942
 21
55.5029
  0
LINE
  8
0
 10
19.0942
 20
55.5029
 11
18.9686
 21
55.5003
  0
LINE
  8
0
 10
18.9686
 20
55.5003
 11
18.8432
 21
55.5082
  0
LINE
  8
0
 10
170.843
 20
55.5082
 11
170.719
 21
55.5266
  0
LINE
  8
0
 10
170.719
 20
55.5266
 11
170.597
 21
55.5553
  0
LINE
  8
0
 10
170.597
 20
55.5553
 11
170.477
 21
55.5941
  0
LINE
  8
0
 10
170.477
 20
55.5941
 11
170.361
 21
55.6427
  0
LINE
  8
0
 10
170.361
 20
55.6427
 11
170.25
 21
55.701
  0
LINE
  8
0
 10
170.25
 20
55.701
 11
170.144
 21
55.7683
  0
LINE
  8
0
 10
170.144
 20
55.7683
 11
170.044
 21
55.8442
  0
LINE
  8
0
 10
170.044
 20
55.8442
 11
169.951
 21
55.9283
  0
LINE
  8
0
 10
169.951
 20
55.9283
 11
169.865
 21
56.0199
  0
LINE
  8
0
 10
169.865
 20
56.0199
 11
169.786
 21
56.1183
  0
LINE
  8
0
 10
169.786
 20
56.1183
 11
169.717
 21
56.2229
  0
LINE
  8
0
 10
169.717
 20
56.2229
 11
169.656
 21
56.333
  0
LINE
  8
0
 10
169.656
 20
56.333
 11
169.605
 21
56.4478
  0
LINE
  8
0
 10
169.605
 20
56.4478
 11
169.564
 21
56.5665
  0
LINE
  8
0
 10
169.564
 20
56.5665
 11
169.533
 21
56.6881
  0
LINE
  8
0
 10
169.533
 20
56.6881
 11
169.512
 21
56.812
  0
LINE
  8
0
 10
169.512
 20
56.812
 11
169.501
 21
56.9372
  0
LINE
  8
0
 10
169.501
 20
56.9372
 11
169.501
 21
57.0628
  0
LINE
  8
0
 10
169.501
 20
57.0628
 11
169.512
 21
57.188
  0
LINE
  8
0
 10
169.512
 20
57.188
 11
169.533
 21
57.3119
  0
LINE
  8
0
 10
169.533
 20
57.3119
 11
169.564
 21
57.4335
  0
LINE
  8
0
 10
169.564
 20
57.4335
 11
169.605
 21
57.5522
  0
LINE
  8
0
 10
169.605
 20
57.5522
 11
169.656
 21
57.6669
  0
LINE
  8
0
 10
169.656
 20
57.6669
 11
169.717
 21
57.777
  0
LINE
  8
0
 10
169.717
 20
57.777
 11
169.786
 21
57.8817
  0
LINE
  8
0
 10
169.786
 20
57.8817
 11
169.865
 21
57.9801
  0
LINE
  8
0
 10
169.865
 20
57.9801
 11
169.951
 21
58.0717
  0
LINE
  8
0
 10
169.951
 20
58.0717
 11
170.044
 21
58.1558
  0
LINE
  8
0
 10
170.044
 20
58.1558
 11
170.144
 21
58.2317
  0
LINE
  8
0
 10
170.144
 20
58.2317
 11
170.25
 21
58.299
  0
LINE
  8
0
 10
170.25
 20
58.299
 11
170.361
 21
58.3572
  0
LINE
  8
0
 10
170.361
 20
58.3572
 11
170.477
 21
58.4059
  0
LINE
  8
0
 10
170.477
 20
58.4059
 11
170.597
 21
58.4447
  0
LINE
  8
0
 10
170.597
 20
58.4447
 11
170.719
 21
58.4734
  0
LINE
  8
0
 10
170.719
 20
58.4734
 11
170.843
 21
58.4918
  0
LINE
  8
0
 10
170.843
 20
58.4918
 11
170.969
 21
58.4997
  0
LINE
  8
0
 10
170.969
 20
58.4997
 11
171.094
 21
58.497
  0
LINE
  8
0
 10
171.094
 20
58.497
 11
171.219
 21
58.4839
  0
LINE
  8
0
 10
171.219
 20
58.4839
 11
171.343
 21
58.4604
  0
LINE
  8
0
 10
171.343
 20
58.4604
 11
171.464
 21
58.4266
  0
LINE
  8
0
 10
171.464
 20
58.4266
 11
171.581
 21
58.3828
  0
LINE
  8
0
 10
171.581
 20
58.3828
 11
171.695
 21
58.3293
  0
LINE
  8
0
 10
171.695
 20
58.3293
 11
171.804
 21
58.2665
  0
LINE
  8
0
 10
171.804
 20
58.2665
 11
171.907
 21
58.1948
  0
LINE
  8
0
 10
171.907
 20
58.1948
 11
172.004
 21
58.1147
  0
LINE
  8
0
 10
172.004
 20
58.1147
 11
172.093
 21
58.0268
  0
LINE
  8
0
 10
172.093
 20
58.0268
 11
172.176
 21
57.9317
  0
LINE
  8
0
 10
172.176
 20
57.9317
 11
172.249
 21
57.8301
  0
LINE
  8
0
 10
172.249
 20
57.8301
 11
172.314
 21
57.7226
  0
LINE
  8
0
 10
172.314
 20
57.7226
 11
172.37
 21
57.6101
  0
LINE
  8
0
 10
172.37
 20
57.6101
 11
172.417
 21
57.4933
  0
LINE
  8
0
 10
172.417
 20
57.4933
 11
172.453
 21
57.373
  0
LINE
  8
0
 10
172.453
 20
57.373
 11
172.479
 21
57.2502
  0
LINE
  8
0
 10
172.479
 20
57.2502
 11
172.495
 21
57.1255
  0
LINE
  8
0
 10
172.495
 20
57.1255
 11
172.5
 21
57
  0
LINE
  8
0
 10
172.5
 20
57
 11
172.495
 21
56.8745
  0
LINE
  8
0
 10
172.495
 20
56.8745
 11
172.479
 21
56.7498
  0
LINE
  8
0
 10
172.479
 20
56.7498
 11
172.453
 21
56.627
  0
LINE
  8
0
 10
172.453
 20
56.627
 11
172.417
 21
56.5067
  0
LINE
  8
0
 10
172.417
 20
56.5067
 11
172.37
 21
56.3899
  0
LINE
  8
0
 10
172.37
 20
56.3899
 11
172.314
 21
56.2774
  0
LINE
  8
0
 10
172.314
 20
56.2774
 11
172.249
 21
56.1699
  0
LINE
  8
0
 10
172.249
 20
56.1699
 11
172.176
 21
56.0683
  0
LINE
  8
0
 10
172.176
 20
56.0683
 11
172.093
 21
55.9732
  0
LINE
  8
0
 10
172.093
 20
55.9732
 11
172.004
 21
55.8853
  0
LINE
  8
0
 10
172.004
 20
55.8853
 11
171.907
 21
55.8052
  0
LINE
  8
0
 10
171.907
 20
55.8052
 11
171.804
 21
55.7335
  0
LINE
  8
0
 10
171.804
 20
55.7335
 11
171.695
 21
55.6707
  0
LINE
  8
0
 10
171.695
 20
55.6707
 11
171.581
 21
55.6172
  0
LINE
  8
0
 10
171.581
 20
55.6172
 11
171.464
 21
55.5734
  0
LINE
  8
0
 10
171.464
 20
55.5734
 11
171.343
 21
55.5396
  0
LINE
  8
0
 10
171.343
 20
55.5396
 11
171.219
 21
55.5161
  0
LINE
  8
0
 10
171.219
 20
55.5161
 11
171.094
 21
55.5029
  0
LINE
  8
0
 10
171.094
 20
55.5029
 11
170.969
 21
55.5003
  0
LINE
  8
0
 10
170.969
 20
55.5003
 11
170.843
 21
55.5082
  0
LINE
  8
0
 10
94.8432
 20
36.5082
 11
94.7189
 21
36.5266
  0
LINE
  8
0
 10
94.7189
 20
36.5266
 11
94.5966
 21
36.5553
  0
LINE
  8
0
 10
94.5966
 20
36.5553
 11
94.4771
 21
36.5941
  0
LINE
  8
0
 10
94.4771
 20
36.5941
 11
94.3613
 21
36.6427
  0
LINE
  8
0
 10
94.3613
 20
36.6427
 11
94.25
 21
36.701
  0
LINE
  8
0
 10
94.25
 20
36.701
 11
94.1439
 21
36.7683
  0
LINE
  8
0
 10
94.1439
 20
36.7683
 11
94.0439
 21
36.8442
  0
LINE
  8
0
 10
94.0439
 20
36.8442
 11
93.9505
 21
36.9283
  0
LINE
  8
0
 10
93.9505
 20
36.9283
 11
93.8645
 21
37.0199
  0
LINE
  8
0
 10
93.8645
 20
37.0199
 11
93.7865
 21
37.1183
  0
LINE
  8
0
 10
93.7865
 20
37.1183
 11
93.7169
 21
37.2229
  0
LINE
  8
0
 10
93.7169
 20
37.2229
 11
93.6564
 21
37.333
  0
LINE
  8
0
 10
93.6564
 20
37.333
 11
93.6053
 21
37.4478
  0
LINE
  8
0
 10
93.6053
 20
37.4478
 11
93.564
 21
37.5665
  0
LINE
  8
0
 10
93.564
 20
37.5665
 11
93.5328
 21
37.6881
  0
LINE
  8
0
 10
93.5328
 20
37.6881
 11
93.5118
 21
37.812
  0
LINE
  8
0
 10
93.5118
 20
37.812
 11
93.5013
 21
37.9372
  0
LINE
  8
0
 10
93.5013
 20
37.9372
 11
93.5013
 21
38.0628
  0
LINE
  8
0
 10
93.5013
 20
38.0628
 11
93.5118
 21
38.188
  0
LINE
  8
0
 10
93.5118
 20
38.188
 11
93.5328
 21
38.3119
  0
LINE
  8
0
 10
93.5328
 20
38.3119
 11
93.564
 21
38.4335
  0
LINE
  8
0
 10
93.564
 20
38.4335
 11
93.6053
 21
38.5522
  0
LINE
  8
0
 10
93.6053
 20
38.5522
 11
93.6564
 21
38.6669
  0
LINE
  8
0
 10
93.6564
 20
38.6669
 11
93.7169
 21
38.777
  0
LINE
  8
0
 10
93.7169
 20
38.777
 11
93.7865
 21
38.8817
  0
LINE
  8
0
 10
93.7865
 20
38.8817
 11
93.8645
 21
38.9801
  0
LINE
  8
0
 10
93.8645
 20
38.9801
 11
93.9505
 21
39.0717
  0
LINE
  8
0
 10
93.9505
 20
39.0717
 11
94.0439
 21
39.1558
  0
LINE
  8
0
 10
94.0439
 20
39.1558
 11
94.1439
 21
39.2317
  0
LINE
  8
0
 10
94.1439
 20
39.2317
 11
94.25
 21
39.299
  0
LINE
  8
0
 10
94.25
 20
39.299
 11
94.3613
 21
39.3572
  0
LINE
  8
0
 10
94.3613
 20
39.3572
 11
94.4771
 21
39.4059
  0
LINE
  8
0
 10
94.4771
 20
39.4059
 11
94.5966
 21
39.4447
  0
LINE
  8
0
 10
94.5966
 20
39.4447
 11
94.7189
 21
39.4734
  0
LINE
  8
0
 10
94.7189
 20
39.4734
 11
94.8432
 21
39.4918
  0
LINE
  8
0
 10
94.8432
 20
39.4918
 11
94.9686
 21
39.4997
  0
LINE
  8
0
 10
94.9686
 20
39.4997
 11
95.0942
 21
39.497
  0
LINE
  8
0
 10
95.0942
 20
39.497
 11
95.2191
 21
39.4839
  0
LINE
  8
0
 10
95.2191
 20
39.4839
 11
95.3425
 21
39.4604
  0
LINE
  8
0
 10
95.3425
 20
39.4604
 11
95.4635
 21
39.4266
  0
LINE
  8
0
 10
95.4635
 20
39.4266
 11
95.5813
 21
39.3828
  0
LINE
  8
0
 10
95.5813
 20
39.3828
 11
95.6949
 21
39.3293
  0
LINE
  8
0
 10
95.6949
 20
39.3293
 11
95.8037
 21
39.2665
  0
LINE
  8
0
 10
95.8037
 20
39.2665
 11
95.9069
 21
39.1948
  0
LINE
  8
0
 10
95.9069
 20
39.1948
 11
96.0037
 21
39.1147
  0
LINE
  8
0
 10
96.0037
 20
39.1147
 11
96.0934
 21
39.0268
  0
LINE
  8
0
 10
96.0934
 20
39.0268
 11
96.1755
 21
38.9317
  0
LINE
  8
0
 10
96.1755
 20
38.9317
 11
96.2494
 21
38.8301
  0
LINE
  8
0
 10
96.2494
 20
38.8301
 11
96.3145
 21
38.7226
  0
LINE
  8
0
 10
96.3145
 20
38.7226
 11
96.3703
 21
38.6101
  0
LINE
  8
0
 10
96.3703
 20
38.6101
 11
96.4165
 21
38.4933
  0
LINE
  8
0
 10
96.4165
 20
38.4933
 11
96.4529
 21
38.373
  0
LINE
  8
0
 10
96.4529
 20
38.373
 11
96.479
 21
38.2502
  0
LINE
  8
0
 10
96.479
 20
38.2502
 11
96.4947
 21
38.1255
  0
LINE
  8
0
 10
96.4947
 20
38.1255
 11
96.5
 21
38
  0
LINE
  8
0
 10
96.5
 20
38
 11
96.4947
 21
37.8745
  0
LINE
  8
0
 10
96.4947
 20
37.8745
 11
96.479
 21
37.7498
  0
LINE
  8
0
 10
96.479
 20
37.7498
 11
96.4529
 21
37.627
  0
LINE
  8
0
 10
96.4529
 20
37.627
 11
96.4165
 21
37.5067
  0
LINE
  8
0
 10
96.4165
 20
37.5067
 11
96.3703
 21
37.3899
  0
LINE
  8
0
 10
96.3703
 20
37.3899
 11
96.3145
 21
37.2774
  0
LINE
  8
0
 10
96.3145
 20
37.2774
 11
96.2494
 21
37.1699
  0
LINE
  8
0
 10
96.2494
 20
37.1699
 11
96.1755
 21
37.0683
  0
LINE
  8
0
 10
96.1755
 20
37.0683
 11
96.0934
 21
36.9732
  0
LINE
  8
0
 10
96.0934
 20
36.9732
 11
96.0037
 21
36.8853
  0
LINE
  8
0
 10
96.0037
 20
36.8853
 11
95.9069
 21
36.8052
  0
LINE
  8
0
 10
95.9069
 20
36.8052
 11
95.8037
 21
36.7335
  0
LINE
  8
0
 10
95.8037
 20
36.7335
 11
95.6949
 21
36.6707
  0
LINE
  8
0
 10
95.6949
 20
36.6707
 11
95.5813
 21
36.6172
  0
LINE
  8
0
 10
95.5813
 20
36.6172
 11
95.4635
 21
36.5734
  0
LINE
  8
0
 10
95.4635
 20
36.5734
 11
95.3425
 21
36.5396
  0
LINE
  8
0
 10
95.3425
 20
36.5396
 11
95.2191
 21
36.5161
  0
LINE
  8
0
 10
95.2191
 20
36.5161
 11
95.0942
 21
36.5029
  0
LINE
  8
0
 10
95.0942
 20
36.5029
 11
94.9686
 21
36.5003
  0
LINE
  8
0
 10
94.9686
 20
36.5003
 11
94.8432
 21
36.5082
  0
LINE
  8
0
 10
18.8432
 20
17.5082
 11
18.7189
 21
17.5266
  0
LINE
  8
0
 10
18.7189
 20
17.5266
 11
18.5966
 21
17.5553
  0
LINE
  8
0
 10
18.5966
 20
17.5553
 11
18.4771
 21
17.5941
  0
LINE
  8
0
 10
18.4771
 20
17.5941
 11
18.3613
 21
17.6427
  0
LINE
  8
0
 10
18.3613
 20
17.6427
 11
18.25
 21
17.701
  0
LINE
  8
0
 10
18.25
 20
17.701
 11
18.1439
 21
17.7683
  0
LINE
  8
0
 10
18.1439
 20
17.7683
 11
18.0439
 21
17.8442
  0
LINE
  8
0
 10
18.0439
 20
17.8442
 11
17.9505
 21
17.9283
  0
LINE
  8
0
 10
17.9505
 20
17.9283
 11
17.8645
 21
18.0199
  0
LINE
  8
0
 10
17.8645
 20
18.0199
 11
17.7865
 21
18.1183
  0
LINE
  8
0
 10
17.7865
 20
18.1183
 11
17.7169
 21
18.2229
  0
LINE
  8
0
 10
17.7169
 20
18.2229
 11
17.6564
 21
18.333
  0
LINE
  8
0
 10
17.6564
 20
18.333
 11
17.6053
 21
18.4478
  0
LINE
  8
0
 10
17.6053
 20
18.4478
 11
17.564
 21
18.5665
  0
LINE
  8
0
 10
17.564
 20
18.5665
 11
17.5328
 21
18.6881
  0
LINE
  8
0
 10
17.5328
 20
18.6881
 11
17.5118
 21
18.812
  0
LINE
  8
0
 10
17.5118
 20
18.812
 11
17.5013
 21
18.9372
  0
LINE
  8
0
 10
17.5013
 20
18.9372
 11
17.5013
 21
19.0628
  0
LINE
  8
0
 10
17.5013
 20
19.0628
 11
17.5118
 21
19.188
  0
LINE
  8
0
 10
17.5118
 20
19.188
 11
17.5328
 21
19.3119
  0
LINE
  8
0
 10
17.5328
 20
19.3119
 11
17.564
 21
19.4335
  0
LINE
  8
0
 10
17.564
 20
19.4335
 11
17.6053
 21
19.5522
  0
LINE
  8
0
 10
17.6053
 20
19.5522
 11
17.6564
 21
19.6669
  0
LINE
  8
0
 10
17.6564
 20
19.6669
 11
17.7169
 21
19.777
  0
LINE
  8
0
 10
17.7169
 20
19.777
 11
17.7865
 21
19.8817
  0
LINE
  8
0
 10
17.7865
 20
19.8817
 11
17.8645
 21
19.9801
  0
LINE
  8
0
 10
17.8645
 20
19.9801
 11
17.9505
 21
20.0717
  0
LINE
  8
0
 10
17.9505
 20
20.0717
 11
18.0439
 21
20.1558
  0
LINE
  8
0
 10
18.0439
 20
20.1558
 11
18.1439
 21
20.2317
  0
LINE
  8
0
 10
18.1439
 20
20.2317
 11
18.25
 21
20.299
  0
LINE
  8
0
 10
18.25
 20
20.299
 11
18.3613
 21
20.3572
  0
LINE
  8
0
 10
18.3613
 20
20.3572
 11
18.4771
 21
20.4059
  0
LINE
  8
0
 10
18.4771
 20
20.4059
 11
18.5966
 21
20.4447
  0
LINE
  8
0
 10
18.5966
 20
20.4447
 11
18.7189
 21
20.4734
  0
LINE
  8
0
 10
18.7189
 20
20.4734
 11
18.8432
 21
20.4918
  0
LINE
  8
0
 10
18.8432
 20
20.4918
 11
18.9686
 21
20.4997
  0
LINE
  8
0
 10
18.9686
 20
20.4997
 11
19.0942
 21
20.497
  0
LINE
  8
0
 10
19.0942
 20
20.497
 11
19.2191
 21
20.4839
  0
LINE
  8
0
 10
19.2191
 20
20.4839
 11
19.3425
 21
20.4604
  0
LINE
  8
0
 10
19.3425
 20
20.4604
 11
19.4635
 21
20.4266
  0
LINE
  8
0
 10
19.4635
 20
20.4266
 11
19.5813
 21
20.3828
  0
LINE
  8
0
 10
19.5813
 20
20.3828
 11
19.6949
 21
20.3293
  0
LINE
  8
0
 10
19.6949
 20
20.3293
 11
19.8037
 21
20.2665
  0
LINE
  8
0
 10
19.8037
 20
20.2665
 11
19.9069
 21
20.1948
  0
LINE
  8
0
 10
19.9069
 20
20.1948
 11
20.0037
 21
20.1147
  0
LINE
  8
0
 10
20.0037
 20
20.1147
 11
20.0934
 21
20.0268
  0
LINE
  8
0
 10
20.0934
 20
20.0268
 11
20.1755
 21
19.9317
  0
LINE
  8
0
 10
20.1755
 20
19.9317
 11
20.2494
 21
19.8301
  0
LINE
  8
0
 10
20.2494
 20
19.8301
 11
20.3145
 21
19.7226
  0
LINE
  8
0
 10
20.3145
 20
19.7226
 11
20.3703
 21
19.6101
  0
LINE
  8
0
 10
20.3703
 20
19.6101
 11
20.4165
 21
19.4933
  0
LINE
  8
0
 10
20.4165
 20
19.4933
 11
20.4529
 21
19.373
  0
LINE
  8
0
 10
20.4529
 20
19.373
 11
20.479
 21
19.2502
  0
LINE
  8
0
 10
20.479
 20
19.2502
 11
20.4947
 21
19.1255
  0
LINE
  8
0
 10
20.4947
 20
19.1255
 11
20.5
 21
19
  0
LINE
  8
0
 10
20.5
 20
19
 11
20.4947
 21
18.8745
  0
LINE
  8
0
 10
20.4947
 20
18.8745
 11
20.479
 21
18.7498
  0
LINE
  8
0
 10
20.479
 20
18.7498
 11
20.4529
 21
18.627
  0
LINE
  8
0
 10
20.4529
 20
18.627
 11
20.4165
 21
18.5067
  0
LINE
  8
0
 10
20.4165
 20
18.5067
 11
20.3703
 21
18.3899
  0
LINE
  8
0
 10
20.3703
 20
18.3899
 11
20.3145
 21
18.2774
  0
LINE
  8
0
 10
20.3145
 20
18.2774
 11
20.2494
 21
18.1699
  0
LINE
  8
0
 10
20.2494
 20
18.1699
 11
20.1755
 21
18.0683
  0
LINE
  8
0
 10
20.1755
 20
18.0683
 11
20.0934
 21
17.9732
  0
LINE
  8
0
 10
20.0934
 20
17.9732
 11
20.0037
 21
17.8853
  0
LINE
  8
0
 10
20.0037
 20
17.8853
 11
19.9069
 21
17.8052
  0
LINE
  8
0
 10
19.9069
 20
17.8052
 11
19.8037
 21
17.7335
  0
LINE
  8
0
 10
19.8037
 20
17.7335
 11
19.6949
 21
17.6707
  0
LINE
  8
0
 10
19.6949
 20
17.6707
 11
19.5813
 21
17.6172
  0
LINE
  8
0
 10
19.5813
 20
17.6172
 11
19.4635
 21
17.5734
  0
LINE
  8
0
 10
19.4635
 20
17.5734
 11
19.3425
 21
17.5396
  0
LINE
  8
0
 10
19.3425
 20
17.5396
 11
19.2191
 21
17.5161
  0
LINE
  8
0
 10
19.2191
 20
17.5161
 11
19.0942
 21
17.5029
  0
LINE
  8
0
 10
19.0942
 20
17.5029
 11
18.9686
 21
17.5003
  0
LINE
  8
0
 10
18.9686
 20
17.5003
 11
18.8432
 21
17.5082
  0
LINE
  8
0
 10
170.843
 20
17.5082
 11
170.719
 21
17.5266
  0
LINE
  8
0
 10
170.719
 20
17.5266
 11
170.597
 21
17.5553
  0
LINE
  8
0
 10
170.597
 20
17.5553
 11
170.477
 21
17.5941
  0
LINE
  8
0
 10
170.477
 20
17.5941
 11
170.361
 21
17.6427
  0
LINE
  8
0
 10
170.361
 20
17.6427
 11
170.25
 21
17.701
  0
LINE
  8
0
 10
170.25
 20
17.701
 11
170.144
 21
17.7683
  0
LINE
  8
0
 10
170.144
 20
17.7683
 11
170.044
 21
17.8442
  0
LINE
  8
0
 10
170.044
 20
17.8442
 11
169.951
 21
17.9283
  0
LINE
  8
0
 10
169.951
 20
17.9283
 11
169.865
 21
18.0199
  0
LINE
  8
0
 10
169.865
 20
18.0199
 11
169.786
 21
18.1183
  0
LINE
  8
0
 10
169.786
 20
18.1183
 11
169.717
 21
18.2229
  0
LINE
  8
0
 10
169.717
 20
18.2229
 11
169.656
 21
18.333
  0
LINE
  8
0
 10
169.656
 20
18.333
 11
169.605
 21
18.4478
  0
LINE
  8
0
 10
169.605
 20
18.4478
 11
169.564
 21
18.5665
  0
LINE
  8
0
 10
169.564
 20
18.5665
 11
169.533
 21
18.6881
  0
LINE
  8
0
 10
169.533
 20
18.6881
 11
169.512
 21
18.812
  0
LINE
  8
0
 10
169.512
 20
18.812
 11
169.501
 21
18.9372
  0
LINE
  8
0
 10
169.501
 20
18.9372
 11
169.501
 21
19.0628
  0
LINE
  8
0
 10
169.501
 20
19.0628
 11
169.512
 21
19.188
  0
LINE
  8
0
 10
169.512
 20
19.188
 11
169.533
 21
19.3119
  0
LINE
  8
0
 10
169.533
 20
19.3119
 11
169.564
 21
19.4335
  0
LINE
  8
0
 10
169.564
 20
19.4335
 11
169.605
 21
19.5522
  0
LINE
  8
0
 10
169.605
 20
19.5522
 11
169.656
 21
19.6669
  0
LINE
  8
0
 10
169.656
 20
19.6669
 11
169.717
 21
19.777
  0
LINE
  8
0
 10
169.717
 20
19.777
 11
169.786
 21
19.8817
  0
LINE
  8
0
 10
169.786
 20
19.8817
 11
169.865
 21
19.9801
  0
LINE
  8
0
 10
169.865
 20
19.9801
 11
169.951
 21
20.0717
  0
LINE
  8
0
 10
169.951
 20
20.0717
 11
170.044
 21
20.1558
  0
LINE
  8
0
 10
170.044
 20
20.1558
 11
170.144
 21
20.2317
  0
LINE
  8
0
 10
170.144
 20
20.2317
 11
170.25
 21
20.299
  0
LINE
  8
0
 10
170.25
 20
20.299
 11
170.361
 21
20.3572
  0
LINE
  8
0
 10
170.361
 20
20.3572
 11
170.477
 21
20.4059
  0
LINE
  8
0
 10
170.477
 20
20.4059
 11
170.597
 21
20.4447
  0
LINE
  8
0
 10
170.597
 20
20.4447
 11
170.719
 21
20.4734
  0
LINE
  8
0
 10
170.719
 20
20.4734
 11
170.843
 21
20.4918
  0
LINE
  8
0
 10
170.843
 20
20.4918
 11
170.969
 21
20.4997
  0
LINE
  8
0
 10
170.969
 20
20.4997
 11
171.094
 21
20.497
  0
LINE
  8
0
 10
171.094
 20
20.497
 11
171.219
 21
20.4839
  0
LINE
  8
0
 10
171.219
 20
20.4839
 11
171.343
 21
20.4604
  0
LINE
  8
0
 10
171.343
 20
20.4604
 11
171.464
 21
20.4266
  0
LINE
  8
0
 10
171.464
 20
20.4266
 11
171.581
 21
20.3828
  0
LINE
  8
0
 10
171.581
 20
20.3828
 11
171.695
 21
20.3293
  0
LINE
  8
0
 10
171.695
 20
20.3293
 11
171.804
 21
20.2665
  0
LINE
  8
0
 10
171.804
 20
20.2665
 11
171.907
 21
20.1948
  0
LINE
  8
0
 10
171.907
 20
20.1948
 11
172.004
 21
20.1147
  0
LINE
  8
0
 10
172.004
 20
20.1147
 11
172.093
 21
20.0268
  0
LINE
  8
0
 10
172.093
 20
20.0268
 11
172.176
 21
19.9317
  0
LINE
  8
0
 10
172.176
 20
19.9317
 11
172.249
 21
19.8301
  0
LINE
  8
0
 10
172.249
 20
19.8301
 11
172.314
 21
19.7226
  0
LINE
  8
0
 10
172.314
 20
19.7226
 11
172.37
 21
19.6101
  0
LINE
  8
0
 10
172.37
 20
19.6101
 11
172.417
 21
19.4933
  0
LINE
  8
0
 10
172.417
 20
19.4933
 11
172.453
 21
19.373
  0
LINE
  8
0
 10
172.453
 20
19.373
 11
172.479
 21
19.2502
  0
LINE
  8
0
 10
172.479
 20
19.2502
 11
172.495
 21
19.1255
  0
LINE
  8
0
 10
172.495
 20
19.1255
 11
172.5
 21
19
  0
LINE
  8
0
 10
172.5
 20
19
 11
172.495
 21
18.8745
  0
LINE
  8
0
 10
172.495
 20
18.8745
 11
172.479
 21
18.7498
  0
LINE
  8
0
 10
172.479
 20
18.7498
 11
172.453
 21
18.627
  0
LINE
  8
0
 10
172.453
 20
18.627
 11
172.417
 21
18.5067
  0
LINE
  8
0
 10
172.417
 20
18.5067
 11
172.37
 21
18.3899
  0
LINE
  8
0
 10
172.37
 20
18.3899
 11
172.314
 21
18.2774
  0
LINE
  8
0
 10
172.314
 20
18.2774
 11
172.249
 21
18.1699
  0
LINE
  8
0
 10
172.249
 20
18.1699
 11
172.176
 21
18.0683
  0
LINE
  8
0
 10
172.176
 20
18.0683
 11
172.093
 21
17.9732
  0
LINE
  8
0
 10
172.093
 20
17.9732
 11
172.004
 21
17.8853
  0
LINE
  8
0
 10
172.004
 20
17.8853
 11
171.907
 21
17.8052
  0
LINE
  8
0
 10
171.907
 20
17.8052
 11
171.804
 21
17.7335
  0
LINE
  8
0
 10
171.804
 20
17.7335
 11
171.695
 21
17.6707
  0
LINE
  8
0
 10
171.695
 20
17.6707
 11
171.581
 21
17.6172
  0
LINE
  8
0
 10
171.581
 20
17.6172
 11
171.464
 21
17.5734
  0
LINE
  8
0
 10
171.464
 20
17.5734
 11
171.343
 21
17.5396
  0
LINE
  8
0
 10
171.343
 20
17.5396
 11
171.219
 21
17.5161
  0
LINE
  8
0
 10
171.219
 20
17.5161
 11
171.094
 21
17.5029
  0
LINE
  8
0
 10
171.094
 20
17.5029
 11
170.969
 21
17.5003
  0
LINE
  8
0
 10
170.969
 20
17.5003
 11
170.843
 21
17.5082
  0
LINE
  8
0
 10
-10
 20
-10
 11
-20
 21
-10
  0
LINE
  8
0
 10
-20
 20
-10
 11
-20
 21
-20
  0
LINE
  8
0
 10
-20
 20
-20
 11
-10
 21
-20
  0
LINE
  8
0
 10
-10
 20
-20
 11
-10
 21
-10
  0
LINE
  8
0
 10
191.862
 20
-103.265
 11
191.987
 21
-103.252
  0
LINE
  8
0
 10
191.987
 20
-103.252
 11
192.11
 21
-103.228
  0
LINE
  8
0
 10
192.11
 20
-103.228
 11
192.231
 21
-103.194
  0
LINE
  8
0
 10
192.231
 20
-103.194
 11
192.349
 21
-103.151
  0
LINE
  8
0
 10
192.349
 20
-103.151
 11
192.463
 21
-103.097
  0
LINE
  8
0
 10
192.463
 20
-103.097
 11
192.572
 21
-103.034
  0
LINE
  8
0
 10
192.572
 20
-103.034
 11
192.675
 21
-102.963
  0
LINE
  8
0
 10
192.675
 20
-102.963
 11
192.771
 21
-102.882
  0
LINE
  8
0
 10
192.771
 20
-102.882
 11
192.861
 21
-102.795
  0
LINE
  8
0
 10
192.861
 20
-102.795
 11
192.943
 21
-102.699
  0
LINE
  8
0
 10
192.943
 20
-102.699
 11
193.017
 21
-102.598
  0
LINE
  8
0
 10
193.017
 20
-102.598
 11
193.082
 21
-102.49
  0
LINE
  8
0
 10
193.082
 20
-102.49
 11
193.138
 21
-102.378
  0
LINE
  8
0
 10
193.138
 20
-102.378
 11
193.184
 21
-102.261
  0
LINE
  8
0
 10
193.184
 20
-102.261
 11
193.221
 21
-102.141
  0
LINE
  8
0
 10
193.221
 20
-102.141
 11
193.247
 21
-102.018
  0
LINE
  8
0
 10
193.247
 20
-102.018
 11
193.262
 21
-101.893
  0
LINE
  8
0
 10
193.262
 20
-101.893
 11
193.268
 21
-101.768
  0
LINE
  8
0
 10
193.268
 20
-101.768
 11
193.268
 21
-22.2322
  0
LINE
  8
0
 10
193.268
 20
-22.2322
 11
193.262
 21
-22.1067
  0
LINE
  8
0
 10
193.262
 20
-22.1067
 11
193.247
 21
-21.9821
  0
LINE
  8
0
 10
193.247
 20
-21.9821
 11
193.221
 21
-21.8592
  0
LINE
  8
0
 10
193.221
 20
-21.8592
 11
193.184
 21
-21.7389
  0
LINE
  8
0
 10
193.184
 20
-21.7389
 11
193.138
 21
-21.6221
  0
LINE
  8
0
 10
193.138
 20
-21.6221
 11
193.082
 21
-21.5096
  0
LINE
  8
0
 10
193.082
 20
-21.5096
 11
193.017
 21
-21.4022
  0
LINE
  8
0
 10
193.017
 20
-21.4022
 11
192.943
 21
-21.3005
  0
LINE
  8
0
 10
192.943
 20
-21.3005
 11
192.861
 21
-21.2054
  0
LINE
  8
0
 10
192.861
 20
-21.2054
 11
192.771
 21
-21.1175
  0
LINE
  8
0
 10
192.771
 20
-21.1175
 11
192.675
 21
-21.0374
  0
LINE
  8
0
 10
192.675
 20
-21.0374
 11
192.572
 21
-20.9657
  0
LINE
  8
0
 10
192.572
 20
-20.9657
 11
192.463
 21
-20.9029
  0
LINE
  8
0
 10
192.463
 20
-20.9029
 11
192.349
 21
-20.8494
  0
LINE
  8
0
 10
192.349
 20
-20.8494
 11
192.231
 21
-20.8056
  0
LINE
  8
0
 10
192.231
 20
-20.8056
 11
192.11
 21
-20.7719
  0
LINE
  8
0
 10
192.11
 20
-20.7719
 11
191.987
 21
-20.7483
  0
LINE
  8
0
 10
191.987
 20
-20.7483
 11
191.862
 21
-20.7352
  0
LINE
  8
0
 10
191.862
 20
-20.7352
 11
191.736
 21
-20.7326
  0
LINE
  8
0
 10
191.736
 20
-20.7326
 11
-1.79918
 21
-20.7326
  0
LINE
  8
0
 10
-1.79918
 20
-20.7326
 11
-1.92455
 21
-20.7405
  0
LINE
  8
0
 10
-1.92455
 20
-20.7405
 11
-2.04883
 21
-20.7588
  0
LINE
  8
0
 10
-2.04883
 20
-20.7588
 11
-2.17114
 21
-20.7875
  0
LINE
  8
0
 10
-2.17114
 20
-20.7875
 11
-2.29062
 21
-20.8263
  0
LINE
  8
0
 10
-2.29062
 20
-20.8263
 11
-2.40643
 21
-20.875
  0
LINE
  8
0
 10
-2.40643
 20
-20.875
 11
-2.51776
 21
-20.9332
  0
LINE
  8
0
 10
-2.51776
 20
-20.9332
 11
-2.62383
 21
-21.0005
  0
LINE
  8
0
 10
-2.62383
 20
-21.0005
 11
-2.72389
 21
-21.0765
  0
LINE
  8
0
 10
-2.72389
 20
-21.0765
 11
-2.81726
 21
-21.1605
  0
LINE
  8
0
 10
-2.81726
 20
-21.1605
 11
-2.90326
 21
-21.2521
  0
LINE
  8
0
 10
-2.90326
 20
-21.2521
 11
-2.98128
 21
-21.3506
  0
LINE
  8
0
 10
-2.98128
 20
-21.3506
 11
-3.05081
 21
-21.4552
  0
LINE
  8
0
 10
-3.05081
 20
-21.4552
 11
-3.11133
 21
-21.5653
  0
LINE
  8
0
 10
-3.11133
 20
-21.5653
 11
-3.16243
 21
-21.6801
  0
LINE
  8
0
 10
-3.16243
 20
-21.6801
 11
-3.20374
 21
-21.7987
  0
LINE
  8
0
 10
-3.20374
 20
-21.7987
 11
-3.23499
 21
-21.9204
  0
LINE
  8
0
 10
-3.23499
 20
-21.9204
 11
-3.25594
 21
-22.0442
  0
LINE
  8
0
 10
-3.25594
 20
-22.0442
 11
-3.26645
 21
-22.1694
  0
LINE
  8
0
 10
-3.26645
 20
-22.1694
 11
-3.26645
 21
-101.831
  0
LINE
  8
0
 10
-3.26645
 20
-101.831
 11
-3.25594
 21
-101.956
  0
LINE
  8
0
 10
-3.25594
 20
-101.956
 11
-3.23499
 21
-102.08
  0
LINE
  8
0
 10
-3.23499
 20
-102.08
 11
-3.20374
 21
-102.201
  0
LINE
  8
0
 10
-3.20374
 20
-102.201
 11
-3.16243
 21
-102.32
  0
LINE
  8
0
 10
-3.16243
 20
-102.32
 11
-3.11133
 21
-102.435
  0
LINE
  8
0
 10
-3.11133
 20
-102.435
 11
-3.05081
 21
-102.545
  0
LINE
  8
0
 10
-3.05081
 20
-102.545
 11
-2.98128
 21
-102.649
  0
LINE
  8
0
 10
-2.98128
 20
-102.649
 11
-2.90326
 21
-102.748
  0
LINE
  8
0
 10
-2.90326
 20
-102.748
 11
-2.81726
 21
-102.839
  0
LINE
  8
0
 10
-2.81726
 20
-102.839
 11
-2.72389
 21
-102.924
  0
LINE
  8
0
 10
-2.72389
 20
-102.924
 11
-2.62383
 21
-102.999
  0
LINE
  8
0
 10
-2.62383
 20
-102.999
 11
-2.51776
 21
-103.067
  0
LINE
  8
0
 10
-2.51776
 20
-103.067
 11
-2.40643
 21
-103.125
  0
LINE
  8
0
 10
-2.40643
 20
-103.125
 11
-2.29062
 21
-103.174
  0
LINE
  8
0
 10
-2.29062
 20
-103.174
 11
-2.17114
 21
-103.213
  0
LINE
  8
0
 10
-2.17114
 20
-103.213
 11
-2.04883
 21
-103.241
  0
LINE
  8
0
 10
-2.04883
 20
-103.241
 11
-1.92455
 21
-103.26
  0
LINE
  8
0
 10
-1.92455
 20
-103.26
 11
-1.79918
 21
-103.267
  0
LINE
  8
0
 10
-1.79918
 20
-103.267
 11
191.736
 21
-103.267
  0
LINE
  8
0
 10
191.736
 20
-103.267
 11
191.862
 21
-103.265
  0
LINE
  8
0
 10
-2.99998
 20
-44.7
 11
-3
 21
-24
  0
LINE
  8
0
 10
-3
 20
-24
 11
7.2
 21
-24
  0
LINE
  8
0
 10
7.2
 20
-24
 11
7.2
 21
-44.7
  0
LINE
  8
0
 10
7.2
 20
-44.7
 11
-2.99998
 21
-44.7
  0
LINE
  8
0
 10
170.843
 20
-44.4918
 11
170.719
 21
-44.4734
  0
LINE
  8
0
 10
170.719
 20
-44.4734
 11
170.597
 21
-44.4447
  0
LINE
  8
0
 10
170.597
 20
-44.4447
 11
170.477
 21
-44.4059
  0
LINE
  8
0
 10
170.477
 20
-44.4059
 11
170.361
 21
-44.3573
  0
LINE
  8
0
 10
170.361
 20
-44.3573
 11
170.25
 21
-44.299
  0
LINE
  8
0
 10
170.25
 20
-44.299
 11
170.144
 21
-44.2317
  0
LINE
  8
0
 10
170.144
 20
-44.2317
 11
170.044
 21
-44.1558
  0
LINE
  8
0
 10
170.044
 20
-44.1558
 11
169.951
 21
-44.0717
  0
LINE
  8
0
 10
169.951
 20
-44.0717
 11
169.865
 21
-43.9801
  0
LINE
  8
0
 10
169.865
 20
-43.9801
 11
169.786
 21
-43.8817
  0
LINE
  8
0
 10
169.786
 20
-43.8817
 11
169.717
 21
-43.7771
  0
LINE
  8
0
 10
169.717
 20
-43.7771
 11
169.656
 21
-43.667
  0
LINE
  8
0
 10
169.656
 20
-43.667
 11
169.605
 21
-43.5522
  0
LINE
  8
0
 10
169.605
 20
-43.5522
 11
169.564
 21
-43.4335
  0
LINE
  8
0
 10
169.564
 20
-43.4335
 11
169.533
 21
-43.3119
  0
LINE
  8
0
 10
169.533
 20
-43.3119
 11
169.512
 21
-43.188
  0
LINE
  8
0
 10
169.512
 20
-43.188
 11
169.501
 21
-43.0628
  0
LINE
  8
0
 10
169.501
 20
-43.0628
 11
169.501
 21
-42.9372
  0
LINE
  8
0
 10
169.501
 20
-42.9372
 11
169.512
 21
-42.812
  0
LINE
  8
0
 10
169.512
 20
-42.812
 11
169.533
 21
-42.6881
  0
LINE
  8
0
 10
169.533
 20
-42.6881
 11
169.564
 21
-42.5665
  0
LINE
  8
0
 10
169.564
 20
-42.5665
 11
169.605
 21
-42.4478
  0
LINE
  8
0
 10
169.605
 20
-42.4478
 11
169.656
 21
-42.3331
  0
LINE
  8
0
 10
169.656
 20
-42.3331
 11
169.717
 21
-42.223
  0
LINE
  8
0
 10
169.717
 20
-42.223
 11
169.786
 21
-42.1183
  0
LINE
  8
0
 10
169.786
 20
-42.1183
 11
169.865
 21
-42.0199
  0
LINE
  8
0
 10
169.865
 20
-42.0199
 11
169.951
 21
-41.9283
  0
LINE
  8
0
 10
169.951
 20
-41.9283
 11
170.044
 21
-41.8442
  0
LINE
  8
0
 10
170.044
 20
-41.8442
 11
170.144
 21
-41.7683
  0
LINE
  8
0
 10
170.144
 20
-41.7683
 11
170.25
 21
-41.701
  0
LINE
  8
0
 10
170.25
 20
-41.701
 11
170.361
 21
-41.6428
  0
LINE
  8
0
 10
170.361
 20
-41.6428
 11
170.477
 21
-41.5941
  0
LINE
  8
0
 10
170.477
 20
-41.5941
 11
170.597
 21
-41.5553
  0
LINE
  8
0
 10
170.597
 20
-41.5553
 11
170.719
 21
-41.5266
  0
LINE
  8
0
 10
170.719
 20
-41.5266
 11
170.843
 21
-41.5082
  0
LINE
  8
0
 10
170.843
 20
-41.5082
 11
170.969
 21
-41.5003
  0
LINE
  8
0
 10
170.969
 20
-41.5003
 11
171.094
 21
-41.503
  0
LINE
  8
0
 10
171.094
 20
-41.503
 11
171.219
 21
-41.5161
  0
LINE
  8
0
 10
171.219
 20
-41.5161
 11
171.343
 21
-41.5396
  0
LINE
  8
0
 10
171.343
 20
-41.5396
 11
171.464
 21
-41.5734
  0
LINE
  8
0
 10
171.464
 20
-41.5734
 11
171.581
 21
-41.6172
  0
LINE
  8
0
 10
171.581
 20
-41.6172
 11
171.695
 21
-41.6707
  0
LINE
  8
0
 10
171.695
 20
-41.6707
 11
171.804
 21
-41.7335
  0
LINE
  8
0
 10
171.804
 20
-41.7335
 11
171.907
 21
-41.8052
  0
LINE
  8
0
 10
171.907
 20
-41.8052
 11
172.004
 21
-41.8853
  0
LINE
  8
0
 10
172.004
 20
-41.8853
 11
172.093
 21
-41.9732
  0
LINE
  8
0
 10
172.093
 20
-41.9732
 11
172.176
 21
-42.0683
  0
LINE
  8
0
 10
172.176
 20
-42.0683
 11
172.249
 21
-42.1699
  0
LINE
  8
0
 10
172.249
 20
-42.1699
 11
172.314
 21
-42.2774
  0
LINE
  8
0
 10
172.314
 20
-42.2774
 11
172.37
 21
-42.3899
  0
LINE
  8
0
 10
172.37
 20
-42.3899
 11
172.417
 21
-42.5067
  0
LINE
  8
0
 10
172.417
 20
-42.5067
 11
172.453
 21
-42.627
  0
LINE
  8
0
 10
172.453
 20
-42.627
 11
172.479
 21
-42.7498
  0
LINE
  8
0
 10
172.479
 20
-42.7498
 11
172.495
 21
-42.8745
  0
LINE
  8
0
 10
172.495
 20
-42.8745
 11
172.5
 21
-43
  0
LINE
  8
0
 10
172.5
 20
-43
 11
172.495
 21
-43.1255
  0
LINE
  8
0
 10
172.495
 20
-43.1255
 11
172.479
 21
-43.2502
  0
LINE
  8
0
 10
172.479
 20
-43.2502
 11
172.453
 21
-43.373
  0
LINE
  8
0
 10
172.453
 20
-43.373
 11
172.417
 21
-43.4933
  0
LINE
  8
0
 10
172.417
 20
-43.4933
 11
172.37
 21
-43.6101
  0
LINE
  8
0
 10
172.37
 20
-43.6101
 11
172.314
 21
-43.7226
  0
LINE
  8
0
 10
172.314
 20
-43.7226
 11
172.249
 21
-43.8301
  0
LINE
  8
0
 10
172.249
 20
-43.8301
 11
172.176
 21
-43.9317
  0
LINE
  8
0
 10
172.176
 20
-43.9317
 11
172.093
 21
-44.0268
  0
LINE
  8
0
 10
172.093
 20
-44.0268
 11
172.004
 21
-44.1147
  0
LINE
  8
0
 10
172.004
 20
-44.1147
 11
171.907
 21
-44.1948
  0
LINE
  8
0
 10
171.907
 20
-44.1948
 11
171.804
 21
-44.2665
  0
LINE
  8
0
 10
171.804
 20
-44.2665
 11
171.695
 21
-44.3293
  0
LINE
  8
0
 10
171.695
 20
-44.3293
 11
171.581
 21
-44.3828
  0
LINE
  8
0
 10
171.581
 20
-44.3828
 11
171.464
 21
-44.4266
  0
LINE
  8
0
 10
171.464
 20
-44.4266
 11
171.343
 21
-44.4604
  0
LINE
  8
0
 10
171.343
 20
-44.4604
 11
171.219
 21
-44.4839
  0
LINE
  8
0
 10
171.219
 20
-44.4839
 11
171.094
 21
-44.4971
  0
LINE
  8
0
 10
171.094
 20
-44.4971
 11
170.969
 21
-44.4997
  0
LINE
  8
0
 10
170.969
 20
-44.4997
 11
170.843
 21
-44.4918
  0
LINE
  8
0
 10
18.8432
 20
-44.4918
 11
18.7189
 21
-44.4734
  0
LINE
  8
0
 10
18.7189
 20
-44.4734
 11
18.5966
 21
-44.4447
  0
LINE
  8
0
 10
18.5966
 20
-44.4447
 11
18.4771
 21
-44.4059
  0
LINE
  8
0
 10
18.4771
 20
-44.4059
 11
18.3613
 21
-44.3573
  0
LINE
  8
0
 10
18.3613
 20
-44.3573
 11
18.25
 21
-44.299
  0
LINE
  8
0
 10
18.25
 20
-44.299
 11
18.1439
 21
-44.2317
  0
LINE
  8
0
 10
18.1439
 20
-44.2317
 11
18.0439
 21
-44.1558
  0
LINE
  8
0
 10
18.0439
 20
-44.1558
 11
17.9505
 21
-44.0717
  0
LINE
  8
0
 10
17.9505
 20
-44.0717
 11
17.8645
 21
-43.9801
  0
LINE
  8
0
 10
17.8645
 20
-43.9801
 11
17.7865
 21
-43.8817
  0
LINE
  8
0
 10
17.7865
 20
-43.8817
 11
17.7169
 21
-43.7771
  0
LINE
  8
0
 10
17.7169
 20
-43.7771
 11
17.6564
 21
-43.667
  0
LINE
  8
0
 10
17.6564
 20
-43.667
 11
17.6053
 21
-43.5522
  0
LINE
  8
0
 10
17.6053
 20
-43.5522
 11
17.564
 21
-43.4335
  0
LINE
  8
0
 10
17.564
 20
-43.4335
 11
17.5328
 21
-43.3119
  0
LINE
  8
0
 10
17.5328
 20
-43.3119
 11
17.5118
 21
-43.188
  0
LINE
  8
0
 10
17.5118
 20
-43.188
 11
17.5013
 21
-43.0628
  0
LINE
  8
0
 10
17.5013
 20
-43.0628
 11
17.5013
 21
-42.9372
  0
LINE
  8
0
 10
17.5013
 20
-42.9372
 11
17.5118
 21
-42.812
  0
LINE
  8
0
 10
17.5118
 20
-42.812
 11
17.5328
 21
-42.6881
  0
LINE
  8
0
 10
17.5328
 20
-42.6881
 11
17.564
 21
-42.5665
  0
LINE
  8
0
 10
17.564
 20
-42.5665
 11
17.6053
 21
-42.4478
  0
LINE
  8
0
 10
17.6053
 20
-42.4478
 11
17.6564
 21
-42.3331
  0
LINE
  8
0
 10
17.6564
 20
-42.3331
 11
17.7169
 21
-42.223
  0
LINE
  8
0
 10
17.7169
 20
-42.223
 11
17.7865
 21
-42.1183
  0
LINE
  8
0
 10
17.7865
 20
-42.1183
 11
17.8645
 21
-42.0199
  0
LINE
  8
0
 10
17.8645
 20
-42.0199
 11
17.9505
 21
-41.9283
  0
LINE
  8
0
 10
17.9505
 20
-41.9283
 11
18.0439
 21
-41.8442
  0
LINE
  8
0
 10
18.0439
 20
-41.8442
 11
18.1439
 21
-41.7683
  0
LINE
  8
0
 10
18.1439
 20
-41.7683
 11
18.25
 21
-41.701
  0
LINE
  8
0
 10
18.25
 20
-41.701
 11
18.3613
 21
-41.6428
  0
LINE
  8
0
 10
18.3613
 20
-41.6428
 11
18.4771
 21
-41.5941
  0
LINE
  8
0
 10
18.4771
 20
-41.5941
 11
18.5966
 21
-41.5553
  0
LINE
  8
0
 10
18.5966
 20
-41.5553
 11
18.7189
 21
-41.5266
  0
LINE
  8
0
 10
18.7189
 20
-41.5266
 11
18.8432
 21
-41.5082
  0
LINE
  8
0
 10
18.8432
 20
-41.5082
 11
18.9686
 21
-41.5003
  0
LINE
  8
0
 10
18.9686
 20
-41.5003
 11
19.0942
 21
-41.503
  0
LINE
  8
0
 10
19.0942
 20
-41.503
 11
19.2191
 21
-41.5161
  0
LINE
  8
0
 10
19.2191
 20
-41.5161
 11
19.3425
 21
-41.5396
  0
LINE
  8
0
 10
19.3425
 20
-41.5396
 11
19.4635
 21
-41.5734
  0
LINE
  8
0
 10
19.4635
 20
-41.5734
 11
19.5813
 21
-41.6172
  0
LINE
  8
0
 10
19.5813
 20
-41.6172
 11
19.6949
 21
-41.6707
  0
LINE
  8
0
 10
19.6949
 20
-41.6707
 11
19.8037
 21
-41.7335
  0
LINE
  8
0
 10
19.8037
 20
-41.7335
 11
19.9069
 21
-41.8052
  0
LINE
  8
0
 10
19.9069
 20
-41.8052
 11
20.0037
 21
-41.8853
  0
LINE
  8
0
 10
20.0037
 20
-41.8853
 11
20.0934
 21
-41.9732
  0
LINE
  8
0
 10
20.0934
 20
-41.9732
 11
20.1755
 21
-42.0683
  0
LINE
  8
0
 10
20.1755
 20
-42.0683
 11
20.2494
 21
-42.1699
  0
LINE
  8
0
 10
20.2494
 20
-42.1699
 11
20.3145
 21
-42.2774
  0
LINE
  8
0
 10
20.3145
 20
-42.2774
 11
20.3703
 21
-42.3899
  0
LINE
  8
0
 10
20.3703
 20
-42.3899
 11
20.4165
 21
-42.5067
  0
LINE
  8
0
 10
20.4165
 20
-42.5067
 11
20.4529
 21
-42.627
  0
LINE
  8
0
 10
20.4529
 20
-42.627
 11
20.479
 21
-42.7498
  0
LINE
  8
0
 10
20.479
 20
-42.7498
 11
20.4947
 21
-42.8745
  0
LINE
  8
0
 10
20.4947
 20
-42.8745
 11
20.5
 21
-43
  0
LINE
  8
0
 10
20.5
 20
-43
 11
20.4947
 21
-43.1255
  0
LINE
  8
0
 10
20.4947
 20
-43.1255
 11
20.479
 21
-43.2502
  0
LINE
  8
0
 10
20.479
 20
-43.2502
 11
20.4529
 21
-43.373
  0
LINE
  8
0
 10
20.4529
 20
-43.373
 11
20.4165
 21
-43.4933
  0
LINE
  8
0
 10
20.4165
 20
-43.4933
 11
20.3703
 21
-43.6101
  0
LINE
  8
0
 10
20.3703
 20
-43.6101
 11
20.3145
 21
-43.7226
  0
LINE
  8
0
 10
20.3145
 20
-43.7226
 11
20.2494
 21
-43.8301
  0
LINE
  8
0
 10
20.2494
 20
-43.8301
 11
20.1755
 21
-43.9317
  0
LINE
  8
0
 10
20.1755
 20
-43.9317
 11
20.0934
 21
-44.0268
  0
LINE
  8
0
 10
20.0934
 20
-44.0268
 11
20.0037
 21
-44.1147
  0
LINE
  8
0
 10
20.0037
 20
-44.1147
 11
19.9069
 21
-44.1948
  0
LINE
  8
0
 10
19.9069
 20
-44.1948
 11
19.8037
 21
-44.2665
  0
LINE
  8
0
 10
19.8037
 20
-44.2665
 11
19.6949
 21
-44.3293
  0
LINE
  8
0
 10
19.6949
 20
-44.3293
 11
19.5813
 21
-44.3828
  0
LINE
  8
0
 10
19.5813
 20
-44.3828
 11
19.4635
 21
-44.4266
  0
LINE
  8
0
 10
19.4635
 20
-44.4266
 11
19.3425
 21
-44.4604
  0
LINE
  8
0
 10
19.3425
 20
-44.4604
 11
19.2191
 21
-44.4839
  0
LINE
  8
0
 10
19.2191
 20
-44.4839
 11
19.0942
 21
-44.4971
  0
LINE
  8
0
 10
19.0942
 20
-44.4971
 11
18.9686
 21
-44.4997
  0
LINE
  8
0
 10
18.9686
 20
-44.4997
 11
18.8432
 21
-44.4918
  0
LINE
  8
0
 10
94.8432
 20
-63.4918
 11
94.7189
 21
-63.4734
  0
LINE
  8
0
 10
94.7189
 20
-63.4734
 11
94.5966
 21
-63.4447
  0
LINE
  8
0
 10
94.5966
 20
-63.4447
 11
94.4771
 21
-63.4059
  0
LINE
  8
0
 10
94.4771
 20
-63.4059
 11
94.3613
 21
-63.3573
  0
LINE
  8
0
 10
94.3613
 20
-63.3573
 11
94.25
 21
-63.299
  0
LINE
  8
0
 10
94.25
 20
-63.299
 11
94.1439
 21
-63.2317
  0
LINE
  8
0
 10
94.1439
 20
-63.2317
 11
94.0439
 21
-63.1558
  0
LINE
  8
0
 10
94.0439
 20
-63.1558
 11
93.9505
 21
-63.0717
  0
LINE
  8
0
 10
93.9505
 20
-63.0717
 11
93.8645
 21
-62.9801
  0
LINE
  8
0
 10
93.8645
 20
-62.9801
 11
93.7865
 21
-62.8817
  0
LINE
  8
0
 10
93.7865
 20
-62.8817
 11
93.7169
 21
-62.7771
  0
LINE
  8
0
 10
93.7169
 20
-62.7771
 11
93.6564
 21
-62.667
  0
LINE
  8
0
 10
93.6564
 20
-62.667
 11
93.6053
 21
-62.5522
  0
LINE
  8
0
 10
93.6053
 20
-62.5522
 11
93.564
 21
-62.4335
  0
LINE
  8
0
 10
93.564
 20
-62.4335
 11
93.5328
 21
-62.3119
  0
LINE
  8
0
 10
93.5328
 20
-62.3119
 11
93.5118
 21
-62.188
  0
LINE
  8
0
 10
93.5118
 20
-62.188
 11
93.5013
 21
-62.0628
  0
LINE
  8
0
 10
93.5013
 20
-62.0628
 11
93.5013
 21
-61.9372
  0
LINE
  8
0
 10
93.5013
 20
-61.9372
 11
93.5118
 21
-61.812
  0
LINE
  8
0
 10
93.5118
 20
-61.812
 11
93.5328
 21
-61.6881
  0
LINE
  8
0
 10
93.5328
 20
-61.6881
 11
93.564
 21
-61.5665
  0
LINE
  8
0
 10
93.564
 20
-61.5665
 11
93.6053
 21
-61.4478
  0
LINE
  8
0
 10
93.6053
 20
-61.4478
 11
93.6564
 21
-61.3331
  0
LINE
  8
0
 10
93.6564
 20
-61.3331
 11
93.7169
 21
-61.223
  0
LINE
  8
0
 10
93.7169
 20
-61.223
 11
93.7865
 21
-61.1183
  0
LINE
  8
0
 10
93.7865
 20
-61.1183
 11
93.8645
 21
-61.0199
  0
LINE
  8
0
 10
93.8645
 20
-61.0199
 11
93.9505
 21
-60.9283
  0
LINE
  8
0
 10
93.9505
 20
-60.9283
 11
94.0439
 21
-60.8442
  0
LINE
  8
0
 10
94.0439
 20
-60.8442
 11
94.1439
 21
-60.7683
  0
LINE
  8
0
 10
94.1439
 20
-60.7683
 11
94.25
 21
-60.701
  0
LINE
  8
0
 10
94.25
 20
-60.701
 11
94.3613
 21
-60.6428
  0
LINE
  8
0
 10
94.3613
 20
-60.6428
 11
94.4771
 21
-60.5941
  0
LINE
  8
0
 10
94.4771
 20
-60.5941
 11
94.5966
 21
-60.5553
  0
LINE
  8
0
 10
94.5966
 20
-60.5553
 11
94.7189
 21
-60.5266
  0
LINE
  8
0
 10
94.7189
 20
-60.5266
 11
94.8432
 21
-60.5082
  0
LINE
  8
0
 10
94.8432
 20
-60.5082
 11
94.9686
 21
-60.5003
  0
LINE
  8
0
 10
94.9686
 20
-60.5003
 11
95.0942
 21
-60.503
  0
LINE
  8
0
 10
95.0942
 20
-60.503
 11
95.2191
 21
-60.5161
  0
LINE
  8
0
 10
95.2191
 20
-60.5161
 11
95.3425
 21
-60.5396
  0
LINE
  8
0
 10
95.3425
 20
-60.5396
 11
95.4635
 21
-60.5734
  0
LINE
  8
0
 10
95.4635
 20
-60.5734
 11
95.5813
 21
-60.6172
  0
LINE
  8
0
 10
95.5813
 20
-60.6172
 11
95.6949
 21
-60.6707
  0
LINE
  8
0
 10
95.6949
 20
-60.6707
 11
95.8037
 21
-60.7335
  0
LINE
  8
0
 10
95.8037
 20
-60.7335
 11
95.9069
 21
-60.8052
  0
LINE
  8
0
 10
95.9069
 20
-60.8052
 11
96.0037
 21
-60.8853
  0
LINE
  8
0
 10
96.0037
 20
-60.8853
 11
96.0934
 21
-60.9732
  0
LINE
  8
0
 10
96.0934
 20
-60.9732
 11
96.1755
 21
-61.0683
  0
LINE
  8
0
 10
96.1755
 20
-61.0683
 11
96.2494
 21
-61.1699
  0
LINE
  8
0
 10
96.2494
 20
-61.1699
 11
96.3145
 21
-61.2774
  0
LINE
  8
0
 10
96.3145
 20
-61.2774
 11
96.3703
 21
-61.3899
  0
LINE
  8
0
 10
96.3703
 20
-61.3899
 11
96.4165
 21
-61.5067
  0
LINE
  8
0
 10
96.4165
 20
-61.5067
 11
96.4529
 21
-61.627
  0
LINE
  8
0
 10
96.4529
 20
-61.627
 11
96.479
 21
-61.7498
  0
LINE
  8
0
 10
96.479
 20
-61.7498
 11
96.4947
 21
-61.8745
  0
LINE
  8
0
 10
96.4947
 20
-61.8745
 11
96.5
 21
-62
  0
LINE
  8
0
 10
96.5
 20
-62
 11
96.4947
 21
-62.1255
  0
LINE
  8
0
 10
96.4947
 20
-62.1255
 11
96.479
 21
-62.2502
  0
LINE
  8
0
 10
96.479
 20
-62.2502
 11
96.4529
 21
-62.373
  0
LINE
  8
0
 10
96.4529
 20
-62.373
 11
96.4165
 21
-62.4933
  0
LINE
  8
0
 10
96.4165
 20
-62.4933
 11
96.3703
 21
-62.6101
  0
LINE
  8
0
 10
96.3703
 20
-62.6101
 11
96.3145
 21
-62.7226
  0
LINE
  8
0
 10
96.3145
 20
-62.7226
 11
96.2494
 21
-62.8301
  0
LINE
  8
0
 10
96.2494
 20
-62.8301
 11
96.1755
 21
-62.9317
  0
LINE
  8
0
 10
96.1755
 20
-62.9317
 11
96.0934
 21
-63.0268
  0
LINE
  8
0
 10
96.0934
 20
-63.0268
 11
96.0037
 21
-63.1147
  0
LINE
  8
0
 10
96.0037
 20
-63.1147
 11
95.9069
 21
-63.1948
  0
LINE
  8
0
 10
95.9069
 20
-63.1948
 11
95.8037
 21
-63.2665
  0
LINE
  8
0
 10
95.8037
 20
-63.2665
 11
95.6949
 21
-63.3293
  0
LINE
  8
0
 10
95.6949
 20
-63.3293
 11
95.5813
 21
-63.3828
  0
LINE
  8
0
 10
95.5813
 20
-63.3828
 11
95.4635
 21
-63.4266
  0
LINE
  8
0
 10
95.4635
 20
-63.4266
 11
95.3425
 21
-63.4604
  0
LINE
  8
0
 10
95.3425
 20
-63.4604
 11
95.2191
 21
-63.4839
  0
LINE
  8
0
 10
95.2191
 20
-63.4839
 11
95.0942
 21
-63.4971
  0
LINE
  8
0
 10
95.0942
 20
-63.4971
 11
94.9686
 21
-63.4997
  0
LINE
  8
0
 10
94.9686
 20
-63.4997
 11
94.8432
 21
-63.4918
  0
LINE
  8
0
 10
170.843
 20
-82.4918
 11
170.719
 21
-82.4734
  0
LINE
  8
0
 10
170.719
 20
-82.4734
 11
170.597
 21
-82.4447
  0
LINE
  8
0
 10
170.597
 20
-82.4447
 11
170.477
 21
-82.4059
  0
LINE
  8
0
 10
170.477
 20
-82.4059
 11
170.361
 21
-82.3573
  0
LINE
  8
0
 10
170.361
 20
-82.3573
 11
170.25
 21
-82.299
  0
LINE
  8
0
 10
170.25
 20
-82.299
 11
170.144
 21
-82.2317
  0
LINE
  8
0
 10
170.144
 20
-82.2317
 11
170.044
 21
-82.1558
  0
LINE
  8
0
 10
170.044
 20
-82.1558
 11
169.951
 21
-82.0717
  0
LINE
  8
0
 10
169.951
 20
-82.0717
 11
169.865
 21
-81.9801
  0
LINE
  8
0
 10
169.865
 20
-81.9801
 11
169.786
 21
-81.8817
  0
LINE
  8
0
 10
169.786
 20
-81.8817
 11
169.717
 21
-81.7771
  0
LINE
  8
0
 10
169.717
 20
-81.7771
 11
169.656
 21
-81.667
  0
LINE
  8
0
 10
169.656
 20
-81.667
 11
169.605
 21
-81.5522
  0
LINE
  8
0
 10
169.605
 20
-81.5522
 11
169.564
 21
-81.4335
  0
LINE
  8
0
 10
169.564
 20
-81.4335
 11
169.533
 21
-81.3119
  0
LINE
  8
0
 10
169.533
 20
-81.3119
 11
169.512
 21
-81.188
  0
LINE
  8
0
 10
169.512
 20
-81.188
 11
169.501
 21
-81.0628
  0
LINE
  8
0
 10
169.501
 20
-81.0628
 11
169.501
 21
-80.9372
  0
LINE
  8
0
 10
169.501
 20
-80.9372
 11
169.512
 21
-80.812
  0
LINE
  8
0
 10
169.512
 20
-80.812
 11
169.533
 21
-80.6881
  0
LINE
  8
0
 10
169.533
 20
-80.6881
 11
169.564
 21
-80.5665
  0
LINE
  8
0
 10
169.564
 20
-80.5665
 11
169.605
 21
-80.4478
  0
LINE
  8
0
 10
169.605
 20
-80.4478
 11
169.656
 21
-80.3331
  0
LINE
  8
0
 10
169.656
 20
-80.3331
 11
169.717
 21
-80.223
  0
LINE
  8
0
 10
169.717
 20
-80.223
 11
169.786
 21
-80.1183
  0
LINE
  8
0
 10
169.786
 20
-80.1183
 11
169.865
 21
-80.0199
  0
LINE
  8
0
 10
169.865
 20
-80.0199
 11
169.951
 21
-79.9283
  0
LINE
  8
0
 10
169.951
 20
-79.9283
 11
170.044
 21
-79.8442
  0
LINE
  8
0
 10
170.044
 20
-79.8442
 11
170.144
 21
-79.7683
  0
LINE
  8
0
 10
170.144
 20
-79.7683
 11
170.25
 21
-79.701
  0
LINE
  8
0
 10
170.25
 20
-79.701
 11
170.361
 21
-79.6428
  0
LINE
  8
0
 10
170.361
 20
-79.6428
 11
170.477
 21
-79.5941
  0
LINE
  8
0
 10
170.477
 20
-79.5941
 11
170.597
 21
-79.5553
  0
LINE
  8
0
 10
170.597
 20
-79.5553
 11
170.719
 21
-79.5266
  0
LINE
  8
0
 10
170.719
 20
-79.5266
 11
170.843
 21
-79.5082
  0
LINE
  8
0
 10
170.843
 20
-79.5082
 11
170.969
 21
-79.5003
  0
LINE
  8
0
 10
170.969
 20
-79.5003
 11
171.094
 21
-79.503
  0
LINE
  8
0
 10
171.094
 20
-79.503
 11
171.219
 21
-79.5161
  0
LINE
  8
0
 10
171.219
 20
-79.5161
 11
171.343
 21
-79.5396
  0
LINE
  8
0
 10
171.343
 20
-79.5396
 11
171.464
 21
-79.5734
  0
LINE
  8
0
 10
171.464
 20
-79.5734
 11
171.581
 21
-79.6172
  0
LINE
  8
0
 10
171.581
 20
-79.6172
 11
171.695
 21
-79.6707
  0
LINE
  8
0
 10
171.695
 20
-79.6707
 11
171.804
 21
-79.7335
  0
LINE
  8
0
 10
171.804
 20
-79.7335
 11
171.907
 21
-79.8052
  0
LINE
  8
0
 10
171.907
 20
-79.8052
 11
172.004
 21
-79.8853
  0
LINE
  8
0
 10
172.004
 20
-79.8853
 11
172.093
 21
-79.9732
  0
LINE
  8
0
 10
172.093
 20
-79.9732
 11
172.176
 21
-80.0683
  0
LINE
  8
0
 10
172.176
 20
-80.0683
 11
172.249
 21
-80.1699
  0
LINE
  8
0
 10
172.249
 20
-80.1699
 11
172.314
 21
-80.2774
  0
LINE
  8
0
 10
172.314
 20
-80.2774
 11
172.37
 21
-80.3899
  0
LINE
  8
0
 10
172.37
 20
-80.3899
 11
172.417
 21
-80.5067
  0
LINE
  8
0
 10
172.417
 20
-80.5067
 11
172.453
 21
-80.627
  0
LINE
  8
0
 10
172.453
 20
-80.627
 11
172.479
 21
-80.7498
  0
LINE
  8
0
 10
172.479
 20
-80.7498
 11
172.495
 21
-80.8745
  0
LINE
  8
0
 10
172.495
 20
-80.8745
 11
172.5
 21
-81
  0
LINE
  8
0
 10
172.5
 20
-81
 11
172.495
 21
-81.1255
  0
LINE
  8
0
 10
172.495
 20
-81.1255
 11
172.479
 21
-81.2502
  0
LINE
  8
0
 10
172.479
 20
-81.2502
 11
172.453
 21
-81.373
  0
LINE
  8
0
 10
172.453
 20
-81.373
 11
172.417
 21
-81.4933
  0
LINE
  8
0
 10
172.417
 20
-81.4933
 11
172.37
 21
-81.6101
  0
LINE
  8
0
 10
172.37
 20
-81.6101
 11
172.314
 21
-81.7226
  0
LINE
  8
0
 10
172.314
 20
-81.7226
 11
172.249
 21
-81.8301
  0
LINE
  8
0
 10
172.249
 20
-81.8301
 11
172.176
 21
-81.9317
  0
LINE
  8
0
 10
172.176
 20
-81.9317
 11
172.093
 21
-82.0268
  0
LINE
  8
0
 10
172.093
 20
-82.0268
 11
172.004
 21
-82.1147
  0
LINE
  8
0
 10
172.004
 20
-82.1147
 11
171.907
 21
-82.1948
  0
LINE
  8
0
 10
171.907
 20
-82.1948
 11
171.804
 21
-82.2665
  0
LINE
  8
0
 10
171.804
 20
-82.2665
 11
171.695
 21
-82.3293
  0
LINE
  8
0
 10
171.695
 20
-82.3293
 11
171.581
 21
-82.3828
  0
LINE
  8
0
 10
171.581
 20
-82.3828
 11
171.464
 21
-82.4266
  0
LINE
  8
0
 10
171.464
 20
-82.4266
 11
171.343
 21
-82.4604
  0
LINE
  8
0
 10
171.343
 20
-82.4604
 11
171.219
 21
-82.4839
  0
LINE
  8
0
 10
171.219
 20
-82.4839
 11
171.094
 21
-82.4971
  0
LINE
  8
0
 10
171.094
 20
-82.4971
 11
170.969
 21
-82.4997
  0
LINE
  8
0
 10
170.969
 20
-82.4997
 11
170.843
 21
-82.4918
  0
LINE
  8
0
 10
18.8432
 20
-82.4918
 11
18.7189
 21
-82.4734
  0
LINE
  8
0
 10
18.7189
 20
-82.4734
 11
18.5966
 21
-82.4447
  0
LINE
  8
0
 10
18.5966
 20
-82.4447
 11
18.4771
 21
-82.4059
  0
LINE
  8
0
 10
18.4771
 20
-82.4059
 11
18.3613
 21
-82.3573
  0
LINE
  8
0
 10
18.3613
 20
-82.3573
 11
18.25
 21
-82.299
  0
LINE
  8
0
 10
18.25
 20
-82.299
 11
18.1439
 21
-82.2317
  0
LINE
  8
0
 10
18.1439
 20
-82.2317
 11
18.0439
 21
-82.1558
  0
LINE
  8
0
 10
18.0439
 20
-82.1558
 11
17.9505
 21
-82.0717
  0
LINE
  8
0
 10
17.9505
 20
-82.0717
 11
17.8645
 21
-81.9801
  0
LINE
  8
0
 10
17.8645
 20
-81.9801
 11
17.7865
 21
-81.8817
  0
LINE
  8
0
 10
17.7865
 20
-81.8817
 11
17.7169
 21
-81.7771
  0
LINE
  8
0
 10
17.7169
 20
-81.7771
 11
17.6564
 21
-81.667
  0
LINE
  8
0
 10
17.6564
 20
-81.667
 11
17.6053
 21
-81.5522
  0
LINE
  8
0
 10
17.6053
 20
-81.5522
 11
17.564
 21
-81.4335
  0
LINE
  8
0
 10
17.564
 20
-81.4335
 11
17.5328
 21
-81.3119
  0
LINE
  8
0
 10
17.5328
 20
-81.3119
 11
17.5118
 21
-81.188
  0
LINE
  8
0
 10
17.5118
 20
-81.188
 11
17.5013
 21
-81.0628
  0
LINE
  8
0
 10
17.5013
 20
-81.0628
 11
17.5013
 21
-80.9372
  0
LINE
  8
0
 10
17.5013
 20
-80.9372
 11
17.5118
 21
-80.812
  0
LINE
  8
0
 10
17.5118
 20
-80.812
 11
17.5328
 21
-80.6881
  0
LINE
  8
0
 10
17.5328
 20
-80.6881
 11
17.564
 21
-80.5665
  0
LINE
  8
0
 10
17.564
 20
-80.5665
 11
17.6053
 21
-80.4478
  0
LINE
  8
0
 10
17.6053
 20
-80.4478
 11
17.6564
 21
-80.3331
  0
LINE
  8
0
 10
17.6564
 20
-80.3331
 11
17.7169
 21
-80.223
  0
LINE
  8
0
 10
17.7169
 20
-80.223
 11
17.7865
 21
-80.1183
  0
LINE
  8
0
 10
17.7865
 20
-80.1183
 11
17.8645
 21
-80.0199
  0
LINE
  8
0
 10
17.8645
 20
-80.0199
 11
17.9505
 21
-79.9283
  0
LINE
  8
0
 10
17.9505
 20
-79.9283
 11
18.0439
 21
-79.8442
  0
LINE
  8
0
 10
18.0439
 20
-79.8442
 11
18.1439
 21
-79.7683
  0
LINE
  8
0
 10
18.1439
 20
-79.7683
 11
18.25
 21
-79.701
  0
LINE
  8
0
 10
18.25
 20
-79.701
 11
18.3613
 21
-79.6428
  0
LINE
  8
0
 10
18.3613
 20
-79.6428
 11
18.4771
 21
-79.5941
  0
LINE
  8
0
 10
18.4771
 20
-79.5941
 11
18.5966
 21
-79.5553
  0
LINE
  8
0
 10
18.5966
 20
-79.5553
 11
18.7189
 21
-79.5266
  0
LINE
  8
0
 10
18.7189
 20
-79.5266
 11
18.8432
 21
-79.5082
  0
LINE
  8
0
 10
18.8432
 20
-79.5082
 11
18.9686
 21
-79.5003
  0
LINE
  8
0
 10
18.9686
 20
-79.5003
 11
19.0942
 21
-79.503
  0
LINE
  8
0
 10
19.0942
 20
-79.503
 11
19.2191
 21
-79.5161
  0
LINE
  8
0
 10
19.2191
 20
-79.5161
 11
19.3425
 21
-79.5396
  0
LINE
  8
0
 10
19.3425
 20
-79.5396
 11
19.4635
 21
-79.5734
  0
LINE
  8
0
 10
19.4635
 20
-79.5734
 11
19.5813
 21
-79.6172
  0
LINE
  8
0
 10
19.5813
 20
-79.6172
 11
19.6949
 21
-79.6707
  0
LINE
  8
0
 10
19.6949
 20
-79.6707
 11
19.8037
 21
-79.7335
  0
LINE
  8
0
 10
19.8037
 20
-79.7335
 11
19.9069
 21
-79.8052
  0
LINE
  8
0
 10
19.9069
 20
-79.8052
 11
20.0037
 21
-79.8853
  0
LINE
  8
0
 10
20.0037
 20
-79.8853
 11
20.0934
 21
-79.9732
  0
LINE
  8
0
 10
20.0934
 20
-79.9732
 11
20.1755
 21
-80.0683
  0
LINE
  8
0
 10
20.1755
 20
-80.0683
 11
20.2494
 21
-80.1699
  0
LINE
  8
0
 10
20.2494
 20
-80.1699
 11
20.3145
 21
-80.2774
  0
LINE
  8
0
 10
20.3145
 20
-80.2774
 11
20.3703
 21
-80.3899
  0
LINE
  8
0
 10
20.3703
 20
-80.3899
 11
20.4165
 21
-80.5067
  0
LINE
  8
0
 10
20.4165
 20
-80.5067
 11
20.4529
 21
-80.627
  0
LINE
  8
0
 10
20.4529
 20
-80.627
 11
20.479
 21
-80.7498
  0
LINE
  8
0
 10
20.479
 20
-80.7498
 11
20.4947
 21
-80.8745
  0
LINE
  8
0
 10
20.4947
 20
-80.8745
 11
20.5
 21
-81
  0
LINE
  8
0
 10
20.5
 20
-81
 11
20.4947
 21
-81.1255
  0
LINE
  8
0
 10
20.4947
 20
-81.1255
 11
20.479
 21
-81.2502
  0
LINE
  8
0
 10
20.479
 20
-81.2502
 11
20.4529
 21
-81.373
  0
LINE
  8
0
 10
20.4529
 20
-81.373
 11
20.4165
 21
-81.4933
  0
LINE
  8
0
 10
20.4165
 20
-81.4933
 11
20.3703
 21
-81.6101
  0
LINE
  8
0
 10
20.3703
 20
-81.6101
 11
20.3145
 21
-81.7226
  0
LINE
  8
0
 10
20.3145
 20
-81.7226
 11
20.2494
 21
-81.8301
  0
LINE
  8
0
 10
20.2494
 20
-81.8301
 11
20.1755
 21
-81.9317
  0
LINE
  8
0
 10
20.1755
 20
-81.9317
 11
20.0934
 21
-82.0268
  0
LINE
  8
0
 10
20.0934
 20
-82.0268
 11
20.0037
 21
-82.1147
  0
LINE
  8
0
 10
20.0037
 20
-82.1147
 11
19.9069
 21
-82.1948
  0
LINE
  8
0
 10
19.9069
 20
-82.1948
 11
19.8037
 21
-82.2665
  0
LINE
  8
0
 10
19.8037
 20
-82.2665
 11
19.6949
 21
-82.3293
  0
LINE
  8
0
 10
19.6949
 20
-82.3293
 11
19.5813
 21
-82.3828
  0
LINE
  8
0
 10
19.5813
 20
-82.3828
 11
19.4635
 21
-82.4266
  0
LINE
  8
0
 10
19.4635
 20
-82.4266
 11
19.3425
 21
-82.4604
  0
LINE
  8
0
 10
19.3425
 20
-82.4604
 11
19.2191
 21
-82.4839
  0
LINE
  8
0
 10
19.2191
 20
-82.4839
 11
19.0942
 21
-82.4971
  0
LINE
  8
0
 10
19.0942
 20
-82.4971
 11
18.9686
 21
-82.4997
  0
LINE
  8
0
 10
18.9686
 20
-82.4997
 11
18.8432
 21
-82.4918
  0
ENDSEC
  0
SECTION
  2
OBJECTS
  0
DICTIONARY
  0
ENDSEC
  0
EOF
