  0
SECTION
  2
BLOCKS
  0
ENDSEC
  0
SECTION
  2
ENTITIES
  0
LINE
  8
0
 10
162.165
 20
-40.4508
 11
164.153
 21
-39.8048
  0
LINE
  8
0
 10
164.153
 20
-39.8048
 11
165.964
 21
-38.7595
  0
LINE
  8
0
 10
165.964
 20
-38.7595
 11
167.517
 21
-37.3606
  0
LINE
  8
0
 10
167.517
 20
-37.3606
 11
168.746
 21
-35.6693
  0
LINE
  8
0
 10
168.746
 20
-35.6693
 11
169.596
 21
-33.7595
  0
LINE
  8
0
 10
169.596
 20
-33.7595
 11
170.031
 21
-31.7146
  0
LINE
  8
0
 10
170.031
 20
-31.7146
 11
170.031
 21
31.7146
  0
LINE
  8
0
 10
170.031
 20
31.7146
 11
169.596
 21
33.7595
  0
LINE
  8
0
 10
169.596
 20
33.7595
 11
168.746
 21
35.6693
  0
LINE
  8
0
 10
168.746
 20
35.6693
 11
167.517
 21
37.3606
  0
LINE
  8
0
 10
167.517
 20
37.3606
 11
165.964
 21
38.7595
  0
LINE
  8
0
 10
165.964
 20
38.7595
 11
164.153
 21
39.8048
  0
LINE
  8
0
 10
164.153
 20
39.8048
 11
162.165
 21
40.4508
  0
LINE
  8
0
 10
162.165
 20
40.4508
 11
160.086
 21
40.6693
  0
LINE
  8
0
 10
160.086
 20
40.6693
 11
-4.91415
 21
40.6693
  0
LINE
  8
0
 10
-4.91415
 20
40.6693
 11
-6.99327
 21
40.4508
  0
LINE
  8
0
 10
-6.99327
 20
40.4508
 11
-8.98152
 21
39.8048
  0
LINE
  8
0
 10
-8.98152
 20
39.8048
 11
-10.792
 21
38.7595
  0
LINE
  8
0
 10
-10.792
 20
38.7595
 11
-12.3456
 21
37.3606
  0
LINE
  8
0
 10
-12.3456
 20
37.3606
 11
-13.5744
 21
35.6693
  0
LINE
  8
0
 10
-13.5744
 20
35.6693
 11
-14.4247
 21
33.7595
  0
LINE
  8
0
 10
-14.4247
 20
33.7595
 11
-14.8594
 21
31.7146
  0
LINE
  8
0
 10
-14.8594
 20
31.7146
 11
-14.8594
 21
-31.7146
  0
LINE
  8
0
 10
-14.8594
 20
-31.7146
 11
-14.4247
 21
-33.7595
  0
LINE
  8
0
 10
-14.4247
 20
-33.7595
 11
-13.5744
 21
-35.6693
  0
LINE
  8
0
 10
-13.5744
 20
-35.6693
 11
-12.3456
 21
-37.3606
  0
LINE
  8
0
 10
-12.3456
 20
-37.3606
 11
-10.792
 21
-38.7595
  0
LINE
  8
0
 10
-10.792
 20
-38.7595
 11
-8.98154
 21
-39.8048
  0
LINE
  8
0
 10
-8.98154
 20
-39.8048
 11
-6.99329
 21
-40.4508
  0
LINE
  8
0
 10
-6.99329
 20
-40.4508
 11
-4.91417
 21
-40.6693
  0
LINE
  8
0
 10
-4.91417
 20
-40.6693
 11
160.086
 21
-40.6693
  0
LINE
  8
0
 10
160.086
 20
-40.6693
 11
162.165
 21
-40.4508
  0
LINE
  8
0
 10
-1.72371
 20
27.8203
 11
-1.97995
 21
27.857
  0
LINE
  8
0
 10
-1.97995
 20
27.857
 11
-2.2267
 21
27.9183
  0
LINE
  8
0
 10
-2.2267
 20
27.9183
 11
-2.46396
 21
28.004
  0
LINE
  8
0
 10
-2.46396
 20
28.004
 11
-2.68907
 21
28.1137
  0
LINE
  8
0
 10
-2.68907
 20
28.1137
 11
-2.89946
 21
28.247
  0
LINE
  8
0
 10
-2.89946
 20
28.247
 11
-3.09508
 21
28.4037
  0
LINE
  8
0
 10
-3.09508
 20
28.4037
 11
-3.27596
 21
28.584
  0
LINE
  8
0
 10
-3.27596
 20
28.584
 11
-3.43996
 21
28.7874
  0
LINE
  8
0
 10
-3.43996
 20
28.7874
 11
-3.58495
 21
29.0125
  0
LINE
  8
0
 10
-3.58495
 20
29.0125
 11
-3.71095
 21
29.2594
  0
LINE
  8
0
 10
-3.71095
 20
29.2594
 11
-3.81795
 21
29.528
  0
LINE
  8
0
 10
-3.81795
 20
29.528
 11
-3.90283
 21
29.8176
  0
LINE
  8
0
 10
-3.90283
 20
29.8176
 11
-3.96346
 21
30.1262
  0
LINE
  8
0
 10
-3.96346
 20
30.1262
 11
-3.99983
 21
30.4541
  0
LINE
  8
0
 10
-3.99983
 20
30.4541
 11
-4.01195
 21
30.801
  0
LINE
  8
0
 10
-4.01195
 20
30.801
 11
-3.99333
 21
31.1763
  0
LINE
  8
0
 10
-3.99333
 20
31.1763
 11
-3.93745
 21
31.5332
  0
LINE
  8
0
 10
-3.93745
 20
31.5332
 11
-3.84433
 21
31.8718
  0
LINE
  8
0
 10
-3.84433
 20
31.8718
 11
-3.71396
 21
32.192
  0
LINE
  8
0
 10
-3.71396
 20
32.192
 11
-3.55452
 21
32.4916
  0
LINE
  8
0
 10
-3.55452
 20
32.4916
 11
-3.3752
 21
32.7675
  0
LINE
  8
0
 10
-3.3752
 20
32.7675
 11
-3.17601
 21
33.0196
  0
LINE
  8
0
 10
-3.17601
 20
33.0196
 11
-2.95695
 21
33.248
  0
LINE
  8
0
 10
-2.95695
 20
33.248
 11
-2.72276
 21
33.4523
  0
LINE
  8
0
 10
-2.72276
 20
33.4523
 11
-2.47821
 21
33.6312
  0
LINE
  8
0
 10
-2.47821
 20
33.6312
 11
-2.22327
 21
33.7848
  0
LINE
  8
0
 10
-2.22327
 20
33.7848
 11
-1.95795
 21
33.913
  0
LINE
  8
0
 10
-1.95795
 20
33.913
 11
-1.69002
 21
34.0141
  0
LINE
  8
0
 10
-1.69002
 20
34.0141
 11
-1.4272
 21
34.0862
  0
LINE
  8
0
 10
-1.4272
 20
34.0862
 11
-1.16951
 21
34.1296
  0
LINE
  8
0
 10
-1.16951
 20
34.1296
 11
-0.916946
 21
34.144
  0
LINE
  8
0
 10
-0.916946
 20
34.144
 11
-0.719391
 21
34.1395
  0
LINE
  8
0
 10
-0.719391
 20
34.1395
 11
-0.529709
 21
34.126
  0
LINE
  8
0
 10
-0.529709
 20
34.126
 11
-0.347885
 21
34.1035
  0
LINE
  8
0
 10
-0.347885
 20
34.1035
 11
-0.17395
 21
34.072
  0
LINE
  8
0
 10
-0.17395
 20
34.072
 11
0.00164795
 21
34.0323
  0
LINE
  8
0
 10
0.00164795
 20
34.0323
 11
0.188522
 21
33.9852
  0
LINE
  8
0
 10
0.188522
 20
33.9852
 11
0.386642
 21
33.9308
  0
LINE
  8
0
 10
0.386642
 20
33.9308
 11
0.596024
 21
33.869
  0
LINE
  8
0
 10
0.596024
 20
33.869
 11
0.596024
 21
36.152
  0
LINE
  8
0
 10
0.596024
 20
36.152
 11
0.587326
 21
36.3508
  0
LINE
  8
0
 10
0.587326
 20
36.3508
 11
0.561264
 21
36.5212
  0
LINE
  8
0
 10
0.561264
 20
36.5212
 11
0.517822
 21
36.6633
  0
LINE
  8
0
 10
0.517822
 20
36.6633
 11
0.457016
 21
36.777
  0
LINE
  8
0
 10
0.457016
 20
36.777
 11
0.364075
 21
36.8679
  0
LINE
  8
0
 10
0.364075
 20
36.8679
 11
0.224274
 21
36.9407
  0
LINE
  8
0
 10
0.224274
 20
36.9407
 11
0.0375824
 21
36.9954
  0
LINE
  8
0
 10
0.0375824
 20
36.9954
 11
-0.195953
 21
37.032
  0
LINE
  8
0
 10
-0.195953
 20
37.032
 11
-0.235764
 21
37.0464
  0
LINE
  8
0
 10
-0.235764
 20
37.0464
 11
-0.272202
 21
37.0625
  0
LINE
  8
0
 10
-0.272202
 20
37.0625
 11
-0.305267
 21
37.0804
  0
LINE
  8
0
 10
-0.305267
 20
37.0804
 11
-0.334946
 21
37.1
  0
LINE
  8
0
 10
-0.334946
 20
37.1
 11
-0.359009
 21
37.1252
  0
LINE
  8
0
 10
-0.359009
 20
37.1252
 11
-0.376205
 21
37.159
  0
LINE
  8
0
 10
-0.376205
 20
37.159
 11
-0.38652
 21
37.2012
  0
LINE
  8
0
 10
-0.38652
 20
37.2012
 11
-0.389954
 21
37.252
  0
LINE
  8
0
 10
-0.389954
 20
37.252
 11
-0.388199
 21
37.2965
  0
LINE
  8
0
 10
-0.388199
 20
37.2965
 11
-0.38295
 21
37.348
  0
LINE
  8
0
 10
-0.38295
 20
37.348
 11
-0.374207
 21
37.4065
  0
LINE
  8
0
 10
-0.374207
 20
37.4065
 11
-0.361954
 21
37.472
  0
LINE
  8
0
 10
-0.361954
 20
37.472
 11
-0.310013
 21
37.4724
  0
LINE
  8
0
 10
-0.310013
 20
37.4724
 11
0.221024
 21
37.491
  0
LINE
  8
0
 10
0.221024
 20
37.491
 11
0.583023
 21
37.51
  0
LINE
  8
0
 10
0.583023
 20
37.51
 11
0.918015
 21
37.536
  0
LINE
  8
0
 10
0.918015
 20
37.536
 11
1.09645
 21
37.5599
  0
LINE
  8
0
 10
1.09645
 20
37.5599
 11
1.26877
 21
37.5875
  0
LINE
  8
0
 10
1.26877
 20
37.5875
 11
1.43495
 21
37.6189
  0
LINE
  8
0
 10
1.43495
 20
37.6189
 11
1.73982
 21
37.6864
  0
LINE
  8
0
 10
1.73982
 20
37.6864
 11
1.85927
 21
37.7095
  0
LINE
  8
0
 10
1.85927
 20
37.7095
 11
1.95332
 21
37.7234
  0
LINE
  8
0
 10
1.95332
 20
37.7234
 11
2.02202
 21
37.728
  0
LINE
  8
0
 10
2.02202
 20
37.728
 11
2.12614
 21
37.716
  0
LINE
  8
0
 10
2.12614
 20
37.716
 11
2.20052
 21
37.68
  0
LINE
  8
0
 10
2.20052
 20
37.68
 11
2.24515
 21
37.62
  0
LINE
  8
0
 10
2.24515
 20
37.62
 11
2.26001
 21
37.536
  0
LINE
  8
0
 10
2.26001
 20
37.536
 11
2.25801
 21
37.3992
  0
LINE
  8
0
 10
2.25801
 20
37.3992
 11
2.25201
 21
37.2527
  0
LINE
  8
0
 10
2.25201
 20
37.2527
 11
2.24202
 21
37.0967
  0
LINE
  8
0
 10
2.24202
 20
37.0967
 11
2.21402
 21
36.7545
  0
LINE
  8
0
 10
2.21402
 20
36.7545
 11
2.20401
 21
36.565
  0
LINE
  8
0
 10
2.20401
 20
36.565
 11
2.19801
 21
36.3625
  0
LINE
  8
0
 10
2.19801
 20
36.3625
 11
2.19601
 21
36.147
  0
LINE
  8
0
 10
2.19601
 20
36.147
 11
2.19601
 21
29.311
  0
LINE
  8
0
 10
2.19601
 20
29.311
 11
2.19951
 21
29.157
  0
LINE
  8
0
 10
2.19951
 20
29.157
 11
2.20389
 21
29.089
  0
LINE
  8
0
 10
2.20389
 20
29.089
 11
2.21002
 21
29.027
  0
LINE
  8
0
 10
2.21002
 20
29.027
 11
2.22046
 21
28.9701
  0
LINE
  8
0
 10
2.22046
 20
28.9701
 11
2.23776
 21
28.9175
  0
LINE
  8
0
 10
2.23776
 20
28.9175
 11
2.26195
 21
28.8691
  0
LINE
  8
0
 10
2.26195
 20
28.8691
 11
2.29301
 21
28.825
  0
LINE
  8
0
 10
2.29301
 20
28.825
 11
2.33232
 21
28.7856
  0
LINE
  8
0
 10
2.33232
 20
28.7856
 11
2.38026
 21
28.7505
  0
LINE
  8
0
 10
2.38026
 20
28.7505
 11
2.43683
 21
28.7196
  0
LINE
  8
0
 10
2.43683
 20
28.7196
 11
2.50201
 21
28.693
  0
LINE
  8
0
 10
2.50201
 20
28.693
 11
2.57758
 21
28.6702
  0
LINE
  8
0
 10
2.57758
 20
28.6702
 11
2.66527
 21
28.65
  0
LINE
  8
0
 10
2.66527
 20
28.65
 11
2.76508
 21
28.6322
  0
LINE
  8
0
 10
2.76508
 20
28.6322
 11
2.87701
 21
28.617
  0
LINE
  8
0
 10
2.87701
 20
28.617
 11
2.9619
 21
28.5952
  0
LINE
  8
0
 10
2.9619
 20
28.5952
 11
3.02252
 21
28.5577
  0
LINE
  8
0
 10
3.02252
 20
28.5577
 11
3.05888
 21
28.5047
  0
LINE
  8
0
 10
3.05888
 20
28.5047
 11
3.07101
 21
28.436
  0
LINE
  8
0
 10
3.07101
 20
28.436
 11
3.07101
 21
28.297
  0
LINE
  8
0
 10
3.07101
 20
28.297
 11
3.06934
 21
28.2642
  0
LINE
  8
0
 10
3.06934
 20
28.2642
 11
3.06427
 21
28.2347
  0
LINE
  8
0
 10
3.06427
 20
28.2347
 11
3.05583
 21
28.2087
  0
LINE
  8
0
 10
3.05583
 20
28.2087
 11
3.04402
 21
28.186
  0
LINE
  8
0
 10
3.04402
 20
28.186
 11
2.94089
 21
28.1847
  0
LINE
  8
0
 10
2.94089
 20
28.1847
 11
2.81252
 21
28.1807
  0
LINE
  8
0
 10
2.81252
 20
28.1807
 11
2.48001
 21
28.165
  0
LINE
  8
0
 10
2.48001
 20
28.165
 11
2.29564
 21
28.1532
  0
LINE
  8
0
 10
2.29564
 20
28.1532
 11
2.12552
 21
28.139
  0
LINE
  8
0
 10
2.12552
 20
28.139
 11
1.96964
 21
28.1222
  0
LINE
  8
0
 10
1.96964
 20
28.1222
 11
1.67252
 21
28.0807
  0
LINE
  8
0
 10
1.67252
 20
28.0807
 11
1.51802
 21
28.056
  0
LINE
  8
0
 10
1.51802
 20
28.056
 11
1.36452
 21
28.0287
  0
LINE
  8
0
 10
1.36452
 20
28.0287
 11
1.07188
 21
27.9715
  0
LINE
  8
0
 10
1.07188
 20
27.9715
 11
0.955521
 21
27.9518
  0
LINE
  8
0
 10
0.955521
 20
27.9518
 11
0.862885
 21
27.9399
  0
LINE
  8
0
 10
0.862885
 20
27.9399
 11
0.794022
 21
27.936
  0
LINE
  8
0
 10
0.794022
 20
27.936
 11
0.736206
 21
27.9389
  0
LINE
  8
0
 10
0.736206
 20
27.9389
 11
0.689774
 21
27.9478
  0
LINE
  8
0
 10
0.689774
 20
27.9478
 11
0.654709
 21
27.9624
  0
LINE
  8
0
 10
0.654709
 20
27.9624
 11
0.631012
 21
27.983
  0
LINE
  8
0
 10
0.631012
 20
27.983
 11
0.615707
 21
28.0098
  0
LINE
  8
0
 10
0.615707
 20
28.0098
 11
0.604767
 21
28.0442
  0
LINE
  8
0
 10
0.604767
 20
28.0442
 11
0.598206
 21
28.0863
  0
LINE
  8
0
 10
0.598206
 20
28.0863
 11
0.596024
 21
28.136
  0
LINE
  8
0
 10
0.596024
 20
28.136
 11
0.596024
 21
28.937
  0
LINE
  8
0
 10
0.596024
 20
28.937
 11
0.505081
 21
28.8141
  0
LINE
  8
0
 10
0.505081
 20
28.8141
 11
0.412262
 21
28.6965
  0
LINE
  8
0
 10
0.412262
 20
28.6965
 11
0.317581
 21
28.5841
  0
LINE
  8
0
 10
0.317581
 20
28.5841
 11
0.221024
 21
28.477
  0
LINE
  8
0
 10
0.221024
 20
28.477
 11
0.120956
 21
28.3764
  0
LINE
  8
0
 10
0.120956
 20
28.3764
 11
0.0147705
 21
28.2835
  0
LINE
  8
0
 10
0.0147705
 20
28.2835
 11
-0.0975189
 21
28.1984
  0
LINE
  8
0
 10
-0.0975189
 20
28.1984
 11
-0.215958
 21
28.121
  0
LINE
  8
0
 10
-0.215958
 20
28.121
 11
-0.341385
 21
28.0519
  0
LINE
  8
0
 10
-0.341385
 20
28.0519
 11
-0.474701
 21
27.9908
  0
LINE
  8
0
 10
-0.474701
 20
27.9908
 11
-0.615891
 21
27.9374
  0
LINE
  8
0
 10
-0.615891
 20
27.9374
 11
-0.764954
 21
27.892
  0
LINE
  8
0
 10
-0.764954
 20
27.892
 11
-0.922638
 21
27.8553
  0
LINE
  8
0
 10
-0.922638
 20
27.8553
 11
-1.0907
 21
27.829
  0
LINE
  8
0
 10
-1.0907
 20
27.829
 11
-1.26913
 21
27.8133
  0
LINE
  8
0
 10
-1.26913
 20
27.8133
 11
-1.45795
 21
27.808
  0
LINE
  8
0
 10
-1.45795
 20
27.808
 11
-1.72371
 21
27.8203
  0
LINE
  8
0
 10
-0.63446
 20
28.5862
 11
-0.509949
 21
28.6167
  0
LINE
  8
0
 10
-0.509949
 20
28.6167
 11
-0.386459
 21
28.6677
  0
LINE
  8
0
 10
-0.386459
 20
28.6677
 11
-0.263947
 21
28.739
  0
LINE
  8
0
 10
-0.263947
 20
28.739
 11
-0.14502
 21
28.8262
  0
LINE
  8
0
 10
-0.14502
 20
28.8262
 11
-0.0332031
 21
28.925
  0
LINE
  8
0
 10
-0.0332031
 20
28.925
 11
0.0714569
 21
29.0352
  0
LINE
  8
0
 10
0.0714569
 20
29.0352
 11
0.169022
 21
29.157
  0
LINE
  8
0
 10
0.169022
 20
29.157
 11
0.25914
 21
29.2894
  0
LINE
  8
0
 10
0.25914
 20
29.2894
 11
0.340515
 21
29.4305
  0
LINE
  8
0
 10
0.340515
 20
29.4305
 11
0.413147
 21
29.5804
  0
LINE
  8
0
 10
0.413147
 20
29.5804
 11
0.47702
 21
29.739
  0
LINE
  8
0
 10
0.47702
 20
29.739
 11
0.529083
 21
29.902
  0
LINE
  8
0
 10
0.529083
 20
29.902
 11
0.566269
 21
30.065
  0
LINE
  8
0
 10
0.566269
 20
30.065
 11
0.588577
 21
30.228
  0
LINE
  8
0
 10
0.588577
 20
30.228
 11
0.596024
 21
30.391
  0
LINE
  8
0
 10
0.596024
 20
30.391
 11
0.596024
 21
32.916
  0
LINE
  8
0
 10
0.596024
 20
32.916
 11
0.264023
 21
33.2012
  0
LINE
  8
0
 10
0.264023
 20
33.2012
 11
-0.0889587
 21
33.405
  0
LINE
  8
0
 10
-0.0889587
 20
33.405
 11
-0.462952
 21
33.5272
  0
LINE
  8
0
 10
-0.462952
 20
33.5272
 11
-0.857956
 21
33.568
  0
LINE
  8
0
 10
-0.857956
 20
33.568
 11
-1.19789
 21
33.5276
  0
LINE
  8
0
 10
-1.19789
 20
33.5276
 11
-1.49071
 21
33.4065
  0
LINE
  8
0
 10
-1.49071
 20
33.4065
 11
-1.73639
 21
33.2046
  0
LINE
  8
0
 10
-1.73639
 20
33.2046
 11
-1.93495
 21
32.922
  0
LINE
  8
0
 10
-1.93495
 20
32.922
 11
-2.08765
 21
32.5698
  0
LINE
  8
0
 10
-2.08765
 20
32.5698
 11
-2.1967
 21
32.1582
  0
LINE
  8
0
 10
-2.1967
 20
32.1582
 11
-2.26215
 21
31.6873
  0
LINE
  8
0
 10
-2.26215
 20
31.6873
 11
-2.28395
 21
31.157
  0
LINE
  8
0
 10
-2.28395
 20
31.157
 11
-2.27826
 21
30.8915
  0
LINE
  8
0
 10
-2.27826
 20
30.8915
 11
-2.2612
 21
30.634
  0
LINE
  8
0
 10
-2.2612
 20
30.634
 11
-2.23277
 21
30.3845
  0
LINE
  8
0
 10
-2.23277
 20
30.3845
 11
-2.19295
 21
30.143
  0
LINE
  8
0
 10
-2.19295
 20
30.143
 11
-2.14183
 21
29.9134
  0
LINE
  8
0
 10
-2.14183
 20
29.9134
 11
-2.07945
 21
29.6997
  0
LINE
  8
0
 10
-2.07945
 20
29.6997
 11
-2.00583
 21
29.5019
  0
LINE
  8
0
 10
-2.00583
 20
29.5019
 11
-1.92096
 21
29.32
  0
LINE
  8
0
 10
-1.92096
 20
29.32
 11
-1.82346
 21
29.1557
  0
LINE
  8
0
 10
-1.82346
 20
29.1557
 11
-1.71295
 21
29.01
  0
LINE
  8
0
 10
-1.71295
 20
29.01
 11
-1.58945
 21
28.8827
  0
LINE
  8
0
 10
-1.58945
 20
28.8827
 11
-1.45296
 21
28.774
  0
LINE
  8
0
 10
-1.45296
 20
28.774
 11
-1.30202
 21
28.6874
  0
LINE
  8
0
 10
-1.30202
 20
28.6874
 11
-1.1362
 21
28.6255
  0
LINE
  8
0
 10
-1.1362
 20
28.6255
 11
-0.955521
 21
28.5884
  0
LINE
  8
0
 10
-0.955521
 20
28.5884
 11
-0.759949
 21
28.576
  0
LINE
  8
0
 10
-0.759949
 20
28.576
 11
-0.63446
 21
28.5862
  0
LINE
  8
0
 10
6.28149
 20
27.8229
 11
5.93806
 21
27.8675
  0
LINE
  8
0
 10
5.93806
 20
27.8675
 11
5.612
 21
27.9419
  0
LINE
  8
0
 10
5.612
 20
27.9419
 11
5.30331
 21
28.046
  0
LINE
  8
0
 10
5.30331
 20
28.046
 11
5.01419
 21
28.1763
  0
LINE
  8
0
 10
5.01419
 20
28.1763
 11
4.74681
 21
28.3292
  0
LINE
  8
0
 10
4.74681
 20
28.3292
 11
4.50119
 21
28.5048
  0
LINE
  8
0
 10
4.50119
 20
28.5048
 11
4.27731
 21
28.703
  0
LINE
  8
0
 10
4.27731
 20
28.703
 11
4.077
 21
28.923
  0
LINE
  8
0
 10
4.077
 20
28.923
 11
3.90106
 21
29.163
  0
LINE
  8
0
 10
3.90106
 20
29.163
 11
3.7495
 21
29.423
  0
LINE
  8
0
 10
3.7495
 20
29.423
 11
3.62231
 21
29.703
  0
LINE
  8
0
 10
3.62231
 20
29.703
 11
3.52168
 21
30
  0
LINE
  8
0
 10
3.52168
 20
30
 11
3.44981
 21
30.31
  0
LINE
  8
0
 10
3.44981
 20
30.31
 11
3.40669
 21
30.633
  0
LINE
  8
0
 10
3.40669
 20
30.633
 11
3.39232
 21
30.969
  0
LINE
  8
0
 10
3.39232
 20
30.969
 11
3.40756
 21
31.3049
  0
LINE
  8
0
 10
3.40756
 20
31.3049
 11
3.45331
 21
31.6277
  0
LINE
  8
0
 10
3.45331
 20
31.6277
 11
3.52956
 21
31.9374
  0
LINE
  8
0
 10
3.52956
 20
31.9374
 11
3.63631
 21
32.234
  0
LINE
  8
0
 10
3.63631
 20
32.234
 11
3.77007
 21
32.5148
  0
LINE
  8
0
 10
3.77007
 20
32.5148
 11
3.92731
 21
32.7762
  0
LINE
  8
0
 10
3.92731
 20
32.7762
 11
4.10806
 21
33.0183
  0
LINE
  8
0
 10
4.10806
 20
33.0183
 11
4.31232
 21
33.241
  0
LINE
  8
0
 10
4.31232
 20
33.241
 11
4.53925
 21
33.4427
  0
LINE
  8
0
 10
4.53925
 20
33.4427
 11
4.78706
 21
33.6207
  0
LINE
  8
0
 10
4.78706
 20
33.6207
 11
5.05576
 21
33.7752
  0
LINE
  8
0
 10
5.05576
 20
33.7752
 11
5.34531
 21
33.906
  0
LINE
  8
0
 10
5.34531
 20
33.906
 11
5.65225
 21
34.0101
  0
LINE
  8
0
 10
5.65225
 20
34.0101
 11
5.97307
 21
34.0845
  0
LINE
  8
0
 10
5.97307
 20
34.0845
 11
6.30775
 21
34.1291
  0
LINE
  8
0
 10
6.30775
 20
34.1291
 11
6.65631
 21
34.144
  0
LINE
  8
0
 10
6.65631
 20
34.144
 11
7.01712
 21
34.1291
  0
LINE
  8
0
 10
7.01712
 20
34.1291
 11
7.36057
 21
34.0845
  0
LINE
  8
0
 10
7.36057
 20
34.0845
 11
7.68663
 21
34.0101
  0
LINE
  8
0
 10
7.68663
 20
34.0101
 11
7.99532
 21
33.906
  0
LINE
  8
0
 10
7.99532
 20
33.906
 11
8.28482
 21
33.7752
  0
LINE
  8
0
 10
8.28482
 20
33.7752
 11
8.55331
 21
33.6207
  0
LINE
  8
0
 10
8.55331
 20
33.6207
 11
8.80081
 21
33.4427
  0
LINE
  8
0
 10
8.80081
 20
33.4427
 11
9.02731
 21
33.241
  0
LINE
  8
0
 10
9.02731
 20
33.241
 11
9.23112
 21
33.0183
  0
LINE
  8
0
 10
9.23112
 20
33.0183
 11
9.40956
 21
32.7762
  0
LINE
  8
0
 10
9.40956
 20
32.7762
 11
9.56262
 21
32.5148
  0
LINE
  8
0
 10
9.56262
 20
32.5148
 11
9.69031
 21
32.234
  0
LINE
  8
0
 10
9.69031
 20
32.234
 11
9.79094
 21
31.9374
  0
LINE
  8
0
 10
9.79094
 20
31.9374
 11
9.86281
 21
31.6277
  0
LINE
  8
0
 10
9.86281
 20
31.6277
 11
9.90594
 21
31.3049
  0
LINE
  8
0
 10
9.90594
 20
31.3049
 11
9.92032
 21
30.969
  0
LINE
  8
0
 10
9.92032
 20
30.969
 11
9.90506
 21
30.633
  0
LINE
  8
0
 10
9.90506
 20
30.633
 11
9.85931
 21
30.31
  0
LINE
  8
0
 10
9.85931
 20
30.31
 11
9.78307
 21
30
  0
LINE
  8
0
 10
9.78307
 20
30
 11
9.67632
 21
29.703
  0
LINE
  8
0
 10
9.67632
 20
29.703
 11
9.54207
 21
29.423
  0
LINE
  8
0
 10
9.54207
 20
29.423
 11
9.38332
 21
29.163
  0
LINE
  8
0
 10
9.38332
 20
29.163
 11
9.20006
 21
28.923
  0
LINE
  8
0
 10
9.20006
 20
28.923
 11
8.99231
 21
28.703
  0
LINE
  8
0
 10
8.99231
 20
28.703
 11
8.76276
 21
28.5048
  0
LINE
  8
0
 10
8.76276
 20
28.5048
 11
8.51306
 21
28.3292
  0
LINE
  8
0
 10
8.51306
 20
28.3292
 11
8.24326
 21
28.1763
  0
LINE
  8
0
 10
8.24326
 20
28.1763
 11
7.95331
 21
28.046
  0
LINE
  8
0
 10
7.95331
 20
28.046
 11
7.64638
 21
27.9419
  0
LINE
  8
0
 10
7.64638
 20
27.9419
 11
7.32556
 21
27.8675
  0
LINE
  8
0
 10
7.32556
 20
27.8675
 11
6.99088
 21
27.8229
  0
LINE
  8
0
 10
6.99088
 20
27.8229
 11
6.64232
 21
27.808
  0
LINE
  8
0
 10
6.64232
 20
27.808
 11
6.28149
 21
27.8229
  0
LINE
  8
0
 10
7.14819
 20
28.4217
 11
7.44382
 21
28.5347
  0
LINE
  8
0
 10
7.44382
 20
28.5347
 11
7.68518
 21
28.7232
  0
LINE
  8
0
 10
7.68518
 20
28.7232
 11
7.87231
 21
28.987
  0
LINE
  8
0
 10
7.87231
 20
28.987
 11
8.01231
 21
29.3196
  0
LINE
  8
0
 10
8.01231
 20
29.3196
 11
8.11232
 21
29.7135
  0
LINE
  8
0
 10
8.11232
 20
29.7135
 11
8.17232
 21
30.1686
  0
LINE
  8
0
 10
8.17232
 20
30.1686
 11
8.19231
 21
30.685
  0
LINE
  8
0
 10
8.19231
 20
30.685
 11
8.16475
 21
31.2999
  0
LINE
  8
0
 10
8.16475
 20
31.2999
 11
8.08206
 21
31.8527
  0
LINE
  8
0
 10
8.08206
 20
31.8527
 11
7.94424
 21
32.3434
  0
LINE
  8
0
 10
7.94424
 20
32.3434
 11
7.75131
 21
32.772
  0
LINE
  8
0
 10
7.75131
 20
32.772
 11
7.50862
 21
33.1202
  0
LINE
  8
0
 10
7.50862
 20
33.1202
 11
7.22156
 21
33.369
  0
LINE
  8
0
 10
7.22156
 20
33.369
 11
6.89012
 21
33.5182
  0
LINE
  8
0
 10
6.89012
 20
33.5182
 11
6.51431
 21
33.568
  0
LINE
  8
0
 10
6.51431
 20
33.568
 11
6.16444
 21
33.5294
  0
LINE
  8
0
 10
6.16444
 20
33.5294
 11
5.86882
 21
33.4135
  0
LINE
  8
0
 10
5.86882
 20
33.4135
 11
5.62744
 21
33.2204
  0
LINE
  8
0
 10
5.62744
 20
33.2204
 11
5.44031
 21
32.95
  0
LINE
  8
0
 10
5.44031
 20
32.95
 11
5.30031
 21
32.6122
  0
LINE
  8
0
 10
5.30031
 20
32.6122
 11
5.20032
 21
32.2167
  0
LINE
  8
0
 10
5.20032
 20
32.2167
 11
5.14032
 21
31.7637
  0
LINE
  8
0
 10
5.14032
 20
31.7637
 11
5.12032
 21
31.253
  0
LINE
  8
0
 10
5.12032
 20
31.253
 11
5.14745
 21
30.6324
  0
LINE
  8
0
 10
5.14745
 20
30.6324
 11
5.22881
 21
30.0775
  0
LINE
  8
0
 10
5.22881
 20
30.0775
 11
5.36444
 21
29.5884
  0
LINE
  8
0
 10
5.36444
 20
29.5884
 11
5.55431
 21
29.165
  0
LINE
  8
0
 10
5.55431
 20
29.165
 11
5.79482
 21
28.8233
  0
LINE
  8
0
 10
5.79482
 20
28.8233
 11
6.08231
 21
28.5792
  0
LINE
  8
0
 10
6.08231
 20
28.5792
 11
6.41681
 21
28.4328
  0
LINE
  8
0
 10
6.41681
 20
28.4328
 11
6.79831
 21
28.384
  0
LINE
  8
0
 10
6.79831
 20
28.384
 11
7.14819
 21
28.4217
  0
LINE
  8
0
 10
-5.9805
 20
27.8245
 11
-6.20999
 21
27.874
  0
LINE
  8
0
 10
-6.20999
 20
27.874
 11
-6.40749
 21
27.9565
  0
LINE
  8
0
 10
-6.40749
 20
27.9565
 11
-6.573
 21
28.072
  0
LINE
  8
0
 10
-6.573
 20
28.072
 11
-6.71243
 21
28.2335
  0
LINE
  8
0
 10
-6.71243
 20
28.2335
 11
-6.83174
 21
28.454
  0
LINE
  8
0
 10
-6.83174
 20
28.454
 11
-6.93092
 21
28.7335
  0
LINE
  8
0
 10
-6.93092
 20
28.7335
 11
-7.00999
 21
29.072
  0
LINE
  8
0
 10
-7.00999
 20
29.072
 11
-7.16768
 21
28.8237
  0
LINE
  8
0
 10
-7.16768
 20
28.8237
 11
-7.34874
 21
28.5927
  0
LINE
  8
0
 10
-7.34874
 20
28.5927
 11
-7.55318
 21
28.3792
  0
LINE
  8
0
 10
-7.55318
 20
28.3792
 11
-7.78099
 21
28.183
  0
LINE
  8
0
 10
-7.78099
 20
28.183
 11
-8.02875
 21
28.0189
  0
LINE
  8
0
 10
-8.02875
 20
28.0189
 11
-8.293
 21
27.9018
  0
LINE
  8
0
 10
-8.293
 20
27.9018
 11
-8.57375
 21
27.8315
  0
LINE
  8
0
 10
-8.57375
 20
27.8315
 11
-8.87099
 21
27.808
  0
LINE
  8
0
 10
-8.87099
 20
27.808
 11
-9.21899
 21
27.825
  0
LINE
  8
0
 10
-9.21899
 20
27.825
 11
-9.53999
 21
27.876
  0
LINE
  8
0
 10
-9.53999
 20
27.876
 11
-9.834
 21
27.961
  0
LINE
  8
0
 10
-9.834
 20
27.961
 11
-10.101
 21
28.08
  0
LINE
  8
0
 10
-10.101
 20
28.08
 11
-10.3428
 21
28.2266
  0
LINE
  8
0
 10
-10.3428
 20
28.2266
 11
-10.5622
 21
28.3932
  0
LINE
  8
0
 10
-10.5622
 20
28.3932
 11
-10.7593
 21
28.58
  0
LINE
  8
0
 10
-10.7593
 20
28.58
 11
-10.934
 21
28.787
  0
LINE
  8
0
 10
-10.934
 20
28.787
 11
-11.0857
 21
29.0114
  0
LINE
  8
0
 10
-11.0857
 20
29.0114
 11
-11.215
 21
29.2505
  0
LINE
  8
0
 10
-11.215
 20
29.2505
 11
-11.3217
 21
29.5044
  0
LINE
  8
0
 10
-11.3217
 20
29.5044
 11
-11.406
 21
29.773
  0
LINE
  8
0
 10
-11.406
 20
29.773
 11
-11.4699
 21
30.0499
  0
LINE
  8
0
 10
-11.4699
 20
30.0499
 11
-11.5155
 21
30.3275
  0
LINE
  8
0
 10
-11.5155
 20
30.3275
 11
-11.5429
 21
30.6059
  0
LINE
  8
0
 10
-11.5429
 20
30.6059
 11
-11.552
 21
30.885
  0
LINE
  8
0
 10
-11.552
 20
30.885
 11
-11.5386
 21
31.2529
  0
LINE
  8
0
 10
-11.5386
 20
31.2529
 11
-11.4982
 21
31.6015
  0
LINE
  8
0
 10
-11.4982
 20
31.6015
 11
-11.4311
 21
31.9309
  0
LINE
  8
0
 10
-11.4311
 20
31.9309
 11
-11.337
 21
32.241
  0
LINE
  8
0
 10
-11.337
 20
32.241
 11
-11.2191
 21
32.5305
  0
LINE
  8
0
 10
-11.2191
 20
32.5305
 11
-11.0812
 21
32.7972
  0
LINE
  8
0
 10
-11.0812
 20
32.7972
 11
-10.9236
 21
33.0411
  0
LINE
  8
0
 10
-10.9236
 20
33.0411
 11
-10.746
 21
33.262
  0
LINE
  8
0
 10
-10.746
 20
33.262
 11
-10.5511
 21
33.4602
  0
LINE
  8
0
 10
-10.5511
 20
33.4602
 11
-10.3415
 21
33.6347
  0
LINE
  8
0
 10
-10.3415
 20
33.6347
 11
-10.1171
 21
33.7857
  0
LINE
  8
0
 10
-10.1171
 20
33.7857
 11
-9.87799
 21
33.913
  0
LINE
  8
0
 10
-9.87799
 20
33.913
 11
-9.62762
 21
34.0141
  0
LINE
  8
0
 10
-9.62762
 20
34.0141
 11
-9.36949
 21
34.0862
  0
LINE
  8
0
 10
-9.36949
 20
34.0862
 11
-9.10362
 21
34.1296
  0
LINE
  8
0
 10
-9.10362
 20
34.1296
 11
-8.82999
 21
34.144
  0
LINE
  8
0
 10
-8.82999
 20
34.144
 11
-8.58824
 21
34.1363
  0
LINE
  8
0
 10
-8.58824
 20
34.1363
 11
-8.36299
 21
34.1132
  0
LINE
  8
0
 10
-8.36299
 20
34.1132
 11
-8.15424
 21
34.0748
  0
LINE
  8
0
 10
-8.15424
 20
34.0748
 11
-7.96199
 21
34.021
  0
LINE
  8
0
 10
-7.96199
 20
34.021
 11
-7.78406
 21
33.952
  0
LINE
  8
0
 10
-7.78406
 20
33.952
 11
-7.61824
 21
33.867
  0
LINE
  8
0
 10
-7.61824
 20
33.867
 11
-7.46455
 21
33.766
  0
LINE
  8
0
 10
-7.46455
 20
33.766
 11
-7.323
 21
33.649
  0
LINE
  8
0
 10
-7.323
 20
33.649
 11
-7.19231
 21
33.5153
  0
LINE
  8
0
 10
-7.19231
 20
33.5153
 11
-7.07124
 21
33.3642
  0
LINE
  8
0
 10
-7.07124
 20
33.3642
 11
-6.95981
 21
33.1958
  0
LINE
  8
0
 10
-6.95981
 20
33.1958
 11
-6.85799
 21
33.01
  0
LINE
  8
0
 10
-6.85799
 20
33.01
 11
-6.76312
 21
32.8055
  0
LINE
  8
0
 10
-6.76312
 20
32.8055
 11
-6.67349
 21
32.58
  0
LINE
  8
0
 10
-6.67349
 20
32.58
 11
-6.58911
 21
32.3335
  0
LINE
  8
0
 10
-6.58911
 20
32.3335
 11
-6.50999
 21
32.066
  0
LINE
  8
0
 10
-6.50999
 20
32.066
 11
-6.45668
 21
32.2307
  0
LINE
  8
0
 10
-6.45668
 20
32.2307
 11
-6.40775
 21
32.4047
  0
LINE
  8
0
 10
-6.40775
 20
32.4047
 11
-6.36317
 21
32.5882
  0
LINE
  8
0
 10
-6.36317
 20
32.5882
 11
-6.323
 21
32.781
  0
LINE
  8
0
 10
-6.323
 20
32.781
 11
-6.28799
 21
32.9742
  0
LINE
  8
0
 10
-6.28799
 20
32.9742
 11
-6.25899
 21
33.158
  0
LINE
  8
0
 10
-6.25899
 20
33.158
 11
-6.23599
 21
33.3322
  0
LINE
  8
0
 10
-6.23599
 20
33.3322
 11
-6.21899
 21
33.497
  0
LINE
  8
0
 10
-6.21899
 20
33.497
 11
-6.19681
 21
33.6102
  0
LINE
  8
0
 10
-6.19681
 20
33.6102
 11
-6.15825
 21
33.7
  0
LINE
  8
0
 10
-6.15825
 20
33.7
 11
-6.1033
 21
33.7662
  0
LINE
  8
0
 10
-6.1033
 20
33.7662
 11
-6.032
 21
33.809
  0
LINE
  8
0
 10
-6.032
 20
33.809
 11
-5.93506
 21
33.8426
  0
LINE
  8
0
 10
-5.93506
 20
33.8426
 11
-5.80424
 21
33.8805
  0
LINE
  8
0
 10
-5.80424
 20
33.8805
 11
-5.63956
 21
33.9226
  0
LINE
  8
0
 10
-5.63956
 20
33.9226
 11
-5.44099
 21
33.969
  0
LINE
  8
0
 10
-5.44099
 20
33.969
 11
-4.98787
 21
34.0682
  0
LINE
  8
0
 10
-4.98787
 20
34.0682
 11
-4.94649
 21
34.0747
  0
LINE
  8
0
 10
-4.94649
 20
34.0747
 11
-4.90787
 21
34.0787
  0
LINE
  8
0
 10
-4.90787
 20
34.0787
 11
-4.87199
 21
34.08
  0
LINE
  8
0
 10
-4.87199
 20
34.08
 11
-4.82124
 21
34.076
  0
LINE
  8
0
 10
-4.82124
 20
34.076
 11
-4.78
 21
34.0642
  0
LINE
  8
0
 10
-4.78
 20
34.0642
 11
-4.74825
 21
34.0446
  0
LINE
  8
0
 10
-4.74825
 20
34.0446
 11
-4.726
 21
34.017
  0
LINE
  8
0
 10
-4.726
 20
34.017
 11
-4.71068
 21
33.9839
  0
LINE
  8
0
 10
-4.71068
 20
33.9839
 11
-4.69974
 21
33.9465
  0
LINE
  8
0
 10
-4.69974
 20
33.9465
 11
-4.69318
 21
33.9049
  0
LINE
  8
0
 10
-4.69318
 20
33.9049
 11
-4.69099
 21
33.859
  0
LINE
  8
0
 10
-4.69099
 20
33.859
 11
-4.71399
 21
33.5989
  0
LINE
  8
0
 10
-4.71399
 20
33.5989
 11
-4.78299
 21
33.2895
  0
LINE
  8
0
 10
-4.78299
 20
33.2895
 11
-4.89799
 21
32.9309
  0
LINE
  8
0
 10
-4.89799
 20
32.9309
 11
-5.05899
 21
32.523
  0
LINE
  8
0
 10
-5.05899
 20
32.523
 11
-5.25731
 21
32.0689
  0
LINE
  8
0
 10
-5.25731
 20
32.0689
 11
-5.48424
 21
31.5707
  0
LINE
  8
0
 10
-5.48424
 20
31.5707
 11
-5.73981
 21
31.0284
  0
LINE
  8
0
 10
-5.73981
 20
31.0284
 11
-6.02399
 21
30.442
  0
LINE
  8
0
 10
-6.02399
 20
30.442
 11
-5.96193
 21
30.1548
  0
LINE
  8
0
 10
-5.96193
 20
30.1548
 11
-5.90074
 21
29.9022
  0
LINE
  8
0
 10
-5.90074
 20
29.9022
 11
-5.84042
 21
29.6843
  0
LINE
  8
0
 10
-5.84042
 20
29.6843
 11
-5.78099
 21
29.501
  0
LINE
  8
0
 10
-5.78099
 20
29.501
 11
-5.72198
 21
29.3454
  0
LINE
  8
0
 10
-5.72198
 20
29.3454
 11
-5.66299
 21
29.2105
  0
LINE
  8
0
 10
-5.66299
 20
29.2105
 11
-5.60399
 21
29.0964
  0
LINE
  8
0
 10
-5.60399
 20
29.0964
 11
-5.545
 21
29.003
  0
LINE
  8
0
 10
-5.545
 20
29.003
 11
-5.48599
 21
28.9282
  0
LINE
  8
0
 10
-5.48599
 20
28.9282
 11
-5.42699
 21
28.8697
  0
LINE
  8
0
 10
-5.42699
 20
28.8697
 11
-5.368
 21
28.8277
  0
LINE
  8
0
 10
-5.368
 20
28.8277
 11
-5.30899
 21
28.802
  0
LINE
  8
0
 10
-5.30899
 20
28.802
 11
-5.2478
 21
28.7871
  0
LINE
  8
0
 10
-5.2478
 20
28.7871
 11
-5.18224
 21
28.7765
  0
LINE
  8
0
 10
-5.18224
 20
28.7765
 11
-5.1123
 21
28.7701
  0
LINE
  8
0
 10
-5.1123
 20
28.7701
 11
-5.03799
 21
28.768
  0
LINE
  8
0
 10
-5.03799
 20
28.768
 11
-4.97643
 21
28.7714
  0
LINE
  8
0
 10
-4.97643
 20
28.7714
 11
-4.90274
 21
28.7817
  0
LINE
  8
0
 10
-4.90274
 20
28.7817
 11
-4.81693
 21
28.7989
  0
LINE
  8
0
 10
-4.81693
 20
28.7989
 11
-4.71899
 21
28.823
  0
LINE
  8
0
 10
-4.71899
 20
28.823
 11
-4.61668
 21
28.8527
  0
LINE
  8
0
 10
-4.61668
 20
28.8527
 11
-4.51775
 21
28.8857
  0
LINE
  8
0
 10
-4.51775
 20
28.8857
 11
-4.42218
 21
28.9222
  0
LINE
  8
0
 10
-4.42218
 20
28.9222
 11
-4.32999
 21
28.962
  0
LINE
  8
0
 10
-4.32999
 20
28.962
 11
-4.27318
 21
28.9111
  0
LINE
  8
0
 10
-4.27318
 20
28.9111
 11
-4.22774
 21
28.8552
  0
LINE
  8
0
 10
-4.22774
 20
28.8552
 11
-4.19368
 21
28.7946
  0
LINE
  8
0
 10
-4.19368
 20
28.7946
 11
-4.17099
 21
28.729
  0
LINE
  8
0
 10
-4.17099
 20
28.729
 11
-4.15656
 21
28.6641
  0
LINE
  8
0
 10
-4.15656
 20
28.6641
 11
-4.14824
 21
28.6052
  0
LINE
  8
0
 10
-4.14824
 20
28.6052
 11
-4.14606
 21
28.5526
  0
LINE
  8
0
 10
-4.14606
 20
28.5526
 11
-4.14999
 21
28.506
  0
LINE
  8
0
 10
-4.14999
 20
28.506
 11
-4.21556
 21
28.4344
  0
LINE
  8
0
 10
-4.21556
 20
28.4344
 11
-4.28824
 21
28.3645
  0
LINE
  8
0
 10
-4.28824
 20
28.3645
 11
-4.36806
 21
28.2964
  0
LINE
  8
0
 10
-4.36806
 20
28.2964
 11
-4.45499
 21
28.23
  0
LINE
  8
0
 10
-4.45499
 20
28.23
 11
-4.54718
 21
28.1667
  0
LINE
  8
0
 10
-4.54718
 20
28.1667
 11
-4.64275
 21
28.108
  0
LINE
  8
0
 10
-4.64275
 20
28.108
 11
-4.74168
 21
28.0537
  0
LINE
  8
0
 10
-4.74168
 20
28.0537
 11
-4.84399
 21
28.004
  0
LINE
  8
0
 10
-4.84399
 20
28.004
 11
-4.94937
 21
27.9597
  0
LINE
  8
0
 10
-4.94937
 20
27.9597
 11
-5.0575
 21
27.9208
  0
LINE
  8
0
 10
-5.0575
 20
27.9208
 11
-5.16837
 21
27.8872
  0
LINE
  8
0
 10
-5.16837
 20
27.8872
 11
-5.282
 21
27.859
  0
LINE
  8
0
 10
-5.282
 20
27.859
 11
-5.39519
 21
27.8367
  0
LINE
  8
0
 10
-5.39519
 20
27.8367
 11
-5.50574
 21
27.8208
  0
LINE
  8
0
 10
-5.50574
 20
27.8208
 11
-5.61368
 21
27.8112
  0
LINE
  8
0
 10
-5.61368
 20
27.8112
 11
-5.71899
 21
27.808
  0
LINE
  8
0
 10
-5.71899
 20
27.808
 11
-5.9805
 21
27.8245
  0
LINE
  8
0
 10
-8.50793
 20
28.6717
 11
-8.28674
 21
28.767
  0
LINE
  8
0
 10
-8.28674
 20
28.767
 11
-8.08043
 21
28.9257
  0
LINE
  8
0
 10
-8.08043
 20
28.9257
 11
-7.88899
 21
29.148
  0
LINE
  8
0
 10
-7.88899
 20
29.148
 11
-7.71155
 21
29.4221
  0
LINE
  8
0
 10
-7.71155
 20
29.4221
 11
-7.54724
 21
29.7352
  0
LINE
  8
0
 10
-7.54724
 20
29.7352
 11
-7.39606
 21
30.0876
  0
LINE
  8
0
 10
-7.39606
 20
30.0876
 11
-7.258
 21
30.479
  0
LINE
  8
0
 10
-7.258
 20
30.479
 11
-7.28249
 21
30.6748
  0
LINE
  8
0
 10
-7.28249
 20
30.6748
 11
-7.31499
 21
30.8862
  0
LINE
  8
0
 10
-7.31499
 20
30.8862
 11
-7.3555
 21
31.1133
  0
LINE
  8
0
 10
-7.3555
 20
31.1133
 11
-7.40399
 21
31.356
  0
LINE
  8
0
 10
-7.40399
 20
31.356
 11
-7.46118
 21
31.6034
  0
LINE
  8
0
 10
-7.46118
 20
31.6034
 11
-7.52875
 21
31.8438
  0
LINE
  8
0
 10
-7.52875
 20
31.8438
 11
-7.60667
 21
32.0769
  0
LINE
  8
0
 10
-7.60667
 20
32.0769
 11
-7.69499
 21
32.303
  0
LINE
  8
0
 10
-7.69499
 20
32.303
 11
-7.79417
 21
32.5177
  0
LINE
  8
0
 10
-7.79417
 20
32.5177
 11
-7.90474
 21
32.7157
  0
LINE
  8
0
 10
-7.90474
 20
32.7157
 11
-8.02667
 21
32.8972
  0
LINE
  8
0
 10
-8.02667
 20
32.8972
 11
-8.15999
 21
33.062
  0
LINE
  8
0
 10
-8.15999
 20
33.062
 11
-8.30592
 21
33.1994
  0
LINE
  8
0
 10
-8.30592
 20
33.1994
 11
-8.46574
 21
33.2975
  0
LINE
  8
0
 10
-8.46574
 20
33.2975
 11
-8.63943
 21
33.3564
  0
LINE
  8
0
 10
-8.63943
 20
33.3564
 11
-8.827
 21
33.376
  0
LINE
  8
0
 10
-8.827
 20
33.376
 11
-9.071
 21
33.3416
  0
LINE
  8
0
 10
-9.071
 20
33.3416
 11
-9.28899
 21
33.2385
  0
LINE
  8
0
 10
-9.28899
 20
33.2385
 11
-9.48099
 21
33.0666
  0
LINE
  8
0
 10
-9.48099
 20
33.0666
 11
-9.64699
 21
32.826
  0
LINE
  8
0
 10
-9.64699
 20
32.826
 11
-9.78043
 21
32.5201
  0
LINE
  8
0
 10
-9.78043
 20
32.5201
 11
-9.87575
 21
32.1522
  0
LINE
  8
0
 10
-9.87575
 20
32.1522
 11
-9.93292
 21
31.7225
  0
LINE
  8
0
 10
-9.93292
 20
31.7225
 11
-9.952
 21
31.231
  0
LINE
  8
0
 10
-9.952
 20
31.231
 11
-9.93336
 21
30.6747
  0
LINE
  8
0
 10
-9.93336
 20
30.6747
 11
-9.87749
 21
30.1757
  0
LINE
  8
0
 10
-9.87749
 20
30.1757
 11
-9.78436
 21
29.7342
  0
LINE
  8
0
 10
-9.78436
 20
29.7342
 11
-9.65399
 21
29.35
  0
LINE
  8
0
 10
-9.65399
 20
29.35
 11
-9.48499
 21
29.0394
  0
LINE
  8
0
 10
-9.48499
 20
29.0394
 11
-9.27699
 21
28.8175
  0
LINE
  8
0
 10
-9.27699
 20
28.8175
 11
-9.03
 21
28.6844
  0
LINE
  8
0
 10
-9.03
 20
28.6844
 11
-8.74399
 21
28.64
  0
LINE
  8
0
 10
-8.74399
 20
28.64
 11
-8.50793
 21
28.6717
  0
LINE
  8
0
 10
16.56
 20
27.9486
 11
16.1085
 21
27.9711
  0
LINE
  8
0
 10
16.1085
 20
27.9711
 11
15.6241
 21
27.9893
  0
LINE
  8
0
 10
15.6241
 20
27.9893
 11
15.2006
 21
27.9988
  0
LINE
  8
0
 10
15.2006
 20
27.9988
 11
15.0175
 21
28
  0
LINE
  8
0
 10
15.0175
 20
28
 11
14.8354
 21
27.9988
  0
LINE
  8
0
 10
14.8354
 20
27.9988
 11
14.6358
 21
27.9953
  0
LINE
  8
0
 10
14.6358
 20
27.9953
 11
14.1846
 21
27.981
  0
LINE
  8
0
 10
14.1846
 20
27.981
 11
13.7193
 21
27.9603
  0
LINE
  8
0
 10
13.7193
 20
27.9603
 11
13.2955
 21
27.936
  0
LINE
  8
0
 10
13.2955
 20
27.936
 11
13.2833
 21
27.9657
  0
LINE
  8
0
 10
13.2833
 20
27.9657
 11
13.2746
 21
27.9988
  0
LINE
  8
0
 10
13.2746
 20
27.9988
 11
13.2693
 21
28.0352
  0
LINE
  8
0
 10
13.2693
 20
28.0352
 11
13.2675
 21
28.075
  0
LINE
  8
0
 10
13.2675
 20
28.075
 11
13.2675
 21
28.2
  0
LINE
  8
0
 10
13.2675
 20
28.2
 11
13.2706
 21
28.2511
  0
LINE
  8
0
 10
13.2706
 20
28.2511
 11
13.2795
 21
28.2925
  0
LINE
  8
0
 10
13.2795
 20
28.2925
 11
13.2945
 21
28.3241
  0
LINE
  8
0
 10
13.2945
 20
28.3241
 11
13.3156
 21
28.346
  0
LINE
  8
0
 10
13.3156
 20
28.346
 11
13.3414
 21
28.3631
  0
LINE
  8
0
 10
13.3414
 20
28.3631
 11
13.3698
 21
28.3792
  0
LINE
  8
0
 10
13.3698
 20
28.3792
 11
13.4346
 21
28.409
  0
LINE
  8
0
 10
13.4346
 20
28.409
 11
13.5819
 21
28.4308
  0
LINE
  8
0
 10
13.5819
 20
28.4308
 11
13.705
 21
28.4542
  0
LINE
  8
0
 10
13.705
 20
28.4542
 11
13.8039
 21
28.4793
  0
LINE
  8
0
 10
13.8039
 20
28.4793
 11
13.8785
 21
28.506
  0
LINE
  8
0
 10
13.8785
 20
28.506
 11
13.9332
 21
28.5374
  0
LINE
  8
0
 10
13.9332
 20
28.5374
 11
13.9723
 21
28.5757
  0
LINE
  8
0
 10
13.9723
 20
28.5757
 11
13.9957
 21
28.6209
  0
LINE
  8
0
 10
13.9957
 20
28.6209
 11
14.0035
 21
28.673
  0
LINE
  8
0
 10
14.0035
 20
28.673
 11
13.994
 21
28.7297
  0
LINE
  8
0
 10
13.994
 20
28.7297
 11
13.9653
 21
28.802
  0
LINE
  8
0
 10
13.9653
 20
28.802
 11
13.9175
 21
28.8897
  0
LINE
  8
0
 10
13.9175
 20
28.8897
 11
13.8505
 21
28.993
  0
LINE
  8
0
 10
13.8505
 20
28.993
 11
12.7955
 21
30.482
  0
LINE
  8
0
 10
12.7955
 20
30.482
 11
11.8515
 21
29.063
  0
LINE
  8
0
 10
11.8515
 20
29.063
 11
11.7969
 21
28.9707
  0
LINE
  8
0
 10
11.7969
 20
28.9707
 11
11.7578
 21
28.889
  0
LINE
  8
0
 10
11.7578
 20
28.889
 11
11.7344
 21
28.8177
  0
LINE
  8
0
 10
11.7344
 20
28.8177
 11
11.7265
 21
28.757
  0
LINE
  8
0
 10
11.7265
 20
28.757
 11
11.7361
 21
28.6975
  0
LINE
  8
0
 10
11.7361
 20
28.6975
 11
11.7645
 21
28.644
  0
LINE
  8
0
 10
11.7645
 20
28.644
 11
11.812
 21
28.5965
  0
LINE
  8
0
 10
11.812
 20
28.5965
 11
11.8785
 21
28.555
  0
LINE
  8
0
 10
11.8785
 20
28.555
 11
11.968
 21
28.5174
  0
LINE
  8
0
 10
11.968
 20
28.5174
 11
12.0835
 21
28.4805
  0
LINE
  8
0
 10
12.0835
 20
28.4805
 11
12.2251
 21
28.4444
  0
LINE
  8
0
 10
12.2251
 20
28.4444
 11
12.3925
 21
28.409
  0
LINE
  8
0
 10
12.3925
 20
28.409
 11
12.4262
 21
28.3941
  0
LINE
  8
0
 10
12.4262
 20
28.3941
 11
12.457
 21
28.3775
  0
LINE
  8
0
 10
12.457
 20
28.3775
 11
12.4852
 21
28.3591
  0
LINE
  8
0
 10
12.4852
 20
28.3591
 11
12.5105
 21
28.339
  0
LINE
  8
0
 10
12.5105
 20
28.339
 11
12.532
 21
28.3141
  0
LINE
  8
0
 10
12.532
 20
28.3141
 11
12.5473
 21
28.2802
  0
LINE
  8
0
 10
12.5473
 20
28.2802
 11
12.5565
 21
28.2375
  0
LINE
  8
0
 10
12.5565
 20
28.2375
 11
12.5596
 21
28.186
  0
LINE
  8
0
 10
12.5596
 20
28.186
 11
12.5596
 21
28.068
  0
LINE
  8
0
 10
12.5596
 20
28.068
 11
12.5578
 21
28.0312
  0
LINE
  8
0
 10
12.5578
 20
28.0312
 11
12.5526
 21
27.997
  0
LINE
  8
0
 10
12.5526
 20
27.997
 11
12.5438
 21
27.9653
  0
LINE
  8
0
 10
12.5438
 20
27.9653
 11
12.5315
 21
27.936
  0
LINE
  8
0
 10
12.5315
 20
27.936
 11
12.1825
 21
27.9603
  0
LINE
  8
0
 10
12.1825
 20
27.9603
 11
11.6985
 21
27.9893
  0
LINE
  8
0
 10
11.6985
 20
27.9893
 11
11.5333
 21
27.9953
  0
LINE
  8
0
 10
11.5333
 20
27.9953
 11
11.362
 21
27.9988
  0
LINE
  8
0
 10
11.362
 20
27.9988
 11
11.1846
 21
28
  0
LINE
  8
0
 10
11.1846
 20
28
 11
11.0229
 21
27.9988
  0
LINE
  8
0
 10
11.0229
 20
27.9988
 11
10.8578
 21
27.9953
  0
LINE
  8
0
 10
10.8578
 20
27.9953
 11
10.6894
 21
27.9893
  0
LINE
  8
0
 10
10.6894
 20
27.9893
 11
10.3432
 21
27.9711
  0
LINE
  8
0
 10
10.3432
 20
27.9711
 11
9.80956
 21
27.936
  0
LINE
  8
0
 10
9.80956
 20
27.936
 11
9.7973
 21
28.0037
  0
LINE
  8
0
 10
9.7973
 20
28.0037
 11
9.78854
 21
28.068
  0
LINE
  8
0
 10
9.78854
 20
28.068
 11
9.78329
 21
28.1287
  0
LINE
  8
0
 10
9.78329
 20
28.1287
 11
9.78154
 21
28.186
  0
LINE
  8
0
 10
9.78154
 20
28.186
 11
9.79286
 21
28.2678
  0
LINE
  8
0
 10
9.79286
 20
28.2678
 11
9.8268
 21
28.3322
  0
LINE
  8
0
 10
9.8268
 20
28.3322
 11
9.88336
 21
28.3793
  0
LINE
  8
0
 10
9.88336
 20
28.3793
 11
9.96255
 21
28.409
  0
LINE
  8
0
 10
9.96255
 20
28.409
 11
10.0631
 21
28.4304
  0
LINE
  8
0
 10
10.0631
 20
28.4304
 11
10.1568
 21
28.4525
  0
LINE
  8
0
 10
10.1568
 20
28.4525
 11
10.2436
 21
28.4754
  0
LINE
  8
0
 10
10.2436
 20
28.4754
 11
10.3235
 21
28.499
  0
LINE
  8
0
 10
10.3235
 20
28.499
 11
10.3979
 21
28.5247
  0
LINE
  8
0
 10
10.3979
 20
28.5247
 11
10.4678
 21
28.553
  0
LINE
  8
0
 10
10.4678
 20
28.553
 11
10.5334
 21
28.5837
  0
LINE
  8
0
 10
10.5334
 20
28.5837
 11
10.5945
 21
28.617
  0
LINE
  8
0
 10
10.5945
 20
28.617
 11
10.6518
 21
28.6532
  0
LINE
  8
0
 10
10.6518
 20
28.6532
 11
10.7056
 21
28.692
  0
LINE
  8
0
 10
10.7056
 20
28.692
 11
10.7558
 21
28.7332
  0
LINE
  8
0
 10
10.7558
 20
28.7332
 11
10.8026
 21
28.777
  0
LINE
  8
0
 10
10.8026
 20
28.777
 11
10.848
 21
28.8255
  0
LINE
  8
0
 10
10.848
 20
28.8255
 11
10.8943
 21
28.88
  0
LINE
  8
0
 10
10.8943
 20
28.88
 11
10.9415
 21
28.9405
  0
LINE
  8
0
 10
10.9415
 20
28.9405
 11
10.9895
 21
29.007
  0
LINE
  8
0
 10
10.9895
 20
29.007
 11
12.3785
 21
31.039
  0
LINE
  8
0
 10
12.3785
 20
31.039
 11
10.8645
 21
33.167
  0
LINE
  8
0
 10
10.8645
 20
33.167
 11
10.7994
 21
33.2452
  0
LINE
  8
0
 10
10.7994
 20
33.2452
 11
10.729
 21
33.313
  0
LINE
  8
0
 10
10.729
 20
33.313
 11
10.6534
 21
33.3702
  0
LINE
  8
0
 10
10.6534
 20
33.3702
 11
10.5725
 21
33.417
  0
LINE
  8
0
 10
10.5725
 20
33.417
 11
10.4782
 21
33.4564
  0
LINE
  8
0
 10
10.4782
 20
33.4564
 11
10.3613
 21
33.4905
  0
LINE
  8
0
 10
10.3613
 20
33.4905
 11
10.2217
 21
33.5194
  0
LINE
  8
0
 10
10.2217
 20
33.5194
 11
10.0596
 21
33.543
  0
LINE
  8
0
 10
10.0596
 20
33.543
 11
9.98036
 21
33.5674
  0
LINE
  8
0
 10
9.98036
 20
33.5674
 11
9.9238
 21
33.6127
  0
LINE
  8
0
 10
9.9238
 20
33.6127
 11
9.88986
 21
33.6789
  0
LINE
  8
0
 10
9.88986
 20
33.6789
 11
9.87854
 21
33.766
  0
LINE
  8
0
 10
9.87854
 20
33.766
 11
9.88118
 21
33.818
  0
LINE
  8
0
 10
9.88118
 20
33.818
 11
9.88905
 21
33.877
  0
LINE
  8
0
 10
9.88905
 20
33.877
 11
9.90218
 21
33.943
  0
LINE
  8
0
 10
9.90218
 20
33.943
 11
9.92055
 21
34.016
  0
LINE
  8
0
 10
9.92055
 20
34.016
 11
10.1041
 21
33.9965
  0
LINE
  8
0
 10
10.1041
 20
33.9965
 11
10.2938
 21
33.981
  0
LINE
  8
0
 10
10.2938
 20
33.981
 11
10.4896
 21
33.9695
  0
LINE
  8
0
 10
10.4896
 20
33.9695
 11
10.6915
 21
33.962
  0
LINE
  8
0
 10
10.6915
 20
33.962
 11
11.103
 21
33.9545
  0
LINE
  8
0
 10
11.103
 20
33.9545
 11
11.5175
 21
33.952
  0
LINE
  8
0
 10
11.5175
 20
33.952
 11
12.0123
 21
33.9545
  0
LINE
  8
0
 10
12.0123
 20
33.9545
 11
12.5246
 21
33.962
  0
LINE
  8
0
 10
12.5246
 20
33.962
 11
12.7742
 21
33.9695
  0
LINE
  8
0
 10
12.7742
 20
33.9695
 11
13.002
 21
33.981
  0
LINE
  8
0
 10
13.002
 20
33.981
 11
13.2082
 21
33.9965
  0
LINE
  8
0
 10
13.2082
 20
33.9965
 11
13.3925
 21
34.016
  0
LINE
  8
0
 10
13.3925
 20
34.016
 11
13.431
 21
33.8417
  0
LINE
  8
0
 10
13.431
 20
33.8417
 11
13.4346
 21
33.807
  0
LINE
  8
0
 10
13.4346
 20
33.807
 11
13.4319
 21
33.7663
  0
LINE
  8
0
 10
13.4319
 20
33.7663
 11
13.424
 21
33.7272
  0
LINE
  8
0
 10
13.424
 20
33.7272
 11
13.4109
 21
33.6898
  0
LINE
  8
0
 10
13.4109
 20
33.6898
 11
13.3925
 21
33.654
  0
LINE
  8
0
 10
13.3925
 20
33.654
 11
13.3681
 21
33.6229
  0
LINE
  8
0
 10
13.3681
 20
33.6229
 11
13.3368
 21
33.5987
  0
LINE
  8
0
 10
13.3368
 20
33.5987
 11
13.2986
 21
33.5814
  0
LINE
  8
0
 10
13.2986
 20
33.5814
 11
13.2535
 21
33.571
  0
LINE
  8
0
 10
13.2535
 20
33.571
 11
13.0896
 21
33.5491
  0
LINE
  8
0
 10
13.0896
 20
33.5491
 11
12.9585
 21
33.5255
  0
LINE
  8
0
 10
12.9585
 20
33.5255
 11
12.8605
 21
33.5001
  0
LINE
  8
0
 10
12.8605
 20
33.5001
 11
12.7955
 21
33.473
  0
LINE
  8
0
 10
12.7955
 20
33.473
 11
12.7531
 21
33.4419
  0
LINE
  8
0
 10
12.7531
 20
33.4419
 11
12.7228
 21
33.4037
  0
LINE
  8
0
 10
12.7228
 20
33.4037
 11
12.7046
 21
33.3584
  0
LINE
  8
0
 10
12.7046
 20
33.3584
 11
12.6985
 21
33.306
  0
LINE
  8
0
 10
12.6985
 20
33.306
 11
12.7107
 21
33.2278
  0
LINE
  8
0
 10
12.7107
 20
33.2278
 11
12.7471
 21
33.1322
  0
LINE
  8
0
 10
12.7471
 20
33.1322
 11
12.8077
 21
33.0193
  0
LINE
  8
0
 10
12.8077
 20
33.0193
 11
12.8925
 21
32.889
  0
LINE
  8
0
 10
12.8925
 20
32.889
 11
13.7675
 21
31.734
  0
LINE
  8
0
 10
13.7675
 20
31.734
 11
14.7255
 21
33.139
  0
LINE
  8
0
 10
14.7255
 20
33.139
 11
14.7684
 21
33.2147
  0
LINE
  8
0
 10
14.7684
 20
33.2147
 11
14.799
 21
33.2747
  0
LINE
  8
0
 10
14.799
 20
33.2747
 11
14.8174
 21
33.3192
  0
LINE
  8
0
 10
14.8174
 20
33.3192
 11
14.8235
 21
33.348
  0
LINE
  8
0
 10
14.8235
 20
33.348
 11
14.8196
 21
33.382
  0
LINE
  8
0
 10
14.8196
 20
33.382
 11
14.8078
 21
33.4142
  0
LINE
  8
0
 10
14.8078
 20
33.4142
 11
14.7881
 21
33.4445
  0
LINE
  8
0
 10
14.7881
 20
33.4445
 11
14.7605
 21
33.473
  0
LINE
  8
0
 10
14.7605
 20
33.473
 11
14.7169
 21
33.5001
  0
LINE
  8
0
 10
14.7169
 20
33.5001
 11
14.648
 21
33.5255
  0
LINE
  8
0
 10
14.648
 20
33.5255
 11
14.5539
 21
33.5491
  0
LINE
  8
0
 10
14.5539
 20
33.5491
 11
14.4346
 21
33.571
  0
LINE
  8
0
 10
14.4346
 20
33.571
 11
14.3554
 21
33.591
  0
LINE
  8
0
 10
14.3554
 20
33.591
 11
14.2988
 21
33.637
  0
LINE
  8
0
 10
14.2988
 20
33.637
 11
14.2649
 21
33.709
  0
LINE
  8
0
 10
14.2649
 20
33.709
 11
14.2535
 21
33.807
  0
LINE
  8
0
 10
14.2535
 20
33.807
 11
14.254
 21
33.8227
  0
LINE
  8
0
 10
14.254
 20
33.8227
 11
14.2654
 21
33.9189
  0
LINE
  8
0
 10
14.2654
 20
33.9189
 11
14.2728
 21
33.9495
  0
LINE
  8
0
 10
14.2728
 20
33.9495
 11
14.2955
 21
34.016
  0
LINE
  8
0
 10
14.2955
 20
34.016
 11
14.5722
 21
33.988
  0
LINE
  8
0
 10
14.5722
 20
33.988
 11
14.8611
 21
33.968
  0
LINE
  8
0
 10
14.8611
 20
33.968
 11
15.1622
 21
33.956
  0
LINE
  8
0
 10
15.1622
 20
33.956
 11
15.4755
 21
33.952
  0
LINE
  8
0
 10
15.4755
 20
33.952
 11
15.75
 21
33.956
  0
LINE
  8
0
 10
15.75
 20
33.956
 11
16.0175
 21
33.968
  0
LINE
  8
0
 10
16.0175
 20
33.968
 11
16.278
 21
33.988
  0
LINE
  8
0
 10
16.278
 20
33.988
 11
16.5315
 21
34.016
  0
LINE
  8
0
 10
16.5315
 20
34.016
 11
16.5442
 21
33.981
  0
LINE
  8
0
 10
16.5442
 20
33.981
 11
16.554
 21
33.946
  0
LINE
  8
0
 10
16.554
 20
33.946
 11
16.5612
 21
33.911
  0
LINE
  8
0
 10
16.5612
 20
33.911
 11
16.5656
 21
33.876
  0
LINE
  8
0
 10
16.5656
 20
33.876
 11
16.5725
 21
33.766
  0
LINE
  8
0
 10
16.5725
 20
33.766
 11
16.5613
 21
33.6798
  0
LINE
  8
0
 10
16.5613
 20
33.6798
 11
16.5275
 21
33.6162
  0
LINE
  8
0
 10
16.5275
 20
33.6162
 11
16.4713
 21
33.5753
  0
LINE
  8
0
 10
16.4713
 20
33.5753
 11
16.3925
 21
33.557
  0
LINE
  8
0
 10
16.3925
 20
33.557
 11
16.2058
 21
33.5329
  0
LINE
  8
0
 10
16.2058
 20
33.5329
 11
16.0486
 21
33.5027
  0
LINE
  8
0
 10
16.0486
 20
33.5027
 11
15.9208
 21
33.4664
  0
LINE
  8
0
 10
15.9208
 20
33.4664
 11
15.8225
 21
33.424
  0
LINE
  8
0
 10
15.8225
 20
33.424
 11
15.7395
 21
33.3699
  0
LINE
  8
0
 10
15.7395
 20
33.3699
 11
15.6563
 21
33.2975
  0
LINE
  8
0
 10
15.6563
 20
33.2975
 11
15.573
 21
33.2069
  0
LINE
  8
0
 10
15.573
 20
33.2069
 11
15.4895
 21
33.098
  0
LINE
  8
0
 10
15.4895
 20
33.098
 11
14.1846
 21
31.164
  0
LINE
  8
0
 10
14.1846
 20
31.164
 11
15.6846
 21
29.035
  0
LINE
  8
0
 10
15.6846
 20
29.035
 11
15.7995
 21
28.8876
  0
LINE
  8
0
 10
15.7995
 20
28.8876
 11
15.9083
 21
28.7655
  0
LINE
  8
0
 10
15.9083
 20
28.7655
 11
16.011
 21
28.6686
  0
LINE
  8
0
 10
16.011
 20
28.6686
 11
16.1076
 21
28.597
  0
LINE
  8
0
 10
16.1076
 20
28.597
 11
16.2089
 21
28.5419
  0
LINE
  8
0
 10
16.2089
 20
28.5419
 11
16.3248
 21
28.4945
  0
LINE
  8
0
 10
16.3248
 20
28.4945
 11
16.4554
 21
28.4549
  0
LINE
  8
0
 10
16.4554
 20
28.4549
 11
16.6006
 21
28.423
  0
LINE
  8
0
 10
16.6006
 20
28.423
 11
16.6859
 21
28.3924
  0
LINE
  8
0
 10
16.6859
 20
28.3924
 11
16.7468
 21
28.3427
  0
LINE
  8
0
 10
16.7468
 20
28.3427
 11
16.7834
 21
28.2739
  0
LINE
  8
0
 10
16.7834
 20
28.2739
 11
16.7956
 21
28.186
  0
LINE
  8
0
 10
16.7956
 20
28.186
 11
16.7938
 21
28.1287
  0
LINE
  8
0
 10
16.7938
 20
28.1287
 11
16.7886
 21
28.068
  0
LINE
  8
0
 10
16.7886
 20
28.068
 11
16.7798
 21
28.0037
  0
LINE
  8
0
 10
16.7798
 20
28.0037
 11
16.7676
 21
27.936
  0
LINE
  8
0
 10
16.7676
 20
27.936
 11
16.56
 21
27.9486
  0
LINE
  8
0
 10
159.121
 20
30.4236
 11
160.346
 21
31.6921
  0
LINE
  8
0
 10
160.346
 20
31.6921
 11
161.931
 21
30.9191
  0
LINE
  8
0
 10
161.931
 20
30.9191
 11
161.686
 21
29.1729
  0
LINE
  8
0
 10
161.686
 20
29.1729
 11
159.949
 21
28.8667
  0
LINE
  8
0
 10
159.949
 20
28.8667
 11
159.121
 21
30.4236
  0
LINE
  8
0
 10
125.466
 20
29.3444
 11
126.691
 21
30.6129
  0
LINE
  8
0
 10
126.691
 20
30.6129
 11
128.276
 21
29.8399
  0
LINE
  8
0
 10
128.276
 20
29.8399
 11
128.03
 21
28.0937
  0
LINE
  8
0
 10
128.03
 20
28.0937
 11
126.294
 21
27.7875
  0
LINE
  8
0
 10
126.294
 20
27.7875
 11
125.466
 21
29.3444
  0
LINE
  8
0
 10
91.8102
 20
28.2652
 11
93.0351
 21
29.5336
  0
LINE
  8
0
 10
93.0351
 20
29.5336
 11
94.62
 21
28.7606
  0
LINE
  8
0
 10
94.62
 20
28.7606
 11
94.3746
 21
27.0144
  0
LINE
  8
0
 10
94.3746
 20
27.0144
 11
92.638
 21
26.7082
  0
LINE
  8
0
 10
92.638
 20
26.7082
 11
91.8102
 21
28.2652
  0
LINE
  8
0
 10
58.1546
 20
27.186
 11
59.3795
 21
28.4544
  0
LINE
  8
0
 10
59.3795
 20
28.4544
 11
60.9644
 21
27.6814
  0
LINE
  8
0
 10
60.9644
 20
27.6814
 11
60.719
 21
25.9352
  0
LINE
  8
0
 10
60.719
 20
25.9352
 11
58.9825
 21
25.629
  0
LINE
  8
0
 10
58.9825
 20
25.629
 11
58.1546
 21
27.186
  0
LINE
  8
0
 10
24.499
 20
26.1068
 11
25.724
 21
27.3752
  0
LINE
  8
0
 10
25.724
 20
27.3752
 11
27.3089
 21
26.6022
  0
LINE
  8
0
 10
27.3089
 20
26.6022
 11
27.0634
 21
24.856
  0
LINE
  8
0
 10
27.0634
 20
24.856
 11
25.3269
 21
24.5498
  0
LINE
  8
0
 10
25.3269
 20
24.5498
 11
24.499
 21
26.1068
  0
LINE
  8
0
 10
140.666
 20
6.50706
 11
139.799
 21
6.35417
  0
LINE
  8
0
 10
139.799
 20
6.35417
 11
137.408
 21
19.915
  0
LINE
  8
0
 10
137.408
 20
19.915
 11
138.275
 21
20.0679
  0
LINE
  8
0
 10
138.275
 20
20.0679
 11
138.116
 21
20.9668
  0
LINE
  8
0
 10
138.116
 20
20.9668
 11
141.563
 21
21.5746
  0
LINE
  8
0
 10
141.563
 20
21.5746
 11
141.722
 21
20.6756
  0
LINE
  8
0
 10
141.722
 20
20.6756
 11
146.655
 21
21.5454
  0
LINE
  8
0
 10
146.655
 20
21.5454
 11
146.496
 21
22.4444
  0
LINE
  8
0
 10
146.496
 20
22.4444
 11
149.943
 21
23.0521
  0
LINE
  8
0
 10
149.943
 20
23.0521
 11
150.102
 21
22.1532
  0
LINE
  8
0
 10
150.102
 20
22.1532
 11
150.969
 21
22.3061
  0
LINE
  8
0
 10
150.969
 20
22.3061
 11
153.36
 21
8.74532
  0
LINE
  8
0
 10
153.36
 20
8.74532
 11
152.493
 21
8.59242
  0
LINE
  8
0
 10
152.493
 20
8.59242
 11
152.651
 21
7.6935
  0
LINE
  8
0
 10
152.651
 20
7.6935
 11
149.204
 21
7.08571
  0
LINE
  8
0
 10
149.204
 20
7.08571
 11
149.046
 21
7.98463
  0
LINE
  8
0
 10
149.046
 20
7.98463
 11
144.113
 21
7.11485
  0
LINE
  8
0
 10
144.113
 20
7.11485
 11
144.272
 21
6.21593
  0
LINE
  8
0
 10
144.272
 20
6.21593
 11
140.825
 21
5.60814
  0
LINE
  8
0
 10
140.825
 20
5.60814
 11
140.666
 21
6.50706
  0
LINE
  8
0
 10
107.42
 20
5.98245
 11
106.529
 21
5.82523
  0
LINE
  8
0
 10
106.529
 20
5.82523
 11
104.129
 21
19.4352
  0
LINE
  8
0
 10
104.129
 20
19.4352
 11
105.021
 21
19.5925
  0
LINE
  8
0
 10
105.021
 20
19.5925
 11
104.866
 21
20.4668
  0
LINE
  8
0
 10
104.866
 20
20.4668
 11
108.313
 21
21.0746
  0
LINE
  8
0
 10
108.313
 20
21.0746
 11
108.468
 21
20.2003
  0
LINE
  8
0
 10
108.468
 20
20.2003
 11
113.4
 21
21.07
  0
LINE
  8
0
 10
113.4
 20
21.07
 11
113.246
 21
21.9444
  0
LINE
  8
0
 10
113.246
 20
21.9444
 11
116.693
 21
22.5521
  0
LINE
  8
0
 10
116.693
 20
22.5521
 11
116.847
 21
21.6778
  0
LINE
  8
0
 10
116.847
 20
21.6778
 11
117.739
 21
21.8351
  0
LINE
  8
0
 10
117.739
 20
21.8351
 11
120.139
 21
8.22504
  0
LINE
  8
0
 10
120.139
 20
8.22504
 11
119.247
 21
8.06781
  0
LINE
  8
0
 10
119.247
 20
8.06781
 11
119.401
 21
7.1935
  0
LINE
  8
0
 10
119.401
 20
7.1935
 11
115.954
 21
6.58571
  0
LINE
  8
0
 10
115.954
 20
6.58571
 11
115.8
 21
7.46002
  0
LINE
  8
0
 10
115.8
 20
7.46002
 11
110.867
 21
6.59024
  0
LINE
  8
0
 10
110.867
 20
6.59024
 11
111.022
 21
5.71593
  0
LINE
  8
0
 10
111.022
 20
5.71593
 11
107.575
 21
5.10814
  0
LINE
  8
0
 10
107.575
 20
5.10814
 11
107.42
 21
5.98245
  0
LINE
  8
0
 10
74.1748
 20
5.45782
 11
73.2585
 21
5.29625
  0
LINE
  8
0
 10
73.2585
 20
5.29625
 11
70.85
 21
18.9555
  0
LINE
  8
0
 10
70.85
 20
18.9555
 11
71.7663
 21
19.1171
  0
LINE
  8
0
 10
71.7663
 20
19.1171
 11
71.6165
 21
19.9668
  0
LINE
  8
0
 10
71.6165
 20
19.9668
 11
75.0634
 21
20.5746
  0
LINE
  8
0
 10
75.0634
 20
20.5746
 11
75.2132
 21
19.7249
  0
LINE
  8
0
 10
75.2132
 20
19.7249
 11
80.146
 21
20.5947
  0
LINE
  8
0
 10
80.146
 20
20.5947
 11
79.9962
 21
21.4444
  0
LINE
  8
0
 10
79.9962
 20
21.4444
 11
83.4431
 21
22.0521
  0
LINE
  8
0
 10
83.4431
 20
22.0521
 11
83.5929
 21
21.2025
  0
LINE
  8
0
 10
83.5929
 20
21.2025
 11
84.5092
 21
21.364
  0
LINE
  8
0
 10
84.5092
 20
21.364
 11
86.9177
 21
7.70474
  0
LINE
  8
0
 10
86.9177
 20
7.70474
 11
86.0014
 21
7.54318
  0
LINE
  8
0
 10
86.0014
 20
7.54318
 11
86.1512
 21
6.6935
  0
LINE
  8
0
 10
86.1512
 20
6.6935
 11
82.7043
 21
6.08571
  0
LINE
  8
0
 10
82.7043
 20
6.08571
 11
82.5545
 21
6.93539
  0
LINE
  8
0
 10
82.5545
 20
6.93539
 11
77.6217
 21
6.06561
  0
LINE
  8
0
 10
77.6217
 20
6.06561
 11
77.7715
 21
5.21593
  0
LINE
  8
0
 10
77.7715
 20
5.21593
 11
74.3246
 21
4.60814
  0
LINE
  8
0
 10
74.3246
 20
4.60814
 11
74.1748
 21
5.45782
  0
LINE
  8
0
 10
40.9291
 20
4.93321
 11
39.9882
 21
4.76729
  0
LINE
  8
0
 10
39.9882
 20
4.76729
 11
37.571
 21
18.4758
  0
LINE
  8
0
 10
37.571
 20
18.4758
 11
38.5119
 21
18.6417
  0
LINE
  8
0
 10
38.5119
 20
18.6417
 11
38.3665
 21
19.4668
  0
LINE
  8
0
 10
38.3665
 20
19.4668
 11
41.8134
 21
20.0746
  0
LINE
  8
0
 10
41.8134
 20
20.0746
 11
41.9589
 21
19.2495
  0
LINE
  8
0
 10
41.9589
 20
19.2495
 11
46.8916
 21
20.1193
  0
LINE
  8
0
 10
46.8916
 20
20.1193
 11
46.7462
 21
20.9444
  0
LINE
  8
0
 10
46.7462
 20
20.9444
 11
50.1931
 21
21.5521
  0
LINE
  8
0
 10
50.1931
 20
21.5521
 11
50.3386
 21
20.7271
  0
LINE
  8
0
 10
50.3386
 20
20.7271
 11
51.2795
 21
20.893
  0
LINE
  8
0
 10
51.2795
 20
20.893
 11
53.6967
 21
7.18448
  0
LINE
  8
0
 10
53.6967
 20
7.18448
 11
52.7558
 21
7.01857
  0
LINE
  8
0
 10
52.7558
 20
7.01857
 11
52.9012
 21
6.1935
  0
LINE
  8
0
 10
52.9012
 20
6.1935
 11
49.4543
 21
5.58571
  0
LINE
  8
0
 10
49.4543
 20
5.58571
 11
49.3088
 21
6.41078
  0
LINE
  8
0
 10
49.3088
 20
6.41078
 11
44.376
 21
5.54099
  0
LINE
  8
0
 10
44.376
 20
5.54099
 11
44.5215
 21
4.71593
  0
LINE
  8
0
 10
44.5215
 20
4.71593
 11
41.0746
 21
4.10814
  0
LINE
  8
0
 10
41.0746
 20
4.10814
 11
40.9291
 21
4.93321
  0
LINE
  8
0
 10
7.68346
 20
4.40858
 11
6.71791
 21
4.23836
  0
LINE
  8
0
 10
6.71791
 20
4.23836
 11
4.29205
 21
17.9961
  0
LINE
  8
0
 10
4.29205
 20
17.9961
 11
5.25758
 21
18.1663
  0
LINE
  8
0
 10
5.25758
 20
18.1663
 11
5.11646
 21
18.9668
  0
LINE
  8
0
 10
5.11646
 20
18.9668
 11
8.56339
 21
19.5746
  0
LINE
  8
0
 10
8.56339
 20
19.5746
 11
8.70453
 21
18.7741
  0
LINE
  8
0
 10
8.70453
 20
18.7741
 11
13.6373
 21
19.6439
  0
LINE
  8
0
 10
13.6373
 20
19.6439
 11
13.4962
 21
20.4444
  0
LINE
  8
0
 10
13.4962
 20
20.4444
 11
16.9431
 21
21.0522
  0
LINE
  8
0
 10
16.9431
 20
21.0522
 11
17.0842
 21
20.2517
  0
LINE
  8
0
 10
17.0842
 20
20.2517
 11
18.0498
 21
20.422
  0
LINE
  8
0
 10
18.0498
 20
20.422
 11
20.4756
 21
6.6642
  0
LINE
  8
0
 10
20.4756
 20
6.6642
 11
19.5101
 21
6.49394
  0
LINE
  8
0
 10
19.5101
 20
6.49394
 11
19.6512
 21
5.6935
  0
LINE
  8
0
 10
19.6512
 20
5.6935
 11
16.2043
 21
5.08571
  0
LINE
  8
0
 10
16.2043
 20
5.08571
 11
16.0632
 21
5.88615
  0
LINE
  8
0
 10
16.0632
 20
5.88615
 11
11.1304
 21
5.01637
  0
LINE
  8
0
 10
11.1304
 20
5.01637
 11
11.2715
 21
4.21593
  0
LINE
  8
0
 10
11.2715
 20
4.21593
 11
7.8246
 21
3.60814
  0
LINE
  8
0
 10
7.8246
 20
3.60814
 11
7.68346
 21
4.40858
  0
LINE
  8
0
 10
13.4962
 20
-20.4444
 11
13.6373
 21
-19.6439
  0
LINE
  8
0
 10
13.6373
 20
-19.6439
 11
8.70451
 21
-18.7741
  0
LINE
  8
0
 10
8.70451
 20
-18.7741
 11
8.56337
 21
-19.5746
  0
LINE
  8
0
 10
8.56337
 20
-19.5746
 11
5.11644
 21
-18.9668
  0
LINE
  8
0
 10
5.11644
 20
-18.9668
 11
5.25757
 21
-18.1663
  0
LINE
  8
0
 10
5.25757
 20
-18.1663
 11
4.29204
 21
-17.9961
  0
LINE
  8
0
 10
4.29204
 20
-17.9961
 11
6.71791
 21
-4.23836
  0
LINE
  8
0
 10
6.71791
 20
-4.23836
 11
7.68346
 21
-4.4086
  0
LINE
  8
0
 10
7.68346
 20
-4.4086
 11
7.8246
 21
-3.60815
  0
LINE
  8
0
 10
7.8246
 20
-3.60815
 11
11.2715
 21
-4.21594
  0
LINE
  8
0
 10
11.2715
 20
-4.21594
 11
11.1304
 21
-5.01639
  0
LINE
  8
0
 10
11.1304
 20
-5.01639
 11
16.0632
 21
-5.88617
  0
LINE
  8
0
 10
16.0632
 20
-5.88617
 11
16.2043
 21
-5.08572
  0
LINE
  8
0
 10
16.2043
 20
-5.08572
 11
19.6512
 21
-5.69351
  0
LINE
  8
0
 10
19.6512
 20
-5.69351
 11
19.5101
 21
-6.49396
  0
LINE
  8
0
 10
19.5101
 20
-6.49396
 11
20.4756
 21
-6.66422
  0
LINE
  8
0
 10
20.4756
 20
-6.66422
 11
18.0498
 21
-20.422
  0
LINE
  8
0
 10
18.0498
 20
-20.422
 11
17.0842
 21
-20.2517
  0
LINE
  8
0
 10
17.0842
 20
-20.2517
 11
16.9431
 21
-21.0522
  0
LINE
  8
0
 10
16.9431
 20
-21.0522
 11
13.4962
 21
-20.4444
  0
LINE
  8
0
 10
46.7462
 20
-20.9444
 11
46.8916
 21
-20.1193
  0
LINE
  8
0
 10
46.8916
 20
-20.1193
 11
41.9589
 21
-19.2495
  0
LINE
  8
0
 10
41.9589
 20
-19.2495
 11
41.8134
 21
-20.0746
  0
LINE
  8
0
 10
41.8134
 20
-20.0746
 11
38.3665
 21
-19.4668
  0
LINE
  8
0
 10
38.3665
 20
-19.4668
 11
38.5119
 21
-18.6417
  0
LINE
  8
0
 10
38.5119
 20
-18.6417
 11
37.571
 21
-18.4758
  0
LINE
  8
0
 10
37.571
 20
-18.4758
 11
39.9882
 21
-4.7673
  0
LINE
  8
0
 10
39.9882
 20
-4.7673
 11
40.9291
 21
-4.93323
  0
LINE
  8
0
 10
40.9291
 20
-4.93323
 11
41.0746
 21
-4.10815
  0
LINE
  8
0
 10
41.0746
 20
-4.10815
 11
44.5215
 21
-4.71594
  0
LINE
  8
0
 10
44.5215
 20
-4.71594
 11
44.376
 21
-5.541
  0
LINE
  8
0
 10
44.376
 20
-5.541
 11
49.3088
 21
-6.4108
  0
LINE
  8
0
 10
49.3088
 20
-6.4108
 11
49.4543
 21
-5.58572
  0
LINE
  8
0
 10
49.4543
 20
-5.58572
 11
52.9012
 21
-6.19351
  0
LINE
  8
0
 10
52.9012
 20
-6.19351
 11
52.7558
 21
-7.01859
  0
LINE
  8
0
 10
52.7558
 20
-7.01859
 11
53.6967
 21
-7.18449
  0
LINE
  8
0
 10
53.6967
 20
-7.18449
 11
51.2795
 21
-20.893
  0
LINE
  8
0
 10
51.2795
 20
-20.893
 11
50.3386
 21
-20.7271
  0
LINE
  8
0
 10
50.3386
 20
-20.7271
 11
50.1931
 21
-21.5522
  0
LINE
  8
0
 10
50.1931
 20
-21.5522
 11
46.7462
 21
-20.9444
  0
LINE
  8
0
 10
79.9962
 20
-21.4444
 11
80.146
 21
-20.5947
  0
LINE
  8
0
 10
80.146
 20
-20.5947
 11
75.2132
 21
-19.7249
  0
LINE
  8
0
 10
75.2132
 20
-19.7249
 11
75.0634
 21
-20.5746
  0
LINE
  8
0
 10
75.0634
 20
-20.5746
 11
71.6165
 21
-19.9668
  0
LINE
  8
0
 10
71.6165
 20
-19.9668
 11
71.7663
 21
-19.1171
  0
LINE
  8
0
 10
71.7663
 20
-19.1171
 11
70.85
 21
-18.9555
  0
LINE
  8
0
 10
70.85
 20
-18.9555
 11
73.2585
 21
-5.29626
  0
LINE
  8
0
 10
73.2585
 20
-5.29626
 11
74.1748
 21
-5.45784
  0
LINE
  8
0
 10
74.1748
 20
-5.45784
 11
74.3246
 21
-4.60815
  0
LINE
  8
0
 10
74.3246
 20
-4.60815
 11
77.7715
 21
-5.21594
  0
LINE
  8
0
 10
77.7715
 20
-5.21594
 11
77.6217
 21
-6.06563
  0
LINE
  8
0
 10
77.6217
 20
-6.06563
 11
82.5545
 21
-6.93541
  0
LINE
  8
0
 10
82.5545
 20
-6.93541
 11
82.7043
 21
-6.08572
  0
LINE
  8
0
 10
82.7043
 20
-6.08572
 11
86.1512
 21
-6.69351
  0
LINE
  8
0
 10
86.1512
 20
-6.69351
 11
86.0014
 21
-7.5432
  0
LINE
  8
0
 10
86.0014
 20
-7.5432
 11
86.9177
 21
-7.70476
  0
LINE
  8
0
 10
86.9177
 20
-7.70476
 11
84.5092
 21
-21.364
  0
LINE
  8
0
 10
84.5092
 20
-21.364
 11
83.5929
 21
-21.2025
  0
LINE
  8
0
 10
83.5929
 20
-21.2025
 11
83.4431
 21
-22.0522
  0
LINE
  8
0
 10
83.4431
 20
-22.0522
 11
79.9962
 21
-21.4444
  0
LINE
  8
0
 10
113.246
 20
-21.9444
 11
113.4
 21
-21.0701
  0
LINE
  8
0
 10
113.4
 20
-21.0701
 11
108.468
 21
-20.2003
  0
LINE
  8
0
 10
108.468
 20
-20.2003
 11
108.313
 21
-21.0746
  0
LINE
  8
0
 10
108.313
 20
-21.0746
 11
104.866
 21
-20.4668
  0
LINE
  8
0
 10
104.866
 20
-20.4668
 11
105.021
 21
-19.5925
  0
LINE
  8
0
 10
105.021
 20
-19.5925
 11
104.129
 21
-19.4353
  0
LINE
  8
0
 10
104.129
 20
-19.4353
 11
106.529
 21
-5.82524
  0
LINE
  8
0
 10
106.529
 20
-5.82524
 11
107.42
 21
-5.98247
  0
LINE
  8
0
 10
107.42
 20
-5.98247
 11
107.575
 21
-5.10815
  0
LINE
  8
0
 10
107.575
 20
-5.10815
 11
111.022
 21
-5.71594
  0
LINE
  8
0
 10
111.022
 20
-5.71594
 11
110.867
 21
-6.59026
  0
LINE
  8
0
 10
110.867
 20
-6.59026
 11
115.8
 21
-7.46004
  0
LINE
  8
0
 10
115.8
 20
-7.46004
 11
115.954
 21
-6.58572
  0
LINE
  8
0
 10
115.954
 20
-6.58572
 11
119.401
 21
-7.19351
  0
LINE
  8
0
 10
119.401
 20
-7.19351
 11
119.247
 21
-8.06783
  0
LINE
  8
0
 10
119.247
 20
-8.06783
 11
120.139
 21
-8.22505
  0
LINE
  8
0
 10
120.139
 20
-8.22505
 11
117.739
 21
-21.8351
  0
LINE
  8
0
 10
117.739
 20
-21.8351
 11
116.847
 21
-21.6778
  0
LINE
  8
0
 10
116.847
 20
-21.6778
 11
116.693
 21
-22.5522
  0
LINE
  8
0
 10
116.693
 20
-22.5522
 11
113.246
 21
-21.9444
  0
LINE
  8
0
 10
146.496
 20
-22.4444
 11
146.655
 21
-21.5454
  0
LINE
  8
0
 10
146.655
 20
-21.5454
 11
141.722
 21
-20.6757
  0
LINE
  8
0
 10
141.722
 20
-20.6757
 11
141.563
 21
-21.5746
  0
LINE
  8
0
 10
141.563
 20
-21.5746
 11
138.116
 21
-20.9668
  0
LINE
  8
0
 10
138.116
 20
-20.9668
 11
138.275
 21
-20.0679
  0
LINE
  8
0
 10
138.275
 20
-20.0679
 11
137.408
 21
-19.915
  0
LINE
  8
0
 10
137.408
 20
-19.915
 11
139.799
 21
-6.35419
  0
LINE
  8
0
 10
139.799
 20
-6.35419
 11
140.666
 21
-6.50708
  0
LINE
  8
0
 10
140.666
 20
-6.50708
 11
140.825
 21
-5.60815
  0
LINE
  8
0
 10
140.825
 20
-5.60815
 11
144.272
 21
-6.21594
  0
LINE
  8
0
 10
144.272
 20
-6.21594
 11
144.113
 21
-7.11487
  0
LINE
  8
0
 10
144.113
 20
-7.11487
 11
149.046
 21
-7.98465
  0
LINE
  8
0
 10
149.046
 20
-7.98465
 11
149.204
 21
-7.08572
  0
LINE
  8
0
 10
149.204
 20
-7.08572
 11
152.651
 21
-7.69351
  0
LINE
  8
0
 10
152.651
 20
-7.69351
 11
152.493
 21
-8.59244
  0
LINE
  8
0
 10
152.493
 20
-8.59244
 11
153.36
 21
-8.74533
  0
LINE
  8
0
 10
153.36
 20
-8.74533
 11
150.969
 21
-22.3061
  0
LINE
  8
0
 10
150.969
 20
-22.3061
 11
150.102
 21
-22.1532
  0
LINE
  8
0
 10
150.102
 20
-22.1532
 11
149.943
 21
-23.0522
  0
LINE
  8
0
 10
149.943
 20
-23.0522
 11
146.496
 21
-22.4444
  0
LINE
  8
0
 10
24.499
 20
-26.1068
 11
25.3269
 21
-24.5498
  0
LINE
  8
0
 10
25.3269
 20
-24.5498
 11
27.0634
 21
-24.856
  0
LINE
  8
0
 10
27.0634
 20
-24.856
 11
27.3089
 21
-26.6022
  0
LINE
  8
0
 10
27.3089
 20
-26.6022
 11
25.724
 21
-27.3752
  0
LINE
  8
0
 10
25.724
 20
-27.3752
 11
24.499
 21
-26.1068
  0
LINE
  8
0
 10
58.1546
 20
-27.186
 11
58.9825
 21
-25.629
  0
LINE
  8
0
 10
58.9825
 20
-25.629
 11
60.719
 21
-25.9352
  0
LINE
  8
0
 10
60.719
 20
-25.9352
 11
60.9644
 21
-27.6814
  0
LINE
  8
0
 10
60.9644
 20
-27.6814
 11
59.3795
 21
-28.4544
  0
LINE
  8
0
 10
59.3795
 20
-28.4544
 11
58.1546
 21
-27.186
  0
LINE
  8
0
 10
91.8102
 20
-28.2652
 11
92.638
 21
-26.7083
  0
LINE
  8
0
 10
92.638
 20
-26.7083
 11
94.3746
 21
-27.0145
  0
LINE
  8
0
 10
94.3746
 20
-27.0145
 11
94.62
 21
-28.7607
  0
LINE
  8
0
 10
94.62
 20
-28.7607
 11
93.0351
 21
-29.5337
  0
LINE
  8
0
 10
93.0351
 20
-29.5337
 11
91.8102
 21
-28.2652
  0
LINE
  8
0
 10
125.466
 20
-29.3444
 11
126.294
 21
-27.7875
  0
LINE
  8
0
 10
126.294
 20
-27.7875
 11
128.03
 21
-28.0937
  0
LINE
  8
0
 10
128.03
 20
-28.0937
 11
128.276
 21
-29.8399
  0
LINE
  8
0
 10
128.276
 20
-29.8399
 11
126.691
 21
-30.6129
  0
LINE
  8
0
 10
126.691
 20
-30.6129
 11
125.466
 21
-29.3444
  0
LINE
  8
0
 10
159.121
 20
-30.4237
 11
159.949
 21
-28.8667
  0
LINE
  8
0
 10
159.949
 20
-28.8667
 11
161.686
 21
-29.1729
  0
LINE
  8
0
 10
161.686
 20
-29.1729
 11
161.931
 21
-30.9191
  0
LINE
  8
0
 10
161.931
 20
-30.9191
 11
160.346
 21
-31.6921
  0
LINE
  8
0
 10
160.346
 20
-31.6921
 11
159.121
 21
-30.4237
  0
LINE
  8
0
 10
-25
 20
5
 11
-35
 21
5
  0
LINE
  8
0
 10
-35
 20
5
 11
-35
 21
-5
  0
LINE
  8
0
 10
-35
 20
-5
 11
-25
 21
-5
  0
LINE
  8
0
 10
-25
 20
-5
 11
-25
 21
5
  0
ENDSEC
  0
SECTION
  2
OBJECTS
  0
DICTIONARY
  0
ENDSEC
  0
EOF
