  0
SECTION
  2
HEADER
  9
$ACADVER
  1
AC1014
  9
$HANDSEED
  5
FFFF
  9
$MEASUREMENT
 70
     1
  0
ENDSEC
  0
SECTION
  2
TABLES
  0
TABLE
  2
VPORT
  5
8
330
0
100
AcDbSymbolTable
 70
     4
  0
VPORT
  5
2E
330
8
100
AcDbSymbolTableRecord
100
AcDbViewportTableRecord
  2
*ACTIVE
 70
     0
 10
0.0
 20
0.0
 11
1.0
 21
1.0
 12
210.0
 22
148.5
 13
0.0
 23
0.0
 14
10.0
 24
10.0
 15
10.0
 25
10.0
 16
0.0
 26
0.0
 36
1.0
 17
0.0
 27
0.0
 37
0.0
 40
341.0
 41
1.24
 42
50.0
 43
0.0
 44
0.0
 50
0.0
 51
0.0
 71
     0
 72
   100
 73
     1
 74
     3
 75
     0
 76
     0
 77
     0
 78
     0
  0
ENDTAB
  0
TABLE
  2
LTYPE
  5
5
330
0
100
AcDbSymbolTable
 70
     1
  0
LTYPE
  5
14
330
5
100
AcDbSymbolTableRecord
100
AcDbLinetypeTableRecord
  2
BYBLOCK
 70
     0
  3

 72
    65
 73
     0
 40
0.0
  0
LTYPE
  5
15
330
5
100
AcDbSymbolTableRecord
100
AcDbLinetypeTableRecord
  2
BYLAYER
 70
     0
  3

 72
    65
 73
     0
 40
0.0
  0
LTYPE
  5
16
330
5
100
AcDbSymbolTableRecord
100
AcDbLinetypeTableRecord
  2
CONTINUOUS
 70
     0
  3
Solid line
 72
    65
 73
     0
 40
0.0
  0
ENDTAB
  0
TABLE
  2
LAYER
  5
2
100
AcDbSymbolTable
 70
1
  0
LAYER
  5
50
100
AcDbSymbolTableRecord
100
AcDbLayerTableRecord
  2
0
 70
0
  6
CONTINUOUS
  0
ENDTAB
  0
TABLE
  2
STYLE
  5
3
330
0
100
AcDbSymbolTable
 70
     1
  0
STYLE
  5
11
330
3
100
AcDbSymbolTableRecord
100
AcDbTextStyleTableRecord
  2
STANDARD
 70
     0
 40
0.0
 41
1.0
 50
0.0
 71
     0
 42
2.5
  3
txt
  4

  0
ENDTAB
  0
TABLE
  2
VIEW
  5
6
330
0
100
AcDbSymbolTable
 70
     0
  0
ENDTAB
  0
TABLE
  2
UCS
  5
7
330
0
100
AcDbSymbolTable
 70
     0
  0
ENDTAB
  0
TABLE
  2
APPID
  5
9
330
0
100
AcDbSymbolTable
 70
     2
  0
APPID
  5
12
330
9
100
AcDbSymbolTableRecord
100
AcDbRegAppTableRecord
  2
ACAD
 70
     0
  0
ENDTAB
  0
TABLE
  2
DIMSTYLE
  5
A
330
0
100
AcDbSymbolTable
 70
     1
  0
DIMSTYLE
105
27
330
A
100
AcDbSymbolTableRecord
100
AcDbDimStyleTableRecord
  2
ISO-25
 70
     0
  3

  4

  5

  6

  7

 40
1.0
 41
2.5
 42
0.625
 43
3.75
 44
1.25
 45
0.0
 46
0.0
 47
0.0
 48
0.0
140
2.5
141
2.5
142
0.0
143
0.03937007874016
144
1.0
145
0.0
146
1.0
147
0.625
 71
     0
 72
     0
 73
     0
 74
     0
 75
     0
 76
     0
 77
     1
 78
     8
170
     0
171
     3
172
     1
173
     0
174
     0
175
     0
176
     0
177
     0
178
     0
270
     2
271
     2
272
     2
273
     2
274
     3
340
11
275
     0
280
     0
281
     0
282
     0
283
     0
284
     8
285
     0
286
     0
287
     3
288
     0
  0
ENDTAB
  0
TABLE
  2
BLOCK_RECORD
  5
1
330
0
100
AcDbSymbolTable
 70
     1
  0
BLOCK_RECORD
  5
1F
330
1
100
AcDbSymbolTableRecord
100
AcDbBlockTableRecord
  2
*MODEL_SPACE
  0
BLOCK_RECORD
  5
1B
330
1
100
AcDbSymbolTableRecord
100
AcDbBlockTableRecord
  2
*PAPER_SPACE
  0
ENDTAB
  0
ENDSEC
  0
SECTION
  2
BLOCKS
  0
BLOCK
  5
20
330
1F
100
AcDbEntity
  8
0
100
AcDbBlockBegin
  2
*MODEL_SPACE
 70
     0
 10
0.0
 20
0.0
 30
0.0
  3
*MODEL_SPACE
  1

  0
ENDBLK
  5
21
330
1F
100
AcDbEntity
  8
0
100
AcDbBlockEnd
  0
BLOCK
  5
1C
330
1B
100
AcDbEntity
 67
     1
  8
0
100
AcDbBlockBegin
  2
*PAPER_SPACE
  1

  0
ENDBLK
  5
1D
330
1B
100
AcDbEntity
 67
     1
  8
0
100
AcDbBlockEnd
  0
ENDSEC
  0
SECTION
  2
ENTITIES
  0
LWPOLYLINE
  5
100
100
AcDbEntity
  8
0
 62
7
100
AcDbPolyline
 90
33
 70
0
 10
1584.663342
 20
2.155656
 30
0.0
 10
1600.637422
 20
7.346456
 30
0.0
 10
1615.189182
 20
15.745576
 30
0.0
 10
1627.667822
 20
26.985976
 30
0.0
 10
1637.543182
 20
40.575976
 30
0.0
 10
1644.373102
 20
55.921616
 30
0.0
 10
1647.868382
 20
72.352808
 30
0.0
 10
1647.868382
 20
582.020200
 30
0.0
 10
1644.373102
 20
598.451416
 30
0.0
 10
1637.543182
 20
613.797072
 30
0.0
 10
1627.667822
 20
627.387024
 30
0.0
 10
1615.189182
 20
638.627504
 30
0.0
 10
1600.637422
 20
647.026696
 30
0.0
 10
1584.663342
 20
652.217456
 30
0.0
 10
1567.958142
 20
653.973144
 30
0.0
 10
242.146310
 20
653.973144
 30
0.0
 10
225.440134
 20
652.217456
 30
0.0
 10
209.464118
 20
647.026696
 30
0.0
 10
194.916518
 20
638.627504
 30
0.0
 10
182.433006
 20
627.387024
 30
0.0
 10
172.559334
 20
613.797072
 30
0.0
 10
165.726982
 20
598.451416
 30
0.0
 10
162.234078
 20
582.020200
 30
0.0
 10
162.234078
 20
72.352808
 30
0.0
 10
165.726982
 20
55.921616
 30
0.0
 10
172.559334
 20
40.575976
 30
0.0
 10
182.433006
 20
26.985976
 30
0.0
 10
194.916518
 20
15.745576
 30
0.0
 10
209.463958
 20
7.346456
 30
0.0
 10
225.439974
 20
2.155656
 30
0.0
 10
242.146150
 20
0.399976
 30
0.0
 10
1567.958142
 20
0.399976
 30
0.0
 10
1584.663342
 20
2.155656
 30
0.0
  0
LWPOLYLINE
  5
101
100
AcDbEntity
  8
0
 62
5
100
AcDbPolyline
 90
62
 70
0
 10
267.782182
 20
550.728656
 30
0.0
 10
265.723238
 20
551.023552
 30
0.0
 10
263.740550
 20
551.516120
 30
0.0
 10
261.834118
 20
552.204736
 30
0.0
 10
260.025310
 20
553.086200
 30
0.0
 10
258.334782
 20
554.157288
 30
0.0
 10
256.762934
 20
555.416408
 30
0.0
 10
255.309518
 20
556.865144
 30
0.0
 10
253.991742
 20
558.499512
 30
0.0
 10
252.826718
 20
560.308240
 30
0.0
 10
251.814286
 20
562.292128
 30
0.0
 10
250.954518
 20
564.450408
 30
0.0
 10
250.272486
 20
566.777400
 30
0.0
 10
249.785310
 20
569.257056
 30
0.0
 10
249.493070
 20
571.891800
 30
0.0
 10
249.395670
 20
574.679232
 30
0.0
 10
249.545302
 20
577.694848
 30
0.0
 10
249.994310
 20
580.562624
 30
0.0
 10
250.742542
 20
583.283336
 30
0.0
 10
251.790094
 20
585.856224
 30
0.0
 10
253.071230
 20
588.263560
 30
0.0
 10
254.512102
 20
590.480480
 30
0.0
 10
256.112638
 20
592.506160
 30
0.0
 10
257.872838
 20
594.341400
 30
0.0
 10
259.754598
 20
595.983000
 30
0.0
 10
261.719614
 20
597.420488
 30
0.0
 10
263.768110
 20
598.654712
 30
0.0
 10
265.900014
 20
599.684824
 30
0.0
 10
268.052894
 20
600.497192
 30
0.0
 10
270.164710
 20
601.076520
 30
0.0
 10
272.235302
 20
601.425248
 30
0.0
 10
274.264710
 20
601.540904
 30
0.0
 10
275.852110
 20
601.504904
 30
0.0
 10
277.376238
 20
601.396416
 30
0.0
 10
278.837238
 20
601.215584
 30
0.0
 10
280.234846
 20
600.962416
 30
0.0
 10
281.645806
 20
600.643440
 30
0.0
 10
283.147382
 20
600.264984
 30
0.0
 10
284.739318
 20
599.827856
 30
0.0
 10
286.421750
 20
599.331272
 30
0.0
 10
286.421750
 20
617.675672
 30
0.0
 10
286.351830
 20
619.273072
 30
0.0
 10
286.142422
 20
620.642272
 30
0.0
 10
285.793358
 20
621.784088
 30
0.0
 10
285.304766
 20
622.697688
 30
0.0
 10
284.557966
 20
623.428096
 30
0.0
 10
283.434638
 20
624.013056
 30
0.0
 10
281.934526
 20
624.452584
 30
0.0
 10
280.058014
 20
624.746664
 30
0.0
 10
279.738126
 20
624.862312
 30
0.0
 10
279.445342
 20
624.991640
 30
0.0
 10
279.179654
 20
625.135504
 30
0.0
 10
278.941174
 20
625.292952
 30
0.0
 10
278.747830
 20
625.495576
 30
0.0
 10
278.609654
 20
625.767136
 30
0.0
 10
278.526774
 20
626.106224
 30
0.0
 10
278.499174
 20
626.514416
 30
0.0
 10
278.513254
 20
626.871984
 30
0.0
 10
278.555414
 20
627.285800
 30
0.0
 10
278.625654
 20
627.755856
 30
0.0
 10
278.724110
 20
628.282168
 30
0.0
 10
279.141462
 20
628.284568
 30
0.0
  0
LWPOLYLINE
  5
102
100
AcDbEntity
  8
0
 62
5
100
AcDbPolyline
 90
48
 70
0
 10
279.141542
 20
628.285376
 30
0.0
 10
283.408542
 20
628.434824
 30
0.0
 10
286.317286
 20
628.587440
 30
0.0
 10
289.009014
 20
628.796344
 30
0.0
 10
290.442782
 20
628.988488
 30
0.0
 10
291.827414
 20
629.210248
 30
0.0
 10
293.162702
 20
629.462528
 30
0.0
 10
295.612398
 20
630.004896
 30
0.0
 10
296.572206
 20
630.190624
 30
0.0
 10
297.327918
 20
630.302304
 30
0.0
 10
297.879934
 20
630.339184
 30
0.0
 10
298.716566
 20
630.242800
 30
0.0
 10
299.314222
 20
629.953488
 30
0.0
 10
299.672830
 20
629.471368
 30
0.0
 10
299.792238
 20
628.796408
 30
0.0
 10
299.776158
 20
627.697200
 30
0.0
 10
299.727918
 20
626.520032
 30
0.0
 10
299.647646
 20
625.266552
 30
0.0
 10
299.422662
 20
622.516896
 30
0.0
 10
299.342230
 20
620.994216
 30
0.0
 10
299.293990
 20
619.367088
 30
0.0
 10
299.277910
 20
617.635504
 30
0.0
 10
299.277918
 20
562.706760
 30
0.0
 10
299.306078
 20
561.469336
 30
0.0
 10
299.341278
 20
560.922952
 30
0.0
 10
299.390558
 20
560.424752
 30
0.0
 10
299.474446
 20
559.967560
 30
0.0
 10
299.613454
 20
559.544904
 30
0.0
 10
299.807822
 20
559.155992
 30
0.0
 10
300.057398
 20
558.801640
 30
0.0
 10
300.373262
 20
558.485064
 30
0.0
 10
300.758470
 20
558.203024
 30
0.0
 10
301.213022
 20
557.954736
 30
0.0
 10
301.736758
 20
557.741120
 30
0.0
 10
302.343982
 20
557.557768
 30
0.0
 10
303.048590
 20
557.395424
 30
0.0
 10
303.850582
 20
557.252376
 30
0.0
 10
304.749966
 20
557.130216
 30
0.0
 10
305.432078
 20
556.955240
 30
0.0
 10
305.919174
 20
556.653840
 30
0.0
 10
306.211326
 20
556.227960
 30
0.0
 10
306.308798
 20
555.675952
 30
0.0
 10
306.308798
 20
554.559056
 30
0.0
 10
306.295438
 20
554.295480
 30
0.0
 10
306.254638
 20
554.058456
 30
0.0
 10
306.186798
 20
553.849600
 30
0.0
 10
306.091902
 20
553.667208
 30
0.0
 10
305.263238
 20
553.655768
 30
0.0
  0
LWPOLYLINE
  5
103
100
AcDbEntity
  8
0
 62
5
100
AcDbPolyline
 90
39
 70
0
 10
305.263254
 20
553.656688
 30
0.0
 10
304.231774
 20
553.624528
 30
0.0
 10
301.559982
 20
553.498512
 30
0.0
 10
300.078534
 20
553.403648
 30
0.0
 10
298.711582
 20
553.289560
 30
0.0
 10
297.459046
 20
553.154584
 30
0.0
 10
295.071630
 20
552.821072
 30
0.0
 10
293.830190
 20
552.622648
 30
0.0
 10
292.596774
 20
552.403312
 30
0.0
 10
290.245358
 20
551.943624
 30
0.0
 10
289.310382
 20
551.785336
 30
0.0
 10
288.566038
 20
551.689640
 30
0.0
 10
288.012702
 20
551.658440
 30
0.0
 10
287.548142
 20
551.681720
 30
0.0
 10
287.175054
 20
551.753080
 30
0.0
 10
286.893294
 20
551.870392
 30
0.0
 10
286.702886
 20
552.036024
 30
0.0
 10
286.579902
 20
552.251432
 30
0.0
 10
286.491998
 20
552.527760
 30
0.0
 10
286.439278
 20
552.866032
 30
0.0
 10
286.421758
 20
553.265376
 30
0.0
 10
286.421758
 20
559.701592
 30
0.0
 10
285.691014
 20
558.714064
 30
0.0
 10
284.945190
 20
557.769128
 30
0.0
 10
284.184406
 20
556.865968
 30
0.0
 10
283.408550
 20
556.005392
 30
0.0
 10
282.604478
 20
555.197040
 30
0.0
 10
281.751262
 20
554.450576
 30
0.0
 10
280.848990
 20
553.766792
 30
0.0
 10
279.897302
 20
553.144848
 30
0.0
 10
278.889470
 20
552.589624
 30
0.0
 10
277.818254
 20
552.098680
 30
0.0
 10
276.683758
 20
551.669584
 30
0.0
 10
275.486006
 20
551.304800
 30
0.0
 10
274.218982
 20
551.009904
 30
0.0
 10
272.868566
 20
550.798552
 30
0.0
 10
271.434838
 20
550.672496
 30
0.0
 10
269.917630
 20
550.629776
 30
0.0
 10
267.782190
 20
550.728696
 30
0.0
  0
LWPOLYLINE
  5
104
100
AcDbEntity
  8
0
 62
5
100
AcDbPolyline
 90
46
 70
0
 10
276.534542
 20
556.882832
 30
0.0
 10
277.535014
 20
557.127904
 30
0.0
 10
278.527286
 20
557.537704
 30
0.0
 10
279.511694
 20
558.110616
 30
0.0
 10
280.467302
 20
558.811272
 30
0.0
 10
281.365774
 20
559.605160
 30
0.0
 10
282.206742
 20
560.490632
 30
0.0
 10
282.990694
 20
561.469336
 30
0.0
 10
283.714814
 20
562.533184
 30
0.0
 10
284.368678
 20
563.666952
 30
0.0
 10
284.952294
 20
564.871456
 30
0.0
 10
285.465526
 20
566.145840
 30
0.0
 10
285.883862
 20
567.455560
 30
0.0
 10
286.182662
 20
568.765304
 30
0.0
 10
286.361910
 20
570.075048
 30
0.0
 10
286.421750
 20
571.384784
 30
0.0
 10
286.421750
 20
591.673704
 30
0.0
 10
283.754054
 20
593.965352
 30
0.0
 10
280.917766
 20
595.602936
 30
0.0
 10
277.912646
 20
596.584832
 30
0.0
 10
274.738702
 20
596.912680
 30
0.0
 10
272.007262
 20
596.588056
 30
0.0
 10
269.654390
 20
595.614976
 30
0.0
 10
267.680302
 20
593.992672
 30
0.0
 10
266.084822
 20
591.721920
 30
0.0
 10
264.857846
 20
588.891920
 30
0.0
 10
263.981606
 20
585.584616
 30
0.0
 10
263.455702
 20
581.800840
 30
0.0
 10
263.280534
 20
577.539752
 30
0.0
 10
263.326214
 20
575.406424
 30
0.0
 10
263.463294
 20
573.337336
 30
0.0
 10
263.691734
 20
571.332560
 30
0.0
 10
264.011702
 20
569.392056
 30
0.0
 10
264.422462
 20
567.547176
 30
0.0
 10
264.923694
 20
565.830040
 30
0.0
 10
265.515246
 20
564.240688
 30
0.0
 10
266.197198
 20
562.779072
 30
0.0
 10
266.980630
 20
561.458880
 30
0.0
 10
267.868606
 20
560.288144
 30
0.0
 10
268.860958
 20
559.265272
 30
0.0
 10
269.957686
 20
558.391840
 30
0.0
 10
271.170510
 20
557.695992
 30
0.0
 10
272.502910
 20
557.198608
 30
0.0
 10
273.954710
 20
556.900520
 30
0.0
 10
275.526174
 20
556.800968
 30
0.0
 10
276.534502
 20
556.882744
 30
0.0
  0
LWPOLYLINE
  5
105
100
AcDbEntity
  8
0
 62
5
100
AcDbPolyline
 90
65
 70
0
 10
332.105694
 20
550.749544
 30
0.0
 10
329.346166
 20
551.107928
 30
0.0
 10
326.726198
 20
551.705744
 30
0.0
 10
324.245806
 20
552.542216
 30
0.0
 10
321.922670
 20
553.589200
 30
0.0
 10
319.774214
 20
554.817776
 30
0.0
 10
317.800598
 20
556.228752
 30
0.0
 10
316.001678
 20
557.821344
 30
0.0
 10
314.392142
 20
559.589104
 30
0.0
 10
312.978430
 20
561.517544
 30
0.0
 10
311.760606
 20
563.606704
 30
0.0
 10
310.738614
 20
565.856568
 30
0.0
 10
309.930030
 20
568.243024
 30
0.0
 10
309.352534
 20
570.733928
 30
0.0
 10
309.006054
 20
573.329312
 30
0.0
 10
308.890582
 20
576.029136
 30
0.0
 10
309.013046
 20
578.728176
 30
0.0
 10
309.380662
 20
581.321944
 30
0.0
 10
309.993342
 20
583.810448
 30
0.0
 10
310.851102
 20
586.193704
 30
0.0
 10
311.925894
 20
588.449992
 30
0.0
 10
313.189350
 20
590.550392
 30
0.0
 10
314.641718
 20
592.495712
 30
0.0
 10
316.282990
 20
594.285160
 30
0.0
 10
318.106422
 20
595.905856
 30
0.0
 10
320.097630
 20
597.336128
 30
0.0
 10
322.256694
 20
598.577568
 30
0.0
 10
324.583286
 20
599.628560
 30
0.0
 10
327.049614
 20
600.465032
 30
0.0
 10
329.627478
 20
601.062872
 30
0.0
 10
332.316702
 20
601.421240
 30
0.0
 10
335.117454
 20
601.540976
 30
0.0
 10
338.016646
 20
601.421216
 30
0.0
 10
340.776334
 20
601.062872
 30
0.0
 10
343.396302
 20
600.465032
 30
0.0
 10
345.876694
 20
599.628560
 30
0.0
 10
348.202886
 20
598.577568
 30
0.0
 10
350.360262
 20
597.336128
 30
0.0
 10
352.348974
 20
595.905856
 30
0.0
 10
354.168950
 20
594.285160
 30
0.0
 10
355.806606
 20
592.495712
 30
0.0
 10
357.240414
 20
590.550392
 30
0.0
 10
358.470286
 20
588.449992
 30
0.0
 10
359.496302
 20
586.193704
 30
0.0
 10
360.304886
 20
583.810448
 30
0.0
 10
360.882374
 20
581.321944
 30
0.0
 10
361.228934
 20
578.728176
 30
0.0
 10
361.344478
 20
576.029136
 30
0.0
 10
361.221862
 20
573.329312
 30
0.0
 10
360.854254
 20
570.733928
 30
0.0
 10
360.241646
 20
568.243024
 30
0.0
 10
359.383886
 20
565.856568
 30
0.0
 10
358.305158
 20
563.606704
 30
0.0
 10
357.029574
 20
561.517544
 30
0.0
 10
355.557038
 20
559.589104
 30
0.0
 10
353.887718
 20
557.821344
 30
0.0
 10
352.043238
 20
556.228752
 30
0.0
 10
350.036846
 20
554.817776
 30
0.0
 10
347.868942
 20
553.589200
 30
0.0
 10
345.539134
 20
552.542216
 30
0.0
 10
343.072886
 20
551.705744
 30
0.0
 10
340.495022
 20
551.107928
 30
0.0
 10
337.805798
 20
550.749544
 30
0.0
 10
335.005046
 20
550.629808
 30
0.0
 10
332.105694
 20
550.749568
 30
0.0
  0
LWPOLYLINE
  5
106
100
AcDbEntity
  8
0
 62
5
100
AcDbPolyline
 90
33
 70
0
 10
339.069822
 20
555.561048
 30
0.0
 10
341.445270
 20
556.469016
 30
0.0
 10
343.384646
 20
557.983648
 30
0.0
 10
344.888278
 20
560.103352
 30
0.0
 10
346.013206
 20
562.775856
 30
0.0
 10
346.816814
 20
565.940928
 30
0.0
 10
347.298926
 20
569.597760
 30
0.0
 10
347.459542
 20
573.747136
 30
0.0
 10
347.238102
 20
578.687992
 30
0.0
 10
346.573662
 20
583.129856
 30
0.0
 10
345.466254
 20
587.072736
 30
0.0
 10
343.916022
 20
590.516648
 30
0.0
 10
341.965950
 20
593.314512
 30
0.0
 10
339.659366
 20
595.313664
 30
0.0
 10
336.996174
 20
596.512512
 30
0.0
 10
333.976454
 20
596.912680
 30
0.0
 10
331.165174
 20
596.602520
 30
0.0
 10
328.789806
 20
595.671240
 30
0.0
 10
326.850262
 20
594.119624
 30
0.0
 10
325.346630
 20
591.946896
 30
0.0
 10
324.221702
 20
589.232600
 30
0.0
 10
323.418262
 20
586.054688
 30
0.0
 10
322.936150
 20
582.414736
 30
0.0
 10
322.775438
 20
578.311144
 30
0.0
 10
322.993438
 20
573.324480
 30
0.0
 10
323.647190
 20
568.865744
 30
0.0
 10
324.736998
 20
564.935720
 30
0.0
 10
326.262646
 20
561.533624
 30
0.0
 10
328.195198
 20
558.787984
 30
0.0
 10
330.505246
 20
556.826592
 30
0.0
 10
333.193022
 20
555.650240
 30
0.0
 10
336.258454
 20
555.258104
 30
0.0
 10
339.069822
 20
555.561048
 30
0.0
  0
LWPOLYLINE
  5
107
100
AcDbEntity
  8
0
 62
5
100
AcDbPolyline
 90
84
 70
0
 10
233.577958
 20
550.762400
 30
0.0
 10
231.733950
 20
551.160160
 30
0.0
 10
230.146998
 20
551.823056
 30
0.0
 10
228.817094
 20
552.751120
 30
0.0
 10
227.696742
 20
554.048824
 30
0.0
 10
226.738062
 20
555.820584
 30
0.0
 10
225.941126
 20
558.066424
 30
0.0
 10
225.305782
 20
560.786344
 30
0.0
 10
224.038710
 20
558.791208
 30
0.0
 10
222.583854
 20
556.935056
 30
0.0
 10
220.941134
 20
555.219552
 30
0.0
 10
219.110630
 20
553.643032
 30
0.0
 10
217.119822
 20
552.324448
 30
0.0
 10
214.996518
 20
551.383528
 30
0.0
 10
212.740630
 20
550.818664
 30
0.0
 10
210.352246
 20
550.629760
 30
0.0
 10
207.555990
 20
550.766344
 30
0.0
 10
204.976686
 20
551.176216
 30
0.0
 10
202.614254
 20
551.859224
 30
0.0
 10
200.468846
 20
552.815408
 30
0.0
 10
198.525934
 20
553.993376
 30
0.0
 10
196.763006
 20
555.332032
 30
0.0
 10
195.179270
 20
556.833008
 30
0.0
 10
193.775510
 20
558.496312
 30
0.0
 10
192.556574
 20
560.299392
 30
0.0
 10
191.517622
 20
562.220624
 30
0.0
 10
190.660262
 20
564.260752
 30
0.0
 10
189.982894
 20
566.419032
 30
0.0
 10
189.469446
 20
568.643984
 30
0.0
 10
189.103038
 20
570.874552
 30
0.0
 10
188.882862
 20
573.111560
 30
0.0
 10
188.809742
 20
575.354200
 30
0.0
 10
188.917406
 20
578.310352
 30
0.0
 10
189.242030
 20
581.111408
 30
0.0
 10
189.781190
 20
583.758216
 30
0.0
 10
190.537310
 20
586.249944
 30
0.0
 10
191.484654
 20
588.576144
 30
0.0
 10
192.592718
 20
590.719136
 30
0.0
 10
193.859062
 20
592.678920
 30
0.0
 10
195.286118
 20
594.453904
 30
0.0
 10
196.852182
 20
596.046480
 30
0.0
 10
198.536366
 20
597.448632
 30
0.0
 10
200.339462
 20
598.661944
 30
0.0
 10
202.260766
 20
599.684824
 30
0.0
 10
204.272542
 20
600.497192
 30
0.0
 10
206.346678
 20
601.076520
 30
0.0
 10
208.482998
 20
601.425248
 30
0.0
 10
210.681670
 20
601.540904
 30
0.0
 10
212.624182
 20
601.479064
 30
0.0
 10
214.434118
 20
601.293384
 30
0.0
 10
216.111470
 20
600.984952
 30
0.0
 10
217.656238
 20
600.552656
 30
0.0
 10
219.085950
 20
599.998224
 30
0.0
 10
220.418350
 20
599.315232
 30
0.0
 10
221.653278
 20
598.503664
 30
0.0
 10
222.790662
 20
597.563560
 30
0.0
 10
223.840790
 20
596.489224
 30
0.0
 10
224.813606
 20
595.275112
 30
0.0
 10
225.708974
 20
593.921992
 30
0.0
 10
226.527118
 20
592.429040
 30
0.0
 10
227.289422
 20
590.785848
 30
0.0
 10
228.009622
 20
588.973904
 30
0.0
 10
228.687630
 20
586.993232
 30
0.0
 10
229.323374
 20
584.843800
 30
0.0
 10
229.751734
 20
586.167192
 30
0.0
 10
230.144894
 20
587.565336
 30
0.0
 10
230.503102
 20
589.039800
 30
0.0
 10
230.825878
 20
590.588968
 30
0.0
 10
231.107190
 20
592.141376
 30
0.0
 10
231.340214
 20
593.618256
 30
0.0
 10
231.525030
 20
595.018000
 30
0.0
 10
231.661630
 20
596.342192
 30
0.0
 10
231.839846
 20
597.251792
 30
0.0
 10
232.149678
 20
597.973336
 30
0.0
 10
232.591214
 20
598.505272
 30
0.0
 10
233.164126
 20
598.849176
 30
0.0
 10
233.943062
 20
599.119168
 30
0.0
 10
234.994230
 20
599.423696
 30
0.0
 10
236.317470
 20
599.761976
 30
0.0
 10
237.913022
 20
600.134808
 30
0.0
 10
241.553934
 20
600.931912
 30
0.0
 10
241.886438
 20
600.984072
 30
0.0
 10
242.196750
 20
601.016312
 30
0.0
 10
242.485054
 20
601.027592
 30
0.0
  0
LWPOLYLINE
  5
108
100
AcDbEntity
  8
0
 62
5
100
AcDbPolyline
 90
33
 70
0
 10
242.485070
 20
601.026696
 30
0.0
 10
242.892862
 20
600.994536
 30
0.0
 10
243.224238
 20
600.899816
 30
0.0
 10
243.479350
 20
600.742416
 30
0.0
 10
243.658142
 20
600.520520
 30
0.0
 10
243.781230
 20
600.254560
 30
0.0
 10
243.869134
 20
599.954040
 30
0.0
 10
243.921854
 20
599.619784
 30
0.0
 10
243.939534
 20
599.250960
 30
0.0
 10
243.754622
 20
597.161008
 30
0.0
 10
243.200198
 20
594.674912
 30
0.0
 10
242.276150
 20
591.793480
 30
0.0
 10
240.982486
 20
588.515904
 30
0.0
 10
239.388934
 20
584.867128
 30
0.0
 10
237.565502
 20
580.863976
 30
0.0
 10
235.511950
 20
576.506488
 30
0.0
 10
233.228502
 20
571.794624
 30
0.0
 10
233.727166
 20
569.486904
 30
0.0
 10
234.218838
 20
567.457208
 30
0.0
 10
234.703518
 20
565.706352
 30
0.0
 10
235.181054
 20
564.233496
 30
0.0
 10
235.655214
 20
562.983208
 30
0.0
 10
236.129214
 20
561.899264
 30
0.0
 10
236.603286
 20
560.982448
 30
0.0
 10
237.077286
 20
560.231952
 30
0.0
 10
237.551446
 20
559.630912
 30
0.0
 10
238.025518
 20
559.160864
 30
0.0
 10
238.499518
 20
558.823376
 30
0.0
 10
238.973678
 20
558.616792
 30
0.0
 10
239.465350
 20
558.497144
 30
0.0
 10
239.992142
 20
558.411880
 30
0.0
 10
240.554126
 20
558.360520
 30
0.0
 10
241.151222
 20
558.344680
 30
0.0
  0
LWPOLYLINE
  5
109
100
AcDbEntity
  8
0
 62
5
100
AcDbPolyline
 90
34
 70
0
 10
241.151230
 20
558.343624
 30
0.0
 10
241.645878
 20
558.371064
 30
0.0
 10
242.237990
 20
558.453720
 30
0.0
 10
242.927494
 20
558.591824
 30
0.0
 10
243.714462
 20
558.785584
 30
0.0
 10
244.536542
 20
559.024216
 30
0.0
 10
245.331470
 20
559.289376
 30
0.0
 10
246.099390
 20
559.582664
 30
0.0
 10
246.840166
 20
559.902480
 30
0.0
 10
247.296646
 20
559.493472
 30
0.0
 10
247.661766
 20
559.044304
 30
0.0
 10
247.935446
 20
558.557384
 30
0.0
 10
248.117766
 20
558.030248
 30
0.0
 10
248.233710
 20
557.508768
 30
0.0
 10
248.300590
 20
557.035496
 30
0.0
 10
248.318030
 20
556.612856
 30
0.0
 10
248.286510
 20
556.238416
 30
0.0
 10
247.759646
 20
555.663096
 30
0.0
 10
247.175646
 20
555.101424
 30
0.0
 10
246.534278
 20
554.554224
 30
0.0
 10
245.835774
 20
554.020680
 30
0.0
 10
245.095006
 20
553.512048
 30
0.0
 10
244.327086
 20
553.040392
 30
0.0
 10
243.532166
 20
552.604080
 30
0.0
 10
242.710078
 20
552.204736
 30
0.0
 10
241.863326
 20
551.848776
 30
0.0
 10
240.994478
 20
551.536192
 30
0.0
 10
240.103614
 20
551.266216
 30
0.0
 10
239.190574
 20
551.039672
 30
0.0
 10
238.281070
 20
550.860480
 30
0.0
 10
237.392774
 20
550.732760
 30
0.0
 10
236.525454
 20
550.655560
 30
0.0
 10
235.679262
 20
550.629880
 30
0.0
 10
233.577974
 20
550.762448
 30
0.0
  0
LWPOLYLINE
  5
10a
100
AcDbEntity
  8
0
 62
5
100
AcDbPolyline
 90
41
 70
0
 10
213.269510
 20
557.569832
 30
0.0
 10
215.046822
 20
558.335600
 30
0.0
 10
216.704566
 20
559.610784
 30
0.0
 10
218.242830
 20
561.397016
 30
0.0
 10
219.668598
 20
563.599464
 30
0.0
 10
220.988862
 20
566.115296
 30
0.0
 10
222.203622
 20
568.946904
 30
0.0
 10
223.312966
 20
572.091880
 30
0.0
 10
223.116198
 20
573.665184
 30
0.0
 10
222.855038
 20
575.363832
 30
0.0
 10
222.529534
 20
577.188624
 30
0.0
 10
222.139910
 20
579.138768
 30
0.0
 10
221.680374
 20
581.126696
 30
0.0
 10
221.137438
 20
583.058360
 30
0.0
 10
220.511334
 20
584.931352
 30
0.0
 10
219.801662
 20
586.748112
 30
0.0
 10
219.004726
 20
588.473280
 30
0.0
 10
218.116270
 20
590.064264
 30
0.0
 10
217.136534
 20
591.522656
 30
0.0
 10
216.065286
 20
592.846840
 30
0.0
 10
214.892702
 20
593.950904
 30
0.0
 10
213.608518
 20
594.739136
 30
0.0
 10
212.212878
 20
595.212408
 30
0.0
 10
210.705710
 20
595.370016
 30
0.0
 10
208.745118
 20
595.093488
 30
0.0
 10
206.993526
 20
594.265072
 30
0.0
 10
205.450766
 20
592.883808
 30
0.0
 10
204.116918
 20
590.950536
 30
0.0
 10
203.044694
 20
588.492576
 30
0.0
 10
202.278782
 20
585.536400
 30
0.0
 10
201.819406
 20
582.083672
 30
0.0
 10
201.666086
 20
578.134376
 30
0.0
 10
201.815878
 20
573.664384
 30
0.0
 10
202.264798
 20
569.654816
 30
0.0
 10
203.013118
 20
566.107264
 30
0.0
 10
204.060670
 20
563.020136
 30
0.0
 10
205.418622
 20
560.524400
 30
0.0
 10
207.089950
 20
558.741384
 30
0.0
 10
209.074566
 20
557.671880
 30
0.0
 10
211.372718
 20
557.315128
 30
0.0
 10
213.269510
 20
557.569832
 30
0.0
  0
LWPOLYLINE
  5
10b
100
AcDbEntity
  8
0
 62
5
100
AcDbPolyline
 90
5
 70
0
 10
414.695742
 20
551.759584
 30
0.0
 10
411.067846
 20
551.940320
 30
0.0
 10
407.175582
 20
552.086632
 30
0.0
 10
403.772670
 20
552.163032
 30
0.0
 10
402.301422
 20
552.171992
 30
0.0
  0
LWPOLYLINE
  5
10c
100
AcDbEntity
  8
0
 62
5
100
AcDbPolyline
 90
2
 70
0
 10
402.301422
 20
552.172576
 30
0.0
 10
400.838214
 20
552.163536
 30
0.0
  0
LWPOLYLINE
  5
10d
100
AcDbEntity
  8
0
 62
5
100
AcDbPolyline
 90
61
 70
0
 10
400.838214
 20
552.162944
 30
0.0
 10
399.234382
 20
552.134864
 30
0.0
 10
395.608894
 20
552.019888
 30
0.0
 10
391.870102
 20
551.853504
 30
0.0
 10
388.464782
 20
551.658368
 30
0.0
 10
388.366750
 20
551.897024
 30
0.0
 10
388.296830
 20
552.162984
 30
0.0
 10
388.254270
 20
552.455472
 30
0.0
 10
388.239790
 20
552.775264
 30
0.0
 10
388.239838
 20
553.779656
 30
0.0
 10
388.264718
 20
554.190272
 30
0.0
 10
388.336238
 20
554.522928
 30
0.0
 10
388.456782
 20
554.776840
 30
0.0
 10
388.626310
 20
554.952816
 30
0.0
 10
388.833638
 20
555.090240
 30
0.0
 10
389.061830
 20
555.219704
 30
0.0
 10
389.582510
 20
555.459040
 30
0.0
 10
390.766102
 20
555.634104
 30
0.0
 10
391.755238
 20
555.822192
 30
0.0
 10
392.549918
 20
556.023816
 30
0.0
 10
393.149350
 20
556.238432
 30
0.0
 10
393.588870
 20
556.490760
 30
0.0
 10
393.903046
 20
556.798512
 30
0.0
 10
394.091062
 20
557.161688
 30
0.0
 10
394.153782
 20
557.580328
 30
0.0
 10
394.077462
 20
558.035912
 30
0.0
 10
393.846846
 20
558.616880
 30
0.0
 10
393.462766
 20
559.321552
 30
0.0
 10
392.924406
 20
560.151600
 30
0.0
 10
384.447254
 20
572.116032
 30
0.0
 10
376.862006
 20
560.714064
 30
0.0
 10
376.423286
 20
559.972408
 30
0.0
 10
376.109110
 20
559.315928
 30
0.0
 10
375.921094
 20
558.743032
 30
0.0
 10
375.857654
 20
558.255296
 30
0.0
 10
375.934774
 20
557.777192
 30
0.0
 10
376.162966
 20
557.347296
 30
0.0
 10
376.544630
 20
556.965640
 30
0.0
 10
377.078974
 20
556.632176
 30
0.0
 10
377.798126
 20
556.330048
 30
0.0
 10
378.726198
 20
556.033544
 30
0.0
 10
379.863982
 20
555.743480
 30
0.0
 10
381.209078
 20
555.459040
 30
0.0
 10
381.479862
 20
555.339304
 30
0.0
 10
381.727350
 20
555.205960
 30
0.0
 10
381.953942
 20
555.058064
 30
0.0
 10
382.157246
 20
554.896624
 30
0.0
 10
382.329990
 20
554.696544
 30
0.0
 10
382.452926
 20
554.424096
 30
0.0
 10
382.526846
 20
554.080992
 30
0.0
 10
382.551726
 20
553.667184
 30
0.0
 10
382.551742
 20
552.719024
 30
0.0
 10
382.537262
 20
552.423336
 30
0.0
 10
382.495502
 20
552.148512
 30
0.0
 10
382.424782
 20
551.893808
 30
0.0
 10
382.325950
 20
551.658368
 30
0.0
 10
379.521654
 20
551.853624
 30
0.0
 10
375.632606
 20
552.086648
 30
0.0
 10
374.305190
 20
552.134968
 30
0.0
 10
372.928758
 20
552.162968
 30
0.0
 10
371.503310
 20
552.172008
 30
0.0
  0
LWPOLYLINE
  5
10e
100
AcDbEntity
  8
0
 62
5
100
AcDbPolyline
 90
2
 70
0
 10
371.503246
 20
552.172576
 30
0.0
 10
370.203950
 20
552.163536
 30
0.0
  0
LWPOLYLINE
  5
10f
100
AcDbEntity
  8
0
 62
5
100
AcDbPolyline
 90
53
 70
0
 10
370.203950
 20
552.162944
 30
0.0
 10
368.877334
 20
552.134864
 30
0.0
 10
367.524206
 20
552.086544
 30
0.0
 10
364.742414
 20
551.940368
 30
0.0
 10
360.454502
 20
551.658352
 30
0.0
 10
360.355990
 20
552.202336
 30
0.0
 10
360.285590
 20
552.719008
 30
0.0
 10
360.243430
 20
553.206752
 30
0.0
 10
360.229350
 20
553.667168
 30
0.0
 10
360.320302
 20
554.324440
 30
0.0
 10
360.593022
 20
554.841912
 30
0.0
 10
361.047494
 20
555.220368
 30
0.0
 10
361.683798
 20
555.459024
 30
0.0
 10
362.491742
 20
555.630920
 30
0.0
 10
363.244638
 20
555.808528
 30
0.0
 10
363.942094
 20
555.992456
 30
0.0
 10
364.584110
 20
556.182128
 30
0.0
 10
365.181934
 20
556.388768
 30
0.0
 10
365.743598
 20
556.616080
 30
0.0
 10
366.270702
 20
556.862760
 30
0.0
 10
366.761654
 20
557.130328
 30
0.0
 10
367.222070
 20
557.421208
 30
0.0
 10
367.654366
 20
557.732976
 30
0.0
 10
368.057734
 20
558.064040
 30
0.0
 10
368.433782
 20
558.415968
 30
0.0
 10
368.798582
 20
558.805672
 30
0.0
 10
369.170614
 20
559.243592
 30
0.0
 10
369.549870
 20
559.729720
 30
0.0
 10
369.935566
 20
560.264064
 30
0.0
 10
381.096486
 20
576.591624
 30
0.0
 10
368.931166
 20
593.690568
 30
0.0
 10
368.408070
 20
594.318936
 30
0.0
 10
367.842390
 20
594.863704
 30
0.0
 10
367.234926
 20
595.323328
 30
0.0
 10
366.584878
 20
595.699384
 30
0.0
 10
365.827158
 20
596.015952
 30
0.0
 10
364.887846
 20
596.289960
 30
0.0
 10
363.766126
 20
596.522176
 30
0.0
 10
362.463622
 20
596.711760
 30
0.0
 10
361.826910
 20
596.907872
 30
0.0
 10
361.372438
 20
597.271864
 30
0.0
 10
361.099718
 20
597.803800
 30
0.0
 10
361.008766
 20
598.503664
 30
0.0
 10
361.030046
 20
598.921488
 30
0.0
 10
361.093166
 20
599.395576
 30
0.0
 10
361.198654
 20
599.925904
 30
0.0
 10
361.346262
 20
600.512472
 30
0.0
 10
362.821126
 20
600.355776
 30
0.0
 10
364.345406
 20
600.231296
 30
0.0
 10
365.918702
 20
600.138936
 30
0.0
 10
367.541014
 20
600.078536
 30
0.0
 10
370.847510
 20
600.018296
 30
0.0
 10
374.178102
 20
599.997976
 30
0.0
  0
LWPOLYLINE
  5
110
100
AcDbEntity
  8
0
 62
5
100
AcDbPolyline
 90
2
 70
0
 10
374.178166
 20
599.998200
 30
0.0
 10
378.153990
 20
600.018600
 30
0.0
  0
LWPOLYLINE
  5
111
100
AcDbEntity
  8
0
 62
5
100
AcDbPolyline
 90
94
 70
0
 10
378.153990
 20
600.018288
 30
0.0
 10
382.270430
 20
600.078608
 30
0.0
 10
384.276022
 20
600.138848
 30
0.0
 10
386.106446
 20
600.231104
 30
0.0
 10
387.763310
 20
600.355688
 30
0.0
 10
389.244198
 20
600.512456
 30
0.0
 10
389.553550
 20
599.111888
 30
0.0
 10
389.582510
 20
598.833072
 30
0.0
 10
389.560750
 20
598.506024
 30
0.0
 10
389.497310
 20
598.191856
 30
0.0
 10
389.392038
 20
597.891336
 30
0.0
 10
389.244190
 20
597.603680
 30
0.0
 10
389.048134
 20
597.353776
 30
0.0
 10
388.796638
 20
597.159432
 30
0.0
 10
388.489694
 20
597.020336
 30
0.0
 10
388.127302
 20
596.936656
 30
0.0
 10
386.810334
 20
596.760792
 30
0.0
 10
385.756918
 20
596.571208
 30
0.0
 10
384.969462
 20
596.367072
 30
0.0
 10
384.447174
 20
596.149368
 30
0.0
 10
384.106486
 20
595.899424
 30
0.0
 10
383.863014
 20
595.592464
 30
0.0
 10
383.716766
 20
595.228472
 30
0.0
 10
383.667726
 20
594.807424
 30
0.0
 10
383.765750
 20
594.179064
 30
0.0
 10
384.058230
 20
593.410896
 30
0.0
 10
384.545166
 20
592.503744
 30
0.0
 10
385.226550
 20
591.456736
 30
0.0
 10
392.257366
 20
582.176064
 30
0.0
 10
399.955102
 20
593.465552
 30
0.0
 10
400.299814
 20
594.073816
 30
0.0
 10
400.545694
 20
594.555936
 30
0.0
 10
400.693550
 20
594.913488
 30
0.0
 10
400.742510
 20
595.144904
 30
0.0
 10
400.711150
 20
595.418096
 30
0.0
 10
400.616342
 20
595.676848
 30
0.0
 10
400.458046
 20
595.920304
 30
0.0
 10
400.236262
 20
596.149304
 30
0.0
 10
399.885934
 20
596.367000
 30
0.0
 10
399.332310
 20
596.571168
 30
0.0
 10
398.576198
 20
596.760744
 30
0.0
 10
397.617590
 20
596.936768
 30
0.0
 10
396.981206
 20
597.097544
 30
0.0
 10
396.526406
 20
597.467096
 30
0.0
 10
396.254014
 20
598.045608
 30
0.0
 10
396.162422
 20
598.833072
 30
0.0
 10
396.166422
 20
598.959160
 30
0.0
 10
396.257950
 20
599.732200
 30
0.0
 10
396.317390
 20
599.978096
 30
0.0
 10
396.499782
 20
600.512432
 30
0.0
 10
398.723134
 20
600.287480
 30
0.0
 10
401.044510
 20
600.126672
 30
0.0
 10
403.463910
 20
600.030360
 30
0.0
 10
405.981342
 20
599.998120
 30
0.0
 10
408.187014
 20
600.030360
 30
0.0
 10
410.336430
 20
600.126672
 30
0.0
 10
412.429606
 20
600.287496
 30
0.0
 10
414.466534
 20
600.512384
 30
0.0
 10
414.568582
 20
600.231168
 30
0.0
 10
414.647302
 20
599.949944
 30
0.0
 10
414.705142
 20
599.668704
 30
0.0
 10
414.740502
 20
599.387488
 30
0.0
 10
414.795942
 20
598.503600
 30
0.0
 10
414.705958
 20
597.810968
 30
0.0
 10
414.434350
 20
597.299944
 30
0.0
 10
413.982774
 20
596.971280
 30
0.0
 10
413.349598
 20
596.824328
 30
0.0
 10
411.849422
 20
596.630576
 30
0.0
 10
410.586286
 20
596.387928
 30
0.0
 10
409.559382
 20
596.096256
 30
0.0
 10
408.769526
 20
595.755560
 30
0.0
 10
408.102606
 20
595.320856
 30
0.0
 10
407.434070
 20
594.739096
 30
0.0
 10
406.764742
 20
594.011112
 30
0.0
 10
406.093798
 20
593.136072
 30
0.0
 10
395.608646
 20
577.595976
 30
0.0
 10
407.661470
 20
560.489008
 30
0.0
 10
408.584718
 20
559.304600
 30
0.0
 10
409.458950
 20
558.323520
 30
0.0
 10
410.284166
 20
557.544896
 30
0.0
 10
411.060366
 20
556.969576
 30
0.0
 10
411.874334
 20
556.526824
 30
0.0
 10
412.805614
 20
556.145960
 30
0.0
 10
413.855014
 20
555.827760
 30
0.0
 10
415.021726
 20
555.571440
 30
0.0
 10
415.707134
 20
555.325576
 30
0.0
 10
416.196478
 20
554.926224
 30
0.0
 10
416.490566
 20
554.373408
 30
0.0
 10
416.588598
 20
553.667104
 30
0.0
 10
416.574118
 20
553.206688
 30
0.0
 10
416.532358
 20
552.718944
 30
0.0
 10
416.461638
 20
552.202272
 30
0.0
 10
416.363606
 20
551.658288
 30
0.0
 10
414.695494
 20
551.759656
 30
0.0
  0
LWPOLYLINE
  5
112
100
AcDbEntity
  8
0
 62
7
100
AcDbPolyline
 90
6
 70
0
 10
1560.204222
 20
571.646728
 30
0.0
 10
1570.047342
 20
581.839416
 30
0.0
 10
1582.783102
 20
575.628184
 30
0.0
 10
1580.814542
 20
561.597096
 30
0.0
 10
1566.857342
 20
559.136712
 30
0.0
 10
1560.204222
 20
571.646728
 30
0.0
  0
LWPOLYLINE
  5
113
100
AcDbEntity
  8
0
 62
7
100
AcDbPolyline
 90
6
 70
0
 10
1289.779022
 20
562.975144
 30
0.0
 10
1299.622142
 20
573.167800
 30
0.0
 10
1312.357982
 20
566.956576
 30
0.0
 10
1310.381262
 20
552.925488
 30
0.0
 10
1296.432142
 20
550.465104
 30
0.0
 10
1289.779022
 20
562.975144
 30
0.0
  0
LWPOLYLINE
  5
114
100
AcDbEntity
  8
0
 62
7
100
AcDbPolyline
 90
6
 70
0
 10
1019.347342
 20
554.303528
 30
0.0
 10
1029.189662
 20
564.495400
 30
0.0
 10
1041.924702
 20
558.284168
 30
0.0
 10
1039.952862
 20
544.253080
 30
0.0
 10
1025.998942
 20
541.792696
 30
0.0
 10
1019.347342
 20
554.303528
 30
0.0
  0
LWPOLYLINE
  5
115
100
AcDbEntity
  8
0
 62
7
100
AcDbPolyline
 90
6
 70
0
 10
748.917350
 20
545.631920
 30
0.0
 10
758.759670
 20
555.823784
 30
0.0
 10
771.494694
 20
549.612576
 30
0.0
 10
769.522846
 20
535.581464
 30
0.0
 10
755.569702
 20
533.121088
 30
0.0
 10
748.917350
 20
545.631920
 30
0.0
  0
LWPOLYLINE
  5
116
100
AcDbEntity
  8
0
 62
7
100
AcDbPolyline
 90
6
 70
0
 10
478.487326
 20
536.960328
 30
0.0
 10
488.330462
 20
547.152176
 30
0.0
 10
501.065478
 20
540.940968
 30
0.0
 10
499.092838
 20
526.909880
 30
0.0
 10
485.139678
 20
524.449496
 30
0.0
 10
478.487326
 20
536.960328
 30
0.0
  0
LWPOLYLINE
  5
117
100
AcDbEntity
  8
0
 62
3
100
AcDbPolyline
 90
5
 70
0
 10
1323.808142
 20
497.623904
 30
0.0
 10
1549.332542
 20
537.390200
 30
0.0
 10
1575.840702
 20
387.040432
 30
0.0
 10
1350.316302
 20
347.274432
 30
0.0
 10
1323.808142
 20
497.623904
 30
0.0
  0
LWPOLYLINE
  5
118
100
AcDbEntity
  8
0
 62
7
100
AcDbPolyline
 90
21
 70
0
 10
1440.889262
 20
377.132776
 30
0.0
 10
1439.611662
 20
384.355912
 30
0.0
 10
1479.249422
 20
391.344784
 30
0.0
 10
1480.518942
 20
384.121656
 30
0.0
 10
1508.216302
 20
389.005408
 30
0.0
 10
1506.946782
 20
396.228536
 30
0.0
 10
1513.913262
 20
397.456960
 30
0.0
 10
1494.701102
 20
506.420880
 30
0.0
 10
1487.734542
 20
505.192296
 30
0.0
 10
1486.456942
 20
512.415128
 30
0.0
 10
1458.759582
 20
507.532152
 30
0.0
 10
1460.037182
 20
500.308472
 30
0.0
 10
1420.399502
 20
493.319440
 30
0.0
 10
1419.121822
 20
500.543112
 30
0.0
 10
1391.424462
 20
495.659312
 30
0.0
 10
1392.702062
 20
488.436456
 30
0.0
 10
1385.735502
 20
487.207872
 30
0.0
 10
1404.947742
 20
378.243736
 30
0.0
 10
1411.914302
 20
379.472152
 30
0.0
 10
1413.191902
 20
372.249248
 30
0.0
 10
1440.889262
 20
377.132776
 30
0.0
  0
LWPOLYLINE
  5
119
100
AcDbEntity
  8
0
 62
3
100
AcDbPolyline
 90
5
 70
0
 10
1056.634782
 20
493.606304
 30
0.0
 10
1282.161582
 20
533.372600
 30
0.0
 10
1308.669742
 20
383.022720
 30
0.0
 10
1083.145342
 20
343.256720
 30
0.0
 10
1056.634782
 20
493.606304
 30
0.0
  0
LWPOLYLINE
  5
11a
100
AcDbEntity
  8
0
 62
7
100
AcDbPolyline
 90
21
 70
0
 10
1173.718302
 20
373.115296
 30
0.0
 10
1172.472862
 20
380.140448
 30
0.0
 10
1212.110622
 20
387.129328
 30
0.0
 10
1213.347982
 20
380.104168
 30
0.0
 10
1241.045422
 20
384.987920
 30
0.0
 10
1239.807982
 20
392.013080
 30
0.0
 10
1246.975422
 20
393.276424
 30
0.0
 10
1227.690862
 20
502.636288
 30
0.0
 10
1220.523422
 20
501.372352
 30
0.0
 10
1219.286062
 20
508.397536
 30
0.0
 10
1191.588622
 20
503.514528
 30
0.0
 10
1192.826062
 20
496.488552
 30
0.0
 10
1153.196382
 20
489.500312
 30
0.0
 10
1151.950942
 20
496.525488
 30
0.0
 10
1124.253502
 20
491.641696
 30
0.0
 10
1125.499022
 20
484.616512
 30
0.0
 10
1118.331582
 20
483.352576
 30
0.0
 10
1137.616062
 20
373.993576
 30
0.0
 10
1144.775502
 20
375.256920
 30
0.0
 10
1146.020942
 20
368.231536
 30
0.0
 10
1173.718302
 20
373.115296
 30
0.0
  0
LWPOLYLINE
  5
11b
100
AcDbEntity
  8
0
 62
3
100
AcDbPolyline
 90
5
 70
0
 10
789.463854
 20
489.588704
 30
0.0
 10
1014.988222
 20
529.354976
 30
0.0
 10
1041.498862
 20
379.005232
 30
0.0
 10
815.974462
 20
339.239232
 30
0.0
 10
789.463854
 20
489.588704
 30
0.0
  0
LWPOLYLINE
  5
11c
100
AcDbEntity
  8
0
 62
7
100
AcDbPolyline
 90
21
 70
0
 10
906.543342
 20
369.097576
 30
0.0
 10
905.339662
 20
375.924992
 30
0.0
 10
944.975822
 20
382.913872
 30
0.0
 10
946.179502
 20
376.086456
 30
0.0
 10
973.876062
 20
380.970208
 30
0.0
 10
972.672382
 20
387.797624
 30
0.0
 10
980.035102
 20
389.095888
 30
0.0
 10
960.682222
 20
498.850896
 30
0.0
 10
953.319582
 20
497.553200
 30
0.0
 10
952.115902
 20
504.379936
 30
0.0
 10
924.419342
 20
499.496928
 30
0.0
 10
925.623022
 20
492.669400
 30
0.0
 10
885.986862
 20
485.680368
 30
0.0
 10
884.783182
 20
492.507888
 30
0.0
 10
857.086622
 20
487.624096
 30
0.0
 10
858.290302
 20
480.796560
 30
0.0
 10
850.927662
 20
479.498072
 30
0.0
 10
870.280462
 20
369.742968
 30
0.0
 10
877.643102
 20
371.041240
 30
0.0
 10
878.846782
 20
364.213824
 30
0.0
 10
906.543342
 20
369.097576
 30
0.0
  0
LWPOLYLINE
  5
11d
100
AcDbEntity
  8
0
 62
3
100
AcDbPolyline
 90
5
 70
0
 10
522.292918
 20
485.571080
 30
0.0
 10
747.817326
 20
525.337376
 30
0.0
 10
774.327910
 20
374.987520
 30
0.0
 10
548.803502
 20
335.221520
 30
0.0
 10
522.292918
 20
485.571080
 30
0.0
  0
LWPOLYLINE
  5
11e
100
AcDbEntity
  8
0
 62
7
100
AcDbPolyline
 90
21
 70
0
 10
639.372446
 20
365.080096
 30
0.0
 10
638.203302
 20
371.709536
 30
0.0
 10
677.839430
 20
378.698640
 30
0.0
 10
679.008550
 20
372.068968
 30
0.0
 10
706.705150
 20
376.952720
 30
0.0
 10
705.536822
 20
383.582160
 30
0.0
 10
713.097158
 20
384.915352
 30
0.0
 10
693.674438
 20
495.066304
 30
0.0
 10
686.114102
 20
493.733272
 30
0.0
 10
684.944974
 20
500.362312
 30
0.0
 10
657.248382
 20
495.479328
 30
0.0
 10
658.416710
 20
488.849456
 30
0.0
 10
618.781398
 20
481.860440
 30
0.0
 10
617.612278
 20
488.490288
 30
0.0
 10
589.915678
 20
483.606496
 30
0.0
 10
591.084006
 20
476.976616
 30
0.0
 10
583.523670
 20
475.643584
 30
0.0
 10
602.946390
 20
365.492816
 30
0.0
 10
610.506726
 20
366.826008
 30
0.0
 10
611.675846
 20
360.196336
 30
0.0
 10
639.372446
 20
365.080096
 30
0.0
  0
LWPOLYLINE
  5
11f
100
AcDbEntity
  8
0
 62
3
100
AcDbPolyline
 90
5
 70
0
 10
255.122062
 20
481.553480
 30
0.0
 10
480.646390
 20
521.319776
 30
0.0
 10
507.156974
 20
370.970032
 30
0.0
 10
281.632566
 20
331.204032
 30
0.0
 10
255.122062
 20
481.553480
 30
0.0
  0
LWPOLYLINE
  5
120
100
AcDbEntity
  8
0
 62
7
100
AcDbPolyline
 90
21
 70
0
 10
372.201502
 20
361.062376
 30
0.0
 10
371.067734
 20
367.494080
 30
0.0
 10
410.703846
 20
374.482952
 30
0.0
 10
411.837622
 20
368.051256
 30
0.0
 10
439.534206
 20
372.935008
 30
0.0
 10
438.400438
 20
379.366704
 30
0.0
 10
446.158438
 20
380.734816
 30
0.0
 10
426.666606
 20
491.281712
 30
0.0
 10
418.907806
 20
489.913328
 30
0.0
 10
417.774038
 20
496.345528
 30
0.0
 10
390.077454
 20
491.461704
 30
0.0
 10
391.211222
 20
485.029528
 30
0.0
 10
351.575342
 20
478.040496
 30
0.0
 10
350.441254
 20
484.472672
 30
0.0
 10
322.744430
 20
479.588872
 30
0.0
 10
323.878358
 20
473.156696
 30
0.0
 10
316.120118
 20
471.789080
 30
0.0
 10
335.612422
 20
361.242664
 30
0.0
 10
343.370830
 20
362.610320
 30
0.0
 10
344.504918
 20
356.178624
 30
0.0
 10
372.201502
 20
361.062376
 30
0.0
  0
LWPOLYLINE
  5
121
100
AcDbEntity
  8
0
 62
3
100
AcDbPolyline
 90
5
 70
0
 10
255.121982
 20
172.819680
 30
0.0
 10
281.632566
 20
323.168832
 30
0.0
 10
507.156974
 20
283.403064
 30
0.0
 10
480.646390
 20
133.053232
 30
0.0
 10
255.121982
 20
172.819680
 30
0.0
  0
LWPOLYLINE
  5
122
100
AcDbEntity
  8
0
 62
7
100
AcDbPolyline
 90
21
 70
0
 10
418.907806
 20
164.459744
 30
0.0
 10
426.666606
 20
163.091408
 30
0.0
 10
446.158438
 20
273.638048
 30
0.0
 10
438.400438
 20
275.006168
 30
0.0
 10
439.534206
 20
281.437864
 30
0.0
 10
411.837622
 20
286.321616
 30
0.0
 10
410.703846
 20
279.889920
 30
0.0
 10
371.067734
 20
286.878792
 30
0.0
 10
372.201502
 20
293.310496
 30
0.0
 10
344.504918
 20
298.194248
 30
0.0
 10
343.370830
 20
291.762552
 30
0.0
 10
335.612422
 20
293.130432
 30
0.0
 10
316.120038
 20
182.584016
 30
0.0
 10
323.878278
 20
181.216360
 30
0.0
 10
322.744270
 20
174.784208
 30
0.0
 10
350.441094
 20
169.900448
 30
0.0
 10
351.575190
 20
176.332600
 30
0.0
 10
391.211222
 20
169.343504
 30
0.0
 10
390.077454
 20
162.911352
 30
0.0
 10
417.774038
 20
158.027592
 30
0.0
 10
418.907806
 20
164.459744
 30
0.0
  0
LWPOLYLINE
  5
123
100
AcDbEntity
  8
0
 62
3
100
AcDbPolyline
 90
5
 70
0
 10
522.292918
 20
168.801968
 30
0.0
 10
548.803502
 20
319.151352
 30
0.0
 10
774.327910
 20
279.385352
 30
0.0
 10
747.817326
 20
129.035744
 30
0.0
 10
522.292918
 20
168.801968
 30
0.0
  0
LWPOLYLINE
  5
124
100
AcDbEntity
  8
0
 62
7
100
AcDbPolyline
 90
21
 70
0
 10
686.114102
 20
160.639776
 30
0.0
 10
693.674438
 20
159.306816
 30
0.0
 10
713.097158
 20
269.457512
 30
0.0
 10
705.536822
 20
270.790704
 30
0.0
 10
706.705150
 20
277.420376
 30
0.0
 10
679.008550
 20
282.304128
 30
0.0
 10
677.839430
 20
275.674464
 30
0.0
 10
638.203302
 20
282.663336
 30
0.0
 10
639.372446
 20
289.293008
 30
0.0
 10
611.675846
 20
294.176760
 30
0.0
 10
610.506726
 20
287.546864
 30
0.0
 10
602.946390
 20
288.880280
 30
0.0
 10
583.523670
 20
178.729576
 30
0.0
 10
591.084006
 20
177.396384
 30
0.0
 10
589.915678
 20
170.766488
 30
0.0
 10
617.612278
 20
165.882736
 30
0.0
 10
618.781398
 20
172.512632
 30
0.0
 10
658.416710
 20
165.523528
 30
0.0
 10
657.248382
 20
158.893864
 30
0.0
 10
684.944974
 20
154.009880
 30
0.0
 10
686.114102
 20
160.639776
 30
0.0
  0
LWPOLYLINE
  5
125
100
AcDbEntity
  8
0
 62
3
100
AcDbPolyline
 90
5
 70
0
 10
789.463854
 20
164.784480
 30
0.0
 10
815.974462
 20
315.133632
 30
0.0
 10
1041.498862
 20
275.367864
 30
0.0
 10
1014.988222
 20
125.018032
 30
0.0
 10
789.463854
 20
164.784480
 30
0.0
  0
LWPOLYLINE
  5
126
100
AcDbEntity
  8
0
 62
7
100
AcDbPolyline
 90
21
 70
0
 10
953.319582
 20
156.819808
 30
0.0
 10
960.682222
 20
155.522224
 30
0.0
 10
980.035102
 20
265.277208
 30
0.0
 10
972.672382
 20
266.575248
 30
0.0
 10
973.876062
 20
273.402664
 30
0.0
 10
946.179502
 20
278.286416
 30
0.0
 10
944.975822
 20
271.459000
 30
0.0
 10
905.339662
 20
278.447880
 30
0.0
 10
906.543342
 20
285.275296
 30
0.0
 10
878.846782
 20
290.159048
 30
0.0
 10
877.643102
 20
283.331632
 30
0.0
 10
870.280462
 20
284.629904
 30
0.0
 10
850.927662
 20
174.874912
 30
0.0
 10
858.290302
 20
173.576416
 30
0.0
 10
857.086622
 20
166.749008
 30
0.0
 10
884.783182
 20
161.865248
 30
0.0
 10
885.986862
 20
168.692664
 30
0.0
 10
925.623022
 20
161.703560
 30
0.0
 10
924.419342
 20
154.876152
 30
0.0
 10
952.115902
 20
149.992392
 30
0.0
 10
953.319582
 20
156.819808
 30
0.0
  0
LWPOLYLINE
  5
127
100
AcDbEntity
  8
0
 62
3
100
AcDbPolyline
 90
5
 70
0
 10
1056.634782
 20
160.766768
 30
0.0
 10
1083.145342
 20
311.116152
 30
0.0
 10
1308.669742
 20
271.350152
 30
0.0
 10
1282.161582
 20
121.000544
 30
0.0
 10
1056.634782
 20
160.766768
 30
0.0
  0
LWPOLYLINE
  5
128
100
AcDbEntity
  8
0
 62
7
100
AcDbPolyline
 90
21
 70
0
 10
1220.523422
 20
153.000744
 30
0.0
 10
1227.690862
 20
151.736720
 30
0.0
 10
1246.975422
 20
261.096448
 30
0.0
 10
1239.807982
 20
262.359792
 30
0.0
 10
1241.045422
 20
269.385176
 30
0.0
 10
1213.347982
 20
274.268928
 30
0.0
 10
1212.110622
 20
267.243544
 30
0.0
 10
1172.472862
 20
274.232416
 30
0.0
 10
1173.718302
 20
281.257808
 30
0.0
 10
1146.020942
 20
286.141560
 30
0.0
 10
1144.775502
 20
279.116176
 30
0.0
 10
1137.616062
 20
280.379520
 30
0.0
 10
1118.331582
 20
171.019800
 30
0.0
 10
1125.499022
 20
169.756680
 30
0.0
 10
1124.253502
 20
162.731288
 30
0.0
 10
1151.950942
 20
157.847536
 30
0.0
 10
1153.196382
 20
164.872696
 30
0.0
 10
1192.826062
 20
157.883824
 30
0.0
 10
1191.588622
 20
150.858432
 30
0.0
 10
1219.286062
 20
145.974680
 30
0.0
 10
1220.523422
 20
153.000744
 30
0.0
  0
LWPOLYLINE
  5
129
100
AcDbEntity
  8
0
 62
3
100
AcDbPolyline
 90
5
 70
0
 10
1323.808142
 20
156.749056
 30
0.0
 10
1350.316302
 20
307.098432
 30
0.0
 10
1575.840702
 20
267.332440
 30
0.0
 10
1549.332542
 20
116.982832
 30
0.0
 10
1323.808142
 20
156.749056
 30
0.0
  0
LWPOLYLINE
  5
12a
100
AcDbEntity
  8
0
 62
7
100
AcDbPolyline
 90
21
 70
0
 10
1487.734542
 20
149.180776
 30
0.0
 10
1494.701102
 20
147.952128
 30
0.0
 10
1513.913262
 20
256.915912
 30
0.0
 10
1506.946782
 20
258.144328
 30
0.0
 10
1508.216302
 20
265.367464
 30
0.0
 10
1480.518942
 20
270.251216
 30
0.0
 10
1479.249422
 20
263.028088
 30
0.0
 10
1439.611662
 20
270.016960
 30
0.0
 10
1440.889262
 20
277.240096
 30
0.0
 10
1413.191902
 20
282.123848
 30
0.0
 10
1411.914302
 20
274.900712
 30
0.0
 10
1404.947742
 20
276.129136
 30
0.0
 10
1385.735502
 20
167.165128
 30
0.0
 10
1392.702062
 20
165.936712
 30
0.0
 10
1391.424462
 20
158.713808
 30
0.0
 10
1419.121822
 20
153.830048
 30
0.0
 10
1420.399502
 20
161.052728
 30
0.0
 10
1460.037182
 20
154.064536
 30
0.0
 10
1458.759582
 20
146.840952
 30
0.0
 10
1486.456942
 20
141.957192
 30
0.0
 10
1487.734542
 20
149.180776
 30
0.0
  0
LWPOLYLINE
  5
12b
100
AcDbEntity
  8
0
 62
7
100
AcDbPolyline
 90
6
 70
0
 10
478.487326
 20
117.412792
 30
0.0
 10
485.139678
 20
129.923560
 30
0.0
 10
499.092838
 20
127.463312
 30
0.0
 10
501.065478
 20
113.432040
 30
0.0
 10
488.330462
 20
107.220992
 30
0.0
 10
478.487326
 20
117.412792
 30
0.0
  0
LWPOLYLINE
  5
12c
100
AcDbEntity
  8
0
 62
7
100
AcDbPolyline
 90
6
 70
0
 10
748.917350
 20
108.741040
 30
0.0
 10
755.569702
 20
121.252032
 30
0.0
 10
769.522846
 20
118.791560
 30
0.0
 10
771.494694
 20
104.760520
 30
0.0
 10
758.759670
 20
98.549248
 30
0.0
 10
748.917350
 20
108.741040
 30
0.0
  0
LWPOLYLINE
  5
12d
100
AcDbEntity
  8
0
 62
7
100
AcDbPolyline
 90
6
 70
0
 10
1019.347342
 20
100.069520
 30
0.0
 10
1025.998942
 20
112.579608
 30
0.0
 10
1039.952862
 20
110.119136
 30
0.0
 10
1041.924702
 20
96.088096
 30
0.0
 10
1029.189662
 20
89.876816
 30
0.0
 10
1019.347342
 20
100.069520
 30
0.0
  0
LWPOLYLINE
  5
12e
100
AcDbEntity
  8
0
 62
7
100
AcDbPolyline
 90
6
 70
0
 10
1289.779022
 20
91.398000
 30
0.0
 10
1296.432142
 20
103.907856
 30
0.0
 10
1310.381262
 20
101.447616
 30
0.0
 10
1312.357982
 20
87.416568
 30
0.0
 10
1299.622142
 20
81.205296
 30
0.0
 10
1289.779022
 20
91.398000
 30
0.0
  0
LWPOLYLINE
  5
12f
100
AcDbEntity
  8
0
 62
7
100
AcDbPolyline
 90
6
 70
0
 10
1560.204222
 20
82.725568
 30
0.0
 10
1566.857342
 20
95.236336
 30
0.0
 10
1580.814542
 20
92.776096
 30
0.0
 10
1582.783102
 20
78.744824
 30
0.0
 10
1570.047342
 20
72.533776
 30
0.0
 10
1560.204222
 20
82.725568
 30
0.0
  0
LWPOLYLINE
  5
130
100
AcDbEntity
  8
0
 62
1
100
AcDbPolyline
 90
5
 70
0
 10
80.752166
 20
367.362552
 30
0.0
 10
0.400000
 20
367.362552
 30
0.0
 10
0.400000
 20
287.010552
 30
0.0
 10
80.752166
 20
287.010552
 30
0.0
 10
80.752166
 20
367.362552
 30
0.0
  0
ENDSEC
  0
SECTION
  2
OBJECTS
  0
DICTIONARY
  5
C
330
0
100
AcDbDictionary
  3
ACAD_GROUP
350
D
  3
ACAD_MLINESTYLE
350
17
  0
DICTIONARY
  5
D
330
C
100
AcDbDictionary
  0
DICTIONARY
  5
1A
330
C
100
AcDbDictionary
  0
DICTIONARY
  5
17
330
C
100
AcDbDictionary
  3
STANDARD
350
18
  0
DICTIONARY
  5
19
330
C
100
AcDbDictionary
  0
ENDSEC
  0
EOF
