  0
SECTION
  2
HEADER
  9
$ACADVER
  1
AC1014
  9
$HANDSEED
  5
FFFF
  9
$MEASUREMENT
 70
     1
  0
ENDSEC
  0
SECTION
  2
TABLES
  0
TABLE
  2
VPORT
  5
8
330
0
100
AcDbSymbolTable
 70
     4
  0
VPORT
  5
2E
330
8
100
AcDbSymbolTableRecord
100
AcDbViewportTableRecord
  2
*ACTIVE
 70
     0
 10
0.0
 20
0.0
 11
1.0
 21
1.0
 12
210.0
 22
148.5
 13
0.0
 23
0.0
 14
10.0
 24
10.0
 15
10.0
 25
10.0
 16
0.0
 26
0.0
 36
1.0
 17
0.0
 27
0.0
 37
0.0
 40
341.0
 41
1.24
 42
50.0
 43
0.0
 44
0.0
 50
0.0
 51
0.0
 71
     0
 72
   100
 73
     1
 74
     3
 75
     0
 76
     0
 77
     0
 78
     0
  0
ENDTAB
  0
TABLE
  2
LTYPE
  5
5
330
0
100
AcDbSymbolTable
 70
     1
  0
LTYPE
  5
14
330
5
100
AcDbSymbolTableRecord
100
AcDbLinetypeTableRecord
  2
BYBLOCK
 70
     0
  3

 72
    65
 73
     0
 40
0.0
  0
LTYPE
  5
15
330
5
100
AcDbSymbolTableRecord
100
AcDbLinetypeTableRecord
  2
BYLAYER
 70
     0
  3

 72
    65
 73
     0
 40
0.0
  0
LTYPE
  5
16
330
5
100
AcDbSymbolTableRecord
100
AcDbLinetypeTableRecord
  2
CONTINUOUS
 70
     0
  3
Solid line
 72
    65
 73
     0
 40
0.0
  0
ENDTAB
  0
TABLE
  2
LAYER
  5
2
100
AcDbSymbolTable
 70
1
  0
LAYER
  5
50
100
AcDbSymbolTableRecord
100
AcDbLayerTableRecord
  2
0
 70
0
  6
CONTINUOUS
  0
ENDTAB
  0
TABLE
  2
STYLE
  5
3
330
0
100
AcDbSymbolTable
 70
     1
  0
STYLE
  5
11
330
3
100
AcDbSymbolTableRecord
100
AcDbTextStyleTableRecord
  2
STANDARD
 70
     0
 40
0.0
 41
1.0
 50
0.0
 71
     0
 42
2.5
  3
txt
  4

  0
ENDTAB
  0
TABLE
  2
VIEW
  5
6
330
0
100
AcDbSymbolTable
 70
     0
  0
ENDTAB
  0
TABLE
  2
UCS
  5
7
330
0
100
AcDbSymbolTable
 70
     0
  0
ENDTAB
  0
TABLE
  2
APPID
  5
9
330
0
100
AcDbSymbolTable
 70
     2
  0
APPID
  5
12
330
9
100
AcDbSymbolTableRecord
100
AcDbRegAppTableRecord
  2
ACAD
 70
     0
  0
ENDTAB
  0
TABLE
  2
DIMSTYLE
  5
A
330
0
100
AcDbSymbolTable
 70
     1
  0
DIMSTYLE
105
27
330
A
100
AcDbSymbolTableRecord
100
AcDbDimStyleTableRecord
  2
ISO-25
 70
     0
  3

  4

  5

  6

  7

 40
1.0
 41
2.5
 42
0.625
 43
3.75
 44
1.25
 45
0.0
 46
0.0
 47
0.0
 48
0.0
140
2.5
141
2.5
142
0.0
143
0.03937007874016
144
1.0
145
0.0
146
1.0
147
0.625
 71
     0
 72
     0
 73
     0
 74
     0
 75
     0
 76
     0
 77
     1
 78
     8
170
     0
171
     3
172
     1
173
     0
174
     0
175
     0
176
     0
177
     0
178
     0
270
     2
271
     2
272
     2
273
     2
274
     3
340
11
275
     0
280
     0
281
     0
282
     0
283
     0
284
     8
285
     0
286
     0
287
     3
288
     0
  0
ENDTAB
  0
TABLE
  2
BLOCK_RECORD
  5
1
330
0
100
AcDbSymbolTable
 70
     1
  0
BLOCK_RECORD
  5
1F
330
1
100
AcDbSymbolTableRecord
100
AcDbBlockTableRecord
  2
*MODEL_SPACE
  0
BLOCK_RECORD
  5
1B
330
1
100
AcDbSymbolTableRecord
100
AcDbBlockTableRecord
  2
*PAPER_SPACE
  0
ENDTAB
  0
ENDSEC
  0
SECTION
  2
BLOCKS
  0
BLOCK
  5
20
330
1F
100
AcDbEntity
  8
0
100
AcDbBlockBegin
  2
*MODEL_SPACE
 70
     0
 10
0.0
 20
0.0
 30
0.0
  3
*MODEL_SPACE
  1

  0
ENDBLK
  5
21
330
1F
100
AcDbEntity
  8
0
100
AcDbBlockEnd
  0
BLOCK
  5
1C
330
1B
100
AcDbEntity
 67
     1
  8
0
100
AcDbBlockBegin
  2
*PAPER_SPACE
  1

  0
ENDBLK
  5
1D
330
1B
100
AcDbEntity
 67
     1
  8
0
100
AcDbBlockEnd
  0
ENDSEC
  0
SECTION
  2
ENTITIES
  0
LWPOLYLINE
  5
100
100
AcDbEntity
  8
0
 62
1
100
AcDbPolyline
 90
53
 70
0
 10
1230.707074
 20
375.701360
 30
0.0
 10
1232.260434
 20
376.098216
 30
0.0
 10
1233.748674
 20
376.687824
 30
0.0
 10
1235.151794
 20
377.461680
 30
0.0
 10
1236.447234
 20
378.402784
 30
0.0
 10
1237.615154
 20
379.499792
 30
0.0
 10
1238.638434
 20
380.732864
 30
0.0
 10
1239.494514
 20
382.084984
 30
0.0
 10
1240.177634
 20
383.533488
 30
0.0
 10
1240.673714
 20
385.058528
 30
0.0
 10
1240.971314
 20
386.631760
 30
0.0
 10
1241.073394
 20
388.230496
 30
0.0
 10
1241.073394
 20
672.726880
 30
0.0
 10
1240.971314
 20
674.325616
 30
0.0
 10
1240.673714
 20
675.898848
 30
0.0
 10
1240.177634
 20
677.423888
 30
0.0
 10
1239.494514
 20
678.872392
 30
0.0
 10
1238.638434
 20
680.224512
 30
0.0
 10
1237.615154
 20
681.457584
 30
0.0
 10
1236.447234
 20
682.554592
 30
0.0
 10
1235.151794
 20
683.495696
 30
0.0
 10
1233.748674
 20
684.269552
 30
0.0
 10
1232.260434
 20
684.859160
 30
0.0
 10
1230.707074
 20
685.256008
 30
0.0
 10
1229.119714
 20
685.457272
 30
0.0
 10
670.892914
 20
685.457272
 30
0.0
 10
669.305514
 20
685.256008
 30
0.0
 10
667.752130
 20
684.859160
 30
0.0
 10
666.263938
 20
684.269552
 30
0.0
 10
664.860786
 20
683.495696
 30
0.0
 10
663.565354
 20
682.554592
 30
0.0
 10
662.397482
 20
681.457584
 30
0.0
 10
661.374178
 20
680.224512
 30
0.0
 10
660.518114
 20
678.872392
 30
0.0
 10
659.834962
 20
677.423888
 30
0.0
 10
659.338898
 20
675.898848
 30
0.0
 10
659.041258
 20
674.325616
 30
0.0
 10
658.939210
 20
672.726880
 30
0.0
 10
658.939210
 20
388.230496
 30
0.0
 10
659.041258
 20
386.631760
 30
0.0
 10
659.338898
 20
385.058528
 30
0.0
 10
659.834962
 20
383.533488
 30
0.0
 10
660.518114
 20
382.084984
 30
0.0
 10
661.374178
 20
380.732864
 30
0.0
 10
662.397482
 20
379.499792
 30
0.0
 10
663.565354
 20
378.402784
 30
0.0
 10
664.860786
 20
377.461680
 30
0.0
 10
666.263938
 20
376.687824
 30
0.0
 10
667.752130
 20
376.098216
 30
0.0
 10
669.305514
 20
375.701360
 30
0.0
 10
670.892914
 20
375.500104
 30
0.0
 10
1229.119714
 20
375.500104
 30
0.0
 10
1230.707074
 20
375.701360
 30
0.0
  0
LWPOLYLINE
  5
101
100
AcDbEntity
  8
0
 62
1
100
AcDbPolyline
 90
51
 70
0
 10
701.087562
 20
675.567192
 30
0.0
 10
700.736066
 20
675.612552
 30
0.0
 10
700.390234
 20
675.700416
 30
0.0
 10
700.058586
 20
675.830816
 30
0.0
 10
699.746770
 20
676.003728
 30
0.0
 10
699.460474
 20
676.210656
 30
0.0
 10
699.199682
 20
676.454432
 30
0.0
 10
698.972914
 20
676.729400
 30
0.0
 10
698.782994
 20
677.029872
 30
0.0
 10
698.629922
 20
677.353016
 30
0.0
 10
698.519370
 20
677.690344
 30
0.0
 10
698.454170
 20
678.041840
 30
0.0
 10
698.431458
 20
678.396168
 30
0.0
 10
698.454218
 20
678.750496
 30
0.0
 10
698.519378
 20
679.101992
 30
0.0
 10
698.629922
 20
679.439320
 30
0.0
 10
698.782994
 20
679.762464
 30
0.0
 10
698.972914
 20
680.062936
 30
0.0
 10
699.199682
 20
680.337896
 30
0.0
 10
699.460474
 20
680.578848
 30
0.0
 10
699.746770
 20
680.788608
 30
0.0
 10
700.058586
 20
680.961520
 30
0.0
 10
700.390234
 20
681.091912
 30
0.0
 10
700.736066
 20
681.179792
 30
0.0
 10
701.087562
 20
681.225152
 30
0.0
 10
701.444722
 20
681.225144
 30
0.0
 10
701.796218
 20
681.179784
 30
0.0
 10
702.142050
 20
681.091912
 30
0.0
 10
702.473698
 20
680.961520
 30
0.0
 10
702.785514
 20
680.788608
 30
0.0
 10
703.071810
 20
680.578848
 30
0.0
 10
703.332602
 20
680.337896
 30
0.0
 10
703.559370
 20
680.062936
 30
0.0
 10
703.749290
 20
679.762464
 30
0.0
 10
703.902362
 20
679.439320
 30
0.0
 10
704.012914
 20
679.101992
 30
0.0
 10
704.078114
 20
678.750496
 30
0.0
 10
704.100754
 20
678.396168
 30
0.0
 10
704.078146
 20
678.041840
 30
0.0
 10
704.012914
 20
677.690344
 30
0.0
 10
703.902362
 20
677.353016
 30
0.0
 10
703.749290
 20
677.029872
 30
0.0
 10
703.559370
 20
676.729400
 30
0.0
 10
703.332602
 20
676.454432
 30
0.0
 10
703.071810
 20
676.210656
 30
0.0
 10
702.785514
 20
676.003728
 30
0.0
 10
702.473698
 20
675.830816
 30
0.0
 10
702.142050
 20
675.700416
 30
0.0
 10
701.796218
 20
675.612544
 30
0.0
 10
701.444722
 20
675.567184
 30
0.0
 10
701.087562
 20
675.567192
 30
0.0
  0
LWPOLYLINE
  5
102
100
AcDbEntity
  8
0
 62
1
100
AcDbPolyline
 90
51
 70
0
 10
744.174178
 20
675.567192
 30
0.0
 10
743.822674
 20
675.612552
 30
0.0
 10
743.476850
 20
675.700416
 30
0.0
 10
743.145194
 20
675.830816
 30
0.0
 10
742.833386
 20
676.003728
 30
0.0
 10
742.547090
 20
676.210656
 30
0.0
 10
742.286298
 20
676.454432
 30
0.0
 10
742.059530
 20
676.729400
 30
0.0
 10
741.869610
 20
677.029872
 30
0.0
 10
741.716538
 20
677.353016
 30
0.0
 10
741.605986
 20
677.690344
 30
0.0
 10
741.540786
 20
678.041840
 30
0.0
 10
741.518146
 20
678.396168
 30
0.0
 10
741.540754
 20
678.750496
 30
0.0
 10
741.605986
 20
679.101992
 30
0.0
 10
741.716538
 20
679.439320
 30
0.0
 10
741.869610
 20
679.762464
 30
0.0
 10
742.059530
 20
680.062936
 30
0.0
 10
742.286298
 20
680.337896
 30
0.0
 10
742.547090
 20
680.578848
 30
0.0
 10
742.833386
 20
680.788608
 30
0.0
 10
743.145194
 20
680.961520
 30
0.0
 10
743.476850
 20
681.091912
 30
0.0
 10
743.822674
 20
681.179792
 30
0.0
 10
744.174178
 20
681.225152
 30
0.0
 10
744.531338
 20
681.225144
 30
0.0
 10
744.882834
 20
681.179784
 30
0.0
 10
745.228658
 20
681.091912
 30
0.0
 10
745.560314
 20
680.961520
 30
0.0
 10
745.872130
 20
680.788608
 30
0.0
 10
746.158426
 20
680.578848
 30
0.0
 10
746.419210
 20
680.337896
 30
0.0
 10
746.645986
 20
680.062936
 30
0.0
 10
746.835906
 20
679.762464
 30
0.0
 10
746.988978
 20
679.439320
 30
0.0
 10
747.099530
 20
679.101992
 30
0.0
 10
747.164730
 20
678.750496
 30
0.0
 10
747.187442
 20
678.396168
 30
0.0
 10
747.164682
 20
678.041840
 30
0.0
 10
747.099522
 20
677.690344
 30
0.0
 10
746.988978
 20
677.353016
 30
0.0
 10
746.835906
 20
677.029872
 30
0.0
 10
746.645986
 20
676.729400
 30
0.0
 10
746.419210
 20
676.454432
 30
0.0
 10
746.158426
 20
676.210656
 30
0.0
 10
745.872130
 20
676.003728
 30
0.0
 10
745.560314
 20
675.830816
 30
0.0
 10
745.228658
 20
675.700416
 30
0.0
 10
744.882834
 20
675.612544
 30
0.0
 10
744.531338
 20
675.567184
 30
0.0
 10
744.174178
 20
675.567192
 30
0.0
  0
LWPOLYLINE
  5
103
100
AcDbEntity
  8
0
 62
1
100
AcDbPolyline
 90
13
 70
0
 10
1228.050994
 20
668.483408
 30
0.0
 10
1227.520914
 20
668.551408
 30
0.0
 10
1227.002194
 20
668.681840
 30
0.0
 10
1226.506114
 20
668.880264
 30
0.0
 10
1226.038434
 20
669.135384
 30
0.0
 10
1225.607554
 20
669.450024
 30
0.0
 10
1225.219234
 20
669.815696
 30
0.0
 10
1224.876194
 20
670.226720
 30
0.0
 10
1224.592754
 20
670.677424
 30
0.0
 10
1224.363154
 20
671.162152
 30
0.0
 10
1224.198754
 20
671.669552
 30
0.0
 10
1224.099554
 20
672.193960
 30
0.0
 10
1224.065154
 20
672.726880
 30
0.0
  0
LWPOLYLINE
  5
104
100
AcDbEntity
  8
0
 62
1
100
AcDbPolyline
 90
2
 70
0
 10
1224.065474
 20
672.726880
 30
0.0
 10
1224.099874
 20
673.259792
 30
0.0
  0
LWPOLYLINE
  5
105
100
AcDbEntity
  8
0
 62
1
100
AcDbPolyline
 90
25
 70
0
 10
1224.099554
 20
673.259792
 30
0.0
 10
1224.198754
 20
673.784200
 30
0.0
 10
1224.363154
 20
674.291600
 30
0.0
 10
1224.592754
 20
674.776328
 30
0.0
 10
1224.876194
 20
675.227032
 30
0.0
 10
1225.219234
 20
675.638056
 30
0.0
 10
1225.607554
 20
676.003728
 30
0.0
 10
1226.038434
 20
676.315536
 30
0.0
 10
1226.506114
 20
676.573488
 30
0.0
 10
1227.002194
 20
676.771912
 30
0.0
 10
1227.520914
 20
676.902312
 30
0.0
 10
1228.050994
 20
676.970312
 30
0.0
 10
1228.583954
 20
676.970344
 30
0.0
 10
1229.114034
 20
676.902344
 30
0.0
 10
1229.629954
 20
676.771912
 30
0.0
 10
1230.128834
 20
676.573488
 30
0.0
 10
1230.596514
 20
676.315536
 30
0.0
 10
1231.027394
 20
676.003728
 30
0.0
 10
1231.415714
 20
675.638056
 30
0.0
 10
1231.755874
 20
675.227032
 30
0.0
 10
1232.042194
 20
674.776328
 30
0.0
 10
1232.271794
 20
674.291600
 30
0.0
 10
1232.436194
 20
673.784200
 30
0.0
 10
1232.535474
 20
673.259792
 30
0.0
 10
1232.569874
 20
672.726880
 30
0.0
  0
LWPOLYLINE
  5
106
100
AcDbEntity
  8
0
 62
1
100
AcDbPolyline
 90
2
 70
0
 10
1232.569474
 20
672.726880
 30
0.0
 10
1232.535074
 20
672.193960
 30
0.0
  0
LWPOLYLINE
  5
107
100
AcDbEntity
  8
0
 62
1
100
AcDbPolyline
 90
13
 70
0
 10
1232.535474
 20
672.193960
 30
0.0
 10
1232.436194
 20
671.669552
 30
0.0
 10
1232.271794
 20
671.162152
 30
0.0
 10
1232.042194
 20
670.677424
 30
0.0
 10
1231.755874
 20
670.226720
 30
0.0
 10
1231.415714
 20
669.815696
 30
0.0
 10
1231.027394
 20
669.450024
 30
0.0
 10
1230.596514
 20
669.135384
 30
0.0
 10
1230.128834
 20
668.880264
 30
0.0
 10
1229.629954
 20
668.681840
 30
0.0
 10
1229.114034
 20
668.551440
 30
0.0
 10
1228.583954
 20
668.483440
 30
0.0
 10
1228.050994
 20
668.483408
 30
0.0
  0
LWPOLYLINE
  5
108
100
AcDbEntity
  8
0
 62
1
100
AcDbPolyline
 90
51
 70
0
 10
671.428658
 20
668.483408
 30
0.0
 10
670.898586
 20
668.551408
 30
0.0
 10
670.382682
 20
668.681840
 30
0.0
 10
669.883778
 20
668.880264
 30
0.0
 10
669.416066
 20
669.135384
 30
0.0
 10
668.985194
 20
669.450024
 30
0.0
 10
668.596850
 20
669.815696
 30
0.0
 10
668.256690
 20
670.226720
 30
0.0
 10
667.970394
 20
670.677424
 30
0.0
 10
667.740786
 20
671.162152
 30
0.0
 10
667.576378
 20
671.669552
 30
0.0
 10
667.477170
 20
672.193960
 30
0.0
 10
667.443170
 20
672.726880
 30
0.0
 10
667.477154
 20
673.259792
 30
0.0
 10
667.576378
 20
673.784200
 30
0.0
 10
667.740786
 20
674.291600
 30
0.0
 10
667.970394
 20
674.776328
 30
0.0
 10
668.256690
 20
675.227032
 30
0.0
 10
668.596850
 20
675.638056
 30
0.0
 10
668.985194
 20
676.003728
 30
0.0
 10
669.416066
 20
676.315536
 30
0.0
 10
669.883778
 20
676.573488
 30
0.0
 10
670.382682
 20
676.771912
 30
0.0
 10
670.898586
 20
676.902312
 30
0.0
 10
671.428658
 20
676.970312
 30
0.0
 10
671.961578
 20
676.970344
 30
0.0
 10
672.491650
 20
676.902344
 30
0.0
 10
673.010394
 20
676.771912
 30
0.0
 10
673.506458
 20
676.573488
 30
0.0
 10
673.974178
 20
676.315536
 30
0.0
 10
674.405042
 20
676.003728
 30
0.0
 10
674.793386
 20
675.638056
 30
0.0
 10
675.136378
 20
675.227032
 30
0.0
 10
675.419842
 20
674.776328
 30
0.0
 10
675.649450
 20
674.291600
 30
0.0
 10
675.813858
 20
673.784200
 30
0.0
 10
675.913074
 20
673.259792
 30
0.0
 10
675.947074
 20
672.726880
 30
0.0
 10
675.913090
 20
672.193960
 30
0.0
 10
675.813858
 20
671.669552
 30
0.0
 10
675.649450
 20
671.162152
 30
0.0
 10
675.419842
 20
670.677424
 30
0.0
 10
675.136378
 20
670.226720
 30
0.0
 10
674.793386
 20
669.815696
 30
0.0
 10
674.405042
 20
669.450024
 30
0.0
 10
673.974178
 20
669.135384
 30
0.0
 10
673.506458
 20
668.880264
 30
0.0
 10
673.010394
 20
668.681840
 30
0.0
 10
672.491650
 20
668.551440
 30
0.0
 10
671.961578
 20
668.483440
 30
0.0
 10
671.428658
 20
668.483408
 30
0.0
  0
LWPOLYLINE
  5
109
100
AcDbEntity
  8
0
 62
1
100
AcDbPolyline
 90
51
 70
0
 10
773.657322
 20
668.483408
 30
0.0
 10
773.127242
 20
668.551408
 30
0.0
 10
772.608506
 20
668.681840
 30
0.0
 10
772.112442
 20
668.880264
 30
0.0
 10
771.644722
 20
669.135384
 30
0.0
 10
771.213858
 20
669.450024
 30
0.0
 10
770.825514
 20
669.815696
 30
0.0
 10
770.482522
 20
670.226720
 30
0.0
 10
770.199058
 20
670.677424
 30
0.0
 10
769.969450
 20
671.162152
 30
0.0
 10
769.805042
 20
671.669552
 30
0.0
 10
769.705826
 20
672.193960
 30
0.0
 10
769.671826
 20
672.726880
 30
0.0
 10
769.705810
 20
673.259792
 30
0.0
 10
769.805042
 20
673.784200
 30
0.0
 10
769.969450
 20
674.291600
 30
0.0
 10
770.199058
 20
674.776328
 30
0.0
 10
770.482522
 20
675.227032
 30
0.0
 10
770.825514
 20
675.638056
 30
0.0
 10
771.213858
 20
676.003728
 30
0.0
 10
771.644722
 20
676.315536
 30
0.0
 10
772.112442
 20
676.573488
 30
0.0
 10
772.608506
 20
676.771912
 30
0.0
 10
773.127242
 20
676.902312
 30
0.0
 10
773.657322
 20
676.970312
 30
0.0
 10
774.190234
 20
676.970344
 30
0.0
 10
774.720314
 20
676.902344
 30
0.0
 10
775.239058
 20
676.771912
 30
0.0
 10
775.735122
 20
676.573488
 30
0.0
 10
776.202834
 20
676.315536
 30
0.0
 10
776.633698
 20
676.003728
 30
0.0
 10
777.022050
 20
675.638056
 30
0.0
 10
777.365042
 20
675.227032
 30
0.0
 10
777.648506
 20
674.776328
 30
0.0
 10
777.878114
 20
674.291600
 30
0.0
 10
778.042522
 20
673.784200
 30
0.0
 10
778.141730
 20
673.259792
 30
0.0
 10
778.175730
 20
672.726880
 30
0.0
 10
778.141746
 20
672.193960
 30
0.0
 10
778.042522
 20
671.669552
 30
0.0
 10
777.878114
 20
671.162152
 30
0.0
 10
777.648506
 20
670.677424
 30
0.0
 10
777.365042
 20
670.226720
 30
0.0
 10
777.022050
 20
669.815696
 30
0.0
 10
776.633698
 20
669.450024
 30
0.0
 10
776.202834
 20
669.135384
 30
0.0
 10
775.735122
 20
668.880264
 30
0.0
 10
775.239058
 20
668.681840
 30
0.0
 10
774.720314
 20
668.551440
 30
0.0
 10
774.190234
 20
668.483440
 30
0.0
 10
773.657322
 20
668.483408
 30
0.0
  0
LWPOLYLINE
  5
10a
100
AcDbEntity
  8
0
 62
1
100
AcDbPolyline
 90
53
 70
0
 10
1165.802194
 20
633.413176
 30
0.0
 10
1165.396834
 20
633.461336
 30
0.0
 10
1165.019874
 20
633.535048
 30
0.0
 10
1164.674034
 20
633.642784
 30
0.0
 10
1164.359394
 20
633.781680
 30
0.0
 10
1164.073074
 20
633.948920
 30
0.0
 10
1163.815154
 20
634.147352
 30
0.0
 10
1163.582674
 20
634.388296
 30
0.0
 10
1163.367234
 20
634.683096
 30
0.0
 10
1163.171634
 20
635.034592
 30
0.0
 10
1162.995874
 20
635.439944
 30
0.0
 10
1162.837154
 20
635.899160
 30
0.0
 10
1162.698274
 20
636.412232
 30
0.0
 10
1162.576354
 20
636.981992
 30
0.0
 10
1162.329794
 20
636.573808
 30
0.0
 10
1162.060434
 20
636.182624
 30
0.0
 10
1161.768514
 20
635.805616
 30
0.0
 10
1161.456674
 20
635.445616
 30
0.0
 10
1161.122194
 20
635.102624
 30
0.0
 10
1160.767874
 20
634.773808
 30
0.0
 10
1160.390834
 20
634.461992
 30
0.0
 10
1159.994034
 20
634.178528
 30
0.0
 10
1159.585794
 20
633.940416
 30
0.0
 10
1159.157794
 20
633.744832
 30
0.0
 10
1158.715554
 20
633.594592
 30
0.0
 10
1158.259234
 20
633.486880
 30
0.0
 10
1157.788674
 20
633.421680
 30
0.0
 10
1157.301074
 20
633.399040
 30
0.0
 10
1156.728514
 20
633.416040
 30
0.0
 10
1156.178594
 20
633.461368
 30
0.0
 10
1155.656994
 20
633.540728
 30
0.0
 10
1155.158114
 20
633.651288
 30
0.0
 10
1154.684754
 20
633.793016
 30
0.0
 10
1154.236834
 20
633.965928
 30
0.0
 10
1153.814514
 20
634.170024
 30
0.0
 10
1153.414834
 20
634.399632
 30
0.0
 10
1153.034994
 20
634.649080
 30
0.0
 10
1152.677794
 20
634.918376
 30
0.0
 10
1152.340434
 20
635.204672
 30
0.0
 10
1152.022994
 20
635.507976
 30
0.0
 10
1151.728194
 20
635.831128
 30
0.0
 10
1151.453234
 20
636.174120
 30
0.0
 10
1151.200914
 20
636.531288
 30
0.0
 10
1150.965634
 20
636.905456
 30
0.0
 10
1150.755874
 20
637.290968
 30
0.0
 10
1150.563154
 20
637.690656
 30
0.0
 10
1150.393074
 20
638.101680
 30
0.0
 10
1150.242834
 20
638.529712
 30
0.0
 10
1150.115314
 20
638.969080
 30
0.0
 10
1150.004754
 20
639.416952
 30
0.0
 10
1149.911154
 20
639.864832
 30
0.0
 10
1149.837554
 20
640.315536
 30
0.0
 10
1149.778274
 20
640.766248
 30
0.0
  0
LWPOLYLINE
  5
10b
100
AcDbEntity
  8
0
 62
1
100
AcDbPolyline
 90
4
 70
0
 10
1149.777954
 20
640.766248
 30
0.0
 10
1149.735554
 20
641.216952
 30
0.0
 10
1149.709874
 20
641.667664
 30
0.0
 10
1149.701154
 20
642.121208
 30
0.0
  0
LWPOLYLINE
  5
10c
100
AcDbEntity
  8
0
 62
1
100
AcDbPolyline
 90
2
 70
0
 10
1149.701394
 20
642.121208
 30
0.0
 10
1149.712594
 20
642.724984
 30
0.0
  0
LWPOLYLINE
  5
10d
100
AcDbEntity
  8
0
 62
1
100
AcDbPolyline
 90
2
 70
0
 10
1149.712754
 20
642.724984
 30
0.0
 10
1149.752754
 20
643.308920
 30
0.0
  0
LWPOLYLINE
  5
10e
100
AcDbEntity
  8
0
 62
1
100
AcDbPolyline
 90
2
 70
0
 10
1149.752434
 20
643.308920
 30
0.0
 10
1149.811634
 20
643.875856
 30
0.0
  0
LWPOLYLINE
  5
10f
100
AcDbEntity
  8
0
 62
1
100
AcDbPolyline
 90
57
 70
0
 10
1149.811954
 20
643.875856
 30
0.0
 10
1149.899874
 20
644.425776
 30
0.0
 10
1150.013234
 20
644.955856
 30
0.0
 10
1150.149314
 20
645.468920
 30
0.0
 10
1150.310834
 20
645.964984
 30
0.0
 10
1150.495154
 20
646.441208
 30
0.0
 10
1150.696354
 20
646.897584
 30
0.0
 10
1150.917474
 20
647.331288
 30
0.0
 10
1151.158434
 20
647.745144
 30
0.0
 10
1151.416354
 20
648.139160
 30
0.0
 10
1151.691314
 20
648.510496
 30
0.0
 10
1151.986114
 20
648.859160
 30
0.0
 10
1152.297954
 20
649.187976
 30
0.0
 10
1152.621074
 20
649.496952
 30
0.0
 10
1152.958434
 20
649.780416
 30
0.0
 10
1153.309954
 20
650.044040
 30
0.0
 10
1153.675554
 20
650.287824
 30
0.0
 10
1154.055474
 20
650.506088
 30
0.0
 10
1154.446594
 20
650.704512
 30
0.0
 10
1154.849154
 20
650.877424
 30
0.0
 10
1155.260194
 20
651.024832
 30
0.0
 10
1155.676834
 20
651.146720
 30
0.0
 10
1156.102034
 20
651.240264
 30
0.0
 10
1156.532914
 20
651.305464
 30
0.0
 10
1156.972274
 20
651.345136
 30
0.0
 10
1157.417314
 20
651.359304
 30
0.0
 10
1157.814194
 20
651.350840
 30
0.0
 10
1158.196834
 20
651.330976
 30
0.0
 10
1158.562514
 20
651.294088
 30
0.0
 10
1158.914034
 20
651.245960
 30
0.0
 10
1159.251314
 20
651.180728
 30
0.0
 10
1159.571634
 20
651.104176
 30
0.0
 10
1159.877794
 20
651.010656
 30
0.0
 10
1160.169794
 20
650.905776
 30
0.0
 10
1160.450434
 20
650.783888
 30
0.0
 10
1160.722514
 20
650.647824
 30
0.0
 10
1160.980434
 20
650.497584
 30
0.0
 10
1161.227074
 20
650.330344
 30
0.0
 10
1161.465234
 20
650.151760
 30
0.0
 10
1161.689154
 20
649.956168
 30
0.0
 10
1161.904594
 20
649.746400
 30
0.0
 10
1162.111474
 20
649.519632
 30
0.0
 10
1162.307074
 20
649.275856
 30
0.0
 10
1162.496994
 20
649.017896
 30
0.0
 10
1162.675554
 20
648.742936
 30
0.0
 10
1162.845634
 20
648.450968
 30
0.0
 10
1163.007234
 20
648.144832
 30
0.0
 10
1163.163154
 20
647.821680
 30
0.0
 10
1163.313394
 20
647.478688
 30
0.0
 10
1163.457954
 20
647.115856
 30
0.0
 10
1163.599714
 20
646.733176
 30
0.0
 10
1163.735714
 20
646.330656
 30
0.0
 10
1163.866114
 20
645.908296
 30
0.0
 10
1163.993714
 20
645.468920
 30
0.0
 10
1164.081554
 20
645.732544
 30
0.0
 10
1164.166594
 20
646.004672
 30
0.0
 10
1164.245794
 20
646.285304
 30
0.0
  0
LWPOLYLINE
  5
110
100
AcDbEntity
  8
0
 62
1
100
AcDbPolyline
 90
2
 70
0
 10
1164.245954
 20
646.285304
 30
0.0
 10
1164.319554
 20
646.574432
 30
0.0
  0
LWPOLYLINE
  5
111
100
AcDbEntity
  8
0
 62
1
100
AcDbPolyline
 90
6
 70
0
 10
1164.319714
 20
646.574432
 30
0.0
 10
1164.393314
 20
646.872072
 30
0.0
 10
1164.461394
 20
647.181048
 30
0.0
 10
1164.583314
 20
647.813176
 30
0.0
 10
1164.682514
 20
648.416952
 30
0.0
 10
1164.761714
 20
648.989552
 30
0.0
  0
LWPOLYLINE
  5
112
100
AcDbEntity
  8
0
 62
1
100
AcDbPolyline
 90
4
 70
0
 10
1164.761874
 20
648.989552
 30
0.0
 10
1164.818674
 20
649.525304
 30
0.0
 10
1164.849794
 20
649.718056
 30
0.0
 10
1164.895394
 20
649.885304
 30
0.0
  0
LWPOLYLINE
  5
113
100
AcDbEntity
  8
0
 62
1
100
AcDbPolyline
 90
2
 70
0
 10
1164.895154
 20
649.885304
 30
0.0
 10
1164.954354
 20
650.035536
 30
0.0
  0
LWPOLYLINE
  5
114
100
AcDbEntity
  8
0
 62
1
100
AcDbPolyline
 90
2
 70
0
 10
1164.954674
 20
650.035536
 30
0.0
 10
1165.031474
 20
650.160264
 30
0.0
  0
LWPOLYLINE
  5
115
100
AcDbEntity
  8
0
 62
1
100
AcDbPolyline
 90
11
 70
0
 10
1165.031154
 20
650.160264
 30
0.0
 10
1165.121874
 20
650.265144
 30
0.0
 10
1165.226754
 20
650.347352
 30
0.0
 10
1165.348674
 20
650.409672
 30
0.0
 10
1165.493234
 20
650.463552
 30
0.0
 10
1165.878754
 20
650.579792
 30
0.0
 10
1166.388994
 20
650.713016
 30
0.0
 10
1167.023954
 20
650.863256
 30
0.0
 10
1168.393074
 20
651.158056
 30
0.0
 10
1168.580194
 20
651.177896
 30
0.0
 10
1168.721874
 20
651.174696
 30
0.0
  0
LWPOLYLINE
  5
116
100
AcDbEntity
  8
0
 62
1
100
AcDbPolyline
 90
2
 70
0
 10
1168.721874
 20
651.175064
 30
0.0
 10
1168.798674
 20
651.163704
 30
0.0
  0
LWPOLYLINE
  5
117
100
AcDbEntity
  8
0
 62
1
100
AcDbPolyline
 90
3
 70
0
 10
1168.798434
 20
651.163728
 30
0.0
 10
1168.866434
 20
651.143888
 30
0.0
 10
1168.925634
 20
651.118368
 30
0.0
  0
LWPOLYLINE
  5
118
100
AcDbEntity
  8
0
 62
1
100
AcDbPolyline
 90
2
 70
0
 10
1168.925954
 20
651.118376
 30
0.0
 10
1168.977154
 20
651.087176
 30
0.0
  0
LWPOLYLINE
  5
119
100
AcDbEntity
  8
0
 62
1
100
AcDbPolyline
 90
2
 70
0
 10
1168.976994
 20
651.087192
 30
0.0
 10
1169.016994
 20
651.047512
 30
0.0
  0
LWPOLYLINE
  5
11a
100
AcDbEntity
  8
0
 62
1
100
AcDbPolyline
 90
2
 70
0
 10
1169.016674
 20
651.047504
 30
0.0
 10
1169.051074
 20
650.999344
 30
0.0
  0
LWPOLYLINE
  5
11b
100
AcDbEntity
  8
0
 62
1
100
AcDbPolyline
 90
3
 70
0
 10
1169.050674
 20
650.999320
 30
0.0
 10
1169.076274
 20
650.948280
 30
0.0
 10
1169.118594
 20
650.832072
 30
0.0
  0
LWPOLYLINE
  5
11c
100
AcDbEntity
  8
0
 62
1
100
AcDbPolyline
 90
2
 70
0
 10
1169.118754
 20
650.832072
 30
0.0
 10
1169.141154
 20
650.698848
 30
0.0
  0
LWPOLYLINE
  5
11d
100
AcDbEntity
  8
0
 62
1
100
AcDbPolyline
 90
2
 70
0
 10
1169.141394
 20
650.698848
 30
0.0
 10
1169.150194
 20
650.551440
 30
0.0
  0
LWPOLYLINE
  5
11e
100
AcDbEntity
  8
0
 62
1
100
AcDbPolyline
 90
2
 70
0
 10
1169.149954
 20
650.551440
 30
0.0
 10
1169.127554
 20
650.146088
 30
0.0
  0
LWPOLYLINE
  5
11f
100
AcDbEntity
  8
0
 62
1
100
AcDbPolyline
 90
50
 70
0
 10
1169.127234
 20
650.146088
 30
0.0
 10
1169.064834
 20
649.698216
 30
0.0
 10
1168.957154
 20
649.202152
 30
0.0
 10
1168.809794
 20
648.660736
 30
0.0
 10
1168.616994
 20
648.073960
 30
0.0
 10
1168.384594
 20
647.441840
 30
0.0
 10
1168.106754
 20
646.764360
 30
0.0
 10
1167.794994
 20
646.044352
 30
0.0
 10
1167.457634
 20
645.281840
 30
0.0
 10
1167.091954
 20
644.482464
 30
0.0
 10
1166.703634
 20
643.637744
 30
0.0
 10
1166.284114
 20
642.756168
 30
0.0
 10
1165.841874
 20
641.832072
 30
0.0
 10
1165.371314
 20
640.865456
 30
0.0
 10
1165.473394
 20
640.389240
 30
0.0
 10
1165.572594
 20
639.944200
 30
0.0
 10
1165.671794
 20
639.530344
 30
0.0
 10
1165.770994
 20
639.147664
 30
0.0
 10
1165.867394
 20
638.799000
 30
0.0
 10
1165.963794
 20
638.484360
 30
0.0
 10
1166.060194
 20
638.198056
 30
0.0
 10
1166.156514
 20
637.940104
 30
0.0
 10
1166.250114
 20
637.699160
 30
0.0
 10
1166.346434
 20
637.478056
 30
0.0
 10
1166.442834
 20
637.276800
 30
0.0
 10
1166.539234
 20
637.092544
 30
0.0
 10
1166.632754
 20
636.930968
 30
0.0
 10
1166.729154
 20
636.786400
 30
0.0
 10
1166.825474
 20
636.658848
 30
0.0
 10
1166.919074
 20
636.548296
 30
0.0
 10
1167.015474
 20
636.451912
 30
0.0
 10
1167.111794
 20
636.369712
 30
0.0
 10
1167.208194
 20
636.304512
 30
0.0
 10
1167.301714
 20
636.253472
 30
0.0
 10
1167.398114
 20
636.216608
 30
0.0
 10
1167.494514
 20
636.191120
 30
0.0
 10
1167.704274
 20
636.151448
 30
0.0
 10
1167.925394
 20
636.128800
 30
0.0
 10
1168.166274
 20
636.120288
 30
0.0
 10
1168.367554
 20
636.131624
 30
0.0
 10
1168.616994
 20
636.171280
 30
0.0
 10
1168.908994
 20
636.233608
 30
0.0
 10
1169.237794
 20
636.324360
 30
0.0
 10
1169.560914
 20
636.426400
 30
0.0
 10
1169.872754
 20
636.542624
 30
0.0
 10
1170.173234
 20
636.670184
 30
0.0
 10
1170.269634
 20
636.587976
 30
0.0
 10
1170.354674
 20
636.502936
 30
0.0
 10
1170.428274
 20
636.415064
 30
0.0
 10
1170.493954
 20
636.318688
 30
0.0
  0
LWPOLYLINE
  5
120
100
AcDbEntity
  8
0
 62
1
100
AcDbPolyline
 90
2
 70
0
 10
1170.493554
 20
636.318688
 30
0.0
 10
1170.547154
 20
636.222312
 30
0.0
  0
LWPOLYLINE
  5
121
100
AcDbEntity
  8
0
 62
1
100
AcDbPolyline
 90
2
 70
0
 10
1170.547394
 20
636.222312
 30
0.0
 10
1170.589794
 20
636.117424
 30
0.0
  0
LWPOLYLINE
  5
122
100
AcDbEntity
  8
0
 62
1
100
AcDbPolyline
 90
2
 70
0
 10
1170.589954
 20
636.117424
 30
0.0
 10
1170.624354
 20
636.009712
 30
0.0
  0
LWPOLYLINE
  5
123
100
AcDbEntity
  8
0
 62
1
100
AcDbPolyline
 90
2
 70
0
 10
1170.623954
 20
636.009712
 30
0.0
 10
1170.669554
 20
635.799944
 30
0.0
  0
LWPOLYLINE
  5
124
100
AcDbEntity
  8
0
 62
1
100
AcDbPolyline
 90
2
 70
0
 10
1170.669314
 20
635.799944
 30
0.0
 10
1170.691714
 20
635.615696
 30
0.0
  0
LWPOLYLINE
  5
125
100
AcDbEntity
  8
0
 62
1
100
AcDbPolyline
 90
3
 70
0
 10
1170.691954
 20
635.615696
 30
0.0
 10
1170.691954
 20
635.451288
 30
0.0
 10
1170.683154
 20
635.377608
 30
0.0
  0
LWPOLYLINE
  5
126
100
AcDbEntity
  8
0
 62
1
100
AcDbPolyline
 90
35
 70
0
 10
1170.683474
 20
635.377584
 30
0.0
 10
1170.550274
 20
635.233016
 30
0.0
 10
1170.771314
 20
635.275496
 30
0.0
 10
1171.057634
 20
635.343536
 30
0.0
 10
1171.329794
 20
635.420128
 30
0.0
 10
1171.593394
 20
635.505144
 30
0.0
 10
1171.842834
 20
635.595848
 30
0.0
 10
1172.078114
 20
635.697896
 30
0.0
 10
1172.304914
 20
635.805616
 30
0.0
 10
1172.514674
 20
635.921840
 30
0.0
 10
1172.710274
 20
636.043728
 30
0.0
 10
1172.888834
 20
636.171288
 30
0.0
 10
1173.047554
 20
636.307352
 30
0.0
 10
1173.192114
 20
636.449080
 30
0.0
 10
1173.316834
 20
636.596480
 30
0.0
 10
1180.434674
 20
646.889080
 30
0.0
 10
1173.858274
 20
656.912384
 30
0.0
 10
1173.750514
 20
657.065456
 30
0.0
 10
1173.631474
 20
657.207192
 30
0.0
 10
1173.495474
 20
657.343256
 30
0.0
 10
1173.350834
 20
657.465144
 30
0.0
 10
1173.192114
 20
657.578528
 30
0.0
 10
1173.019234
 20
657.683408
 30
0.0
 10
1172.834994
 20
657.776952
 30
0.0
 10
1172.628034
 20
657.861992
 30
0.0
 10
1172.395554
 20
657.941352
 30
0.0
 10
1172.131954
 20
658.009360
 30
0.0
 10
1171.840034
 20
658.071792
 30
0.0
 10
1171.516834
 20
658.125600
 30
0.0
 10
1171.168194
 20
658.173776
 30
0.0
 10
1170.788354
 20
658.210688
 30
0.0
 10
1170.643794
 20
658.236176
 30
0.0
 10
1170.519074
 20
658.290008
 30
0.0
 10
1170.416994
 20
658.375064
 30
0.0
 10
1170.340194
 20
658.485616
 30
0.0
  0
LWPOLYLINE
  5
127
100
AcDbEntity
  8
0
 62
1
100
AcDbPolyline
 90
2
 70
0
 10
1170.340434
 20
658.485616
 30
0.0
 10
1170.283634
 20
658.627352
 30
0.0
  0
LWPOLYLINE
  5
128
100
AcDbEntity
  8
0
 62
1
100
AcDbPolyline
 90
2
 70
0
 10
1170.283794
 20
658.627352
 30
0.0
 10
1170.249394
 20
658.797424
 30
0.0
  0
LWPOLYLINE
  5
129
100
AcDbEntity
  8
0
 62
1
100
AcDbPolyline
 90
2
 70
0
 10
1170.249794
 20
658.797424
 30
0.0
 10
1170.238594
 20
658.995848
 30
0.0
  0
LWPOLYLINE
  5
12a
100
AcDbEntity
  8
0
 62
1
100
AcDbPolyline
 90
2
 70
0
 10
1170.238434
 20
658.995848
 30
0.0
 10
1170.238434
 20
659.367192
 30
0.0
  0
LWPOLYLINE
  5
12b
100
AcDbEntity
  8
0
 62
1
100
AcDbPolyline
 90
2
 70
0
 10
1170.241234
 20
659.367192
 30
0.0
 10
1170.252434
 20
659.480576
 30
0.0
  0
LWPOLYLINE
  5
12c
100
AcDbEntity
  8
0
 62
1
100
AcDbPolyline
 90
3
 70
0
 10
1170.252594
 20
659.480576
 30
0.0
 10
1170.278194
 20
659.591128
 30
0.0
 10
1170.318114
 20
659.704512
 30
0.0
  0
LWPOLYLINE
  5
12d
100
AcDbEntity
  8
0
 62
1
100
AcDbPolyline
 90
7
 70
0
 10
1170.317794
 20
659.704512
 30
0.0
 10
1172.330434
 20
659.605304
 30
0.0
 10
1175.828354
 20
659.523096
 30
0.0
 10
1179.516194
 20
659.596776
 30
0.0
 10
1182.087234
 20
659.704512
 30
0.0
 10
1182.118434
 20
659.537272
 30
0.0
 10
1182.164034
 20
659.069552
 30
0.0
  0
LWPOLYLINE
  5
12e
100
AcDbEntity
  8
0
 62
1
100
AcDbPolyline
 90
2
 70
0
 10
1182.163794
 20
659.069552
 30
0.0
 10
1182.155794
 20
658.808768
 30
0.0
  0
LWPOLYLINE
  5
12f
100
AcDbEntity
  8
0
 62
1
100
AcDbPolyline
 90
3
 70
0
 10
1182.158114
 20
658.808768
 30
0.0
 10
1182.126914
 20
658.647192
 30
0.0
 10
1182.078914
 20
658.513960
 30
0.0
  0
LWPOLYLINE
  5
130
100
AcDbEntity
  8
0
 62
1
100
AcDbPolyline
 90
12
 70
0
 10
1182.078754
 20
658.513960
 30
0.0
 10
1182.010754
 20
658.406248
 30
0.0
 10
1181.925634
 20
658.326888
 30
0.0
 10
1181.817954
 20
658.275840
 30
0.0
 10
1181.693234
 20
658.250336
 30
0.0
 10
1181.171634
 20
658.193624
 30
0.0
 10
1180.729474
 20
658.114288
 30
0.0
 10
1180.369474
 20
658.015064
 30
0.0
 10
1180.085954
 20
657.890344
 30
0.0
 10
1179.887554
 20
657.745776
 30
0.0
 10
1179.765634
 20
657.575696
 30
0.0
 10
1179.725634
 20
657.385776
 30
0.0
  0
LWPOLYLINE
  5
131
100
AcDbEntity
  8
0
 62
1
100
AcDbPolyline
 90
2
 70
0
 10
1179.725954
 20
657.385776
 30
0.0
 10
1179.734754
 20
657.280896
 30
0.0
  0
LWPOLYLINE
  5
132
100
AcDbEntity
  8
0
 62
1
100
AcDbPolyline
 90
2
 70
0
 10
1179.734514
 20
657.280896
 30
0.0
 10
1179.754514
 20
657.170344
 30
0.0
  0
LWPOLYLINE
  5
133
100
AcDbEntity
  8
0
 62
1
100
AcDbPolyline
 90
3
 70
0
 10
1179.754354
 20
657.170344
 30
0.0
 10
1179.791154
 20
657.054120
 30
0.0
 10
1179.842354
 20
656.929400
 30
0.0
  0
LWPOLYLINE
  5
134
100
AcDbEntity
  8
0
 62
1
100
AcDbPolyline
 90
2
 70
0
 10
1179.842194
 20
656.929400
 30
0.0
 10
1179.907794
 20
656.799000
 30
0.0
  0
LWPOLYLINE
  5
135
100
AcDbEntity
  8
0
 62
1
100
AcDbPolyline
 90
2
 70
0
 10
1179.907394
 20
656.799000
 30
0.0
 10
1179.986594
 20
656.662936
 30
0.0
  0
LWPOLYLINE
  5
136
100
AcDbEntity
  8
0
 62
1
100
AcDbPolyline
 90
8
 70
0
 10
1179.986754
 20
656.662936
 30
0.0
 10
1180.080354
 20
656.521208
 30
0.0
 10
1184.371954
 20
649.641520
 30
0.0
 10
1188.819554
 20
656.087504
 30
0.0
 10
1189.054834
 20
656.458848
 30
0.0
 10
1189.227714
 20
656.770656
 30
0.0
 10
1189.284514
 20
656.912384
 30
0.0
 10
1189.318834
 20
657.051288
 30
0.0
  0
LWPOLYLINE
  5
137
100
AcDbEntity
  8
0
 62
1
100
AcDbPolyline
 90
2
 70
0
 10
1189.318434
 20
657.051288
 30
0.0
 10
1189.329634
 20
657.190184
 30
0.0
  0
LWPOLYLINE
  5
138
100
AcDbEntity
  8
0
 62
1
100
AcDbPolyline
 90
2
 70
0
 10
1189.329794
 20
657.190184
 30
0.0
 10
1189.289794
 20
657.394280
 30
0.0
  0
LWPOLYLINE
  5
139
100
AcDbEntity
  8
0
 62
1
100
AcDbPolyline
 90
10
 70
0
 10
1189.290114
 20
657.394280
 30
0.0
 10
1189.168194
 20
657.581368
 30
0.0
 10
1188.969794
 20
657.748608
 30
0.0
 10
1188.686274
 20
657.901680
 30
0.0
 10
1188.326274
 20
658.034904
 30
0.0
 10
1187.884114
 20
658.151128
 30
0.0
 10
1187.226434
 20
658.275856
 30
0.0
 10
1187.113074
 20
658.326896
 30
0.0
 10
1187.019554
 20
658.406240
 30
0.0
 10
1186.945954
 20
658.513960
 30
0.0
  0
LWPOLYLINE
  5
13a
100
AcDbEntity
  8
0
 62
1
100
AcDbPolyline
 90
2
 70
0
 10
1186.945794
 20
658.513960
 30
0.0
 10
1186.894594
 20
658.647192
 30
0.0
  0
LWPOLYLINE
  5
13b
100
AcDbEntity
  8
0
 62
1
100
AcDbPolyline
 90
3
 70
0
 10
1186.894834
 20
658.647192
 30
0.0
 10
1186.863634
 20
658.808768
 30
0.0
 10
1186.852434
 20
658.995848
 30
0.0
  0
LWPOLYLINE
  5
13c
100
AcDbEntity
  8
0
 62
1
100
AcDbPolyline
 90
2
 70
0
 10
1186.852274
 20
658.995848
 30
0.0
 10
1186.869074
 20
659.310496
 30
0.0
  0
LWPOLYLINE
  5
13d
100
AcDbEntity
  8
0
 62
1
100
AcDbPolyline
 90
2
 70
0
 10
1186.869314
 20
659.310496
 30
0.0
 10
1186.928514
 20
659.704512
 30
0.0
  0
LWPOLYLINE
  5
13e
100
AcDbEntity
  8
0
 62
1
100
AcDbPolyline
 90
12
 70
0
 10
1186.928834
 20
659.704512
 30
0.0
 10
1187.268994
 20
659.676192
 30
0.0
 10
1187.952114
 20
659.625128
 30
0.0
 10
1188.646594
 20
659.585464
 30
0.0
 10
1189.695474
 20
659.551456
 30
0.0
 10
1191.200594
 20
659.523120
 30
0.0
 10
1192.722834
 20
659.534456
 30
0.0
 10
1193.910514
 20
659.571312
 30
0.0
 10
1194.477474
 20
659.605288
 30
0.0
 10
1195.024594
 20
659.647864
 30
0.0
 10
1195.551794
 20
659.704544
 30
0.0
 10
1195.562994
 20
659.647792
 30
0.0
  0
LWPOLYLINE
  5
13f
100
AcDbEntity
  8
0
 62
1
100
AcDbPolyline
 90
2
 70
0
 10
1195.563154
 20
659.647824
 30
0.0
 10
1195.616754
 20
659.231128
 30
0.0
  0
LWPOLYLINE
  5
140
100
AcDbEntity
  8
0
 62
1
100
AcDbPolyline
 90
2
 70
0
 10
1195.616994
 20
659.231128
 30
0.0
 10
1195.628194
 20
658.862624
 30
0.0
  0
LWPOLYLINE
  5
141
100
AcDbEntity
  8
0
 62
1
100
AcDbPolyline
 90
2
 70
0
 10
1195.628354
 20
658.862624
 30
0.0
 10
1195.617154
 20
658.771912
 30
0.0
  0
LWPOLYLINE
  5
142
100
AcDbEntity
  8
0
 62
1
100
AcDbPolyline
 90
2
 70
0
 10
1195.616994
 20
658.771912
 30
0.0
 10
1195.602594
 20
658.686880
 30
0.0
  0
LWPOLYLINE
  5
143
100
AcDbEntity
  8
0
 62
1
100
AcDbPolyline
 90
2
 70
0
 10
1195.602834
 20
658.686880
 30
0.0
 10
1195.580434
 20
658.610320
 30
0.0
  0
LWPOLYLINE
  5
144
100
AcDbEntity
  8
0
 62
1
100
AcDbPolyline
 90
3
 70
0
 10
1195.580194
 20
658.610344
 30
0.0
 10
1195.548994
 20
658.542344
 30
0.0
 10
1195.514594
 20
658.479912
 30
0.0
  0
LWPOLYLINE
  5
145
100
AcDbEntity
  8
0
 62
1
100
AcDbPolyline
 90
2
 70
0
 10
1195.514994
 20
658.479944
 30
0.0
 10
1195.472594
 20
658.426104
 30
0.0
  0
LWPOLYLINE
  5
146
100
AcDbEntity
  8
0
 62
1
100
AcDbPolyline
 90
2
 70
0
 10
1195.472434
 20
658.426088
 30
0.0
 10
1195.426834
 20
658.377928
 30
0.0
  0
LWPOLYLINE
  5
147
100
AcDbEntity
  8
0
 62
1
100
AcDbPolyline
 90
4
 70
0
 10
1195.427074
 20
658.377896
 30
0.0
 10
1195.330674
 20
658.301336
 30
0.0
 10
1195.225794
 20
658.244640
 30
0.0
 10
1195.172194
 20
658.224832
 30
0.0
  0
LWPOLYLINE
  5
148
100
AcDbEntity
  8
0
 62
1
100
AcDbPolyline
 90
2
 70
0
 10
1195.171954
 20
658.224832
 30
0.0
 10
1195.118354
 20
658.210672
 30
0.0
  0
LWPOLYLINE
  5
149
100
AcDbEntity
  8
0
 62
1
100
AcDbPolyline
 90
47
 70
0
 10
1195.118114
 20
658.210656
 30
0.0
 10
1194.800594
 20
658.170976
 30
0.0
 10
1194.500194
 20
658.125608
 30
0.0
 10
1194.219554
 20
658.068896
 30
0.0
 10
1193.953074
 20
658.003720
 30
0.0
 10
1193.706434
 20
657.930048
 30
0.0
 10
1193.479714
 20
657.847824
 30
0.0
 10
1193.267074
 20
657.757112
 30
0.0
 10
1193.068674
 20
657.655064
 30
0.0
 10
1192.881554
 20
657.538848
 30
0.0
 10
1192.702994
 20
657.411288
 30
0.0
 10
1192.535714
 20
657.266720
 30
0.0
 10
1192.376994
 20
657.110816
 30
0.0
 10
1192.226754
 20
656.940736
 30
0.0
 10
1192.087874
 20
656.756480
 30
0.0
 10
1185.709954
 20
647.793336
 30
0.0
 10
1193.031794
 20
636.789240
 30
0.0
 10
1193.159394
 20
636.604984
 30
0.0
 10
1193.298274
 20
636.437744
 30
0.0
 10
1193.445634
 20
636.284672
 30
0.0
 10
1193.604434
 20
636.145776
 30
0.0
 10
1193.771634
 20
636.023888
 30
0.0
 10
1193.947394
 20
635.916168
 30
0.0
 10
1194.134514
 20
635.825456
 30
0.0
 10
1194.341394
 20
635.743256
 30
0.0
 10
1194.585234
 20
635.663896
 30
0.0
 10
1194.860194
 20
635.590208
 30
0.0
 10
1195.169154
 20
635.522184
 30
0.0
 10
1195.512114
 20
635.454152
 30
0.0
 10
1195.889154
 20
635.391800
 30
0.0
 10
1196.300194
 20
635.335040
 30
0.0
 10
1196.410674
 20
635.303864
 30
0.0
 10
1196.518434
 20
635.250040
 30
0.0
 10
1196.620434
 20
635.179144
 30
0.0
 10
1197.008834
 20
635.255720
 30
0.0
 10
1197.385794
 20
635.337896
 30
0.0
 10
1197.725954
 20
635.420104
 30
0.0
 10
1198.032114
 20
635.502312
 30
0.0
 10
1198.304274
 20
635.590184
 30
0.0
 10
1198.542354
 20
635.678056
 30
0.0
 10
1198.743634
 20
635.765928
 30
0.0
 10
1198.916514
 20
635.865144
 30
0.0
 10
1199.063954
 20
635.984200
 30
0.0
 10
1199.182994
 20
636.123096
 30
0.0
 10
1199.273714
 20
636.279000
 30
0.0
 10
1199.341714
 20
636.454752
 30
0.0
 10
1199.381714
 20
636.650344
 30
0.0
  0
LWPOLYLINE
  5
14a
100
AcDbEntity
  8
0
 62
1
100
AcDbPolyline
 90
2
 70
0
 10
1199.381394
 20
636.650344
 30
0.0
 10
1199.392594
 20
636.865776
 30
0.0
  0
LWPOLYLINE
  5
14b
100
AcDbEntity
  8
0
 62
1
100
AcDbPolyline
 90
3
 70
0
 10
1199.392754
 20
636.865776
 30
0.0
 10
1199.392754
 20
656.560888
 30
0.0
 10
1199.384754
 20
656.773488
 30
0.0
  0
LWPOLYLINE
  5
14c
100
AcDbEntity
  8
0
 62
1
100
AcDbPolyline
 90
2
 70
0
 10
1199.387074
 20
656.773488
 30
0.0
 10
1199.367074
 20
656.963408
 30
0.0
  0
LWPOLYLINE
  5
14d
100
AcDbEntity
  8
0
 62
1
100
AcDbPolyline
 90
3
 70
0
 10
1199.367234
 20
656.963408
 30
0.0
 10
1199.336034
 20
657.130656
 30
0.0
 10
1199.290434
 20
657.280896
 30
0.0
  0
LWPOLYLINE
  5
14e
100
AcDbEntity
  8
0
 62
1
100
AcDbPolyline
 90
2
 70
0
 10
1199.290674
 20
657.280896
 30
0.0
 10
1199.256274
 20
657.348896
 30
0.0
  0
LWPOLYLINE
  5
14f
100
AcDbEntity
  8
0
 62
1
100
AcDbPolyline
 90
3
 70
0
 10
1199.256674
 20
657.348920
 30
0.0
 10
1199.219874
 20
657.416920
 30
0.0
 10
1199.174274
 20
657.482152
 30
0.0
  0
LWPOLYLINE
  5
150
100
AcDbEntity
  8
0
 62
1
100
AcDbPolyline
 90
2
 70
0
 10
1199.174514
 20
657.482152
 30
0.0
 10
1199.123314
 20
657.544472
 30
0.0
  0
LWPOLYLINE
  5
151
100
AcDbEntity
  8
0
 62
1
100
AcDbPolyline
 90
2
 70
0
 10
1199.123474
 20
657.544512
 30
0.0
 10
1199.064274
 20
657.604032
 30
0.0
  0
LWPOLYLINE
  5
152
100
AcDbEntity
  8
0
 62
1
100
AcDbPolyline
 90
2
 70
0
 10
1199.063954
 20
657.604040
 30
0.0
 10
1198.998354
 20
657.660760
 30
0.0
  0
LWPOLYLINE
  5
153
100
AcDbEntity
  8
0
 62
1
100
AcDbPolyline
 90
2
 70
0
 10
1198.998754
 20
657.660736
 30
0.0
 10
1198.927554
 20
657.714576
 30
0.0
  0
LWPOLYLINE
  5
154
100
AcDbEntity
  8
0
 62
1
100
AcDbPolyline
 90
13
 70
0
 10
1198.927874
 20
657.714592
 30
0.0
 10
1198.845634
 20
657.768432
 30
0.0
 10
1198.752114
 20
657.816608
 30
0.0
 10
1198.647234
 20
657.864800
 30
0.0
 10
1198.530994
 20
657.910192
 30
0.0
 10
1198.406274
 20
657.952744
 30
0.0
 10
1198.125634
 20
658.032064
 30
0.0
 10
1197.788354
 20
658.108632
 30
0.0
 10
1197.400034
 20
658.179488
 30
0.0
 10
1196.952114
 20
658.250352
 30
0.0
 10
1196.850114
 20
658.292824
 30
0.0
 10
1196.762194
 20
658.352376
 30
0.0
 10
1196.690994
 20
658.431744
 30
0.0
  0
LWPOLYLINE
  5
155
100
AcDbEntity
  8
0
 62
1
100
AcDbPolyline
 90
2
 70
0
 10
1196.691314
 20
658.431760
 30
0.0
 10
1196.634514
 20
658.528136
 30
0.0
  0
LWPOLYLINE
  5
156
100
AcDbEntity
  8
0
 62
1
100
AcDbPolyline
 90
2
 70
0
 10
1196.634674
 20
658.528136
 30
0.0
 10
1196.594674
 20
658.641520
 30
0.0
  0
LWPOLYLINE
  5
157
100
AcDbEntity
  8
0
 62
1
100
AcDbPolyline
 90
3
 70
0
 10
1196.594994
 20
658.641520
 30
0.0
 10
1196.569394
 20
658.771912
 30
0.0
 10
1196.560674
 20
658.919320
 30
0.0
  0
LWPOLYLINE
  5
158
100
AcDbEntity
  8
0
 62
1
100
AcDbPolyline
 90
2
 70
0
 10
1196.560914
 20
658.919320
 30
0.0
 10
1196.560914
 20
659.338848
 30
0.0
  0
LWPOLYLINE
  5
159
100
AcDbEntity
  8
0
 62
1
100
AcDbPolyline
 90
2
 70
0
 10
1196.563794
 20
659.338848
 30
0.0
 10
1196.574994
 20
659.466400
 30
0.0
  0
LWPOLYLINE
  5
15a
100
AcDbEntity
  8
0
 62
1
100
AcDbPolyline
 90
2
 70
0
 10
1196.575154
 20
659.466400
 30
0.0
 10
1196.600754
 20
659.588296
 30
0.0
  0
LWPOLYLINE
  5
15b
100
AcDbEntity
  8
0
 62
1
100
AcDbPolyline
 90
10
 70
0
 10
1196.600594
 20
659.588296
 30
0.0
 10
1196.637394
 20
659.704512
 30
0.0
 10
1197.003154
 20
659.684672
 30
0.0
 10
1199.304914
 20
659.576952
 30
0.0
 10
1200.812914
 20
659.531592
 30
0.0
 10
1201.960914
 20
659.523120
 30
0.0
 10
1205.169794
 20
659.596776
 30
0.0
 10
1207.440354
 20
659.704512
 30
0.0
 10
1207.471554
 20
659.528768
 30
0.0
 10
1207.517074
 20
659.041208
 30
0.0
  0
LWPOLYLINE
  5
15c
100
AcDbEntity
  8
0
 62
1
100
AcDbPolyline
 90
2
 70
0
 10
1207.516834
 20
659.041208
 30
0.0
 10
1207.516834
 20
658.771912
 30
0.0
  0
LWPOLYLINE
  5
15d
100
AcDbEntity
  8
0
 62
1
100
AcDbPolyline
 90
3
 70
0
 10
1207.514034
 20
658.771912
 30
0.0
 10
1207.488434
 20
658.641520
 30
0.0
 10
1207.448514
 20
658.528136
 30
0.0
  0
LWPOLYLINE
  5
15e
100
AcDbEntity
  8
0
 62
1
100
AcDbPolyline
 90
3
 70
0
 10
1207.448834
 20
658.528136
 30
0.0
 10
1207.392034
 20
658.431760
 30
0.0
 10
1207.320914
 20
658.352400
 30
0.0
  0
LWPOLYLINE
  5
15f
100
AcDbEntity
  8
0
 62
1
100
AcDbPolyline
 90
15
 70
0
 10
1207.321234
 20
658.352384
 30
0.0
 10
1207.230514
 20
658.292864
 30
0.0
 10
1207.125634
 20
658.250376
 30
0.0
 10
1206.666434
 20
658.179464
 30
0.0
 10
1206.252594
 20
658.105792
 30
0.0
 10
1205.881234
 20
658.023568
 30
0.0
 10
1205.558114
 20
657.935696
 30
0.0
 10
1205.280354
 20
657.842152
 30
0.0
 10
1205.047874
 20
657.745776
 30
0.0
 10
1204.860754
 20
657.640896
 30
0.0
 10
1204.710514
 20
657.527504
 30
0.0
 10
1204.582994
 20
657.394280
 30
0.0
 10
1204.478114
 20
657.246872
 30
0.0
 10
1204.395874
 20
657.082464
 30
0.0
 10
1204.339074
 20
656.898216
 30
0.0
  0
LWPOLYLINE
  5
160
100
AcDbEntity
  8
0
 62
1
100
AcDbPolyline
 90
2
 70
0
 10
1204.339234
 20
656.898216
 30
0.0
 10
1204.304834
 20
656.699792
 30
0.0
  0
LWPOLYLINE
  5
161
100
AcDbEntity
  8
0
 62
1
100
AcDbPolyline
 90
2
 70
0
 10
1204.305234
 20
656.699792
 30
0.0
 10
1204.290834
 20
656.484360
 30
0.0
  0
LWPOLYLINE
  5
162
100
AcDbEntity
  8
0
 62
1
100
AcDbPolyline
 90
3
 70
0
 10
1204.290994
 20
656.484360
 30
0.0
 10
1204.290994
 20
637.313648
 30
0.0
 10
1204.313394
 20
637.089712
 30
0.0
  0
LWPOLYLINE
  5
163
100
AcDbEntity
  8
0
 62
1
100
AcDbPolyline
 90
2
 70
0
 10
1204.313714
 20
637.089712
 30
0.0
 10
1204.379314
 20
636.888448
 30
0.0
  0
LWPOLYLINE
  5
164
100
AcDbEntity
  8
0
 62
1
100
AcDbPolyline
 90
43
 70
0
 10
1204.378914
 20
636.888448
 30
0.0
 10
1204.486594
 20
636.707032
 30
0.0
 10
1204.639714
 20
636.551128
 30
0.0
 10
1204.835314
 20
636.415064
 30
0.0
 10
1205.073394
 20
636.304512
 30
0.0
 10
1205.354034
 20
636.213808
 30
0.0
 10
1205.688514
 20
636.140128
 30
0.0
 10
1206.074034
 20
636.077784
 30
0.0
 10
1206.519074
 20
636.029584
 30
0.0
 10
1207.020754
 20
635.989872
 30
0.0
 10
1207.576354
 20
635.961552
 30
0.0
 10
1208.188674
 20
635.944480
 30
0.0
 10
1208.857634
 20
635.938912
 30
0.0
 10
1210.354354
 20
635.938848
 30
0.0
 10
1210.632114
 20
635.944448
 30
0.0
 10
1210.895714
 20
635.955872
 30
0.0
 10
1211.150834
 20
635.978496
 30
0.0
 10
1211.397474
 20
636.009728
 30
0.0
 10
1211.629954
 20
636.049392
 30
0.0
 10
1211.853874
 20
636.097560
 30
0.0
 10
1212.066434
 20
636.154304
 30
0.0
 10
1212.273394
 20
636.222280
 30
0.0
 10
1212.468994
 20
636.301672
 30
0.0
 10
1212.658914
 20
636.395224
 30
0.0
 10
1212.843154
 20
636.500104
 30
0.0
 10
1213.016034
 20
636.616328
 30
0.0
 10
1213.186114
 20
636.743888
 30
0.0
 10
1213.344914
 20
636.882784
 30
0.0
 10
1213.500754
 20
637.035856
 30
0.0
 10
1213.653874
 20
637.200264
 30
0.0
 10
1213.801234
 20
637.376008
 30
0.0
 10
1213.945794
 20
637.565928
 30
0.0
 10
1214.084754
 20
637.767192
 30
0.0
 10
1214.217954
 20
637.979792
 30
0.0
 10
1214.348354
 20
638.203728
 30
0.0
 10
1214.478754
 20
638.441840
 30
0.0
 10
1214.606274
 20
638.691288
 30
0.0
 10
1214.733874
 20
638.957744
 30
0.0
 10
1214.861394
 20
639.235536
 30
0.0
 10
1214.986114
 20
639.527504
 30
0.0
 10
1215.113714
 20
639.833648
 30
0.0
 10
1215.235554
 20
640.151128
 30
0.0
 10
1215.277954
 20
640.236168
 30
0.0
  0
LWPOLYLINE
  5
165
100
AcDbEntity
  8
0
 62
1
100
AcDbPolyline
 90
19
 70
0
 10
1215.278114
 20
640.236168
 30
0.0
 10
1215.334914
 20
640.307048
 30
0.0
 10
1215.402834
 20
640.363752
 30
0.0
 10
1215.487874
 20
640.409088
 30
0.0
 10
1215.587074
 20
640.443080
 30
0.0
 10
1215.700434
 20
640.462936
 30
0.0
 10
1215.828034
 20
640.468536
 30
0.0
 10
1215.947074
 20
640.460128
 30
0.0
 10
1216.077474
 20
640.428904
 30
0.0
 10
1216.222034
 20
640.380760
 30
0.0
 10
1216.851314
 20
640.114280
 30
0.0
 10
1216.763474
 20
639.748608
 30
0.0
 10
1216.593394
 20
638.994592
 30
0.0
 10
1216.431794
 20
638.203728
 30
0.0
 10
1216.278754
 20
637.376008
 30
0.0
 10
1216.139874
 20
636.536952
 30
0.0
 10
1215.947074
 20
635.292544
 30
0.0
 10
1215.813874
 20
634.345776
 30
0.0
 10
1215.791474
 20
634.232392
 30
0.0
  0
LWPOLYLINE
  5
166
100
AcDbEntity
  8
0
 62
1
100
AcDbPolyline
 90
2
 70
0
 10
1215.791154
 20
634.232392
 30
0.0
 10
1215.763154
 20
634.133176
 30
0.0
  0
LWPOLYLINE
  5
167
100
AcDbEntity
  8
0
 62
1
100
AcDbPolyline
 90
3
 70
0
 10
1215.762834
 20
634.133176
 30
0.0
 10
1215.726034
 20
634.048136
 30
0.0
 10
1215.680354
 20
633.977256
 30
0.0
  0
LWPOLYLINE
  5
168
100
AcDbEntity
  8
0
 62
1
100
AcDbPolyline
 90
2
 70
0
 10
1215.680594
 20
633.977272
 30
0.0
 10
1215.629394
 20
633.923432
 30
0.0
  0
LWPOLYLINE
  5
169
100
AcDbEntity
  8
0
 62
1
100
AcDbPolyline
 90
2
 70
0
 10
1215.629634
 20
633.923408
 30
0.0
 10
1215.570434
 20
633.880928
 30
0.0
  0
LWPOLYLINE
  5
16a
100
AcDbEntity
  8
0
 62
1
100
AcDbPolyline
 90
8
 70
0
 10
1215.570114
 20
633.880896
 30
0.0
 10
1215.445394
 20
633.821376
 30
0.0
 10
1215.317794
 20
633.784488
 30
0.0
 10
1215.187394
 20
633.764672
 30
0.0
 10
1214.918114
 20
633.764672
 30
0.0
 10
1214.067714
 20
633.810032
 30
0.0
 10
1210.739874
 20
633.940416
 30
0.0
 10
1201.204114
 20
633.943616
 30
0.0
  0
LWPOLYLINE
  5
16b
100
AcDbEntity
  8
0
 62
1
100
AcDbPolyline
 90
5
 70
0
 10
1201.204114
 20
633.943256
 30
0.0
 10
1200.132594
 20
633.926216
 30
0.0
 10
1198.522514
 20
633.872408
 30
0.0
 10
1196.776354
 20
633.790184
 30
0.0
 10
1196.768354
 20
633.761864
 30
0.0
  0
LWPOLYLINE
  5
16c
100
AcDbEntity
  8
0
 62
1
100
AcDbPolyline
 90
4
 70
0
 10
1196.770674
 20
633.761840
 30
0.0
 10
1196.515554
 20
633.776000
 30
0.0
 10
1196.283154
 20
633.761848
 30
0.0
 10
1196.271954
 20
633.787360
 30
0.0
  0
LWPOLYLINE
  5
16d
100
AcDbEntity
  8
0
 62
1
100
AcDbPolyline
 90
13
 70
0
 10
1196.271794
 20
633.787352
 30
0.0
 10
1195.064274
 20
633.844072
 30
0.0
 10
1191.529474
 20
633.937584
 30
0.0
 10
1189.709634
 20
633.937584
 30
0.0
 10
1187.458914
 20
633.895104
 30
0.0
 10
1186.531954
 20
633.861064
 30
0.0
 10
1185.633394
 20
633.818488
 30
0.0
 10
1184.763154
 20
633.761808
 30
0.0
 10
1184.726354
 20
633.855376
 30
0.0
 10
1184.700674
 20
633.951760
 30
0.0
 10
1184.689554
 20
634.059472
 30
0.0
 10
1184.689474
 20
634.538528
 30
0.0
 10
1184.698274
 20
634.634904
 30
0.0
  0
LWPOLYLINE
  5
16e
100
AcDbEntity
  8
0
 62
1
100
AcDbPolyline
 90
2
 70
0
 10
1184.697954
 20
634.634904
 30
0.0
 10
1184.712354
 20
634.722784
 30
0.0
  0
LWPOLYLINE
  5
16f
100
AcDbEntity
  8
0
 62
1
100
AcDbPolyline
 90
2
 70
0
 10
1184.712114
 20
634.722784
 30
0.0
 10
1184.732114
 20
634.802144
 30
0.0
  0
LWPOLYLINE
  5
170
100
AcDbEntity
  8
0
 62
1
100
AcDbPolyline
 90
3
 70
0
 10
1184.731954
 20
634.802152
 30
0.0
 10
1184.757554
 20
634.870152
 30
0.0
 10
1184.785474
 20
634.929704
 30
0.0
  0
LWPOLYLINE
  5
171
100
AcDbEntity
  8
0
 62
1
100
AcDbPolyline
 90
15
 70
0
 10
1184.785794
 20
634.929712
 30
0.0
 10
1184.822594
 20
634.977872
 30
0.0
 10
1184.907714
 20
635.060104
 30
0.0
 10
1185.001234
 20
635.119624
 30
0.0
 10
1185.103314
 20
635.162112
 30
0.0
 10
1185.718434
 20
635.292544
 30
0.0
 10
1185.967874
 20
635.352064
 30
0.0
 10
1186.191794
 20
635.414392
 30
0.0
 10
1186.393074
 20
635.479632
 30
0.0
 10
1186.574514
 20
635.544832
 30
0.0
 10
1186.730434
 20
635.610032
 30
0.0
 10
1186.866434
 20
635.680904
 30
0.0
 10
1186.982674
 20
635.760256
 30
0.0
 10
1187.076194
 20
635.848136
 30
0.0
 10
1187.149794
 20
635.941680
 30
0.0
  0
LWPOLYLINE
  5
172
100
AcDbEntity
  8
0
 62
1
100
AcDbPolyline
 90
2
 70
0
 10
1187.149954
 20
635.941680
 30
0.0
 10
1187.201154
 20
636.046560
 30
0.0
  0
LWPOLYLINE
  5
173
100
AcDbEntity
  8
0
 62
1
100
AcDbPolyline
 90
3
 70
0
 10
1187.200914
 20
636.046560
 30
0.0
 10
1187.232114
 20
636.157112
 30
0.0
 10
1187.243314
 20
636.276168
 30
0.0
  0
LWPOLYLINE
  5
174
100
AcDbEntity
  8
0
 62
1
100
AcDbPolyline
 90
2
 70
0
 10
1187.243474
 20
636.276168
 30
0.0
 10
1187.234674
 20
636.381048
 30
0.0
  0
LWPOLYLINE
  5
175
100
AcDbEntity
  8
0
 62
1
100
AcDbPolyline
 90
2
 70
0
 10
1187.234994
 20
636.381048
 30
0.0
 10
1187.214994
 20
636.488768
 30
0.0
  0
LWPOLYLINE
  5
176
100
AcDbEntity
  8
0
 62
1
100
AcDbPolyline
 90
3
 70
0
 10
1187.215154
 20
636.488768
 30
0.0
 10
1187.178354
 20
636.602152
 30
0.0
 10
1187.127074
 20
636.721208
 30
0.0
  0
LWPOLYLINE
  5
177
100
AcDbEntity
  8
0
 62
1
100
AcDbPolyline
 90
2
 70
0
 10
1187.127234
 20
636.721208
 30
0.0
 10
1187.061634
 20
636.843096
 30
0.0
  0
LWPOLYLINE
  5
178
100
AcDbEntity
  8
0
 62
1
100
AcDbPolyline
 90
2
 70
0
 10
1187.062034
 20
636.843096
 30
0.0
 10
1186.982834
 20
636.970656
 30
0.0
  0
LWPOLYLINE
  5
179
100
AcDbEntity
  8
0
 62
1
100
AcDbPolyline
 90
9
 70
0
 10
1186.982674
 20
636.970656
 30
0.0
 10
1186.889154
 20
637.103880
 30
0.0
 10
1181.891634
 20
644.924672
 30
0.0
 10
1176.970674
 20
637.770024
 30
0.0
 10
1176.803474
 20
637.529080
 30
0.0
 10
1176.656034
 20
637.302312
 30
0.0
 10
1176.531314
 20
637.086880
 30
0.0
 10
1176.432114
 20
636.885616
 30
0.0
 10
1176.392114
 20
636.786400
 30
0.0
  0
LWPOLYLINE
  5
17a
100
AcDbEntity
  8
0
 62
1
100
AcDbPolyline
 90
2
 70
0
 10
1176.392434
 20
636.786400
 30
0.0
 10
1176.358034
 20
636.687192
 30
0.0
  0
LWPOLYLINE
  5
17b
100
AcDbEntity
  8
0
 62
1
100
AcDbPolyline
 90
3
 70
0
 10
1176.358434
 20
636.687192
 30
0.0
 10
1176.332834
 20
636.593648
 30
0.0
 10
1176.316114
 20
636.500104
 30
0.0
  0
LWPOLYLINE
  5
17c
100
AcDbEntity
  8
0
 62
1
100
AcDbPolyline
 90
3
 70
0
 10
1176.315874
 20
636.500104
 30
0.0
 10
1176.304674
 20
636.406560
 30
0.0
 10
1176.304594
 20
636.315856
 30
0.0
  0
LWPOLYLINE
  5
17d
100
AcDbEntity
  8
0
 62
1
100
AcDbPolyline
 90
2
 70
0
 10
1176.301714
 20
636.315856
 30
0.0
 10
1176.310514
 20
636.196800
 30
0.0
  0
LWPOLYLINE
  5
17e
100
AcDbEntity
  8
0
 62
1
100
AcDbPolyline
 90
3
 70
0
 10
1176.310274
 20
636.196800
 30
0.0
 10
1176.341474
 20
636.083408
 30
0.0
 10
1176.389394
 20
635.978528
 30
0.0
  0
LWPOLYLINE
  5
17f
100
AcDbEntity
  8
0
 62
1
100
AcDbPolyline
 90
2
 70
0
 10
1176.389634
 20
635.978528
 30
0.0
 10
1176.455234
 20
635.882152
 30
0.0
  0
LWPOLYLINE
  5
180
100
AcDbEntity
  8
0
 62
1
100
AcDbPolyline
 90
16
 70
0
 10
1176.454834
 20
635.882152
 30
0.0
 10
1176.542674
 20
635.788608
 30
0.0
 10
1176.647554
 20
635.706400
 30
0.0
 10
1176.772274
 20
635.629840
 30
0.0
 10
1176.919714
 20
635.558992
 30
0.0
 10
1177.089794
 20
635.488120
 30
0.0
 10
1177.285394
 20
635.422936
 30
0.0
 10
1177.506434
 20
635.357736
 30
0.0
 10
1177.750274
 20
635.295344
 30
0.0
 10
1178.016674
 20
635.232984
 30
0.0
 10
1178.362514
 20
635.162136
 30
0.0
 10
1178.470274
 20
635.125272
 30
0.0
 10
1178.566594
 20
635.068584
 30
0.0
 10
1178.660194
 20
634.997728
 30
0.0
 10
1178.702594
 20
634.952384
 30
0.0
 10
1178.737074
 20
634.895664
 30
0.0
  0
LWPOLYLINE
  5
181
100
AcDbEntity
  8
0
 62
1
100
AcDbPolyline
 90
3
 70
0
 10
1178.736674
 20
634.895696
 30
0.0
 10
1178.767874
 20
634.827696
 30
0.0
 10
1178.790274
 20
634.745456
 30
0.0
  0
LWPOLYLINE
  5
182
100
AcDbEntity
  8
0
 62
1
100
AcDbPolyline
 90
2
 70
0
 10
1178.790514
 20
634.745456
 30
0.0
 10
1178.804914
 20
634.651912
 30
0.0
  0
LWPOLYLINE
  5
183
100
AcDbEntity
  8
0
 62
1
100
AcDbPolyline
 90
3
 70
0
 10
1178.804754
 20
634.651912
 30
0.0
 10
1178.815954
 20
634.547032
 30
0.0
 10
1178.816034
 20
634.430816
 30
0.0
  0
LWPOLYLINE
  5
184
100
AcDbEntity
  8
0
 62
1
100
AcDbPolyline
 90
2
 70
0
 10
1178.818914
 20
634.430816
 30
0.0
 10
1178.818914
 20
634.059472
 30
0.0
  0
LWPOLYLINE
  5
185
100
AcDbEntity
  8
0
 62
1
100
AcDbPolyline
 90
15
 70
0
 10
1178.816034
 20
634.059472
 30
0.0
 10
1178.804834
 20
633.951760
 30
0.0
 10
1178.779154
 20
633.855376
 30
0.0
 10
1178.742434
 20
633.761840
 30
0.0
 10
1177.169154
 20
633.858216
 30
0.0
 10
1175.468354
 20
633.926216
 30
0.0
 10
1174.569794
 20
633.943288
 30
0.0
 10
1173.452914
 20
633.937656
 30
0.0
 10
1171.930674
 20
633.895104
 30
0.0
 10
1171.301394
 20
633.861064
 30
0.0
 10
1170.669314
 20
633.818488
 30
0.0
 10
1170.040034
 20
633.761808
 30
0.0
 10
1170.003234
 20
633.855376
 30
0.0
 10
1169.977554
 20
633.960264
 30
0.0
 10
1169.966434
 20
634.073648
 30
0.0
  0
LWPOLYLINE
  5
186
100
AcDbEntity
  8
0
 62
1
100
AcDbPolyline
 90
2
 70
0
 10
1169.966274
 20
634.073648
 30
0.0
 10
1169.966274
 20
634.470496
 30
0.0
  0
LWPOLYLINE
  5
187
100
AcDbEntity
  8
0
 62
1
100
AcDbPolyline
 90
2
 70
0
 10
1169.963474
 20
634.470496
 30
0.0
 10
1169.974674
 20
634.649080
 30
0.0
  0
LWPOLYLINE
  5
188
100
AcDbEntity
  8
0
 62
1
100
AcDbPolyline
 90
2
 70
0
 10
1169.974834
 20
634.649080
 30
0.0
 10
1169.989234
 20
634.722760
 30
0.0
  0
LWPOLYLINE
  5
189
100
AcDbEntity
  8
0
 62
1
100
AcDbPolyline
 90
13
 70
0
 10
1169.988994
 20
634.722784
 30
0.0
 10
1169.671474
 20
634.490344
 30
0.0
 10
1169.365394
 20
634.294752
 30
0.0
 10
1169.047874
 20
634.116168
 30
0.0
 10
1168.716194
 20
633.954592
 30
0.0
 10
1168.373234
 20
633.812864
 30
0.0
 10
1168.021714
 20
633.690968
 30
0.0
 10
1167.658914
 20
633.586088
 30
0.0
 10
1167.290434
 20
633.503880
 30
0.0
 10
1166.930434
 20
633.447160
 30
0.0
 10
1166.578914
 20
633.410312
 30
0.0
 10
1166.405954
 20
633.401864
 30
0.0
 10
1166.235874
 20
633.398640
 30
0.0
  0
LWPOLYLINE
  5
18a
100
AcDbEntity
  8
0
 62
1
100
AcDbPolyline
 90
2
 70
0
 10
1166.235874
 20
633.399000
 30
0.0
 10
1165.802194
 20
633.413160
 30
0.0
  0
LWPOLYLINE
  5
18b
100
AcDbEntity
  8
0
 62
1
100
AcDbPolyline
 90
52
 70
0
 10
1158.049474
 20
635.785776
 30
0.0
 10
1158.423634
 20
635.873648
 30
0.0
 10
1158.783634
 20
636.021048
 30
0.0
 10
1159.129474
 20
636.227976
 30
0.0
 10
1159.461074
 20
636.491600
 30
0.0
 10
1159.778594
 20
636.814752
 30
0.0
 10
1160.084754
 20
637.197424
 30
0.0
 10
1160.376674
 20
637.628296
 30
0.0
 10
1160.657314
 20
638.093176
 30
0.0
 10
1160.923794
 20
638.597744
 30
0.0
 10
1161.178914
 20
639.136328
 30
0.0
 10
1161.422674
 20
639.711760
 30
0.0
 10
1161.655154
 20
640.324040
 30
0.0
 10
1161.873394
 20
640.970344
 30
0.0
 10
1161.836594
 20
641.282152
 30
0.0
 10
1161.740194
 20
641.948296
 30
0.0
 10
1161.615474
 20
642.673960
 30
0.0
 10
1161.459554
 20
643.456328
 30
0.0
 10
1161.371634
 20
643.858848
 30
0.0
 10
1161.272434
 20
644.255696
 30
0.0
 10
1161.164754
 20
644.646872
 30
0.0
 10
1161.045634
 20
645.029552
 30
0.0
 10
1160.918114
 20
645.406560
 30
0.0
 10
1160.782034
 20
645.777896
 30
0.0
 10
1160.634674
 20
646.140736
 30
0.0
 10
1160.478754
 20
646.495064
 30
0.0
 10
1160.311474
 20
646.832392
 30
0.0
 10
1160.132914
 20
647.155536
 30
0.0
 10
1159.945794
 20
647.461680
 30
0.0
 10
1159.744594
 20
647.753648
 30
0.0
 10
1159.537634
 20
648.031440
 30
0.0
 10
1159.316514
 20
648.292232
 30
0.0
 10
1159.084114
 20
648.527504
 30
0.0
 10
1158.840354
 20
648.728768
 30
0.0
 10
1158.582354
 20
648.890344
 30
0.0
 10
1158.313074
 20
649.017896
 30
0.0
 10
1158.029634
 20
649.108608
 30
0.0
 10
1157.734834
 20
649.165328
 30
0.0
 10
1157.425794
 20
649.182344
 30
0.0
 10
1157.020434
 20
649.151112
 30
0.0
 10
1156.640594
 20
649.054752
 30
0.0
 10
1156.286274
 20
648.896008
 30
0.0
 10
1155.951794
 20
648.672072
 30
0.0
 10
1155.645634
 20
648.385776
 30
0.0
 10
1155.362194
 20
648.037112
 30
0.0
 10
1155.101394
 20
647.623256
 30
0.0
 10
1154.871794
 20
647.149864
 30
0.0
 10
1154.679074
 20
646.616952
 30
0.0
 10
1154.520354
 20
646.030184
 30
0.0
 10
1154.395554
 20
645.383888
 30
0.0
 10
1154.307714
 20
644.680896
 30
0.0
 10
1154.254114
 20
643.918376
 30
0.0
  0
LWPOLYLINE
  5
18c
100
AcDbEntity
  8
0
 62
1
100
AcDbPolyline
 90
2
 70
0
 10
1154.253874
 20
643.918376
 30
0.0
 10
1154.237074
 20
643.101992
 30
0.0
  0
LWPOLYLINE
  5
18d
100
AcDbEntity
  8
0
 62
1
100
AcDbPolyline
 90
2
 70
0
 10
1154.236834
 20
643.101992
 30
0.0
 10
1154.253634
 20
642.180736
 30
0.0
  0
LWPOLYLINE
  5
18e
100
AcDbEntity
  8
0
 62
1
100
AcDbPolyline
 90
2
 70
0
 10
1154.253874
 20
642.180736
 30
0.0
 10
1154.305074
 20
641.313336
 30
0.0
  0
LWPOLYLINE
  5
18f
100
AcDbEntity
  8
0
 62
1
100
AcDbPolyline
 90
14
 70
0
 10
1154.304914
 20
641.313336
 30
0.0
 10
1154.392754
 20
640.496952
 30
0.0
 10
1154.511794
 20
639.737272
 30
0.0
 10
1154.667714
 20
639.028608
 30
0.0
 10
1154.857634
 20
638.370968
 30
0.0
 10
1155.081554
 20
637.770024
 30
0.0
 10
1155.342354
 20
637.237112
 30
0.0
 10
1155.637154
 20
636.783568
 30
0.0
 10
1155.971634
 20
636.415064
 30
0.0
 10
1156.340194
 20
636.125928
 30
0.0
 10
1156.742674
 20
635.921840
 30
0.0
 10
1157.184914
 20
635.797112
 30
0.0
 10
1157.661074
 20
635.757432
 30
0.0
 10
1158.049474
 20
635.785744
 30
0.0
  0
LWPOLYLINE
  5
190
100
AcDbEntity
  8
0
 62
1
100
AcDbPolyline
 90
21
 70
0
 10
1172.568514
 20
565.954280
 30
0.0
 10
1172.568514
 20
568.732232
 30
0.0
 10
1170.263954
 20
568.732232
 30
0.0
 10
1170.263954
 20
578.656328
 30
0.0
 10
1172.568514
 20
578.656328
 30
0.0
 10
1172.568514
 20
592.852232
 30
0.0
 10
1170.263954
 20
592.852232
 30
0.0
 10
1170.263954
 20
602.776328
 30
0.0
 10
1172.568514
 20
602.776328
 30
0.0
 10
1172.568514
 20
605.554280
 30
0.0
 10
1212.168514
 20
605.554280
 30
0.0
 10
1212.168514
 20
602.776328
 30
0.0
 10
1214.473074
 20
602.776328
 30
0.0
 10
1214.473074
 20
592.852232
 30
0.0
 10
1212.168514
 20
592.852232
 30
0.0
 10
1212.168514
 20
578.656328
 30
0.0
 10
1214.473074
 20
578.656328
 30
0.0
 10
1214.473074
 20
568.732232
 30
0.0
 10
1212.168514
 20
568.732232
 30
0.0
 10
1212.168514
 20
565.954280
 30
0.0
 10
1172.568514
 20
565.954280
 30
0.0
  0
LWPOLYLINE
  5
191
100
AcDbEntity
  8
0
 62
1
100
AcDbPolyline
 90
21
 70
0
 10
1118.710274
 20
565.954280
 30
0.0
 10
1118.710274
 20
568.732232
 30
0.0
 10
1116.405634
 20
568.732232
 30
0.0
 10
1116.405634
 20
578.656328
 30
0.0
 10
1118.710274
 20
578.656328
 30
0.0
 10
1118.710274
 20
592.852232
 30
0.0
 10
1116.405634
 20
592.852232
 30
0.0
 10
1116.405634
 20
602.776328
 30
0.0
 10
1118.710274
 20
602.776328
 30
0.0
 10
1118.710274
 20
605.554280
 30
0.0
 10
1158.310274
 20
605.554280
 30
0.0
 10
1158.310274
 20
602.776328
 30
0.0
 10
1160.614834
 20
602.776328
 30
0.0
 10
1160.614834
 20
592.852232
 30
0.0
 10
1158.310274
 20
592.852232
 30
0.0
 10
1158.310274
 20
578.656328
 30
0.0
 10
1160.614834
 20
578.656328
 30
0.0
 10
1160.614834
 20
568.732232
 30
0.0
 10
1158.310274
 20
568.732232
 30
0.0
 10
1158.310274
 20
565.954280
 30
0.0
 10
1118.710274
 20
565.954280
 30
0.0
  0
LWPOLYLINE
  5
192
100
AcDbEntity
  8
0
 62
1
100
AcDbPolyline
 90
21
 70
0
 10
1064.851954
 20
565.954280
 30
0.0
 10
1064.851954
 20
568.732232
 30
0.0
 10
1062.547394
 20
568.732232
 30
0.0
 10
1062.547394
 20
578.656328
 30
0.0
 10
1064.851954
 20
578.656328
 30
0.0
 10
1064.851954
 20
592.852232
 30
0.0
 10
1062.547394
 20
592.852232
 30
0.0
 10
1062.547394
 20
602.776328
 30
0.0
 10
1064.851954
 20
602.776328
 30
0.0
 10
1064.851954
 20
605.554280
 30
0.0
 10
1104.451954
 20
605.554280
 30
0.0
 10
1104.451954
 20
602.776328
 30
0.0
 10
1106.756514
 20
602.776328
 30
0.0
 10
1106.756514
 20
592.852232
 30
0.0
 10
1104.451954
 20
592.852232
 30
0.0
 10
1104.451954
 20
578.656328
 30
0.0
 10
1106.756514
 20
578.656328
 30
0.0
 10
1106.756514
 20
568.732232
 30
0.0
 10
1104.451954
 20
568.732232
 30
0.0
 10
1104.451954
 20
565.954280
 30
0.0
 10
1064.851954
 20
565.954280
 30
0.0
  0
LWPOLYLINE
  5
193
100
AcDbEntity
  8
0
 62
1
100
AcDbPolyline
 90
21
 70
0
 10
1010.993714
 20
565.954280
 30
0.0
 10
1010.993714
 20
568.732232
 30
0.0
 10
1008.689154
 20
568.732232
 30
0.0
 10
1008.689154
 20
578.656328
 30
0.0
 10
1010.993714
 20
578.656328
 30
0.0
 10
1010.993714
 20
592.852232
 30
0.0
 10
1008.689154
 20
592.852232
 30
0.0
 10
1008.689154
 20
602.776328
 30
0.0
 10
1010.993714
 20
602.776328
 30
0.0
 10
1010.993714
 20
605.554280
 30
0.0
 10
1050.593714
 20
605.554280
 30
0.0
 10
1050.593714
 20
602.776328
 30
0.0
 10
1052.898274
 20
602.776328
 30
0.0
 10
1052.898274
 20
592.852232
 30
0.0
 10
1050.593714
 20
592.852232
 30
0.0
 10
1050.593714
 20
578.656328
 30
0.0
 10
1052.898274
 20
578.656328
 30
0.0
 10
1052.898274
 20
568.732232
 30
0.0
 10
1050.593714
 20
568.732232
 30
0.0
 10
1050.593714
 20
565.954280
 30
0.0
 10
1010.993714
 20
565.954280
 30
0.0
  0
LWPOLYLINE
  5
194
100
AcDbEntity
  8
0
 62
1
100
AcDbPolyline
 90
21
 70
0
 10
957.135474
 20
565.954280
 30
0.0
 10
957.135474
 20
568.732232
 30
0.0
 10
954.830834
 20
568.732232
 30
0.0
 10
954.830834
 20
578.656328
 30
0.0
 10
957.135474
 20
578.656328
 30
0.0
 10
957.135474
 20
592.852232
 30
0.0
 10
954.830834
 20
592.852232
 30
0.0
 10
954.830834
 20
602.776328
 30
0.0
 10
957.135474
 20
602.776328
 30
0.0
 10
957.135474
 20
605.554280
 30
0.0
 10
996.735474
 20
605.554280
 30
0.0
 10
996.735474
 20
602.776328
 30
0.0
 10
999.040034
 20
602.776328
 30
0.0
 10
999.040034
 20
592.852232
 30
0.0
 10
996.735474
 20
592.852232
 30
0.0
 10
996.735474
 20
578.656328
 30
0.0
 10
999.040034
 20
578.656328
 30
0.0
 10
999.040034
 20
568.732232
 30
0.0
 10
996.735474
 20
568.732232
 30
0.0
 10
996.735474
 20
565.954280
 30
0.0
 10
957.135474
 20
565.954280
 30
0.0
  0
LWPOLYLINE
  5
195
100
AcDbEntity
  8
0
 62
1
100
AcDbPolyline
 90
21
 70
0
 10
903.277154
 20
565.954280
 30
0.0
 10
903.277154
 20
568.732232
 30
0.0
 10
900.972594
 20
568.732232
 30
0.0
 10
900.972594
 20
578.656328
 30
0.0
 10
903.277154
 20
578.656328
 30
0.0
 10
903.277154
 20
592.852232
 30
0.0
 10
900.972594
 20
592.852232
 30
0.0
 10
900.972594
 20
602.776328
 30
0.0
 10
903.277154
 20
602.776328
 30
0.0
 10
903.277154
 20
605.554280
 30
0.0
 10
942.877154
 20
605.554280
 30
0.0
 10
942.877154
 20
602.776328
 30
0.0
 10
945.181714
 20
602.776328
 30
0.0
 10
945.181714
 20
592.852232
 30
0.0
 10
942.877154
 20
592.852232
 30
0.0
 10
942.877154
 20
578.656328
 30
0.0
 10
945.181714
 20
578.656328
 30
0.0
 10
945.181714
 20
568.732232
 30
0.0
 10
942.877154
 20
568.732232
 30
0.0
 10
942.877154
 20
565.954280
 30
0.0
 10
903.277154
 20
565.954280
 30
0.0
  0
LWPOLYLINE
  5
196
100
AcDbEntity
  8
0
 62
1
100
AcDbPolyline
 90
21
 70
0
 10
849.418898
 20
565.954280
 30
0.0
 10
849.418898
 20
568.732232
 30
0.0
 10
847.114330
 20
568.732232
 30
0.0
 10
847.114330
 20
578.656328
 30
0.0
 10
849.418898
 20
578.656328
 30
0.0
 10
849.418898
 20
592.852232
 30
0.0
 10
847.114330
 20
592.852232
 30
0.0
 10
847.114330
 20
602.776328
 30
0.0
 10
849.418898
 20
602.776328
 30
0.0
 10
849.418898
 20
605.554280
 30
0.0
 10
889.018914
 20
605.554280
 30
0.0
 10
889.018914
 20
602.776328
 30
0.0
 10
891.323474
 20
602.776328
 30
0.0
 10
891.323474
 20
592.852232
 30
0.0
 10
889.018914
 20
592.852232
 30
0.0
 10
889.018914
 20
578.656328
 30
0.0
 10
891.323474
 20
578.656328
 30
0.0
 10
891.323474
 20
568.732232
 30
0.0
 10
889.018914
 20
568.732232
 30
0.0
 10
889.018914
 20
565.954280
 30
0.0
 10
849.418898
 20
565.954280
 30
0.0
  0
LWPOLYLINE
  5
197
100
AcDbEntity
  8
0
 62
1
100
AcDbPolyline
 90
21
 70
0
 10
795.560634
 20
565.954280
 30
0.0
 10
795.560634
 20
568.732232
 30
0.0
 10
793.256066
 20
568.732232
 30
0.0
 10
793.256066
 20
578.656328
 30
0.0
 10
795.560634
 20
578.656328
 30
0.0
 10
795.560634
 20
592.852232
 30
0.0
 10
793.256066
 20
592.852232
 30
0.0
 10
793.256066
 20
602.776328
 30
0.0
 10
795.560634
 20
602.776328
 30
0.0
 10
795.560634
 20
605.554280
 30
0.0
 10
835.160634
 20
605.554280
 30
0.0
 10
835.160634
 20
602.776328
 30
0.0
 10
837.465194
 20
602.776328
 30
0.0
 10
837.465194
 20
592.852232
 30
0.0
 10
835.160634
 20
592.852232
 30
0.0
 10
835.160634
 20
578.656328
 30
0.0
 10
837.465194
 20
578.656328
 30
0.0
 10
837.465194
 20
568.732232
 30
0.0
 10
835.160634
 20
568.732232
 30
0.0
 10
835.160634
 20
565.954280
 30
0.0
 10
795.560634
 20
565.954280
 30
0.0
  0
LWPOLYLINE
  5
198
100
AcDbEntity
  8
0
 62
1
100
AcDbPolyline
 90
21
 70
0
 10
741.702362
 20
565.954280
 30
0.0
 10
741.702362
 20
568.732232
 30
0.0
 10
739.397794
 20
568.732232
 30
0.0
 10
739.397794
 20
578.656328
 30
0.0
 10
741.702362
 20
578.656328
 30
0.0
 10
741.702362
 20
592.852232
 30
0.0
 10
739.397794
 20
592.852232
 30
0.0
 10
739.397794
 20
602.776328
 30
0.0
 10
741.702362
 20
602.776328
 30
0.0
 10
741.702362
 20
605.554280
 30
0.0
 10
781.302362
 20
605.554280
 30
0.0
 10
781.302362
 20
602.776328
 30
0.0
 10
783.606930
 20
602.776328
 30
0.0
 10
783.606930
 20
592.852232
 30
0.0
 10
781.302362
 20
592.852232
 30
0.0
 10
781.302362
 20
578.656328
 30
0.0
 10
783.606930
 20
578.656328
 30
0.0
 10
783.606930
 20
568.732232
 30
0.0
 10
781.302362
 20
568.732232
 30
0.0
 10
781.302362
 20
565.954280
 30
0.0
 10
741.702362
 20
565.954280
 30
0.0
  0
LWPOLYLINE
  5
199
100
AcDbEntity
  8
0
 62
1
100
AcDbPolyline
 90
21
 70
0
 10
687.844098
 20
565.954280
 30
0.0
 10
687.844098
 20
568.732232
 30
0.0
 10
685.539530
 20
568.732232
 30
0.0
 10
685.539530
 20
578.656328
 30
0.0
 10
687.844098
 20
578.656328
 30
0.0
 10
687.844098
 20
592.852232
 30
0.0
 10
685.539530
 20
592.852232
 30
0.0
 10
685.539530
 20
602.776328
 30
0.0
 10
687.844098
 20
602.776328
 30
0.0
 10
687.844098
 20
605.554280
 30
0.0
 10
727.444098
 20
605.554280
 30
0.0
 10
727.444098
 20
602.776328
 30
0.0
 10
729.748666
 20
602.776328
 30
0.0
 10
729.748666
 20
592.852232
 30
0.0
 10
727.444098
 20
592.852232
 30
0.0
 10
727.444098
 20
578.656328
 30
0.0
 10
729.748666
 20
578.656328
 30
0.0
 10
729.748666
 20
568.732232
 30
0.0
 10
727.444098
 20
568.732232
 30
0.0
 10
727.444098
 20
565.954280
 30
0.0
 10
687.844098
 20
565.954280
 30
0.0
  0
LWPOLYLINE
  5
19a
100
AcDbEntity
  8
0
 62
1
100
AcDbPolyline
 90
21
 70
0
 10
1172.568514
 20
512.096008
 30
0.0
 10
1172.568514
 20
514.873960
 30
0.0
 10
1170.263954
 20
514.873960
 30
0.0
 10
1170.263954
 20
524.798056
 30
0.0
 10
1172.568514
 20
524.798056
 30
0.0
 10
1172.568514
 20
538.993960
 30
0.0
 10
1170.263954
 20
538.993960
 30
0.0
 10
1170.263954
 20
548.918056
 30
0.0
 10
1172.568514
 20
548.918056
 30
0.0
 10
1172.568514
 20
551.696008
 30
0.0
 10
1212.168514
 20
551.696008
 30
0.0
 10
1212.168514
 20
548.918056
 30
0.0
 10
1214.473074
 20
548.918056
 30
0.0
 10
1214.473074
 20
538.993960
 30
0.0
 10
1212.168514
 20
538.993960
 30
0.0
 10
1212.168514
 20
524.798056
 30
0.0
 10
1214.473074
 20
524.798056
 30
0.0
 10
1214.473074
 20
514.873960
 30
0.0
 10
1212.168514
 20
514.873960
 30
0.0
 10
1212.168514
 20
512.096008
 30
0.0
 10
1172.568514
 20
512.096008
 30
0.0
  0
LWPOLYLINE
  5
19b
100
AcDbEntity
  8
0
 62
1
100
AcDbPolyline
 90
21
 70
0
 10
1118.710274
 20
512.096008
 30
0.0
 10
1118.710274
 20
514.873960
 30
0.0
 10
1116.405634
 20
514.873960
 30
0.0
 10
1116.405634
 20
524.798056
 30
0.0
 10
1118.710274
 20
524.798056
 30
0.0
 10
1118.710274
 20
538.993960
 30
0.0
 10
1116.405634
 20
538.993960
 30
0.0
 10
1116.405634
 20
548.918056
 30
0.0
 10
1118.710274
 20
548.918056
 30
0.0
 10
1118.710274
 20
551.696008
 30
0.0
 10
1158.310274
 20
551.696008
 30
0.0
 10
1158.310274
 20
548.918056
 30
0.0
 10
1160.614834
 20
548.918056
 30
0.0
 10
1160.614834
 20
538.993960
 30
0.0
 10
1158.310274
 20
538.993960
 30
0.0
 10
1158.310274
 20
524.798056
 30
0.0
 10
1160.614834
 20
524.798056
 30
0.0
 10
1160.614834
 20
514.873960
 30
0.0
 10
1158.310274
 20
514.873960
 30
0.0
 10
1158.310274
 20
512.096008
 30
0.0
 10
1118.710274
 20
512.096008
 30
0.0
  0
LWPOLYLINE
  5
19c
100
AcDbEntity
  8
0
 62
1
100
AcDbPolyline
 90
21
 70
0
 10
1064.851954
 20
512.096008
 30
0.0
 10
1064.851954
 20
514.873960
 30
0.0
 10
1062.547394
 20
514.873960
 30
0.0
 10
1062.547394
 20
524.798056
 30
0.0
 10
1064.851954
 20
524.798056
 30
0.0
 10
1064.851954
 20
538.993960
 30
0.0
 10
1062.547394
 20
538.993960
 30
0.0
 10
1062.547394
 20
548.918056
 30
0.0
 10
1064.851954
 20
548.918056
 30
0.0
 10
1064.851954
 20
551.696008
 30
0.0
 10
1104.451954
 20
551.696008
 30
0.0
 10
1104.451954
 20
548.918056
 30
0.0
 10
1106.756514
 20
548.918056
 30
0.0
 10
1106.756514
 20
538.993960
 30
0.0
 10
1104.451954
 20
538.993960
 30
0.0
 10
1104.451954
 20
524.798056
 30
0.0
 10
1106.756514
 20
524.798056
 30
0.0
 10
1106.756514
 20
514.873960
 30
0.0
 10
1104.451954
 20
514.873960
 30
0.0
 10
1104.451954
 20
512.096008
 30
0.0
 10
1064.851954
 20
512.096008
 30
0.0
  0
LWPOLYLINE
  5
19d
100
AcDbEntity
  8
0
 62
1
100
AcDbPolyline
 90
21
 70
0
 10
1010.993714
 20
512.096008
 30
0.0
 10
1010.993714
 20
514.873960
 30
0.0
 10
1008.689154
 20
514.873960
 30
0.0
 10
1008.689154
 20
524.798056
 30
0.0
 10
1010.993714
 20
524.798056
 30
0.0
 10
1010.993714
 20
538.993960
 30
0.0
 10
1008.689154
 20
538.993960
 30
0.0
 10
1008.689154
 20
548.918056
 30
0.0
 10
1010.993714
 20
548.918056
 30
0.0
 10
1010.993714
 20
551.696008
 30
0.0
 10
1050.593714
 20
551.696008
 30
0.0
 10
1050.593714
 20
548.918056
 30
0.0
 10
1052.898274
 20
548.918056
 30
0.0
 10
1052.898274
 20
538.993960
 30
0.0
 10
1050.593714
 20
538.993960
 30
0.0
 10
1050.593714
 20
524.798056
 30
0.0
 10
1052.898274
 20
524.798056
 30
0.0
 10
1052.898274
 20
514.873960
 30
0.0
 10
1050.593714
 20
514.873960
 30
0.0
 10
1050.593714
 20
512.096008
 30
0.0
 10
1010.993714
 20
512.096008
 30
0.0
  0
LWPOLYLINE
  5
19e
100
AcDbEntity
  8
0
 62
1
100
AcDbPolyline
 90
21
 70
0
 10
957.135474
 20
512.096008
 30
0.0
 10
957.135474
 20
514.873960
 30
0.0
 10
954.830834
 20
514.873960
 30
0.0
 10
954.830834
 20
524.798056
 30
0.0
 10
957.135474
 20
524.798056
 30
0.0
 10
957.135474
 20
538.993960
 30
0.0
 10
954.830834
 20
538.993960
 30
0.0
 10
954.830834
 20
548.918056
 30
0.0
 10
957.135474
 20
548.918056
 30
0.0
 10
957.135474
 20
551.696008
 30
0.0
 10
996.735474
 20
551.696008
 30
0.0
 10
996.735474
 20
548.918056
 30
0.0
 10
999.040034
 20
548.918056
 30
0.0
 10
999.040034
 20
538.993960
 30
0.0
 10
996.735474
 20
538.993960
 30
0.0
 10
996.735474
 20
524.798056
 30
0.0
 10
999.040034
 20
524.798056
 30
0.0
 10
999.040034
 20
514.873960
 30
0.0
 10
996.735474
 20
514.873960
 30
0.0
 10
996.735474
 20
512.096008
 30
0.0
 10
957.135474
 20
512.096008
 30
0.0
  0
LWPOLYLINE
  5
19f
100
AcDbEntity
  8
0
 62
1
100
AcDbPolyline
 90
21
 70
0
 10
903.277154
 20
512.096008
 30
0.0
 10
903.277154
 20
514.873960
 30
0.0
 10
900.972594
 20
514.873960
 30
0.0
 10
900.972594
 20
524.798056
 30
0.0
 10
903.277154
 20
524.798056
 30
0.0
 10
903.277154
 20
538.993960
 30
0.0
 10
900.972594
 20
538.993960
 30
0.0
 10
900.972594
 20
548.918056
 30
0.0
 10
903.277154
 20
548.918056
 30
0.0
 10
903.277154
 20
551.696008
 30
0.0
 10
942.877154
 20
551.696008
 30
0.0
 10
942.877154
 20
548.918056
 30
0.0
 10
945.181714
 20
548.918056
 30
0.0
 10
945.181714
 20
538.993960
 30
0.0
 10
942.877154
 20
538.993960
 30
0.0
 10
942.877154
 20
524.798056
 30
0.0
 10
945.181714
 20
524.798056
 30
0.0
 10
945.181714
 20
514.873960
 30
0.0
 10
942.877154
 20
514.873960
 30
0.0
 10
942.877154
 20
512.096008
 30
0.0
 10
903.277154
 20
512.096008
 30
0.0
  0
LWPOLYLINE
  5
1a0
100
AcDbEntity
  8
0
 62
1
100
AcDbPolyline
 90
21
 70
0
 10
849.418898
 20
512.096008
 30
0.0
 10
849.418898
 20
514.873960
 30
0.0
 10
847.114330
 20
514.873960
 30
0.0
 10
847.114330
 20
524.798056
 30
0.0
 10
849.418898
 20
524.798056
 30
0.0
 10
849.418898
 20
538.993960
 30
0.0
 10
847.114330
 20
538.993960
 30
0.0
 10
847.114330
 20
548.918056
 30
0.0
 10
849.418898
 20
548.918056
 30
0.0
 10
849.418898
 20
551.696008
 30
0.0
 10
889.018914
 20
551.696008
 30
0.0
 10
889.018914
 20
548.918056
 30
0.0
 10
891.323474
 20
548.918056
 30
0.0
 10
891.323474
 20
538.993960
 30
0.0
 10
889.018914
 20
538.993960
 30
0.0
 10
889.018914
 20
524.798056
 30
0.0
 10
891.323474
 20
524.798056
 30
0.0
 10
891.323474
 20
514.873960
 30
0.0
 10
889.018914
 20
514.873960
 30
0.0
 10
889.018914
 20
512.096008
 30
0.0
 10
849.418898
 20
512.096008
 30
0.0
  0
LWPOLYLINE
  5
1a1
100
AcDbEntity
  8
0
 62
1
100
AcDbPolyline
 90
21
 70
0
 10
795.560634
 20
512.096008
 30
0.0
 10
795.560634
 20
514.873960
 30
0.0
 10
793.256066
 20
514.873960
 30
0.0
 10
793.256066
 20
524.798056
 30
0.0
 10
795.560634
 20
524.798056
 30
0.0
 10
795.560634
 20
538.993960
 30
0.0
 10
793.256066
 20
538.993960
 30
0.0
 10
793.256066
 20
548.918056
 30
0.0
 10
795.560634
 20
548.918056
 30
0.0
 10
795.560634
 20
551.696008
 30
0.0
 10
835.160634
 20
551.696008
 30
0.0
 10
835.160634
 20
548.918056
 30
0.0
 10
837.465194
 20
548.918056
 30
0.0
 10
837.465194
 20
538.993960
 30
0.0
 10
835.160634
 20
538.993960
 30
0.0
 10
835.160634
 20
524.798056
 30
0.0
 10
837.465194
 20
524.798056
 30
0.0
 10
837.465194
 20
514.873960
 30
0.0
 10
835.160634
 20
514.873960
 30
0.0
 10
835.160634
 20
512.096008
 30
0.0
 10
795.560634
 20
512.096008
 30
0.0
  0
LWPOLYLINE
  5
1a2
100
AcDbEntity
  8
0
 62
1
100
AcDbPolyline
 90
21
 70
0
 10
741.702362
 20
512.096008
 30
0.0
 10
741.702362
 20
514.873960
 30
0.0
 10
739.397794
 20
514.873960
 30
0.0
 10
739.397794
 20
524.798056
 30
0.0
 10
741.702362
 20
524.798056
 30
0.0
 10
741.702362
 20
538.993960
 30
0.0
 10
739.397794
 20
538.993960
 30
0.0
 10
739.397794
 20
548.918056
 30
0.0
 10
741.702362
 20
548.918056
 30
0.0
 10
741.702362
 20
551.696008
 30
0.0
 10
781.302362
 20
551.696008
 30
0.0
 10
781.302362
 20
548.918056
 30
0.0
 10
783.606930
 20
548.918056
 30
0.0
 10
783.606930
 20
538.993960
 30
0.0
 10
781.302362
 20
538.993960
 30
0.0
 10
781.302362
 20
524.798056
 30
0.0
 10
783.606930
 20
524.798056
 30
0.0
 10
783.606930
 20
514.873960
 30
0.0
 10
781.302362
 20
514.873960
 30
0.0
 10
781.302362
 20
512.096008
 30
0.0
 10
741.702362
 20
512.096008
 30
0.0
  0
LWPOLYLINE
  5
1a3
100
AcDbEntity
  8
0
 62
1
100
AcDbPolyline
 90
21
 70
0
 10
687.844098
 20
512.096008
 30
0.0
 10
687.844098
 20
514.873960
 30
0.0
 10
685.539530
 20
514.873960
 30
0.0
 10
685.539530
 20
524.798056
 30
0.0
 10
687.844098
 20
524.798056
 30
0.0
 10
687.844098
 20
538.993960
 30
0.0
 10
685.539530
 20
538.993960
 30
0.0
 10
685.539530
 20
548.918056
 30
0.0
 10
687.844098
 20
548.918056
 30
0.0
 10
687.844098
 20
551.696008
 30
0.0
 10
727.444098
 20
551.696008
 30
0.0
 10
727.444098
 20
548.918056
 30
0.0
 10
729.748666
 20
548.918056
 30
0.0
 10
729.748666
 20
538.993960
 30
0.0
 10
727.444098
 20
538.993960
 30
0.0
 10
727.444098
 20
524.798056
 30
0.0
 10
729.748666
 20
524.798056
 30
0.0
 10
729.748666
 20
514.873960
 30
0.0
 10
727.444098
 20
514.873960
 30
0.0
 10
727.444098
 20
512.096008
 30
0.0
 10
687.844098
 20
512.096008
 30
0.0
  0
LWPOLYLINE
  5
1a4
100
AcDbEntity
  8
0
 62
1
100
AcDbPolyline
 90
21
 70
0
 10
1172.568514
 20
458.237744
 30
0.0
 10
1172.568514
 20
461.015696
 30
0.0
 10
1170.263954
 20
461.015696
 30
0.0
 10
1170.263954
 20
470.939792
 30
0.0
 10
1172.568514
 20
470.939792
 30
0.0
 10
1172.568514
 20
485.135696
 30
0.0
 10
1170.263954
 20
485.135696
 30
0.0
 10
1170.263954
 20
495.059792
 30
0.0
 10
1172.568514
 20
495.059792
 30
0.0
 10
1172.568514
 20
497.837744
 30
0.0
 10
1212.168514
 20
497.837744
 30
0.0
 10
1212.168514
 20
495.059792
 30
0.0
 10
1214.473074
 20
495.059792
 30
0.0
 10
1214.473074
 20
485.135696
 30
0.0
 10
1212.168514
 20
485.135696
 30
0.0
 10
1212.168514
 20
470.939792
 30
0.0
 10
1214.473074
 20
470.939792
 30
0.0
 10
1214.473074
 20
461.015696
 30
0.0
 10
1212.168514
 20
461.015696
 30
0.0
 10
1212.168514
 20
458.237744
 30
0.0
 10
1172.568514
 20
458.237744
 30
0.0
  0
LWPOLYLINE
  5
1a5
100
AcDbEntity
  8
0
 62
1
100
AcDbPolyline
 90
21
 70
0
 10
1118.710274
 20
458.237744
 30
0.0
 10
1118.710274
 20
461.015696
 30
0.0
 10
1116.405634
 20
461.015696
 30
0.0
 10
1116.405634
 20
470.939792
 30
0.0
 10
1118.710274
 20
470.939792
 30
0.0
 10
1118.710274
 20
485.135696
 30
0.0
 10
1116.405634
 20
485.135696
 30
0.0
 10
1116.405634
 20
495.059792
 30
0.0
 10
1118.710274
 20
495.059792
 30
0.0
 10
1118.710274
 20
497.837744
 30
0.0
 10
1158.310274
 20
497.837744
 30
0.0
 10
1158.310274
 20
495.059792
 30
0.0
 10
1160.614834
 20
495.059792
 30
0.0
 10
1160.614834
 20
485.135696
 30
0.0
 10
1158.310274
 20
485.135696
 30
0.0
 10
1158.310274
 20
470.939792
 30
0.0
 10
1160.614834
 20
470.939792
 30
0.0
 10
1160.614834
 20
461.015696
 30
0.0
 10
1158.310274
 20
461.015696
 30
0.0
 10
1158.310274
 20
458.237744
 30
0.0
 10
1118.710274
 20
458.237744
 30
0.0
  0
LWPOLYLINE
  5
1a6
100
AcDbEntity
  8
0
 62
1
100
AcDbPolyline
 90
21
 70
0
 10
1064.851954
 20
458.237744
 30
0.0
 10
1064.851954
 20
461.015696
 30
0.0
 10
1062.547394
 20
461.015696
 30
0.0
 10
1062.547394
 20
470.939792
 30
0.0
 10
1064.851954
 20
470.939792
 30
0.0
 10
1064.851954
 20
485.135696
 30
0.0
 10
1062.547394
 20
485.135696
 30
0.0
 10
1062.547394
 20
495.059792
 30
0.0
 10
1064.851954
 20
495.059792
 30
0.0
 10
1064.851954
 20
497.837744
 30
0.0
 10
1104.451954
 20
497.837744
 30
0.0
 10
1104.451954
 20
495.059792
 30
0.0
 10
1106.756514
 20
495.059792
 30
0.0
 10
1106.756514
 20
485.135696
 30
0.0
 10
1104.451954
 20
485.135696
 30
0.0
 10
1104.451954
 20
470.939792
 30
0.0
 10
1106.756514
 20
470.939792
 30
0.0
 10
1106.756514
 20
461.015696
 30
0.0
 10
1104.451954
 20
461.015696
 30
0.0
 10
1104.451954
 20
458.237744
 30
0.0
 10
1064.851954
 20
458.237744
 30
0.0
  0
LWPOLYLINE
  5
1a7
100
AcDbEntity
  8
0
 62
1
100
AcDbPolyline
 90
21
 70
0
 10
1010.993714
 20
458.237744
 30
0.0
 10
1010.993714
 20
461.015696
 30
0.0
 10
1008.689154
 20
461.015696
 30
0.0
 10
1008.689154
 20
470.939792
 30
0.0
 10
1010.993714
 20
470.939792
 30
0.0
 10
1010.993714
 20
485.135696
 30
0.0
 10
1008.689154
 20
485.135696
 30
0.0
 10
1008.689154
 20
495.059792
 30
0.0
 10
1010.993714
 20
495.059792
 30
0.0
 10
1010.993714
 20
497.837744
 30
0.0
 10
1050.593714
 20
497.837744
 30
0.0
 10
1050.593714
 20
495.059792
 30
0.0
 10
1052.898274
 20
495.059792
 30
0.0
 10
1052.898274
 20
485.135696
 30
0.0
 10
1050.593714
 20
485.135696
 30
0.0
 10
1050.593714
 20
470.939792
 30
0.0
 10
1052.898274
 20
470.939792
 30
0.0
 10
1052.898274
 20
461.015696
 30
0.0
 10
1050.593714
 20
461.015696
 30
0.0
 10
1050.593714
 20
458.237744
 30
0.0
 10
1010.993714
 20
458.237744
 30
0.0
  0
LWPOLYLINE
  5
1a8
100
AcDbEntity
  8
0
 62
1
100
AcDbPolyline
 90
21
 70
0
 10
957.135474
 20
458.237744
 30
0.0
 10
957.135474
 20
461.015696
 30
0.0
 10
954.830834
 20
461.015696
 30
0.0
 10
954.830834
 20
470.939792
 30
0.0
 10
957.135474
 20
470.939792
 30
0.0
 10
957.135474
 20
485.135696
 30
0.0
 10
954.830834
 20
485.135696
 30
0.0
 10
954.830834
 20
495.059792
 30
0.0
 10
957.135474
 20
495.059792
 30
0.0
 10
957.135474
 20
497.837744
 30
0.0
 10
996.735474
 20
497.837744
 30
0.0
 10
996.735474
 20
495.059792
 30
0.0
 10
999.040034
 20
495.059792
 30
0.0
 10
999.040034
 20
485.135696
 30
0.0
 10
996.735474
 20
485.135696
 30
0.0
 10
996.735474
 20
470.939792
 30
0.0
 10
999.040034
 20
470.939792
 30
0.0
 10
999.040034
 20
461.015696
 30
0.0
 10
996.735474
 20
461.015696
 30
0.0
 10
996.735474
 20
458.237744
 30
0.0
 10
957.135474
 20
458.237744
 30
0.0
  0
LWPOLYLINE
  5
1a9
100
AcDbEntity
  8
0
 62
1
100
AcDbPolyline
 90
21
 70
0
 10
903.277154
 20
458.237744
 30
0.0
 10
903.277154
 20
461.015696
 30
0.0
 10
900.972594
 20
461.015696
 30
0.0
 10
900.972594
 20
470.939792
 30
0.0
 10
903.277154
 20
470.939792
 30
0.0
 10
903.277154
 20
485.135696
 30
0.0
 10
900.972594
 20
485.135696
 30
0.0
 10
900.972594
 20
495.059792
 30
0.0
 10
903.277154
 20
495.059792
 30
0.0
 10
903.277154
 20
497.837744
 30
0.0
 10
942.877154
 20
497.837744
 30
0.0
 10
942.877154
 20
495.059792
 30
0.0
 10
945.181714
 20
495.059792
 30
0.0
 10
945.181714
 20
485.135696
 30
0.0
 10
942.877154
 20
485.135696
 30
0.0
 10
942.877154
 20
470.939792
 30
0.0
 10
945.181714
 20
470.939792
 30
0.0
 10
945.181714
 20
461.015696
 30
0.0
 10
942.877154
 20
461.015696
 30
0.0
 10
942.877154
 20
458.237744
 30
0.0
 10
903.277154
 20
458.237744
 30
0.0
  0
LWPOLYLINE
  5
1aa
100
AcDbEntity
  8
0
 62
1
100
AcDbPolyline
 90
21
 70
0
 10
849.418898
 20
458.237744
 30
0.0
 10
849.418898
 20
461.015696
 30
0.0
 10
847.114330
 20
461.015696
 30
0.0
 10
847.114330
 20
470.939792
 30
0.0
 10
849.418898
 20
470.939792
 30
0.0
 10
849.418898
 20
485.135696
 30
0.0
 10
847.114330
 20
485.135696
 30
0.0
 10
847.114330
 20
495.059792
 30
0.0
 10
849.418898
 20
495.059792
 30
0.0
 10
849.418898
 20
497.837744
 30
0.0
 10
889.018914
 20
497.837744
 30
0.0
 10
889.018914
 20
495.059792
 30
0.0
 10
891.323474
 20
495.059792
 30
0.0
 10
891.323474
 20
485.135696
 30
0.0
 10
889.018914
 20
485.135696
 30
0.0
 10
889.018914
 20
470.939792
 30
0.0
 10
891.323474
 20
470.939792
 30
0.0
 10
891.323474
 20
461.015696
 30
0.0
 10
889.018914
 20
461.015696
 30
0.0
 10
889.018914
 20
458.237744
 30
0.0
 10
849.418898
 20
458.237744
 30
0.0
  0
LWPOLYLINE
  5
1ab
100
AcDbEntity
  8
0
 62
1
100
AcDbPolyline
 90
21
 70
0
 10
795.560634
 20
458.237744
 30
0.0
 10
795.560634
 20
461.015696
 30
0.0
 10
793.256066
 20
461.015696
 30
0.0
 10
793.256066
 20
470.939792
 30
0.0
 10
795.560634
 20
470.939792
 30
0.0
 10
795.560634
 20
485.135696
 30
0.0
 10
793.256066
 20
485.135696
 30
0.0
 10
793.256066
 20
495.059792
 30
0.0
 10
795.560634
 20
495.059792
 30
0.0
 10
795.560634
 20
497.837744
 30
0.0
 10
835.160634
 20
497.837744
 30
0.0
 10
835.160634
 20
495.059792
 30
0.0
 10
837.465194
 20
495.059792
 30
0.0
 10
837.465194
 20
485.135696
 30
0.0
 10
835.160634
 20
485.135696
 30
0.0
 10
835.160634
 20
470.939792
 30
0.0
 10
837.465194
 20
470.939792
 30
0.0
 10
837.465194
 20
461.015696
 30
0.0
 10
835.160634
 20
461.015696
 30
0.0
 10
835.160634
 20
458.237744
 30
0.0
 10
795.560634
 20
458.237744
 30
0.0
  0
LWPOLYLINE
  5
1ac
100
AcDbEntity
  8
0
 62
1
100
AcDbPolyline
 90
21
 70
0
 10
741.702362
 20
458.237744
 30
0.0
 10
741.702362
 20
461.015696
 30
0.0
 10
739.397794
 20
461.015696
 30
0.0
 10
739.397794
 20
470.939792
 30
0.0
 10
741.702362
 20
470.939792
 30
0.0
 10
741.702362
 20
485.135696
 30
0.0
 10
739.397794
 20
485.135696
 30
0.0
 10
739.397794
 20
495.059792
 30
0.0
 10
741.702362
 20
495.059792
 30
0.0
 10
741.702362
 20
497.837744
 30
0.0
 10
781.302362
 20
497.837744
 30
0.0
 10
781.302362
 20
495.059792
 30
0.0
 10
783.606930
 20
495.059792
 30
0.0
 10
783.606930
 20
485.135696
 30
0.0
 10
781.302362
 20
485.135696
 30
0.0
 10
781.302362
 20
470.939792
 30
0.0
 10
783.606930
 20
470.939792
 30
0.0
 10
783.606930
 20
461.015696
 30
0.0
 10
781.302362
 20
461.015696
 30
0.0
 10
781.302362
 20
458.237744
 30
0.0
 10
741.702362
 20
458.237744
 30
0.0
  0
LWPOLYLINE
  5
1ad
100
AcDbEntity
  8
0
 62
1
100
AcDbPolyline
 90
21
 70
0
 10
687.844098
 20
458.237744
 30
0.0
 10
687.844098
 20
461.015696
 30
0.0
 10
685.539530
 20
461.015696
 30
0.0
 10
685.539530
 20
470.939792
 30
0.0
 10
687.844098
 20
470.939792
 30
0.0
 10
687.844098
 20
485.135696
 30
0.0
 10
685.539530
 20
485.135696
 30
0.0
 10
685.539530
 20
495.059792
 30
0.0
 10
687.844098
 20
495.059792
 30
0.0
 10
687.844098
 20
497.837744
 30
0.0
 10
727.444098
 20
497.837744
 30
0.0
 10
727.444098
 20
495.059792
 30
0.0
 10
729.748666
 20
495.059792
 30
0.0
 10
729.748666
 20
485.135696
 30
0.0
 10
727.444098
 20
485.135696
 30
0.0
 10
727.444098
 20
470.939792
 30
0.0
 10
729.748666
 20
470.939792
 30
0.0
 10
729.748666
 20
461.015696
 30
0.0
 10
727.444098
 20
461.015696
 30
0.0
 10
727.444098
 20
458.237744
 30
0.0
 10
687.844098
 20
458.237744
 30
0.0
  0
LWPOLYLINE
  5
1ae
100
AcDbEntity
  8
0
 62
1
100
AcDbPolyline
 90
21
 70
0
 10
1172.568514
 20
404.379472
 30
0.0
 10
1172.568514
 20
407.157424
 30
0.0
 10
1170.263954
 20
407.157424
 30
0.0
 10
1170.263954
 20
417.081520
 30
0.0
 10
1172.568514
 20
417.081520
 30
0.0
 10
1172.568514
 20
431.277424
 30
0.0
 10
1170.263954
 20
431.277424
 30
0.0
 10
1170.263954
 20
441.201520
 30
0.0
 10
1172.568514
 20
441.201520
 30
0.0
 10
1172.568514
 20
443.979472
 30
0.0
 10
1212.168514
 20
443.979472
 30
0.0
 10
1212.168514
 20
441.201520
 30
0.0
 10
1214.473074
 20
441.201520
 30
0.0
 10
1214.473074
 20
431.277424
 30
0.0
 10
1212.168514
 20
431.277424
 30
0.0
 10
1212.168514
 20
417.081520
 30
0.0
 10
1214.473074
 20
417.081520
 30
0.0
 10
1214.473074
 20
407.157424
 30
0.0
 10
1212.168514
 20
407.157424
 30
0.0
 10
1212.168514
 20
404.379472
 30
0.0
 10
1172.568514
 20
404.379472
 30
0.0
  0
LWPOLYLINE
  5
1af
100
AcDbEntity
  8
0
 62
1
100
AcDbPolyline
 90
21
 70
0
 10
1118.710274
 20
404.379472
 30
0.0
 10
1118.710274
 20
407.157424
 30
0.0
 10
1116.405634
 20
407.157424
 30
0.0
 10
1116.405634
 20
417.081520
 30
0.0
 10
1118.710274
 20
417.081520
 30
0.0
 10
1118.710274
 20
431.277424
 30
0.0
 10
1116.405634
 20
431.277424
 30
0.0
 10
1116.405634
 20
441.201520
 30
0.0
 10
1118.710274
 20
441.201520
 30
0.0
 10
1118.710274
 20
443.979472
 30
0.0
 10
1158.310274
 20
443.979472
 30
0.0
 10
1158.310274
 20
441.201520
 30
0.0
 10
1160.614834
 20
441.201520
 30
0.0
 10
1160.614834
 20
431.277424
 30
0.0
 10
1158.310274
 20
431.277424
 30
0.0
 10
1158.310274
 20
417.081520
 30
0.0
 10
1160.614834
 20
417.081520
 30
0.0
 10
1160.614834
 20
407.157424
 30
0.0
 10
1158.310274
 20
407.157424
 30
0.0
 10
1158.310274
 20
404.379472
 30
0.0
 10
1118.710274
 20
404.379472
 30
0.0
  0
LWPOLYLINE
  5
1b0
100
AcDbEntity
  8
0
 62
1
100
AcDbPolyline
 90
21
 70
0
 10
1064.851954
 20
404.379472
 30
0.0
 10
1064.851954
 20
407.157424
 30
0.0
 10
1062.547394
 20
407.157424
 30
0.0
 10
1062.547394
 20
417.081520
 30
0.0
 10
1064.851954
 20
417.081520
 30
0.0
 10
1064.851954
 20
431.277424
 30
0.0
 10
1062.547394
 20
431.277424
 30
0.0
 10
1062.547394
 20
441.201520
 30
0.0
 10
1064.851954
 20
441.201520
 30
0.0
 10
1064.851954
 20
443.979472
 30
0.0
 10
1104.451954
 20
443.979472
 30
0.0
 10
1104.451954
 20
441.201520
 30
0.0
 10
1106.756514
 20
441.201520
 30
0.0
 10
1106.756514
 20
431.277424
 30
0.0
 10
1104.451954
 20
431.277424
 30
0.0
 10
1104.451954
 20
417.081520
 30
0.0
 10
1106.756514
 20
417.081520
 30
0.0
 10
1106.756514
 20
407.157424
 30
0.0
 10
1104.451954
 20
407.157424
 30
0.0
 10
1104.451954
 20
404.379472
 30
0.0
 10
1064.851954
 20
404.379472
 30
0.0
  0
LWPOLYLINE
  5
1b1
100
AcDbEntity
  8
0
 62
1
100
AcDbPolyline
 90
21
 70
0
 10
1010.993714
 20
404.379472
 30
0.0
 10
1010.993714
 20
407.157424
 30
0.0
 10
1008.689154
 20
407.157424
 30
0.0
 10
1008.689154
 20
417.081520
 30
0.0
 10
1010.993714
 20
417.081520
 30
0.0
 10
1010.993714
 20
431.277424
 30
0.0
 10
1008.689154
 20
431.277424
 30
0.0
 10
1008.689154
 20
441.201520
 30
0.0
 10
1010.993714
 20
441.201520
 30
0.0
 10
1010.993714
 20
443.979472
 30
0.0
 10
1050.593714
 20
443.979472
 30
0.0
 10
1050.593714
 20
441.201520
 30
0.0
 10
1052.898274
 20
441.201520
 30
0.0
 10
1052.898274
 20
431.277424
 30
0.0
 10
1050.593714
 20
431.277424
 30
0.0
 10
1050.593714
 20
417.081520
 30
0.0
 10
1052.898274
 20
417.081520
 30
0.0
 10
1052.898274
 20
407.157424
 30
0.0
 10
1050.593714
 20
407.157424
 30
0.0
 10
1050.593714
 20
404.379472
 30
0.0
 10
1010.993714
 20
404.379472
 30
0.0
  0
LWPOLYLINE
  5
1b2
100
AcDbEntity
  8
0
 62
1
100
AcDbPolyline
 90
21
 70
0
 10
957.135474
 20
404.379472
 30
0.0
 10
957.135474
 20
407.157424
 30
0.0
 10
954.830834
 20
407.157424
 30
0.0
 10
954.830834
 20
417.081520
 30
0.0
 10
957.135474
 20
417.081520
 30
0.0
 10
957.135474
 20
431.277424
 30
0.0
 10
954.830834
 20
431.277424
 30
0.0
 10
954.830834
 20
441.201520
 30
0.0
 10
957.135474
 20
441.201520
 30
0.0
 10
957.135474
 20
443.979472
 30
0.0
 10
996.735474
 20
443.979472
 30
0.0
 10
996.735474
 20
441.201520
 30
0.0
 10
999.040034
 20
441.201520
 30
0.0
 10
999.040034
 20
431.277424
 30
0.0
 10
996.735474
 20
431.277424
 30
0.0
 10
996.735474
 20
417.081520
 30
0.0
 10
999.040034
 20
417.081520
 30
0.0
 10
999.040034
 20
407.157424
 30
0.0
 10
996.735474
 20
407.157424
 30
0.0
 10
996.735474
 20
404.379472
 30
0.0
 10
957.135474
 20
404.379472
 30
0.0
  0
LWPOLYLINE
  5
1b3
100
AcDbEntity
  8
0
 62
1
100
AcDbPolyline
 90
21
 70
0
 10
903.277154
 20
404.379472
 30
0.0
 10
903.277154
 20
407.157424
 30
0.0
 10
900.972594
 20
407.157424
 30
0.0
 10
900.972594
 20
417.081520
 30
0.0
 10
903.277154
 20
417.081520
 30
0.0
 10
903.277154
 20
431.277424
 30
0.0
 10
900.972594
 20
431.277424
 30
0.0
 10
900.972594
 20
441.201520
 30
0.0
 10
903.277154
 20
441.201520
 30
0.0
 10
903.277154
 20
443.979472
 30
0.0
 10
942.877154
 20
443.979472
 30
0.0
 10
942.877154
 20
441.201520
 30
0.0
 10
945.181714
 20
441.201520
 30
0.0
 10
945.181714
 20
431.277424
 30
0.0
 10
942.877154
 20
431.277424
 30
0.0
 10
942.877154
 20
417.081520
 30
0.0
 10
945.181714
 20
417.081520
 30
0.0
 10
945.181714
 20
407.157424
 30
0.0
 10
942.877154
 20
407.157424
 30
0.0
 10
942.877154
 20
404.379472
 30
0.0
 10
903.277154
 20
404.379472
 30
0.0
  0
LWPOLYLINE
  5
1b4
100
AcDbEntity
  8
0
 62
1
100
AcDbPolyline
 90
21
 70
0
 10
849.418898
 20
404.379472
 30
0.0
 10
849.418898
 20
407.157424
 30
0.0
 10
847.114330
 20
407.157424
 30
0.0
 10
847.114330
 20
417.081520
 30
0.0
 10
849.418898
 20
417.081520
 30
0.0
 10
849.418898
 20
431.277424
 30
0.0
 10
847.114330
 20
431.277424
 30
0.0
 10
847.114330
 20
441.201520
 30
0.0
 10
849.418898
 20
441.201520
 30
0.0
 10
849.418898
 20
443.979472
 30
0.0
 10
889.018914
 20
443.979472
 30
0.0
 10
889.018914
 20
441.201520
 30
0.0
 10
891.323474
 20
441.201520
 30
0.0
 10
891.323474
 20
431.277424
 30
0.0
 10
889.018914
 20
431.277424
 30
0.0
 10
889.018914
 20
417.081520
 30
0.0
 10
891.323474
 20
417.081520
 30
0.0
 10
891.323474
 20
407.157424
 30
0.0
 10
889.018914
 20
407.157424
 30
0.0
 10
889.018914
 20
404.379472
 30
0.0
 10
849.418898
 20
404.379472
 30
0.0
  0
LWPOLYLINE
  5
1b5
100
AcDbEntity
  8
0
 62
1
100
AcDbPolyline
 90
21
 70
0
 10
795.560634
 20
404.379472
 30
0.0
 10
795.560634
 20
407.157424
 30
0.0
 10
793.256066
 20
407.157424
 30
0.0
 10
793.256066
 20
417.081520
 30
0.0
 10
795.560634
 20
417.081520
 30
0.0
 10
795.560634
 20
431.277424
 30
0.0
 10
793.256066
 20
431.277424
 30
0.0
 10
793.256066
 20
441.201520
 30
0.0
 10
795.560634
 20
441.201520
 30
0.0
 10
795.560634
 20
443.979472
 30
0.0
 10
835.160634
 20
443.979472
 30
0.0
 10
835.160634
 20
441.201520
 30
0.0
 10
837.465194
 20
441.201520
 30
0.0
 10
837.465194
 20
431.277424
 30
0.0
 10
835.160634
 20
431.277424
 30
0.0
 10
835.160634
 20
417.081520
 30
0.0
 10
837.465194
 20
417.081520
 30
0.0
 10
837.465194
 20
407.157424
 30
0.0
 10
835.160634
 20
407.157424
 30
0.0
 10
835.160634
 20
404.379472
 30
0.0
 10
795.560634
 20
404.379472
 30
0.0
  0
LWPOLYLINE
  5
1b6
100
AcDbEntity
  8
0
 62
1
100
AcDbPolyline
 90
21
 70
0
 10
741.702362
 20
404.379472
 30
0.0
 10
741.702362
 20
407.157424
 30
0.0
 10
739.397794
 20
407.157424
 30
0.0
 10
739.397794
 20
417.081520
 30
0.0
 10
741.702362
 20
417.081520
 30
0.0
 10
741.702362
 20
431.277424
 30
0.0
 10
739.397794
 20
431.277424
 30
0.0
 10
739.397794
 20
441.201520
 30
0.0
 10
741.702362
 20
441.201520
 30
0.0
 10
741.702362
 20
443.979472
 30
0.0
 10
781.302362
 20
443.979472
 30
0.0
 10
781.302362
 20
441.201520
 30
0.0
 10
783.606930
 20
441.201520
 30
0.0
 10
783.606930
 20
431.277424
 30
0.0
 10
781.302362
 20
431.277424
 30
0.0
 10
781.302362
 20
417.081520
 30
0.0
 10
783.606930
 20
417.081520
 30
0.0
 10
783.606930
 20
407.157424
 30
0.0
 10
781.302362
 20
407.157424
 30
0.0
 10
781.302362
 20
404.379472
 30
0.0
 10
741.702362
 20
404.379472
 30
0.0
  0
LWPOLYLINE
  5
1b7
100
AcDbEntity
  8
0
 62
1
100
AcDbPolyline
 90
21
 70
0
 10
687.844098
 20
404.379472
 30
0.0
 10
687.844098
 20
407.157424
 30
0.0
 10
685.539530
 20
407.157424
 30
0.0
 10
685.539530
 20
417.081520
 30
0.0
 10
687.844098
 20
417.081520
 30
0.0
 10
687.844098
 20
431.277424
 30
0.0
 10
685.539530
 20
431.277424
 30
0.0
 10
685.539530
 20
441.201520
 30
0.0
 10
687.844098
 20
441.201520
 30
0.0
 10
687.844098
 20
443.979472
 30
0.0
 10
727.444098
 20
443.979472
 30
0.0
 10
727.444098
 20
441.201520
 30
0.0
 10
729.748666
 20
441.201520
 30
0.0
 10
729.748666
 20
431.277424
 30
0.0
 10
727.444098
 20
431.277424
 30
0.0
 10
727.444098
 20
417.081520
 30
0.0
 10
729.748666
 20
417.081520
 30
0.0
 10
729.748666
 20
407.157424
 30
0.0
 10
727.444098
 20
407.157424
 30
0.0
 10
727.444098
 20
404.379472
 30
0.0
 10
687.844098
 20
404.379472
 30
0.0
  0
LWPOLYLINE
  5
1b8
100
AcDbEntity
  8
0
 62
1
100
AcDbPolyline
 90
13
 70
0
 10
1228.050994
 20
383.987032
 30
0.0
 10
1227.520914
 20
384.055032
 30
0.0
 10
1227.002194
 20
384.185456
 30
0.0
 10
1226.506114
 20
384.383888
 30
0.0
 10
1226.038434
 20
384.641840
 30
0.0
 10
1225.607554
 20
384.953648
 30
0.0
 10
1225.219234
 20
385.319320
 30
0.0
 10
1224.876194
 20
385.730344
 30
0.0
 10
1224.592754
 20
386.181048
 30
0.0
 10
1224.363154
 20
386.665776
 30
0.0
 10
1224.198754
 20
387.173176
 30
0.0
 10
1224.099554
 20
387.697584
 30
0.0
 10
1224.065154
 20
388.230496
 30
0.0
  0
LWPOLYLINE
  5
1b9
100
AcDbEntity
  8
0
 62
1
100
AcDbPolyline
 90
2
 70
0
 10
1224.065474
 20
388.230496
 30
0.0
 10
1224.099874
 20
388.763408
 30
0.0
  0
LWPOLYLINE
  5
1ba
100
AcDbEntity
  8
0
 62
1
100
AcDbPolyline
 90
25
 70
0
 10
1224.099554
 20
388.763408
 30
0.0
 10
1224.198754
 20
389.287824
 30
0.0
 10
1224.363154
 20
389.795224
 30
0.0
 10
1224.592754
 20
390.279944
 30
0.0
 10
1224.876194
 20
390.730656
 30
0.0
 10
1225.219234
 20
391.141680
 30
0.0
 10
1225.607554
 20
391.507352
 30
0.0
 10
1226.038434
 20
391.821992
 30
0.0
 10
1226.506114
 20
392.077112
 30
0.0
 10
1227.002194
 20
392.275536
 30
0.0
 10
1227.520914
 20
392.405928
 30
0.0
 10
1228.050994
 20
392.473928
 30
0.0
 10
1228.583954
 20
392.473960
 30
0.0
 10
1229.114034
 20
392.405960
 30
0.0
 10
1229.629954
 20
392.275536
 30
0.0
 10
1230.128834
 20
392.077112
 30
0.0
 10
1230.596514
 20
391.821992
 30
0.0
 10
1231.027394
 20
391.507352
 30
0.0
 10
1231.415714
 20
391.141680
 30
0.0
 10
1231.755874
 20
390.730656
 30
0.0
 10
1232.042194
 20
390.279944
 30
0.0
 10
1232.271794
 20
389.795224
 30
0.0
 10
1232.436194
 20
389.287824
 30
0.0
 10
1232.535474
 20
388.763408
 30
0.0
 10
1232.569874
 20
388.230496
 30
0.0
  0
LWPOLYLINE
  5
1bb
100
AcDbEntity
  8
0
 62
1
100
AcDbPolyline
 90
2
 70
0
 10
1232.569474
 20
388.230496
 30
0.0
 10
1232.535074
 20
387.697584
 30
0.0
  0
LWPOLYLINE
  5
1bc
100
AcDbEntity
  8
0
 62
1
100
AcDbPolyline
 90
13
 70
0
 10
1232.535474
 20
387.697584
 30
0.0
 10
1232.436194
 20
387.173176
 30
0.0
 10
1232.271794
 20
386.665776
 30
0.0
 10
1232.042194
 20
386.181048
 30
0.0
 10
1231.755874
 20
385.730344
 30
0.0
 10
1231.415714
 20
385.319320
 30
0.0
 10
1231.027394
 20
384.953648
 30
0.0
 10
1230.596514
 20
384.641840
 30
0.0
 10
1230.128834
 20
384.383888
 30
0.0
 10
1229.629954
 20
384.185456
 30
0.0
 10
1229.114034
 20
384.055064
 30
0.0
 10
1228.583954
 20
383.987064
 30
0.0
 10
1228.050994
 20
383.987032
 30
0.0
  0
LWPOLYLINE
  5
1bd
100
AcDbEntity
  8
0
 62
1
100
AcDbPolyline
 90
51
 70
0
 10
671.428658
 20
383.987032
 30
0.0
 10
670.898586
 20
384.055032
 30
0.0
 10
670.382682
 20
384.185456
 30
0.0
 10
669.883778
 20
384.383888
 30
0.0
 10
669.416066
 20
384.641840
 30
0.0
 10
668.985194
 20
384.953648
 30
0.0
 10
668.596850
 20
385.319320
 30
0.0
 10
668.256690
 20
385.730344
 30
0.0
 10
667.970394
 20
386.181048
 30
0.0
 10
667.740786
 20
386.665776
 30
0.0
 10
667.576378
 20
387.173176
 30
0.0
 10
667.477170
 20
387.697584
 30
0.0
 10
667.443170
 20
388.230496
 30
0.0
 10
667.477154
 20
388.763408
 30
0.0
 10
667.576378
 20
389.287824
 30
0.0
 10
667.740786
 20
389.795224
 30
0.0
 10
667.970394
 20
390.279944
 30
0.0
 10
668.256690
 20
390.730656
 30
0.0
 10
668.596850
 20
391.141680
 30
0.0
 10
668.985194
 20
391.507352
 30
0.0
 10
669.416066
 20
391.821992
 30
0.0
 10
669.883778
 20
392.077112
 30
0.0
 10
670.382682
 20
392.275536
 30
0.0
 10
670.898586
 20
392.405928
 30
0.0
 10
671.428658
 20
392.473928
 30
0.0
 10
671.961578
 20
392.473960
 30
0.0
 10
672.491650
 20
392.405960
 30
0.0
 10
673.010394
 20
392.275536
 30
0.0
 10
673.506458
 20
392.077112
 30
0.0
 10
673.974178
 20
391.821992
 30
0.0
 10
674.405042
 20
391.507352
 30
0.0
 10
674.793386
 20
391.141680
 30
0.0
 10
675.136378
 20
390.730656
 30
0.0
 10
675.419842
 20
390.279944
 30
0.0
 10
675.649450
 20
389.795224
 30
0.0
 10
675.813858
 20
389.287824
 30
0.0
 10
675.913074
 20
388.763408
 30
0.0
 10
675.947074
 20
388.230496
 30
0.0
 10
675.913090
 20
387.697584
 30
0.0
 10
675.813858
 20
387.173176
 30
0.0
 10
675.649450
 20
386.665776
 30
0.0
 10
675.419842
 20
386.181048
 30
0.0
 10
675.136378
 20
385.730344
 30
0.0
 10
674.793386
 20
385.319320
 30
0.0
 10
674.405042
 20
384.953648
 30
0.0
 10
673.974178
 20
384.641840
 30
0.0
 10
673.506458
 20
384.383888
 30
0.0
 10
673.010394
 20
384.185456
 30
0.0
 10
672.491650
 20
384.055064
 30
0.0
 10
671.961578
 20
383.987064
 30
0.0
 10
671.428658
 20
383.987032
 30
0.0
  0
LWPOLYLINE
  5
1be
100
AcDbEntity
  8
0
 62
1
100
AcDbPolyline
 90
13
 70
0
 10
949.739874
 20
383.987032
 30
0.0
 10
949.209794
 20
384.055032
 30
0.0
 10
948.690994
 20
384.185456
 30
0.0
 10
948.194994
 20
384.383888
 30
0.0
 10
947.727234
 20
384.641840
 30
0.0
 10
947.296354
 20
384.953648
 30
0.0
 10
946.908034
 20
385.319320
 30
0.0
 10
946.565074
 20
385.730344
 30
0.0
 10
946.281554
 20
386.181048
 30
0.0
 10
946.051954
 20
386.665776
 30
0.0
 10
945.887554
 20
387.173176
 30
0.0
 10
945.788354
 20
387.697584
 30
0.0
 10
945.753954
 20
388.230496
 30
0.0
  0
LWPOLYLINE
  5
1bf
100
AcDbEntity
  8
0
 62
1
100
AcDbPolyline
 90
2
 70
0
 10
945.754354
 20
388.230496
 30
0.0
 10
945.788754
 20
388.763408
 30
0.0
  0
LWPOLYLINE
  5
1c0
100
AcDbEntity
  8
0
 62
1
100
AcDbPolyline
 90
25
 70
0
 10
945.788354
 20
388.763408
 30
0.0
 10
945.887554
 20
389.287824
 30
0.0
 10
946.051954
 20
389.795224
 30
0.0
 10
946.281554
 20
390.279944
 30
0.0
 10
946.565074
 20
390.730656
 30
0.0
 10
946.908034
 20
391.141680
 30
0.0
 10
947.296354
 20
391.507352
 30
0.0
 10
947.727234
 20
391.821992
 30
0.0
 10
948.194994
 20
392.077112
 30
0.0
 10
948.690994
 20
392.275536
 30
0.0
 10
949.209794
 20
392.405928
 30
0.0
 10
949.739874
 20
392.473928
 30
0.0
 10
950.272754
 20
392.473960
 30
0.0
 10
950.802834
 20
392.405960
 30
0.0
 10
951.321554
 20
392.275536
 30
0.0
 10
951.817634
 20
392.077112
 30
0.0
 10
952.285394
 20
391.821992
 30
0.0
 10
952.716194
 20
391.507352
 30
0.0
 10
953.104594
 20
391.141680
 30
0.0
 10
953.447554
 20
390.730656
 30
0.0
 10
953.730994
 20
390.279944
 30
0.0
 10
953.960594
 20
389.795224
 30
0.0
 10
954.125074
 20
389.287824
 30
0.0
 10
954.224274
 20
388.763408
 30
0.0
 10
954.258674
 20
388.230496
 30
0.0
  0
LWPOLYLINE
  5
1c1
100
AcDbEntity
  8
0
 62
1
100
AcDbPolyline
 90
2
 70
0
 10
954.258274
 20
388.230496
 30
0.0
 10
954.223874
 20
387.697584
 30
0.0
  0
LWPOLYLINE
  5
1c2
100
AcDbEntity
  8
0
 62
1
100
AcDbPolyline
 90
13
 70
0
 10
954.224274
 20
387.697584
 30
0.0
 10
954.125074
 20
387.173176
 30
0.0
 10
953.960594
 20
386.665776
 30
0.0
 10
953.730994
 20
386.181048
 30
0.0
 10
953.447554
 20
385.730344
 30
0.0
 10
953.104594
 20
385.319320
 30
0.0
 10
952.716194
 20
384.953648
 30
0.0
 10
952.285394
 20
384.641840
 30
0.0
 10
951.817634
 20
384.383888
 30
0.0
 10
951.321554
 20
384.185456
 30
0.0
 10
950.802834
 20
384.055064
 30
0.0
 10
950.272754
 20
383.987064
 30
0.0
 10
949.739874
 20
383.987032
 30
0.0
  0
LWPOLYLINE
  5
1c3
100
AcDbEntity
  8
0
 62
3
100
AcDbPolyline
 90
61
 70
0
 10
607.085042
 20
375.701360
 30
0.0
 10
608.638426
 20
376.098216
 30
0.0
 10
610.126618
 20
376.687824
 30
0.0
 10
611.529762
 20
377.461680
 30
0.0
 10
612.825194
 20
378.402784
 30
0.0
 10
613.993074
 20
379.499792
 30
0.0
 10
615.016378
 20
380.732864
 30
0.0
 10
615.872442
 20
382.084984
 30
0.0
 10
616.555594
 20
383.533488
 30
0.0
 10
617.051658
 20
385.058528
 30
0.0
 10
617.349290
 20
386.631760
 30
0.0
 10
617.451338
 20
388.230496
 30
0.0
 10
617.451338
 20
672.726880
 30
0.0
 10
617.349290
 20
674.325616
 30
0.0
 10
617.051658
 20
675.898848
 30
0.0
 10
616.555594
 20
677.423888
 30
0.0
 10
615.872442
 20
678.872392
 30
0.0
 10
615.016378
 20
680.224512
 30
0.0
 10
613.993074
 20
681.457584
 30
0.0
 10
612.825194
 20
682.554592
 30
0.0
 10
611.529762
 20
683.495696
 30
0.0
 10
610.126618
 20
684.269552
 30
0.0
 10
608.638426
 20
684.859160
 30
0.0
 10
607.085042
 20
685.256008
 30
0.0
 10
605.497642
 20
685.457272
 30
0.0
 10
128.525985
 20
685.457272
 30
0.0
 10
128.525985
 20
663.707032
 30
0.0
 10
595.675594
 20
663.707032
 30
0.0
 10
595.675594
 20
397.250344
 30
0.0
 10
57.092914
 20
397.250344
 30
0.0
 10
57.092914
 20
663.707032
 30
0.0
 10
69.848819
 20
663.707032
 30
0.0
 10
69.848819
 20
685.457272
 30
0.0
 10
47.272227
 20
685.457272
 30
0.0
 10
45.682926
 20
685.256008
 30
0.0
 10
44.131326
 20
684.859160
 30
0.0
 10
42.641946
 20
684.269552
 30
0.0
 10
41.238174
 20
683.495696
 30
0.0
 10
39.942230
 20
682.554592
 30
0.0
 10
38.774498
 20
681.457584
 30
0.0
 10
37.753374
 20
680.224512
 30
0.0
 10
36.895071
 20
678.872392
 30
0.0
 10
36.212998
 20
677.423888
 30
0.0
 10
35.717985
 20
675.898848
 30
0.0
 10
35.417852
 20
674.325616
 30
0.0
 10
35.317222
 20
672.726880
 30
0.0
 10
35.317222
 20
388.230496
 30
0.0
 10
35.417852
 20
386.631760
 30
0.0
 10
35.717985
 20
385.058528
 30
0.0
 10
36.212998
 20
383.533488
 30
0.0
 10
36.895071
 20
382.084984
 30
0.0
 10
37.753374
 20
380.732864
 30
0.0
 10
38.774498
 20
379.499792
 30
0.0
 10
39.942230
 20
378.402784
 30
0.0
 10
41.238174
 20
377.461680
 30
0.0
 10
42.641946
 20
376.687824
 30
0.0
 10
44.131326
 20
376.098216
 30
0.0
 10
45.682926
 20
375.701360
 30
0.0
 10
47.272227
 20
375.500104
 30
0.0
 10
605.497642
 20
375.500104
 30
0.0
 10
607.085042
 20
375.701360
 30
0.0
  0
LWPOLYLINE
  5
1c4
100
AcDbEntity
  8
0
 62
3
100
AcDbPolyline
 90
51
 70
0
 10
604.428978
 20
668.483408
 30
0.0
 10
603.898898
 20
668.551408
 30
0.0
 10
603.380154
 20
668.681840
 30
0.0
 10
602.884098
 20
668.880264
 30
0.0
 10
602.416378
 20
669.135384
 30
0.0
 10
601.985514
 20
669.450024
 30
0.0
 10
601.597162
 20
669.815696
 30
0.0
 10
601.254178
 20
670.226720
 30
0.0
 10
600.970706
 20
670.677424
 30
0.0
 10
600.741106
 20
671.162152
 30
0.0
 10
600.576690
 20
671.669552
 30
0.0
 10
600.477482
 20
672.193960
 30
0.0
 10
600.443482
 20
672.726880
 30
0.0
 10
600.477466
 20
673.259792
 30
0.0
 10
600.576690
 20
673.784200
 30
0.0
 10
600.741106
 20
674.291600
 30
0.0
 10
600.970706
 20
674.776328
 30
0.0
 10
601.254178
 20
675.227032
 30
0.0
 10
601.597162
 20
675.638056
 30
0.0
 10
601.985514
 20
676.003728
 30
0.0
 10
602.416378
 20
676.315536
 30
0.0
 10
602.884098
 20
676.573488
 30
0.0
 10
603.380154
 20
676.771912
 30
0.0
 10
603.898898
 20
676.902312
 30
0.0
 10
604.428978
 20
676.970312
 30
0.0
 10
604.961890
 20
676.970344
 30
0.0
 10
605.491970
 20
676.902344
 30
0.0
 10
606.007874
 20
676.771912
 30
0.0
 10
606.506770
 20
676.573488
 30
0.0
 10
606.974490
 20
676.315536
 30
0.0
 10
607.405354
 20
676.003728
 30
0.0
 10
607.793698
 20
675.638056
 30
0.0
 10
608.133858
 20
675.227032
 30
0.0
 10
608.420154
 20
674.776328
 30
0.0
 10
608.649762
 20
674.291600
 30
0.0
 10
608.814170
 20
673.784200
 30
0.0
 10
608.913386
 20
673.259792
 30
0.0
 10
608.947386
 20
672.726880
 30
0.0
 10
608.913402
 20
672.193960
 30
0.0
 10
608.814170
 20
671.669552
 30
0.0
 10
608.649762
 20
671.162152
 30
0.0
 10
608.420154
 20
670.677424
 30
0.0
 10
608.133858
 20
670.226720
 30
0.0
 10
607.793698
 20
669.815696
 30
0.0
 10
607.405354
 20
669.450024
 30
0.0
 10
606.974490
 20
669.135384
 30
0.0
 10
606.506770
 20
668.880264
 30
0.0
 10
606.007874
 20
668.681840
 30
0.0
 10
605.491970
 20
668.551440
 30
0.0
 10
604.961890
 20
668.483440
 30
0.0
 10
604.428978
 20
668.483408
 30
0.0
  0
LWPOLYLINE
  5
1c5
100
AcDbEntity
  8
0
 62
3
100
AcDbPolyline
 90
51
 70
0
 10
47.806189
 20
668.483408
 30
0.0
 10
47.276422
 20
668.551408
 30
0.0
 10
46.759241
 20
668.681840
 30
0.0
 10
46.262725
 20
668.880264
 30
0.0
 10
45.794810
 20
669.135384
 30
0.0
 10
45.362838
 20
669.450024
 30
0.0
 10
44.973613
 20
669.815696
 30
0.0
 10
44.633257
 20
670.226720
 30
0.0
 10
44.347128
 20
670.677424
 30
0.0
 10
44.119761
 20
671.162152
 30
0.0
 10
43.954785
 20
671.669552
 30
0.0
 10
43.854693
 20
672.193960
 30
0.0
 10
43.821157
 20
672.726880
 30
0.0
 10
43.854695
 20
673.259792
 30
0.0
 10
43.954785
 20
673.784200
 30
0.0
 10
44.119761
 20
674.291600
 30
0.0
 10
44.347128
 20
674.776328
 30
0.0
 10
44.633257
 20
675.227032
 30
0.0
 10
44.973613
 20
675.638056
 30
0.0
 10
45.362838
 20
676.003728
 30
0.0
 10
45.794810
 20
676.315536
 30
0.0
 10
46.262725
 20
676.573488
 30
0.0
 10
46.759241
 20
676.771912
 30
0.0
 10
47.276422
 20
676.902312
 30
0.0
 10
47.806189
 20
676.970312
 30
0.0
 10
48.340151
 20
676.970344
 30
0.0
 10
48.869918
 20
676.902344
 30
0.0
 10
49.387099
 20
676.771912
 30
0.0
 10
49.883559
 20
676.573488
 30
0.0
 10
50.351474
 20
676.315536
 30
0.0
 10
50.783474
 20
676.003728
 30
0.0
 10
51.172699
 20
675.638056
 30
0.0
 10
51.513084
 20
675.227032
 30
0.0
 10
51.799185
 20
674.776328
 30
0.0
 10
52.026523
 20
674.291600
 30
0.0
 10
52.191528
 20
673.784200
 30
0.0
 10
52.291590
 20
673.259792
 30
0.0
 10
52.325096
 20
672.726880
 30
0.0
 10
52.291590
 20
672.193960
 30
0.0
 10
52.191528
 20
671.669552
 30
0.0
 10
52.026523
 20
671.162152
 30
0.0
 10
51.799185
 20
670.677424
 30
0.0
 10
51.513084
 20
670.226720
 30
0.0
 10
51.172699
 20
669.815696
 30
0.0
 10
50.783474
 20
669.450024
 30
0.0
 10
50.351474
 20
669.135384
 30
0.0
 10
49.883559
 20
668.880264
 30
0.0
 10
49.387099
 20
668.681840
 30
0.0
 10
48.869918
 20
668.551440
 30
0.0
 10
48.340151
 20
668.483440
 30
0.0
 10
47.806189
 20
668.483408
 30
0.0
  0
LWPOLYLINE
  5
1c6
100
AcDbEntity
  8
0
 62
3
100
AcDbPolyline
 90
51
 70
0
 10
150.034706
 20
668.483408
 30
0.0
 10
149.504914
 20
668.551408
 30
0.0
 10
148.987594
 20
668.681840
 30
0.0
 10
148.491242
 20
668.880264
 30
0.0
 10
148.023242
 20
669.135384
 30
0.0
 10
147.591242
 20
669.450024
 30
0.0
 10
147.202050
 20
669.815696
 30
0.0
 10
146.861610
 20
670.226720
 30
0.0
 10
146.575594
 20
670.677424
 30
0.0
 10
146.348250
 20
671.162152
 30
0.0
 10
146.183274
 20
671.669552
 30
0.0
 10
146.083210
 20
672.193960
 30
0.0
 10
146.049770
 20
672.726880
 30
0.0
 10
146.083202
 20
673.259792
 30
0.0
 10
146.183274
 20
673.784200
 30
0.0
 10
146.348250
 20
674.291600
 30
0.0
 10
146.575594
 20
674.776328
 30
0.0
 10
146.861610
 20
675.227032
 30
0.0
 10
147.202050
 20
675.638056
 30
0.0
 10
147.591242
 20
676.003728
 30
0.0
 10
148.023242
 20
676.315536
 30
0.0
 10
148.491242
 20
676.573488
 30
0.0
 10
148.987594
 20
676.771912
 30
0.0
 10
149.504914
 20
676.902312
 30
0.0
 10
150.034706
 20
676.970312
 30
0.0
 10
150.568754
 20
676.970344
 30
0.0
 10
151.098266
 20
676.902344
 30
0.0
 10
151.615594
 20
676.771912
 30
0.0
 10
152.111938
 20
676.573488
 30
0.0
 10
152.579938
 20
676.315536
 30
0.0
 10
153.011938
 20
676.003728
 30
0.0
 10
153.401138
 20
675.638056
 30
0.0
 10
153.741578
 20
675.227032
 30
0.0
 10
154.027594
 20
674.776328
 30
0.0
 10
154.254930
 20
674.291600
 30
0.0
 10
154.420186
 20
673.784200
 30
0.0
 10
154.519970
 20
673.259792
 30
0.0
 10
154.553730
 20
672.726880
 30
0.0
 10
154.519938
 20
672.193960
 30
0.0
 10
154.420186
 20
671.669552
 30
0.0
 10
154.254930
 20
671.162152
 30
0.0
 10
154.027594
 20
670.677424
 30
0.0
 10
153.741578
 20
670.226720
 30
0.0
 10
153.401138
 20
669.815696
 30
0.0
 10
153.011938
 20
669.450024
 30
0.0
 10
152.579938
 20
669.135384
 30
0.0
 10
152.111938
 20
668.880264
 30
0.0
 10
151.615594
 20
668.681840
 30
0.0
 10
151.098266
 20
668.551440
 30
0.0
 10
150.568754
 20
668.483440
 30
0.0
 10
150.034706
 20
668.483408
 30
0.0
  0
LWPOLYLINE
  5
1c7
100
AcDbEntity
  8
0
 62
3
100
AcDbPolyline
 90
51
 70
0
 10
604.428978
 20
383.987032
 30
0.0
 10
603.898898
 20
384.055032
 30
0.0
 10
603.380154
 20
384.185456
 30
0.0
 10
602.884098
 20
384.383888
 30
0.0
 10
602.416378
 20
384.641840
 30
0.0
 10
601.985514
 20
384.953648
 30
0.0
 10
601.597162
 20
385.319320
 30
0.0
 10
601.254178
 20
385.730344
 30
0.0
 10
600.970706
 20
386.181048
 30
0.0
 10
600.741106
 20
386.665776
 30
0.0
 10
600.576690
 20
387.173176
 30
0.0
 10
600.477482
 20
387.697584
 30
0.0
 10
600.443482
 20
388.230496
 30
0.0
 10
600.477466
 20
388.763408
 30
0.0
 10
600.576690
 20
389.287824
 30
0.0
 10
600.741106
 20
389.795224
 30
0.0
 10
600.970706
 20
390.279944
 30
0.0
 10
601.254178
 20
390.730656
 30
0.0
 10
601.597162
 20
391.141680
 30
0.0
 10
601.985514
 20
391.507352
 30
0.0
 10
602.416378
 20
391.821992
 30
0.0
 10
602.884098
 20
392.077112
 30
0.0
 10
603.380154
 20
392.275536
 30
0.0
 10
603.898898
 20
392.405928
 30
0.0
 10
604.428978
 20
392.473928
 30
0.0
 10
604.961890
 20
392.473960
 30
0.0
 10
605.491970
 20
392.405960
 30
0.0
 10
606.007874
 20
392.275536
 30
0.0
 10
606.506770
 20
392.077112
 30
0.0
 10
606.974490
 20
391.821992
 30
0.0
 10
607.405354
 20
391.507352
 30
0.0
 10
607.793698
 20
391.141680
 30
0.0
 10
608.133858
 20
390.730656
 30
0.0
 10
608.420154
 20
390.279944
 30
0.0
 10
608.649762
 20
389.795224
 30
0.0
 10
608.814170
 20
389.287824
 30
0.0
 10
608.913386
 20
388.763408
 30
0.0
 10
608.947386
 20
388.230496
 30
0.0
 10
608.913402
 20
387.697584
 30
0.0
 10
608.814170
 20
387.173176
 30
0.0
 10
608.649762
 20
386.665776
 30
0.0
 10
608.420154
 20
386.181048
 30
0.0
 10
608.133858
 20
385.730344
 30
0.0
 10
607.793698
 20
385.319320
 30
0.0
 10
607.405354
 20
384.953648
 30
0.0
 10
606.974490
 20
384.641840
 30
0.0
 10
606.506770
 20
384.383888
 30
0.0
 10
606.007874
 20
384.185456
 30
0.0
 10
605.491970
 20
384.055064
 30
0.0
 10
604.961890
 20
383.987064
 30
0.0
 10
604.428978
 20
383.987032
 30
0.0
  0
LWPOLYLINE
  5
1c8
100
AcDbEntity
  8
0
 62
3
100
AcDbPolyline
 90
51
 70
0
 10
47.806189
 20
383.987032
 30
0.0
 10
47.276422
 20
384.055032
 30
0.0
 10
46.759241
 20
384.185456
 30
0.0
 10
46.262725
 20
384.383888
 30
0.0
 10
45.794810
 20
384.641840
 30
0.0
 10
45.362838
 20
384.953648
 30
0.0
 10
44.973613
 20
385.319320
 30
0.0
 10
44.633257
 20
385.730344
 30
0.0
 10
44.347128
 20
386.181048
 30
0.0
 10
44.119761
 20
386.665776
 30
0.0
 10
43.954785
 20
387.173176
 30
0.0
 10
43.854693
 20
387.697584
 30
0.0
 10
43.821157
 20
388.230496
 30
0.0
 10
43.854695
 20
388.763408
 30
0.0
 10
43.954785
 20
389.287824
 30
0.0
 10
44.119761
 20
389.795224
 30
0.0
 10
44.347128
 20
390.279944
 30
0.0
 10
44.633257
 20
390.730656
 30
0.0
 10
44.973613
 20
391.141680
 30
0.0
 10
45.362838
 20
391.507352
 30
0.0
 10
45.794810
 20
391.821992
 30
0.0
 10
46.262725
 20
392.077112
 30
0.0
 10
46.759241
 20
392.275536
 30
0.0
 10
47.276422
 20
392.405928
 30
0.0
 10
47.806189
 20
392.473928
 30
0.0
 10
48.340151
 20
392.473960
 30
0.0
 10
48.869918
 20
392.405960
 30
0.0
 10
49.387099
 20
392.275536
 30
0.0
 10
49.883559
 20
392.077112
 30
0.0
 10
50.351474
 20
391.821992
 30
0.0
 10
50.783474
 20
391.507352
 30
0.0
 10
51.172699
 20
391.141680
 30
0.0
 10
51.513084
 20
390.730656
 30
0.0
 10
51.799185
 20
390.279944
 30
0.0
 10
52.026523
 20
389.795224
 30
0.0
 10
52.191528
 20
389.287824
 30
0.0
 10
52.291590
 20
388.763408
 30
0.0
 10
52.325096
 20
388.230496
 30
0.0
 10
52.291590
 20
387.697584
 30
0.0
 10
52.191528
 20
387.173176
 30
0.0
 10
52.026523
 20
386.665776
 30
0.0
 10
51.799185
 20
386.181048
 30
0.0
 10
51.513084
 20
385.730344
 30
0.0
 10
51.172699
 20
385.319320
 30
0.0
 10
50.783474
 20
384.953648
 30
0.0
 10
50.351474
 20
384.641840
 30
0.0
 10
49.883559
 20
384.383888
 30
0.0
 10
49.387099
 20
384.185456
 30
0.0
 10
48.869918
 20
384.055064
 30
0.0
 10
48.340151
 20
383.987064
 30
0.0
 10
47.806189
 20
383.987032
 30
0.0
  0
LWPOLYLINE
  5
1c9
100
AcDbEntity
  8
0
 62
3
100
AcDbPolyline
 90
51
 70
0
 10
326.117226
 20
383.987032
 30
0.0
 10
325.587434
 20
384.055032
 30
0.0
 10
325.070394
 20
384.185456
 30
0.0
 10
324.573762
 20
384.383888
 30
0.0
 10
324.106050
 20
384.641840
 30
0.0
 10
323.674050
 20
384.953648
 30
0.0
 10
323.284570
 20
385.319320
 30
0.0
 10
322.944410
 20
385.730344
 30
0.0
 10
322.658114
 20
386.181048
 30
0.0
 10
322.430770
 20
386.665776
 30
0.0
 10
322.265794
 20
387.173176
 30
0.0
 10
322.165730
 20
387.697584
 30
0.0
 10
322.132290
 20
388.230496
 30
0.0
 10
322.165722
 20
388.763408
 30
0.0
 10
322.265794
 20
389.287824
 30
0.0
 10
322.430770
 20
389.795224
 30
0.0
 10
322.658114
 20
390.279944
 30
0.0
 10
322.944410
 20
390.730656
 30
0.0
 10
323.284570
 20
391.141680
 30
0.0
 10
323.674050
 20
391.507352
 30
0.0
 10
324.106050
 20
391.821992
 30
0.0
 10
324.573762
 20
392.077112
 30
0.0
 10
325.070394
 20
392.275536
 30
0.0
 10
325.587434
 20
392.405928
 30
0.0
 10
326.117226
 20
392.473928
 30
0.0
 10
326.651274
 20
392.473960
 30
0.0
 10
327.181074
 20
392.405960
 30
0.0
 10
327.698114
 20
392.275536
 30
0.0
 10
328.194738
 20
392.077112
 30
0.0
 10
328.662458
 20
391.821992
 30
0.0
 10
329.094458
 20
391.507352
 30
0.0
 10
329.483650
 20
391.141680
 30
0.0
 10
329.824098
 20
390.730656
 30
0.0
 10
330.110394
 20
390.279944
 30
0.0
 10
330.337730
 20
389.795224
 30
0.0
 10
330.502706
 20
389.287824
 30
0.0
 10
330.602770
 20
388.763408
 30
0.0
 10
330.636210
 20
388.230496
 30
0.0
 10
330.602778
 20
387.697584
 30
0.0
 10
330.502706
 20
387.173176
 30
0.0
 10
330.337730
 20
386.665776
 30
0.0
 10
330.110394
 20
386.181048
 30
0.0
 10
329.824098
 20
385.730344
 30
0.0
 10
329.483650
 20
385.319320
 30
0.0
 10
329.094458
 20
384.953648
 30
0.0
 10
328.662458
 20
384.641840
 30
0.0
 10
328.194738
 20
384.383888
 30
0.0
 10
327.698114
 20
384.185456
 30
0.0
 10
327.181074
 20
384.055064
 30
0.0
 10
326.651274
 20
383.987064
 30
0.0
 10
326.117226
 20
383.987032
 30
0.0
  0
LWPOLYLINE
  5
1ca
100
AcDbEntity
  8
0
 62
3
100
AcDbPolyline
 90
61
 70
0
 10
1230.707074
 20
35.543184
 30
0.0
 10
1232.260434
 20
35.941504
 30
0.0
 10
1233.748674
 20
36.531184
 30
0.0
 10
1235.151794
 20
37.302944
 30
0.0
 10
1236.447234
 20
38.244544
 30
0.0
 10
1237.615154
 20
39.341024
 30
0.0
 10
1238.638434
 20
40.575344
 30
0.0
 10
1239.494514
 20
41.927904
 30
0.0
 10
1240.177634
 20
43.377344
 30
0.0
 10
1240.673714
 20
44.900864
 30
0.0
 10
1240.971314
 20
46.474384
 30
0.0
 10
1241.073394
 20
48.073104
 30
0.0
 10
1241.073394
 20
332.569400
 30
0.0
 10
1240.971314
 20
334.168136
 30
0.0
 10
1240.673714
 20
335.741648
 30
0.0
 10
1240.177634
 20
337.264984
 30
0.0
 10
1239.494514
 20
338.714624
 30
0.0
 10
1238.638434
 20
340.067032
 30
0.0
 10
1237.615154
 20
341.300104
 30
0.0
 10
1236.447234
 20
342.397112
 30
0.0
 10
1235.151794
 20
343.338216
 30
0.0
 10
1233.748674
 20
344.112072
 30
0.0
 10
1232.260434
 20
344.701680
 30
0.0
 10
1230.707074
 20
345.098528
 30
0.0
 10
1229.119714
 20
345.299792
 30
0.0
 10
752.148034
 20
345.299792
 30
0.0
 10
752.148034
 20
323.549552
 30
0.0
 10
1219.297634
 20
323.549552
 30
0.0
 10
1219.297634
 20
272.525928
 30
0.0
 10
680.714962
 20
272.525928
 30
0.0
 10
680.714962
 20
323.549552
 30
0.0
 10
693.470866
 20
323.549552
 30
0.0
 10
693.470866
 20
345.299792
 30
0.0
 10
670.892914
 20
345.299792
 30
0.0
 10
669.305514
 20
345.098528
 30
0.0
 10
667.752130
 20
344.701680
 30
0.0
 10
666.263938
 20
344.112072
 30
0.0
 10
664.860786
 20
343.338216
 30
0.0
 10
663.565354
 20
342.397112
 30
0.0
 10
662.397482
 20
341.300104
 30
0.0
 10
661.374178
 20
340.067032
 30
0.0
 10
660.518114
 20
338.714624
 30
0.0
 10
659.834962
 20
337.264984
 30
0.0
 10
659.338898
 20
335.741648
 30
0.0
 10
659.041258
 20
334.168136
 30
0.0
 10
658.939210
 20
332.569400
 30
0.0
 10
658.939210
 20
48.073104
 30
0.0
 10
659.041258
 20
46.474384
 30
0.0
 10
659.338898
 20
44.900864
 30
0.0
 10
659.834962
 20
43.377344
 30
0.0
 10
660.518114
 20
41.927904
 30
0.0
 10
661.374178
 20
40.575344
 30
0.0
 10
662.397482
 20
39.341024
 30
0.0
 10
663.565354
 20
38.244544
 30
0.0
 10
664.860786
 20
37.302944
 30
0.0
 10
666.263938
 20
36.531184
 30
0.0
 10
667.752130
 20
35.941504
 30
0.0
 10
669.305514
 20
35.543184
 30
0.0
 10
670.892914
 20
35.342304
 30
0.0
 10
1229.119714
 20
35.342304
 30
0.0
 10
1230.707074
 20
35.543184
 30
0.0
  0
LWPOLYLINE
  5
1cb
100
AcDbEntity
  8
0
 62
3
100
AcDbPolyline
 90
13
 70
0
 10
1228.050994
 20
328.325648
 30
0.0
 10
1227.520914
 20
328.392528
 30
0.0
 10
1227.002194
 20
328.525488
 30
0.0
 10
1226.506114
 20
328.721928
 30
0.0
 10
1226.038434
 20
328.979320
 30
0.0
 10
1225.607554
 20
329.293112
 30
0.0
 10
1225.219234
 20
329.658784
 30
0.0
 10
1224.876194
 20
330.070088
 30
0.0
 10
1224.592754
 20
330.520800
 30
0.0
 10
1224.363154
 20
331.004104
 30
0.0
 10
1224.198754
 20
331.511792
 30
0.0
 10
1224.099554
 20
332.036480
 30
0.0
 10
1224.065154
 20
332.569400
 30
0.0
  0
LWPOLYLINE
  5
1cc
100
AcDbEntity
  8
0
 62
3
100
AcDbPolyline
 90
2
 70
0
 10
1224.065474
 20
332.569400
 30
0.0
 10
1224.099874
 20
333.102312
 30
0.0
  0
LWPOLYLINE
  5
1cd
100
AcDbEntity
  8
0
 62
3
100
AcDbPolyline
 90
25
 70
0
 10
1224.099554
 20
333.102312
 30
0.0
 10
1224.198754
 20
333.626720
 30
0.0
 10
1224.363154
 20
334.134688
 30
0.0
 10
1224.592754
 20
334.617712
 30
0.0
 10
1224.876194
 20
335.068416
 30
0.0
 10
1225.219234
 20
335.480008
 30
0.0
 10
1225.607554
 20
335.845400
 30
0.0
 10
1226.038434
 20
336.159472
 30
0.0
 10
1226.506114
 20
336.416576
 30
0.0
 10
1227.002194
 20
336.613304
 30
0.0
 10
1227.520914
 20
336.745960
 30
0.0
 10
1228.050994
 20
336.812840
 30
0.0
 10
1228.583954
 20
336.812856
 30
0.0
 10
1229.114034
 20
336.745976
 30
0.0
 10
1229.629954
 20
336.613304
 30
0.0
 10
1230.128834
 20
336.416576
 30
0.0
 10
1230.596514
 20
336.159472
 30
0.0
 10
1231.027394
 20
335.845400
 30
0.0
 10
1231.415714
 20
335.480008
 30
0.0
 10
1231.755874
 20
335.068416
 30
0.0
 10
1232.042194
 20
334.617712
 30
0.0
 10
1232.271794
 20
334.134688
 30
0.0
 10
1232.436194
 20
333.626720
 30
0.0
 10
1232.535474
 20
333.102312
 30
0.0
 10
1232.569874
 20
332.569400
 30
0.0
  0
LWPOLYLINE
  5
1ce
100
AcDbEntity
  8
0
 62
3
100
AcDbPolyline
 90
2
 70
0
 10
1232.569474
 20
332.569400
 30
0.0
 10
1232.535074
 20
332.036480
 30
0.0
  0
LWPOLYLINE
  5
1cf
100
AcDbEntity
  8
0
 62
3
100
AcDbPolyline
 90
13
 70
0
 10
1232.535474
 20
332.036480
 30
0.0
 10
1232.436194
 20
331.511792
 30
0.0
 10
1232.271794
 20
331.004104
 30
0.0
 10
1232.042194
 20
330.520800
 30
0.0
 10
1231.755874
 20
330.070088
 30
0.0
 10
1231.415714
 20
329.658784
 30
0.0
 10
1231.027394
 20
329.293112
 30
0.0
 10
1230.596514
 20
328.979320
 30
0.0
 10
1230.128834
 20
328.721928
 30
0.0
 10
1229.629954
 20
328.525488
 30
0.0
 10
1229.114034
 20
328.392544
 30
0.0
 10
1228.583954
 20
328.325664
 30
0.0
 10
1228.050994
 20
328.325648
 30
0.0
  0
LWPOLYLINE
  5
1d0
100
AcDbEntity
  8
0
 62
3
100
AcDbPolyline
 90
51
 70
0
 10
671.428658
 20
328.325648
 30
0.0
 10
670.898586
 20
328.392528
 30
0.0
 10
670.382682
 20
328.525488
 30
0.0
 10
669.883778
 20
328.721928
 30
0.0
 10
669.416066
 20
328.979320
 30
0.0
 10
668.985194
 20
329.293112
 30
0.0
 10
668.596850
 20
329.658784
 30
0.0
 10
668.256690
 20
330.070088
 30
0.0
 10
667.970394
 20
330.520800
 30
0.0
 10
667.740786
 20
331.004104
 30
0.0
 10
667.576378
 20
331.511792
 30
0.0
 10
667.477170
 20
332.036480
 30
0.0
 10
667.443170
 20
332.569400
 30
0.0
 10
667.477154
 20
333.102312
 30
0.0
 10
667.576378
 20
333.626720
 30
0.0
 10
667.740786
 20
334.134688
 30
0.0
 10
667.970394
 20
334.617712
 30
0.0
 10
668.256690
 20
335.068416
 30
0.0
 10
668.596850
 20
335.480008
 30
0.0
 10
668.985194
 20
335.845400
 30
0.0
 10
669.416066
 20
336.159472
 30
0.0
 10
669.883778
 20
336.416576
 30
0.0
 10
670.382682
 20
336.613304
 30
0.0
 10
670.898586
 20
336.745960
 30
0.0
 10
671.428658
 20
336.812840
 30
0.0
 10
671.961578
 20
336.812856
 30
0.0
 10
672.491650
 20
336.745976
 30
0.0
 10
673.010394
 20
336.613304
 30
0.0
 10
673.506458
 20
336.416576
 30
0.0
 10
673.974178
 20
336.159472
 30
0.0
 10
674.405042
 20
335.845400
 30
0.0
 10
674.793386
 20
335.480008
 30
0.0
 10
675.136378
 20
335.068416
 30
0.0
 10
675.419842
 20
334.617712
 30
0.0
 10
675.649450
 20
334.134688
 30
0.0
 10
675.813858
 20
333.626720
 30
0.0
 10
675.913074
 20
333.102312
 30
0.0
 10
675.947074
 20
332.569400
 30
0.0
 10
675.913090
 20
332.036480
 30
0.0
 10
675.813858
 20
331.511792
 30
0.0
 10
675.649450
 20
331.004104
 30
0.0
 10
675.419842
 20
330.520800
 30
0.0
 10
675.136378
 20
330.070088
 30
0.0
 10
674.793386
 20
329.658784
 30
0.0
 10
674.405042
 20
329.293112
 30
0.0
 10
673.974178
 20
328.979320
 30
0.0
 10
673.506458
 20
328.721928
 30
0.0
 10
673.010394
 20
328.525488
 30
0.0
 10
672.491650
 20
328.392544
 30
0.0
 10
671.961578
 20
328.325664
 30
0.0
 10
671.428658
 20
328.325648
 30
0.0
  0
LWPOLYLINE
  5
1d1
100
AcDbEntity
  8
0
 62
3
100
AcDbPolyline
 90
51
 70
0
 10
773.657322
 20
328.325648
 30
0.0
 10
773.127242
 20
328.392528
 30
0.0
 10
772.608506
 20
328.525488
 30
0.0
 10
772.112442
 20
328.721928
 30
0.0
 10
771.644722
 20
328.979320
 30
0.0
 10
771.213858
 20
329.293112
 30
0.0
 10
770.825514
 20
329.658784
 30
0.0
 10
770.482522
 20
330.070088
 30
0.0
 10
770.199058
 20
330.520800
 30
0.0
 10
769.969450
 20
331.004104
 30
0.0
 10
769.805042
 20
331.511792
 30
0.0
 10
769.705826
 20
332.036480
 30
0.0
 10
769.671826
 20
332.569400
 30
0.0
 10
769.705810
 20
333.102312
 30
0.0
 10
769.805042
 20
333.626720
 30
0.0
 10
769.969450
 20
334.134688
 30
0.0
 10
770.199058
 20
334.617712
 30
0.0
 10
770.482522
 20
335.068416
 30
0.0
 10
770.825514
 20
335.480008
 30
0.0
 10
771.213858
 20
335.845400
 30
0.0
 10
771.644722
 20
336.159472
 30
0.0
 10
772.112442
 20
336.416576
 30
0.0
 10
772.608506
 20
336.613304
 30
0.0
 10
773.127242
 20
336.745960
 30
0.0
 10
773.657322
 20
336.812840
 30
0.0
 10
774.190234
 20
336.812856
 30
0.0
 10
774.720314
 20
336.745976
 30
0.0
 10
775.239058
 20
336.613304
 30
0.0
 10
775.735122
 20
336.416576
 30
0.0
 10
776.202834
 20
336.159472
 30
0.0
 10
776.633698
 20
335.845400
 30
0.0
 10
777.022050
 20
335.480008
 30
0.0
 10
777.365042
 20
335.068416
 30
0.0
 10
777.648506
 20
334.617712
 30
0.0
 10
777.878114
 20
334.134688
 30
0.0
 10
778.042522
 20
333.626720
 30
0.0
 10
778.141730
 20
333.102312
 30
0.0
 10
778.175730
 20
332.569400
 30
0.0
 10
778.141746
 20
332.036480
 30
0.0
 10
778.042522
 20
331.511792
 30
0.0
 10
777.878114
 20
331.004104
 30
0.0
 10
777.648506
 20
330.520800
 30
0.0
 10
777.365042
 20
330.070088
 30
0.0
 10
777.022050
 20
329.658784
 30
0.0
 10
776.633698
 20
329.293112
 30
0.0
 10
776.202834
 20
328.979320
 30
0.0
 10
775.735122
 20
328.721928
 30
0.0
 10
775.239058
 20
328.525488
 30
0.0
 10
774.720314
 20
328.392544
 30
0.0
 10
774.190234
 20
328.325664
 30
0.0
 10
773.657322
 20
328.325648
 30
0.0
  0
LWPOLYLINE
  5
1d2
100
AcDbEntity
  8
0
 62
3
100
AcDbPolyline
 90
5
 70
0
 10
1172.525954
 20
225.754280
 30
0.0
 10
1172.525954
 20
265.439320
 30
0.0
 10
1212.210994
 20
265.439320
 30
0.0
 10
1212.210994
 20
225.754280
 30
0.0
 10
1172.525954
 20
225.754280
 30
0.0
  0
LWPOLYLINE
  5
1d3
100
AcDbEntity
  8
0
 62
3
100
AcDbPolyline
 90
5
 70
0
 10
1118.667714
 20
225.754280
 30
0.0
 10
1118.667714
 20
265.439320
 30
0.0
 10
1158.352754
 20
265.439320
 30
0.0
 10
1158.352754
 20
225.754280
 30
0.0
 10
1118.667714
 20
225.754280
 30
0.0
  0
LWPOLYLINE
  5
1d4
100
AcDbEntity
  8
0
 62
3
100
AcDbPolyline
 90
5
 70
0
 10
1064.809474
 20
225.754280
 30
0.0
 10
1064.809474
 20
265.439320
 30
0.0
 10
1104.494514
 20
265.439320
 30
0.0
 10
1104.494514
 20
225.754280
 30
0.0
 10
1064.809474
 20
225.754280
 30
0.0
  0
LWPOLYLINE
  5
1d5
100
AcDbEntity
  8
0
 62
3
100
AcDbPolyline
 90
5
 70
0
 10
1010.951154
 20
225.754280
 30
0.0
 10
1010.951154
 20
265.439320
 30
0.0
 10
1050.636194
 20
265.439320
 30
0.0
 10
1050.636194
 20
225.754280
 30
0.0
 10
1010.951154
 20
225.754280
 30
0.0
  0
LWPOLYLINE
  5
1d6
100
AcDbEntity
  8
0
 62
3
100
AcDbPolyline
 90
5
 70
0
 10
957.092914
 20
225.754280
 30
0.0
 10
957.092914
 20
265.439320
 30
0.0
 10
996.777954
 20
265.439320
 30
0.0
 10
996.777954
 20
225.754280
 30
0.0
 10
957.092914
 20
225.754280
 30
0.0
  0
LWPOLYLINE
  5
1d7
100
AcDbEntity
  8
0
 62
3
100
AcDbPolyline
 90
5
 70
0
 10
903.234674
 20
225.754280
 30
0.0
 10
903.234674
 20
265.439320
 30
0.0
 10
942.919714
 20
265.439320
 30
0.0
 10
942.919714
 20
225.754280
 30
0.0
 10
903.234674
 20
225.754280
 30
0.0
  0
LWPOLYLINE
  5
1d8
100
AcDbEntity
  8
0
 62
3
100
AcDbPolyline
 90
5
 70
0
 10
849.376378
 20
225.754280
 30
0.0
 10
849.376378
 20
265.439320
 30
0.0
 10
889.061394
 20
265.439320
 30
0.0
 10
889.061394
 20
225.754280
 30
0.0
 10
849.376378
 20
225.754280
 30
0.0
  0
LWPOLYLINE
  5
1d9
100
AcDbEntity
  8
0
 62
3
100
AcDbPolyline
 90
5
 70
0
 10
795.518114
 20
225.754280
 30
0.0
 10
795.518114
 20
265.439320
 30
0.0
 10
835.203146
 20
265.439320
 30
0.0
 10
835.203146
 20
225.754280
 30
0.0
 10
795.518114
 20
225.754280
 30
0.0
  0
LWPOLYLINE
  5
1da
100
AcDbEntity
  8
0
 62
3
100
AcDbPolyline
 90
5
 70
0
 10
741.659842
 20
225.754280
 30
0.0
 10
741.659842
 20
265.439320
 30
0.0
 10
781.344882
 20
265.439320
 30
0.0
 10
781.344882
 20
225.754280
 30
0.0
 10
741.659842
 20
225.754280
 30
0.0
  0
LWPOLYLINE
  5
1db
100
AcDbEntity
  8
0
 62
3
100
AcDbPolyline
 90
5
 70
0
 10
687.801578
 20
225.754280
 30
0.0
 10
687.801578
 20
265.439320
 30
0.0
 10
727.486618
 20
265.439320
 30
0.0
 10
727.486618
 20
225.754280
 30
0.0
 10
687.801578
 20
225.754280
 30
0.0
  0
LWPOLYLINE
  5
1dc
100
AcDbEntity
  8
0
 62
3
100
AcDbPolyline
 90
5
 70
0
 10
1172.525954
 20
171.896008
 30
0.0
 10
1172.525954
 20
211.581048
 30
0.0
 10
1212.210994
 20
211.581048
 30
0.0
 10
1212.210994
 20
171.896008
 30
0.0
 10
1172.525954
 20
171.896008
 30
0.0
  0
LWPOLYLINE
  5
1dd
100
AcDbEntity
  8
0
 62
3
100
AcDbPolyline
 90
5
 70
0
 10
1118.667714
 20
171.896008
 30
0.0
 10
1118.667714
 20
211.581048
 30
0.0
 10
1158.352754
 20
211.581048
 30
0.0
 10
1158.352754
 20
171.896008
 30
0.0
 10
1118.667714
 20
171.896008
 30
0.0
  0
LWPOLYLINE
  5
1de
100
AcDbEntity
  8
0
 62
3
100
AcDbPolyline
 90
5
 70
0
 10
1064.809474
 20
171.896008
 30
0.0
 10
1064.809474
 20
211.581048
 30
0.0
 10
1104.494514
 20
211.581048
 30
0.0
 10
1104.494514
 20
171.896008
 30
0.0
 10
1064.809474
 20
171.896008
 30
0.0
  0
LWPOLYLINE
  5
1df
100
AcDbEntity
  8
0
 62
3
100
AcDbPolyline
 90
5
 70
0
 10
1010.951154
 20
171.896008
 30
0.0
 10
1010.951154
 20
211.581048
 30
0.0
 10
1050.636194
 20
211.581048
 30
0.0
 10
1050.636194
 20
171.896008
 30
0.0
 10
1010.951154
 20
171.896008
 30
0.0
  0
LWPOLYLINE
  5
1e0
100
AcDbEntity
  8
0
 62
3
100
AcDbPolyline
 90
5
 70
0
 10
957.092914
 20
171.896008
 30
0.0
 10
957.092914
 20
211.581048
 30
0.0
 10
996.777954
 20
211.581048
 30
0.0
 10
996.777954
 20
171.896008
 30
0.0
 10
957.092914
 20
171.896008
 30
0.0
  0
LWPOLYLINE
  5
1e1
100
AcDbEntity
  8
0
 62
3
100
AcDbPolyline
 90
5
 70
0
 10
903.234674
 20
171.896008
 30
0.0
 10
903.234674
 20
211.581048
 30
0.0
 10
942.919714
 20
211.581048
 30
0.0
 10
942.919714
 20
171.896008
 30
0.0
 10
903.234674
 20
171.896008
 30
0.0
  0
LWPOLYLINE
  5
1e2
100
AcDbEntity
  8
0
 62
3
100
AcDbPolyline
 90
5
 70
0
 10
849.376378
 20
171.896008
 30
0.0
 10
849.376378
 20
211.581048
 30
0.0
 10
889.061394
 20
211.581048
 30
0.0
 10
889.061394
 20
171.896008
 30
0.0
 10
849.376378
 20
171.896008
 30
0.0
  0
LWPOLYLINE
  5
1e3
100
AcDbEntity
  8
0
 62
3
100
AcDbPolyline
 90
5
 70
0
 10
795.518114
 20
171.896008
 30
0.0
 10
795.518114
 20
211.581048
 30
0.0
 10
835.203146
 20
211.581048
 30
0.0
 10
835.203146
 20
171.896008
 30
0.0
 10
795.518114
 20
171.896008
 30
0.0
  0
LWPOLYLINE
  5
1e4
100
AcDbEntity
  8
0
 62
3
100
AcDbPolyline
 90
5
 70
0
 10
741.659842
 20
171.896008
 30
0.0
 10
741.659842
 20
211.581048
 30
0.0
 10
781.344882
 20
211.581048
 30
0.0
 10
781.344882
 20
171.896008
 30
0.0
 10
741.659842
 20
171.896008
 30
0.0
  0
LWPOLYLINE
  5
1e5
100
AcDbEntity
  8
0
 62
3
100
AcDbPolyline
 90
5
 70
0
 10
687.801578
 20
171.896008
 30
0.0
 10
687.801578
 20
211.581048
 30
0.0
 10
727.486618
 20
211.581048
 30
0.0
 10
727.486618
 20
171.896008
 30
0.0
 10
687.801578
 20
171.896008
 30
0.0
  0
LWPOLYLINE
  5
1e6
100
AcDbEntity
  8
0
 62
3
100
AcDbPolyline
 90
5
 70
0
 10
1172.525954
 20
118.037744
 30
0.0
 10
1172.525954
 20
157.722784
 30
0.0
 10
1212.210994
 20
157.722784
 30
0.0
 10
1212.210994
 20
118.037744
 30
0.0
 10
1172.525954
 20
118.037744
 30
0.0
  0
LWPOLYLINE
  5
1e7
100
AcDbEntity
  8
0
 62
3
100
AcDbPolyline
 90
5
 70
0
 10
1118.667714
 20
118.037744
 30
0.0
 10
1118.667714
 20
157.722784
 30
0.0
 10
1158.352754
 20
157.722784
 30
0.0
 10
1158.352754
 20
118.037744
 30
0.0
 10
1118.667714
 20
118.037744
 30
0.0
  0
LWPOLYLINE
  5
1e8
100
AcDbEntity
  8
0
 62
3
100
AcDbPolyline
 90
5
 70
0
 10
1064.809474
 20
118.037744
 30
0.0
 10
1064.809474
 20
157.722784
 30
0.0
 10
1104.494514
 20
157.722784
 30
0.0
 10
1104.494514
 20
118.037744
 30
0.0
 10
1064.809474
 20
118.037744
 30
0.0
  0
LWPOLYLINE
  5
1e9
100
AcDbEntity
  8
0
 62
3
100
AcDbPolyline
 90
5
 70
0
 10
1010.951154
 20
118.037744
 30
0.0
 10
1010.951154
 20
157.722784
 30
0.0
 10
1050.636194
 20
157.722784
 30
0.0
 10
1050.636194
 20
118.037744
 30
0.0
 10
1010.951154
 20
118.037744
 30
0.0
  0
LWPOLYLINE
  5
1ea
100
AcDbEntity
  8
0
 62
3
100
AcDbPolyline
 90
5
 70
0
 10
957.092914
 20
118.037744
 30
0.0
 10
957.092914
 20
157.722784
 30
0.0
 10
996.777954
 20
157.722784
 30
0.0
 10
996.777954
 20
118.037744
 30
0.0
 10
957.092914
 20
118.037744
 30
0.0
  0
LWPOLYLINE
  5
1eb
100
AcDbEntity
  8
0
 62
3
100
AcDbPolyline
 90
5
 70
0
 10
903.234674
 20
118.037744
 30
0.0
 10
903.234674
 20
157.722784
 30
0.0
 10
942.919714
 20
157.722784
 30
0.0
 10
942.919714
 20
118.037744
 30
0.0
 10
903.234674
 20
118.037744
 30
0.0
  0
LWPOLYLINE
  5
1ec
100
AcDbEntity
  8
0
 62
3
100
AcDbPolyline
 90
5
 70
0
 10
849.376378
 20
118.037744
 30
0.0
 10
849.376378
 20
157.722784
 30
0.0
 10
889.061394
 20
157.722784
 30
0.0
 10
889.061394
 20
118.037744
 30
0.0
 10
849.376378
 20
118.037744
 30
0.0
  0
LWPOLYLINE
  5
1ed
100
AcDbEntity
  8
0
 62
3
100
AcDbPolyline
 90
5
 70
0
 10
795.518114
 20
118.037744
 30
0.0
 10
795.518114
 20
157.722784
 30
0.0
 10
835.203146
 20
157.722784
 30
0.0
 10
835.203146
 20
118.037744
 30
0.0
 10
795.518114
 20
118.037744
 30
0.0
  0
LWPOLYLINE
  5
1ee
100
AcDbEntity
  8
0
 62
3
100
AcDbPolyline
 90
5
 70
0
 10
741.659842
 20
118.037744
 30
0.0
 10
741.659842
 20
157.722784
 30
0.0
 10
781.344882
 20
157.722784
 30
0.0
 10
781.344882
 20
118.037744
 30
0.0
 10
741.659842
 20
118.037744
 30
0.0
  0
LWPOLYLINE
  5
1ef
100
AcDbEntity
  8
0
 62
3
100
AcDbPolyline
 90
5
 70
0
 10
687.801578
 20
118.037744
 30
0.0
 10
687.801578
 20
157.722784
 30
0.0
 10
727.486618
 20
157.722784
 30
0.0
 10
727.486618
 20
118.037744
 30
0.0
 10
687.801578
 20
118.037744
 30
0.0
  0
LWPOLYLINE
  5
1f0
100
AcDbEntity
  8
0
 62
3
100
AcDbPolyline
 90
5
 70
0
 10
1172.525954
 20
64.179504
 30
0.0
 10
1172.525954
 20
103.864512
 30
0.0
 10
1212.210994
 20
103.864512
 30
0.0
 10
1212.210994
 20
64.179504
 30
0.0
 10
1172.525954
 20
64.179504
 30
0.0
  0
LWPOLYLINE
  5
1f1
100
AcDbEntity
  8
0
 62
3
100
AcDbPolyline
 90
5
 70
0
 10
1118.667714
 20
64.179504
 30
0.0
 10
1118.667714
 20
103.864512
 30
0.0
 10
1158.352754
 20
103.864512
 30
0.0
 10
1158.352754
 20
64.179504
 30
0.0
 10
1118.667714
 20
64.179504
 30
0.0
  0
LWPOLYLINE
  5
1f2
100
AcDbEntity
  8
0
 62
3
100
AcDbPolyline
 90
5
 70
0
 10
1064.809474
 20
64.179504
 30
0.0
 10
1064.809474
 20
103.864512
 30
0.0
 10
1104.494514
 20
103.864512
 30
0.0
 10
1104.494514
 20
64.179504
 30
0.0
 10
1064.809474
 20
64.179504
 30
0.0
  0
LWPOLYLINE
  5
1f3
100
AcDbEntity
  8
0
 62
3
100
AcDbPolyline
 90
5
 70
0
 10
1010.951154
 20
64.179504
 30
0.0
 10
1010.951154
 20
103.864512
 30
0.0
 10
1050.636194
 20
103.864512
 30
0.0
 10
1050.636194
 20
64.179504
 30
0.0
 10
1010.951154
 20
64.179504
 30
0.0
  0
LWPOLYLINE
  5
1f4
100
AcDbEntity
  8
0
 62
3
100
AcDbPolyline
 90
5
 70
0
 10
957.092914
 20
64.179504
 30
0.0
 10
957.092914
 20
103.864512
 30
0.0
 10
996.777954
 20
103.864512
 30
0.0
 10
996.777954
 20
64.179504
 30
0.0
 10
957.092914
 20
64.179504
 30
0.0
  0
LWPOLYLINE
  5
1f5
100
AcDbEntity
  8
0
 62
3
100
AcDbPolyline
 90
5
 70
0
 10
903.234674
 20
64.179504
 30
0.0
 10
903.234674
 20
103.864512
 30
0.0
 10
942.919714
 20
103.864512
 30
0.0
 10
942.919714
 20
64.179504
 30
0.0
 10
903.234674
 20
64.179504
 30
0.0
  0
LWPOLYLINE
  5
1f6
100
AcDbEntity
  8
0
 62
3
100
AcDbPolyline
 90
5
 70
0
 10
849.376378
 20
64.179504
 30
0.0
 10
849.376378
 20
103.864512
 30
0.0
 10
889.061394
 20
103.864512
 30
0.0
 10
889.061394
 20
64.179504
 30
0.0
 10
849.376378
 20
64.179504
 30
0.0
  0
LWPOLYLINE
  5
1f7
100
AcDbEntity
  8
0
 62
3
100
AcDbPolyline
 90
5
 70
0
 10
795.518114
 20
64.179504
 30
0.0
 10
795.518114
 20
103.864512
 30
0.0
 10
835.203146
 20
103.864512
 30
0.0
 10
835.203146
 20
64.179504
 30
0.0
 10
795.518114
 20
64.179504
 30
0.0
  0
LWPOLYLINE
  5
1f8
100
AcDbEntity
  8
0
 62
3
100
AcDbPolyline
 90
5
 70
0
 10
741.659842
 20
64.179504
 30
0.0
 10
741.659842
 20
103.864512
 30
0.0
 10
781.344882
 20
103.864512
 30
0.0
 10
781.344882
 20
64.179504
 30
0.0
 10
741.659842
 20
64.179504
 30
0.0
  0
LWPOLYLINE
  5
1f9
100
AcDbEntity
  8
0
 62
3
100
AcDbPolyline
 90
5
 70
0
 10
687.801578
 20
64.179504
 30
0.0
 10
687.801578
 20
103.864512
 30
0.0
 10
727.486618
 20
103.864512
 30
0.0
 10
727.486618
 20
64.179504
 30
0.0
 10
687.801578
 20
64.179504
 30
0.0
  0
LWPOLYLINE
  5
1fa
100
AcDbEntity
  8
0
 62
3
100
AcDbPolyline
 90
2
 70
0
 10
1228.050994
 20
43.829504
 30
0.0
 10
1227.520914
 20
43.896704
 30
0.0
  0
LWPOLYLINE
  5
1fb
100
AcDbEntity
  8
0
 62
3
100
AcDbPolyline
 90
12
 70
0
 10
1227.520914
 20
43.896384
 30
0.0
 10
1227.002194
 20
44.029264
 30
0.0
 10
1226.506114
 20
44.225744
 30
0.0
 10
1226.038434
 20
44.483024
 30
0.0
 10
1225.607554
 20
44.796864
 30
0.0
 10
1225.219234
 20
45.162464
 30
0.0
 10
1224.876194
 20
45.573904
 30
0.0
 10
1224.592754
 20
46.024704
 30
0.0
 10
1224.363154
 20
46.507824
 30
0.0
 10
1224.198754
 20
47.015664
 30
0.0
 10
1224.099554
 20
47.540144
 30
0.0
 10
1224.065154
 20
48.073104
 30
0.0
  0
LWPOLYLINE
  5
1fc
100
AcDbEntity
  8
0
 62
3
100
AcDbPolyline
 90
2
 70
0
 10
1224.065474
 20
48.073104
 30
0.0
 10
1224.099874
 20
48.605984
 30
0.0
  0
LWPOLYLINE
  5
1fd
100
AcDbEntity
  8
0
 62
3
100
AcDbPolyline
 90
12
 70
0
 10
1224.099554
 20
48.605984
 30
0.0
 10
1224.198754
 20
49.130544
 30
0.0
 10
1224.363154
 20
49.638304
 30
0.0
 10
1224.592754
 20
50.121504
 30
0.0
 10
1224.876194
 20
50.572384
 30
0.0
 10
1225.219234
 20
50.983744
 30
0.0
 10
1225.607554
 20
51.349264
 30
0.0
 10
1226.038434
 20
51.663184
 30
0.0
 10
1226.506114
 20
51.920384
 30
0.0
 10
1227.002194
 20
52.116944
 30
0.0
 10
1227.520914
 20
52.249744
 30
0.0
 10
1228.050994
 20
52.316944
 30
0.0
  0
LWPOLYLINE
  5
1fe
100
AcDbEntity
  8
0
 62
3
100
AcDbPolyline
 90
3
 70
0
 10
1228.050994
 20
52.316624
 30
0.0
 10
1228.583954
 20
52.316624
 30
0.0
 10
1229.114034
 20
52.249424
 30
0.0
  0
LWPOLYLINE
  5
1ff
100
AcDbEntity
  8
0
 62
3
100
AcDbPolyline
 90
12
 70
0
 10
1229.114034
 20
52.249744
 30
0.0
 10
1229.629954
 20
52.116944
 30
0.0
 10
1230.128834
 20
51.920384
 30
0.0
 10
1230.596514
 20
51.663184
 30
0.0
 10
1231.027394
 20
51.349264
 30
0.0
 10
1231.415714
 20
50.983744
 30
0.0
 10
1231.755874
 20
50.572384
 30
0.0
 10
1232.042194
 20
50.121504
 30
0.0
 10
1232.271794
 20
49.638304
 30
0.0
 10
1232.436194
 20
49.130544
 30
0.0
 10
1232.535474
 20
48.605984
 30
0.0
 10
1232.569874
 20
48.073104
 30
0.0
  0
LWPOLYLINE
  5
200
100
AcDbEntity
  8
0
 62
3
100
AcDbPolyline
 90
2
 70
0
 10
1232.569474
 20
48.073104
 30
0.0
 10
1232.535074
 20
47.540144
 30
0.0
  0
LWPOLYLINE
  5
201
100
AcDbEntity
  8
0
 62
3
100
AcDbPolyline
 90
12
 70
0
 10
1232.535474
 20
47.540144
 30
0.0
 10
1232.436194
 20
47.015664
 30
0.0
 10
1232.271794
 20
46.507824
 30
0.0
 10
1232.042194
 20
46.024704
 30
0.0
 10
1231.755874
 20
45.573904
 30
0.0
 10
1231.415714
 20
45.162464
 30
0.0
 10
1231.027394
 20
44.796864
 30
0.0
 10
1230.596514
 20
44.483024
 30
0.0
 10
1230.128834
 20
44.225744
 30
0.0
 10
1229.629954
 20
44.029264
 30
0.0
 10
1229.114034
 20
43.896384
 30
0.0
 10
1228.583954
 20
43.829184
 30
0.0
  0
LWPOLYLINE
  5
202
100
AcDbEntity
  8
0
 62
3
100
AcDbPolyline
 90
2
 70
0
 10
1228.583954
 20
43.829504
 30
0.0
 10
1228.050994
 20
43.829504
 30
0.0
  0
LWPOLYLINE
  5
203
100
AcDbEntity
  8
0
 62
3
100
AcDbPolyline
 90
2
 70
0
 10
671.428658
 20
43.829504
 30
0.0
 10
670.898586
 20
43.896704
 30
0.0
  0
LWPOLYLINE
  5
204
100
AcDbEntity
  8
0
 62
3
100
AcDbPolyline
 90
24
 70
0
 10
670.898586
 20
43.896384
 30
0.0
 10
670.382682
 20
44.029264
 30
0.0
 10
669.883778
 20
44.225744
 30
0.0
 10
669.416066
 20
44.483024
 30
0.0
 10
668.985194
 20
44.796864
 30
0.0
 10
668.596850
 20
45.162464
 30
0.0
 10
668.256690
 20
45.573904
 30
0.0
 10
667.970394
 20
46.024704
 30
0.0
 10
667.740786
 20
46.507824
 30
0.0
 10
667.576378
 20
47.015664
 30
0.0
 10
667.477170
 20
47.540144
 30
0.0
 10
667.443170
 20
48.073104
 30
0.0
 10
667.477154
 20
48.605984
 30
0.0
 10
667.576378
 20
49.130544
 30
0.0
 10
667.740786
 20
49.638304
 30
0.0
 10
667.970394
 20
50.121504
 30
0.0
 10
668.256690
 20
50.572384
 30
0.0
 10
668.596850
 20
50.983744
 30
0.0
 10
668.985194
 20
51.349264
 30
0.0
 10
669.416066
 20
51.663184
 30
0.0
 10
669.883778
 20
51.920384
 30
0.0
 10
670.382682
 20
52.116944
 30
0.0
 10
670.898586
 20
52.249744
 30
0.0
 10
671.428658
 20
52.316944
 30
0.0
  0
LWPOLYLINE
  5
205
100
AcDbEntity
  8
0
 62
3
100
AcDbPolyline
 90
3
 70
0
 10
671.428658
 20
52.316624
 30
0.0
 10
671.961578
 20
52.316624
 30
0.0
 10
672.491650
 20
52.249424
 30
0.0
  0
LWPOLYLINE
  5
206
100
AcDbEntity
  8
0
 62
3
100
AcDbPolyline
 90
24
 70
0
 10
672.491650
 20
52.249744
 30
0.0
 10
673.010394
 20
52.116944
 30
0.0
 10
673.506458
 20
51.920384
 30
0.0
 10
673.974178
 20
51.663184
 30
0.0
 10
674.405042
 20
51.349264
 30
0.0
 10
674.793386
 20
50.983744
 30
0.0
 10
675.136378
 20
50.572384
 30
0.0
 10
675.419842
 20
50.121504
 30
0.0
 10
675.649450
 20
49.638304
 30
0.0
 10
675.813858
 20
49.130544
 30
0.0
 10
675.913074
 20
48.605984
 30
0.0
 10
675.947074
 20
48.073104
 30
0.0
 10
675.913090
 20
47.540144
 30
0.0
 10
675.813858
 20
47.015664
 30
0.0
 10
675.649450
 20
46.507824
 30
0.0
 10
675.419842
 20
46.024704
 30
0.0
 10
675.136378
 20
45.573904
 30
0.0
 10
674.793386
 20
45.162464
 30
0.0
 10
674.405042
 20
44.796864
 30
0.0
 10
673.974178
 20
44.483024
 30
0.0
 10
673.506458
 20
44.225744
 30
0.0
 10
673.010394
 20
44.029264
 30
0.0
 10
672.491650
 20
43.896384
 30
0.0
 10
671.961578
 20
43.829184
 30
0.0
  0
LWPOLYLINE
  5
207
100
AcDbEntity
  8
0
 62
3
100
AcDbPolyline
 90
2
 70
0
 10
671.961578
 20
43.829504
 30
0.0
 10
671.428658
 20
43.829504
 30
0.0
  0
LWPOLYLINE
  5
208
100
AcDbEntity
  8
0
 62
3
100
AcDbPolyline
 90
2
 70
0
 10
949.739874
 20
43.829504
 30
0.0
 10
949.209794
 20
43.896704
 30
0.0
  0
LWPOLYLINE
  5
209
100
AcDbEntity
  8
0
 62
3
100
AcDbPolyline
 90
12
 70
0
 10
949.209794
 20
43.896384
 30
0.0
 10
948.690994
 20
44.029264
 30
0.0
 10
948.194994
 20
44.225744
 30
0.0
 10
947.727234
 20
44.483024
 30
0.0
 10
947.296354
 20
44.796864
 30
0.0
 10
946.908034
 20
45.162464
 30
0.0
 10
946.565074
 20
45.573904
 30
0.0
 10
946.281554
 20
46.024704
 30
0.0
 10
946.051954
 20
46.507824
 30
0.0
 10
945.887554
 20
47.015664
 30
0.0
 10
945.788354
 20
47.540144
 30
0.0
 10
945.753954
 20
48.073104
 30
0.0
  0
LWPOLYLINE
  5
20a
100
AcDbEntity
  8
0
 62
3
100
AcDbPolyline
 90
2
 70
0
 10
945.754354
 20
48.073104
 30
0.0
 10
945.788754
 20
48.605984
 30
0.0
  0
LWPOLYLINE
  5
20b
100
AcDbEntity
  8
0
 62
3
100
AcDbPolyline
 90
12
 70
0
 10
945.788354
 20
48.605984
 30
0.0
 10
945.887554
 20
49.130544
 30
0.0
 10
946.051954
 20
49.638304
 30
0.0
 10
946.281554
 20
50.121504
 30
0.0
 10
946.565074
 20
50.572384
 30
0.0
 10
946.908034
 20
50.983744
 30
0.0
 10
947.296354
 20
51.349264
 30
0.0
 10
947.727234
 20
51.663184
 30
0.0
 10
948.194994
 20
51.920384
 30
0.0
 10
948.690994
 20
52.116944
 30
0.0
 10
949.209794
 20
52.249744
 30
0.0
 10
949.739874
 20
52.316944
 30
0.0
  0
LWPOLYLINE
  5
20c
100
AcDbEntity
  8
0
 62
3
100
AcDbPolyline
 90
3
 70
0
 10
949.739874
 20
52.316624
 30
0.0
 10
950.272754
 20
52.316624
 30
0.0
 10
950.802834
 20
52.249424
 30
0.0
  0
LWPOLYLINE
  5
20d
100
AcDbEntity
  8
0
 62
3
100
AcDbPolyline
 90
12
 70
0
 10
950.802834
 20
52.249744
 30
0.0
 10
951.321554
 20
52.116944
 30
0.0
 10
951.817634
 20
51.920384
 30
0.0
 10
952.285394
 20
51.663184
 30
0.0
 10
952.716194
 20
51.349264
 30
0.0
 10
953.104594
 20
50.983744
 30
0.0
 10
953.447554
 20
50.572384
 30
0.0
 10
953.730994
 20
50.121504
 30
0.0
 10
953.960594
 20
49.638304
 30
0.0
 10
954.125074
 20
49.130544
 30
0.0
 10
954.224274
 20
48.605984
 30
0.0
 10
954.258674
 20
48.073104
 30
0.0
  0
LWPOLYLINE
  5
20e
100
AcDbEntity
  8
0
 62
3
100
AcDbPolyline
 90
2
 70
0
 10
954.258274
 20
48.073104
 30
0.0
 10
954.223874
 20
47.540144
 30
0.0
  0
LWPOLYLINE
  5
20f
100
AcDbEntity
  8
0
 62
3
100
AcDbPolyline
 90
12
 70
0
 10
954.224274
 20
47.540144
 30
0.0
 10
954.125074
 20
47.015664
 30
0.0
 10
953.960594
 20
46.507824
 30
0.0
 10
953.730994
 20
46.024704
 30
0.0
 10
953.447554
 20
45.573904
 30
0.0
 10
953.104594
 20
45.162464
 30
0.0
 10
952.716194
 20
44.796864
 30
0.0
 10
952.285394
 20
44.483024
 30
0.0
 10
951.817634
 20
44.225744
 30
0.0
 10
951.321554
 20
44.029264
 30
0.0
 10
950.802834
 20
43.896384
 30
0.0
 10
950.272754
 20
43.829184
 30
0.0
  0
LWPOLYLINE
  5
210
100
AcDbEntity
  8
0
 62
3
100
AcDbPolyline
 90
2
 70
0
 10
950.272754
 20
43.829504
 30
0.0
 10
949.739874
 20
43.829504
 30
0.0
  0
LWPOLYLINE
  5
211
100
AcDbEntity
  8
0
 62
1
100
AcDbPolyline
 90
53
 70
0
 10
607.085042
 20
35.543184
 30
0.0
 10
608.638426
 20
35.941504
 30
0.0
 10
610.126618
 20
36.531184
 30
0.0
 10
611.529762
 20
37.302944
 30
0.0
 10
612.825194
 20
38.244544
 30
0.0
 10
613.993074
 20
39.341024
 30
0.0
 10
615.016378
 20
40.575344
 30
0.0
 10
615.872442
 20
41.927904
 30
0.0
 10
616.555594
 20
43.377344
 30
0.0
 10
617.051658
 20
44.900864
 30
0.0
 10
617.349290
 20
46.474384
 30
0.0
 10
617.451338
 20
48.073104
 30
0.0
 10
617.451338
 20
332.569400
 30
0.0
 10
617.349290
 20
334.168136
 30
0.0
 10
617.051658
 20
335.741648
 30
0.0
 10
616.555594
 20
337.264984
 30
0.0
 10
615.872442
 20
338.714624
 30
0.0
 10
615.016378
 20
340.067032
 30
0.0
 10
613.993074
 20
341.300104
 30
0.0
 10
612.825194
 20
342.397112
 30
0.0
 10
611.529762
 20
343.338216
 30
0.0
 10
610.126618
 20
344.112072
 30
0.0
 10
608.638426
 20
344.701680
 30
0.0
 10
607.085042
 20
345.098528
 30
0.0
 10
605.497642
 20
345.299792
 30
0.0
 10
47.272227
 20
345.299792
 30
0.0
 10
45.682926
 20
345.098528
 30
0.0
 10
44.131326
 20
344.701680
 30
0.0
 10
42.641946
 20
344.112072
 30
0.0
 10
41.238174
 20
343.338216
 30
0.0
 10
39.942230
 20
342.397112
 30
0.0
 10
38.774498
 20
341.300104
 30
0.0
 10
37.753374
 20
340.067032
 30
0.0
 10
36.895071
 20
338.714624
 30
0.0
 10
36.212998
 20
337.264984
 30
0.0
 10
35.717985
 20
335.741648
 30
0.0
 10
35.417852
 20
334.168136
 30
0.0
 10
35.317222
 20
332.569400
 30
0.0
 10
35.317222
 20
48.073104
 30
0.0
 10
35.417852
 20
46.474384
 30
0.0
 10
35.717985
 20
44.900864
 30
0.0
 10
36.212998
 20
43.377344
 30
0.0
 10
36.895071
 20
41.927904
 30
0.0
 10
37.753374
 20
40.575344
 30
0.0
 10
38.774498
 20
39.341024
 30
0.0
 10
39.942230
 20
38.244544
 30
0.0
 10
41.238174
 20
37.302944
 30
0.0
 10
42.641946
 20
36.531184
 30
0.0
 10
44.131326
 20
35.941504
 30
0.0
 10
45.682926
 20
35.543184
 30
0.0
 10
47.272227
 20
35.342304
 30
0.0
 10
605.497642
 20
35.342304
 30
0.0
 10
607.085042
 20
35.543184
 30
0.0
  0
LWPOLYLINE
  5
212
100
AcDbEntity
  8
0
 62
1
100
AcDbPolyline
 90
51
 70
0
 10
150.034706
 20
328.325648
 30
0.0
 10
149.504914
 20
328.392544
 30
0.0
 10
148.987594
 20
328.525488
 30
0.0
 10
148.491242
 20
328.721928
 30
0.0
 10
148.023242
 20
328.979320
 30
0.0
 10
147.591242
 20
329.293112
 30
0.0
 10
147.202050
 20
329.658784
 30
0.0
 10
146.861610
 20
330.070088
 30
0.0
 10
146.575594
 20
330.520800
 30
0.0
 10
146.348250
 20
331.004104
 30
0.0
 10
146.183274
 20
331.511792
 30
0.0
 10
146.083210
 20
332.036480
 30
0.0
 10
146.049770
 20
332.569400
 30
0.0
 10
146.083202
 20
333.102312
 30
0.0
 10
146.183274
 20
333.626720
 30
0.0
 10
146.348250
 20
334.134688
 30
0.0
 10
146.575594
 20
334.617712
 30
0.0
 10
146.861610
 20
335.068416
 30
0.0
 10
147.202050
 20
335.480008
 30
0.0
 10
147.591242
 20
335.845400
 30
0.0
 10
148.023242
 20
336.159472
 30
0.0
 10
148.491242
 20
336.416576
 30
0.0
 10
148.987594
 20
336.613304
 30
0.0
 10
149.504914
 20
336.745960
 30
0.0
 10
150.034706
 20
336.812840
 30
0.0
 10
150.568754
 20
336.812856
 30
0.0
 10
151.098266
 20
336.745976
 30
0.0
 10
151.615594
 20
336.613304
 30
0.0
 10
152.111938
 20
336.416576
 30
0.0
 10
152.579938
 20
336.159472
 30
0.0
 10
153.011938
 20
335.845400
 30
0.0
 10
153.401138
 20
335.480008
 30
0.0
 10
153.741578
 20
335.068416
 30
0.0
 10
154.027594
 20
334.617712
 30
0.0
 10
154.254930
 20
334.134688
 30
0.0
 10
154.420186
 20
333.626720
 30
0.0
 10
154.519970
 20
333.102312
 30
0.0
 10
154.553730
 20
332.569400
 30
0.0
 10
154.519938
 20
332.036480
 30
0.0
 10
154.420186
 20
331.511792
 30
0.0
 10
154.254930
 20
331.004104
 30
0.0
 10
154.027594
 20
330.520800
 30
0.0
 10
153.741578
 20
330.070088
 30
0.0
 10
153.401138
 20
329.658784
 30
0.0
 10
153.011938
 20
329.293112
 30
0.0
 10
152.579938
 20
328.979320
 30
0.0
 10
152.111938
 20
328.721928
 30
0.0
 10
151.615594
 20
328.525488
 30
0.0
 10
151.098266
 20
328.392544
 30
0.0
 10
150.568754
 20
328.325664
 30
0.0
 10
150.034706
 20
328.325648
 30
0.0
  0
LWPOLYLINE
  5
213
100
AcDbEntity
  8
0
 62
1
100
AcDbPolyline
 90
51
 70
0
 10
47.806189
 20
328.325648
 30
0.0
 10
47.276422
 20
328.392528
 30
0.0
 10
46.759241
 20
328.525488
 30
0.0
 10
46.262725
 20
328.721928
 30
0.0
 10
45.794810
 20
328.979320
 30
0.0
 10
45.362838
 20
329.293112
 30
0.0
 10
44.973613
 20
329.658784
 30
0.0
 10
44.633257
 20
330.070088
 30
0.0
 10
44.347128
 20
330.520800
 30
0.0
 10
44.119761
 20
331.004104
 30
0.0
 10
43.954785
 20
331.511792
 30
0.0
 10
43.854693
 20
332.036480
 30
0.0
 10
43.821157
 20
332.569400
 30
0.0
 10
43.854695
 20
333.102312
 30
0.0
 10
43.954785
 20
333.626720
 30
0.0
 10
44.119761
 20
334.134688
 30
0.0
 10
44.347128
 20
334.617712
 30
0.0
 10
44.633257
 20
335.068416
 30
0.0
 10
44.973613
 20
335.480008
 30
0.0
 10
45.362838
 20
335.845400
 30
0.0
 10
45.794810
 20
336.159472
 30
0.0
 10
46.262725
 20
336.416576
 30
0.0
 10
46.759241
 20
336.613304
 30
0.0
 10
47.276422
 20
336.745960
 30
0.0
 10
47.806189
 20
336.812840
 30
0.0
 10
48.340151
 20
336.812856
 30
0.0
 10
48.869918
 20
336.745976
 30
0.0
 10
49.387099
 20
336.613304
 30
0.0
 10
49.883559
 20
336.416576
 30
0.0
 10
50.351474
 20
336.159472
 30
0.0
 10
50.783474
 20
335.845400
 30
0.0
 10
51.172699
 20
335.480008
 30
0.0
 10
51.513084
 20
335.068416
 30
0.0
 10
51.799185
 20
334.617712
 30
0.0
 10
52.026523
 20
334.134688
 30
0.0
 10
52.191528
 20
333.626720
 30
0.0
 10
52.291590
 20
333.102312
 30
0.0
 10
52.325096
 20
332.569400
 30
0.0
 10
52.291590
 20
332.036480
 30
0.0
 10
52.191528
 20
331.511792
 30
0.0
 10
52.026523
 20
331.004104
 30
0.0
 10
51.799185
 20
330.520800
 30
0.0
 10
51.513084
 20
330.070088
 30
0.0
 10
51.172699
 20
329.658784
 30
0.0
 10
50.783474
 20
329.293112
 30
0.0
 10
50.351474
 20
328.979320
 30
0.0
 10
49.883559
 20
328.721928
 30
0.0
 10
49.387099
 20
328.525488
 30
0.0
 10
48.869918
 20
328.392544
 30
0.0
 10
48.340151
 20
328.325664
 30
0.0
 10
47.806189
 20
328.325648
 30
0.0
  0
LWPOLYLINE
  5
214
100
AcDbEntity
  8
0
 62
1
100
AcDbPolyline
 90
51
 70
0
 10
604.428978
 20
328.325648
 30
0.0
 10
603.898898
 20
328.392528
 30
0.0
 10
603.380154
 20
328.525488
 30
0.0
 10
602.884098
 20
328.721928
 30
0.0
 10
602.416378
 20
328.979320
 30
0.0
 10
601.985514
 20
329.293112
 30
0.0
 10
601.597162
 20
329.658784
 30
0.0
 10
601.254178
 20
330.070088
 30
0.0
 10
600.970706
 20
330.520800
 30
0.0
 10
600.741106
 20
331.004104
 30
0.0
 10
600.576690
 20
331.511792
 30
0.0
 10
600.477482
 20
332.036480
 30
0.0
 10
600.443482
 20
332.569400
 30
0.0
 10
600.477466
 20
333.102312
 30
0.0
 10
600.576690
 20
333.626720
 30
0.0
 10
600.741106
 20
334.134688
 30
0.0
 10
600.970706
 20
334.617712
 30
0.0
 10
601.254178
 20
335.068416
 30
0.0
 10
601.597162
 20
335.480008
 30
0.0
 10
601.985514
 20
335.845400
 30
0.0
 10
602.416378
 20
336.159472
 30
0.0
 10
602.884098
 20
336.416576
 30
0.0
 10
603.380154
 20
336.613304
 30
0.0
 10
603.898898
 20
336.745960
 30
0.0
 10
604.428978
 20
336.812840
 30
0.0
 10
604.961890
 20
336.812856
 30
0.0
 10
605.491970
 20
336.745976
 30
0.0
 10
606.007874
 20
336.613304
 30
0.0
 10
606.506770
 20
336.416576
 30
0.0
 10
606.974490
 20
336.159472
 30
0.0
 10
607.405354
 20
335.845400
 30
0.0
 10
607.793698
 20
335.480008
 30
0.0
 10
608.133858
 20
335.068416
 30
0.0
 10
608.420154
 20
334.617712
 30
0.0
 10
608.649762
 20
334.134688
 30
0.0
 10
608.814170
 20
333.626720
 30
0.0
 10
608.913386
 20
333.102312
 30
0.0
 10
608.947386
 20
332.569400
 30
0.0
 10
608.913402
 20
332.036480
 30
0.0
 10
608.814170
 20
331.511792
 30
0.0
 10
608.649762
 20
331.004104
 30
0.0
 10
608.420154
 20
330.520800
 30
0.0
 10
608.133858
 20
330.070088
 30
0.0
 10
607.793698
 20
329.658784
 30
0.0
 10
607.405354
 20
329.293112
 30
0.0
 10
606.974490
 20
328.979320
 30
0.0
 10
606.506770
 20
328.721928
 30
0.0
 10
606.007874
 20
328.525488
 30
0.0
 10
605.491970
 20
328.392544
 30
0.0
 10
604.961890
 20
328.325664
 30
0.0
 10
604.428978
 20
328.325648
 30
0.0
  0
LWPOLYLINE
  5
215
100
AcDbEntity
  8
0
 62
1
100
AcDbPolyline
 90
2
 70
0
 10
326.117226
 20
43.829504
 30
0.0
 10
325.587434
 20
43.896704
 30
0.0
  0
LWPOLYLINE
  5
216
100
AcDbEntity
  8
0
 62
1
100
AcDbPolyline
 90
24
 70
0
 10
325.587434
 20
43.896384
 30
0.0
 10
325.070394
 20
44.029264
 30
0.0
 10
324.573762
 20
44.225744
 30
0.0
 10
324.106050
 20
44.483024
 30
0.0
 10
323.674050
 20
44.796864
 30
0.0
 10
323.284570
 20
45.162464
 30
0.0
 10
322.944410
 20
45.573904
 30
0.0
 10
322.658114
 20
46.024704
 30
0.0
 10
322.430770
 20
46.507824
 30
0.0
 10
322.265794
 20
47.015664
 30
0.0
 10
322.165730
 20
47.540144
 30
0.0
 10
322.132290
 20
48.073104
 30
0.0
 10
322.165722
 20
48.605984
 30
0.0
 10
322.265794
 20
49.130544
 30
0.0
 10
322.430770
 20
49.638304
 30
0.0
 10
322.658114
 20
50.121504
 30
0.0
 10
322.944410
 20
50.572384
 30
0.0
 10
323.284570
 20
50.983744
 30
0.0
 10
323.674050
 20
51.349264
 30
0.0
 10
324.106050
 20
51.663184
 30
0.0
 10
324.573762
 20
51.920384
 30
0.0
 10
325.070394
 20
52.116944
 30
0.0
 10
325.587434
 20
52.249744
 30
0.0
 10
326.117226
 20
52.316944
 30
0.0
  0
LWPOLYLINE
  5
217
100
AcDbEntity
  8
0
 62
1
100
AcDbPolyline
 90
3
 70
0
 10
326.117226
 20
52.316624
 30
0.0
 10
326.651274
 20
52.316624
 30
0.0
 10
327.181074
 20
52.249424
 30
0.0
  0
LWPOLYLINE
  5
218
100
AcDbEntity
  8
0
 62
1
100
AcDbPolyline
 90
24
 70
0
 10
327.181074
 20
52.249744
 30
0.0
 10
327.698114
 20
52.116944
 30
0.0
 10
328.194738
 20
51.920384
 30
0.0
 10
328.662458
 20
51.663184
 30
0.0
 10
329.094458
 20
51.349264
 30
0.0
 10
329.483650
 20
50.983744
 30
0.0
 10
329.824098
 20
50.572384
 30
0.0
 10
330.110394
 20
50.121504
 30
0.0
 10
330.337730
 20
49.638304
 30
0.0
 10
330.502706
 20
49.130544
 30
0.0
 10
330.602770
 20
48.605984
 30
0.0
 10
330.636210
 20
48.073104
 30
0.0
 10
330.602778
 20
47.540144
 30
0.0
 10
330.502706
 20
47.015664
 30
0.0
 10
330.337730
 20
46.507824
 30
0.0
 10
330.110394
 20
46.024704
 30
0.0
 10
329.824098
 20
45.573904
 30
0.0
 10
329.483650
 20
45.162464
 30
0.0
 10
329.094458
 20
44.796864
 30
0.0
 10
328.662458
 20
44.483024
 30
0.0
 10
328.194738
 20
44.225744
 30
0.0
 10
327.698114
 20
44.029264
 30
0.0
 10
327.181074
 20
43.896384
 30
0.0
 10
326.651274
 20
43.829184
 30
0.0
  0
LWPOLYLINE
  5
219
100
AcDbEntity
  8
0
 62
1
100
AcDbPolyline
 90
2
 70
0
 10
326.651274
 20
43.829504
 30
0.0
 10
326.117226
 20
43.829504
 30
0.0
  0
LWPOLYLINE
  5
21a
100
AcDbEntity
  8
0
 62
1
100
AcDbPolyline
 90
2
 70
0
 10
47.806189
 20
43.829504
 30
0.0
 10
47.276422
 20
43.896704
 30
0.0
  0
LWPOLYLINE
  5
21b
100
AcDbEntity
  8
0
 62
1
100
AcDbPolyline
 90
24
 70
0
 10
47.276422
 20
43.896384
 30
0.0
 10
46.759241
 20
44.029264
 30
0.0
 10
46.262725
 20
44.225744
 30
0.0
 10
45.794810
 20
44.483024
 30
0.0
 10
45.362838
 20
44.796864
 30
0.0
 10
44.973613
 20
45.162464
 30
0.0
 10
44.633257
 20
45.573904
 30
0.0
 10
44.347128
 20
46.024704
 30
0.0
 10
44.119761
 20
46.507824
 30
0.0
 10
43.954785
 20
47.015664
 30
0.0
 10
43.854693
 20
47.540144
 30
0.0
 10
43.821157
 20
48.073104
 30
0.0
 10
43.854695
 20
48.605984
 30
0.0
 10
43.954785
 20
49.130544
 30
0.0
 10
44.119761
 20
49.638304
 30
0.0
 10
44.347128
 20
50.121504
 30
0.0
 10
44.633257
 20
50.572384
 30
0.0
 10
44.973613
 20
50.983744
 30
0.0
 10
45.362838
 20
51.349264
 30
0.0
 10
45.794810
 20
51.663184
 30
0.0
 10
46.262725
 20
51.920384
 30
0.0
 10
46.759241
 20
52.116944
 30
0.0
 10
47.276422
 20
52.249744
 30
0.0
 10
47.806189
 20
52.316944
 30
0.0
  0
LWPOLYLINE
  5
21c
100
AcDbEntity
  8
0
 62
1
100
AcDbPolyline
 90
3
 70
0
 10
47.806189
 20
52.316624
 30
0.0
 10
48.340151
 20
52.316624
 30
0.0
 10
48.869918
 20
52.249424
 30
0.0
  0
LWPOLYLINE
  5
21d
100
AcDbEntity
  8
0
 62
1
100
AcDbPolyline
 90
24
 70
0
 10
48.869918
 20
52.249744
 30
0.0
 10
49.387099
 20
52.116944
 30
0.0
 10
49.883559
 20
51.920384
 30
0.0
 10
50.351474
 20
51.663184
 30
0.0
 10
50.783474
 20
51.349264
 30
0.0
 10
51.172699
 20
50.983744
 30
0.0
 10
51.513084
 20
50.572384
 30
0.0
 10
51.799185
 20
50.121504
 30
0.0
 10
52.026523
 20
49.638304
 30
0.0
 10
52.191528
 20
49.130544
 30
0.0
 10
52.291590
 20
48.605984
 30
0.0
 10
52.325096
 20
48.073104
 30
0.0
 10
52.291590
 20
47.540144
 30
0.0
 10
52.191528
 20
47.015664
 30
0.0
 10
52.026523
 20
46.507824
 30
0.0
 10
51.799185
 20
46.024704
 30
0.0
 10
51.513084
 20
45.573904
 30
0.0
 10
51.172699
 20
45.162464
 30
0.0
 10
50.783474
 20
44.796864
 30
0.0
 10
50.351474
 20
44.483024
 30
0.0
 10
49.883559
 20
44.225744
 30
0.0
 10
49.387099
 20
44.029264
 30
0.0
 10
48.869918
 20
43.896384
 30
0.0
 10
48.340151
 20
43.829184
 30
0.0
  0
LWPOLYLINE
  5
21e
100
AcDbEntity
  8
0
 62
1
100
AcDbPolyline
 90
2
 70
0
 10
48.340151
 20
43.829504
 30
0.0
 10
47.806189
 20
43.829504
 30
0.0
  0
LWPOLYLINE
  5
21f
100
AcDbEntity
  8
0
 62
1
100
AcDbPolyline
 90
2
 70
0
 10
604.428978
 20
43.829504
 30
0.0
 10
603.898898
 20
43.896704
 30
0.0
  0
LWPOLYLINE
  5
220
100
AcDbEntity
  8
0
 62
1
100
AcDbPolyline
 90
24
 70
0
 10
603.898898
 20
43.896384
 30
0.0
 10
603.380154
 20
44.029264
 30
0.0
 10
602.884098
 20
44.225744
 30
0.0
 10
602.416378
 20
44.483024
 30
0.0
 10
601.985514
 20
44.796864
 30
0.0
 10
601.597162
 20
45.162464
 30
0.0
 10
601.254178
 20
45.573904
 30
0.0
 10
600.970706
 20
46.024704
 30
0.0
 10
600.741106
 20
46.507824
 30
0.0
 10
600.576690
 20
47.015664
 30
0.0
 10
600.477482
 20
47.540144
 30
0.0
 10
600.443482
 20
48.073104
 30
0.0
 10
600.477466
 20
48.605984
 30
0.0
 10
600.576690
 20
49.130544
 30
0.0
 10
600.741106
 20
49.638304
 30
0.0
 10
600.970706
 20
50.121504
 30
0.0
 10
601.254178
 20
50.572384
 30
0.0
 10
601.597162
 20
50.983744
 30
0.0
 10
601.985514
 20
51.349264
 30
0.0
 10
602.416378
 20
51.663184
 30
0.0
 10
602.884098
 20
51.920384
 30
0.0
 10
603.380154
 20
52.116944
 30
0.0
 10
603.898898
 20
52.249744
 30
0.0
 10
604.428978
 20
52.316944
 30
0.0
  0
LWPOLYLINE
  5
221
100
AcDbEntity
  8
0
 62
1
100
AcDbPolyline
 90
3
 70
0
 10
604.428978
 20
52.316624
 30
0.0
 10
604.961890
 20
52.316624
 30
0.0
 10
605.491970
 20
52.249424
 30
0.0
  0
LWPOLYLINE
  5
222
100
AcDbEntity
  8
0
 62
1
100
AcDbPolyline
 90
24
 70
0
 10
605.491970
 20
52.249744
 30
0.0
 10
606.007874
 20
52.116944
 30
0.0
 10
606.506770
 20
51.920384
 30
0.0
 10
606.974490
 20
51.663184
 30
0.0
 10
607.405354
 20
51.349264
 30
0.0
 10
607.793698
 20
50.983744
 30
0.0
 10
608.133858
 20
50.572384
 30
0.0
 10
608.420154
 20
50.121504
 30
0.0
 10
608.649762
 20
49.638304
 30
0.0
 10
608.814170
 20
49.130544
 30
0.0
 10
608.913386
 20
48.605984
 30
0.0
 10
608.947386
 20
48.073104
 30
0.0
 10
608.913402
 20
47.540144
 30
0.0
 10
608.814170
 20
47.015664
 30
0.0
 10
608.649762
 20
46.507824
 30
0.0
 10
608.420154
 20
46.024704
 30
0.0
 10
608.133858
 20
45.573904
 30
0.0
 10
607.793698
 20
45.162464
 30
0.0
 10
607.405354
 20
44.796864
 30
0.0
 10
606.974490
 20
44.483024
 30
0.0
 10
606.506770
 20
44.225744
 30
0.0
 10
606.007874
 20
44.029264
 30
0.0
 10
605.491970
 20
43.896384
 30
0.0
 10
604.961890
 20
43.829184
 30
0.0
  0
LWPOLYLINE
  5
223
100
AcDbEntity
  8
0
 62
1
100
AcDbPolyline
 90
2
 70
0
 10
604.961890
 20
43.829504
 30
0.0
 10
604.428978
 20
43.829504
 30
0.0
  0
LWPOLYLINE
  5
224
100
AcDbEntity
  8
0
 62
5
100
AcDbPolyline
 90
5
 70
0
 10
28.746457
 20
28.746384
 30
0.0
 10
0.400000
 20
28.746384
 30
0.0
 10
0.400000
 20
0.399984
 30
0.0
 10
28.746457
 20
0.399984
 30
0.0
 10
28.746457
 20
28.746384
 30
0.0
  0
ENDSEC
  0
SECTION
  2
OBJECTS
  0
DICTIONARY
  5
C
330
0
100
AcDbDictionary
  3
ACAD_GROUP
350
D
  3
ACAD_MLINESTYLE
350
17
  0
DICTIONARY
  5
D
330
C
100
AcDbDictionary
  0
DICTIONARY
  5
1A
330
C
100
AcDbDictionary
  0
DICTIONARY
  5
17
330
C
100
AcDbDictionary
  3
STANDARD
350
18
  0
DICTIONARY
  5
19
330
C
100
AcDbDictionary
  0
ENDSEC
  0
EOF
