G04 #@! TF.FileFunction,Legend,Top*
%FSLAX46Y46*%
G04 Gerber Fmt 4.6, Leading zero omitted, Abs format (unit mm)*
G04 Created by KiCad (PCBNEW (after 2015-jan-16 BZR unknown)-brewed_product) date Sunday, March 08, 2015 'PMt' 01:09:04 PM*
%MOMM*%
G01*
G04 APERTURE LIST*
%ADD10C,0.100000*%
%ADD11C,0.150000*%
%ADD12C,0.381000*%
%ADD13C,0.254000*%
G04 APERTURE END LIST*
D10*
D11*
X186690000Y-161290000D02*
X209550000Y-161290000D01*
X209550000Y-161290000D02*
X209550000Y-163830000D01*
X209550000Y-163830000D02*
X186690000Y-163830000D01*
X183870000Y-161010000D02*
X185420000Y-161010000D01*
X186690000Y-161290000D02*
X186690000Y-163830000D01*
X185420000Y-164110000D02*
X183870000Y-164110000D01*
X183870000Y-164110000D02*
X183870000Y-161010000D01*
D12*
X181650000Y-124650000D02*
X183428000Y-124650000D01*
X192572000Y-124650000D02*
X194350000Y-124650000D01*
X194350000Y-124650000D02*
X194350000Y-126428000D01*
X194350000Y-135572000D02*
X194350000Y-137350000D01*
X194350000Y-137350000D02*
X192572000Y-137350000D01*
X183428000Y-137350000D02*
X181650000Y-137350000D01*
X181650000Y-137350000D02*
X181650000Y-135572000D01*
X181650000Y-126428000D02*
X181650000Y-124650000D01*
X181650000Y-143650000D02*
X183428000Y-143650000D01*
X192572000Y-143650000D02*
X194350000Y-143650000D01*
X194350000Y-143650000D02*
X194350000Y-145428000D01*
X194350000Y-154572000D02*
X194350000Y-156350000D01*
X194350000Y-156350000D02*
X192572000Y-156350000D01*
X183428000Y-156350000D02*
X181650000Y-156350000D01*
X181650000Y-156350000D02*
X181650000Y-154572000D01*
X181650000Y-145428000D02*
X181650000Y-143650000D01*
X200650000Y-124650000D02*
X202428000Y-124650000D01*
X211572000Y-124650000D02*
X213350000Y-124650000D01*
X213350000Y-124650000D02*
X213350000Y-126428000D01*
X213350000Y-135572000D02*
X213350000Y-137350000D01*
X213350000Y-137350000D02*
X211572000Y-137350000D01*
X202428000Y-137350000D02*
X200650000Y-137350000D01*
X200650000Y-137350000D02*
X200650000Y-135572000D01*
X200650000Y-126428000D02*
X200650000Y-124650000D01*
X200650000Y-143650000D02*
X202428000Y-143650000D01*
X211572000Y-143650000D02*
X213350000Y-143650000D01*
X213350000Y-143650000D02*
X213350000Y-145428000D01*
X213350000Y-154572000D02*
X213350000Y-156350000D01*
X213350000Y-156350000D02*
X211572000Y-156350000D01*
X202428000Y-156350000D02*
X200650000Y-156350000D01*
X200650000Y-156350000D02*
X200650000Y-154572000D01*
X200650000Y-145428000D02*
X200650000Y-143650000D01*
D11*
X186690000Y-120650000D02*
X194310000Y-120650000D01*
X186690000Y-118110000D02*
X194310000Y-118110000D01*
X183870000Y-117830000D02*
X185420000Y-117830000D01*
X194310000Y-120650000D02*
X194310000Y-118110000D01*
X186690000Y-118110000D02*
X186690000Y-120650000D01*
X185420000Y-120930000D02*
X183870000Y-120930000D01*
X183870000Y-120930000D02*
X183870000Y-117830000D01*
X207010000Y-120650000D02*
X194310000Y-120650000D01*
X194310000Y-120650000D02*
X194310000Y-118110000D01*
X194310000Y-118110000D02*
X207010000Y-118110000D01*
X209830000Y-120930000D02*
X208280000Y-120930000D01*
X207010000Y-120650000D02*
X207010000Y-118110000D01*
X208280000Y-117830000D02*
X209830000Y-117830000D01*
X209830000Y-117830000D02*
X209830000Y-120930000D01*
D13*
X186645334Y-133467429D02*
X186814667Y-133467429D01*
X186984001Y-133540000D01*
X187068667Y-133612571D01*
X187153334Y-133757714D01*
X187238001Y-134048000D01*
X187238001Y-134410857D01*
X187153334Y-134701143D01*
X187068667Y-134846286D01*
X186984001Y-134918857D01*
X186814667Y-134991429D01*
X186645334Y-134991429D01*
X186476001Y-134918857D01*
X186391334Y-134846286D01*
X186306667Y-134701143D01*
X186222001Y-134410857D01*
X186222001Y-134048000D01*
X186306667Y-133757714D01*
X186391334Y-133612571D01*
X186476001Y-133540000D01*
X186645334Y-133467429D01*
X188084667Y-134918857D02*
X188084667Y-134991429D01*
X188000000Y-135136571D01*
X187915334Y-135209143D01*
X188000000Y-134048000D02*
X188084667Y-134120571D01*
X188000000Y-134193143D01*
X187915334Y-134120571D01*
X188000000Y-134048000D01*
X188000000Y-134193143D01*
X189185334Y-133467429D02*
X189354667Y-133467429D01*
X189524001Y-133540000D01*
X189608667Y-133612571D01*
X189693334Y-133757714D01*
X189778001Y-134048000D01*
X189778001Y-134410857D01*
X189693334Y-134701143D01*
X189608667Y-134846286D01*
X189524001Y-134918857D01*
X189354667Y-134991429D01*
X189185334Y-134991429D01*
X189016001Y-134918857D01*
X188931334Y-134846286D01*
X188846667Y-134701143D01*
X188762001Y-134410857D01*
X188762001Y-134048000D01*
X188846667Y-133757714D01*
X188931334Y-133612571D01*
X189016001Y-133540000D01*
X189185334Y-133467429D01*
X186645334Y-152467429D02*
X186814667Y-152467429D01*
X186984001Y-152540000D01*
X187068667Y-152612571D01*
X187153334Y-152757714D01*
X187238001Y-153048000D01*
X187238001Y-153410857D01*
X187153334Y-153701143D01*
X187068667Y-153846286D01*
X186984001Y-153918857D01*
X186814667Y-153991429D01*
X186645334Y-153991429D01*
X186476001Y-153918857D01*
X186391334Y-153846286D01*
X186306667Y-153701143D01*
X186222001Y-153410857D01*
X186222001Y-153048000D01*
X186306667Y-152757714D01*
X186391334Y-152612571D01*
X186476001Y-152540000D01*
X186645334Y-152467429D01*
X188084667Y-153918857D02*
X188084667Y-153991429D01*
X188000000Y-154136571D01*
X187915334Y-154209143D01*
X188000000Y-153048000D02*
X188084667Y-153120571D01*
X188000000Y-153193143D01*
X187915334Y-153120571D01*
X188000000Y-153048000D01*
X188000000Y-153193143D01*
X189778001Y-153991429D02*
X188762001Y-153991429D01*
X189270001Y-153991429D02*
X189270001Y-152467429D01*
X189100667Y-152685143D01*
X188931334Y-152830286D01*
X188762001Y-152902857D01*
X206238001Y-134991429D02*
X205222001Y-134991429D01*
X205730001Y-134991429D02*
X205730001Y-133467429D01*
X205560667Y-133685143D01*
X205391334Y-133830286D01*
X205222001Y-133902857D01*
X207084667Y-134918857D02*
X207084667Y-134991429D01*
X207000000Y-135136571D01*
X206915334Y-135209143D01*
X207000000Y-134048000D02*
X207084667Y-134120571D01*
X207000000Y-134193143D01*
X206915334Y-134120571D01*
X207000000Y-134048000D01*
X207000000Y-134193143D01*
X208185334Y-133467429D02*
X208354667Y-133467429D01*
X208524001Y-133540000D01*
X208608667Y-133612571D01*
X208693334Y-133757714D01*
X208778001Y-134048000D01*
X208778001Y-134410857D01*
X208693334Y-134701143D01*
X208608667Y-134846286D01*
X208524001Y-134918857D01*
X208354667Y-134991429D01*
X208185334Y-134991429D01*
X208016001Y-134918857D01*
X207931334Y-134846286D01*
X207846667Y-134701143D01*
X207762001Y-134410857D01*
X207762001Y-134048000D01*
X207846667Y-133757714D01*
X207931334Y-133612571D01*
X208016001Y-133540000D01*
X208185334Y-133467429D01*
X206238001Y-153991429D02*
X205222001Y-153991429D01*
X205730001Y-153991429D02*
X205730001Y-152467429D01*
X205560667Y-152685143D01*
X205391334Y-152830286D01*
X205222001Y-152902857D01*
X207084667Y-153918857D02*
X207084667Y-153991429D01*
X207000000Y-154136571D01*
X206915334Y-154209143D01*
X207000000Y-153048000D02*
X207084667Y-153120571D01*
X207000000Y-153193143D01*
X206915334Y-153120571D01*
X207000000Y-153048000D01*
X207000000Y-153193143D01*
X208778001Y-153991429D02*
X207762001Y-153991429D01*
X208270001Y-153991429D02*
X208270001Y-152467429D01*
X208100667Y-152685143D01*
X207931334Y-152830286D01*
X207762001Y-152902857D01*
D11*
X182332381Y-119713333D02*
X183046667Y-119713333D01*
X183189524Y-119760953D01*
X183284762Y-119856191D01*
X183332381Y-119999048D01*
X183332381Y-120094286D01*
X183332381Y-118713333D02*
X183332381Y-119284762D01*
X183332381Y-118999048D02*
X182332381Y-118999048D01*
X182475238Y-119094286D01*
X182570476Y-119189524D01*
X182618095Y-119284762D01*
M02*
