M48
INCH,TZ
T1C0.039
T2C0.040
T3C0.059
T4C0.067
T5C0.157
%
G90
G05
T1
X72516Y-53575
X72516Y-54575
X72516Y-61055
X72516Y-62055
X75516Y-53575
X75516Y-54575
X75516Y-61055
X75516Y-62055
X79996Y-53575
X79996Y-54575
X79996Y-61055
X79996Y-62055
X82996Y-53575
X82996Y-54575
X82996Y-61055
X82996Y-62055
T2
X73000Y-47000
X73000Y-64000
X74000Y-47000
X74000Y-64000
X75000Y-47000
X75000Y-64000
X76000Y-47000
X76000Y-64000
X77000Y-47000
X77000Y-64000
X78000Y-47000
X78000Y-64000
X79000Y-47000
X79000Y-64000
X80000Y-47000
X80000Y-64000
X81000Y-47000
X81000Y-64000
X82000Y-47000
X82000Y-64000
T3
X72516Y-50575
X72516Y-58055
X73016Y-49575
X73016Y-57055
X75016Y-49575
X75016Y-57055
X75516Y-50575
X75516Y-58055
X79996Y-50575
X79996Y-58055
X80496Y-49575
X80496Y-57055
X82496Y-49575
X82496Y-57055
X82996Y-50575
X82996Y-58055
T4
X72016Y-51575
X72016Y-59055
X76016Y-51575
X76016Y-59055
X79496Y-51575
X79496Y-59055
X83496Y-51575
X83496Y-59055
T5
X74016Y-51575
X74016Y-59055
X81496Y-51575
X81496Y-59055
T0
M30
