G04 #@! TF.FileFunction,Copper,L2,Bot,Signal*
%FSLAX46Y46*%
G04 Gerber Fmt 4.6, Leading zero omitted, Abs format (unit mm)*
G04 Created by KiCad (PCBNEW (after 2015-jan-16 BZR unknown)-brewed_product) date Friday, March 06, 2015 'AMt' 08:10:05 AM*
%MOMM*%
G01*
G04 APERTURE LIST*
%ADD10C,0.100000*%
%ADD11C,0.609600*%
%ADD12C,2.286000*%
%ADD13C,1.701800*%
%ADD14C,1.651000*%
%ADD15R,1.651000X1.651000*%
%ADD16R,0.838200X0.838200*%
%ADD17R,2.032000X1.727200*%
%ADD18O,2.032000X1.727200*%
%ADD19C,0.254000*%
G04 APERTURE END LIST*
D10*
D11*
X150190000Y-115620000D02*
X152336300Y-115620000D01*
X155663700Y-115620000D02*
X157810000Y-115620000D01*
X150190000Y-134620000D02*
X152336300Y-134620000D01*
X155663700Y-134620000D02*
X157810000Y-134620000D01*
X169190000Y-115620000D02*
X171336300Y-115620000D01*
X174663700Y-115620000D02*
X176810000Y-115620000D01*
X169190000Y-134620000D02*
X171336300Y-134620000D01*
X174663700Y-134620000D02*
X176810000Y-134620000D01*
D12*
X156540000Y-102920000D03*
X150190000Y-105460000D03*
D13*
X148920000Y-108000000D03*
X159080000Y-108000000D03*
D12*
X157810000Y-105460000D03*
X151460000Y-102920000D03*
D14*
X150190000Y-113080000D03*
D15*
X157810000Y-113080000D03*
D14*
X150190000Y-115620000D03*
D15*
X157810000Y-115620000D03*
D16*
X152336300Y-115620000D03*
X155663700Y-115620000D03*
D12*
X156540000Y-121920000D03*
X150190000Y-124460000D03*
D13*
X148920000Y-127000000D03*
X159080000Y-127000000D03*
D12*
X157810000Y-124460000D03*
X151460000Y-121920000D03*
D14*
X150190000Y-132080000D03*
D15*
X157810000Y-132080000D03*
D14*
X150190000Y-134620000D03*
D15*
X157810000Y-134620000D03*
D16*
X152336300Y-134620000D03*
X155663700Y-134620000D03*
D12*
X175540000Y-102920000D03*
X169190000Y-105460000D03*
D13*
X167920000Y-108000000D03*
X178080000Y-108000000D03*
D12*
X176810000Y-105460000D03*
X170460000Y-102920000D03*
D14*
X169190000Y-113080000D03*
D15*
X176810000Y-113080000D03*
D14*
X169190000Y-115620000D03*
D15*
X176810000Y-115620000D03*
D16*
X171336300Y-115620000D03*
X174663700Y-115620000D03*
D12*
X175540000Y-121920000D03*
X169190000Y-124460000D03*
D13*
X167920000Y-127000000D03*
X178080000Y-127000000D03*
D12*
X176810000Y-124460000D03*
X170460000Y-121920000D03*
D14*
X169190000Y-132080000D03*
D15*
X176810000Y-132080000D03*
D14*
X169190000Y-134620000D03*
D15*
X176810000Y-134620000D03*
D16*
X171336300Y-134620000D03*
X174663700Y-134620000D03*
D17*
X186000000Y-113500000D03*
D18*
X186000000Y-116040000D03*
X186000000Y-118580000D03*
X186000000Y-121120000D03*
D19*
X176810000Y-115620000D02*
X177000000Y-115500000D01*
X186000000Y-118500000D02*
X186000000Y-118580000D01*
X157810000Y-115620000D02*
X158000000Y-115500000D01*
X177000000Y-115500000D02*
X176810000Y-115620000D01*
X177000000Y-115500000D02*
X176810000Y-115620000D01*
X176000000Y-116500000D02*
X177000000Y-115500000D01*
X171000000Y-116500000D02*
X176000000Y-116500000D01*
X170500000Y-117000000D02*
X171000000Y-116500000D01*
X159500000Y-117000000D02*
X170500000Y-117000000D01*
X158000000Y-115500000D02*
X159500000Y-117000000D01*
X157810000Y-115620000D02*
X158000000Y-115500000D01*
X186000000Y-118500000D02*
X186000000Y-118580000D01*
X180000000Y-118500000D02*
X186000000Y-118500000D01*
X177000000Y-115500000D02*
X180000000Y-118500000D01*
X176810000Y-115620000D02*
X177000000Y-115500000D01*
X176810000Y-132080000D02*
X177000000Y-132000000D01*
X158000000Y-132000000D02*
X157810000Y-132080000D01*
X158000000Y-132000000D02*
X157810000Y-132080000D01*
X167000000Y-132000000D02*
X158000000Y-132000000D01*
X168500000Y-130500000D02*
X167000000Y-132000000D01*
X175500000Y-130500000D02*
X168500000Y-130500000D01*
X177000000Y-132000000D02*
X175500000Y-130500000D01*
X176810000Y-132080000D02*
X177000000Y-132000000D01*
X177000000Y-132000000D02*
X176810000Y-132080000D01*
X186000000Y-123000000D02*
X177000000Y-132000000D01*
X186000000Y-121120000D02*
X186000000Y-123000000D01*
X175540000Y-121920000D02*
X175500000Y-122000000D01*
G36*
X190315000Y-138315000D02*
X187683345Y-138315000D01*
X187683345Y-121120000D01*
X187569271Y-120546511D01*
X187244415Y-120060330D01*
X186929634Y-119850000D01*
X187244415Y-119639670D01*
X187569271Y-119153489D01*
X187683345Y-118580000D01*
X187569271Y-118006511D01*
X187244415Y-117520330D01*
X186929634Y-117310000D01*
X187244415Y-117099670D01*
X187569271Y-116613489D01*
X187683345Y-116040000D01*
X187569271Y-115466511D01*
X187244415Y-114980330D01*
X187228632Y-114969784D01*
X187258123Y-114964063D01*
X187470927Y-114824273D01*
X187613377Y-114613240D01*
X187663440Y-114363600D01*
X187663440Y-112636400D01*
X187616463Y-112394277D01*
X187476673Y-112181473D01*
X187265640Y-112039023D01*
X187016000Y-111988960D01*
X184984000Y-111988960D01*
X184741877Y-112035937D01*
X184529073Y-112175727D01*
X184386623Y-112386760D01*
X184336560Y-112636400D01*
X184336560Y-114363600D01*
X184383537Y-114605723D01*
X184523327Y-114818527D01*
X184734360Y-114960977D01*
X184772962Y-114968718D01*
X184755585Y-114980330D01*
X184430729Y-115466511D01*
X184316655Y-116040000D01*
X184430729Y-116613489D01*
X184755585Y-117099670D01*
X185070365Y-117310000D01*
X184755585Y-117520330D01*
X184610142Y-117738000D01*
X180315630Y-117738000D01*
X178588308Y-116010677D01*
X178588308Y-105107886D01*
X178318194Y-104454160D01*
X177818471Y-103953564D01*
X177165218Y-103682309D01*
X177148657Y-103682294D01*
X177317691Y-103275218D01*
X177318308Y-102567886D01*
X177048194Y-101914160D01*
X176548471Y-101413564D01*
X175895218Y-101142309D01*
X175187886Y-101141692D01*
X174534160Y-101411806D01*
X174033564Y-101911529D01*
X173762309Y-102564782D01*
X173761692Y-103272114D01*
X174031806Y-103925840D01*
X174531529Y-104426436D01*
X175184782Y-104697691D01*
X175201342Y-104697705D01*
X175032309Y-105104782D01*
X175031692Y-105812114D01*
X175301806Y-106465840D01*
X175801529Y-106966436D01*
X176454782Y-107237691D01*
X177162114Y-107238308D01*
X177815840Y-106968194D01*
X178316436Y-106468471D01*
X178587691Y-105815218D01*
X178588308Y-105107886D01*
X178588308Y-116010677D01*
X178282940Y-115705309D01*
X178282940Y-114794500D01*
X178235963Y-114552377D01*
X178102194Y-114348739D01*
X178232877Y-114155140D01*
X178282940Y-113905500D01*
X178282940Y-112254500D01*
X178235963Y-112012377D01*
X178096173Y-111799573D01*
X177885140Y-111657123D01*
X177635500Y-111607060D01*
X175984500Y-111607060D01*
X175742377Y-111654037D01*
X175529573Y-111793827D01*
X175387123Y-112004860D01*
X175337060Y-112254500D01*
X175337060Y-113905500D01*
X175384037Y-114147623D01*
X175517805Y-114351260D01*
X175387123Y-114544860D01*
X175370241Y-114629039D01*
X175332440Y-114603523D01*
X175082800Y-114553460D01*
X174244600Y-114553460D01*
X174002477Y-114600437D01*
X173789673Y-114740227D01*
X173647223Y-114951260D01*
X173597160Y-115200900D01*
X173597160Y-115738000D01*
X172402840Y-115738000D01*
X172402840Y-115200900D01*
X172355863Y-114958777D01*
X172238308Y-114779821D01*
X172238308Y-102567886D01*
X171968194Y-101914160D01*
X171468471Y-101413564D01*
X170815218Y-101142309D01*
X170107886Y-101141692D01*
X169454160Y-101411806D01*
X168953564Y-101911529D01*
X168682309Y-102564782D01*
X168681692Y-103272114D01*
X168850930Y-103681703D01*
X168837886Y-103681692D01*
X168184160Y-103951806D01*
X167683564Y-104451529D01*
X167412309Y-105104782D01*
X167411692Y-105812114D01*
X167681806Y-106465840D01*
X168181529Y-106966436D01*
X168834782Y-107237691D01*
X169542114Y-107238308D01*
X170195840Y-106968194D01*
X170696436Y-106468471D01*
X170967691Y-105815218D01*
X170968308Y-105107886D01*
X170799069Y-104698296D01*
X170812114Y-104698308D01*
X171465840Y-104428194D01*
X171966436Y-103928471D01*
X172237691Y-103275218D01*
X172238308Y-102567886D01*
X172238308Y-114779821D01*
X172216073Y-114745973D01*
X172005040Y-114603523D01*
X171755400Y-114553460D01*
X170917200Y-114553460D01*
X170675077Y-114600437D01*
X170553652Y-114680200D01*
X170315498Y-114680200D01*
X170018387Y-114382570D01*
X169940421Y-114350195D01*
X170016226Y-114318874D01*
X170427430Y-113908387D01*
X170650246Y-113371786D01*
X170650753Y-112790763D01*
X170428874Y-112253774D01*
X170018387Y-111842570D01*
X169481786Y-111619754D01*
X168900763Y-111619247D01*
X168363774Y-111841126D01*
X167952570Y-112251613D01*
X167729754Y-112788214D01*
X167729247Y-113369237D01*
X167951126Y-113906226D01*
X168361613Y-114317430D01*
X168439578Y-114349804D01*
X168363774Y-114381126D01*
X167952570Y-114791613D01*
X167729754Y-115328214D01*
X167729247Y-115909237D01*
X167865088Y-116238000D01*
X159815630Y-116238000D01*
X159588308Y-116010677D01*
X159588308Y-105107886D01*
X159318194Y-104454160D01*
X158818471Y-103953564D01*
X158165218Y-103682309D01*
X158148657Y-103682294D01*
X158317691Y-103275218D01*
X158318308Y-102567886D01*
X158048194Y-101914160D01*
X157548471Y-101413564D01*
X156895218Y-101142309D01*
X156187886Y-101141692D01*
X155534160Y-101411806D01*
X155033564Y-101911529D01*
X154762309Y-102564782D01*
X154761692Y-103272114D01*
X155031806Y-103925840D01*
X155531529Y-104426436D01*
X156184782Y-104697691D01*
X156201342Y-104697705D01*
X156032309Y-105104782D01*
X156031692Y-105812114D01*
X156301806Y-106465840D01*
X156801529Y-106966436D01*
X157454782Y-107237691D01*
X158162114Y-107238308D01*
X158815840Y-106968194D01*
X159316436Y-106468471D01*
X159587691Y-105815218D01*
X159588308Y-105107886D01*
X159588308Y-116010677D01*
X159282940Y-115705309D01*
X159282940Y-114794500D01*
X159235963Y-114552377D01*
X159102194Y-114348739D01*
X159232877Y-114155140D01*
X159282940Y-113905500D01*
X159282940Y-112254500D01*
X159235963Y-112012377D01*
X159096173Y-111799573D01*
X158885140Y-111657123D01*
X158635500Y-111607060D01*
X156984500Y-111607060D01*
X156742377Y-111654037D01*
X156529573Y-111793827D01*
X156387123Y-112004860D01*
X156337060Y-112254500D01*
X156337060Y-113905500D01*
X156384037Y-114147623D01*
X156517805Y-114351260D01*
X156387123Y-114544860D01*
X156370241Y-114629039D01*
X156332440Y-114603523D01*
X156082800Y-114553460D01*
X155244600Y-114553460D01*
X155002477Y-114600437D01*
X154789673Y-114740227D01*
X154647223Y-114951260D01*
X154597160Y-115200900D01*
X154597160Y-116039100D01*
X154644137Y-116281223D01*
X154783927Y-116494027D01*
X154994960Y-116636477D01*
X155244600Y-116686540D01*
X156082800Y-116686540D01*
X156324923Y-116639563D01*
X156369083Y-116610553D01*
X156384037Y-116687623D01*
X156523827Y-116900427D01*
X156734860Y-117042877D01*
X156984500Y-117092940D01*
X158515309Y-117092940D01*
X158961184Y-117538815D01*
X158961185Y-117538815D01*
X159208395Y-117703996D01*
X159500000Y-117762000D01*
X170500000Y-117762000D01*
X170500000Y-117761999D01*
X170791604Y-117703996D01*
X170791605Y-117703996D01*
X171038815Y-117538815D01*
X171315630Y-117262000D01*
X176000000Y-117262000D01*
X176000000Y-117261999D01*
X176291604Y-117203996D01*
X176291605Y-117203996D01*
X176457811Y-117092940D01*
X177515309Y-117092940D01*
X179461185Y-119038816D01*
X179609376Y-119137834D01*
X179708395Y-119203996D01*
X179708396Y-119203996D01*
X180000000Y-119262000D01*
X184503233Y-119262000D01*
X184755585Y-119639670D01*
X185070365Y-119850000D01*
X184755585Y-120060330D01*
X184430729Y-120546511D01*
X184316655Y-121120000D01*
X184430729Y-121693489D01*
X184755585Y-122179670D01*
X185238000Y-122502009D01*
X185238000Y-122684370D01*
X178588308Y-129334062D01*
X178588308Y-124107886D01*
X178318194Y-123454160D01*
X177818471Y-122953564D01*
X177165218Y-122682309D01*
X177148657Y-122682294D01*
X177317691Y-122275218D01*
X177318308Y-121567886D01*
X177048194Y-120914160D01*
X176548471Y-120413564D01*
X175895218Y-120142309D01*
X175187886Y-120141692D01*
X174534160Y-120411806D01*
X174033564Y-120911529D01*
X173762309Y-121564782D01*
X173761692Y-122272114D01*
X174031806Y-122925840D01*
X174531529Y-123426436D01*
X175184782Y-123697691D01*
X175201342Y-123697705D01*
X175032309Y-124104782D01*
X175031692Y-124812114D01*
X175301806Y-125465840D01*
X175801529Y-125966436D01*
X176454782Y-126237691D01*
X177162114Y-126238308D01*
X177815840Y-125968194D01*
X178316436Y-125468471D01*
X178587691Y-124815218D01*
X178588308Y-124107886D01*
X178588308Y-129334062D01*
X177315310Y-130607060D01*
X176684690Y-130607060D01*
X176038815Y-129961185D01*
X175791605Y-129796004D01*
X175500000Y-129738000D01*
X172238308Y-129738000D01*
X172238308Y-121567886D01*
X171968194Y-120914160D01*
X171468471Y-120413564D01*
X170815218Y-120142309D01*
X170107886Y-120141692D01*
X169454160Y-120411806D01*
X168953564Y-120911529D01*
X168682309Y-121564782D01*
X168681692Y-122272114D01*
X168850930Y-122681703D01*
X168837886Y-122681692D01*
X168184160Y-122951806D01*
X167683564Y-123451529D01*
X167412309Y-124104782D01*
X167411692Y-124812114D01*
X167681806Y-125465840D01*
X168181529Y-125966436D01*
X168834782Y-126237691D01*
X169542114Y-126238308D01*
X170195840Y-125968194D01*
X170696436Y-125468471D01*
X170967691Y-124815218D01*
X170968308Y-124107886D01*
X170799069Y-123698296D01*
X170812114Y-123698308D01*
X171465840Y-123428194D01*
X171966436Y-122928471D01*
X172237691Y-122275218D01*
X172238308Y-121567886D01*
X172238308Y-129738000D01*
X168500000Y-129738000D01*
X168208395Y-129796004D01*
X167961184Y-129961185D01*
X166684369Y-131238000D01*
X159588308Y-131238000D01*
X159588308Y-124107886D01*
X159318194Y-123454160D01*
X158818471Y-122953564D01*
X158165218Y-122682309D01*
X158148657Y-122682294D01*
X158317691Y-122275218D01*
X158318308Y-121567886D01*
X158048194Y-120914160D01*
X157548471Y-120413564D01*
X156895218Y-120142309D01*
X156187886Y-120141692D01*
X155534160Y-120411806D01*
X155033564Y-120911529D01*
X154762309Y-121564782D01*
X154761692Y-122272114D01*
X155031806Y-122925840D01*
X155531529Y-123426436D01*
X156184782Y-123697691D01*
X156201342Y-123697705D01*
X156032309Y-124104782D01*
X156031692Y-124812114D01*
X156301806Y-125465840D01*
X156801529Y-125966436D01*
X157454782Y-126237691D01*
X158162114Y-126238308D01*
X158815840Y-125968194D01*
X159316436Y-125468471D01*
X159587691Y-124815218D01*
X159588308Y-124107886D01*
X159588308Y-131238000D01*
X159279738Y-131238000D01*
X159235963Y-131012377D01*
X159096173Y-130799573D01*
X158885140Y-130657123D01*
X158635500Y-130607060D01*
X156984500Y-130607060D01*
X156742377Y-130654037D01*
X156529573Y-130793827D01*
X156387123Y-131004860D01*
X156337060Y-131254500D01*
X156337060Y-132905500D01*
X156384037Y-133147623D01*
X156517805Y-133351260D01*
X156387123Y-133544860D01*
X156370241Y-133629039D01*
X156332440Y-133603523D01*
X156082800Y-133553460D01*
X155244600Y-133553460D01*
X155002477Y-133600437D01*
X154789673Y-133740227D01*
X154647223Y-133951260D01*
X154597160Y-134200900D01*
X154597160Y-135039100D01*
X154644137Y-135281223D01*
X154783927Y-135494027D01*
X154994960Y-135636477D01*
X155244600Y-135686540D01*
X156082800Y-135686540D01*
X156324923Y-135639563D01*
X156369083Y-135610553D01*
X156384037Y-135687623D01*
X156523827Y-135900427D01*
X156734860Y-136042877D01*
X156984500Y-136092940D01*
X158635500Y-136092940D01*
X158877623Y-136045963D01*
X159090427Y-135906173D01*
X159232877Y-135695140D01*
X159282940Y-135445500D01*
X159282940Y-133794500D01*
X159235963Y-133552377D01*
X159102194Y-133348739D01*
X159232877Y-133155140D01*
X159282940Y-132905500D01*
X159282940Y-132762000D01*
X167000000Y-132762000D01*
X167000000Y-132761999D01*
X167291604Y-132703996D01*
X167291605Y-132703996D01*
X167538815Y-132538815D01*
X167729265Y-132348364D01*
X167729247Y-132369237D01*
X167951126Y-132906226D01*
X168361613Y-133317430D01*
X168439578Y-133349804D01*
X168363774Y-133381126D01*
X167952570Y-133791613D01*
X167729754Y-134328214D01*
X167729247Y-134909237D01*
X167951126Y-135446226D01*
X168361613Y-135857430D01*
X168898214Y-136080246D01*
X169479237Y-136080753D01*
X170016226Y-135858874D01*
X170315822Y-135559800D01*
X170553966Y-135559800D01*
X170667560Y-135636477D01*
X170917200Y-135686540D01*
X171755400Y-135686540D01*
X171997523Y-135639563D01*
X172210327Y-135499773D01*
X172352777Y-135288740D01*
X172402840Y-135039100D01*
X172402840Y-134200900D01*
X172355863Y-133958777D01*
X172216073Y-133745973D01*
X172005040Y-133603523D01*
X171755400Y-133553460D01*
X170917200Y-133553460D01*
X170675077Y-133600437D01*
X170553652Y-133680200D01*
X170315498Y-133680200D01*
X170018387Y-133382570D01*
X169940421Y-133350195D01*
X170016226Y-133318874D01*
X170427430Y-132908387D01*
X170650246Y-132371786D01*
X170650753Y-131790763D01*
X170432272Y-131262000D01*
X175184369Y-131262000D01*
X175337060Y-131414690D01*
X175337060Y-132905500D01*
X175384037Y-133147623D01*
X175517805Y-133351260D01*
X175387123Y-133544860D01*
X175370241Y-133629039D01*
X175332440Y-133603523D01*
X175082800Y-133553460D01*
X174244600Y-133553460D01*
X174002477Y-133600437D01*
X173789673Y-133740227D01*
X173647223Y-133951260D01*
X173597160Y-134200900D01*
X173597160Y-135039100D01*
X173644137Y-135281223D01*
X173783927Y-135494027D01*
X173994960Y-135636477D01*
X174244600Y-135686540D01*
X175082800Y-135686540D01*
X175324923Y-135639563D01*
X175369083Y-135610553D01*
X175384037Y-135687623D01*
X175523827Y-135900427D01*
X175734860Y-136042877D01*
X175984500Y-136092940D01*
X177635500Y-136092940D01*
X177877623Y-136045963D01*
X178090427Y-135906173D01*
X178232877Y-135695140D01*
X178282940Y-135445500D01*
X178282940Y-133794500D01*
X178235963Y-133552377D01*
X178102194Y-133348739D01*
X178232877Y-133155140D01*
X178282940Y-132905500D01*
X178282940Y-131794690D01*
X186538815Y-123538815D01*
X186703996Y-123291605D01*
X186761999Y-123000000D01*
X186762000Y-123000000D01*
X186762000Y-122502009D01*
X187244415Y-122179670D01*
X187569271Y-121693489D01*
X187683345Y-121120000D01*
X187683345Y-138315000D01*
X153402840Y-138315000D01*
X153402840Y-135039100D01*
X153402840Y-134200900D01*
X153402840Y-116039100D01*
X153402840Y-115200900D01*
X153355863Y-114958777D01*
X153238308Y-114779821D01*
X153238308Y-102567886D01*
X152968194Y-101914160D01*
X152468471Y-101413564D01*
X151815218Y-101142309D01*
X151107886Y-101141692D01*
X150454160Y-101411806D01*
X149953564Y-101911529D01*
X149682309Y-102564782D01*
X149681692Y-103272114D01*
X149850930Y-103681703D01*
X149837886Y-103681692D01*
X149184160Y-103951806D01*
X148683564Y-104451529D01*
X148412309Y-105104782D01*
X148411692Y-105812114D01*
X148681806Y-106465840D01*
X149181529Y-106966436D01*
X149834782Y-107237691D01*
X150542114Y-107238308D01*
X151195840Y-106968194D01*
X151696436Y-106468471D01*
X151967691Y-105815218D01*
X151968308Y-105107886D01*
X151799069Y-104698296D01*
X151812114Y-104698308D01*
X152465840Y-104428194D01*
X152966436Y-103928471D01*
X153237691Y-103275218D01*
X153238308Y-102567886D01*
X153238308Y-114779821D01*
X153216073Y-114745973D01*
X153005040Y-114603523D01*
X152755400Y-114553460D01*
X151917200Y-114553460D01*
X151675077Y-114600437D01*
X151553652Y-114680200D01*
X151315498Y-114680200D01*
X151018387Y-114382570D01*
X150940421Y-114350195D01*
X151016226Y-114318874D01*
X151427430Y-113908387D01*
X151650246Y-113371786D01*
X151650753Y-112790763D01*
X151428874Y-112253774D01*
X151018387Y-111842570D01*
X150481786Y-111619754D01*
X149900763Y-111619247D01*
X149363774Y-111841126D01*
X148952570Y-112251613D01*
X148729754Y-112788214D01*
X148729247Y-113369237D01*
X148951126Y-113906226D01*
X149361613Y-114317430D01*
X149439578Y-114349804D01*
X149363774Y-114381126D01*
X148952570Y-114791613D01*
X148729754Y-115328214D01*
X148729247Y-115909237D01*
X148951126Y-116446226D01*
X149361613Y-116857430D01*
X149898214Y-117080246D01*
X150479237Y-117080753D01*
X151016226Y-116858874D01*
X151315822Y-116559800D01*
X151553966Y-116559800D01*
X151667560Y-116636477D01*
X151917200Y-116686540D01*
X152755400Y-116686540D01*
X152997523Y-116639563D01*
X153210327Y-116499773D01*
X153352777Y-116288740D01*
X153402840Y-116039100D01*
X153402840Y-134200900D01*
X153355863Y-133958777D01*
X153238308Y-133779821D01*
X153238308Y-121567886D01*
X152968194Y-120914160D01*
X152468471Y-120413564D01*
X151815218Y-120142309D01*
X151107886Y-120141692D01*
X150454160Y-120411806D01*
X149953564Y-120911529D01*
X149682309Y-121564782D01*
X149681692Y-122272114D01*
X149850930Y-122681703D01*
X149837886Y-122681692D01*
X149184160Y-122951806D01*
X148683564Y-123451529D01*
X148412309Y-124104782D01*
X148411692Y-124812114D01*
X148681806Y-125465840D01*
X149181529Y-125966436D01*
X149834782Y-126237691D01*
X150542114Y-126238308D01*
X151195840Y-125968194D01*
X151696436Y-125468471D01*
X151967691Y-124815218D01*
X151968308Y-124107886D01*
X151799069Y-123698296D01*
X151812114Y-123698308D01*
X152465840Y-123428194D01*
X152966436Y-122928471D01*
X153237691Y-122275218D01*
X153238308Y-121567886D01*
X153238308Y-133779821D01*
X153216073Y-133745973D01*
X153005040Y-133603523D01*
X152755400Y-133553460D01*
X151917200Y-133553460D01*
X151675077Y-133600437D01*
X151553652Y-133680200D01*
X151315498Y-133680200D01*
X151018387Y-133382570D01*
X150940421Y-133350195D01*
X151016226Y-133318874D01*
X151427430Y-132908387D01*
X151650246Y-132371786D01*
X151650753Y-131790763D01*
X151428874Y-131253774D01*
X151018387Y-130842570D01*
X150481786Y-130619754D01*
X149900763Y-130619247D01*
X149363774Y-130841126D01*
X148952570Y-131251613D01*
X148729754Y-131788214D01*
X148729247Y-132369237D01*
X148951126Y-132906226D01*
X149361613Y-133317430D01*
X149439578Y-133349804D01*
X149363774Y-133381126D01*
X148952570Y-133791613D01*
X148729754Y-134328214D01*
X148729247Y-134909237D01*
X148951126Y-135446226D01*
X149361613Y-135857430D01*
X149898214Y-136080246D01*
X150479237Y-136080753D01*
X151016226Y-135858874D01*
X151315822Y-135559800D01*
X151553966Y-135559800D01*
X151667560Y-135636477D01*
X151917200Y-135686540D01*
X152755400Y-135686540D01*
X152997523Y-135639563D01*
X153210327Y-135499773D01*
X153352777Y-135288740D01*
X153402840Y-135039100D01*
X153402840Y-138315000D01*
X145685000Y-138315000D01*
X145685000Y-138000000D01*
X145685000Y-99685000D01*
X190315000Y-99685000D01*
X190315000Y-138315000D01*
X190315000Y-138315000D01*
G37*
X190315000Y-138315000D02*
X187683345Y-138315000D01*
X187683345Y-121120000D01*
X187569271Y-120546511D01*
X187244415Y-120060330D01*
X186929634Y-119850000D01*
X187244415Y-119639670D01*
X187569271Y-119153489D01*
X187683345Y-118580000D01*
X187569271Y-118006511D01*
X187244415Y-117520330D01*
X186929634Y-117310000D01*
X187244415Y-117099670D01*
X187569271Y-116613489D01*
X187683345Y-116040000D01*
X187569271Y-115466511D01*
X187244415Y-114980330D01*
X187228632Y-114969784D01*
X187258123Y-114964063D01*
X187470927Y-114824273D01*
X187613377Y-114613240D01*
X187663440Y-114363600D01*
X187663440Y-112636400D01*
X187616463Y-112394277D01*
X187476673Y-112181473D01*
X187265640Y-112039023D01*
X187016000Y-111988960D01*
X184984000Y-111988960D01*
X184741877Y-112035937D01*
X184529073Y-112175727D01*
X184386623Y-112386760D01*
X184336560Y-112636400D01*
X184336560Y-114363600D01*
X184383537Y-114605723D01*
X184523327Y-114818527D01*
X184734360Y-114960977D01*
X184772962Y-114968718D01*
X184755585Y-114980330D01*
X184430729Y-115466511D01*
X184316655Y-116040000D01*
X184430729Y-116613489D01*
X184755585Y-117099670D01*
X185070365Y-117310000D01*
X184755585Y-117520330D01*
X184610142Y-117738000D01*
X180315630Y-117738000D01*
X178588308Y-116010677D01*
X178588308Y-105107886D01*
X178318194Y-104454160D01*
X177818471Y-103953564D01*
X177165218Y-103682309D01*
X177148657Y-103682294D01*
X177317691Y-103275218D01*
X177318308Y-102567886D01*
X177048194Y-101914160D01*
X176548471Y-101413564D01*
X175895218Y-101142309D01*
X175187886Y-101141692D01*
X174534160Y-101411806D01*
X174033564Y-101911529D01*
X173762309Y-102564782D01*
X173761692Y-103272114D01*
X174031806Y-103925840D01*
X174531529Y-104426436D01*
X175184782Y-104697691D01*
X175201342Y-104697705D01*
X175032309Y-105104782D01*
X175031692Y-105812114D01*
X175301806Y-106465840D01*
X175801529Y-106966436D01*
X176454782Y-107237691D01*
X177162114Y-107238308D01*
X177815840Y-106968194D01*
X178316436Y-106468471D01*
X178587691Y-105815218D01*
X178588308Y-105107886D01*
X178588308Y-116010677D01*
X178282940Y-115705309D01*
X178282940Y-114794500D01*
X178235963Y-114552377D01*
X178102194Y-114348739D01*
X178232877Y-114155140D01*
X178282940Y-113905500D01*
X178282940Y-112254500D01*
X178235963Y-112012377D01*
X178096173Y-111799573D01*
X177885140Y-111657123D01*
X177635500Y-111607060D01*
X175984500Y-111607060D01*
X175742377Y-111654037D01*
X175529573Y-111793827D01*
X175387123Y-112004860D01*
X175337060Y-112254500D01*
X175337060Y-113905500D01*
X175384037Y-114147623D01*
X175517805Y-114351260D01*
X175387123Y-114544860D01*
X175370241Y-114629039D01*
X175332440Y-114603523D01*
X175082800Y-114553460D01*
X174244600Y-114553460D01*
X174002477Y-114600437D01*
X173789673Y-114740227D01*
X173647223Y-114951260D01*
X173597160Y-115200900D01*
X173597160Y-115738000D01*
X172402840Y-115738000D01*
X172402840Y-115200900D01*
X172355863Y-114958777D01*
X172238308Y-114779821D01*
X172238308Y-102567886D01*
X171968194Y-101914160D01*
X171468471Y-101413564D01*
X170815218Y-101142309D01*
X170107886Y-101141692D01*
X169454160Y-101411806D01*
X168953564Y-101911529D01*
X168682309Y-102564782D01*
X168681692Y-103272114D01*
X168850930Y-103681703D01*
X168837886Y-103681692D01*
X168184160Y-103951806D01*
X167683564Y-104451529D01*
X167412309Y-105104782D01*
X167411692Y-105812114D01*
X167681806Y-106465840D01*
X168181529Y-106966436D01*
X168834782Y-107237691D01*
X169542114Y-107238308D01*
X170195840Y-106968194D01*
X170696436Y-106468471D01*
X170967691Y-105815218D01*
X170968308Y-105107886D01*
X170799069Y-104698296D01*
X170812114Y-104698308D01*
X171465840Y-104428194D01*
X171966436Y-103928471D01*
X172237691Y-103275218D01*
X172238308Y-102567886D01*
X172238308Y-114779821D01*
X172216073Y-114745973D01*
X172005040Y-114603523D01*
X171755400Y-114553460D01*
X170917200Y-114553460D01*
X170675077Y-114600437D01*
X170553652Y-114680200D01*
X170315498Y-114680200D01*
X170018387Y-114382570D01*
X169940421Y-114350195D01*
X170016226Y-114318874D01*
X170427430Y-113908387D01*
X170650246Y-113371786D01*
X170650753Y-112790763D01*
X170428874Y-112253774D01*
X170018387Y-111842570D01*
X169481786Y-111619754D01*
X168900763Y-111619247D01*
X168363774Y-111841126D01*
X167952570Y-112251613D01*
X167729754Y-112788214D01*
X167729247Y-113369237D01*
X167951126Y-113906226D01*
X168361613Y-114317430D01*
X168439578Y-114349804D01*
X168363774Y-114381126D01*
X167952570Y-114791613D01*
X167729754Y-115328214D01*
X167729247Y-115909237D01*
X167865088Y-116238000D01*
X159815630Y-116238000D01*
X159588308Y-116010677D01*
X159588308Y-105107886D01*
X159318194Y-104454160D01*
X158818471Y-103953564D01*
X158165218Y-103682309D01*
X158148657Y-103682294D01*
X158317691Y-103275218D01*
X158318308Y-102567886D01*
X158048194Y-101914160D01*
X157548471Y-101413564D01*
X156895218Y-101142309D01*
X156187886Y-101141692D01*
X155534160Y-101411806D01*
X155033564Y-101911529D01*
X154762309Y-102564782D01*
X154761692Y-103272114D01*
X155031806Y-103925840D01*
X155531529Y-104426436D01*
X156184782Y-104697691D01*
X156201342Y-104697705D01*
X156032309Y-105104782D01*
X156031692Y-105812114D01*
X156301806Y-106465840D01*
X156801529Y-106966436D01*
X157454782Y-107237691D01*
X158162114Y-107238308D01*
X158815840Y-106968194D01*
X159316436Y-106468471D01*
X159587691Y-105815218D01*
X159588308Y-105107886D01*
X159588308Y-116010677D01*
X159282940Y-115705309D01*
X159282940Y-114794500D01*
X159235963Y-114552377D01*
X159102194Y-114348739D01*
X159232877Y-114155140D01*
X159282940Y-113905500D01*
X159282940Y-112254500D01*
X159235963Y-112012377D01*
X159096173Y-111799573D01*
X158885140Y-111657123D01*
X158635500Y-111607060D01*
X156984500Y-111607060D01*
X156742377Y-111654037D01*
X156529573Y-111793827D01*
X156387123Y-112004860D01*
X156337060Y-112254500D01*
X156337060Y-113905500D01*
X156384037Y-114147623D01*
X156517805Y-114351260D01*
X156387123Y-114544860D01*
X156370241Y-114629039D01*
X156332440Y-114603523D01*
X156082800Y-114553460D01*
X155244600Y-114553460D01*
X155002477Y-114600437D01*
X154789673Y-114740227D01*
X154647223Y-114951260D01*
X154597160Y-115200900D01*
X154597160Y-116039100D01*
X154644137Y-116281223D01*
X154783927Y-116494027D01*
X154994960Y-116636477D01*
X155244600Y-116686540D01*
X156082800Y-116686540D01*
X156324923Y-116639563D01*
X156369083Y-116610553D01*
X156384037Y-116687623D01*
X156523827Y-116900427D01*
X156734860Y-117042877D01*
X156984500Y-117092940D01*
X158515309Y-117092940D01*
X158961184Y-117538815D01*
X158961185Y-117538815D01*
X159208395Y-117703996D01*
X159500000Y-117762000D01*
X170500000Y-117762000D01*
X170500000Y-117761999D01*
X170791604Y-117703996D01*
X170791605Y-117703996D01*
X171038815Y-117538815D01*
X171315630Y-117262000D01*
X176000000Y-117262000D01*
X176000000Y-117261999D01*
X176291604Y-117203996D01*
X176291605Y-117203996D01*
X176457811Y-117092940D01*
X177515309Y-117092940D01*
X179461185Y-119038816D01*
X179609376Y-119137834D01*
X179708395Y-119203996D01*
X179708396Y-119203996D01*
X180000000Y-119262000D01*
X184503233Y-119262000D01*
X184755585Y-119639670D01*
X185070365Y-119850000D01*
X184755585Y-120060330D01*
X184430729Y-120546511D01*
X184316655Y-121120000D01*
X184430729Y-121693489D01*
X184755585Y-122179670D01*
X185238000Y-122502009D01*
X185238000Y-122684370D01*
X178588308Y-129334062D01*
X178588308Y-124107886D01*
X178318194Y-123454160D01*
X177818471Y-122953564D01*
X177165218Y-122682309D01*
X177148657Y-122682294D01*
X177317691Y-122275218D01*
X177318308Y-121567886D01*
X177048194Y-120914160D01*
X176548471Y-120413564D01*
X175895218Y-120142309D01*
X175187886Y-120141692D01*
X174534160Y-120411806D01*
X174033564Y-120911529D01*
X173762309Y-121564782D01*
X173761692Y-122272114D01*
X174031806Y-122925840D01*
X174531529Y-123426436D01*
X175184782Y-123697691D01*
X175201342Y-123697705D01*
X175032309Y-124104782D01*
X175031692Y-124812114D01*
X175301806Y-125465840D01*
X175801529Y-125966436D01*
X176454782Y-126237691D01*
X177162114Y-126238308D01*
X177815840Y-125968194D01*
X178316436Y-125468471D01*
X178587691Y-124815218D01*
X178588308Y-124107886D01*
X178588308Y-129334062D01*
X177315310Y-130607060D01*
X176684690Y-130607060D01*
X176038815Y-129961185D01*
X175791605Y-129796004D01*
X175500000Y-129738000D01*
X172238308Y-129738000D01*
X172238308Y-121567886D01*
X171968194Y-120914160D01*
X171468471Y-120413564D01*
X170815218Y-120142309D01*
X170107886Y-120141692D01*
X169454160Y-120411806D01*
X168953564Y-120911529D01*
X168682309Y-121564782D01*
X168681692Y-122272114D01*
X168850930Y-122681703D01*
X168837886Y-122681692D01*
X168184160Y-122951806D01*
X167683564Y-123451529D01*
X167412309Y-124104782D01*
X167411692Y-124812114D01*
X167681806Y-125465840D01*
X168181529Y-125966436D01*
X168834782Y-126237691D01*
X169542114Y-126238308D01*
X170195840Y-125968194D01*
X170696436Y-125468471D01*
X170967691Y-124815218D01*
X170968308Y-124107886D01*
X170799069Y-123698296D01*
X170812114Y-123698308D01*
X171465840Y-123428194D01*
X171966436Y-122928471D01*
X172237691Y-122275218D01*
X172238308Y-121567886D01*
X172238308Y-129738000D01*
X168500000Y-129738000D01*
X168208395Y-129796004D01*
X167961184Y-129961185D01*
X166684369Y-131238000D01*
X159588308Y-131238000D01*
X159588308Y-124107886D01*
X159318194Y-123454160D01*
X158818471Y-122953564D01*
X158165218Y-122682309D01*
X158148657Y-122682294D01*
X158317691Y-122275218D01*
X158318308Y-121567886D01*
X158048194Y-120914160D01*
X157548471Y-120413564D01*
X156895218Y-120142309D01*
X156187886Y-120141692D01*
X155534160Y-120411806D01*
X155033564Y-120911529D01*
X154762309Y-121564782D01*
X154761692Y-122272114D01*
X155031806Y-122925840D01*
X155531529Y-123426436D01*
X156184782Y-123697691D01*
X156201342Y-123697705D01*
X156032309Y-124104782D01*
X156031692Y-124812114D01*
X156301806Y-125465840D01*
X156801529Y-125966436D01*
X157454782Y-126237691D01*
X158162114Y-126238308D01*
X158815840Y-125968194D01*
X159316436Y-125468471D01*
X159587691Y-124815218D01*
X159588308Y-124107886D01*
X159588308Y-131238000D01*
X159279738Y-131238000D01*
X159235963Y-131012377D01*
X159096173Y-130799573D01*
X158885140Y-130657123D01*
X158635500Y-130607060D01*
X156984500Y-130607060D01*
X156742377Y-130654037D01*
X156529573Y-130793827D01*
X156387123Y-131004860D01*
X156337060Y-131254500D01*
X156337060Y-132905500D01*
X156384037Y-133147623D01*
X156517805Y-133351260D01*
X156387123Y-133544860D01*
X156370241Y-133629039D01*
X156332440Y-133603523D01*
X156082800Y-133553460D01*
X155244600Y-133553460D01*
X155002477Y-133600437D01*
X154789673Y-133740227D01*
X154647223Y-133951260D01*
X154597160Y-134200900D01*
X154597160Y-135039100D01*
X154644137Y-135281223D01*
X154783927Y-135494027D01*
X154994960Y-135636477D01*
X155244600Y-135686540D01*
X156082800Y-135686540D01*
X156324923Y-135639563D01*
X156369083Y-135610553D01*
X156384037Y-135687623D01*
X156523827Y-135900427D01*
X156734860Y-136042877D01*
X156984500Y-136092940D01*
X158635500Y-136092940D01*
X158877623Y-136045963D01*
X159090427Y-135906173D01*
X159232877Y-135695140D01*
X159282940Y-135445500D01*
X159282940Y-133794500D01*
X159235963Y-133552377D01*
X159102194Y-133348739D01*
X159232877Y-133155140D01*
X159282940Y-132905500D01*
X159282940Y-132762000D01*
X167000000Y-132762000D01*
X167000000Y-132761999D01*
X167291604Y-132703996D01*
X167291605Y-132703996D01*
X167538815Y-132538815D01*
X167729265Y-132348364D01*
X167729247Y-132369237D01*
X167951126Y-132906226D01*
X168361613Y-133317430D01*
X168439578Y-133349804D01*
X168363774Y-133381126D01*
X167952570Y-133791613D01*
X167729754Y-134328214D01*
X167729247Y-134909237D01*
X167951126Y-135446226D01*
X168361613Y-135857430D01*
X168898214Y-136080246D01*
X169479237Y-136080753D01*
X170016226Y-135858874D01*
X170315822Y-135559800D01*
X170553966Y-135559800D01*
X170667560Y-135636477D01*
X170917200Y-135686540D01*
X171755400Y-135686540D01*
X171997523Y-135639563D01*
X172210327Y-135499773D01*
X172352777Y-135288740D01*
X172402840Y-135039100D01*
X172402840Y-134200900D01*
X172355863Y-133958777D01*
X172216073Y-133745973D01*
X172005040Y-133603523D01*
X171755400Y-133553460D01*
X170917200Y-133553460D01*
X170675077Y-133600437D01*
X170553652Y-133680200D01*
X170315498Y-133680200D01*
X170018387Y-133382570D01*
X169940421Y-133350195D01*
X170016226Y-133318874D01*
X170427430Y-132908387D01*
X170650246Y-132371786D01*
X170650753Y-131790763D01*
X170432272Y-131262000D01*
X175184369Y-131262000D01*
X175337060Y-131414690D01*
X175337060Y-132905500D01*
X175384037Y-133147623D01*
X175517805Y-133351260D01*
X175387123Y-133544860D01*
X175370241Y-133629039D01*
X175332440Y-133603523D01*
X175082800Y-133553460D01*
X174244600Y-133553460D01*
X174002477Y-133600437D01*
X173789673Y-133740227D01*
X173647223Y-133951260D01*
X173597160Y-134200900D01*
X173597160Y-135039100D01*
X173644137Y-135281223D01*
X173783927Y-135494027D01*
X173994960Y-135636477D01*
X174244600Y-135686540D01*
X175082800Y-135686540D01*
X175324923Y-135639563D01*
X175369083Y-135610553D01*
X175384037Y-135687623D01*
X175523827Y-135900427D01*
X175734860Y-136042877D01*
X175984500Y-136092940D01*
X177635500Y-136092940D01*
X177877623Y-136045963D01*
X178090427Y-135906173D01*
X178232877Y-135695140D01*
X178282940Y-135445500D01*
X178282940Y-133794500D01*
X178235963Y-133552377D01*
X178102194Y-133348739D01*
X178232877Y-133155140D01*
X178282940Y-132905500D01*
X178282940Y-131794690D01*
X186538815Y-123538815D01*
X186703996Y-123291605D01*
X186761999Y-123000000D01*
X186762000Y-123000000D01*
X186762000Y-122502009D01*
X187244415Y-122179670D01*
X187569271Y-121693489D01*
X187683345Y-121120000D01*
X187683345Y-138315000D01*
X153402840Y-138315000D01*
X153402840Y-135039100D01*
X153402840Y-134200900D01*
X153402840Y-116039100D01*
X153402840Y-115200900D01*
X153355863Y-114958777D01*
X153238308Y-114779821D01*
X153238308Y-102567886D01*
X152968194Y-101914160D01*
X152468471Y-101413564D01*
X151815218Y-101142309D01*
X151107886Y-101141692D01*
X150454160Y-101411806D01*
X149953564Y-101911529D01*
X149682309Y-102564782D01*
X149681692Y-103272114D01*
X149850930Y-103681703D01*
X149837886Y-103681692D01*
X149184160Y-103951806D01*
X148683564Y-104451529D01*
X148412309Y-105104782D01*
X148411692Y-105812114D01*
X148681806Y-106465840D01*
X149181529Y-106966436D01*
X149834782Y-107237691D01*
X150542114Y-107238308D01*
X151195840Y-106968194D01*
X151696436Y-106468471D01*
X151967691Y-105815218D01*
X151968308Y-105107886D01*
X151799069Y-104698296D01*
X151812114Y-104698308D01*
X152465840Y-104428194D01*
X152966436Y-103928471D01*
X153237691Y-103275218D01*
X153238308Y-102567886D01*
X153238308Y-114779821D01*
X153216073Y-114745973D01*
X153005040Y-114603523D01*
X152755400Y-114553460D01*
X151917200Y-114553460D01*
X151675077Y-114600437D01*
X151553652Y-114680200D01*
X151315498Y-114680200D01*
X151018387Y-114382570D01*
X150940421Y-114350195D01*
X151016226Y-114318874D01*
X151427430Y-113908387D01*
X151650246Y-113371786D01*
X151650753Y-112790763D01*
X151428874Y-112253774D01*
X151018387Y-111842570D01*
X150481786Y-111619754D01*
X149900763Y-111619247D01*
X149363774Y-111841126D01*
X148952570Y-112251613D01*
X148729754Y-112788214D01*
X148729247Y-113369237D01*
X148951126Y-113906226D01*
X149361613Y-114317430D01*
X149439578Y-114349804D01*
X149363774Y-114381126D01*
X148952570Y-114791613D01*
X148729754Y-115328214D01*
X148729247Y-115909237D01*
X148951126Y-116446226D01*
X149361613Y-116857430D01*
X149898214Y-117080246D01*
X150479237Y-117080753D01*
X151016226Y-116858874D01*
X151315822Y-116559800D01*
X151553966Y-116559800D01*
X151667560Y-116636477D01*
X151917200Y-116686540D01*
X152755400Y-116686540D01*
X152997523Y-116639563D01*
X153210327Y-116499773D01*
X153352777Y-116288740D01*
X153402840Y-116039100D01*
X153402840Y-134200900D01*
X153355863Y-133958777D01*
X153238308Y-133779821D01*
X153238308Y-121567886D01*
X152968194Y-120914160D01*
X152468471Y-120413564D01*
X151815218Y-120142309D01*
X151107886Y-120141692D01*
X150454160Y-120411806D01*
X149953564Y-120911529D01*
X149682309Y-121564782D01*
X149681692Y-122272114D01*
X149850930Y-122681703D01*
X149837886Y-122681692D01*
X149184160Y-122951806D01*
X148683564Y-123451529D01*
X148412309Y-124104782D01*
X148411692Y-124812114D01*
X148681806Y-125465840D01*
X149181529Y-125966436D01*
X149834782Y-126237691D01*
X150542114Y-126238308D01*
X151195840Y-125968194D01*
X151696436Y-125468471D01*
X151967691Y-124815218D01*
X151968308Y-124107886D01*
X151799069Y-123698296D01*
X151812114Y-123698308D01*
X152465840Y-123428194D01*
X152966436Y-122928471D01*
X153237691Y-122275218D01*
X153238308Y-121567886D01*
X153238308Y-133779821D01*
X153216073Y-133745973D01*
X153005040Y-133603523D01*
X152755400Y-133553460D01*
X151917200Y-133553460D01*
X151675077Y-133600437D01*
X151553652Y-133680200D01*
X151315498Y-133680200D01*
X151018387Y-133382570D01*
X150940421Y-133350195D01*
X151016226Y-133318874D01*
X151427430Y-132908387D01*
X151650246Y-132371786D01*
X151650753Y-131790763D01*
X151428874Y-131253774D01*
X151018387Y-130842570D01*
X150481786Y-130619754D01*
X149900763Y-130619247D01*
X149363774Y-130841126D01*
X148952570Y-131251613D01*
X148729754Y-131788214D01*
X148729247Y-132369237D01*
X148951126Y-132906226D01*
X149361613Y-133317430D01*
X149439578Y-133349804D01*
X149363774Y-133381126D01*
X148952570Y-133791613D01*
X148729754Y-134328214D01*
X148729247Y-134909237D01*
X148951126Y-135446226D01*
X149361613Y-135857430D01*
X149898214Y-136080246D01*
X150479237Y-136080753D01*
X151016226Y-135858874D01*
X151315822Y-135559800D01*
X151553966Y-135559800D01*
X151667560Y-135636477D01*
X151917200Y-135686540D01*
X152755400Y-135686540D01*
X152997523Y-135639563D01*
X153210327Y-135499773D01*
X153352777Y-135288740D01*
X153402840Y-135039100D01*
X153402840Y-138315000D01*
X145685000Y-138315000D01*
X145685000Y-138000000D01*
X145685000Y-99685000D01*
X190315000Y-99685000D01*
X190315000Y-138315000D01*
M02*
