G04 #@! TF.FileFunction,Copper,L2,Bot,Signal*
%FSLAX46Y46*%
G04 Gerber Fmt 4.6, Leading zero omitted, Abs format (unit mm)*
G04 Created by KiCad (PCBNEW (after 2015-jan-16 BZR unknown)-brewed_product) date Sunday, March 08, 2015 'PMt' 01:09:04 PM*
%MOMM*%
G01*
G04 APERTURE LIST*
%ADD10C,0.100000*%
%ADD11C,0.609600*%
%ADD12R,1.727200X2.032000*%
%ADD13O,1.727200X2.032000*%
%ADD14C,2.286000*%
%ADD15C,1.701800*%
%ADD16C,1.651000*%
%ADD17R,1.651000X1.651000*%
%ADD18R,0.838200X0.838200*%
%ADD19C,1.016000*%
%ADD20C,0.406400*%
%ADD21C,0.254000*%
G04 APERTURE END LIST*
D10*
D11*
X184190000Y-138620000D02*
X186336300Y-138620000D01*
X189663700Y-138620000D02*
X191810000Y-138620000D01*
X184190000Y-157620000D02*
X186336300Y-157620000D01*
X189663700Y-157620000D02*
X191810000Y-157620000D01*
X203190000Y-138620000D02*
X205336300Y-138620000D01*
X208663700Y-138620000D02*
X210810000Y-138620000D01*
X203190000Y-157620000D02*
X205336300Y-157620000D01*
X208663700Y-157620000D02*
X210810000Y-157620000D01*
D12*
X185420000Y-162560000D03*
D13*
X187960000Y-162560000D03*
X190500000Y-162560000D03*
X193040000Y-162560000D03*
X195580000Y-162560000D03*
X198120000Y-162560000D03*
X200660000Y-162560000D03*
X203200000Y-162560000D03*
X205740000Y-162560000D03*
X208280000Y-162560000D03*
D14*
X190540000Y-125920000D03*
X184190000Y-128460000D03*
D15*
X182920000Y-131000000D03*
X193080000Y-131000000D03*
D14*
X191810000Y-128460000D03*
X185460000Y-125920000D03*
D16*
X184190000Y-136080000D03*
D17*
X191810000Y-136080000D03*
D16*
X184190000Y-138620000D03*
D17*
X191810000Y-138620000D03*
D18*
X186336300Y-138620000D03*
X189663700Y-138620000D03*
D14*
X190540000Y-144920000D03*
X184190000Y-147460000D03*
D15*
X182920000Y-150000000D03*
X193080000Y-150000000D03*
D14*
X191810000Y-147460000D03*
X185460000Y-144920000D03*
D16*
X184190000Y-155080000D03*
D17*
X191810000Y-155080000D03*
D16*
X184190000Y-157620000D03*
D17*
X191810000Y-157620000D03*
D18*
X186336300Y-157620000D03*
X189663700Y-157620000D03*
D14*
X209540000Y-125920000D03*
X203190000Y-128460000D03*
D15*
X201920000Y-131000000D03*
X212080000Y-131000000D03*
D14*
X210810000Y-128460000D03*
X204460000Y-125920000D03*
D16*
X203190000Y-136080000D03*
D17*
X210810000Y-136080000D03*
D16*
X203190000Y-138620000D03*
D17*
X210810000Y-138620000D03*
D18*
X205336300Y-138620000D03*
X208663700Y-138620000D03*
D14*
X209540000Y-144920000D03*
X203190000Y-147460000D03*
D15*
X201920000Y-150000000D03*
X212080000Y-150000000D03*
D14*
X210810000Y-147460000D03*
X204460000Y-144920000D03*
D16*
X203190000Y-155080000D03*
D17*
X210810000Y-155080000D03*
D16*
X203190000Y-157620000D03*
D17*
X210810000Y-157620000D03*
D18*
X205336300Y-157620000D03*
X208663700Y-157620000D03*
D12*
X185420000Y-119380000D03*
D13*
X187960000Y-119380000D03*
X190500000Y-119380000D03*
X193040000Y-119380000D03*
D12*
X208280000Y-119380000D03*
D13*
X205740000Y-119380000D03*
X203200000Y-119380000D03*
X200660000Y-119380000D03*
X198120000Y-119380000D03*
X195580000Y-119380000D03*
D11*
X190540000Y-125920000D02*
X190500000Y-127000000D01*
D19*
X190540000Y-144920000D02*
X190540000Y-146190000D01*
X190540000Y-146190000D02*
X191810000Y-147460000D01*
X190540000Y-125920000D02*
X190540000Y-127190000D01*
X190540000Y-127190000D02*
X191810000Y-128460000D01*
D20*
X190500000Y-119380000D02*
X195580000Y-124460000D01*
D11*
X195580000Y-138176000D02*
X198120000Y-140716000D01*
X195580000Y-124460000D02*
X195580000Y-138176000D01*
D19*
X210810000Y-136080000D02*
X210810000Y-138620000D01*
X191810000Y-136080000D02*
X191810000Y-138620000D01*
D11*
X191810000Y-138620000D02*
X191960000Y-138620000D01*
X191960000Y-138620000D02*
X194056000Y-140716000D01*
X194056000Y-140716000D02*
X198120000Y-140716000D01*
X198120000Y-140716000D02*
X208714000Y-140716000D01*
X208714000Y-140716000D02*
X210810000Y-138620000D01*
D20*
X193040000Y-119380000D02*
X195580000Y-121920000D01*
D11*
X214376000Y-151514000D02*
X210810000Y-155080000D01*
X214376000Y-127508000D02*
X214376000Y-151514000D01*
X208788000Y-121920000D02*
X214376000Y-127508000D01*
D20*
X195580000Y-121920000D02*
X208788000Y-121920000D01*
D19*
X210810000Y-155080000D02*
X210810000Y-157620000D01*
X191810000Y-155080000D02*
X191810000Y-157620000D01*
D11*
X191810000Y-157620000D02*
X191810000Y-157774000D01*
X191810000Y-157774000D02*
X193548000Y-159512000D01*
X193548000Y-159512000D02*
X208918000Y-159512000D01*
X208918000Y-159512000D02*
X210810000Y-157620000D01*
D19*
X209540000Y-146190000D02*
X210810000Y-147460000D01*
X209540000Y-144920000D02*
X209540000Y-146190000D01*
X209540000Y-125920000D02*
X209540000Y-127190000D01*
X209540000Y-127190000D02*
X210810000Y-128460000D01*
D11*
X184190000Y-128460000D02*
X184190000Y-129326000D01*
X184190000Y-129326000D02*
X184912000Y-130048000D01*
X184912000Y-135358000D02*
X184190000Y-136080000D01*
X184912000Y-130048000D02*
X184912000Y-135358000D01*
D19*
X184190000Y-136080000D02*
X184190000Y-138620000D01*
X185460000Y-125920000D02*
X185460000Y-127190000D01*
X185460000Y-127190000D02*
X184190000Y-128460000D01*
D11*
X184190000Y-147460000D02*
X184190000Y-148630000D01*
X184912000Y-154358000D02*
X184190000Y-155080000D01*
X184912000Y-149352000D02*
X184912000Y-154358000D01*
X184190000Y-148630000D02*
X184912000Y-149352000D01*
D19*
X184190000Y-155080000D02*
X184190000Y-157620000D01*
X185460000Y-144920000D02*
X185460000Y-146190000D01*
X185460000Y-146190000D02*
X184190000Y-147460000D01*
D11*
X203190000Y-128460000D02*
X203190000Y-129530000D01*
X203190000Y-129530000D02*
X203708000Y-130048000D01*
X203708000Y-130048000D02*
X203708000Y-135562000D01*
X203708000Y-135562000D02*
X203190000Y-136080000D01*
D19*
X203190000Y-136080000D02*
X203190000Y-138620000D01*
X204460000Y-125920000D02*
X204460000Y-127190000D01*
X204460000Y-127190000D02*
X203190000Y-128460000D01*
D11*
X203708000Y-154562000D02*
X203190000Y-155080000D01*
X203708000Y-149352000D02*
X203708000Y-154562000D01*
X203190000Y-148834000D02*
X203708000Y-149352000D01*
X203190000Y-147460000D02*
X203190000Y-148834000D01*
D19*
X203190000Y-155080000D02*
X203190000Y-157620000D01*
X204460000Y-144920000D02*
X204460000Y-146190000D01*
X204460000Y-146190000D02*
X203190000Y-147460000D01*
D21*
G36*
X215723000Y-163907000D02*
X215392000Y-163907000D01*
X209186140Y-163907000D01*
X209339670Y-163804415D01*
X209664526Y-163318234D01*
X209778600Y-162744745D01*
X209778600Y-162375255D01*
X209664526Y-161801766D01*
X209339670Y-161315585D01*
X208853489Y-160990729D01*
X208280000Y-160876655D01*
X207706511Y-160990729D01*
X207220330Y-161315585D01*
X207010000Y-161630365D01*
X206799670Y-161315585D01*
X206313489Y-160990729D01*
X205740000Y-160876655D01*
X205166511Y-160990729D01*
X204680330Y-161315585D01*
X204470000Y-161630365D01*
X204259670Y-161315585D01*
X203773489Y-160990729D01*
X203200000Y-160876655D01*
X202626511Y-160990729D01*
X202140330Y-161315585D01*
X201930000Y-161630365D01*
X201719670Y-161315585D01*
X201233489Y-160990729D01*
X200660000Y-160876655D01*
X200086511Y-160990729D01*
X199600330Y-161315585D01*
X199390000Y-161630365D01*
X199179670Y-161315585D01*
X198693489Y-160990729D01*
X198120000Y-160876655D01*
X197546511Y-160990729D01*
X197060330Y-161315585D01*
X196850000Y-161630365D01*
X196639670Y-161315585D01*
X196153489Y-160990729D01*
X195580000Y-160876655D01*
X195006511Y-160990729D01*
X194520330Y-161315585D01*
X194310000Y-161630365D01*
X194099670Y-161315585D01*
X193613489Y-160990729D01*
X193040000Y-160876655D01*
X192466511Y-160990729D01*
X191980330Y-161315585D01*
X191770000Y-161630365D01*
X191559670Y-161315585D01*
X191073489Y-160990729D01*
X190500000Y-160876655D01*
X189926511Y-160990729D01*
X189440330Y-161315585D01*
X189230000Y-161630365D01*
X189019670Y-161315585D01*
X188533489Y-160990729D01*
X187960000Y-160876655D01*
X187402840Y-160987480D01*
X187402840Y-158039100D01*
X187402840Y-157200900D01*
X187402840Y-139039100D01*
X187402840Y-138200900D01*
X187355863Y-137958777D01*
X187216073Y-137745973D01*
X187005040Y-137603523D01*
X186755400Y-137553460D01*
X185917200Y-137553460D01*
X185675077Y-137600437D01*
X185553652Y-137680200D01*
X185333000Y-137680200D01*
X185333000Y-137002652D01*
X185427430Y-136908387D01*
X185650246Y-136371786D01*
X185650647Y-135911627D01*
X185780262Y-135717646D01*
X185851800Y-135358000D01*
X185851800Y-130048000D01*
X185780262Y-129688354D01*
X185658586Y-129506254D01*
X185696436Y-129468471D01*
X185967691Y-128815218D01*
X185968141Y-128298304D01*
X186268223Y-127998223D01*
X186515994Y-127627407D01*
X186577864Y-127316365D01*
X186966436Y-126928471D01*
X187237691Y-126275218D01*
X187238308Y-125567886D01*
X186968194Y-124914160D01*
X186468471Y-124413564D01*
X185815218Y-124142309D01*
X185107886Y-124141692D01*
X184454160Y-124411806D01*
X183953564Y-124911529D01*
X183682309Y-125564782D01*
X183681692Y-126272114D01*
X183850930Y-126681703D01*
X183837886Y-126681692D01*
X183184160Y-126951806D01*
X182683564Y-127451529D01*
X182412309Y-128104782D01*
X182411692Y-128812114D01*
X182681806Y-129465840D01*
X183181529Y-129966436D01*
X183728467Y-130193545D01*
X183972200Y-130437278D01*
X183972200Y-134619309D01*
X183900763Y-134619247D01*
X183363774Y-134841126D01*
X182952570Y-135251613D01*
X182729754Y-135788214D01*
X182729247Y-136369237D01*
X182951126Y-136906226D01*
X183047000Y-137002267D01*
X183047000Y-137697347D01*
X182952570Y-137791613D01*
X182729754Y-138328214D01*
X182729247Y-138909237D01*
X182951126Y-139446226D01*
X183361613Y-139857430D01*
X183898214Y-140080246D01*
X184479237Y-140080753D01*
X185016226Y-139858874D01*
X185315822Y-139559800D01*
X185553966Y-139559800D01*
X185667560Y-139636477D01*
X185917200Y-139686540D01*
X186755400Y-139686540D01*
X186997523Y-139639563D01*
X187210327Y-139499773D01*
X187352777Y-139288740D01*
X187402840Y-139039100D01*
X187402840Y-157200900D01*
X187355863Y-156958777D01*
X187216073Y-156745973D01*
X187005040Y-156603523D01*
X186755400Y-156553460D01*
X185917200Y-156553460D01*
X185675077Y-156600437D01*
X185553652Y-156680200D01*
X185333000Y-156680200D01*
X185333000Y-156002652D01*
X185427430Y-155908387D01*
X185650246Y-155371786D01*
X185650647Y-154911627D01*
X185780262Y-154717646D01*
X185851800Y-154358000D01*
X185851800Y-149352000D01*
X185780262Y-148992354D01*
X185576539Y-148687461D01*
X185526844Y-148637766D01*
X185696436Y-148468471D01*
X185967691Y-147815218D01*
X185968141Y-147298304D01*
X186268223Y-146998223D01*
X186515994Y-146627407D01*
X186577864Y-146316365D01*
X186966436Y-145928471D01*
X187237691Y-145275218D01*
X187238308Y-144567886D01*
X186968194Y-143914160D01*
X186468471Y-143413564D01*
X185815218Y-143142309D01*
X185107886Y-143141692D01*
X184454160Y-143411806D01*
X183953564Y-143911529D01*
X183682309Y-144564782D01*
X183681692Y-145272114D01*
X183850930Y-145681703D01*
X183837886Y-145681692D01*
X183184160Y-145951806D01*
X182683564Y-146451529D01*
X182412309Y-147104782D01*
X182411692Y-147812114D01*
X182681806Y-148465840D01*
X183181529Y-148966436D01*
X183354113Y-149038099D01*
X183525461Y-149294539D01*
X183972200Y-149741278D01*
X183972200Y-153619309D01*
X183900763Y-153619247D01*
X183363774Y-153841126D01*
X182952570Y-154251613D01*
X182729754Y-154788214D01*
X182729247Y-155369237D01*
X182951126Y-155906226D01*
X183047000Y-156002267D01*
X183047000Y-156697347D01*
X182952570Y-156791613D01*
X182729754Y-157328214D01*
X182729247Y-157909237D01*
X182951126Y-158446226D01*
X183361613Y-158857430D01*
X183898214Y-159080246D01*
X184479237Y-159080753D01*
X185016226Y-158858874D01*
X185315822Y-158559800D01*
X185553966Y-158559800D01*
X185667560Y-158636477D01*
X185917200Y-158686540D01*
X186755400Y-158686540D01*
X186997523Y-158639563D01*
X187210327Y-158499773D01*
X187352777Y-158288740D01*
X187402840Y-158039100D01*
X187402840Y-160987480D01*
X187386511Y-160990729D01*
X186900330Y-161315585D01*
X186889784Y-161331367D01*
X186884063Y-161301877D01*
X186744273Y-161089073D01*
X186533240Y-160946623D01*
X186283600Y-160896560D01*
X184556400Y-160896560D01*
X184314277Y-160943537D01*
X184101473Y-161083327D01*
X183959023Y-161294360D01*
X183908960Y-161544000D01*
X183908960Y-163576000D01*
X183955937Y-163818123D01*
X184014319Y-163907000D01*
X181533000Y-163907000D01*
X181533000Y-118033000D01*
X184013942Y-118033000D01*
X183959023Y-118114360D01*
X183908960Y-118364000D01*
X183908960Y-120396000D01*
X183955937Y-120638123D01*
X184095727Y-120850927D01*
X184306760Y-120993377D01*
X184556400Y-121043440D01*
X186283600Y-121043440D01*
X186525723Y-120996463D01*
X186738527Y-120856673D01*
X186880977Y-120645640D01*
X186888718Y-120607037D01*
X186900330Y-120624415D01*
X187386511Y-120949271D01*
X187960000Y-121063345D01*
X188533489Y-120949271D01*
X189019670Y-120624415D01*
X189230000Y-120309634D01*
X189440330Y-120624415D01*
X189926511Y-120949271D01*
X190500000Y-121063345D01*
X190915335Y-120980729D01*
X194640200Y-124705594D01*
X194640200Y-138176000D01*
X194711738Y-138535646D01*
X194915461Y-138840539D01*
X195851122Y-139776200D01*
X194445278Y-139776200D01*
X193588308Y-138919230D01*
X193588308Y-128107886D01*
X193318194Y-127454160D01*
X192818471Y-126953564D01*
X192165218Y-126682309D01*
X192148657Y-126682294D01*
X192317691Y-126275218D01*
X192318308Y-125567886D01*
X192048194Y-124914160D01*
X191548471Y-124413564D01*
X190895218Y-124142309D01*
X190187886Y-124141692D01*
X189534160Y-124411806D01*
X189033564Y-124911529D01*
X188762309Y-125564782D01*
X188761692Y-126272114D01*
X189031806Y-126925840D01*
X189422256Y-127316972D01*
X189484006Y-127627407D01*
X189731777Y-127998223D01*
X190032139Y-128298585D01*
X190031692Y-128812114D01*
X190301806Y-129465840D01*
X190801529Y-129966436D01*
X191454782Y-130237691D01*
X192162114Y-130238308D01*
X192815840Y-129968194D01*
X193316436Y-129468471D01*
X193587691Y-128815218D01*
X193588308Y-128107886D01*
X193588308Y-138919230D01*
X193282940Y-138613862D01*
X193282940Y-137794500D01*
X193235963Y-137552377D01*
X193102194Y-137348739D01*
X193232877Y-137155140D01*
X193282940Y-136905500D01*
X193282940Y-135254500D01*
X193235963Y-135012377D01*
X193096173Y-134799573D01*
X192885140Y-134657123D01*
X192635500Y-134607060D01*
X190984500Y-134607060D01*
X190742377Y-134654037D01*
X190529573Y-134793827D01*
X190387123Y-135004860D01*
X190337060Y-135254500D01*
X190337060Y-136905500D01*
X190384037Y-137147623D01*
X190517805Y-137351260D01*
X190387123Y-137544860D01*
X190370241Y-137629039D01*
X190332440Y-137603523D01*
X190082800Y-137553460D01*
X189244600Y-137553460D01*
X189002477Y-137600437D01*
X188789673Y-137740227D01*
X188647223Y-137951260D01*
X188597160Y-138200900D01*
X188597160Y-139039100D01*
X188644137Y-139281223D01*
X188783927Y-139494027D01*
X188994960Y-139636477D01*
X189244600Y-139686540D01*
X190082800Y-139686540D01*
X190324923Y-139639563D01*
X190369083Y-139610553D01*
X190384037Y-139687623D01*
X190523827Y-139900427D01*
X190734860Y-140042877D01*
X190984500Y-140092940D01*
X192103862Y-140092940D01*
X193391461Y-141380539D01*
X193696354Y-141584262D01*
X194056000Y-141655800D01*
X198120000Y-141655800D01*
X208714000Y-141655800D01*
X209073646Y-141584262D01*
X209378539Y-141380539D01*
X210666138Y-140092940D01*
X211635500Y-140092940D01*
X211877623Y-140045963D01*
X212090427Y-139906173D01*
X212232877Y-139695140D01*
X212282940Y-139445500D01*
X212282940Y-137794500D01*
X212235963Y-137552377D01*
X212102194Y-137348739D01*
X212232877Y-137155140D01*
X212282940Y-136905500D01*
X212282940Y-135254500D01*
X212235963Y-135012377D01*
X212096173Y-134799573D01*
X211885140Y-134657123D01*
X211635500Y-134607060D01*
X209984500Y-134607060D01*
X209742377Y-134654037D01*
X209529573Y-134793827D01*
X209387123Y-135004860D01*
X209337060Y-135254500D01*
X209337060Y-136905500D01*
X209384037Y-137147623D01*
X209517805Y-137351260D01*
X209387123Y-137544860D01*
X209370241Y-137629039D01*
X209332440Y-137603523D01*
X209082800Y-137553460D01*
X208244600Y-137553460D01*
X208002477Y-137600437D01*
X207789673Y-137740227D01*
X207647223Y-137951260D01*
X207597160Y-138200900D01*
X207597160Y-139039100D01*
X207644137Y-139281223D01*
X207783927Y-139494027D01*
X207994960Y-139636477D01*
X208244600Y-139686540D01*
X208414382Y-139686540D01*
X208324722Y-139776200D01*
X204099044Y-139776200D01*
X204315822Y-139559800D01*
X204553966Y-139559800D01*
X204667560Y-139636477D01*
X204917200Y-139686540D01*
X205755400Y-139686540D01*
X205997523Y-139639563D01*
X206210327Y-139499773D01*
X206352777Y-139288740D01*
X206402840Y-139039100D01*
X206402840Y-138200900D01*
X206355863Y-137958777D01*
X206216073Y-137745973D01*
X206005040Y-137603523D01*
X205755400Y-137553460D01*
X204917200Y-137553460D01*
X204675077Y-137600437D01*
X204553652Y-137680200D01*
X204333000Y-137680200D01*
X204333000Y-137002652D01*
X204427430Y-136908387D01*
X204650246Y-136371786D01*
X204650753Y-135790763D01*
X204618042Y-135711598D01*
X204647800Y-135562000D01*
X204647800Y-130048000D01*
X204576262Y-129688354D01*
X204536212Y-129628415D01*
X204696436Y-129468471D01*
X204967691Y-128815218D01*
X204968141Y-128298304D01*
X205268223Y-127998223D01*
X205515994Y-127627407D01*
X205577864Y-127316365D01*
X205966436Y-126928471D01*
X206237691Y-126275218D01*
X206238308Y-125567886D01*
X205968194Y-124914160D01*
X205468471Y-124413564D01*
X204815218Y-124142309D01*
X204107886Y-124141692D01*
X203454160Y-124411806D01*
X202953564Y-124911529D01*
X202682309Y-125564782D01*
X202681692Y-126272114D01*
X202850930Y-126681703D01*
X202837886Y-126681692D01*
X202184160Y-126951806D01*
X201683564Y-127451529D01*
X201412309Y-128104782D01*
X201411692Y-128812114D01*
X201681806Y-129465840D01*
X202181529Y-129966436D01*
X202446589Y-130076498D01*
X202525461Y-130194539D01*
X202768200Y-130437278D01*
X202768200Y-134674020D01*
X202363774Y-134841126D01*
X201952570Y-135251613D01*
X201729754Y-135788214D01*
X201729247Y-136369237D01*
X201951126Y-136906226D01*
X202047000Y-137002267D01*
X202047000Y-137697347D01*
X201952570Y-137791613D01*
X201729754Y-138328214D01*
X201729247Y-138909237D01*
X201951126Y-139446226D01*
X202280524Y-139776200D01*
X198509278Y-139776200D01*
X196519800Y-137786722D01*
X196519800Y-124460000D01*
X196448262Y-124100354D01*
X196244539Y-123795461D01*
X195939646Y-123591738D01*
X195886575Y-123581181D01*
X193314197Y-121008803D01*
X193455335Y-120980729D01*
X194987303Y-122512697D01*
X195259234Y-122694395D01*
X195259235Y-122694396D01*
X195580000Y-122758200D01*
X208297122Y-122758200D01*
X209681044Y-124142122D01*
X209187886Y-124141692D01*
X208534160Y-124411806D01*
X208033564Y-124911529D01*
X207762309Y-125564782D01*
X207761692Y-126272114D01*
X208031806Y-126925840D01*
X208422256Y-127316972D01*
X208484006Y-127627407D01*
X208731777Y-127998223D01*
X209032139Y-128298585D01*
X209031692Y-128812114D01*
X209301806Y-129465840D01*
X209801529Y-129966436D01*
X210454782Y-130237691D01*
X211162114Y-130238308D01*
X211815840Y-129968194D01*
X212316436Y-129468471D01*
X212587691Y-128815218D01*
X212588308Y-128107886D01*
X212318194Y-127454160D01*
X211818471Y-126953564D01*
X211165218Y-126682309D01*
X211148657Y-126682294D01*
X211317691Y-126275218D01*
X211318123Y-125779201D01*
X213436200Y-127897278D01*
X213436200Y-151124722D01*
X212588308Y-151972614D01*
X212588308Y-147107886D01*
X212318194Y-146454160D01*
X211818471Y-145953564D01*
X211165218Y-145682309D01*
X211148657Y-145682294D01*
X211317691Y-145275218D01*
X211318308Y-144567886D01*
X211048194Y-143914160D01*
X210548471Y-143413564D01*
X209895218Y-143142309D01*
X209187886Y-143141692D01*
X208534160Y-143411806D01*
X208033564Y-143911529D01*
X207762309Y-144564782D01*
X207761692Y-145272114D01*
X208031806Y-145925840D01*
X208422256Y-146316972D01*
X208484006Y-146627407D01*
X208731777Y-146998223D01*
X209032139Y-147298585D01*
X209031692Y-147812114D01*
X209301806Y-148465840D01*
X209801529Y-148966436D01*
X210454782Y-149237691D01*
X211162114Y-149238308D01*
X211815840Y-148968194D01*
X212316436Y-148468471D01*
X212587691Y-147815218D01*
X212588308Y-147107886D01*
X212588308Y-151972614D01*
X210953862Y-153607060D01*
X209984500Y-153607060D01*
X209742377Y-153654037D01*
X209529573Y-153793827D01*
X209387123Y-154004860D01*
X209337060Y-154254500D01*
X209337060Y-155905500D01*
X209384037Y-156147623D01*
X209517805Y-156351260D01*
X209387123Y-156544860D01*
X209370241Y-156629039D01*
X209332440Y-156603523D01*
X209082800Y-156553460D01*
X208244600Y-156553460D01*
X208002477Y-156600437D01*
X207789673Y-156740227D01*
X207647223Y-156951260D01*
X207597160Y-157200900D01*
X207597160Y-158039100D01*
X207644137Y-158281223D01*
X207783927Y-158494027D01*
X207899736Y-158572200D01*
X206100070Y-158572200D01*
X206210327Y-158499773D01*
X206352777Y-158288740D01*
X206402840Y-158039100D01*
X206402840Y-157200900D01*
X206355863Y-156958777D01*
X206216073Y-156745973D01*
X206005040Y-156603523D01*
X205755400Y-156553460D01*
X204917200Y-156553460D01*
X204675077Y-156600437D01*
X204553652Y-156680200D01*
X204333000Y-156680200D01*
X204333000Y-156002652D01*
X204427430Y-155908387D01*
X204650246Y-155371786D01*
X204650753Y-154790763D01*
X204618042Y-154711598D01*
X204647800Y-154562000D01*
X204647800Y-149352000D01*
X204576262Y-148992354D01*
X204414361Y-148750053D01*
X204696436Y-148468471D01*
X204967691Y-147815218D01*
X204968141Y-147298304D01*
X205268223Y-146998223D01*
X205515994Y-146627407D01*
X205577864Y-146316365D01*
X205966436Y-145928471D01*
X206237691Y-145275218D01*
X206238308Y-144567886D01*
X205968194Y-143914160D01*
X205468471Y-143413564D01*
X204815218Y-143142309D01*
X204107886Y-143141692D01*
X203454160Y-143411806D01*
X202953564Y-143911529D01*
X202682309Y-144564782D01*
X202681692Y-145272114D01*
X202850930Y-145681703D01*
X202837886Y-145681692D01*
X202184160Y-145951806D01*
X201683564Y-146451529D01*
X201412309Y-147104782D01*
X201411692Y-147812114D01*
X201681806Y-148465840D01*
X202181529Y-148966436D01*
X202285097Y-149009441D01*
X202321738Y-149193646D01*
X202525461Y-149498539D01*
X202768200Y-149741278D01*
X202768200Y-153674020D01*
X202363774Y-153841126D01*
X201952570Y-154251613D01*
X201729754Y-154788214D01*
X201729247Y-155369237D01*
X201951126Y-155906226D01*
X202047000Y-156002267D01*
X202047000Y-156697347D01*
X201952570Y-156791613D01*
X201729754Y-157328214D01*
X201729247Y-157909237D01*
X201951126Y-158446226D01*
X202076880Y-158572200D01*
X193937278Y-158572200D01*
X193588308Y-158223230D01*
X193588308Y-147107886D01*
X193318194Y-146454160D01*
X192818471Y-145953564D01*
X192165218Y-145682309D01*
X192148657Y-145682294D01*
X192317691Y-145275218D01*
X192318308Y-144567886D01*
X192048194Y-143914160D01*
X191548471Y-143413564D01*
X190895218Y-143142309D01*
X190187886Y-143141692D01*
X189534160Y-143411806D01*
X189033564Y-143911529D01*
X188762309Y-144564782D01*
X188761692Y-145272114D01*
X189031806Y-145925840D01*
X189422256Y-146316972D01*
X189484006Y-146627407D01*
X189731777Y-146998223D01*
X190032139Y-147298585D01*
X190031692Y-147812114D01*
X190301806Y-148465840D01*
X190801529Y-148966436D01*
X191454782Y-149237691D01*
X192162114Y-149238308D01*
X192815840Y-148968194D01*
X193316436Y-148468471D01*
X193587691Y-147815218D01*
X193588308Y-147107886D01*
X193588308Y-158223230D01*
X193282940Y-157917862D01*
X193282940Y-156794500D01*
X193235963Y-156552377D01*
X193102194Y-156348739D01*
X193232877Y-156155140D01*
X193282940Y-155905500D01*
X193282940Y-154254500D01*
X193235963Y-154012377D01*
X193096173Y-153799573D01*
X192885140Y-153657123D01*
X192635500Y-153607060D01*
X190984500Y-153607060D01*
X190742377Y-153654037D01*
X190529573Y-153793827D01*
X190387123Y-154004860D01*
X190337060Y-154254500D01*
X190337060Y-155905500D01*
X190384037Y-156147623D01*
X190517805Y-156351260D01*
X190387123Y-156544860D01*
X190370241Y-156629039D01*
X190332440Y-156603523D01*
X190082800Y-156553460D01*
X189244600Y-156553460D01*
X189002477Y-156600437D01*
X188789673Y-156740227D01*
X188647223Y-156951260D01*
X188597160Y-157200900D01*
X188597160Y-158039100D01*
X188644137Y-158281223D01*
X188783927Y-158494027D01*
X188994960Y-158636477D01*
X189244600Y-158686540D01*
X190082800Y-158686540D01*
X190324923Y-158639563D01*
X190369083Y-158610553D01*
X190384037Y-158687623D01*
X190523827Y-158900427D01*
X190734860Y-159042877D01*
X190984500Y-159092940D01*
X191799862Y-159092940D01*
X192883461Y-160176539D01*
X193188354Y-160380262D01*
X193548000Y-160451800D01*
X208918000Y-160451800D01*
X209277646Y-160380262D01*
X209582539Y-160176539D01*
X210666138Y-159092940D01*
X211635500Y-159092940D01*
X211877623Y-159045963D01*
X212090427Y-158906173D01*
X212232877Y-158695140D01*
X212282940Y-158445500D01*
X212282940Y-156794500D01*
X212235963Y-156552377D01*
X212102194Y-156348739D01*
X212232877Y-156155140D01*
X212282940Y-155905500D01*
X212282940Y-154936138D01*
X215040539Y-152178539D01*
X215244262Y-151873646D01*
X215315800Y-151514000D01*
X215315800Y-127508000D01*
X215244262Y-127148354D01*
X215040539Y-126843461D01*
X209452539Y-121255461D01*
X209147646Y-121051738D01*
X209105929Y-121043440D01*
X209143600Y-121043440D01*
X209385723Y-120996463D01*
X209598527Y-120856673D01*
X209740977Y-120645640D01*
X209791040Y-120396000D01*
X209791040Y-118364000D01*
X209744063Y-118121877D01*
X209685680Y-118033000D01*
X215392000Y-118033000D01*
X215723000Y-118033000D01*
X215723000Y-163907000D01*
X215723000Y-163907000D01*
G37*
X215723000Y-163907000D02*
X215392000Y-163907000D01*
X209186140Y-163907000D01*
X209339670Y-163804415D01*
X209664526Y-163318234D01*
X209778600Y-162744745D01*
X209778600Y-162375255D01*
X209664526Y-161801766D01*
X209339670Y-161315585D01*
X208853489Y-160990729D01*
X208280000Y-160876655D01*
X207706511Y-160990729D01*
X207220330Y-161315585D01*
X207010000Y-161630365D01*
X206799670Y-161315585D01*
X206313489Y-160990729D01*
X205740000Y-160876655D01*
X205166511Y-160990729D01*
X204680330Y-161315585D01*
X204470000Y-161630365D01*
X204259670Y-161315585D01*
X203773489Y-160990729D01*
X203200000Y-160876655D01*
X202626511Y-160990729D01*
X202140330Y-161315585D01*
X201930000Y-161630365D01*
X201719670Y-161315585D01*
X201233489Y-160990729D01*
X200660000Y-160876655D01*
X200086511Y-160990729D01*
X199600330Y-161315585D01*
X199390000Y-161630365D01*
X199179670Y-161315585D01*
X198693489Y-160990729D01*
X198120000Y-160876655D01*
X197546511Y-160990729D01*
X197060330Y-161315585D01*
X196850000Y-161630365D01*
X196639670Y-161315585D01*
X196153489Y-160990729D01*
X195580000Y-160876655D01*
X195006511Y-160990729D01*
X194520330Y-161315585D01*
X194310000Y-161630365D01*
X194099670Y-161315585D01*
X193613489Y-160990729D01*
X193040000Y-160876655D01*
X192466511Y-160990729D01*
X191980330Y-161315585D01*
X191770000Y-161630365D01*
X191559670Y-161315585D01*
X191073489Y-160990729D01*
X190500000Y-160876655D01*
X189926511Y-160990729D01*
X189440330Y-161315585D01*
X189230000Y-161630365D01*
X189019670Y-161315585D01*
X188533489Y-160990729D01*
X187960000Y-160876655D01*
X187402840Y-160987480D01*
X187402840Y-158039100D01*
X187402840Y-157200900D01*
X187402840Y-139039100D01*
X187402840Y-138200900D01*
X187355863Y-137958777D01*
X187216073Y-137745973D01*
X187005040Y-137603523D01*
X186755400Y-137553460D01*
X185917200Y-137553460D01*
X185675077Y-137600437D01*
X185553652Y-137680200D01*
X185333000Y-137680200D01*
X185333000Y-137002652D01*
X185427430Y-136908387D01*
X185650246Y-136371786D01*
X185650647Y-135911627D01*
X185780262Y-135717646D01*
X185851800Y-135358000D01*
X185851800Y-130048000D01*
X185780262Y-129688354D01*
X185658586Y-129506254D01*
X185696436Y-129468471D01*
X185967691Y-128815218D01*
X185968141Y-128298304D01*
X186268223Y-127998223D01*
X186515994Y-127627407D01*
X186577864Y-127316365D01*
X186966436Y-126928471D01*
X187237691Y-126275218D01*
X187238308Y-125567886D01*
X186968194Y-124914160D01*
X186468471Y-124413564D01*
X185815218Y-124142309D01*
X185107886Y-124141692D01*
X184454160Y-124411806D01*
X183953564Y-124911529D01*
X183682309Y-125564782D01*
X183681692Y-126272114D01*
X183850930Y-126681703D01*
X183837886Y-126681692D01*
X183184160Y-126951806D01*
X182683564Y-127451529D01*
X182412309Y-128104782D01*
X182411692Y-128812114D01*
X182681806Y-129465840D01*
X183181529Y-129966436D01*
X183728467Y-130193545D01*
X183972200Y-130437278D01*
X183972200Y-134619309D01*
X183900763Y-134619247D01*
X183363774Y-134841126D01*
X182952570Y-135251613D01*
X182729754Y-135788214D01*
X182729247Y-136369237D01*
X182951126Y-136906226D01*
X183047000Y-137002267D01*
X183047000Y-137697347D01*
X182952570Y-137791613D01*
X182729754Y-138328214D01*
X182729247Y-138909237D01*
X182951126Y-139446226D01*
X183361613Y-139857430D01*
X183898214Y-140080246D01*
X184479237Y-140080753D01*
X185016226Y-139858874D01*
X185315822Y-139559800D01*
X185553966Y-139559800D01*
X185667560Y-139636477D01*
X185917200Y-139686540D01*
X186755400Y-139686540D01*
X186997523Y-139639563D01*
X187210327Y-139499773D01*
X187352777Y-139288740D01*
X187402840Y-139039100D01*
X187402840Y-157200900D01*
X187355863Y-156958777D01*
X187216073Y-156745973D01*
X187005040Y-156603523D01*
X186755400Y-156553460D01*
X185917200Y-156553460D01*
X185675077Y-156600437D01*
X185553652Y-156680200D01*
X185333000Y-156680200D01*
X185333000Y-156002652D01*
X185427430Y-155908387D01*
X185650246Y-155371786D01*
X185650647Y-154911627D01*
X185780262Y-154717646D01*
X185851800Y-154358000D01*
X185851800Y-149352000D01*
X185780262Y-148992354D01*
X185576539Y-148687461D01*
X185526844Y-148637766D01*
X185696436Y-148468471D01*
X185967691Y-147815218D01*
X185968141Y-147298304D01*
X186268223Y-146998223D01*
X186515994Y-146627407D01*
X186577864Y-146316365D01*
X186966436Y-145928471D01*
X187237691Y-145275218D01*
X187238308Y-144567886D01*
X186968194Y-143914160D01*
X186468471Y-143413564D01*
X185815218Y-143142309D01*
X185107886Y-143141692D01*
X184454160Y-143411806D01*
X183953564Y-143911529D01*
X183682309Y-144564782D01*
X183681692Y-145272114D01*
X183850930Y-145681703D01*
X183837886Y-145681692D01*
X183184160Y-145951806D01*
X182683564Y-146451529D01*
X182412309Y-147104782D01*
X182411692Y-147812114D01*
X182681806Y-148465840D01*
X183181529Y-148966436D01*
X183354113Y-149038099D01*
X183525461Y-149294539D01*
X183972200Y-149741278D01*
X183972200Y-153619309D01*
X183900763Y-153619247D01*
X183363774Y-153841126D01*
X182952570Y-154251613D01*
X182729754Y-154788214D01*
X182729247Y-155369237D01*
X182951126Y-155906226D01*
X183047000Y-156002267D01*
X183047000Y-156697347D01*
X182952570Y-156791613D01*
X182729754Y-157328214D01*
X182729247Y-157909237D01*
X182951126Y-158446226D01*
X183361613Y-158857430D01*
X183898214Y-159080246D01*
X184479237Y-159080753D01*
X185016226Y-158858874D01*
X185315822Y-158559800D01*
X185553966Y-158559800D01*
X185667560Y-158636477D01*
X185917200Y-158686540D01*
X186755400Y-158686540D01*
X186997523Y-158639563D01*
X187210327Y-158499773D01*
X187352777Y-158288740D01*
X187402840Y-158039100D01*
X187402840Y-160987480D01*
X187386511Y-160990729D01*
X186900330Y-161315585D01*
X186889784Y-161331367D01*
X186884063Y-161301877D01*
X186744273Y-161089073D01*
X186533240Y-160946623D01*
X186283600Y-160896560D01*
X184556400Y-160896560D01*
X184314277Y-160943537D01*
X184101473Y-161083327D01*
X183959023Y-161294360D01*
X183908960Y-161544000D01*
X183908960Y-163576000D01*
X183955937Y-163818123D01*
X184014319Y-163907000D01*
X181533000Y-163907000D01*
X181533000Y-118033000D01*
X184013942Y-118033000D01*
X183959023Y-118114360D01*
X183908960Y-118364000D01*
X183908960Y-120396000D01*
X183955937Y-120638123D01*
X184095727Y-120850927D01*
X184306760Y-120993377D01*
X184556400Y-121043440D01*
X186283600Y-121043440D01*
X186525723Y-120996463D01*
X186738527Y-120856673D01*
X186880977Y-120645640D01*
X186888718Y-120607037D01*
X186900330Y-120624415D01*
X187386511Y-120949271D01*
X187960000Y-121063345D01*
X188533489Y-120949271D01*
X189019670Y-120624415D01*
X189230000Y-120309634D01*
X189440330Y-120624415D01*
X189926511Y-120949271D01*
X190500000Y-121063345D01*
X190915335Y-120980729D01*
X194640200Y-124705594D01*
X194640200Y-138176000D01*
X194711738Y-138535646D01*
X194915461Y-138840539D01*
X195851122Y-139776200D01*
X194445278Y-139776200D01*
X193588308Y-138919230D01*
X193588308Y-128107886D01*
X193318194Y-127454160D01*
X192818471Y-126953564D01*
X192165218Y-126682309D01*
X192148657Y-126682294D01*
X192317691Y-126275218D01*
X192318308Y-125567886D01*
X192048194Y-124914160D01*
X191548471Y-124413564D01*
X190895218Y-124142309D01*
X190187886Y-124141692D01*
X189534160Y-124411806D01*
X189033564Y-124911529D01*
X188762309Y-125564782D01*
X188761692Y-126272114D01*
X189031806Y-126925840D01*
X189422256Y-127316972D01*
X189484006Y-127627407D01*
X189731777Y-127998223D01*
X190032139Y-128298585D01*
X190031692Y-128812114D01*
X190301806Y-129465840D01*
X190801529Y-129966436D01*
X191454782Y-130237691D01*
X192162114Y-130238308D01*
X192815840Y-129968194D01*
X193316436Y-129468471D01*
X193587691Y-128815218D01*
X193588308Y-128107886D01*
X193588308Y-138919230D01*
X193282940Y-138613862D01*
X193282940Y-137794500D01*
X193235963Y-137552377D01*
X193102194Y-137348739D01*
X193232877Y-137155140D01*
X193282940Y-136905500D01*
X193282940Y-135254500D01*
X193235963Y-135012377D01*
X193096173Y-134799573D01*
X192885140Y-134657123D01*
X192635500Y-134607060D01*
X190984500Y-134607060D01*
X190742377Y-134654037D01*
X190529573Y-134793827D01*
X190387123Y-135004860D01*
X190337060Y-135254500D01*
X190337060Y-136905500D01*
X190384037Y-137147623D01*
X190517805Y-137351260D01*
X190387123Y-137544860D01*
X190370241Y-137629039D01*
X190332440Y-137603523D01*
X190082800Y-137553460D01*
X189244600Y-137553460D01*
X189002477Y-137600437D01*
X188789673Y-137740227D01*
X188647223Y-137951260D01*
X188597160Y-138200900D01*
X188597160Y-139039100D01*
X188644137Y-139281223D01*
X188783927Y-139494027D01*
X188994960Y-139636477D01*
X189244600Y-139686540D01*
X190082800Y-139686540D01*
X190324923Y-139639563D01*
X190369083Y-139610553D01*
X190384037Y-139687623D01*
X190523827Y-139900427D01*
X190734860Y-140042877D01*
X190984500Y-140092940D01*
X192103862Y-140092940D01*
X193391461Y-141380539D01*
X193696354Y-141584262D01*
X194056000Y-141655800D01*
X198120000Y-141655800D01*
X208714000Y-141655800D01*
X209073646Y-141584262D01*
X209378539Y-141380539D01*
X210666138Y-140092940D01*
X211635500Y-140092940D01*
X211877623Y-140045963D01*
X212090427Y-139906173D01*
X212232877Y-139695140D01*
X212282940Y-139445500D01*
X212282940Y-137794500D01*
X212235963Y-137552377D01*
X212102194Y-137348739D01*
X212232877Y-137155140D01*
X212282940Y-136905500D01*
X212282940Y-135254500D01*
X212235963Y-135012377D01*
X212096173Y-134799573D01*
X211885140Y-134657123D01*
X211635500Y-134607060D01*
X209984500Y-134607060D01*
X209742377Y-134654037D01*
X209529573Y-134793827D01*
X209387123Y-135004860D01*
X209337060Y-135254500D01*
X209337060Y-136905500D01*
X209384037Y-137147623D01*
X209517805Y-137351260D01*
X209387123Y-137544860D01*
X209370241Y-137629039D01*
X209332440Y-137603523D01*
X209082800Y-137553460D01*
X208244600Y-137553460D01*
X208002477Y-137600437D01*
X207789673Y-137740227D01*
X207647223Y-137951260D01*
X207597160Y-138200900D01*
X207597160Y-139039100D01*
X207644137Y-139281223D01*
X207783927Y-139494027D01*
X207994960Y-139636477D01*
X208244600Y-139686540D01*
X208414382Y-139686540D01*
X208324722Y-139776200D01*
X204099044Y-139776200D01*
X204315822Y-139559800D01*
X204553966Y-139559800D01*
X204667560Y-139636477D01*
X204917200Y-139686540D01*
X205755400Y-139686540D01*
X205997523Y-139639563D01*
X206210327Y-139499773D01*
X206352777Y-139288740D01*
X206402840Y-139039100D01*
X206402840Y-138200900D01*
X206355863Y-137958777D01*
X206216073Y-137745973D01*
X206005040Y-137603523D01*
X205755400Y-137553460D01*
X204917200Y-137553460D01*
X204675077Y-137600437D01*
X204553652Y-137680200D01*
X204333000Y-137680200D01*
X204333000Y-137002652D01*
X204427430Y-136908387D01*
X204650246Y-136371786D01*
X204650753Y-135790763D01*
X204618042Y-135711598D01*
X204647800Y-135562000D01*
X204647800Y-130048000D01*
X204576262Y-129688354D01*
X204536212Y-129628415D01*
X204696436Y-129468471D01*
X204967691Y-128815218D01*
X204968141Y-128298304D01*
X205268223Y-127998223D01*
X205515994Y-127627407D01*
X205577864Y-127316365D01*
X205966436Y-126928471D01*
X206237691Y-126275218D01*
X206238308Y-125567886D01*
X205968194Y-124914160D01*
X205468471Y-124413564D01*
X204815218Y-124142309D01*
X204107886Y-124141692D01*
X203454160Y-124411806D01*
X202953564Y-124911529D01*
X202682309Y-125564782D01*
X202681692Y-126272114D01*
X202850930Y-126681703D01*
X202837886Y-126681692D01*
X202184160Y-126951806D01*
X201683564Y-127451529D01*
X201412309Y-128104782D01*
X201411692Y-128812114D01*
X201681806Y-129465840D01*
X202181529Y-129966436D01*
X202446589Y-130076498D01*
X202525461Y-130194539D01*
X202768200Y-130437278D01*
X202768200Y-134674020D01*
X202363774Y-134841126D01*
X201952570Y-135251613D01*
X201729754Y-135788214D01*
X201729247Y-136369237D01*
X201951126Y-136906226D01*
X202047000Y-137002267D01*
X202047000Y-137697347D01*
X201952570Y-137791613D01*
X201729754Y-138328214D01*
X201729247Y-138909237D01*
X201951126Y-139446226D01*
X202280524Y-139776200D01*
X198509278Y-139776200D01*
X196519800Y-137786722D01*
X196519800Y-124460000D01*
X196448262Y-124100354D01*
X196244539Y-123795461D01*
X195939646Y-123591738D01*
X195886575Y-123581181D01*
X193314197Y-121008803D01*
X193455335Y-120980729D01*
X194987303Y-122512697D01*
X195259234Y-122694395D01*
X195259235Y-122694396D01*
X195580000Y-122758200D01*
X208297122Y-122758200D01*
X209681044Y-124142122D01*
X209187886Y-124141692D01*
X208534160Y-124411806D01*
X208033564Y-124911529D01*
X207762309Y-125564782D01*
X207761692Y-126272114D01*
X208031806Y-126925840D01*
X208422256Y-127316972D01*
X208484006Y-127627407D01*
X208731777Y-127998223D01*
X209032139Y-128298585D01*
X209031692Y-128812114D01*
X209301806Y-129465840D01*
X209801529Y-129966436D01*
X210454782Y-130237691D01*
X211162114Y-130238308D01*
X211815840Y-129968194D01*
X212316436Y-129468471D01*
X212587691Y-128815218D01*
X212588308Y-128107886D01*
X212318194Y-127454160D01*
X211818471Y-126953564D01*
X211165218Y-126682309D01*
X211148657Y-126682294D01*
X211317691Y-126275218D01*
X211318123Y-125779201D01*
X213436200Y-127897278D01*
X213436200Y-151124722D01*
X212588308Y-151972614D01*
X212588308Y-147107886D01*
X212318194Y-146454160D01*
X211818471Y-145953564D01*
X211165218Y-145682309D01*
X211148657Y-145682294D01*
X211317691Y-145275218D01*
X211318308Y-144567886D01*
X211048194Y-143914160D01*
X210548471Y-143413564D01*
X209895218Y-143142309D01*
X209187886Y-143141692D01*
X208534160Y-143411806D01*
X208033564Y-143911529D01*
X207762309Y-144564782D01*
X207761692Y-145272114D01*
X208031806Y-145925840D01*
X208422256Y-146316972D01*
X208484006Y-146627407D01*
X208731777Y-146998223D01*
X209032139Y-147298585D01*
X209031692Y-147812114D01*
X209301806Y-148465840D01*
X209801529Y-148966436D01*
X210454782Y-149237691D01*
X211162114Y-149238308D01*
X211815840Y-148968194D01*
X212316436Y-148468471D01*
X212587691Y-147815218D01*
X212588308Y-147107886D01*
X212588308Y-151972614D01*
X210953862Y-153607060D01*
X209984500Y-153607060D01*
X209742377Y-153654037D01*
X209529573Y-153793827D01*
X209387123Y-154004860D01*
X209337060Y-154254500D01*
X209337060Y-155905500D01*
X209384037Y-156147623D01*
X209517805Y-156351260D01*
X209387123Y-156544860D01*
X209370241Y-156629039D01*
X209332440Y-156603523D01*
X209082800Y-156553460D01*
X208244600Y-156553460D01*
X208002477Y-156600437D01*
X207789673Y-156740227D01*
X207647223Y-156951260D01*
X207597160Y-157200900D01*
X207597160Y-158039100D01*
X207644137Y-158281223D01*
X207783927Y-158494027D01*
X207899736Y-158572200D01*
X206100070Y-158572200D01*
X206210327Y-158499773D01*
X206352777Y-158288740D01*
X206402840Y-158039100D01*
X206402840Y-157200900D01*
X206355863Y-156958777D01*
X206216073Y-156745973D01*
X206005040Y-156603523D01*
X205755400Y-156553460D01*
X204917200Y-156553460D01*
X204675077Y-156600437D01*
X204553652Y-156680200D01*
X204333000Y-156680200D01*
X204333000Y-156002652D01*
X204427430Y-155908387D01*
X204650246Y-155371786D01*
X204650753Y-154790763D01*
X204618042Y-154711598D01*
X204647800Y-154562000D01*
X204647800Y-149352000D01*
X204576262Y-148992354D01*
X204414361Y-148750053D01*
X204696436Y-148468471D01*
X204967691Y-147815218D01*
X204968141Y-147298304D01*
X205268223Y-146998223D01*
X205515994Y-146627407D01*
X205577864Y-146316365D01*
X205966436Y-145928471D01*
X206237691Y-145275218D01*
X206238308Y-144567886D01*
X205968194Y-143914160D01*
X205468471Y-143413564D01*
X204815218Y-143142309D01*
X204107886Y-143141692D01*
X203454160Y-143411806D01*
X202953564Y-143911529D01*
X202682309Y-144564782D01*
X202681692Y-145272114D01*
X202850930Y-145681703D01*
X202837886Y-145681692D01*
X202184160Y-145951806D01*
X201683564Y-146451529D01*
X201412309Y-147104782D01*
X201411692Y-147812114D01*
X201681806Y-148465840D01*
X202181529Y-148966436D01*
X202285097Y-149009441D01*
X202321738Y-149193646D01*
X202525461Y-149498539D01*
X202768200Y-149741278D01*
X202768200Y-153674020D01*
X202363774Y-153841126D01*
X201952570Y-154251613D01*
X201729754Y-154788214D01*
X201729247Y-155369237D01*
X201951126Y-155906226D01*
X202047000Y-156002267D01*
X202047000Y-156697347D01*
X201952570Y-156791613D01*
X201729754Y-157328214D01*
X201729247Y-157909237D01*
X201951126Y-158446226D01*
X202076880Y-158572200D01*
X193937278Y-158572200D01*
X193588308Y-158223230D01*
X193588308Y-147107886D01*
X193318194Y-146454160D01*
X192818471Y-145953564D01*
X192165218Y-145682309D01*
X192148657Y-145682294D01*
X192317691Y-145275218D01*
X192318308Y-144567886D01*
X192048194Y-143914160D01*
X191548471Y-143413564D01*
X190895218Y-143142309D01*
X190187886Y-143141692D01*
X189534160Y-143411806D01*
X189033564Y-143911529D01*
X188762309Y-144564782D01*
X188761692Y-145272114D01*
X189031806Y-145925840D01*
X189422256Y-146316972D01*
X189484006Y-146627407D01*
X189731777Y-146998223D01*
X190032139Y-147298585D01*
X190031692Y-147812114D01*
X190301806Y-148465840D01*
X190801529Y-148966436D01*
X191454782Y-149237691D01*
X192162114Y-149238308D01*
X192815840Y-148968194D01*
X193316436Y-148468471D01*
X193587691Y-147815218D01*
X193588308Y-147107886D01*
X193588308Y-158223230D01*
X193282940Y-157917862D01*
X193282940Y-156794500D01*
X193235963Y-156552377D01*
X193102194Y-156348739D01*
X193232877Y-156155140D01*
X193282940Y-155905500D01*
X193282940Y-154254500D01*
X193235963Y-154012377D01*
X193096173Y-153799573D01*
X192885140Y-153657123D01*
X192635500Y-153607060D01*
X190984500Y-153607060D01*
X190742377Y-153654037D01*
X190529573Y-153793827D01*
X190387123Y-154004860D01*
X190337060Y-154254500D01*
X190337060Y-155905500D01*
X190384037Y-156147623D01*
X190517805Y-156351260D01*
X190387123Y-156544860D01*
X190370241Y-156629039D01*
X190332440Y-156603523D01*
X190082800Y-156553460D01*
X189244600Y-156553460D01*
X189002477Y-156600437D01*
X188789673Y-156740227D01*
X188647223Y-156951260D01*
X188597160Y-157200900D01*
X188597160Y-158039100D01*
X188644137Y-158281223D01*
X188783927Y-158494027D01*
X188994960Y-158636477D01*
X189244600Y-158686540D01*
X190082800Y-158686540D01*
X190324923Y-158639563D01*
X190369083Y-158610553D01*
X190384037Y-158687623D01*
X190523827Y-158900427D01*
X190734860Y-159042877D01*
X190984500Y-159092940D01*
X191799862Y-159092940D01*
X192883461Y-160176539D01*
X193188354Y-160380262D01*
X193548000Y-160451800D01*
X208918000Y-160451800D01*
X209277646Y-160380262D01*
X209582539Y-160176539D01*
X210666138Y-159092940D01*
X211635500Y-159092940D01*
X211877623Y-159045963D01*
X212090427Y-158906173D01*
X212232877Y-158695140D01*
X212282940Y-158445500D01*
X212282940Y-156794500D01*
X212235963Y-156552377D01*
X212102194Y-156348739D01*
X212232877Y-156155140D01*
X212282940Y-155905500D01*
X212282940Y-154936138D01*
X215040539Y-152178539D01*
X215244262Y-151873646D01*
X215315800Y-151514000D01*
X215315800Y-127508000D01*
X215244262Y-127148354D01*
X215040539Y-126843461D01*
X209452539Y-121255461D01*
X209147646Y-121051738D01*
X209105929Y-121043440D01*
X209143600Y-121043440D01*
X209385723Y-120996463D01*
X209598527Y-120856673D01*
X209740977Y-120645640D01*
X209791040Y-120396000D01*
X209791040Y-118364000D01*
X209744063Y-118121877D01*
X209685680Y-118033000D01*
X215392000Y-118033000D01*
X215723000Y-118033000D01*
X215723000Y-163907000D01*
M02*
