G04 #@! TF.FileFunction,Legend,Top*
%FSLAX46Y46*%
G04 Gerber Fmt 4.6, Leading zero omitted, Abs format (unit mm)*
G04 Created by KiCad (PCBNEW (after 2015-jan-16 BZR unknown)-brewed_product) date Friday, March 06, 2015 'AMt' 08:10:05 AM*
%MOMM*%
G01*
G04 APERTURE LIST*
%ADD10C,0.100000*%
%ADD11C,0.381000*%
%ADD12C,0.150000*%
%ADD13C,0.254000*%
G04 APERTURE END LIST*
D10*
D11*
X147650000Y-101650000D02*
X149428000Y-101650000D01*
X158572000Y-101650000D02*
X160350000Y-101650000D01*
X160350000Y-101650000D02*
X160350000Y-103428000D01*
X160350000Y-112572000D02*
X160350000Y-114350000D01*
X160350000Y-114350000D02*
X158572000Y-114350000D01*
X149428000Y-114350000D02*
X147650000Y-114350000D01*
X147650000Y-114350000D02*
X147650000Y-112572000D01*
X147650000Y-103428000D02*
X147650000Y-101650000D01*
X147650000Y-120650000D02*
X149428000Y-120650000D01*
X158572000Y-120650000D02*
X160350000Y-120650000D01*
X160350000Y-120650000D02*
X160350000Y-122428000D01*
X160350000Y-131572000D02*
X160350000Y-133350000D01*
X160350000Y-133350000D02*
X158572000Y-133350000D01*
X149428000Y-133350000D02*
X147650000Y-133350000D01*
X147650000Y-133350000D02*
X147650000Y-131572000D01*
X147650000Y-122428000D02*
X147650000Y-120650000D01*
X166650000Y-101650000D02*
X168428000Y-101650000D01*
X177572000Y-101650000D02*
X179350000Y-101650000D01*
X179350000Y-101650000D02*
X179350000Y-103428000D01*
X179350000Y-112572000D02*
X179350000Y-114350000D01*
X179350000Y-114350000D02*
X177572000Y-114350000D01*
X168428000Y-114350000D02*
X166650000Y-114350000D01*
X166650000Y-114350000D02*
X166650000Y-112572000D01*
X166650000Y-103428000D02*
X166650000Y-101650000D01*
X166650000Y-120650000D02*
X168428000Y-120650000D01*
X177572000Y-120650000D02*
X179350000Y-120650000D01*
X179350000Y-120650000D02*
X179350000Y-122428000D01*
X179350000Y-131572000D02*
X179350000Y-133350000D01*
X179350000Y-133350000D02*
X177572000Y-133350000D01*
X168428000Y-133350000D02*
X166650000Y-133350000D01*
X166650000Y-133350000D02*
X166650000Y-131572000D01*
X166650000Y-122428000D02*
X166650000Y-120650000D01*
D12*
X184730000Y-114770000D02*
X184730000Y-122390000D01*
X187270000Y-114770000D02*
X187270000Y-122390000D01*
X187550000Y-111950000D02*
X187550000Y-113500000D01*
X184730000Y-122390000D02*
X187270000Y-122390000D01*
X187270000Y-114770000D02*
X184730000Y-114770000D01*
X184450000Y-113500000D02*
X184450000Y-111950000D01*
X184450000Y-111950000D02*
X187550000Y-111950000D01*
D13*
X152645334Y-110467429D02*
X152814667Y-110467429D01*
X152984001Y-110540000D01*
X153068667Y-110612571D01*
X153153334Y-110757714D01*
X153238001Y-111048000D01*
X153238001Y-111410857D01*
X153153334Y-111701143D01*
X153068667Y-111846286D01*
X152984001Y-111918857D01*
X152814667Y-111991429D01*
X152645334Y-111991429D01*
X152476001Y-111918857D01*
X152391334Y-111846286D01*
X152306667Y-111701143D01*
X152222001Y-111410857D01*
X152222001Y-111048000D01*
X152306667Y-110757714D01*
X152391334Y-110612571D01*
X152476001Y-110540000D01*
X152645334Y-110467429D01*
X154084667Y-111918857D02*
X154084667Y-111991429D01*
X154000000Y-112136571D01*
X153915334Y-112209143D01*
X154000000Y-111048000D02*
X154084667Y-111120571D01*
X154000000Y-111193143D01*
X153915334Y-111120571D01*
X154000000Y-111048000D01*
X154000000Y-111193143D01*
X155185334Y-110467429D02*
X155354667Y-110467429D01*
X155524001Y-110540000D01*
X155608667Y-110612571D01*
X155693334Y-110757714D01*
X155778001Y-111048000D01*
X155778001Y-111410857D01*
X155693334Y-111701143D01*
X155608667Y-111846286D01*
X155524001Y-111918857D01*
X155354667Y-111991429D01*
X155185334Y-111991429D01*
X155016001Y-111918857D01*
X154931334Y-111846286D01*
X154846667Y-111701143D01*
X154762001Y-111410857D01*
X154762001Y-111048000D01*
X154846667Y-110757714D01*
X154931334Y-110612571D01*
X155016001Y-110540000D01*
X155185334Y-110467429D01*
X152645334Y-129467429D02*
X152814667Y-129467429D01*
X152984001Y-129540000D01*
X153068667Y-129612571D01*
X153153334Y-129757714D01*
X153238001Y-130048000D01*
X153238001Y-130410857D01*
X153153334Y-130701143D01*
X153068667Y-130846286D01*
X152984001Y-130918857D01*
X152814667Y-130991429D01*
X152645334Y-130991429D01*
X152476001Y-130918857D01*
X152391334Y-130846286D01*
X152306667Y-130701143D01*
X152222001Y-130410857D01*
X152222001Y-130048000D01*
X152306667Y-129757714D01*
X152391334Y-129612571D01*
X152476001Y-129540000D01*
X152645334Y-129467429D01*
X154084667Y-130918857D02*
X154084667Y-130991429D01*
X154000000Y-131136571D01*
X153915334Y-131209143D01*
X154000000Y-130048000D02*
X154084667Y-130120571D01*
X154000000Y-130193143D01*
X153915334Y-130120571D01*
X154000000Y-130048000D01*
X154000000Y-130193143D01*
X155778001Y-130991429D02*
X154762001Y-130991429D01*
X155270001Y-130991429D02*
X155270001Y-129467429D01*
X155100667Y-129685143D01*
X154931334Y-129830286D01*
X154762001Y-129902857D01*
X172238001Y-111991429D02*
X171222001Y-111991429D01*
X171730001Y-111991429D02*
X171730001Y-110467429D01*
X171560667Y-110685143D01*
X171391334Y-110830286D01*
X171222001Y-110902857D01*
X173084667Y-111918857D02*
X173084667Y-111991429D01*
X173000000Y-112136571D01*
X172915334Y-112209143D01*
X173000000Y-111048000D02*
X173084667Y-111120571D01*
X173000000Y-111193143D01*
X172915334Y-111120571D01*
X173000000Y-111048000D01*
X173000000Y-111193143D01*
X174185334Y-110467429D02*
X174354667Y-110467429D01*
X174524001Y-110540000D01*
X174608667Y-110612571D01*
X174693334Y-110757714D01*
X174778001Y-111048000D01*
X174778001Y-111410857D01*
X174693334Y-111701143D01*
X174608667Y-111846286D01*
X174524001Y-111918857D01*
X174354667Y-111991429D01*
X174185334Y-111991429D01*
X174016001Y-111918857D01*
X173931334Y-111846286D01*
X173846667Y-111701143D01*
X173762001Y-111410857D01*
X173762001Y-111048000D01*
X173846667Y-110757714D01*
X173931334Y-110612571D01*
X174016001Y-110540000D01*
X174185334Y-110467429D01*
X172238001Y-130991429D02*
X171222001Y-130991429D01*
X171730001Y-130991429D02*
X171730001Y-129467429D01*
X171560667Y-129685143D01*
X171391334Y-129830286D01*
X171222001Y-129902857D01*
X173084667Y-130918857D02*
X173084667Y-130991429D01*
X173000000Y-131136571D01*
X172915334Y-131209143D01*
X173000000Y-130048000D02*
X173084667Y-130120571D01*
X173000000Y-130193143D01*
X172915334Y-130120571D01*
X173000000Y-130048000D01*
X173000000Y-130193143D01*
X174778001Y-130991429D02*
X173762001Y-130991429D01*
X174270001Y-130991429D02*
X174270001Y-129467429D01*
X174100667Y-129685143D01*
X173931334Y-129830286D01*
X173762001Y-129902857D01*
D12*
X185261905Y-108852381D02*
X185261905Y-107852381D01*
X185642858Y-107852381D01*
X185738096Y-107900000D01*
X185785715Y-107947619D01*
X185833334Y-108042857D01*
X185833334Y-108185714D01*
X185785715Y-108280952D01*
X185738096Y-108328571D01*
X185642858Y-108376190D01*
X185261905Y-108376190D01*
X186785715Y-108852381D02*
X186214286Y-108852381D01*
X186500000Y-108852381D02*
X186500000Y-107852381D01*
X186404762Y-107995238D01*
X186309524Y-108090476D01*
X186214286Y-108138095D01*
M02*
