G04 #@! TF.FileFunction,Legend,Bot*
%FSLAX46Y46*%
G04 Gerber Fmt 4.6, Leading zero omitted, Abs format (unit mm)*
G04 Created by KiCad (PCBNEW (after 2015-jan-16 BZR unknown)-brewed_product) date Friday, March 06, 2015 'AMt' 08:10:05 AM*
%MOMM*%
G01*
G04 APERTURE LIST*
%ADD10C,0.100000*%
%ADD11C,0.381000*%
%ADD12C,0.254000*%
G04 APERTURE END LIST*
D10*
D11*
X147650000Y-101650000D02*
X149428000Y-101650000D01*
X158572000Y-101650000D02*
X160350000Y-101650000D01*
X160350000Y-101650000D02*
X160350000Y-103428000D01*
X160350000Y-112572000D02*
X160350000Y-114350000D01*
X160350000Y-114350000D02*
X158572000Y-114350000D01*
X149428000Y-114350000D02*
X147650000Y-114350000D01*
X147650000Y-114350000D02*
X147650000Y-112572000D01*
X147650000Y-103428000D02*
X147650000Y-101650000D01*
X147650000Y-120650000D02*
X149428000Y-120650000D01*
X158572000Y-120650000D02*
X160350000Y-120650000D01*
X160350000Y-120650000D02*
X160350000Y-122428000D01*
X160350000Y-131572000D02*
X160350000Y-133350000D01*
X160350000Y-133350000D02*
X158572000Y-133350000D01*
X149428000Y-133350000D02*
X147650000Y-133350000D01*
X147650000Y-133350000D02*
X147650000Y-131572000D01*
X147650000Y-122428000D02*
X147650000Y-120650000D01*
X166650000Y-101650000D02*
X168428000Y-101650000D01*
X177572000Y-101650000D02*
X179350000Y-101650000D01*
X179350000Y-101650000D02*
X179350000Y-103428000D01*
X179350000Y-112572000D02*
X179350000Y-114350000D01*
X179350000Y-114350000D02*
X177572000Y-114350000D01*
X168428000Y-114350000D02*
X166650000Y-114350000D01*
X166650000Y-114350000D02*
X166650000Y-112572000D01*
X166650000Y-103428000D02*
X166650000Y-101650000D01*
X166650000Y-120650000D02*
X168428000Y-120650000D01*
X177572000Y-120650000D02*
X179350000Y-120650000D01*
X179350000Y-120650000D02*
X179350000Y-122428000D01*
X179350000Y-131572000D02*
X179350000Y-133350000D01*
X179350000Y-133350000D02*
X177572000Y-133350000D01*
X168428000Y-133350000D02*
X166650000Y-133350000D01*
X166650000Y-133350000D02*
X166650000Y-131572000D01*
X166650000Y-122428000D02*
X166650000Y-120650000D01*
D12*
X163059334Y-111918857D02*
X162805334Y-111991429D01*
X162382001Y-111991429D01*
X162212668Y-111918857D01*
X162128001Y-111846286D01*
X162043334Y-111701143D01*
X162043334Y-111556000D01*
X162128001Y-111410857D01*
X162212668Y-111338286D01*
X162382001Y-111265714D01*
X162720668Y-111193143D01*
X162890001Y-111120571D01*
X162974668Y-111048000D01*
X163059334Y-110902857D01*
X163059334Y-110757714D01*
X162974668Y-110612571D01*
X162890001Y-110540000D01*
X162720668Y-110467429D01*
X162297334Y-110467429D01*
X162043334Y-110540000D01*
X161450668Y-110467429D02*
X161027335Y-111991429D01*
X160688668Y-110902857D01*
X160350001Y-111991429D01*
X159926668Y-110467429D01*
X159249335Y-111991429D02*
X159249335Y-110467429D01*
X158656668Y-110467429D02*
X157640668Y-110467429D01*
X158148668Y-111991429D02*
X158148668Y-110467429D01*
X156032001Y-111846286D02*
X156116667Y-111918857D01*
X156370667Y-111991429D01*
X156540001Y-111991429D01*
X156794001Y-111918857D01*
X156963334Y-111773714D01*
X157048001Y-111628571D01*
X157132667Y-111338286D01*
X157132667Y-111120571D01*
X157048001Y-110830286D01*
X156963334Y-110685143D01*
X156794001Y-110540000D01*
X156540001Y-110467429D01*
X156370667Y-110467429D01*
X156116667Y-110540000D01*
X156032001Y-110612571D01*
X155270001Y-111991429D02*
X155270001Y-110467429D01*
X155270001Y-111193143D02*
X154254001Y-111193143D01*
X154254001Y-111991429D02*
X154254001Y-110467429D01*
X153830667Y-112136571D02*
X152476000Y-112136571D01*
X152052667Y-111991429D02*
X152052667Y-110467429D01*
X151629333Y-110467429D01*
X151375333Y-110540000D01*
X151206000Y-110685143D01*
X151121333Y-110830286D01*
X151036667Y-111120571D01*
X151036667Y-111338286D01*
X151121333Y-111628571D01*
X151206000Y-111773714D01*
X151375333Y-111918857D01*
X151629333Y-111991429D01*
X152052667Y-111991429D01*
X150274667Y-111991429D02*
X150274667Y-110467429D01*
X149089333Y-110467429D02*
X148750666Y-110467429D01*
X148581333Y-110540000D01*
X148412000Y-110685143D01*
X148327333Y-110975429D01*
X148327333Y-111483429D01*
X148412000Y-111773714D01*
X148581333Y-111918857D01*
X148750666Y-111991429D01*
X149089333Y-111991429D01*
X149258666Y-111918857D01*
X149428000Y-111773714D01*
X149512666Y-111483429D01*
X149512666Y-110975429D01*
X149428000Y-110685143D01*
X149258666Y-110540000D01*
X149089333Y-110467429D01*
X147565333Y-111991429D02*
X147565333Y-110467429D01*
X147141999Y-110467429D01*
X146887999Y-110540000D01*
X146718666Y-110685143D01*
X146633999Y-110830286D01*
X146549333Y-111120571D01*
X146549333Y-111338286D01*
X146633999Y-111628571D01*
X146718666Y-111773714D01*
X146887999Y-111918857D01*
X147141999Y-111991429D01*
X147565333Y-111991429D01*
X145787333Y-111193143D02*
X145194666Y-111193143D01*
X144940666Y-111991429D02*
X145787333Y-111991429D01*
X145787333Y-110467429D01*
X144940666Y-110467429D01*
X163059334Y-130918857D02*
X162805334Y-130991429D01*
X162382001Y-130991429D01*
X162212668Y-130918857D01*
X162128001Y-130846286D01*
X162043334Y-130701143D01*
X162043334Y-130556000D01*
X162128001Y-130410857D01*
X162212668Y-130338286D01*
X162382001Y-130265714D01*
X162720668Y-130193143D01*
X162890001Y-130120571D01*
X162974668Y-130048000D01*
X163059334Y-129902857D01*
X163059334Y-129757714D01*
X162974668Y-129612571D01*
X162890001Y-129540000D01*
X162720668Y-129467429D01*
X162297334Y-129467429D01*
X162043334Y-129540000D01*
X161450668Y-129467429D02*
X161027335Y-130991429D01*
X160688668Y-129902857D01*
X160350001Y-130991429D01*
X159926668Y-129467429D01*
X159249335Y-130991429D02*
X159249335Y-129467429D01*
X158656668Y-129467429D02*
X157640668Y-129467429D01*
X158148668Y-130991429D02*
X158148668Y-129467429D01*
X156032001Y-130846286D02*
X156116667Y-130918857D01*
X156370667Y-130991429D01*
X156540001Y-130991429D01*
X156794001Y-130918857D01*
X156963334Y-130773714D01*
X157048001Y-130628571D01*
X157132667Y-130338286D01*
X157132667Y-130120571D01*
X157048001Y-129830286D01*
X156963334Y-129685143D01*
X156794001Y-129540000D01*
X156540001Y-129467429D01*
X156370667Y-129467429D01*
X156116667Y-129540000D01*
X156032001Y-129612571D01*
X155270001Y-130991429D02*
X155270001Y-129467429D01*
X155270001Y-130193143D02*
X154254001Y-130193143D01*
X154254001Y-130991429D02*
X154254001Y-129467429D01*
X153830667Y-131136571D02*
X152476000Y-131136571D01*
X152052667Y-130991429D02*
X152052667Y-129467429D01*
X151629333Y-129467429D01*
X151375333Y-129540000D01*
X151206000Y-129685143D01*
X151121333Y-129830286D01*
X151036667Y-130120571D01*
X151036667Y-130338286D01*
X151121333Y-130628571D01*
X151206000Y-130773714D01*
X151375333Y-130918857D01*
X151629333Y-130991429D01*
X152052667Y-130991429D01*
X150274667Y-130991429D02*
X150274667Y-129467429D01*
X149089333Y-129467429D02*
X148750666Y-129467429D01*
X148581333Y-129540000D01*
X148412000Y-129685143D01*
X148327333Y-129975429D01*
X148327333Y-130483429D01*
X148412000Y-130773714D01*
X148581333Y-130918857D01*
X148750666Y-130991429D01*
X149089333Y-130991429D01*
X149258666Y-130918857D01*
X149428000Y-130773714D01*
X149512666Y-130483429D01*
X149512666Y-129975429D01*
X149428000Y-129685143D01*
X149258666Y-129540000D01*
X149089333Y-129467429D01*
X147565333Y-130991429D02*
X147565333Y-129467429D01*
X147141999Y-129467429D01*
X146887999Y-129540000D01*
X146718666Y-129685143D01*
X146633999Y-129830286D01*
X146549333Y-130120571D01*
X146549333Y-130338286D01*
X146633999Y-130628571D01*
X146718666Y-130773714D01*
X146887999Y-130918857D01*
X147141999Y-130991429D01*
X147565333Y-130991429D01*
X145787333Y-130193143D02*
X145194666Y-130193143D01*
X144940666Y-130991429D02*
X145787333Y-130991429D01*
X145787333Y-129467429D01*
X144940666Y-129467429D01*
X182059334Y-111918857D02*
X181805334Y-111991429D01*
X181382001Y-111991429D01*
X181212668Y-111918857D01*
X181128001Y-111846286D01*
X181043334Y-111701143D01*
X181043334Y-111556000D01*
X181128001Y-111410857D01*
X181212668Y-111338286D01*
X181382001Y-111265714D01*
X181720668Y-111193143D01*
X181890001Y-111120571D01*
X181974668Y-111048000D01*
X182059334Y-110902857D01*
X182059334Y-110757714D01*
X181974668Y-110612571D01*
X181890001Y-110540000D01*
X181720668Y-110467429D01*
X181297334Y-110467429D01*
X181043334Y-110540000D01*
X180450668Y-110467429D02*
X180027335Y-111991429D01*
X179688668Y-110902857D01*
X179350001Y-111991429D01*
X178926668Y-110467429D01*
X178249335Y-111991429D02*
X178249335Y-110467429D01*
X177656668Y-110467429D02*
X176640668Y-110467429D01*
X177148668Y-111991429D02*
X177148668Y-110467429D01*
X175032001Y-111846286D02*
X175116667Y-111918857D01*
X175370667Y-111991429D01*
X175540001Y-111991429D01*
X175794001Y-111918857D01*
X175963334Y-111773714D01*
X176048001Y-111628571D01*
X176132667Y-111338286D01*
X176132667Y-111120571D01*
X176048001Y-110830286D01*
X175963334Y-110685143D01*
X175794001Y-110540000D01*
X175540001Y-110467429D01*
X175370667Y-110467429D01*
X175116667Y-110540000D01*
X175032001Y-110612571D01*
X174270001Y-111991429D02*
X174270001Y-110467429D01*
X174270001Y-111193143D02*
X173254001Y-111193143D01*
X173254001Y-111991429D02*
X173254001Y-110467429D01*
X172830667Y-112136571D02*
X171476000Y-112136571D01*
X171052667Y-111991429D02*
X171052667Y-110467429D01*
X170629333Y-110467429D01*
X170375333Y-110540000D01*
X170206000Y-110685143D01*
X170121333Y-110830286D01*
X170036667Y-111120571D01*
X170036667Y-111338286D01*
X170121333Y-111628571D01*
X170206000Y-111773714D01*
X170375333Y-111918857D01*
X170629333Y-111991429D01*
X171052667Y-111991429D01*
X169274667Y-111991429D02*
X169274667Y-110467429D01*
X168089333Y-110467429D02*
X167750666Y-110467429D01*
X167581333Y-110540000D01*
X167412000Y-110685143D01*
X167327333Y-110975429D01*
X167327333Y-111483429D01*
X167412000Y-111773714D01*
X167581333Y-111918857D01*
X167750666Y-111991429D01*
X168089333Y-111991429D01*
X168258666Y-111918857D01*
X168428000Y-111773714D01*
X168512666Y-111483429D01*
X168512666Y-110975429D01*
X168428000Y-110685143D01*
X168258666Y-110540000D01*
X168089333Y-110467429D01*
X166565333Y-111991429D02*
X166565333Y-110467429D01*
X166141999Y-110467429D01*
X165887999Y-110540000D01*
X165718666Y-110685143D01*
X165633999Y-110830286D01*
X165549333Y-111120571D01*
X165549333Y-111338286D01*
X165633999Y-111628571D01*
X165718666Y-111773714D01*
X165887999Y-111918857D01*
X166141999Y-111991429D01*
X166565333Y-111991429D01*
X164787333Y-111193143D02*
X164194666Y-111193143D01*
X163940666Y-111991429D02*
X164787333Y-111991429D01*
X164787333Y-110467429D01*
X163940666Y-110467429D01*
X182059334Y-130918857D02*
X181805334Y-130991429D01*
X181382001Y-130991429D01*
X181212668Y-130918857D01*
X181128001Y-130846286D01*
X181043334Y-130701143D01*
X181043334Y-130556000D01*
X181128001Y-130410857D01*
X181212668Y-130338286D01*
X181382001Y-130265714D01*
X181720668Y-130193143D01*
X181890001Y-130120571D01*
X181974668Y-130048000D01*
X182059334Y-129902857D01*
X182059334Y-129757714D01*
X181974668Y-129612571D01*
X181890001Y-129540000D01*
X181720668Y-129467429D01*
X181297334Y-129467429D01*
X181043334Y-129540000D01*
X180450668Y-129467429D02*
X180027335Y-130991429D01*
X179688668Y-129902857D01*
X179350001Y-130991429D01*
X178926668Y-129467429D01*
X178249335Y-130991429D02*
X178249335Y-129467429D01*
X177656668Y-129467429D02*
X176640668Y-129467429D01*
X177148668Y-130991429D02*
X177148668Y-129467429D01*
X175032001Y-130846286D02*
X175116667Y-130918857D01*
X175370667Y-130991429D01*
X175540001Y-130991429D01*
X175794001Y-130918857D01*
X175963334Y-130773714D01*
X176048001Y-130628571D01*
X176132667Y-130338286D01*
X176132667Y-130120571D01*
X176048001Y-129830286D01*
X175963334Y-129685143D01*
X175794001Y-129540000D01*
X175540001Y-129467429D01*
X175370667Y-129467429D01*
X175116667Y-129540000D01*
X175032001Y-129612571D01*
X174270001Y-130991429D02*
X174270001Y-129467429D01*
X174270001Y-130193143D02*
X173254001Y-130193143D01*
X173254001Y-130991429D02*
X173254001Y-129467429D01*
X172830667Y-131136571D02*
X171476000Y-131136571D01*
X171052667Y-130991429D02*
X171052667Y-129467429D01*
X170629333Y-129467429D01*
X170375333Y-129540000D01*
X170206000Y-129685143D01*
X170121333Y-129830286D01*
X170036667Y-130120571D01*
X170036667Y-130338286D01*
X170121333Y-130628571D01*
X170206000Y-130773714D01*
X170375333Y-130918857D01*
X170629333Y-130991429D01*
X171052667Y-130991429D01*
X169274667Y-130991429D02*
X169274667Y-129467429D01*
X168089333Y-129467429D02*
X167750666Y-129467429D01*
X167581333Y-129540000D01*
X167412000Y-129685143D01*
X167327333Y-129975429D01*
X167327333Y-130483429D01*
X167412000Y-130773714D01*
X167581333Y-130918857D01*
X167750666Y-130991429D01*
X168089333Y-130991429D01*
X168258666Y-130918857D01*
X168428000Y-130773714D01*
X168512666Y-130483429D01*
X168512666Y-129975429D01*
X168428000Y-129685143D01*
X168258666Y-129540000D01*
X168089333Y-129467429D01*
X166565333Y-130991429D02*
X166565333Y-129467429D01*
X166141999Y-129467429D01*
X165887999Y-129540000D01*
X165718666Y-129685143D01*
X165633999Y-129830286D01*
X165549333Y-130120571D01*
X165549333Y-130338286D01*
X165633999Y-130628571D01*
X165718666Y-130773714D01*
X165887999Y-130918857D01*
X166141999Y-130991429D01*
X166565333Y-130991429D01*
X164787333Y-130193143D02*
X164194666Y-130193143D01*
X163940666Y-130991429D02*
X164787333Y-130991429D01*
X164787333Y-129467429D01*
X163940666Y-129467429D01*
M02*
