M48
;DRILL file {kicad (after 2015-jan-16 BZR unknown)-brewed_product} date Friday, March 06, 2015 'AMt' 08:10:26 AM
;FORMAT={-:-/ absolute / inch / decimal}
FMAT,2
INCH,TZ
T1C0.039
T2C0.040
T3C0.059
T4C0.067
%
G90
G05
M72
T1
X5.913Y-4.452
X5.913Y-4.552
X5.913Y-5.2
X5.913Y-5.3
X6.213Y-4.452
X6.213Y-4.552
X6.213Y-5.2
X6.213Y-5.3
X6.661Y-4.452
X6.661Y-4.552
X6.661Y-5.2
X6.661Y-5.3
X6.961Y-4.452
X6.961Y-4.552
X6.961Y-5.2
X6.961Y-5.3
T2
X7.3228Y-4.4685
X7.3228Y-4.5685
X7.3228Y-4.6685
X7.3228Y-4.7685
T3
X5.913Y-4.152
X5.913Y-4.9
X5.963Y-4.052
X5.963Y-4.8
X6.163Y-4.052
X6.163Y-4.8
X6.213Y-4.152
X6.213Y-4.9
X6.661Y-4.152
X6.661Y-4.9
X6.711Y-4.052
X6.711Y-4.8
X6.911Y-4.052
X6.911Y-4.8
X6.961Y-4.152
X6.961Y-4.9
T4
X5.863Y-4.252
X5.863Y-5.
X6.263Y-4.252
X6.263Y-5.
X6.611Y-4.252
X6.611Y-5.
X7.011Y-4.252
X7.011Y-5.
T0
M30
