G04 #@! TF.FileFunction,Soldermask,Bot*
%FSLAX46Y46*%
G04 Gerber Fmt 4.6, Leading zero omitted, Abs format (unit mm)*
G04 Created by KiCad (PCBNEW (after 2015-jan-16 BZR unknown)-brewed_product) date Sunday, March 08, 2015 'PMt' 01:09:04 PM*
%MOMM*%
G01*
G04 APERTURE LIST*
%ADD10C,0.100000*%
%ADD11R,1.727200X2.032000*%
%ADD12O,1.727200X2.032000*%
%ADD13C,2.286000*%
%ADD14C,1.651000*%
%ADD15R,1.651000X1.651000*%
%ADD16R,0.838200X0.838200*%
G04 APERTURE END LIST*
D10*
D11*
X185420000Y-162560000D03*
D12*
X187960000Y-162560000D03*
X190500000Y-162560000D03*
X193040000Y-162560000D03*
X195580000Y-162560000D03*
X198120000Y-162560000D03*
X200660000Y-162560000D03*
X203200000Y-162560000D03*
X205740000Y-162560000D03*
X208280000Y-162560000D03*
D13*
X190540000Y-125920000D03*
X184190000Y-128460000D03*
X191810000Y-128460000D03*
X185460000Y-125920000D03*
D14*
X184190000Y-136080000D03*
D15*
X191810000Y-136080000D03*
D14*
X184190000Y-138620000D03*
D15*
X191810000Y-138620000D03*
D16*
X186336300Y-138620000D03*
X189663700Y-138620000D03*
D13*
X190540000Y-144920000D03*
X184190000Y-147460000D03*
X191810000Y-147460000D03*
X185460000Y-144920000D03*
D14*
X184190000Y-155080000D03*
D15*
X191810000Y-155080000D03*
D14*
X184190000Y-157620000D03*
D15*
X191810000Y-157620000D03*
D16*
X186336300Y-157620000D03*
X189663700Y-157620000D03*
D13*
X209540000Y-125920000D03*
X203190000Y-128460000D03*
X210810000Y-128460000D03*
X204460000Y-125920000D03*
D14*
X203190000Y-136080000D03*
D15*
X210810000Y-136080000D03*
D14*
X203190000Y-138620000D03*
D15*
X210810000Y-138620000D03*
D16*
X205336300Y-138620000D03*
X208663700Y-138620000D03*
D13*
X209540000Y-144920000D03*
X203190000Y-147460000D03*
X210810000Y-147460000D03*
X204460000Y-144920000D03*
D14*
X203190000Y-155080000D03*
D15*
X210810000Y-155080000D03*
D14*
X203190000Y-157620000D03*
D15*
X210810000Y-157620000D03*
D16*
X205336300Y-157620000D03*
X208663700Y-157620000D03*
D11*
X185420000Y-119380000D03*
D12*
X187960000Y-119380000D03*
X190500000Y-119380000D03*
X193040000Y-119380000D03*
D11*
X208280000Y-119380000D03*
D12*
X205740000Y-119380000D03*
X203200000Y-119380000D03*
X200660000Y-119380000D03*
X198120000Y-119380000D03*
X195580000Y-119380000D03*
M02*
