G04 #@! TF.FileFunction,Soldermask,Bot*
%FSLAX46Y46*%
G04 Gerber Fmt 4.6, Leading zero omitted, Abs format (unit mm)*
G04 Created by KiCad (PCBNEW (after 2015-jan-16 BZR unknown)-brewed_product) date Friday, March 06, 2015 'AMt' 08:10:05 AM*
%MOMM*%
G01*
G04 APERTURE LIST*
%ADD10C,0.100000*%
%ADD11C,2.286000*%
%ADD12C,1.651000*%
%ADD13R,1.651000X1.651000*%
%ADD14R,0.838200X0.838200*%
%ADD15R,2.032000X1.727200*%
%ADD16O,2.032000X1.727200*%
G04 APERTURE END LIST*
D10*
D11*
X156540000Y-102920000D03*
X150190000Y-105460000D03*
X157810000Y-105460000D03*
X151460000Y-102920000D03*
D12*
X150190000Y-113080000D03*
D13*
X157810000Y-113080000D03*
D12*
X150190000Y-115620000D03*
D13*
X157810000Y-115620000D03*
D14*
X152336300Y-115620000D03*
X155663700Y-115620000D03*
D11*
X156540000Y-121920000D03*
X150190000Y-124460000D03*
X157810000Y-124460000D03*
X151460000Y-121920000D03*
D12*
X150190000Y-132080000D03*
D13*
X157810000Y-132080000D03*
D12*
X150190000Y-134620000D03*
D13*
X157810000Y-134620000D03*
D14*
X152336300Y-134620000D03*
X155663700Y-134620000D03*
D11*
X175540000Y-102920000D03*
X169190000Y-105460000D03*
X176810000Y-105460000D03*
X170460000Y-102920000D03*
D12*
X169190000Y-113080000D03*
D13*
X176810000Y-113080000D03*
D12*
X169190000Y-115620000D03*
D13*
X176810000Y-115620000D03*
D14*
X171336300Y-115620000D03*
X174663700Y-115620000D03*
D11*
X175540000Y-121920000D03*
X169190000Y-124460000D03*
X176810000Y-124460000D03*
X170460000Y-121920000D03*
D12*
X169190000Y-132080000D03*
D13*
X176810000Y-132080000D03*
D12*
X169190000Y-134620000D03*
D13*
X176810000Y-134620000D03*
D14*
X171336300Y-134620000D03*
X174663700Y-134620000D03*
D15*
X186000000Y-113500000D03*
D16*
X186000000Y-116040000D03*
X186000000Y-118580000D03*
X186000000Y-121120000D03*
M02*
