<?xml version="1.0" encoding="utf-8"?>
<!-- Generator: Fusion 360, Shaper Origin Export Add-In, Version 1.5.0  -->
<svg enable-background="new 0 0 11.795 11.795" height="11.795cm" shaper:fusionaddin="version:1.5.0" version="1.1" viewBox="0 0 11.795 11.795" width="11.795cm" x="0cm" xml:space="preserve" xmlns="http://www.w3.org/2000/svg" xmlns:shaper="http://www.shapertools.com/namespaces/shaper" xmlns:xlink="http://www.w3.org/1999/xlink" y="0cm"><path d="M-0.3175,2.94875 L0,2.94875 0,5.8975 -0.3175,5.8975 -0.3175,8.52875 2.63125,8.52875 2.63125,8.84625 5.58,8.84625 5.58,8.52875 8.52875,8.52875 8.52875,8.84625 11.16,8.84625 11.16,5.8975 11.4775,5.8975 11.4775,2.94875 11.16,2.94875 11.16,0 11.4775,0 11.4775,-2.63125 8.52875,-2.63125 8.52875,-2.94875 5.58,-2.94875 5.58,-2.63125 2.63125,-2.63125 2.63125,-2.94875 0,-2.94875 0,0 -0.3175,0 -0.3175,2.94875z" fill="rgb(0,0,0)" shaper:cutDepth="0.003175" shaper:pathType="exterior" transform="matrix(1,0,0,-1,0.3175,8.84625)" vector-effect="non-scaling-stroke" /><path d="M7.104,2.28675 A0.1,0.1 180 0,1 7.204,2.18675 L7.258,2.18675 A0.1,0.1 270 0,1 7.358,2.28675 L7.358,3.61075 A0.1,0.1 0 0,1 7.258,3.71075 L7.204,3.71075 A0.1,0.1 90 0,1 7.104,3.61075 L7.104,2.28675z" fill="rgb(255,255,255)" shaper:cutDepth="0.003175" shaper:pathType="interior" stroke="rgb(0,0,0)" transform="matrix(1,0,0,-1,0.3175,8.84625)" vector-effect="non-scaling-stroke" /><path d="M6.877,3.83775 A0.1,0.1 270 0,1 6.977,3.93775 L6.977,3.99175 A0.1,0.1 0 0,1 6.877,4.09175 L4.283,4.09175 A0.1,0.1 90 0,1 4.183,3.99175 L4.183,3.93775 A0.1,0.1 180 0,1 4.283,3.83775 L6.877,3.83775z" fill="rgb(255,255,255)" shaper:cutDepth="0.003175" shaper:pathType="interior" stroke="rgb(0,0,0)" transform="matrix(1,0,0,-1,0.3175,8.84625)" vector-effect="non-scaling-stroke" /><path d="M3.956,2.18675 A0.1,0.1 270 0,1 4.056,2.28675 L4.056,3.61075 A0.1,0.1 0 0,1 3.956,3.71075 L3.902,3.71075 A0.1,0.1 90 0,1 3.802,3.61075 L3.802,2.28675 A0.1,0.1 180 0,1 3.902,2.18675 L3.956,2.18675z" fill="rgb(255,255,255)" shaper:cutDepth="0.003175" shaper:pathType="interior" stroke="rgb(0,0,0)" transform="matrix(1,0,0,-1,0.3175,8.84625)" vector-effect="non-scaling-stroke" /><path d="M6.877,1.80575 A0.1,0.1 270 0,1 6.977,1.90575 L6.977,1.95975 A0.1,0.1 0 0,1 6.877,2.05975 L4.283,2.05975 A0.1,0.1 90 0,1 4.183,1.95975 L4.183,1.90575 A0.1,0.1 180 0,1 4.283,1.80575 L6.877,1.80575z" fill="rgb(255,255,255)" shaper:cutDepth="0.003175" shaper:pathType="interior" stroke="rgb(0,0,0)" transform="matrix(1,0,0,-1,0.3175,8.84625)" vector-effect="non-scaling-stroke" /><path d="M7.156,1.93275 a0.075,0.075 0 1,1 0.15,0 a0.075,0.075 0 1,1 -0.15,0z" fill="rgb(255,255,255)" shaper:cutDepth="0.003175" shaper:pathType="interior" stroke="rgb(0,0,0)" transform="matrix(1,0,0,-1,0.3175,8.84625)" vector-effect="non-scaling-stroke" /><path d="M3.854,3.96475 a0.075,0.075 0 1,1 0.15,0 a0.075,0.075 0 1,1 -0.15,0z" fill="rgb(255,255,255)" shaper:cutDepth="0.003175" shaper:pathType="interior" stroke="rgb(0,0,0)" transform="matrix(1,0,0,-1,0.3175,8.84625)" vector-effect="non-scaling-stroke" /><path d="M7.156,3.96475 a0.075,0.075 0 1,1 0.15,0 a0.075,0.075 0 1,1 -0.15,0z" fill="rgb(255,255,255)" shaper:cutDepth="0.003175" shaper:pathType="interior" stroke="rgb(0,0,0)" transform="matrix(1,0,0,-1,0.3175,8.84625)" vector-effect="non-scaling-stroke" /><path d="M3.854,1.93275 a0.075,0.075 0 1,1 0.15,0 a0.075,0.075 0 1,1 -0.15,0z" fill="rgb(255,255,255)" shaper:cutDepth="0.003175" shaper:pathType="interior" stroke="rgb(0,0,0)" transform="matrix(1,0,0,-1,0.3175,8.84625)" vector-effect="non-scaling-stroke" /></svg>