<?xml version="1.0" encoding="utf-8"?>
<!-- Generator: Fusion 360, Shaper Origin Export Add-In, Version 1.5.0  -->
<svg enable-background="new 0 0 11.16 11.16" height="11.16cm" shaper:fusionaddin="version:1.5.0" version="1.1" viewBox="0 0 11.16 11.16" width="11.16cm" x="0cm" xml:space="preserve" xmlns="http://www.w3.org/2000/svg" xmlns:shaper="http://www.shapertools.com/namespaces/shaper" xmlns:xlink="http://www.w3.org/1999/xlink" y="0cm"><path d="M-2.79,10.8425 L-5.58,10.8425 -5.58,8.37 -5.2625,8.37 -5.2625,5.58 -5.58,5.58 -5.58,2.79 -5.2625,2.79 -5.2625,2.56975 -4.7625,2.56975 -4.7625,0.53775 -5.2625,0.53775 -5.2625,0.3175 -5.58,0.3175 -5.58,-0 -2.79,0 -2.79,0.3175 0,0.3175 0,-0 2.79,0 2.79,0.3175 5.58,0.3175 5.58,2.79 5.2625,2.79 5.2625,5.58 5.58,5.58 5.58,8.37 5.2625,8.37 5.2625,10.8425 5.58,10.8425 5.58,11.16 2.79,11.16 2.79,10.8425 0,10.8425 0,11.16 -2.79,11.16 -2.79,10.8425z" fill="rgb(0,0,0)" shaper:cutDepth="0.003175" shaper:pathType="exterior" transform="matrix(1,0,0,-1,5.58,11.16)" vector-effect="non-scaling-stroke" /></svg>