<?xml version="1.0" encoding="utf-8"?>
<!-- Generator: Fusion 360, Shaper Origin Export Add-In, Version 1.5.0  -->
<svg enable-background="new 0 0 11.16 11.16" height="11.16cm" shaper:fusionaddin="version:1.5.0" version="1.1" viewBox="0 0 11.16 11.16" width="11.16cm" x="0cm" xml:space="preserve" xmlns="http://www.w3.org/2000/svg" xmlns:shaper="http://www.shapertools.com/namespaces/shaper" xmlns:xlink="http://www.w3.org/1999/xlink" y="0cm"><path d="M5.2625,-2.79 L5.2625,-2.4725 2.4725,-2.4725 2.4725,-2.79 0,-2.79 0,0 -0.3175,0 -0.3175,2.79 0,2.79 0,5.58 -0.3175,5.58 -0.3175,8.0525 2.4725,8.0525 2.4725,8.37 5.2625,8.37 5.2625,8.0525 8.0525,8.0525 8.0525,8.37 10.525,8.37 10.525,5.58 10.8425,5.58 10.8425,2.79 10.525,2.79 10.525,-0 10.8425,-0 10.8425,-2.4725 8.0525,-2.4725 8.0525,-2.79 5.2625,-2.79z" fill="rgb(0,0,0)" shaper:cutDepth="0.003175" shaper:pathType="exterior" transform="matrix(1,0,0,-1,0.3175,8.37)" vector-effect="non-scaling-stroke" /><path d="M0.8865,5.80025 A0.1,0.1 270 0,1 0.9865,5.90025 L0.9865,7.73225 A0.1,0.1 0 0,1 0.8865,7.83225 L0.8665,7.83225 A0.1,0.1 90 0,1 0.7665,7.73225 L0.7665,5.90025 A0.1,0.1 180 0,1 0.8665,5.80025 L0.8865,5.80025z" fill="rgb(255,255,255)" shaper:cutDepth="0.003175" shaper:pathType="interior" stroke="rgb(0,0,0)" transform="matrix(1,0,0,-1,0.3175,8.37)" vector-effect="non-scaling-stroke" /><path d="M-0.1385,7.57825 a0.075,0.075 0 1,1 0.15,0 a0.075,0.075 0 1,1 -0.15,0z" fill="rgb(255,255,255)" shaper:cutDepth="0.003175" shaper:pathType="interior" stroke="rgb(0,0,0)" transform="matrix(1,0,0,-1,0.3175,8.37)" vector-effect="non-scaling-stroke" /><path d="M-0.1385,6.05425 a0.075,0.075 0 1,1 0.15,0 a0.075,0.075 0 1,1 -0.15,0z" fill="rgb(255,255,255)" shaper:cutDepth="0.003175" shaper:pathType="interior" stroke="rgb(0,0,0)" transform="matrix(1,0,0,-1,0.3175,8.37)" vector-effect="non-scaling-stroke" /><path d="M2.0425,2.87 a3.3,3.3 0 1,1 6.6,0 a3.3,3.3 0 1,1 -6.6,0z" fill="rgb(255,255,255)" shaper:cutDepth="0.003175" shaper:pathType="interior" stroke="rgb(0,0,0)" transform="matrix(1,0,0,-1,0.3175,8.37)" vector-effect="non-scaling-stroke" /></svg>