<?xml version="1.0" encoding="utf-8"?>
<!-- Generator: Fusion 360, Shaper Origin Export Add-In, Version 1.5.0  -->
<svg enable-background="new 0 0 11.795 12.43" height="12.43cm" shaper:fusionaddin="version:1.5.0" version="1.1" viewBox="0 0 11.795 12.43" width="11.795cm" x="0cm" xml:space="preserve" xmlns="http://www.w3.org/2000/svg" xmlns:shaper="http://www.shapertools.com/namespaces/shaper" xmlns:xlink="http://www.w3.org/1999/xlink" y="0cm"><path d="M11.795,11.795 L11.4775,11.795 11.4775,9.16375 11.795,9.16375 11.795,6.215 11.4775,6.215 11.4775,3.26625 11.795,3.26625 11.795,0 0,0 0,0.3175 5.8975,0.3175 5.8975,0.635 0,0.635 0,3.26625 0.3175,3.26625 0.3175,6.215 -0,6.215 0,9.16375 0.3175,9.16375 0.3175,11.795 5.8975,11.795 5.8975,12.1125 0,12.1125 0,12.43 11.795,12.43 11.795,11.795z" fill="rgb(0,0,0)" shaper:cutDepth="0.003175" shaper:pathType="exterior" transform="matrix(1,0,0,-1,0,12.43)" vector-effect="non-scaling-stroke" /><path d="M0.635,11.4775 L5.73875,11.4775 5.73875,6.37375 0.635,6.37375 0.635,11.4775z" fill="rgb(255,255,255)" shaper:cutDepth="0.003175" shaper:pathType="interior" stroke="rgb(0,0,0)" transform="matrix(1,0,0,-1,0,12.43)" vector-effect="non-scaling-stroke" /><path d="M0.635,6.05625 L5.73875,6.05625 5.73875,0.9525 0.635,0.9525 0.635,6.05625z" fill="rgb(255,255,255)" shaper:cutDepth="0.003175" shaper:pathType="interior" stroke="rgb(0,0,0)" transform="matrix(1,0,0,-1,0,12.43)" vector-effect="non-scaling-stroke" /><path d="M6.05625,6.05625 L11.16,6.05625 11.16,0.9525 6.05625,0.9525 6.05625,6.05625z" fill="rgb(255,255,255)" shaper:cutDepth="0.003175" shaper:pathType="interior" stroke="rgb(0,0,0)" transform="matrix(1,0,0,-1,0,12.43)" vector-effect="non-scaling-stroke" /><path d="M6.05625,11.4775 L11.16,11.4775 11.16,6.37375 6.05625,6.37375 6.05625,11.4775z" fill="rgb(255,255,255)" shaper:cutDepth="0.003175" shaper:pathType="interior" stroke="rgb(0,0,0)" transform="matrix(1,0,0,-1,0,12.43)" vector-effect="non-scaling-stroke" /></svg>