<?xml version="1.0" encoding="utf-8"?>
<!-- Generator: Fusion 360, Shaper Origin Export Add-In, Version 1.5.0  -->
<svg enable-background="new 0 0 11.795 11.795" height="11.795cm" shaper:fusionaddin="version:1.5.0" version="1.1" viewBox="0 0 11.795 11.795" width="11.795cm" x="0cm" xml:space="preserve" xmlns="http://www.w3.org/2000/svg" xmlns:shaper="http://www.shapertools.com/namespaces/shaper" xmlns:xlink="http://www.w3.org/1999/xlink" y="0cm"><path d="M8.4875,2.79 L8.17,2.79 8.17,-0.15875 8.4875,-0.15875 8.4875,-2.79 5.53875,-2.79 5.53875,-3.1075 2.59,-3.1075 2.59,-2.79 -0.35875,-2.79 -0.35875,-3.1075 -2.99,-3.1075 -2.99,-0.15875 -3.3075,-0.15875 -3.3075,2.79 -2.99,2.79 -2.99,5.73875 -3.3075,5.73875 -3.3075,8.37 -0.35875,8.37 -0.35875,8.6875 2.59,8.6875 2.59,8.37 5.53875,8.37 5.53875,8.6875 8.17,8.6875 8.17,5.73875 8.4875,5.73875 8.4875,2.79z" fill="rgb(0,0,0)" shaper:cutDepth="0.003175" shaper:pathType="exterior" transform="matrix(1,0,0,-1,3.3075,8.6875)" vector-effect="non-scaling-stroke" /><path d="M5.38,0.2 A0.2,0.2 0 0,0 5.18,0 L0,-0 A0.2,0.2 270 0,0 -0.2,0.2 L-0.2,5.38 A0.2,0.2 180 0,0 0,5.58 L5.18,5.58 A0.2,0.2 90 0,0 5.38,5.38 L5.38,0.2z" fill="rgb(255,255,255)" shaper:cutDepth="0.003175" shaper:pathType="interior" stroke="rgb(0,0,0)" transform="matrix(1,0,0,-1,3.3075,8.6875)" vector-effect="non-scaling-stroke" /></svg>